<?xml version="1.0" encoding="UTF-8" standalone="no"?>
<!DOCTYPE svg PUBLIC "-//W3C//DTD SVG 1.1//EN"
 "http://www.w3.org/Graphics/SVG/1.1/DTD/svg11.dtd">
<!-- Generated by graphviz version 2.40.1 (20161225.0304)
 -->
<!-- Title: public.users_to_repos_submissions Pages: 1 -->
<svg width="2270pt" height="1096pt"
 viewBox="0.00 0.00 2269.50 1096.00" xmlns="http://www.w3.org/2000/svg" xmlns:xlink="http://www.w3.org/1999/xlink">
<g id="graph0" class="graph" transform="scale(1 1) rotate(0) translate(4 1092)">
<title>public.users_to_repos_submissions</title>
<polygon fill="#ffffff" stroke="transparent" points="-4,4 -4,-1092 2265.5,-1092 2265.5,4 -4,4"/>
<!-- public.users_to_repos_submissions -->
<g id="node1" class="node">
<title>public.users_to_repos_submissions</title>
<polygon fill="#efefef" stroke="transparent" points="1416,-979.5 1416,-1014.5 1812,-1014.5 1812,-979.5 1416,-979.5"/>
<polygon fill="none" stroke="#000000" points="1416,-979.5 1416,-1014.5 1812,-1014.5 1812,-979.5 1416,-979.5"/>
<text text-anchor="start" x="1422.8446" y="-992.3" font-family="Arial Bold" font-size="18.00" fill="#000000">public.users_to_repos_submissions</text>
<text text-anchor="start" x="1707.9016" y="-992.3" font-family="Arial" font-size="14.00" fill="#000000"> </text>
<text text-anchor="start" x="1711.7922" y="-992.3" font-family="Arial" font-size="14.00" fill="#666666">[BASE TABLE]</text>
<polygon fill="none" stroke="#000000" points="1416,-949.5 1416,-979.5 1812,-979.5 1812,-949.5 1416,-949.5"/>
<text text-anchor="start" x="1423" y="-960.9" font-family="Arial" font-size="14.00" fill="#000000">id </text>
<text text-anchor="start" x="1437.7798" y="-960.9" font-family="Arial" font-size="14.00" fill="#666666">[bigint]</text>
<polygon fill="none" stroke="#000000" points="1416,-919.5 1416,-949.5 1812,-949.5 1812,-919.5 1416,-919.5"/>
<text text-anchor="start" x="1423" y="-930.9" font-family="Arial" font-size="14.00" fill="#000000">user_id </text>
<text text-anchor="start" x="1472.7882" y="-930.9" font-family="Arial" font-size="14.00" fill="#666666">[bigint]</text>
<polygon fill="none" stroke="#000000" points="1416,-889.5 1416,-919.5 1812,-919.5 1812,-889.5 1416,-889.5"/>
<text text-anchor="start" x="1423" y="-900.9" font-family="Arial" font-size="14.00" fill="#000000">repo_id </text>
<text text-anchor="start" x="1473.5708" y="-900.9" font-family="Arial" font-size="14.00" fill="#666666">[bigint]</text>
<polygon fill="none" stroke="#000000" points="1416,-859.5 1416,-889.5 1812,-889.5 1812,-859.5 1416,-859.5"/>
<text text-anchor="start" x="1423" y="-870.9" font-family="Arial" font-size="14.00" fill="#000000">created_at </text>
<text text-anchor="start" x="1493.028" y="-870.9" font-family="Arial" font-size="14.00" fill="#666666">[timestamp with time zone]</text>
<polygon fill="none" stroke="#000000" points="1416,-829.5 1416,-859.5 1812,-859.5 1812,-829.5 1416,-829.5"/>
<text text-anchor="start" x="1423" y="-840.9" font-family="Arial" font-size="14.00" fill="#000000">updated_at </text>
<text text-anchor="start" x="1496.9326" y="-840.9" font-family="Arial" font-size="14.00" fill="#666666">[timestamp with time zone]</text>
<polygon fill="none" stroke="#000000" points="1416,-799.5 1416,-829.5 1812,-829.5 1812,-799.5 1416,-799.5"/>
<text text-anchor="start" x="1423" y="-810.9" font-family="Arial" font-size="14.00" fill="#000000">deleted_at </text>
<text text-anchor="start" x="1492.2566" y="-810.9" font-family="Arial" font-size="14.00" fill="#666666">[timestamp with time zone]</text>
<polygon fill="none" stroke="#000000" points="1416,-769.5 1416,-799.5 1812,-799.5 1812,-769.5 1416,-769.5"/>
<text text-anchor="start" x="1423" y="-780.9" font-family="Arial" font-size="14.00" fill="#000000">is_accepted </text>
<text text-anchor="start" x="1501.5834" y="-780.9" font-family="Arial" font-size="14.00" fill="#666666">[boolean]</text>
<polygon fill="none" stroke="#000000" stroke-width="3" points="1414.5,-768.5 1414.5,-1016.5 1813.5,-1016.5 1813.5,-768.5 1414.5,-768.5"/>
</g>
<!-- public.users -->
<g id="node2" class="node">
<title>public.users</title>
<polygon fill="#efefef" stroke="transparent" points="550,-447.5 550,-482.5 803,-482.5 803,-447.5 550,-447.5"/>
<polygon fill="none" stroke="#000000" points="550,-447.5 550,-482.5 803,-482.5 803,-447.5 550,-447.5"/>
<text text-anchor="start" x="579.8662" y="-460.3" font-family="Arial Bold" font-size="18.00" fill="#000000">public.users</text>
<text text-anchor="start" x="675.88" y="-460.3" font-family="Arial" font-size="14.00" fill="#000000"> </text>
<text text-anchor="start" x="679.7706" y="-460.3" font-family="Arial" font-size="14.00" fill="#666666">[BASE TABLE]</text>
<polygon fill="none" stroke="#000000" points="550,-417.5 550,-447.5 803,-447.5 803,-417.5 550,-417.5"/>
<text text-anchor="start" x="557" y="-428.9" font-family="Arial" font-size="14.00" fill="#000000">id </text>
<text text-anchor="start" x="571.7798" y="-428.9" font-family="Arial" font-size="14.00" fill="#666666">[bigint]</text>
<polygon fill="none" stroke="#000000" points="550,-387.5 550,-417.5 803,-417.5 803,-387.5 550,-387.5"/>
<text text-anchor="start" x="557" y="-398.9" font-family="Arial" font-size="14.00" fill="#000000">open_issues </text>
<text text-anchor="start" x="639.4754" y="-398.9" font-family="Arial" font-size="14.00" fill="#666666">[bigint]</text>
<polygon fill="none" stroke="#000000" points="550,-357.5 550,-387.5 803,-387.5 803,-357.5 550,-357.5"/>
<text text-anchor="start" x="557" y="-368.9" font-family="Arial" font-size="14.00" fill="#000000">has_stars_data </text>
<text text-anchor="start" x="656.5932" y="-368.9" font-family="Arial" font-size="14.00" fill="#666666">[boolean]</text>
<polygon fill="none" stroke="#000000" points="550,-327.5 550,-357.5 803,-357.5 803,-327.5 550,-327.5"/>
<text text-anchor="start" x="557" y="-338.9" font-family="Arial" font-size="14.00" fill="#000000">is_private </text>
<text text-anchor="start" x="620.7854" y="-338.9" font-family="Arial" font-size="14.00" fill="#666666">[boolean]</text>
<polygon fill="none" stroke="#000000" points="550,-297.5 550,-327.5 803,-327.5 803,-297.5 550,-297.5"/>
<text text-anchor="start" x="557" y="-308.9" font-family="Arial" font-size="14.00" fill="#000000">is_open_sauced_member </text>
<text text-anchor="start" x="721.9354" y="-308.9" font-family="Arial" font-size="14.00" fill="#666666">[boolean]</text>
<polygon fill="none" stroke="#000000" points="550,-267.5 550,-297.5 803,-297.5 803,-267.5 550,-267.5"/>
<text text-anchor="start" x="557" y="-278.9" font-family="Arial" font-size="14.00" fill="#000000">created_at </text>
<text text-anchor="start" x="627.028" y="-278.9" font-family="Arial" font-size="14.00" fill="#666666">[timestamp with time zone]</text>
<polygon fill="none" stroke="#000000" points="550,-237.5 550,-267.5 803,-267.5 803,-237.5 550,-237.5"/>
<text text-anchor="start" x="557" y="-248.9" font-family="Arial" font-size="14.00" fill="#000000">login </text>
<text text-anchor="start" x="590.4516" y="-248.9" font-family="Arial" font-size="14.00" fill="#666666">[varchar(255)]</text>
<polygon fill="none" stroke="#000000" points="550,-207.5 550,-237.5 803,-237.5 803,-207.5 550,-207.5"/>
<text text-anchor="start" x="557" y="-218.9" font-family="Arial" font-size="14.00" fill="#000000">deleted_at </text>
<text text-anchor="start" x="626.2566" y="-218.9" font-family="Arial" font-size="14.00" fill="#666666">[timestamp with time zone]</text>
<polygon fill="none" stroke="#000000" points="550,-177.5 550,-207.5 803,-207.5 803,-177.5 550,-177.5"/>
<text text-anchor="start" x="556.6915" y="-188.9" font-family="Arial" font-size="14.00" fill="#000000">updated_at </text>
<text text-anchor="start" x="630.6241" y="-188.9" font-family="Arial" font-size="14.00" fill="#666666">[timestamp with time zone]</text>
</g>
<!-- public.users_to_repos_submissions&#45;&gt;public.users -->
<g id="edge1" class="edge">
<title>public.users_to_repos_submissions:user_id&#45;&gt;public.users:id</title>
<path fill="none" stroke="#000000" d="M1405.9973,-933.9574C1316.4156,-923.5183 1440.5205,-765.1862 1361,-697 1279.2935,-626.9394 962.7616,-727.3319 878,-661 793.8251,-595.1272 909.8861,-432.5 803,-432.5"/>
<polygon fill="#000000" stroke="#000000" points="1406.0147,-933.9583 1415.7562,-938.9934 1411.0073,-934.2291 1416,-934.5 1416,-934.5 1416,-934.5 1411.0073,-934.2291 1416.2438,-930.0066 1406.0147,-933.9583 1406.0147,-933.9583"/>
<text text-anchor="start" x="1364.0845" y="-918.5" font-family="Arial" font-size="10.00" fill="#000000">FOREIGN KEY (user_id) REFERENCES users(id)</text>
</g>
<!-- public.repos -->
<g id="node6" class="node">
<title>public.repos</title>
<polygon fill="#efefef" stroke="transparent" points="930,-582.5 930,-617.5 1308,-617.5 1308,-582.5 930,-582.5"/>
<polygon fill="none" stroke="#000000" points="930,-582.5 930,-617.5 1308,-617.5 1308,-582.5 930,-582.5"/>
<text text-anchor="start" x="1021.8631" y="-595.3" font-family="Arial Bold" font-size="18.00" fill="#000000">public.repos</text>
<text text-anchor="start" x="1118.8831" y="-595.3" font-family="Arial" font-size="14.00" fill="#000000"> </text>
<text text-anchor="start" x="1122.7737" y="-595.3" font-family="Arial" font-size="14.00" fill="#666666">[BASE TABLE]</text>
<polygon fill="none" stroke="#000000" points="930,-552.5 930,-582.5 1308,-582.5 1308,-552.5 930,-552.5"/>
<text text-anchor="start" x="937" y="-563.9" font-family="Arial" font-size="14.00" fill="#000000">id </text>
<text text-anchor="start" x="951.7798" y="-563.9" font-family="Arial" font-size="14.00" fill="#666666">[bigint]</text>
<polygon fill="none" stroke="#000000" points="930,-522.5 930,-552.5 1308,-552.5 1308,-522.5 930,-522.5"/>
<text text-anchor="start" x="937" y="-533.9" font-family="Arial" font-size="14.00" fill="#000000">user_id </text>
<text text-anchor="start" x="986.7882" y="-533.9" font-family="Arial" font-size="14.00" fill="#666666">[bigint]</text>
<polygon fill="none" stroke="#000000" points="930,-492.5 930,-522.5 1308,-522.5 1308,-492.5 930,-492.5"/>
<text text-anchor="start" x="937" y="-503.9" font-family="Arial" font-size="14.00" fill="#000000">issues </text>
<text text-anchor="start" x="980.5624" y="-503.9" font-family="Arial" font-size="14.00" fill="#666666">[bigint]</text>
<polygon fill="none" stroke="#000000" points="930,-462.5 930,-492.5 1308,-492.5 1308,-462.5 930,-462.5"/>
<text text-anchor="start" x="937" y="-473.9" font-family="Arial" font-size="14.00" fill="#000000">stars </text>
<text text-anchor="start" x="971.2244" y="-473.9" font-family="Arial" font-size="14.00" fill="#666666">[bigint]</text>
<polygon fill="none" stroke="#000000" points="930,-432.5 930,-462.5 1308,-462.5 1308,-432.5 930,-432.5"/>
<text text-anchor="start" x="937" y="-443.9" font-family="Arial" font-size="14.00" fill="#000000">watchers </text>
<text text-anchor="start" x="996.8962" y="-443.9" font-family="Arial" font-size="14.00" fill="#666666">[bigint]</text>
<polygon fill="none" stroke="#000000" points="930,-402.5 930,-432.5 1308,-432.5 1308,-402.5 930,-402.5"/>
<text text-anchor="start" x="937" y="-413.9" font-family="Arial" font-size="14.00" fill="#000000">subscribers </text>
<text text-anchor="start" x="1012.4488" y="-413.9" font-family="Arial" font-size="14.00" fill="#666666">[bigint]</text>
<polygon fill="none" stroke="#000000" points="930,-372.5 930,-402.5 1308,-402.5 1308,-372.5 930,-372.5"/>
<text text-anchor="start" x="937" y="-383.9" font-family="Arial" font-size="14.00" fill="#000000">is_fork </text>
<text text-anchor="start" x="982.1136" y="-383.9" font-family="Arial" font-size="14.00" fill="#666666">[boolean]</text>
<polygon fill="none" stroke="#000000" points="930,-342.5 930,-372.5 1308,-372.5 1308,-342.5 930,-342.5"/>
<text text-anchor="start" x="937" y="-353.9" font-family="Arial" font-size="14.00" fill="#000000">created_at </text>
<text text-anchor="start" x="1007.028" y="-353.9" font-family="Arial" font-size="14.00" fill="#666666">[timestamp without time zone]</text>
<polygon fill="none" stroke="#000000" points="930,-312.5 930,-342.5 1308,-342.5 1308,-312.5 930,-312.5"/>
<text text-anchor="start" x="937" y="-323.9" font-family="Arial" font-size="14.00" fill="#000000">updated_at </text>
<text text-anchor="start" x="1010.9326" y="-323.9" font-family="Arial" font-size="14.00" fill="#666666">[timestamp without time zone]</text>
<polygon fill="none" stroke="#000000" points="930,-282.5 930,-312.5 1308,-312.5 1308,-282.5 930,-282.5"/>
<text text-anchor="start" x="937" y="-293.9" font-family="Arial" font-size="14.00" fill="#000000">pushed_at </text>
<text text-anchor="start" x="1006.2594" y="-293.9" font-family="Arial" font-size="14.00" fill="#666666">[timestamp without time zone]</text>
<polygon fill="none" stroke="#000000" points="930,-252.5 930,-282.5 1308,-282.5 1308,-252.5 930,-252.5"/>
<text text-anchor="start" x="936.5674" y="-263.9" font-family="Arial" font-size="14.00" fill="#000000">last_fetched_contributors_at </text>
<text text-anchor="start" x="1116.2924" y="-263.9" font-family="Arial" font-size="14.00" fill="#666666">[timestamp without time zone]</text>
<polygon fill="none" stroke="#000000" points="930,-222.5 930,-252.5 1308,-252.5 1308,-222.5 930,-222.5"/>
<text text-anchor="start" x="937" y="-233.9" font-family="Arial" font-size="14.00" fill="#000000">name </text>
<text text-anchor="start" x="975.899" y="-233.9" font-family="Arial" font-size="14.00" fill="#666666">[varchar(255)]</text>
<polygon fill="none" stroke="#000000" points="930,-192.5 930,-222.5 1308,-222.5 1308,-192.5 930,-192.5"/>
<text text-anchor="start" x="937" y="-203.9" font-family="Arial" font-size="14.00" fill="#000000">full_name </text>
<text text-anchor="start" x="1001.568" y="-203.9" font-family="Arial" font-size="14.00" fill="#666666">[varchar(255)]</text>
<polygon fill="none" stroke="#000000" points="930,-162.5 930,-192.5 1308,-192.5 1308,-162.5 930,-162.5"/>
<text text-anchor="start" x="937" y="-173.9" font-family="Arial" font-size="14.00" fill="#000000">description </text>
<text text-anchor="start" x="1008.568" y="-173.9" font-family="Arial" font-size="14.00" fill="#666666">[text]</text>
<polygon fill="none" stroke="#000000" points="930,-132.5 930,-162.5 1308,-162.5 1308,-132.5 930,-132.5"/>
<text text-anchor="start" x="937" y="-143.9" font-family="Arial" font-size="14.00" fill="#000000">language </text>
<text text-anchor="start" x="998.4754" y="-143.9" font-family="Arial" font-size="14.00" fill="#666666">[varchar(64)]</text>
<polygon fill="none" stroke="#000000" points="930,-102.5 930,-132.5 1308,-132.5 1308,-102.5 930,-102.5"/>
<text text-anchor="start" x="937" y="-113.9" font-family="Arial" font-size="14.00" fill="#000000">license </text>
<text text-anchor="start" x="984.4516" y="-113.9" font-family="Arial" font-size="14.00" fill="#666666">[varchar(64)]</text>
<polygon fill="none" stroke="#000000" points="930,-72.5 930,-102.5 1308,-102.5 1308,-72.5 930,-72.5"/>
<text text-anchor="start" x="937" y="-83.9" font-family="Arial" font-size="14.00" fill="#000000">url </text>
<text text-anchor="start" x="956.4404" y="-83.9" font-family="Arial" font-size="14.00" fill="#666666">[varchar(255)]</text>
<polygon fill="none" stroke="#000000" points="930,-42.5 930,-72.5 1308,-72.5 1308,-42.5 930,-42.5"/>
<text text-anchor="start" x="937" y="-53.9" font-family="Arial" font-size="14.00" fill="#000000">deleted_at </text>
<text text-anchor="start" x="1006.2566" y="-53.9" font-family="Arial" font-size="14.00" fill="#666666">[timestamp with time zone]</text>
</g>
<!-- public.users_to_repos_submissions&#45;&gt;public.repos -->
<g id="edge5" class="edge">
<title>public.users_to_repos_submissions:repo_id&#45;&gt;public.repos:id</title>
<path fill="none" stroke="#000000" d="M1405.5642,-903.9727C1325.9671,-895.396 1390.1687,-783.9161 1361,-697 1341.214,-638.0422 1370.1893,-567.5 1308,-567.5"/>
<polygon fill="#000000" stroke="#000000" points="1406.0127,-903.9953 1415.7729,-908.9943 1411.0064,-904.2477 1416,-904.5 1416,-904.5 1416,-904.5 1411.0064,-904.2477 1416.2271,-900.0057 1406.0127,-903.9953 1406.0127,-903.9953"/>
<text text-anchor="start" x="1363.2755" y="-888.5" font-family="Arial" font-size="10.00" fill="#000000">FOREIGN KEY (repo_id) REFERENCES repos(id)</text>
</g>
<!-- public.users_to_repos_stars -->
<g id="node3" class="node">
<title>public.users_to_repos_stars</title>
<polygon fill="#efefef" stroke="transparent" points="43,-964.5 43,-999.5 379,-999.5 379,-964.5 43,-964.5"/>
<polygon fill="none" stroke="#000000" points="43,-964.5 43,-999.5 379,-999.5 379,-964.5 43,-964.5"/>
<text text-anchor="start" x="49.847" y="-977.3" font-family="Arial Bold" font-size="18.00" fill="#000000">public.users_to_repos_stars</text>
<text text-anchor="start" x="274.8992" y="-977.3" font-family="Arial" font-size="14.00" fill="#000000"> </text>
<text text-anchor="start" x="278.7898" y="-977.3" font-family="Arial" font-size="14.00" fill="#666666">[BASE TABLE]</text>
<polygon fill="none" stroke="#000000" points="43,-934.5 43,-964.5 379,-964.5 379,-934.5 43,-934.5"/>
<text text-anchor="start" x="50" y="-945.9" font-family="Arial" font-size="14.00" fill="#000000">id </text>
<text text-anchor="start" x="64.7798" y="-945.9" font-family="Arial" font-size="14.00" fill="#666666">[bigint]</text>
<polygon fill="none" stroke="#000000" points="43,-904.5 43,-934.5 379,-934.5 379,-904.5 43,-904.5"/>
<text text-anchor="start" x="50" y="-915.9" font-family="Arial" font-size="14.00" fill="#000000">user_id </text>
<text text-anchor="start" x="99.7882" y="-915.9" font-family="Arial" font-size="14.00" fill="#666666">[bigint]</text>
<polygon fill="none" stroke="#000000" points="43,-874.5 43,-904.5 379,-904.5 379,-874.5 43,-874.5"/>
<text text-anchor="start" x="50" y="-885.9" font-family="Arial" font-size="14.00" fill="#000000">repo_id </text>
<text text-anchor="start" x="100.5708" y="-885.9" font-family="Arial" font-size="14.00" fill="#666666">[bigint]</text>
<polygon fill="none" stroke="#000000" points="43,-844.5 43,-874.5 379,-874.5 379,-844.5 43,-844.5"/>
<text text-anchor="start" x="50" y="-855.9" font-family="Arial" font-size="14.00" fill="#000000">created_at </text>
<text text-anchor="start" x="120.028" y="-855.9" font-family="Arial" font-size="14.00" fill="#666666">[timestamp with time zone]</text>
<polygon fill="none" stroke="#000000" points="43,-814.5 43,-844.5 379,-844.5 379,-814.5 43,-814.5"/>
<text text-anchor="start" x="50" y="-825.9" font-family="Arial" font-size="14.00" fill="#000000">updated_at </text>
<text text-anchor="start" x="123.9326" y="-825.9" font-family="Arial" font-size="14.00" fill="#666666">[timestamp with time zone]</text>
<polygon fill="none" stroke="#000000" points="43,-784.5 43,-814.5 379,-814.5 379,-784.5 43,-784.5"/>
<text text-anchor="start" x="50" y="-795.9" font-family="Arial" font-size="14.00" fill="#000000">deleted_at </text>
<text text-anchor="start" x="119.2566" y="-795.9" font-family="Arial" font-size="14.00" fill="#666666">[timestamp with time zone]</text>
</g>
<!-- public.users_to_repos_stars&#45;&gt;public.users -->
<g id="edge2" class="edge">
<title>public.users_to_repos_stars:user_id&#45;&gt;public.users:id</title>
<path fill="none" stroke="#000000" d="M388.7682,-917.0179C427.8156,-895.5993 415.8737,-741.7175 431,-697 472.3048,-574.8916 421.0948,-432.5 550,-432.5"/>
<polygon fill="#000000" stroke="#000000" points="388.692,-917.0372 377.8917,-915.1386 383.846,-918.2686 379,-919.5 379,-919.5 379,-919.5 383.846,-918.2686 380.1083,-923.8614 388.692,-917.0372 388.692,-917.0372"/>
<text text-anchor="start" x="386.3345" y="-929.5" font-family="Arial" font-size="10.00" fill="#000000">FOREIGN KEY (user_id) REFERENCES users(id)</text>
</g>
<!-- public.users_to_repos_stars&#45;&gt;public.repos -->
<g id="edge7" class="edge">
<title>public.users_to_repos_stars:repo_id&#45;&gt;public.repos:id</title>
<path fill="none" stroke="#000000" d="M389.3825,-888.7655C458.9487,-877.9853 365.9089,-751.3745 431,-697 503.4017,-636.5186 770.61,-705.1147 854,-661 901.3362,-635.9584 876.4481,-567.5 930,-567.5"/>
<polygon fill="#000000" stroke="#000000" points="388.9751,-888.7942 378.6824,-885.0112 383.9875,-889.1471 379,-889.5 379,-889.5 379,-889.5 383.9875,-889.1471 379.3176,-893.9888 388.9751,-888.7942 388.9751,-888.7942"/>
<text text-anchor="start" x="385.7755" y="-899.5" font-family="Arial" font-size="10.00" fill="#000000">FOREIGN KEY (repo_id) REFERENCES repos(id)</text>
</g>
<!-- public.users_to_repos_votes -->
<g id="node4" class="node">
<title>public.users_to_repos_votes</title>
<polygon fill="#efefef" stroke="transparent" points="483,-964.5 483,-999.5 823,-999.5 823,-964.5 483,-964.5"/>
<polygon fill="none" stroke="#000000" points="483,-964.5 483,-999.5 823,-999.5 823,-964.5 483,-964.5"/>
<text text-anchor="start" x="489.84" y="-977.3" font-family="Arial Bold" font-size="18.00" fill="#000000">public.users_to_repos_votes</text>
<text text-anchor="start" x="718.9062" y="-977.3" font-family="Arial" font-size="14.00" fill="#000000"> </text>
<text text-anchor="start" x="722.7968" y="-977.3" font-family="Arial" font-size="14.00" fill="#666666">[BASE TABLE]</text>
<polygon fill="none" stroke="#000000" points="483,-934.5 483,-964.5 823,-964.5 823,-934.5 483,-934.5"/>
<text text-anchor="start" x="490" y="-945.9" font-family="Arial" font-size="14.00" fill="#000000">id </text>
<text text-anchor="start" x="504.7798" y="-945.9" font-family="Arial" font-size="14.00" fill="#666666">[bigint]</text>
<polygon fill="none" stroke="#000000" points="483,-904.5 483,-934.5 823,-934.5 823,-904.5 483,-904.5"/>
<text text-anchor="start" x="490" y="-915.9" font-family="Arial" font-size="14.00" fill="#000000">user_id </text>
<text text-anchor="start" x="539.7882" y="-915.9" font-family="Arial" font-size="14.00" fill="#666666">[bigint]</text>
<polygon fill="none" stroke="#000000" points="483,-874.5 483,-904.5 823,-904.5 823,-874.5 483,-874.5"/>
<text text-anchor="start" x="490" y="-885.9" font-family="Arial" font-size="14.00" fill="#000000">repo_id </text>
<text text-anchor="start" x="540.5708" y="-885.9" font-family="Arial" font-size="14.00" fill="#666666">[bigint]</text>
<polygon fill="none" stroke="#000000" points="483,-844.5 483,-874.5 823,-874.5 823,-844.5 483,-844.5"/>
<text text-anchor="start" x="490" y="-855.9" font-family="Arial" font-size="14.00" fill="#000000">created_at </text>
<text text-anchor="start" x="560.028" y="-855.9" font-family="Arial" font-size="14.00" fill="#666666">[timestamp with time zone]</text>
<polygon fill="none" stroke="#000000" points="483,-814.5 483,-844.5 823,-844.5 823,-814.5 483,-814.5"/>
<text text-anchor="start" x="490" y="-825.9" font-family="Arial" font-size="14.00" fill="#000000">updated_at </text>
<text text-anchor="start" x="563.9326" y="-825.9" font-family="Arial" font-size="14.00" fill="#666666">[timestamp with time zone]</text>
<polygon fill="none" stroke="#000000" points="483,-784.5 483,-814.5 823,-814.5 823,-784.5 483,-784.5"/>
<text text-anchor="start" x="490" y="-795.9" font-family="Arial" font-size="14.00" fill="#000000">deleted_at </text>
<text text-anchor="start" x="559.2566" y="-795.9" font-family="Arial" font-size="14.00" fill="#666666">[timestamp with time zone]</text>
</g>
<!-- public.users_to_repos_votes&#45;&gt;public.users -->
<g id="edge3" class="edge">
<title>public.users_to_repos_votes:user_id&#45;&gt;public.users:id</title>
<path fill="none" stroke="#000000" d="M833.294,-918.8127C897.7371,-909.5946 855.7542,-809.6819 823,-742 755.6026,-602.7327 617.3974,-665.2673 550,-526 531.8978,-488.5944 508.4444,-432.5 550,-432.5"/>
<polygon fill="#000000" stroke="#000000" points="832.9778,-918.8337 822.7002,-915.01 827.9889,-919.1668 823,-919.5 823,-919.5 823,-919.5 827.9889,-919.1668 823.2998,-923.99 832.9778,-918.8337 832.9778,-918.8337"/>
<text text-anchor="start" x="830.3345" y="-929.5" font-family="Arial" font-size="10.00" fill="#000000">FOREIGN KEY (user_id) REFERENCES users(id)</text>
</g>
<!-- public.users_to_repos_votes&#45;&gt;public.repos -->
<g id="edge8" class="edge">
<title>public.users_to_repos_votes:repo_id&#45;&gt;public.repos:id</title>
<path fill="none" stroke="#000000" d="M833.1437,-888.9604C906.4025,-880.6221 847.2412,-777.326 875,-697 895.4242,-637.8982 867.4686,-567.5 930,-567.5"/>
<polygon fill="#000000" stroke="#000000" points="832.9859,-888.9687 822.7609,-885.0064 827.9929,-889.2344 823,-889.5 823,-889.5 823,-889.5 827.9929,-889.2344 823.2391,-893.9936 832.9859,-888.9687 832.9859,-888.9687"/>
<text text-anchor="start" x="829.7755" y="-899.5" font-family="Arial" font-size="10.00" fill="#000000">FOREIGN KEY (repo_id) REFERENCES repos(id)</text>
</g>
<!-- public.users_to_repos_stargazers -->
<g id="node5" class="node">
<title>public.users_to_repos_stargazers</title>
<polygon fill="#efefef" stroke="transparent" points="928,-964.5 928,-999.5 1309,-999.5 1309,-964.5 928,-964.5"/>
<polygon fill="none" stroke="#000000" points="928,-964.5 928,-999.5 1309,-999.5 1309,-964.5 928,-964.5"/>
<text text-anchor="start" x="934.8416" y="-977.3" font-family="Arial Bold" font-size="18.00" fill="#000000">public.users_to_repos_stargazers</text>
<text text-anchor="start" x="1204.9046" y="-977.3" font-family="Arial" font-size="14.00" fill="#000000"> </text>
<text text-anchor="start" x="1208.7952" y="-977.3" font-family="Arial" font-size="14.00" fill="#666666">[BASE TABLE]</text>
<polygon fill="none" stroke="#000000" points="928,-934.5 928,-964.5 1309,-964.5 1309,-934.5 928,-934.5"/>
<text text-anchor="start" x="935" y="-945.9" font-family="Arial" font-size="14.00" fill="#000000">id </text>
<text text-anchor="start" x="949.7798" y="-945.9" font-family="Arial" font-size="14.00" fill="#666666">[bigint]</text>
<polygon fill="none" stroke="#000000" points="928,-904.5 928,-934.5 1309,-934.5 1309,-904.5 928,-904.5"/>
<text text-anchor="start" x="935" y="-915.9" font-family="Arial" font-size="14.00" fill="#000000">user_id </text>
<text text-anchor="start" x="984.7882" y="-915.9" font-family="Arial" font-size="14.00" fill="#666666">[bigint]</text>
<polygon fill="none" stroke="#000000" points="928,-874.5 928,-904.5 1309,-904.5 1309,-874.5 928,-874.5"/>
<text text-anchor="start" x="935" y="-885.9" font-family="Arial" font-size="14.00" fill="#000000">repo_id </text>
<text text-anchor="start" x="985.5708" y="-885.9" font-family="Arial" font-size="14.00" fill="#666666">[bigint]</text>
<polygon fill="none" stroke="#000000" points="928,-844.5 928,-874.5 1309,-874.5 1309,-844.5 928,-844.5"/>
<text text-anchor="start" x="935" y="-855.9" font-family="Arial" font-size="14.00" fill="#000000">created_at </text>
<text text-anchor="start" x="1005.028" y="-855.9" font-family="Arial" font-size="14.00" fill="#666666">[timestamp without time zone]</text>
<polygon fill="none" stroke="#000000" points="928,-814.5 928,-844.5 1309,-844.5 1309,-814.5 928,-814.5"/>
<text text-anchor="start" x="935" y="-825.9" font-family="Arial" font-size="14.00" fill="#000000">updated_at </text>
<text text-anchor="start" x="1008.9326" y="-825.9" font-family="Arial" font-size="14.00" fill="#666666">[timestamp without time zone]</text>
<polygon fill="none" stroke="#000000" points="928,-784.5 928,-814.5 1309,-814.5 1309,-784.5 928,-784.5"/>
<text text-anchor="start" x="935" y="-795.9" font-family="Arial" font-size="14.00" fill="#000000">deleted_at </text>
<text text-anchor="start" x="1004.2566" y="-795.9" font-family="Arial" font-size="14.00" fill="#666666">[timestamp without time zone]</text>
</g>
<!-- public.users_to_repos_stargazers&#45;&gt;public.users -->
<g id="edge4" class="edge">
<title>public.users_to_repos_stargazers:user_id&#45;&gt;public.users:id</title>
<path fill="none" stroke="#000000" d="M918.1572,-917.0338C878.5202,-895.7498 886.6821,-742.7872 875,-697 844.8806,-578.9486 924.8331,-432.5 803,-432.5"/>
<polygon fill="#000000" stroke="#000000" points="918.2999,-917.0694 926.9062,-923.8651 923.1499,-918.2847 928,-919.5 928,-919.5 928,-919.5 923.1499,-918.2847 929.0938,-915.1349 918.2999,-917.0694 918.2999,-917.0694"/>
<text text-anchor="start" x="935.3345" y="-929.5" font-family="Arial" font-size="10.00" fill="#000000">FOREIGN KEY (user_id) REFERENCES users(id)</text>
</g>
<!-- public.users_to_repos_stargazers&#45;&gt;public.repos -->
<g id="edge9" class="edge">
<title>public.users_to_repos_stargazers:repo_id&#45;&gt;public.repos:id</title>
<path fill="none" stroke="#000000" d="M1319.2875,-888.5968C1371.7454,-878.711 1347.892,-790.0823 1309,-742 1200.6751,-608.0775 1038.3249,-794.9225 930,-661 903.8662,-628.6907 888.4444,-567.5 930,-567.5"/>
<polygon fill="#000000" stroke="#000000" points="1318.9617,-888.6253 1308.6064,-885.0172 1313.9808,-889.0626 1309,-889.5 1309,-889.5 1309,-889.5 1313.9808,-889.0626 1309.3936,-893.9828 1318.9617,-888.6253 1318.9617,-888.6253"/>
<text text-anchor="start" x="1077.7755" y="-899.5" font-family="Arial" font-size="10.00" fill="#000000">FOREIGN KEY (repo_id) REFERENCES repos(id)</text>
</g>
<!-- public.contributions -->
<g id="node7" class="node">
<title>public.contributions</title>
<polygon fill="#efefef" stroke="transparent" points="1920,-1009.5 1920,-1044.5 2219,-1044.5 2219,-1009.5 1920,-1009.5"/>
<polygon fill="none" stroke="#000000" points="1920,-1009.5 1920,-1044.5 2219,-1044.5 2219,-1009.5 1920,-1009.5"/>
<text text-anchor="start" x="1943.8574" y="-1022.3" font-family="Arial Bold" font-size="18.00" fill="#000000">public.contributions</text>
<text text-anchor="start" x="2097.8888" y="-1022.3" font-family="Arial" font-size="14.00" fill="#000000"> </text>
<text text-anchor="start" x="2101.7794" y="-1022.3" font-family="Arial" font-size="14.00" fill="#666666">[BASE TABLE]</text>
<polygon fill="none" stroke="#000000" points="1920,-979.5 1920,-1009.5 2219,-1009.5 2219,-979.5 1920,-979.5"/>
<text text-anchor="start" x="1927" y="-990.9" font-family="Arial" font-size="14.00" fill="#000000">id </text>
<text text-anchor="start" x="1941.7798" y="-990.9" font-family="Arial" font-size="14.00" fill="#666666">[bigint]</text>
<polygon fill="none" stroke="#000000" points="1920,-949.5 1920,-979.5 2219,-979.5 2219,-949.5 1920,-949.5"/>
<text text-anchor="start" x="1927" y="-960.9" font-family="Arial" font-size="14.00" fill="#000000">repo_id </text>
<text text-anchor="start" x="1977.5708" y="-960.9" font-family="Arial" font-size="14.00" fill="#666666">[bigint]</text>
<polygon fill="none" stroke="#000000" points="1920,-919.5 1920,-949.5 2219,-949.5 2219,-919.5 1920,-919.5"/>
<text text-anchor="start" x="1927" y="-930.9" font-family="Arial" font-size="14.00" fill="#000000">count </text>
<text text-anchor="start" x="1965.129" y="-930.9" font-family="Arial" font-size="14.00" fill="#666666">[bigint]</text>
<polygon fill="none" stroke="#000000" points="1920,-889.5 1920,-919.5 2219,-919.5 2219,-889.5 1920,-889.5"/>
<text text-anchor="start" x="1926.7497" y="-900.9" font-family="Arial" font-size="14.00" fill="#000000">last_merged_at </text>
<text text-anchor="start" x="2027.1101" y="-900.9" font-family="Arial" font-size="14.00" fill="#666666">[timestamp without time zone]</text>
<polygon fill="none" stroke="#000000" points="1920,-859.5 1920,-889.5 2219,-889.5 2219,-859.5 1920,-859.5"/>
<text text-anchor="start" x="1927" y="-870.9" font-family="Arial" font-size="14.00" fill="#000000">contributor </text>
<text text-anchor="start" x="1997.0126" y="-870.9" font-family="Arial" font-size="14.00" fill="#666666">[varchar(255)]</text>
<polygon fill="none" stroke="#000000" points="1920,-829.5 1920,-859.5 2219,-859.5 2219,-829.5 1920,-829.5"/>
<text text-anchor="start" x="1927" y="-840.9" font-family="Arial" font-size="14.00" fill="#000000">url </text>
<text text-anchor="start" x="1946.4404" y="-840.9" font-family="Arial" font-size="14.00" fill="#666666">[varchar(255)]</text>
<polygon fill="none" stroke="#000000" points="1920,-799.5 1920,-829.5 2219,-829.5 2219,-799.5 1920,-799.5"/>
<text text-anchor="start" x="1927" y="-810.9" font-family="Arial" font-size="14.00" fill="#000000">deleted_at </text>
<text text-anchor="start" x="1996.2566" y="-810.9" font-family="Arial" font-size="14.00" fill="#666666">[timestamp with time zone]</text>
<polygon fill="none" stroke="#000000" points="1920,-769.5 1920,-799.5 2219,-799.5 2219,-769.5 1920,-769.5"/>
<text text-anchor="start" x="1927" y="-780.9" font-family="Arial" font-size="14.00" fill="#000000">updated_at </text>
<text text-anchor="start" x="2000.9326" y="-780.9" font-family="Arial" font-size="14.00" fill="#666666">[timestamp with time zone]</text>
<polygon fill="none" stroke="#000000" points="1920,-739.5 1920,-769.5 2219,-769.5 2219,-739.5 1920,-739.5"/>
<text text-anchor="start" x="1927" y="-750.9" font-family="Arial" font-size="14.00" fill="#000000">created_at </text>
<text text-anchor="start" x="1997.028" y="-750.9" font-family="Arial" font-size="14.00" fill="#666666">[timestamp with time zone]</text>
</g>
<!-- public.contributions&#45;&gt;public.repos -->
<g id="edge6" class="edge">
<title>public.contributions:repo_id&#45;&gt;public.repos:id</title>
<path fill="none" stroke="#000000" d="M1909.731,-964.0115C1807.8174,-953.6607 1948.7644,-781.4279 1867,-697 1778.2918,-605.4021 1435.512,-567.5 1308,-567.5"/>
<polygon fill="#000000" stroke="#000000" points="1910.0113,-964.0247 1919.7861,-968.9949 1915.0056,-964.2624 1920,-964.5 1920,-964.5 1920,-964.5 1915.0056,-964.2624 1920.2139,-960.0051 1910.0113,-964.0247 1910.0113,-964.0247"/>
<text text-anchor="start" x="1867.2755" y="-948.5" font-family="Arial" font-size="10.00" fill="#000000">FOREIGN KEY (repo_id) REFERENCES repos(id)</text>
</g>
</g>
</svg>
