<?xml version="1.0" encoding="UTF-8" standalone="no"?>
<!DOCTYPE svg PUBLIC "-//W3C//DTD SVG 1.1//EN"
 "http://www.w3.org/Graphics/SVG/1.1/DTD/svg11.dtd">
<!-- Generated by graphviz version 2.40.1 (20161225.0304)
 -->
<!-- Title: public.repos Pages: 1 -->
<svg width="2264pt" height="1102pt"
 viewBox="0.00 0.00 2263.50 1102.00" xmlns="http://www.w3.org/2000/svg" xmlns:xlink="http://www.w3.org/1999/xlink">
<g id="graph0" class="graph" transform="scale(1 1) rotate(0) translate(4 1098)">
<title>public.repos</title>
<polygon fill="#ffffff" stroke="transparent" points="-4,4 -4,-1098 2259.5,-1098 2259.5,4 -4,4"/>
<!-- public.repos -->
<g id="node1" class="node">
<title>public.repos</title>
<polygon fill="#efefef" stroke="transparent" points="990,-585.5 990,-620.5 1368,-620.5 1368,-585.5 990,-585.5"/>
<polygon fill="none" stroke="#000000" points="990,-585.5 990,-620.5 1368,-620.5 1368,-585.5 990,-585.5"/>
<text text-anchor="start" x="1081.8631" y="-598.3" font-family="Arial Bold" font-size="18.00" fill="#000000">public.repos</text>
<text text-anchor="start" x="1178.8831" y="-598.3" font-family="Arial" font-size="14.00" fill="#000000"> </text>
<text text-anchor="start" x="1182.7737" y="-598.3" font-family="Arial" font-size="14.00" fill="#666666">[BASE TABLE]</text>
<polygon fill="none" stroke="#000000" points="990,-555.5 990,-585.5 1368,-585.5 1368,-555.5 990,-555.5"/>
<text text-anchor="start" x="997" y="-566.9" font-family="Arial" font-size="14.00" fill="#000000">id </text>
<text text-anchor="start" x="1011.7798" y="-566.9" font-family="Arial" font-size="14.00" fill="#666666">[bigint]</text>
<polygon fill="none" stroke="#000000" points="990,-525.5 990,-555.5 1368,-555.5 1368,-525.5 990,-525.5"/>
<text text-anchor="start" x="997" y="-536.9" font-family="Arial" font-size="14.00" fill="#000000">user_id </text>
<text text-anchor="start" x="1046.7882" y="-536.9" font-family="Arial" font-size="14.00" fill="#666666">[bigint]</text>
<polygon fill="none" stroke="#000000" points="990,-495.5 990,-525.5 1368,-525.5 1368,-495.5 990,-495.5"/>
<text text-anchor="start" x="997" y="-506.9" font-family="Arial" font-size="14.00" fill="#000000">issues </text>
<text text-anchor="start" x="1040.5624" y="-506.9" font-family="Arial" font-size="14.00" fill="#666666">[bigint]</text>
<polygon fill="none" stroke="#000000" points="990,-465.5 990,-495.5 1368,-495.5 1368,-465.5 990,-465.5"/>
<text text-anchor="start" x="997" y="-476.9" font-family="Arial" font-size="14.00" fill="#000000">stars </text>
<text text-anchor="start" x="1031.2244" y="-476.9" font-family="Arial" font-size="14.00" fill="#666666">[bigint]</text>
<polygon fill="none" stroke="#000000" points="990,-435.5 990,-465.5 1368,-465.5 1368,-435.5 990,-435.5"/>
<text text-anchor="start" x="997" y="-446.9" font-family="Arial" font-size="14.00" fill="#000000">watchers </text>
<text text-anchor="start" x="1056.8962" y="-446.9" font-family="Arial" font-size="14.00" fill="#666666">[bigint]</text>
<polygon fill="none" stroke="#000000" points="990,-405.5 990,-435.5 1368,-435.5 1368,-405.5 990,-405.5"/>
<text text-anchor="start" x="997" y="-416.9" font-family="Arial" font-size="14.00" fill="#000000">subscribers </text>
<text text-anchor="start" x="1072.4488" y="-416.9" font-family="Arial" font-size="14.00" fill="#666666">[bigint]</text>
<polygon fill="none" stroke="#000000" points="990,-375.5 990,-405.5 1368,-405.5 1368,-375.5 990,-375.5"/>
<text text-anchor="start" x="997" y="-386.9" font-family="Arial" font-size="14.00" fill="#000000">is_fork </text>
<text text-anchor="start" x="1042.1136" y="-386.9" font-family="Arial" font-size="14.00" fill="#666666">[boolean]</text>
<polygon fill="none" stroke="#000000" points="990,-345.5 990,-375.5 1368,-375.5 1368,-345.5 990,-345.5"/>
<text text-anchor="start" x="997" y="-356.9" font-family="Arial" font-size="14.00" fill="#000000">created_at </text>
<text text-anchor="start" x="1067.028" y="-356.9" font-family="Arial" font-size="14.00" fill="#666666">[timestamp without time zone]</text>
<polygon fill="none" stroke="#000000" points="990,-315.5 990,-345.5 1368,-345.5 1368,-315.5 990,-315.5"/>
<text text-anchor="start" x="997" y="-326.9" font-family="Arial" font-size="14.00" fill="#000000">updated_at </text>
<text text-anchor="start" x="1070.9326" y="-326.9" font-family="Arial" font-size="14.00" fill="#666666">[timestamp without time zone]</text>
<polygon fill="none" stroke="#000000" points="990,-285.5 990,-315.5 1368,-315.5 1368,-285.5 990,-285.5"/>
<text text-anchor="start" x="997" y="-296.9" font-family="Arial" font-size="14.00" fill="#000000">pushed_at </text>
<text text-anchor="start" x="1066.2594" y="-296.9" font-family="Arial" font-size="14.00" fill="#666666">[timestamp without time zone]</text>
<polygon fill="none" stroke="#000000" points="990,-255.5 990,-285.5 1368,-285.5 1368,-255.5 990,-255.5"/>
<text text-anchor="start" x="996.5674" y="-266.9" font-family="Arial" font-size="14.00" fill="#000000">last_fetched_contributors_at </text>
<text text-anchor="start" x="1176.2924" y="-266.9" font-family="Arial" font-size="14.00" fill="#666666">[timestamp without time zone]</text>
<polygon fill="none" stroke="#000000" points="990,-225.5 990,-255.5 1368,-255.5 1368,-225.5 990,-225.5"/>
<text text-anchor="start" x="997" y="-236.9" font-family="Arial" font-size="14.00" fill="#000000">name </text>
<text text-anchor="start" x="1035.899" y="-236.9" font-family="Arial" font-size="14.00" fill="#666666">[varchar(255)]</text>
<polygon fill="none" stroke="#000000" points="990,-195.5 990,-225.5 1368,-225.5 1368,-195.5 990,-195.5"/>
<text text-anchor="start" x="997" y="-206.9" font-family="Arial" font-size="14.00" fill="#000000">full_name </text>
<text text-anchor="start" x="1061.568" y="-206.9" font-family="Arial" font-size="14.00" fill="#666666">[varchar(255)]</text>
<polygon fill="none" stroke="#000000" points="990,-165.5 990,-195.5 1368,-195.5 1368,-165.5 990,-165.5"/>
<text text-anchor="start" x="997" y="-176.9" font-family="Arial" font-size="14.00" fill="#000000">description </text>
<text text-anchor="start" x="1068.568" y="-176.9" font-family="Arial" font-size="14.00" fill="#666666">[text]</text>
<polygon fill="none" stroke="#000000" points="990,-135.5 990,-165.5 1368,-165.5 1368,-135.5 990,-135.5"/>
<text text-anchor="start" x="997" y="-146.9" font-family="Arial" font-size="14.00" fill="#000000">language </text>
<text text-anchor="start" x="1058.4754" y="-146.9" font-family="Arial" font-size="14.00" fill="#666666">[varchar(64)]</text>
<polygon fill="none" stroke="#000000" points="990,-105.5 990,-135.5 1368,-135.5 1368,-105.5 990,-105.5"/>
<text text-anchor="start" x="997" y="-116.9" font-family="Arial" font-size="14.00" fill="#000000">license </text>
<text text-anchor="start" x="1044.4516" y="-116.9" font-family="Arial" font-size="14.00" fill="#666666">[varchar(64)]</text>
<polygon fill="none" stroke="#000000" points="990,-75.5 990,-105.5 1368,-105.5 1368,-75.5 990,-75.5"/>
<text text-anchor="start" x="997" y="-86.9" font-family="Arial" font-size="14.00" fill="#000000">url </text>
<text text-anchor="start" x="1016.4404" y="-86.9" font-family="Arial" font-size="14.00" fill="#666666">[varchar(255)]</text>
<polygon fill="none" stroke="#000000" points="990,-45.5 990,-75.5 1368,-75.5 1368,-45.5 990,-45.5"/>
<text text-anchor="start" x="997" y="-56.9" font-family="Arial" font-size="14.00" fill="#000000">deleted_at </text>
<text text-anchor="start" x="1066.2566" y="-56.9" font-family="Arial" font-size="14.00" fill="#666666">[timestamp with time zone]</text>
<polygon fill="none" stroke="#000000" stroke-width="3" points="988.5,-44.5 988.5,-622.5 1369.5,-622.5 1369.5,-44.5 988.5,-44.5"/>
</g>
<!-- public.contributions -->
<g id="node2" class="node">
<title>public.contributions</title>
<polygon fill="#efefef" stroke="transparent" points="1914,-1015.5 1914,-1050.5 2213,-1050.5 2213,-1015.5 1914,-1015.5"/>
<polygon fill="none" stroke="#000000" points="1914,-1015.5 1914,-1050.5 2213,-1050.5 2213,-1015.5 1914,-1015.5"/>
<text text-anchor="start" x="1937.8574" y="-1028.3" font-family="Arial Bold" font-size="18.00" fill="#000000">public.contributions</text>
<text text-anchor="start" x="2091.8888" y="-1028.3" font-family="Arial" font-size="14.00" fill="#000000"> </text>
<text text-anchor="start" x="2095.7794" y="-1028.3" font-family="Arial" font-size="14.00" fill="#666666">[BASE TABLE]</text>
<polygon fill="none" stroke="#000000" points="1914,-985.5 1914,-1015.5 2213,-1015.5 2213,-985.5 1914,-985.5"/>
<text text-anchor="start" x="1921" y="-996.9" font-family="Arial" font-size="14.00" fill="#000000">id </text>
<text text-anchor="start" x="1935.7798" y="-996.9" font-family="Arial" font-size="14.00" fill="#666666">[bigint]</text>
<polygon fill="none" stroke="#000000" points="1914,-955.5 1914,-985.5 2213,-985.5 2213,-955.5 1914,-955.5"/>
<text text-anchor="start" x="1921" y="-966.9" font-family="Arial" font-size="14.00" fill="#000000">repo_id </text>
<text text-anchor="start" x="1971.5708" y="-966.9" font-family="Arial" font-size="14.00" fill="#666666">[bigint]</text>
<polygon fill="none" stroke="#000000" points="1914,-925.5 1914,-955.5 2213,-955.5 2213,-925.5 1914,-925.5"/>
<text text-anchor="start" x="1921" y="-936.9" font-family="Arial" font-size="14.00" fill="#000000">count </text>
<text text-anchor="start" x="1959.129" y="-936.9" font-family="Arial" font-size="14.00" fill="#666666">[bigint]</text>
<polygon fill="none" stroke="#000000" points="1914,-895.5 1914,-925.5 2213,-925.5 2213,-895.5 1914,-895.5"/>
<text text-anchor="start" x="1920.7497" y="-906.9" font-family="Arial" font-size="14.00" fill="#000000">last_merged_at </text>
<text text-anchor="start" x="2021.1101" y="-906.9" font-family="Arial" font-size="14.00" fill="#666666">[timestamp without time zone]</text>
<polygon fill="none" stroke="#000000" points="1914,-865.5 1914,-895.5 2213,-895.5 2213,-865.5 1914,-865.5"/>
<text text-anchor="start" x="1921" y="-876.9" font-family="Arial" font-size="14.00" fill="#000000">contributor </text>
<text text-anchor="start" x="1991.0126" y="-876.9" font-family="Arial" font-size="14.00" fill="#666666">[varchar(255)]</text>
<polygon fill="none" stroke="#000000" points="1914,-835.5 1914,-865.5 2213,-865.5 2213,-835.5 1914,-835.5"/>
<text text-anchor="start" x="1921" y="-846.9" font-family="Arial" font-size="14.00" fill="#000000">url </text>
<text text-anchor="start" x="1940.4404" y="-846.9" font-family="Arial" font-size="14.00" fill="#666666">[varchar(255)]</text>
<polygon fill="none" stroke="#000000" points="1914,-805.5 1914,-835.5 2213,-835.5 2213,-805.5 1914,-805.5"/>
<text text-anchor="start" x="1921" y="-816.9" font-family="Arial" font-size="14.00" fill="#000000">deleted_at </text>
<text text-anchor="start" x="1990.2566" y="-816.9" font-family="Arial" font-size="14.00" fill="#666666">[timestamp with time zone]</text>
<polygon fill="none" stroke="#000000" points="1914,-775.5 1914,-805.5 2213,-805.5 2213,-775.5 1914,-775.5"/>
<text text-anchor="start" x="1921" y="-786.9" font-family="Arial" font-size="14.00" fill="#000000">updated_at </text>
<text text-anchor="start" x="1994.9326" y="-786.9" font-family="Arial" font-size="14.00" fill="#666666">[timestamp with time zone]</text>
<polygon fill="none" stroke="#000000" points="1914,-745.5 1914,-775.5 2213,-775.5 2213,-745.5 1914,-745.5"/>
<text text-anchor="start" x="1921" y="-756.9" font-family="Arial" font-size="14.00" fill="#000000">created_at </text>
<text text-anchor="start" x="1991.028" y="-756.9" font-family="Arial" font-size="14.00" fill="#666666">[timestamp with time zone]</text>
</g>
<!-- public.contributions&#45;&gt;public.repos -->
<g id="edge1" class="edge">
<title>public.contributions:repo_id&#45;&gt;public.repos:id</title>
<path fill="none" stroke="#000000" d="M1903.7269,-970.0154C1801.7274,-959.7463 1941.2783,-788.8422 1861,-703 1783.5136,-620.1432 1481.4434,-570.5 1368,-570.5"/>
<polygon fill="#000000" stroke="#000000" points="1904.0111,-970.0287 1913.7879,-974.995 1909.0056,-970.2644 1914,-970.5 1914,-970.5 1914,-970.5 1909.0056,-970.2644 1914.2121,-966.005 1904.0111,-970.0287 1904.0111,-970.0287"/>
<text text-anchor="start" x="1861.2755" y="-954.5" font-family="Arial" font-size="10.00" fill="#000000">FOREIGN KEY (repo_id) REFERENCES repos(id)</text>
</g>
<!-- public.users_to_repos_stars -->
<g id="node3" class="node">
<title>public.users_to_repos_stars</title>
<polygon fill="#efefef" stroke="transparent" points="1473,-970.5 1473,-1005.5 1809,-1005.5 1809,-970.5 1473,-970.5"/>
<polygon fill="none" stroke="#000000" points="1473,-970.5 1473,-1005.5 1809,-1005.5 1809,-970.5 1473,-970.5"/>
<text text-anchor="start" x="1479.847" y="-983.3" font-family="Arial Bold" font-size="18.00" fill="#000000">public.users_to_repos_stars</text>
<text text-anchor="start" x="1704.8992" y="-983.3" font-family="Arial" font-size="14.00" fill="#000000"> </text>
<text text-anchor="start" x="1708.7898" y="-983.3" font-family="Arial" font-size="14.00" fill="#666666">[BASE TABLE]</text>
<polygon fill="none" stroke="#000000" points="1473,-940.5 1473,-970.5 1809,-970.5 1809,-940.5 1473,-940.5"/>
<text text-anchor="start" x="1480" y="-951.9" font-family="Arial" font-size="14.00" fill="#000000">id </text>
<text text-anchor="start" x="1494.7798" y="-951.9" font-family="Arial" font-size="14.00" fill="#666666">[bigint]</text>
<polygon fill="none" stroke="#000000" points="1473,-910.5 1473,-940.5 1809,-940.5 1809,-910.5 1473,-910.5"/>
<text text-anchor="start" x="1480" y="-921.9" font-family="Arial" font-size="14.00" fill="#000000">user_id </text>
<text text-anchor="start" x="1529.7882" y="-921.9" font-family="Arial" font-size="14.00" fill="#666666">[bigint]</text>
<polygon fill="none" stroke="#000000" points="1473,-880.5 1473,-910.5 1809,-910.5 1809,-880.5 1473,-880.5"/>
<text text-anchor="start" x="1480" y="-891.9" font-family="Arial" font-size="14.00" fill="#000000">repo_id </text>
<text text-anchor="start" x="1530.5708" y="-891.9" font-family="Arial" font-size="14.00" fill="#666666">[bigint]</text>
<polygon fill="none" stroke="#000000" points="1473,-850.5 1473,-880.5 1809,-880.5 1809,-850.5 1473,-850.5"/>
<text text-anchor="start" x="1480" y="-861.9" font-family="Arial" font-size="14.00" fill="#000000">created_at </text>
<text text-anchor="start" x="1550.028" y="-861.9" font-family="Arial" font-size="14.00" fill="#666666">[timestamp with time zone]</text>
<polygon fill="none" stroke="#000000" points="1473,-820.5 1473,-850.5 1809,-850.5 1809,-820.5 1473,-820.5"/>
<text text-anchor="start" x="1480" y="-831.9" font-family="Arial" font-size="14.00" fill="#000000">updated_at </text>
<text text-anchor="start" x="1553.9326" y="-831.9" font-family="Arial" font-size="14.00" fill="#666666">[timestamp with time zone]</text>
<polygon fill="none" stroke="#000000" points="1473,-790.5 1473,-820.5 1809,-820.5 1809,-790.5 1473,-790.5"/>
<text text-anchor="start" x="1480" y="-801.9" font-family="Arial" font-size="14.00" fill="#000000">deleted_at </text>
<text text-anchor="start" x="1549.2566" y="-801.9" font-family="Arial" font-size="14.00" fill="#666666">[timestamp with time zone]</text>
</g>
<!-- public.users_to_repos_stars&#45;&gt;public.repos -->
<g id="edge2" class="edge">
<title>public.users_to_repos_stars:repo_id&#45;&gt;public.repos:id</title>
<path fill="none" stroke="#000000" d="M1462.8521,-894.9619C1389.5278,-886.6457 1447.9091,-783.6147 1421,-703 1400.918,-642.8379 1431.4253,-570.5 1368,-570.5"/>
<polygon fill="#000000" stroke="#000000" points="1463.014,-894.9704 1472.7617,-899.9937 1468.007,-895.2352 1473,-895.5 1473,-895.5 1473,-895.5 1468.007,-895.2352 1473.2383,-891.0063 1463.014,-894.9704 1463.014,-894.9704"/>
<text text-anchor="start" x="1420.2755" y="-879.5" font-family="Arial" font-size="10.00" fill="#000000">FOREIGN KEY (repo_id) REFERENCES repos(id)</text>
</g>
<!-- public.users -->
<g id="node4" class="node">
<title>public.users</title>
<polygon fill="#efefef" stroke="transparent" points="594,-450.5 594,-485.5 847,-485.5 847,-450.5 594,-450.5"/>
<polygon fill="none" stroke="#000000" points="594,-450.5 594,-485.5 847,-485.5 847,-450.5 594,-450.5"/>
<text text-anchor="start" x="623.8662" y="-463.3" font-family="Arial Bold" font-size="18.00" fill="#000000">public.users</text>
<text text-anchor="start" x="719.88" y="-463.3" font-family="Arial" font-size="14.00" fill="#000000"> </text>
<text text-anchor="start" x="723.7706" y="-463.3" font-family="Arial" font-size="14.00" fill="#666666">[BASE TABLE]</text>
<polygon fill="none" stroke="#000000" points="594,-420.5 594,-450.5 847,-450.5 847,-420.5 594,-420.5"/>
<text text-anchor="start" x="601" y="-431.9" font-family="Arial" font-size="14.00" fill="#000000">id </text>
<text text-anchor="start" x="615.7798" y="-431.9" font-family="Arial" font-size="14.00" fill="#666666">[bigint]</text>
<polygon fill="none" stroke="#000000" points="594,-390.5 594,-420.5 847,-420.5 847,-390.5 594,-390.5"/>
<text text-anchor="start" x="601" y="-401.9" font-family="Arial" font-size="14.00" fill="#000000">open_issues </text>
<text text-anchor="start" x="683.4754" y="-401.9" font-family="Arial" font-size="14.00" fill="#666666">[bigint]</text>
<polygon fill="none" stroke="#000000" points="594,-360.5 594,-390.5 847,-390.5 847,-360.5 594,-360.5"/>
<text text-anchor="start" x="601" y="-371.9" font-family="Arial" font-size="14.00" fill="#000000">has_stars_data </text>
<text text-anchor="start" x="700.5932" y="-371.9" font-family="Arial" font-size="14.00" fill="#666666">[boolean]</text>
<polygon fill="none" stroke="#000000" points="594,-330.5 594,-360.5 847,-360.5 847,-330.5 594,-330.5"/>
<text text-anchor="start" x="601" y="-341.9" font-family="Arial" font-size="14.00" fill="#000000">is_private </text>
<text text-anchor="start" x="664.7854" y="-341.9" font-family="Arial" font-size="14.00" fill="#666666">[boolean]</text>
<polygon fill="none" stroke="#000000" points="594,-300.5 594,-330.5 847,-330.5 847,-300.5 594,-300.5"/>
<text text-anchor="start" x="601" y="-311.9" font-family="Arial" font-size="14.00" fill="#000000">is_open_sauced_member </text>
<text text-anchor="start" x="765.9354" y="-311.9" font-family="Arial" font-size="14.00" fill="#666666">[boolean]</text>
<polygon fill="none" stroke="#000000" points="594,-270.5 594,-300.5 847,-300.5 847,-270.5 594,-270.5"/>
<text text-anchor="start" x="601" y="-281.9" font-family="Arial" font-size="14.00" fill="#000000">created_at </text>
<text text-anchor="start" x="671.028" y="-281.9" font-family="Arial" font-size="14.00" fill="#666666">[timestamp with time zone]</text>
<polygon fill="none" stroke="#000000" points="594,-240.5 594,-270.5 847,-270.5 847,-240.5 594,-240.5"/>
<text text-anchor="start" x="601" y="-251.9" font-family="Arial" font-size="14.00" fill="#000000">login </text>
<text text-anchor="start" x="634.4516" y="-251.9" font-family="Arial" font-size="14.00" fill="#666666">[varchar(255)]</text>
<polygon fill="none" stroke="#000000" points="594,-210.5 594,-240.5 847,-240.5 847,-210.5 594,-210.5"/>
<text text-anchor="start" x="601" y="-221.9" font-family="Arial" font-size="14.00" fill="#000000">deleted_at </text>
<text text-anchor="start" x="670.2566" y="-221.9" font-family="Arial" font-size="14.00" fill="#666666">[timestamp with time zone]</text>
<polygon fill="none" stroke="#000000" points="594,-180.5 594,-210.5 847,-210.5 847,-180.5 594,-180.5"/>
<text text-anchor="start" x="600.6915" y="-191.9" font-family="Arial" font-size="14.00" fill="#000000">updated_at </text>
<text text-anchor="start" x="674.6241" y="-191.9" font-family="Arial" font-size="14.00" fill="#666666">[timestamp with time zone]</text>
</g>
<!-- public.users_to_repos_stars&#45;&gt;public.users -->
<g id="edge3" class="edge">
<title>public.users_to_repos_stars:user_id&#45;&gt;public.users:id</title>
<path fill="none" stroke="#000000" d="M1462.8655,-924.8987C1380.3383,-914.3092 1495.3862,-766.624 1421,-703 1338.7015,-632.6085 1021.816,-731.7379 935,-667 846.7604,-601.2005 957.0718,-435.5 847,-435.5"/>
<polygon fill="#000000" stroke="#000000" points="1463.0176,-924.9076 1472.7334,-929.9921 1468.0088,-925.2038 1473,-925.5 1473,-925.5 1473,-925.5 1468.0088,-925.2038 1473.2666,-921.0079 1463.0176,-924.9076 1463.0176,-924.9076"/>
<text text-anchor="start" x="1421.0845" y="-909.5" font-family="Arial" font-size="10.00" fill="#000000">FOREIGN KEY (user_id) REFERENCES users(id)</text>
</g>
<!-- public.users_to_repos_votes -->
<g id="node5" class="node">
<title>public.users_to_repos_votes</title>
<polygon fill="#efefef" stroke="transparent" points="43,-970.5 43,-1005.5 383,-1005.5 383,-970.5 43,-970.5"/>
<polygon fill="none" stroke="#000000" points="43,-970.5 43,-1005.5 383,-1005.5 383,-970.5 43,-970.5"/>
<text text-anchor="start" x="49.84" y="-983.3" font-family="Arial Bold" font-size="18.00" fill="#000000">public.users_to_repos_votes</text>
<text text-anchor="start" x="278.9062" y="-983.3" font-family="Arial" font-size="14.00" fill="#000000"> </text>
<text text-anchor="start" x="282.7968" y="-983.3" font-family="Arial" font-size="14.00" fill="#666666">[BASE TABLE]</text>
<polygon fill="none" stroke="#000000" points="43,-940.5 43,-970.5 383,-970.5 383,-940.5 43,-940.5"/>
<text text-anchor="start" x="50" y="-951.9" font-family="Arial" font-size="14.00" fill="#000000">id </text>
<text text-anchor="start" x="64.7798" y="-951.9" font-family="Arial" font-size="14.00" fill="#666666">[bigint]</text>
<polygon fill="none" stroke="#000000" points="43,-910.5 43,-940.5 383,-940.5 383,-910.5 43,-910.5"/>
<text text-anchor="start" x="50" y="-921.9" font-family="Arial" font-size="14.00" fill="#000000">user_id </text>
<text text-anchor="start" x="99.7882" y="-921.9" font-family="Arial" font-size="14.00" fill="#666666">[bigint]</text>
<polygon fill="none" stroke="#000000" points="43,-880.5 43,-910.5 383,-910.5 383,-880.5 43,-880.5"/>
<text text-anchor="start" x="50" y="-891.9" font-family="Arial" font-size="14.00" fill="#000000">repo_id </text>
<text text-anchor="start" x="100.5708" y="-891.9" font-family="Arial" font-size="14.00" fill="#666666">[bigint]</text>
<polygon fill="none" stroke="#000000" points="43,-850.5 43,-880.5 383,-880.5 383,-850.5 43,-850.5"/>
<text text-anchor="start" x="50" y="-861.9" font-family="Arial" font-size="14.00" fill="#000000">created_at </text>
<text text-anchor="start" x="120.028" y="-861.9" font-family="Arial" font-size="14.00" fill="#666666">[timestamp with time zone]</text>
<polygon fill="none" stroke="#000000" points="43,-820.5 43,-850.5 383,-850.5 383,-820.5 43,-820.5"/>
<text text-anchor="start" x="50" y="-831.9" font-family="Arial" font-size="14.00" fill="#000000">updated_at </text>
<text text-anchor="start" x="123.9326" y="-831.9" font-family="Arial" font-size="14.00" fill="#666666">[timestamp with time zone]</text>
<polygon fill="none" stroke="#000000" points="43,-790.5 43,-820.5 383,-820.5 383,-790.5 43,-790.5"/>
<text text-anchor="start" x="50" y="-801.9" font-family="Arial" font-size="14.00" fill="#000000">deleted_at </text>
<text text-anchor="start" x="119.2566" y="-801.9" font-family="Arial" font-size="14.00" fill="#666666">[timestamp with time zone]</text>
</g>
<!-- public.users_to_repos_votes&#45;&gt;public.repos -->
<g id="edge4" class="edge">
<title>public.users_to_repos_votes:repo_id&#45;&gt;public.repos:id</title>
<path fill="none" stroke="#000000" d="M393.3814,-894.7642C462.9317,-883.9648 369.7107,-757.1364 435,-703 514.4421,-637.1284 804.7815,-711.2769 898,-667 951.5257,-641.5764 930.7433,-570.5 990,-570.5"/>
<polygon fill="#000000" stroke="#000000" points="392.975,-894.7929 382.6818,-891.0113 387.9875,-895.1464 383,-895.5 383,-895.5 383,-895.5 387.9875,-895.1464 383.3182,-899.9887 392.975,-894.7929 392.975,-894.7929"/>
<text text-anchor="start" x="389.7755" y="-905.5" font-family="Arial" font-size="10.00" fill="#000000">FOREIGN KEY (repo_id) REFERENCES repos(id)</text>
</g>
<!-- public.users_to_repos_votes&#45;&gt;public.users -->
<g id="edge5" class="edge">
<title>public.users_to_repos_votes:user_id&#45;&gt;public.users:id</title>
<path fill="none" stroke="#000000" d="M393.0234,-925.0313C478.5564,-916.5209 398.3889,-793.8866 435,-703 486.6772,-574.712 455.6947,-435.5 594,-435.5"/>
<polygon fill="#000000" stroke="#000000" points="392.9891,-925.0328 382.7898,-921.0049 387.9945,-925.2664 383,-925.5 383,-925.5 383,-925.5 387.9945,-925.2664 383.2102,-929.9951 392.9891,-925.0328 392.9891,-925.0328"/>
<text text-anchor="start" x="390.3345" y="-935.5" font-family="Arial" font-size="10.00" fill="#000000">FOREIGN KEY (user_id) REFERENCES users(id)</text>
</g>
<!-- public.users_to_repos_submissions -->
<g id="node6" class="node">
<title>public.users_to_repos_submissions</title>
<polygon fill="#efefef" stroke="transparent" points="487,-970.5 487,-1005.5 883,-1005.5 883,-970.5 487,-970.5"/>
<polygon fill="none" stroke="#000000" points="487,-970.5 487,-1005.5 883,-1005.5 883,-970.5 487,-970.5"/>
<text text-anchor="start" x="493.8446" y="-983.3" font-family="Arial Bold" font-size="18.00" fill="#000000">public.users_to_repos_submissions</text>
<text text-anchor="start" x="778.9016" y="-983.3" font-family="Arial" font-size="14.00" fill="#000000"> </text>
<text text-anchor="start" x="782.7922" y="-983.3" font-family="Arial" font-size="14.00" fill="#666666">[BASE TABLE]</text>
<polygon fill="none" stroke="#000000" points="487,-940.5 487,-970.5 883,-970.5 883,-940.5 487,-940.5"/>
<text text-anchor="start" x="494" y="-951.9" font-family="Arial" font-size="14.00" fill="#000000">id </text>
<text text-anchor="start" x="508.7798" y="-951.9" font-family="Arial" font-size="14.00" fill="#666666">[bigint]</text>
<polygon fill="none" stroke="#000000" points="487,-910.5 487,-940.5 883,-940.5 883,-910.5 487,-910.5"/>
<text text-anchor="start" x="494" y="-921.9" font-family="Arial" font-size="14.00" fill="#000000">user_id </text>
<text text-anchor="start" x="543.7882" y="-921.9" font-family="Arial" font-size="14.00" fill="#666666">[bigint]</text>
<polygon fill="none" stroke="#000000" points="487,-880.5 487,-910.5 883,-910.5 883,-880.5 487,-880.5"/>
<text text-anchor="start" x="494" y="-891.9" font-family="Arial" font-size="14.00" fill="#000000">repo_id </text>
<text text-anchor="start" x="544.5708" y="-891.9" font-family="Arial" font-size="14.00" fill="#666666">[bigint]</text>
<polygon fill="none" stroke="#000000" points="487,-850.5 487,-880.5 883,-880.5 883,-850.5 487,-850.5"/>
<text text-anchor="start" x="494" y="-861.9" font-family="Arial" font-size="14.00" fill="#000000">created_at </text>
<text text-anchor="start" x="564.028" y="-861.9" font-family="Arial" font-size="14.00" fill="#666666">[timestamp with time zone]</text>
<polygon fill="none" stroke="#000000" points="487,-820.5 487,-850.5 883,-850.5 883,-820.5 487,-820.5"/>
<text text-anchor="start" x="494" y="-831.9" font-family="Arial" font-size="14.00" fill="#000000">updated_at </text>
<text text-anchor="start" x="567.9326" y="-831.9" font-family="Arial" font-size="14.00" fill="#666666">[timestamp with time zone]</text>
<polygon fill="none" stroke="#000000" points="487,-790.5 487,-820.5 883,-820.5 883,-790.5 487,-790.5"/>
<text text-anchor="start" x="494" y="-801.9" font-family="Arial" font-size="14.00" fill="#000000">deleted_at </text>
<text text-anchor="start" x="563.2566" y="-801.9" font-family="Arial" font-size="14.00" fill="#666666">[timestamp with time zone]</text>
</g>
<!-- public.users_to_repos_submissions&#45;&gt;public.repos -->
<g id="edge6" class="edge">
<title>public.users_to_repos_submissions:repo_id&#45;&gt;public.repos:id</title>
<path fill="none" stroke="#000000" d="M893.1453,-894.961C966.4294,-886.6313 907.5697,-783.4388 935,-703 955.5793,-642.6516 926.2393,-570.5 990,-570.5"/>
<polygon fill="#000000" stroke="#000000" points="892.9859,-894.9694 882.7612,-891.0063 887.993,-895.2347 883,-895.5 883,-895.5 883,-895.5 887.993,-895.2347 883.2388,-899.9937 892.9859,-894.9694 892.9859,-894.9694"/>
<text text-anchor="start" x="889.7755" y="-905.5" font-family="Arial" font-size="10.00" fill="#000000">FOREIGN KEY (repo_id) REFERENCES repos(id)</text>
</g>
<!-- public.users_to_repos_submissions&#45;&gt;public.users -->
<g id="edge7" class="edge">
<title>public.users_to_repos_submissions:user_id&#45;&gt;public.users:id</title>
<path fill="none" stroke="#000000" d="M893.2986,-924.8104C957.8032,-915.5621 916.4594,-815.3361 883,-748 811.2862,-603.6779 665.7138,-673.3221 594,-529 575.5081,-491.7856 552.4444,-435.5 594,-435.5"/>
<polygon fill="#000000" stroke="#000000" points="892.9777,-924.8318 882.6993,-921.0101 887.9888,-925.1659 883,-925.5 883,-925.5 883,-925.5 887.9888,-925.1659 883.3007,-929.9899 892.9777,-924.8318 892.9777,-924.8318"/>
<text text-anchor="start" x="890.3345" y="-935.5" font-family="Arial" font-size="10.00" fill="#000000">FOREIGN KEY (user_id) REFERENCES users(id)</text>
</g>
<!-- public.users_to_repos_stargazers -->
<g id="node7" class="node">
<title>public.users_to_repos_stargazers</title>
<polygon fill="#efefef" stroke="transparent" points="988,-970.5 988,-1005.5 1369,-1005.5 1369,-970.5 988,-970.5"/>
<polygon fill="none" stroke="#000000" points="988,-970.5 988,-1005.5 1369,-1005.5 1369,-970.5 988,-970.5"/>
<text text-anchor="start" x="994.8416" y="-983.3" font-family="Arial Bold" font-size="18.00" fill="#000000">public.users_to_repos_stargazers</text>
<text text-anchor="start" x="1264.9046" y="-983.3" font-family="Arial" font-size="14.00" fill="#000000"> </text>
<text text-anchor="start" x="1268.7952" y="-983.3" font-family="Arial" font-size="14.00" fill="#666666">[BASE TABLE]</text>
<polygon fill="none" stroke="#000000" points="988,-940.5 988,-970.5 1369,-970.5 1369,-940.5 988,-940.5"/>
<text text-anchor="start" x="995" y="-951.9" font-family="Arial" font-size="14.00" fill="#000000">id </text>
<text text-anchor="start" x="1009.7798" y="-951.9" font-family="Arial" font-size="14.00" fill="#666666">[bigint]</text>
<polygon fill="none" stroke="#000000" points="988,-910.5 988,-940.5 1369,-940.5 1369,-910.5 988,-910.5"/>
<text text-anchor="start" x="995" y="-921.9" font-family="Arial" font-size="14.00" fill="#000000">user_id </text>
<text text-anchor="start" x="1044.7882" y="-921.9" font-family="Arial" font-size="14.00" fill="#666666">[bigint]</text>
<polygon fill="none" stroke="#000000" points="988,-880.5 988,-910.5 1369,-910.5 1369,-880.5 988,-880.5"/>
<text text-anchor="start" x="995" y="-891.9" font-family="Arial" font-size="14.00" fill="#000000">repo_id </text>
<text text-anchor="start" x="1045.5708" y="-891.9" font-family="Arial" font-size="14.00" fill="#666666">[bigint]</text>
<polygon fill="none" stroke="#000000" points="988,-850.5 988,-880.5 1369,-880.5 1369,-850.5 988,-850.5"/>
<text text-anchor="start" x="995" y="-861.9" font-family="Arial" font-size="14.00" fill="#000000">created_at </text>
<text text-anchor="start" x="1065.028" y="-861.9" font-family="Arial" font-size="14.00" fill="#666666">[timestamp without time zone]</text>
<polygon fill="none" stroke="#000000" points="988,-820.5 988,-850.5 1369,-850.5 1369,-820.5 988,-820.5"/>
<text text-anchor="start" x="995" y="-831.9" font-family="Arial" font-size="14.00" fill="#000000">updated_at </text>
<text text-anchor="start" x="1068.9326" y="-831.9" font-family="Arial" font-size="14.00" fill="#666666">[timestamp without time zone]</text>
<polygon fill="none" stroke="#000000" points="988,-790.5 988,-820.5 1369,-820.5 1369,-790.5 988,-790.5"/>
<text text-anchor="start" x="995" y="-801.9" font-family="Arial" font-size="14.00" fill="#000000">deleted_at </text>
<text text-anchor="start" x="1064.2566" y="-801.9" font-family="Arial" font-size="14.00" fill="#666666">[timestamp without time zone]</text>
</g>
<!-- public.users_to_repos_stargazers&#45;&gt;public.repos -->
<g id="edge8" class="edge">
<title>public.users_to_repos_stargazers:repo_id&#45;&gt;public.repos:id</title>
<path fill="none" stroke="#000000" d="M1379.2875,-894.5968C1431.7454,-884.711 1407.892,-796.0823 1369,-748 1260.6751,-614.0775 1098.3249,-800.9225 990,-667 963.0277,-633.6541 947.1111,-570.5 990,-570.5"/>
<polygon fill="#000000" stroke="#000000" points="1378.9617,-894.6253 1368.6064,-891.0172 1373.9808,-895.0626 1369,-895.5 1369,-895.5 1369,-895.5 1373.9808,-895.0626 1369.3936,-899.9828 1378.9617,-894.6253 1378.9617,-894.6253"/>
<text text-anchor="start" x="1137.7755" y="-905.5" font-family="Arial" font-size="10.00" fill="#000000">FOREIGN KEY (repo_id) REFERENCES repos(id)</text>
</g>
<!-- public.users_to_repos_stargazers&#45;&gt;public.users -->
<g id="edge9" class="edge">
<title>public.users_to_repos_stargazers:user_id&#45;&gt;public.users:id</title>
<path fill="none" stroke="#000000" d="M978.1749,-923.029C938.6872,-901.7048 947.8695,-748.4678 935,-703 900.9138,-582.5742 972.1569,-435.5 847,-435.5"/>
<polygon fill="#000000" stroke="#000000" points="978.302,-923.0609 986.9024,-929.8641 983.151,-924.2805 988,-925.5 988,-925.5 988,-925.5 983.151,-924.2805 989.0976,-921.1359 978.302,-923.0609 978.302,-923.0609"/>
<text text-anchor="start" x="995.3345" y="-935.5" font-family="Arial" font-size="10.00" fill="#000000">FOREIGN KEY (user_id) REFERENCES users(id)</text>
</g>
</g>
</svg>
