<?xml version="1.0" encoding="UTF-8" standalone="no"?>
<!DOCTYPE svg PUBLIC "-//W3C//DTD SVG 1.1//EN"
 "http://www.w3.org/Graphics/SVG/1.1/DTD/svg11.dtd">
<!-- Generated by graphviz version 2.40.1 (20161225.0304)
 -->
<!-- Title: public.users_to_repos_votes Pages: 1 -->
<svg width="1284pt" height="1289pt"
 viewBox="0.00 0.00 1284.00 1289.00" xmlns="http://www.w3.org/2000/svg" xmlns:xlink="http://www.w3.org/1999/xlink">
<g id="graph0" class="graph" transform="scale(1 1) rotate(0) translate(4 1285)">
<title>public.users_to_repos_votes</title>
<polygon fill="#ffffff" stroke="transparent" points="-4,4 -4,-1285 1280,-1285 1280,4 -4,4"/>
<!-- public.users_to_repos_votes -->
<g id="node1" class="node">
<title>public.users_to_repos_votes</title>
<polygon fill="#efefef" stroke="transparent" points="237,-1199.5 237,-1234.5 577,-1234.5 577,-1199.5 237,-1199.5"/>
<polygon fill="none" stroke="#000000" points="237,-1199.5 237,-1234.5 577,-1234.5 577,-1199.5 237,-1199.5"/>
<text text-anchor="start" x="243.84" y="-1212.3" font-family="Arial Bold" font-size="18.00" fill="#000000">public.users_to_repos_votes</text>
<text text-anchor="start" x="472.9062" y="-1212.3" font-family="Arial" font-size="14.00" fill="#000000"> </text>
<text text-anchor="start" x="476.7968" y="-1212.3" font-family="Arial" font-size="14.00" fill="#666666">[BASE TABLE]</text>
<polygon fill="none" stroke="#000000" points="237,-1169.5 237,-1199.5 577,-1199.5 577,-1169.5 237,-1169.5"/>
<text text-anchor="start" x="244" y="-1180.9" font-family="Arial" font-size="14.00" fill="#000000">id </text>
<text text-anchor="start" x="258.7798" y="-1180.9" font-family="Arial" font-size="14.00" fill="#666666">[bigint]</text>
<polygon fill="none" stroke="#000000" points="237,-1139.5 237,-1169.5 577,-1169.5 577,-1139.5 237,-1139.5"/>
<text text-anchor="start" x="244" y="-1150.9" font-family="Arial" font-size="14.00" fill="#000000">user_id </text>
<text text-anchor="start" x="293.7882" y="-1150.9" font-family="Arial" font-size="14.00" fill="#666666">[bigint]</text>
<polygon fill="none" stroke="#000000" points="237,-1109.5 237,-1139.5 577,-1139.5 577,-1109.5 237,-1109.5"/>
<text text-anchor="start" x="244" y="-1120.9" font-family="Arial" font-size="14.00" fill="#000000">repo_id </text>
<text text-anchor="start" x="294.5708" y="-1120.9" font-family="Arial" font-size="14.00" fill="#666666">[bigint]</text>
<polygon fill="none" stroke="#000000" points="237,-1079.5 237,-1109.5 577,-1109.5 577,-1079.5 237,-1079.5"/>
<text text-anchor="start" x="244" y="-1090.9" font-family="Arial" font-size="14.00" fill="#000000">created_at </text>
<text text-anchor="start" x="314.028" y="-1090.9" font-family="Arial" font-size="14.00" fill="#666666">[timestamp with time zone]</text>
<polygon fill="none" stroke="#000000" stroke-width="3" points="235.5,-1078.5 235.5,-1236.5 578.5,-1236.5 578.5,-1078.5 235.5,-1078.5"/>
</g>
<!-- public.users -->
<g id="node2" class="node">
<title>public.users</title>
<polygon fill="#efefef" stroke="transparent" points="505,-252.5 505,-287.5 754,-287.5 754,-252.5 505,-252.5"/>
<polygon fill="none" stroke="#000000" points="505,-252.5 505,-287.5 754,-287.5 754,-252.5 505,-252.5"/>
<text text-anchor="start" x="532.8662" y="-265.3" font-family="Arial Bold" font-size="18.00" fill="#000000">public.users</text>
<text text-anchor="start" x="628.88" y="-265.3" font-family="Arial" font-size="14.00" fill="#000000"> </text>
<text text-anchor="start" x="632.7706" y="-265.3" font-family="Arial" font-size="14.00" fill="#666666">[BASE TABLE]</text>
<polygon fill="none" stroke="#000000" points="505,-222.5 505,-252.5 754,-252.5 754,-222.5 505,-222.5"/>
<text text-anchor="start" x="512" y="-233.9" font-family="Arial" font-size="14.00" fill="#000000">id </text>
<text text-anchor="start" x="526.7798" y="-233.9" font-family="Arial" font-size="14.00" fill="#666666">[bigint]</text>
<polygon fill="none" stroke="#000000" points="505,-192.5 505,-222.5 754,-222.5 754,-192.5 505,-192.5"/>
<text text-anchor="start" x="512" y="-203.9" font-family="Arial" font-size="14.00" fill="#000000">open_issues </text>
<text text-anchor="start" x="594.4754" y="-203.9" font-family="Arial" font-size="14.00" fill="#666666">[bigint]</text>
<polygon fill="none" stroke="#000000" points="505,-162.5 505,-192.5 754,-192.5 754,-162.5 505,-162.5"/>
<text text-anchor="start" x="512" y="-173.9" font-family="Arial" font-size="14.00" fill="#000000">has_stars_data </text>
<text text-anchor="start" x="611.5932" y="-173.9" font-family="Arial" font-size="14.00" fill="#666666">[boolean]</text>
<polygon fill="none" stroke="#000000" points="505,-132.5 505,-162.5 754,-162.5 754,-132.5 505,-132.5"/>
<text text-anchor="start" x="512" y="-143.9" font-family="Arial" font-size="14.00" fill="#000000">is_private </text>
<text text-anchor="start" x="575.7854" y="-143.9" font-family="Arial" font-size="14.00" fill="#666666">[boolean]</text>
<polygon fill="none" stroke="#000000" points="505,-102.5 505,-132.5 754,-132.5 754,-102.5 505,-102.5"/>
<text text-anchor="start" x="512" y="-113.9" font-family="Arial" font-size="14.00" fill="#000000">is_open_sauced_member </text>
<text text-anchor="start" x="676.9354" y="-113.9" font-family="Arial" font-size="14.00" fill="#666666">[boolean]</text>
<polygon fill="none" stroke="#000000" points="505,-72.5 505,-102.5 754,-102.5 754,-72.5 505,-72.5"/>
<text text-anchor="start" x="511.6438" y="-83.9" font-family="Arial" font-size="14.00" fill="#000000">created_at </text>
<text text-anchor="start" x="581.6718" y="-83.9" font-family="Arial" font-size="14.00" fill="#666666">[timestamp with time zone]</text>
<polygon fill="none" stroke="#000000" points="505,-42.5 505,-72.5 754,-72.5 754,-42.5 505,-42.5"/>
<text text-anchor="start" x="512" y="-53.9" font-family="Arial" font-size="14.00" fill="#000000">login </text>
<text text-anchor="start" x="545.4516" y="-53.9" font-family="Arial" font-size="14.00" fill="#666666">[varchar(255)]</text>
</g>
<!-- public.users_to_repos_votes&#45;&gt;public.users -->
<g id="edge1" class="edge">
<title>public.users_to_repos_votes:user_id&#45;&gt;public.users:id</title>
<path fill="none" stroke="#000000" d="M226.821,-1153.7502C33.5808,-1124.3055 296.2223,-237.5 505,-237.5"/>
<polygon fill="#000000" stroke="#000000" points="227.027,-1153.7653 236.6694,-1158.9878 232.0135,-1154.1326 237,-1154.5 237,-1154.5 237,-1154.5 232.0135,-1154.1326 237.3306,-1150.0122 227.027,-1153.7653 227.027,-1153.7653"/>
<text text-anchor="start" x="7.3345" y="-1164.5" font-family="Arial" font-size="10.00" fill="#000000">FOREIGN KEY (user_id) REFERENCES users(id)</text>
</g>
<!-- public.repos -->
<g id="node4" class="node">
<title>public.repos</title>
<polygon fill="#efefef" stroke="transparent" points="441,-919.5 441,-954.5 819,-954.5 819,-919.5 441,-919.5"/>
<polygon fill="none" stroke="#000000" points="441,-919.5 441,-954.5 819,-954.5 819,-919.5 441,-919.5"/>
<text text-anchor="start" x="532.8631" y="-932.3" font-family="Arial Bold" font-size="18.00" fill="#000000">public.repos</text>
<text text-anchor="start" x="629.8831" y="-932.3" font-family="Arial" font-size="14.00" fill="#000000"> </text>
<text text-anchor="start" x="633.7737" y="-932.3" font-family="Arial" font-size="14.00" fill="#666666">[BASE TABLE]</text>
<polygon fill="none" stroke="#000000" points="441,-889.5 441,-919.5 819,-919.5 819,-889.5 441,-889.5"/>
<text text-anchor="start" x="448" y="-900.9" font-family="Arial" font-size="14.00" fill="#000000">id </text>
<text text-anchor="start" x="462.7798" y="-900.9" font-family="Arial" font-size="14.00" fill="#666666">[bigint]</text>
<polygon fill="none" stroke="#000000" points="441,-859.5 441,-889.5 819,-889.5 819,-859.5 441,-859.5"/>
<text text-anchor="start" x="448" y="-870.9" font-family="Arial" font-size="14.00" fill="#000000">user_id </text>
<text text-anchor="start" x="497.7882" y="-870.9" font-family="Arial" font-size="14.00" fill="#666666">[bigint]</text>
<polygon fill="none" stroke="#000000" points="441,-829.5 441,-859.5 819,-859.5 819,-829.5 441,-829.5"/>
<text text-anchor="start" x="448" y="-840.9" font-family="Arial" font-size="14.00" fill="#000000">issues </text>
<text text-anchor="start" x="491.5624" y="-840.9" font-family="Arial" font-size="14.00" fill="#666666">[bigint]</text>
<polygon fill="none" stroke="#000000" points="441,-799.5 441,-829.5 819,-829.5 819,-799.5 441,-799.5"/>
<text text-anchor="start" x="448" y="-810.9" font-family="Arial" font-size="14.00" fill="#000000">stars </text>
<text text-anchor="start" x="482.2244" y="-810.9" font-family="Arial" font-size="14.00" fill="#666666">[bigint]</text>
<polygon fill="none" stroke="#000000" points="441,-769.5 441,-799.5 819,-799.5 819,-769.5 441,-769.5"/>
<text text-anchor="start" x="448" y="-780.9" font-family="Arial" font-size="14.00" fill="#000000">watchers </text>
<text text-anchor="start" x="507.8962" y="-780.9" font-family="Arial" font-size="14.00" fill="#666666">[bigint]</text>
<polygon fill="none" stroke="#000000" points="441,-739.5 441,-769.5 819,-769.5 819,-739.5 441,-739.5"/>
<text text-anchor="start" x="448" y="-750.9" font-family="Arial" font-size="14.00" fill="#000000">subscribers </text>
<text text-anchor="start" x="523.4488" y="-750.9" font-family="Arial" font-size="14.00" fill="#666666">[bigint]</text>
<polygon fill="none" stroke="#000000" points="441,-709.5 441,-739.5 819,-739.5 819,-709.5 441,-709.5"/>
<text text-anchor="start" x="448" y="-720.9" font-family="Arial" font-size="14.00" fill="#000000">is_fork </text>
<text text-anchor="start" x="493.1136" y="-720.9" font-family="Arial" font-size="14.00" fill="#666666">[boolean]</text>
<polygon fill="none" stroke="#000000" points="441,-679.5 441,-709.5 819,-709.5 819,-679.5 441,-679.5"/>
<text text-anchor="start" x="448" y="-690.9" font-family="Arial" font-size="14.00" fill="#000000">created_at </text>
<text text-anchor="start" x="518.028" y="-690.9" font-family="Arial" font-size="14.00" fill="#666666">[timestamp without time zone]</text>
<polygon fill="none" stroke="#000000" points="441,-649.5 441,-679.5 819,-679.5 819,-649.5 441,-649.5"/>
<text text-anchor="start" x="448" y="-660.9" font-family="Arial" font-size="14.00" fill="#000000">updated_at </text>
<text text-anchor="start" x="521.9326" y="-660.9" font-family="Arial" font-size="14.00" fill="#666666">[timestamp without time zone]</text>
<polygon fill="none" stroke="#000000" points="441,-619.5 441,-649.5 819,-649.5 819,-619.5 441,-619.5"/>
<text text-anchor="start" x="448" y="-630.9" font-family="Arial" font-size="14.00" fill="#000000">pushed_at </text>
<text text-anchor="start" x="517.2594" y="-630.9" font-family="Arial" font-size="14.00" fill="#666666">[timestamp without time zone]</text>
<polygon fill="none" stroke="#000000" points="441,-589.5 441,-619.5 819,-619.5 819,-589.5 441,-589.5"/>
<text text-anchor="start" x="447.5674" y="-600.9" font-family="Arial" font-size="14.00" fill="#000000">last_fetched_contributors_at </text>
<text text-anchor="start" x="627.2924" y="-600.9" font-family="Arial" font-size="14.00" fill="#666666">[timestamp without time zone]</text>
<polygon fill="none" stroke="#000000" points="441,-559.5 441,-589.5 819,-589.5 819,-559.5 441,-559.5"/>
<text text-anchor="start" x="448" y="-570.9" font-family="Arial" font-size="14.00" fill="#000000">name </text>
<text text-anchor="start" x="486.899" y="-570.9" font-family="Arial" font-size="14.00" fill="#666666">[varchar(255)]</text>
<polygon fill="none" stroke="#000000" points="441,-529.5 441,-559.5 819,-559.5 819,-529.5 441,-529.5"/>
<text text-anchor="start" x="448" y="-540.9" font-family="Arial" font-size="14.00" fill="#000000">full_name </text>
<text text-anchor="start" x="512.568" y="-540.9" font-family="Arial" font-size="14.00" fill="#666666">[varchar(255)]</text>
<polygon fill="none" stroke="#000000" points="441,-499.5 441,-529.5 819,-529.5 819,-499.5 441,-499.5"/>
<text text-anchor="start" x="448" y="-510.9" font-family="Arial" font-size="14.00" fill="#000000">description </text>
<text text-anchor="start" x="519.568" y="-510.9" font-family="Arial" font-size="14.00" fill="#666666">[text]</text>
<polygon fill="none" stroke="#000000" points="441,-469.5 441,-499.5 819,-499.5 819,-469.5 441,-469.5"/>
<text text-anchor="start" x="448" y="-480.9" font-family="Arial" font-size="14.00" fill="#000000">language </text>
<text text-anchor="start" x="509.4754" y="-480.9" font-family="Arial" font-size="14.00" fill="#666666">[varchar(64)]</text>
<polygon fill="none" stroke="#000000" points="441,-439.5 441,-469.5 819,-469.5 819,-439.5 441,-439.5"/>
<text text-anchor="start" x="448" y="-450.9" font-family="Arial" font-size="14.00" fill="#000000">license </text>
<text text-anchor="start" x="495.4516" y="-450.9" font-family="Arial" font-size="14.00" fill="#666666">[varchar(64)]</text>
<polygon fill="none" stroke="#000000" points="441,-409.5 441,-439.5 819,-439.5 819,-409.5 441,-409.5"/>
<text text-anchor="start" x="448" y="-420.9" font-family="Arial" font-size="14.00" fill="#000000">url </text>
<text text-anchor="start" x="467.4404" y="-420.9" font-family="Arial" font-size="14.00" fill="#666666">[varchar(255)]</text>
</g>
<!-- public.users_to_repos_votes&#45;&gt;public.repos -->
<g id="edge4" class="edge">
<title>public.users_to_repos_votes:repo_id&#45;&gt;public.repos:id</title>
<path fill="none" stroke="#000000" d="M587.2281,-1122.9022C614.0738,-1113.3046 599.1381,-1062.7607 577,-1034 538.8614,-984.4523 479.1386,-1047.5477 441,-998 415.6527,-965.0701 399.4444,-904.5 441,-904.5"/>
<polygon fill="#000000" stroke="#000000" points="586.8802,-1122.9565 576.3054,-1120.0539 581.9401,-1123.7282 577,-1124.5 577,-1124.5 577,-1124.5 581.9401,-1123.7282 577.6946,-1128.9461 586.8802,-1122.9565 586.8802,-1122.9565"/>
<text text-anchor="start" x="583.7755" y="-1134.5" font-family="Arial" font-size="10.00" fill="#000000">FOREIGN KEY (repo_id) REFERENCES repos(id)</text>
</g>
<!-- public.users_to_repos_stars -->
<g id="node3" class="node">
<title>public.users_to_repos_stars</title>
<polygon fill="#efefef" stroke="transparent" points="703,-1199.5 703,-1234.5 1039,-1234.5 1039,-1199.5 703,-1199.5"/>
<polygon fill="none" stroke="#000000" points="703,-1199.5 703,-1234.5 1039,-1234.5 1039,-1199.5 703,-1199.5"/>
<text text-anchor="start" x="709.847" y="-1212.3" font-family="Arial Bold" font-size="18.00" fill="#000000">public.users_to_repos_stars</text>
<text text-anchor="start" x="934.8992" y="-1212.3" font-family="Arial" font-size="14.00" fill="#000000"> </text>
<text text-anchor="start" x="938.7898" y="-1212.3" font-family="Arial" font-size="14.00" fill="#666666">[BASE TABLE]</text>
<polygon fill="none" stroke="#000000" points="703,-1169.5 703,-1199.5 1039,-1199.5 1039,-1169.5 703,-1169.5"/>
<text text-anchor="start" x="710" y="-1180.9" font-family="Arial" font-size="14.00" fill="#000000">id </text>
<text text-anchor="start" x="724.7798" y="-1180.9" font-family="Arial" font-size="14.00" fill="#666666">[bigint]</text>
<polygon fill="none" stroke="#000000" points="703,-1139.5 703,-1169.5 1039,-1169.5 1039,-1139.5 703,-1139.5"/>
<text text-anchor="start" x="710" y="-1150.9" font-family="Arial" font-size="14.00" fill="#000000">user_id </text>
<text text-anchor="start" x="759.7882" y="-1150.9" font-family="Arial" font-size="14.00" fill="#666666">[bigint]</text>
<polygon fill="none" stroke="#000000" points="703,-1109.5 703,-1139.5 1039,-1139.5 1039,-1109.5 703,-1109.5"/>
<text text-anchor="start" x="710" y="-1120.9" font-family="Arial" font-size="14.00" fill="#000000">repo_id </text>
<text text-anchor="start" x="760.5708" y="-1120.9" font-family="Arial" font-size="14.00" fill="#666666">[bigint]</text>
<polygon fill="none" stroke="#000000" points="703,-1079.5 703,-1109.5 1039,-1109.5 1039,-1079.5 703,-1079.5"/>
<text text-anchor="start" x="710" y="-1090.9" font-family="Arial" font-size="14.00" fill="#000000">created_at </text>
<text text-anchor="start" x="780.028" y="-1090.9" font-family="Arial" font-size="14.00" fill="#666666">[timestamp with time zone]</text>
</g>
<!-- public.users_to_repos_stars&#45;&gt;public.users -->
<g id="edge2" class="edge">
<title>public.users_to_repos_stars:user_id&#45;&gt;public.users:id</title>
<path fill="none" stroke="#000000" d="M1049.2185,-1153.7502C1242.9497,-1124.3055 963.8502,-237.5 754,-237.5"/>
<polygon fill="#000000" stroke="#000000" points="1048.9732,-1153.7681 1038.6706,-1150.0121 1043.9866,-1154.134 1039,-1154.5 1039,-1154.5 1039,-1154.5 1043.9866,-1154.134 1039.3294,-1158.9879 1048.9732,-1153.7681 1048.9732,-1153.7681"/>
<text text-anchor="start" x="1046.3345" y="-1164.5" font-family="Arial" font-size="10.00" fill="#000000">FOREIGN KEY (user_id) REFERENCES users(id)</text>
</g>
<!-- public.users_to_repos_stars&#45;&gt;public.repos -->
<g id="edge5" class="edge">
<title>public.users_to_repos_stars:repo_id&#45;&gt;public.repos:id</title>
<path fill="none" stroke="#000000" d="M692.8046,-1122.8536C667.467,-1113.3919 682.6073,-1065.3706 703,-1037 734.7462,-992.8344 787.2538,-1042.1656 819,-998 843.2544,-964.257 860.5556,-904.5 819,-904.5"/>
<polygon fill="#000000" stroke="#000000" points="693.1279,-1122.9057 702.2826,-1128.9424 698.0639,-1123.7029 703,-1124.5 703,-1124.5 703,-1124.5 698.0639,-1123.7029 703.7174,-1120.0576 693.1279,-1122.9057 693.1279,-1122.9057"/>
<text text-anchor="start" x="531.2755" y="-1108.5" font-family="Arial" font-size="10.00" fill="#000000">FOREIGN KEY (repo_id) REFERENCES repos(id)</text>
</g>
<!-- public.repos&#45;&gt;public.users -->
<g id="edge3" class="edge">
<title>public.repos:user_id&#45;&gt;public.users:id</title>
<path fill="none" stroke="#000000" stroke-dasharray="5,2" d="M431.8516,-869.8852C386.8857,-821.413 405.6729,-406.6232 441,-367 534.1865,-262.4812 660.8135,-435.5188 754,-331 781.6545,-299.9824 795.5556,-237.5 754,-237.5"/>
<polygon fill="#000000" stroke="#000000" points="432.0716,-869.9961 438.9733,-878.5178 436.5358,-872.2481 441,-874.5 441,-874.5 441,-874.5 436.5358,-872.2481 443.0267,-870.4822 432.0716,-869.9961 432.0716,-869.9961"/>
<text text-anchor="start" x="355.268" y="-884.5" font-family="Arial" font-size="10.00" fill="#000000">Detected Relation</text>
</g>
</g>
</svg>
