<?xml version="1.0" encoding="UTF-8" standalone="no"?>
<!DOCTYPE svg PUBLIC "-//W3C//DTD SVG 1.1//EN"
 "http://www.w3.org/Graphics/SVG/1.1/DTD/svg11.dtd">
<!-- Generated by graphviz version 2.40.1 (20161225.0304)
 -->
<!-- Title: public.users Pages: 1 -->
<svg width="702pt" height="772pt"
 viewBox="0.00 0.00 702.00 772.00" xmlns="http://www.w3.org/2000/svg" xmlns:xlink="http://www.w3.org/1999/xlink">
<g id="graph0" class="graph" transform="scale(1 1) rotate(0) translate(4 768)">
<title>public.users</title>
<polygon fill="#ffffff" stroke="transparent" points="-4,4 -4,-768 698,-768 698,4 -4,4"/>
<!-- public.users -->
<g id="node1" class="node">
<title>public.users</title>
<polygon fill="#efefef" stroke="transparent" points="46.5,-225.5 46.5,-260.5 295.5,-260.5 295.5,-225.5 46.5,-225.5"/>
<polygon fill="none" stroke="#000000" points="46.5,-225.5 46.5,-260.5 295.5,-260.5 295.5,-225.5 46.5,-225.5"/>
<text text-anchor="start" x="74.3662" y="-238.3" font-family="Arial Bold" font-size="18.00" fill="#000000">public.users</text>
<text text-anchor="start" x="170.38" y="-238.3" font-family="Arial" font-size="14.00" fill="#000000"> </text>
<text text-anchor="start" x="174.2706" y="-238.3" font-family="Arial" font-size="14.00" fill="#666666">[BASE TABLE]</text>
<polygon fill="none" stroke="#000000" points="46.5,-195.5 46.5,-225.5 295.5,-225.5 295.5,-195.5 46.5,-195.5"/>
<text text-anchor="start" x="53.5" y="-206.9" font-family="Arial" font-size="14.00" fill="#000000">id </text>
<text text-anchor="start" x="68.2798" y="-206.9" font-family="Arial" font-size="14.00" fill="#666666">[bigint]</text>
<polygon fill="none" stroke="#000000" points="46.5,-165.5 46.5,-195.5 295.5,-195.5 295.5,-165.5 46.5,-165.5"/>
<text text-anchor="start" x="53.5" y="-176.9" font-family="Arial" font-size="14.00" fill="#000000">open_issues </text>
<text text-anchor="start" x="135.9754" y="-176.9" font-family="Arial" font-size="14.00" fill="#666666">[bigint]</text>
<polygon fill="none" stroke="#000000" points="46.5,-135.5 46.5,-165.5 295.5,-165.5 295.5,-135.5 46.5,-135.5"/>
<text text-anchor="start" x="53.5" y="-146.9" font-family="Arial" font-size="14.00" fill="#000000">private </text>
<text text-anchor="start" x="99.3962" y="-146.9" font-family="Arial" font-size="14.00" fill="#666666">[boolean]</text>
<polygon fill="none" stroke="#000000" points="46.5,-105.5 46.5,-135.5 295.5,-135.5 295.5,-105.5 46.5,-105.5"/>
<text text-anchor="start" x="53.5" y="-116.9" font-family="Arial" font-size="14.00" fill="#000000">stars_data </text>
<text text-anchor="start" x="122.7454" y="-116.9" font-family="Arial" font-size="14.00" fill="#666666">[boolean]</text>
<polygon fill="none" stroke="#000000" points="46.5,-75.5 46.5,-105.5 295.5,-105.5 295.5,-75.5 46.5,-75.5"/>
<text text-anchor="start" x="53.5" y="-86.9" font-family="Arial" font-size="14.00" fill="#000000">login </text>
<text text-anchor="start" x="86.9516" y="-86.9" font-family="Arial" font-size="14.00" fill="#666666">[text]</text>
<polygon fill="none" stroke="#000000" points="46.5,-45.5 46.5,-75.5 295.5,-75.5 295.5,-45.5 46.5,-45.5"/>
<text text-anchor="start" x="53.1438" y="-56.9" font-family="Arial" font-size="14.00" fill="#000000">created_at </text>
<text text-anchor="start" x="123.1718" y="-56.9" font-family="Arial" font-size="14.00" fill="#666666">[timestamp with time zone]</text>
<polygon fill="none" stroke="#000000" stroke-width="3" points="44.5,-44.5 44.5,-262.5 296.5,-262.5 296.5,-44.5 44.5,-44.5"/>
</g>
<!-- public.user_stars -->
<g id="node2" class="node">
<title>public.user_stars</title>
<polygon fill="#efefef" stroke="transparent" points="214.5,-685.5 214.5,-720.5 483.5,-720.5 483.5,-685.5 214.5,-685.5"/>
<polygon fill="none" stroke="#000000" points="214.5,-685.5 214.5,-720.5 483.5,-720.5 483.5,-685.5 214.5,-685.5"/>
<text text-anchor="start" x="232.3628" y="-698.3" font-family="Arial Bold" font-size="18.00" fill="#000000">public.user_stars</text>
<text text-anchor="start" x="368.3834" y="-698.3" font-family="Arial" font-size="14.00" fill="#000000"> </text>
<text text-anchor="start" x="372.274" y="-698.3" font-family="Arial" font-size="14.00" fill="#666666">[BASE TABLE]</text>
<polygon fill="none" stroke="#000000" points="214.5,-655.5 214.5,-685.5 483.5,-685.5 483.5,-655.5 214.5,-655.5"/>
<text text-anchor="start" x="221.5" y="-666.9" font-family="Arial" font-size="14.00" fill="#000000">id </text>
<text text-anchor="start" x="236.2798" y="-666.9" font-family="Arial" font-size="14.00" fill="#666666">[bigint]</text>
<polygon fill="none" stroke="#000000" points="214.5,-625.5 214.5,-655.5 483.5,-655.5 483.5,-625.5 214.5,-625.5"/>
<text text-anchor="start" x="221.5" y="-636.9" font-family="Arial" font-size="14.00" fill="#000000">user_id </text>
<text text-anchor="start" x="271.2882" y="-636.9" font-family="Arial" font-size="14.00" fill="#666666">[bigint]</text>
<polygon fill="none" stroke="#000000" points="214.5,-595.5 214.5,-625.5 483.5,-625.5 483.5,-595.5 214.5,-595.5"/>
<text text-anchor="start" x="221.5" y="-606.9" font-family="Arial" font-size="14.00" fill="#000000">star_id </text>
<text text-anchor="start" x="267.3962" y="-606.9" font-family="Arial" font-size="14.00" fill="#666666">[bigint]</text>
<polygon fill="none" stroke="#000000" points="214.5,-565.5 214.5,-595.5 483.5,-595.5 483.5,-565.5 214.5,-565.5"/>
<text text-anchor="start" x="221.5" y="-576.9" font-family="Arial" font-size="14.00" fill="#000000">recency_score </text>
<text text-anchor="start" x="316.4074" y="-576.9" font-family="Arial" font-size="14.00" fill="#666666">[numeric]</text>
<polygon fill="none" stroke="#000000" points="214.5,-535.5 214.5,-565.5 483.5,-565.5 483.5,-535.5 214.5,-535.5"/>
<text text-anchor="start" x="221.5" y="-546.9" font-family="Arial" font-size="14.00" fill="#000000">issues </text>
<text text-anchor="start" x="265.0624" y="-546.9" font-family="Arial" font-size="14.00" fill="#666666">[bigint]</text>
<polygon fill="none" stroke="#000000" points="214.5,-505.5 214.5,-535.5 483.5,-535.5 483.5,-505.5 214.5,-505.5"/>
<text text-anchor="start" x="221.5" y="-516.9" font-family="Arial" font-size="14.00" fill="#000000">stars </text>
<text text-anchor="start" x="255.7244" y="-516.9" font-family="Arial" font-size="14.00" fill="#666666">[bigint]</text>
<polygon fill="none" stroke="#000000" points="214.5,-475.5 214.5,-505.5 483.5,-505.5 483.5,-475.5 214.5,-475.5"/>
<text text-anchor="start" x="221.5" y="-486.9" font-family="Arial" font-size="14.00" fill="#000000">repo_name </text>
<text text-anchor="start" x="296.19" y="-486.9" font-family="Arial" font-size="14.00" fill="#666666">[text]</text>
<polygon fill="none" stroke="#000000" points="214.5,-445.5 214.5,-475.5 483.5,-475.5 483.5,-445.5 214.5,-445.5"/>
<text text-anchor="start" x="221.5" y="-456.9" font-family="Arial" font-size="14.00" fill="#000000">description </text>
<text text-anchor="start" x="293.068" y="-456.9" font-family="Arial" font-size="14.00" fill="#666666">[text]</text>
<polygon fill="none" stroke="#000000" points="214.5,-415.5 214.5,-445.5 483.5,-445.5 483.5,-415.5 214.5,-415.5"/>
<text text-anchor="start" x="221.5" y="-426.9" font-family="Arial" font-size="14.00" fill="#000000">contributors </text>
<text text-anchor="start" x="298.5126" y="-426.9" font-family="Arial" font-size="14.00" fill="#666666">[text[]]</text>
<polygon fill="none" stroke="#000000" points="214.5,-385.5 214.5,-415.5 483.5,-415.5 483.5,-385.5 214.5,-385.5"/>
<text text-anchor="start" x="221.4159" y="-396.9" font-family="Arial" font-size="14.00" fill="#000000">created_at </text>
<text text-anchor="start" x="291.4439" y="-396.9" font-family="Arial" font-size="14.00" fill="#666666">[timestamp without time zone]</text>
</g>
<!-- public.user_stars&#45;&gt;public.users -->
<g id="edge1" class="edge">
<title>public.user_stars:user_id&#45;&gt;public.users:id</title>
<path fill="none" stroke="#000000" stroke-dasharray="5,2" d="M204.439,-640.1156C85.4592,-630.7107 144.3501,-450.944 214.5,-343 235.9671,-309.9672 274.0329,-340.0328 295.5,-307 318.8707,-271.038 338.3889,-210.5 295.5,-210.5"/>
<polygon fill="#000000" stroke="#000000" points="204.5073,-640.1181 214.3281,-644.9967 209.5036,-640.309 214.5,-640.5 214.5,-640.5 214.5,-640.5 209.5036,-640.309 214.6719,-636.0033 204.5073,-640.1181 204.5073,-640.1181"/>
<text text-anchor="start" x="128.768" y="-650.5" font-family="Arial" font-size="10.00" fill="#000000">Detected Relation</text>
</g>
<!-- public.stars -->
<g id="node3" class="node">
<title>public.stars</title>
<polygon fill="#efefef" stroke="transparent" points="402.5,-225.5 402.5,-260.5 651.5,-260.5 651.5,-225.5 402.5,-225.5"/>
<polygon fill="none" stroke="#000000" points="402.5,-225.5 402.5,-260.5 651.5,-260.5 651.5,-225.5 402.5,-225.5"/>
<text text-anchor="start" x="432.8682" y="-238.3" font-family="Arial Bold" font-size="18.00" fill="#000000">public.stars</text>
<text text-anchor="start" x="523.878" y="-238.3" font-family="Arial" font-size="14.00" fill="#000000"> </text>
<text text-anchor="start" x="527.7686" y="-238.3" font-family="Arial" font-size="14.00" fill="#666666">[BASE TABLE]</text>
<polygon fill="none" stroke="#000000" points="402.5,-195.5 402.5,-225.5 651.5,-225.5 651.5,-195.5 402.5,-195.5"/>
<text text-anchor="start" x="409.5" y="-206.9" font-family="Arial" font-size="14.00" fill="#000000">id </text>
<text text-anchor="start" x="424.2798" y="-206.9" font-family="Arial" font-size="14.00" fill="#666666">[bigint]</text>
<polygon fill="none" stroke="#000000" points="402.5,-165.5 402.5,-195.5 651.5,-195.5 651.5,-165.5 402.5,-165.5"/>
<text text-anchor="start" x="409.5" y="-176.9" font-family="Arial" font-size="14.00" fill="#000000">stargazers_count </text>
<text text-anchor="start" x="520.7538" y="-176.9" font-family="Arial" font-size="14.00" fill="#666666">[bigint]</text>
<polygon fill="none" stroke="#000000" points="402.5,-135.5 402.5,-165.5 651.5,-165.5 651.5,-135.5 402.5,-135.5"/>
<text text-anchor="start" x="409.5" y="-146.9" font-family="Arial" font-size="14.00" fill="#000000">open_issues_count </text>
<text text-anchor="start" x="533.9964" y="-146.9" font-family="Arial" font-size="14.00" fill="#666666">[bigint]</text>
<polygon fill="none" stroke="#000000" points="402.5,-105.5 402.5,-135.5 651.5,-135.5 651.5,-105.5 402.5,-105.5"/>
<text text-anchor="start" x="409.5" y="-116.9" font-family="Arial" font-size="14.00" fill="#000000">forks_count </text>
<text text-anchor="start" x="485.7454" y="-116.9" font-family="Arial" font-size="14.00" fill="#666666">[bigint]</text>
<polygon fill="none" stroke="#000000" points="402.5,-75.5 402.5,-105.5 651.5,-105.5 651.5,-75.5 402.5,-75.5"/>
<text text-anchor="start" x="409.5" y="-86.9" font-family="Arial" font-size="14.00" fill="#000000">full_name </text>
<text text-anchor="start" x="474.068" y="-86.9" font-family="Arial" font-size="14.00" fill="#666666">[text]</text>
<polygon fill="none" stroke="#000000" points="402.5,-45.5 402.5,-75.5 651.5,-75.5 651.5,-45.5 402.5,-45.5"/>
<text text-anchor="start" x="409.1438" y="-56.9" font-family="Arial" font-size="14.00" fill="#000000">created_at </text>
<text text-anchor="start" x="479.1718" y="-56.9" font-family="Arial" font-size="14.00" fill="#666666">[timestamp with time zone]</text>
</g>
<!-- public.user_stars&#45;&gt;public.stars -->
<g id="edge2" class="edge">
<title>public.user_stars:star_id&#45;&gt;public.stars:id</title>
<path fill="none" stroke="#000000" stroke-dasharray="5,2" d="M493.504,-610.0763C599.1226,-600.7812 544.9033,-440.7146 483.5,-343 462.2411,-309.1695 423.7589,-337.8305 402.5,-304 380.3898,-268.8147 360.9444,-210.5 402.5,-210.5"/>
<polygon fill="#000000" stroke="#000000" points="493.491,-610.0767 483.3095,-606.004 488.4955,-610.2884 483.5,-610.5 483.5,-610.5 483.5,-610.5 488.4955,-610.2884 483.6905,-614.996 493.491,-610.0767 493.491,-610.0767"/>
<text text-anchor="start" x="490.768" y="-620.5" font-family="Arial" font-size="10.00" fill="#000000">Detected Relation</text>
</g>
</g>
</svg>
