<?xml version="1.0" encoding="UTF-8" standalone="no"?>
<!DOCTYPE svg PUBLIC "-//W3C//DTD SVG 1.1//EN"
 "http://www.w3.org/Graphics/SVG/1.1/DTD/svg11.dtd">
<!-- Generated by graphviz version 2.40.1 (20161225.0304)
 -->
<!-- Title: public.users Pages: 1 -->
<svg width="1860pt" height="1006pt"
 viewBox="0.00 0.00 1860.00 1006.00" xmlns="http://www.w3.org/2000/svg" xmlns:xlink="http://www.w3.org/1999/xlink">
<g id="graph0" class="graph" transform="scale(1 1) rotate(0) translate(4 1002)">
<title>public.users</title>
<polygon fill="#ffffff" stroke="transparent" points="-4,4 -4,-1002 1856,-1002 1856,4 -4,4"/>
<!-- public.users -->
<g id="node1" class="node">
<title>public.users</title>
<polygon fill="#efefef" stroke="transparent" points="628,-447.5 628,-482.5 881,-482.5 881,-447.5 628,-447.5"/>
<polygon fill="none" stroke="#000000" points="628,-447.5 628,-482.5 881,-482.5 881,-447.5 628,-447.5"/>
<text text-anchor="start" x="657.8662" y="-460.3" font-family="Arial Bold" font-size="18.00" fill="#000000">public.users</text>
<text text-anchor="start" x="753.88" y="-460.3" font-family="Arial" font-size="14.00" fill="#000000"> </text>
<text text-anchor="start" x="757.7706" y="-460.3" font-family="Arial" font-size="14.00" fill="#666666">[BASE TABLE]</text>
<polygon fill="none" stroke="#000000" points="628,-417.5 628,-447.5 881,-447.5 881,-417.5 628,-417.5"/>
<text text-anchor="start" x="635" y="-428.9" font-family="Arial" font-size="14.00" fill="#000000">id </text>
<text text-anchor="start" x="649.7798" y="-428.9" font-family="Arial" font-size="14.00" fill="#666666">[bigint]</text>
<polygon fill="none" stroke="#000000" points="628,-387.5 628,-417.5 881,-417.5 881,-387.5 628,-387.5"/>
<text text-anchor="start" x="635" y="-398.9" font-family="Arial" font-size="14.00" fill="#000000">open_issues </text>
<text text-anchor="start" x="717.4754" y="-398.9" font-family="Arial" font-size="14.00" fill="#666666">[bigint]</text>
<polygon fill="none" stroke="#000000" points="628,-357.5 628,-387.5 881,-387.5 881,-357.5 628,-357.5"/>
<text text-anchor="start" x="635" y="-368.9" font-family="Arial" font-size="14.00" fill="#000000">has_stars_data </text>
<text text-anchor="start" x="734.5932" y="-368.9" font-family="Arial" font-size="14.00" fill="#666666">[boolean]</text>
<polygon fill="none" stroke="#000000" points="628,-327.5 628,-357.5 881,-357.5 881,-327.5 628,-327.5"/>
<text text-anchor="start" x="635" y="-338.9" font-family="Arial" font-size="14.00" fill="#000000">is_private </text>
<text text-anchor="start" x="698.7854" y="-338.9" font-family="Arial" font-size="14.00" fill="#666666">[boolean]</text>
<polygon fill="none" stroke="#000000" points="628,-297.5 628,-327.5 881,-327.5 881,-297.5 628,-297.5"/>
<text text-anchor="start" x="635" y="-308.9" font-family="Arial" font-size="14.00" fill="#000000">is_open_sauced_member </text>
<text text-anchor="start" x="799.9354" y="-308.9" font-family="Arial" font-size="14.00" fill="#666666">[boolean]</text>
<polygon fill="none" stroke="#000000" points="628,-267.5 628,-297.5 881,-297.5 881,-267.5 628,-267.5"/>
<text text-anchor="start" x="635" y="-278.9" font-family="Arial" font-size="14.00" fill="#000000">created_at </text>
<text text-anchor="start" x="705.028" y="-278.9" font-family="Arial" font-size="14.00" fill="#666666">[timestamp with time zone]</text>
<polygon fill="none" stroke="#000000" points="628,-237.5 628,-267.5 881,-267.5 881,-237.5 628,-237.5"/>
<text text-anchor="start" x="635" y="-248.9" font-family="Arial" font-size="14.00" fill="#000000">login </text>
<text text-anchor="start" x="668.4516" y="-248.9" font-family="Arial" font-size="14.00" fill="#666666">[varchar(255)]</text>
<polygon fill="none" stroke="#000000" points="628,-207.5 628,-237.5 881,-237.5 881,-207.5 628,-207.5"/>
<text text-anchor="start" x="635" y="-218.9" font-family="Arial" font-size="14.00" fill="#000000">deleted_at </text>
<text text-anchor="start" x="704.2566" y="-218.9" font-family="Arial" font-size="14.00" fill="#666666">[timestamp with time zone]</text>
<polygon fill="none" stroke="#000000" points="628,-177.5 628,-207.5 881,-207.5 881,-177.5 628,-177.5"/>
<text text-anchor="start" x="634.6915" y="-188.9" font-family="Arial" font-size="14.00" fill="#000000">updated_at </text>
<text text-anchor="start" x="708.6241" y="-188.9" font-family="Arial" font-size="14.00" fill="#666666">[timestamp with time zone]</text>
<polygon fill="none" stroke="#000000" stroke-width="3" points="626,-176.5 626,-484.5 882,-484.5 882,-176.5 626,-176.5"/>
</g>
<!-- public.users_to_repos_stars -->
<g id="node2" class="node">
<title>public.users_to_repos_stars</title>
<polygon fill="#efefef" stroke="transparent" points="1029,-919.5 1029,-954.5 1365,-954.5 1365,-919.5 1029,-919.5"/>
<polygon fill="none" stroke="#000000" points="1029,-919.5 1029,-954.5 1365,-954.5 1365,-919.5 1029,-919.5"/>
<text text-anchor="start" x="1035.847" y="-932.3" font-family="Arial Bold" font-size="18.00" fill="#000000">public.users_to_repos_stars</text>
<text text-anchor="start" x="1260.8992" y="-932.3" font-family="Arial" font-size="14.00" fill="#000000"> </text>
<text text-anchor="start" x="1264.7898" y="-932.3" font-family="Arial" font-size="14.00" fill="#666666">[BASE TABLE]</text>
<polygon fill="none" stroke="#000000" points="1029,-889.5 1029,-919.5 1365,-919.5 1365,-889.5 1029,-889.5"/>
<text text-anchor="start" x="1036" y="-900.9" font-family="Arial" font-size="14.00" fill="#000000">id </text>
<text text-anchor="start" x="1050.7798" y="-900.9" font-family="Arial" font-size="14.00" fill="#666666">[bigint]</text>
<polygon fill="none" stroke="#000000" points="1029,-859.5 1029,-889.5 1365,-889.5 1365,-859.5 1029,-859.5"/>
<text text-anchor="start" x="1036" y="-870.9" font-family="Arial" font-size="14.00" fill="#000000">user_id </text>
<text text-anchor="start" x="1085.7882" y="-870.9" font-family="Arial" font-size="14.00" fill="#666666">[bigint]</text>
<polygon fill="none" stroke="#000000" points="1029,-829.5 1029,-859.5 1365,-859.5 1365,-829.5 1029,-829.5"/>
<text text-anchor="start" x="1036" y="-840.9" font-family="Arial" font-size="14.00" fill="#000000">repo_id </text>
<text text-anchor="start" x="1086.5708" y="-840.9" font-family="Arial" font-size="14.00" fill="#666666">[bigint]</text>
<polygon fill="none" stroke="#000000" points="1029,-799.5 1029,-829.5 1365,-829.5 1365,-799.5 1029,-799.5"/>
<text text-anchor="start" x="1036" y="-810.9" font-family="Arial" font-size="14.00" fill="#000000">created_at </text>
<text text-anchor="start" x="1106.028" y="-810.9" font-family="Arial" font-size="14.00" fill="#666666">[timestamp with time zone]</text>
<polygon fill="none" stroke="#000000" points="1029,-769.5 1029,-799.5 1365,-799.5 1365,-769.5 1029,-769.5"/>
<text text-anchor="start" x="1036" y="-780.9" font-family="Arial" font-size="14.00" fill="#000000">updated_at </text>
<text text-anchor="start" x="1109.9326" y="-780.9" font-family="Arial" font-size="14.00" fill="#666666">[timestamp with time zone]</text>
<polygon fill="none" stroke="#000000" points="1029,-739.5 1029,-769.5 1365,-769.5 1365,-739.5 1029,-739.5"/>
<text text-anchor="start" x="1036" y="-750.9" font-family="Arial" font-size="14.00" fill="#000000">deleted_at </text>
<text text-anchor="start" x="1105.2566" y="-750.9" font-family="Arial" font-size="14.00" fill="#666666">[timestamp with time zone]</text>
</g>
<!-- public.users_to_repos_stars&#45;&gt;public.users -->
<g id="edge1" class="edge">
<title>public.users_to_repos_stars:user_id&#45;&gt;public.users:id</title>
<path fill="none" stroke="#000000" d="M1018.8163,-873.8752C952.8173,-865.1081 1014.499,-765.9777 977,-697 966.9152,-678.4494 956.012,-679.59 946,-661 895.9345,-568.0401 986.5846,-432.5 881,-432.5"/>
<polygon fill="#000000" stroke="#000000" points="1019.0188,-873.8875 1028.7244,-878.9916 1024.0094,-874.1938 1029,-874.5 1029,-874.5 1029,-874.5 1024.0094,-874.1938 1029.2756,-870.0084 1019.0188,-873.8875 1019.0188,-873.8875"/>
<text text-anchor="start" x="977.0845" y="-858.5" font-family="Arial" font-size="10.00" fill="#000000">FOREIGN KEY (user_id) REFERENCES users(id)</text>
</g>
<!-- public.repos -->
<g id="node3" class="node">
<title>public.repos</title>
<polygon fill="#efefef" stroke="transparent" points="998,-582.5 998,-617.5 1376,-617.5 1376,-582.5 998,-582.5"/>
<polygon fill="none" stroke="#000000" points="998,-582.5 998,-617.5 1376,-617.5 1376,-582.5 998,-582.5"/>
<text text-anchor="start" x="1089.8631" y="-595.3" font-family="Arial Bold" font-size="18.00" fill="#000000">public.repos</text>
<text text-anchor="start" x="1186.8831" y="-595.3" font-family="Arial" font-size="14.00" fill="#000000"> </text>
<text text-anchor="start" x="1190.7737" y="-595.3" font-family="Arial" font-size="14.00" fill="#666666">[BASE TABLE]</text>
<polygon fill="none" stroke="#000000" points="998,-552.5 998,-582.5 1376,-582.5 1376,-552.5 998,-552.5"/>
<text text-anchor="start" x="1005" y="-563.9" font-family="Arial" font-size="14.00" fill="#000000">id </text>
<text text-anchor="start" x="1019.7798" y="-563.9" font-family="Arial" font-size="14.00" fill="#666666">[bigint]</text>
<polygon fill="none" stroke="#000000" points="998,-522.5 998,-552.5 1376,-552.5 1376,-522.5 998,-522.5"/>
<text text-anchor="start" x="1005" y="-533.9" font-family="Arial" font-size="14.00" fill="#000000">user_id </text>
<text text-anchor="start" x="1054.7882" y="-533.9" font-family="Arial" font-size="14.00" fill="#666666">[bigint]</text>
<polygon fill="none" stroke="#000000" points="998,-492.5 998,-522.5 1376,-522.5 1376,-492.5 998,-492.5"/>
<text text-anchor="start" x="1005" y="-503.9" font-family="Arial" font-size="14.00" fill="#000000">issues </text>
<text text-anchor="start" x="1048.5624" y="-503.9" font-family="Arial" font-size="14.00" fill="#666666">[bigint]</text>
<polygon fill="none" stroke="#000000" points="998,-462.5 998,-492.5 1376,-492.5 1376,-462.5 998,-462.5"/>
<text text-anchor="start" x="1005" y="-473.9" font-family="Arial" font-size="14.00" fill="#000000">stars </text>
<text text-anchor="start" x="1039.2244" y="-473.9" font-family="Arial" font-size="14.00" fill="#666666">[bigint]</text>
<polygon fill="none" stroke="#000000" points="998,-432.5 998,-462.5 1376,-462.5 1376,-432.5 998,-432.5"/>
<text text-anchor="start" x="1005" y="-443.9" font-family="Arial" font-size="14.00" fill="#000000">watchers </text>
<text text-anchor="start" x="1064.8962" y="-443.9" font-family="Arial" font-size="14.00" fill="#666666">[bigint]</text>
<polygon fill="none" stroke="#000000" points="998,-402.5 998,-432.5 1376,-432.5 1376,-402.5 998,-402.5"/>
<text text-anchor="start" x="1005" y="-413.9" font-family="Arial" font-size="14.00" fill="#000000">subscribers </text>
<text text-anchor="start" x="1080.4488" y="-413.9" font-family="Arial" font-size="14.00" fill="#666666">[bigint]</text>
<polygon fill="none" stroke="#000000" points="998,-372.5 998,-402.5 1376,-402.5 1376,-372.5 998,-372.5"/>
<text text-anchor="start" x="1005" y="-383.9" font-family="Arial" font-size="14.00" fill="#000000">is_fork </text>
<text text-anchor="start" x="1050.1136" y="-383.9" font-family="Arial" font-size="14.00" fill="#666666">[boolean]</text>
<polygon fill="none" stroke="#000000" points="998,-342.5 998,-372.5 1376,-372.5 1376,-342.5 998,-342.5"/>
<text text-anchor="start" x="1005" y="-353.9" font-family="Arial" font-size="14.00" fill="#000000">created_at </text>
<text text-anchor="start" x="1075.028" y="-353.9" font-family="Arial" font-size="14.00" fill="#666666">[timestamp without time zone]</text>
<polygon fill="none" stroke="#000000" points="998,-312.5 998,-342.5 1376,-342.5 1376,-312.5 998,-312.5"/>
<text text-anchor="start" x="1005" y="-323.9" font-family="Arial" font-size="14.00" fill="#000000">updated_at </text>
<text text-anchor="start" x="1078.9326" y="-323.9" font-family="Arial" font-size="14.00" fill="#666666">[timestamp without time zone]</text>
<polygon fill="none" stroke="#000000" points="998,-282.5 998,-312.5 1376,-312.5 1376,-282.5 998,-282.5"/>
<text text-anchor="start" x="1005" y="-293.9" font-family="Arial" font-size="14.00" fill="#000000">pushed_at </text>
<text text-anchor="start" x="1074.2594" y="-293.9" font-family="Arial" font-size="14.00" fill="#666666">[timestamp without time zone]</text>
<polygon fill="none" stroke="#000000" points="998,-252.5 998,-282.5 1376,-282.5 1376,-252.5 998,-252.5"/>
<text text-anchor="start" x="1004.5674" y="-263.9" font-family="Arial" font-size="14.00" fill="#000000">last_fetched_contributors_at </text>
<text text-anchor="start" x="1184.2924" y="-263.9" font-family="Arial" font-size="14.00" fill="#666666">[timestamp without time zone]</text>
<polygon fill="none" stroke="#000000" points="998,-222.5 998,-252.5 1376,-252.5 1376,-222.5 998,-222.5"/>
<text text-anchor="start" x="1005" y="-233.9" font-family="Arial" font-size="14.00" fill="#000000">name </text>
<text text-anchor="start" x="1043.899" y="-233.9" font-family="Arial" font-size="14.00" fill="#666666">[varchar(255)]</text>
<polygon fill="none" stroke="#000000" points="998,-192.5 998,-222.5 1376,-222.5 1376,-192.5 998,-192.5"/>
<text text-anchor="start" x="1005" y="-203.9" font-family="Arial" font-size="14.00" fill="#000000">full_name </text>
<text text-anchor="start" x="1069.568" y="-203.9" font-family="Arial" font-size="14.00" fill="#666666">[varchar(255)]</text>
<polygon fill="none" stroke="#000000" points="998,-162.5 998,-192.5 1376,-192.5 1376,-162.5 998,-162.5"/>
<text text-anchor="start" x="1005" y="-173.9" font-family="Arial" font-size="14.00" fill="#000000">description </text>
<text text-anchor="start" x="1076.568" y="-173.9" font-family="Arial" font-size="14.00" fill="#666666">[text]</text>
<polygon fill="none" stroke="#000000" points="998,-132.5 998,-162.5 1376,-162.5 1376,-132.5 998,-132.5"/>
<text text-anchor="start" x="1005" y="-143.9" font-family="Arial" font-size="14.00" fill="#000000">language </text>
<text text-anchor="start" x="1066.4754" y="-143.9" font-family="Arial" font-size="14.00" fill="#666666">[varchar(64)]</text>
<polygon fill="none" stroke="#000000" points="998,-102.5 998,-132.5 1376,-132.5 1376,-102.5 998,-102.5"/>
<text text-anchor="start" x="1005" y="-113.9" font-family="Arial" font-size="14.00" fill="#000000">license </text>
<text text-anchor="start" x="1052.4516" y="-113.9" font-family="Arial" font-size="14.00" fill="#666666">[varchar(64)]</text>
<polygon fill="none" stroke="#000000" points="998,-72.5 998,-102.5 1376,-102.5 1376,-72.5 998,-72.5"/>
<text text-anchor="start" x="1005" y="-83.9" font-family="Arial" font-size="14.00" fill="#000000">url </text>
<text text-anchor="start" x="1024.4404" y="-83.9" font-family="Arial" font-size="14.00" fill="#666666">[varchar(255)]</text>
<polygon fill="none" stroke="#000000" points="998,-42.5 998,-72.5 1376,-72.5 1376,-42.5 998,-42.5"/>
<text text-anchor="start" x="1005" y="-53.9" font-family="Arial" font-size="14.00" fill="#000000">deleted_at </text>
<text text-anchor="start" x="1074.2566" y="-53.9" font-family="Arial" font-size="14.00" fill="#666666">[timestamp with time zone]</text>
</g>
<!-- public.users_to_repos_stars&#45;&gt;public.repos -->
<g id="edge2" class="edge">
<title>public.users_to_repos_stars:repo_id&#45;&gt;public.repos:id</title>
<path fill="none" stroke="#000000" d="M1019.0167,-843.6378C965.8798,-833.8423 987.5027,-743.0252 1029,-697 1080.913,-639.4226 1324.087,-718.5774 1376,-661 1403.8268,-630.1369 1417.5556,-567.5 1376,-567.5"/>
<polygon fill="#000000" stroke="#000000" points="1019.0371,-843.6395 1028.6128,-848.9833 1024.0185,-844.0697 1029,-844.5 1029,-844.5 1029,-844.5 1024.0185,-844.0697 1029.3872,-840.0167 1019.0371,-843.6395 1019.0371,-843.6395"/>
<text text-anchor="start" x="976.2755" y="-828.5" font-family="Arial" font-size="10.00" fill="#000000">FOREIGN KEY (repo_id) REFERENCES repos(id)</text>
</g>
<!-- public.users_to_repos_votes -->
<g id="node4" class="node">
<title>public.users_to_repos_votes</title>
<polygon fill="#efefef" stroke="transparent" points="1469,-919.5 1469,-954.5 1809,-954.5 1809,-919.5 1469,-919.5"/>
<polygon fill="none" stroke="#000000" points="1469,-919.5 1469,-954.5 1809,-954.5 1809,-919.5 1469,-919.5"/>
<text text-anchor="start" x="1475.84" y="-932.3" font-family="Arial Bold" font-size="18.00" fill="#000000">public.users_to_repos_votes</text>
<text text-anchor="start" x="1704.9062" y="-932.3" font-family="Arial" font-size="14.00" fill="#000000"> </text>
<text text-anchor="start" x="1708.7968" y="-932.3" font-family="Arial" font-size="14.00" fill="#666666">[BASE TABLE]</text>
<polygon fill="none" stroke="#000000" points="1469,-889.5 1469,-919.5 1809,-919.5 1809,-889.5 1469,-889.5"/>
<text text-anchor="start" x="1476" y="-900.9" font-family="Arial" font-size="14.00" fill="#000000">id </text>
<text text-anchor="start" x="1490.7798" y="-900.9" font-family="Arial" font-size="14.00" fill="#666666">[bigint]</text>
<polygon fill="none" stroke="#000000" points="1469,-859.5 1469,-889.5 1809,-889.5 1809,-859.5 1469,-859.5"/>
<text text-anchor="start" x="1476" y="-870.9" font-family="Arial" font-size="14.00" fill="#000000">user_id </text>
<text text-anchor="start" x="1525.7882" y="-870.9" font-family="Arial" font-size="14.00" fill="#666666">[bigint]</text>
<polygon fill="none" stroke="#000000" points="1469,-829.5 1469,-859.5 1809,-859.5 1809,-829.5 1469,-829.5"/>
<text text-anchor="start" x="1476" y="-840.9" font-family="Arial" font-size="14.00" fill="#000000">repo_id </text>
<text text-anchor="start" x="1526.5708" y="-840.9" font-family="Arial" font-size="14.00" fill="#666666">[bigint]</text>
<polygon fill="none" stroke="#000000" points="1469,-799.5 1469,-829.5 1809,-829.5 1809,-799.5 1469,-799.5"/>
<text text-anchor="start" x="1476" y="-810.9" font-family="Arial" font-size="14.00" fill="#000000">created_at </text>
<text text-anchor="start" x="1546.028" y="-810.9" font-family="Arial" font-size="14.00" fill="#666666">[timestamp with time zone]</text>
<polygon fill="none" stroke="#000000" points="1469,-769.5 1469,-799.5 1809,-799.5 1809,-769.5 1469,-769.5"/>
<text text-anchor="start" x="1476" y="-780.9" font-family="Arial" font-size="14.00" fill="#000000">updated_at </text>
<text text-anchor="start" x="1549.9326" y="-780.9" font-family="Arial" font-size="14.00" fill="#666666">[timestamp with time zone]</text>
<polygon fill="none" stroke="#000000" points="1469,-739.5 1469,-769.5 1809,-769.5 1809,-739.5 1469,-739.5"/>
<text text-anchor="start" x="1476" y="-750.9" font-family="Arial" font-size="14.00" fill="#000000">deleted_at </text>
<text text-anchor="start" x="1545.2566" y="-750.9" font-family="Arial" font-size="14.00" fill="#666666">[timestamp with time zone]</text>
</g>
<!-- public.users_to_repos_votes&#45;&gt;public.users -->
<g id="edge3" class="edge">
<title>public.users_to_repos_votes:user_id&#45;&gt;public.users:id</title>
<path fill="none" stroke="#000000" d="M1458.9585,-873.7569C1394.9284,-863.352 1477.9968,-746.4316 1417,-697 1335.4459,-630.9088 1027.2943,-727.4104 946,-661 864.2312,-594.202 986.5846,-432.5 881,-432.5"/>
<polygon fill="#000000" stroke="#000000" points="1459.0273,-873.7619 1468.6678,-878.9877 1464.0136,-874.1309 1469,-874.5 1469,-874.5 1469,-874.5 1464.0136,-874.1309 1469.3322,-870.0123 1459.0273,-873.7619 1459.0273,-873.7619"/>
<text text-anchor="start" x="1239.3345" y="-884.5" font-family="Arial" font-size="10.00" fill="#000000">FOREIGN KEY (user_id) REFERENCES users(id)</text>
</g>
<!-- public.users_to_repos_votes&#45;&gt;public.repos -->
<g id="edge4" class="edge">
<title>public.users_to_repos_votes:repo_id&#45;&gt;public.repos:id</title>
<path fill="none" stroke="#000000" d="M1459.2271,-842.1053C1407.7954,-815.0316 1437.3813,-567.5 1376,-567.5"/>
<polygon fill="#000000" stroke="#000000" points="1459.2873,-842.12 1467.929,-848.8707 1464.1437,-843.31 1469,-844.5 1469,-844.5 1469,-844.5 1464.1437,-843.31 1470.071,-840.1293 1459.2873,-842.12 1459.2873,-842.12"/>
<text text-anchor="start" x="1237.7755" y="-854.5" font-family="Arial" font-size="10.00" fill="#000000">FOREIGN KEY (repo_id) REFERENCES repos(id)</text>
</g>
<!-- public.users_to_repos_submissions -->
<g id="node5" class="node">
<title>public.users_to_repos_submissions</title>
<polygon fill="#efefef" stroke="transparent" points="43,-919.5 43,-954.5 439,-954.5 439,-919.5 43,-919.5"/>
<polygon fill="none" stroke="#000000" points="43,-919.5 43,-954.5 439,-954.5 439,-919.5 43,-919.5"/>
<text text-anchor="start" x="49.8446" y="-932.3" font-family="Arial Bold" font-size="18.00" fill="#000000">public.users_to_repos_submissions</text>
<text text-anchor="start" x="334.9016" y="-932.3" font-family="Arial" font-size="14.00" fill="#000000"> </text>
<text text-anchor="start" x="338.7922" y="-932.3" font-family="Arial" font-size="14.00" fill="#666666">[BASE TABLE]</text>
<polygon fill="none" stroke="#000000" points="43,-889.5 43,-919.5 439,-919.5 439,-889.5 43,-889.5"/>
<text text-anchor="start" x="50" y="-900.9" font-family="Arial" font-size="14.00" fill="#000000">id </text>
<text text-anchor="start" x="64.7798" y="-900.9" font-family="Arial" font-size="14.00" fill="#666666">[bigint]</text>
<polygon fill="none" stroke="#000000" points="43,-859.5 43,-889.5 439,-889.5 439,-859.5 43,-859.5"/>
<text text-anchor="start" x="50" y="-870.9" font-family="Arial" font-size="14.00" fill="#000000">user_id </text>
<text text-anchor="start" x="99.7882" y="-870.9" font-family="Arial" font-size="14.00" fill="#666666">[bigint]</text>
<polygon fill="none" stroke="#000000" points="43,-829.5 43,-859.5 439,-859.5 439,-829.5 43,-829.5"/>
<text text-anchor="start" x="50" y="-840.9" font-family="Arial" font-size="14.00" fill="#000000">repo_id </text>
<text text-anchor="start" x="100.5708" y="-840.9" font-family="Arial" font-size="14.00" fill="#666666">[bigint]</text>
<polygon fill="none" stroke="#000000" points="43,-799.5 43,-829.5 439,-829.5 439,-799.5 43,-799.5"/>
<text text-anchor="start" x="50" y="-810.9" font-family="Arial" font-size="14.00" fill="#000000">created_at </text>
<text text-anchor="start" x="120.028" y="-810.9" font-family="Arial" font-size="14.00" fill="#666666">[timestamp with time zone]</text>
<polygon fill="none" stroke="#000000" points="43,-769.5 43,-799.5 439,-799.5 439,-769.5 43,-769.5"/>
<text text-anchor="start" x="50" y="-780.9" font-family="Arial" font-size="14.00" fill="#000000">updated_at </text>
<text text-anchor="start" x="123.9326" y="-780.9" font-family="Arial" font-size="14.00" fill="#666666">[timestamp with time zone]</text>
<polygon fill="none" stroke="#000000" points="43,-739.5 43,-769.5 439,-769.5 439,-739.5 43,-739.5"/>
<text text-anchor="start" x="50" y="-750.9" font-family="Arial" font-size="14.00" fill="#000000">deleted_at </text>
<text text-anchor="start" x="119.2566" y="-750.9" font-family="Arial" font-size="14.00" fill="#666666">[timestamp with time zone]</text>
</g>
<!-- public.users_to_repos_submissions&#45;&gt;public.users -->
<g id="edge5" class="edge">
<title>public.users_to_repos_submissions:user_id&#45;&gt;public.users:id</title>
<path fill="none" stroke="#000000" d="M449.2544,-873.8992C516.1175,-865.4649 462.648,-769.9484 492,-697 541.3423,-574.3698 495.8151,-432.5 628,-432.5"/>
<polygon fill="#000000" stroke="#000000" points="448.9829,-873.9151 438.7368,-870.0077 443.9914,-874.2075 439,-874.5 439,-874.5 439,-874.5 443.9914,-874.2075 439.2632,-878.9923 448.9829,-873.9151 448.9829,-873.9151"/>
<text text-anchor="start" x="446.3345" y="-884.5" font-family="Arial" font-size="10.00" fill="#000000">FOREIGN KEY (user_id) REFERENCES users(id)</text>
</g>
<!-- public.users_to_repos_submissions&#45;&gt;public.repos -->
<g id="edge6" class="edge">
<title>public.users_to_repos_submissions:repo_id&#45;&gt;public.repos:id</title>
<path fill="none" stroke="#000000" d="M449.2017,-843.584C501.168,-833.1864 439.7129,-737.0279 492,-697 570.6022,-636.8269 850.7451,-711.3062 936,-661 978.9429,-635.6607 948.1385,-567.5 998,-567.5"/>
<polygon fill="#000000" stroke="#000000" points="448.9599,-843.6056 438.5975,-840.018 443.98,-844.0528 439,-844.5 439,-844.5 439,-844.5 443.98,-844.0528 439.4025,-848.982 448.9599,-843.6056 448.9599,-843.6056"/>
<text text-anchor="start" x="445.7755" y="-854.5" font-family="Arial" font-size="10.00" fill="#000000">FOREIGN KEY (repo_id) REFERENCES repos(id)</text>
</g>
<!-- public.users_to_repos_stargazers -->
<g id="node6" class="node">
<title>public.users_to_repos_stargazers</title>
<polygon fill="#efefef" stroke="transparent" points="544,-919.5 544,-954.5 925,-954.5 925,-919.5 544,-919.5"/>
<polygon fill="none" stroke="#000000" points="544,-919.5 544,-954.5 925,-954.5 925,-919.5 544,-919.5"/>
<text text-anchor="start" x="550.8416" y="-932.3" font-family="Arial Bold" font-size="18.00" fill="#000000">public.users_to_repos_stargazers</text>
<text text-anchor="start" x="820.9046" y="-932.3" font-family="Arial" font-size="14.00" fill="#000000"> </text>
<text text-anchor="start" x="824.7952" y="-932.3" font-family="Arial" font-size="14.00" fill="#666666">[BASE TABLE]</text>
<polygon fill="none" stroke="#000000" points="544,-889.5 544,-919.5 925,-919.5 925,-889.5 544,-889.5"/>
<text text-anchor="start" x="551" y="-900.9" font-family="Arial" font-size="14.00" fill="#000000">id </text>
<text text-anchor="start" x="565.7798" y="-900.9" font-family="Arial" font-size="14.00" fill="#666666">[bigint]</text>
<polygon fill="none" stroke="#000000" points="544,-859.5 544,-889.5 925,-889.5 925,-859.5 544,-859.5"/>
<text text-anchor="start" x="551" y="-870.9" font-family="Arial" font-size="14.00" fill="#000000">user_id </text>
<text text-anchor="start" x="600.7882" y="-870.9" font-family="Arial" font-size="14.00" fill="#666666">[bigint]</text>
<polygon fill="none" stroke="#000000" points="544,-829.5 544,-859.5 925,-859.5 925,-829.5 544,-829.5"/>
<text text-anchor="start" x="551" y="-840.9" font-family="Arial" font-size="14.00" fill="#000000">repo_id </text>
<text text-anchor="start" x="601.5708" y="-840.9" font-family="Arial" font-size="14.00" fill="#666666">[bigint]</text>
<polygon fill="none" stroke="#000000" points="544,-799.5 544,-829.5 925,-829.5 925,-799.5 544,-799.5"/>
<text text-anchor="start" x="551" y="-810.9" font-family="Arial" font-size="14.00" fill="#000000">created_at </text>
<text text-anchor="start" x="621.028" y="-810.9" font-family="Arial" font-size="14.00" fill="#666666">[timestamp without time zone]</text>
<polygon fill="none" stroke="#000000" points="544,-769.5 544,-799.5 925,-799.5 925,-769.5 544,-769.5"/>
<text text-anchor="start" x="551" y="-780.9" font-family="Arial" font-size="14.00" fill="#000000">updated_at </text>
<text text-anchor="start" x="624.9326" y="-780.9" font-family="Arial" font-size="14.00" fill="#666666">[timestamp without time zone]</text>
<polygon fill="none" stroke="#000000" points="544,-739.5 544,-769.5 925,-769.5 925,-739.5 544,-739.5"/>
<text text-anchor="start" x="551" y="-750.9" font-family="Arial" font-size="14.00" fill="#000000">deleted_at </text>
<text text-anchor="start" x="620.2566" y="-750.9" font-family="Arial" font-size="14.00" fill="#666666">[timestamp without time zone]</text>
</g>
<!-- public.users_to_repos_stargazers&#45;&gt;public.users -->
<g id="edge7" class="edge">
<title>public.users_to_repos_stargazers:user_id&#45;&gt;public.users:id</title>
<path fill="none" stroke="#000000" d="M935.3278,-873.7947C1000.2178,-864.3385 962.8821,-761.951 925,-697 848.5946,-565.9988 704.4054,-660.0012 628,-529 606.3921,-491.952 585.1111,-432.5 628,-432.5"/>
<polygon fill="#000000" stroke="#000000" points="934.9768,-873.8185 924.6933,-870.0105 929.9884,-874.1593 925,-874.5 925,-874.5 925,-874.5 929.9884,-874.1593 925.3067,-878.9895 934.9768,-873.8185 934.9768,-873.8185"/>
<text text-anchor="start" x="932.3345" y="-884.5" font-family="Arial" font-size="10.00" fill="#000000">FOREIGN KEY (user_id) REFERENCES users(id)</text>
</g>
<!-- public.users_to_repos_stargazers&#45;&gt;public.repos -->
<g id="edge8" class="edge">
<title>public.users_to_repos_stargazers:repo_id&#45;&gt;public.repos:id</title>
<path fill="none" stroke="#000000" d="M935.0874,-843.8461C1042.2747,-829.0327 874.2911,-567.5 998,-567.5"/>
<polygon fill="#000000" stroke="#000000" points="934.9791,-843.853 924.7089,-840.0094 929.9895,-844.1765 925,-844.5 925,-844.5 925,-844.5 929.9895,-844.1765 925.2911,-848.9906 934.9791,-843.853 934.9791,-843.853"/>
<text text-anchor="start" x="693.7755" y="-854.5" font-family="Arial" font-size="10.00" fill="#000000">FOREIGN KEY (repo_id) REFERENCES repos(id)</text>
</g>
</g>
</svg>
