<?xml version="1.0" encoding="UTF-8" standalone="no"?>
<!DOCTYPE svg PUBLIC "-//W3C//DTD SVG 1.1//EN"
 "http://www.w3.org/Graphics/SVG/1.1/DTD/svg11.dtd">
<!-- Generated by graphviz version 2.40.1 (20161225.0304)
 -->
<!-- Title: public.users Pages: 1 -->
<svg width="702pt" height="766pt"
 viewBox="0.00 0.00 702.00 766.00" xmlns="http://www.w3.org/2000/svg" xmlns:xlink="http://www.w3.org/1999/xlink">
<g id="graph0" class="graph" transform="scale(1 1) rotate(0) translate(4 762)">
<title>public.users</title>
<polygon fill="#ffffff" stroke="transparent" points="-4,4 -4,-762 698,-762 698,4 -4,4"/>
<!-- public.users -->
<g id="node1" class="node">
<title>public.users</title>
<polygon fill="#efefef" stroke="transparent" points="46.5,-177.5 46.5,-212.5 295.5,-212.5 295.5,-177.5 46.5,-177.5"/>
<polygon fill="none" stroke="#000000" points="46.5,-177.5 46.5,-212.5 295.5,-212.5 295.5,-177.5 46.5,-177.5"/>
<text text-anchor="start" x="74.3662" y="-190.3" font-family="Arial Bold" font-size="18.00" fill="#000000">public.users</text>
<text text-anchor="start" x="170.38" y="-190.3" font-family="Arial" font-size="14.00" fill="#000000"> </text>
<text text-anchor="start" x="174.2706" y="-190.3" font-family="Arial" font-size="14.00" fill="#666666">[BASE TABLE]</text>
<polygon fill="none" stroke="#000000" points="46.5,-147.5 46.5,-177.5 295.5,-177.5 295.5,-147.5 46.5,-147.5"/>
<text text-anchor="start" x="53.5" y="-158.9" font-family="Arial" font-size="14.00" fill="#000000">id </text>
<text text-anchor="start" x="68.2798" y="-158.9" font-family="Arial" font-size="14.00" fill="#666666">[bigint]</text>
<polygon fill="none" stroke="#000000" points="46.5,-117.5 46.5,-147.5 295.5,-147.5 295.5,-117.5 46.5,-117.5"/>
<text text-anchor="start" x="53.5" y="-128.9" font-family="Arial" font-size="14.00" fill="#000000">login </text>
<text text-anchor="start" x="86.9516" y="-128.9" font-family="Arial" font-size="14.00" fill="#666666">[text]</text>
<polygon fill="none" stroke="#000000" points="46.5,-87.5 46.5,-117.5 295.5,-117.5 295.5,-87.5 46.5,-87.5"/>
<text text-anchor="start" x="53.1438" y="-98.9" font-family="Arial" font-size="14.00" fill="#000000">created_at </text>
<text text-anchor="start" x="123.1718" y="-98.9" font-family="Arial" font-size="14.00" fill="#666666">[timestamp with time zone]</text>
<polygon fill="none" stroke="#000000" stroke-width="3" points="44.5,-86.5 44.5,-214.5 296.5,-214.5 296.5,-86.5 44.5,-86.5"/>
</g>
<!-- public.user_stars -->
<g id="node2" class="node">
<title>public.user_stars</title>
<polygon fill="#efefef" stroke="transparent" points="214.5,-679.5 214.5,-714.5 483.5,-714.5 483.5,-679.5 214.5,-679.5"/>
<polygon fill="none" stroke="#000000" points="214.5,-679.5 214.5,-714.5 483.5,-714.5 483.5,-679.5 214.5,-679.5"/>
<text text-anchor="start" x="232.3628" y="-692.3" font-family="Arial Bold" font-size="18.00" fill="#000000">public.user_stars</text>
<text text-anchor="start" x="368.3834" y="-692.3" font-family="Arial" font-size="14.00" fill="#000000"> </text>
<text text-anchor="start" x="372.274" y="-692.3" font-family="Arial" font-size="14.00" fill="#666666">[BASE TABLE]</text>
<polygon fill="none" stroke="#000000" points="214.5,-649.5 214.5,-679.5 483.5,-679.5 483.5,-649.5 214.5,-649.5"/>
<text text-anchor="start" x="221.5" y="-660.9" font-family="Arial" font-size="14.00" fill="#000000">id </text>
<text text-anchor="start" x="236.2798" y="-660.9" font-family="Arial" font-size="14.00" fill="#666666">[bigint]</text>
<polygon fill="none" stroke="#000000" points="214.5,-619.5 214.5,-649.5 483.5,-649.5 483.5,-619.5 214.5,-619.5"/>
<text text-anchor="start" x="221.5" y="-630.9" font-family="Arial" font-size="14.00" fill="#000000">user_id </text>
<text text-anchor="start" x="271.2882" y="-630.9" font-family="Arial" font-size="14.00" fill="#666666">[bigint]</text>
<polygon fill="none" stroke="#000000" points="214.5,-589.5 214.5,-619.5 483.5,-619.5 483.5,-589.5 214.5,-589.5"/>
<text text-anchor="start" x="221.5" y="-600.9" font-family="Arial" font-size="14.00" fill="#000000">star_id </text>
<text text-anchor="start" x="267.3962" y="-600.9" font-family="Arial" font-size="14.00" fill="#666666">[bigint]</text>
<polygon fill="none" stroke="#000000" points="214.5,-559.5 214.5,-589.5 483.5,-589.5 483.5,-559.5 214.5,-559.5"/>
<text text-anchor="start" x="221.5" y="-570.9" font-family="Arial" font-size="14.00" fill="#000000">repo_name </text>
<text text-anchor="start" x="296.19" y="-570.9" font-family="Arial" font-size="14.00" fill="#666666">[text]</text>
<polygon fill="none" stroke="#000000" points="214.5,-529.5 214.5,-559.5 483.5,-559.5 483.5,-529.5 214.5,-529.5"/>
<text text-anchor="start" x="221.5" y="-540.9" font-family="Arial" font-size="14.00" fill="#000000">recency_score </text>
<text text-anchor="start" x="316.4074" y="-540.9" font-family="Arial" font-size="14.00" fill="#666666">[smallint]</text>
<polygon fill="none" stroke="#000000" points="214.5,-499.5 214.5,-529.5 483.5,-529.5 483.5,-499.5 214.5,-499.5"/>
<text text-anchor="start" x="221.5" y="-510.9" font-family="Arial" font-size="14.00" fill="#000000">description </text>
<text text-anchor="start" x="293.068" y="-510.9" font-family="Arial" font-size="14.00" fill="#666666">[varchar]</text>
<polygon fill="none" stroke="#000000" points="214.5,-469.5 214.5,-499.5 483.5,-499.5 483.5,-469.5 214.5,-469.5"/>
<text text-anchor="start" x="221.5" y="-480.9" font-family="Arial" font-size="14.00" fill="#000000">issues </text>
<text text-anchor="start" x="265.0624" y="-480.9" font-family="Arial" font-size="14.00" fill="#666666">[integer]</text>
<polygon fill="none" stroke="#000000" points="214.5,-439.5 214.5,-469.5 483.5,-469.5 483.5,-439.5 214.5,-439.5"/>
<text text-anchor="start" x="221.5" y="-450.9" font-family="Arial" font-size="14.00" fill="#000000">stars </text>
<text text-anchor="start" x="255.7244" y="-450.9" font-family="Arial" font-size="14.00" fill="#666666">[integer]</text>
<polygon fill="none" stroke="#000000" points="214.5,-409.5 214.5,-439.5 483.5,-439.5 483.5,-409.5 214.5,-409.5"/>
<text text-anchor="start" x="221.5" y="-420.9" font-family="Arial" font-size="14.00" fill="#000000">contributors </text>
<text text-anchor="start" x="298.5126" y="-420.9" font-family="Arial" font-size="14.00" fill="#666666">[text[]]</text>
<polygon fill="none" stroke="#000000" points="214.5,-379.5 214.5,-409.5 483.5,-409.5 483.5,-379.5 214.5,-379.5"/>
<text text-anchor="start" x="221.4159" y="-390.9" font-family="Arial" font-size="14.00" fill="#000000">created_at </text>
<text text-anchor="start" x="291.4439" y="-390.9" font-family="Arial" font-size="14.00" fill="#666666">[timestamp without time zone]</text>
</g>
<!-- public.user_stars&#45;&gt;public.users -->
<g id="edge1" class="edge">
<title>public.user_stars:user_id&#45;&gt;public.users:id</title>
<path fill="none" stroke="#000000" stroke-dasharray="5,2" d="M204.4802,-634.1375C86.5015,-625.2656 164.1152,-455.4665 214.5,-337 234.0604,-291.009 275.9396,-304.991 295.5,-259 312.2859,-219.5324 338.3889,-162.5 295.5,-162.5"/>
<polygon fill="#000000" stroke="#000000" points="204.5065,-634.1384 214.3373,-638.9971 209.5033,-634.3192 214.5,-634.5 214.5,-634.5 214.5,-634.5 209.5033,-634.3192 214.6627,-630.0029 204.5065,-634.1384 204.5065,-634.1384"/>
<text text-anchor="start" x="128.768" y="-644.5" font-family="Arial" font-size="10.00" fill="#000000">Detected Relation</text>
</g>
<!-- public.stars -->
<g id="node3" class="node">
<title>public.stars</title>
<polygon fill="#efefef" stroke="transparent" points="402.5,-222.5 402.5,-257.5 651.5,-257.5 651.5,-222.5 402.5,-222.5"/>
<polygon fill="none" stroke="#000000" points="402.5,-222.5 402.5,-257.5 651.5,-257.5 651.5,-222.5 402.5,-222.5"/>
<text text-anchor="start" x="432.8682" y="-235.3" font-family="Arial Bold" font-size="18.00" fill="#000000">public.stars</text>
<text text-anchor="start" x="523.878" y="-235.3" font-family="Arial" font-size="14.00" fill="#000000"> </text>
<text text-anchor="start" x="527.7686" y="-235.3" font-family="Arial" font-size="14.00" fill="#666666">[BASE TABLE]</text>
<polygon fill="none" stroke="#000000" points="402.5,-192.5 402.5,-222.5 651.5,-222.5 651.5,-192.5 402.5,-192.5"/>
<text text-anchor="start" x="409.5" y="-203.9" font-family="Arial" font-size="14.00" fill="#000000">id </text>
<text text-anchor="start" x="424.2798" y="-203.9" font-family="Arial" font-size="14.00" fill="#666666">[bigint]</text>
<polygon fill="none" stroke="#000000" points="402.5,-162.5 402.5,-192.5 651.5,-192.5 651.5,-162.5 402.5,-162.5"/>
<text text-anchor="start" x="409.1438" y="-173.9" font-family="Arial" font-size="14.00" fill="#000000">created_at </text>
<text text-anchor="start" x="479.1718" y="-173.9" font-family="Arial" font-size="14.00" fill="#666666">[timestamp with time zone]</text>
<polygon fill="none" stroke="#000000" points="402.5,-132.5 402.5,-162.5 651.5,-162.5 651.5,-132.5 402.5,-132.5"/>
<text text-anchor="start" x="409.5" y="-143.9" font-family="Arial" font-size="14.00" fill="#000000">full_name </text>
<text text-anchor="start" x="474.068" y="-143.9" font-family="Arial" font-size="14.00" fill="#666666">[text]</text>
<polygon fill="none" stroke="#000000" points="402.5,-102.5 402.5,-132.5 651.5,-132.5 651.5,-102.5 402.5,-102.5"/>
<text text-anchor="start" x="409.5" y="-113.9" font-family="Arial" font-size="14.00" fill="#000000">stargazers_count </text>
<text text-anchor="start" x="520.7538" y="-113.9" font-family="Arial" font-size="14.00" fill="#666666">[integer]</text>
<polygon fill="none" stroke="#000000" points="402.5,-72.5 402.5,-102.5 651.5,-102.5 651.5,-72.5 402.5,-72.5"/>
<text text-anchor="start" x="409.5" y="-83.9" font-family="Arial" font-size="14.00" fill="#000000">open_issues_count </text>
<text text-anchor="start" x="533.9964" y="-83.9" font-family="Arial" font-size="14.00" fill="#666666">[integer]</text>
<polygon fill="none" stroke="#000000" points="402.5,-42.5 402.5,-72.5 651.5,-72.5 651.5,-42.5 402.5,-42.5"/>
<text text-anchor="start" x="409.5" y="-53.9" font-family="Arial" font-size="14.00" fill="#000000">forks_count </text>
<text text-anchor="start" x="485.7454" y="-53.9" font-family="Arial" font-size="14.00" fill="#666666">[integer]</text>
</g>
<!-- public.user_stars&#45;&gt;public.stars -->
<g id="edge2" class="edge">
<title>public.user_stars:star_id&#45;&gt;public.stars:id</title>
<path fill="none" stroke="#000000" stroke-dasharray="5,2" d="M493.5079,-604.0738C599.2095,-594.7257 546.3862,-433.7669 483.5,-337 462.0329,-303.9672 423.9671,-334.0328 402.5,-301 379.8558,-266.156 360.9444,-207.5 402.5,-207.5"/>
<polygon fill="#000000" stroke="#000000" points="493.4909,-604.0745 483.3085,-600.0041 488.4955,-604.2872 483.5,-604.5 483.5,-604.5 483.5,-604.5 488.4955,-604.2872 483.6915,-608.9959 493.4909,-604.0745 493.4909,-604.0745"/>
<text text-anchor="start" x="490.768" y="-614.5" font-family="Arial" font-size="10.00" fill="#000000">Detected Relation</text>
</g>
</g>
</svg>
