<?xml version="1.0" encoding="UTF-8" standalone="no"?>
<!DOCTYPE svg PUBLIC "-//W3C//DTD SVG 1.1//EN"
 "http://www.w3.org/Graphics/SVG/1.1/DTD/svg11.dtd">
<!-- Generated by graphviz version 2.40.1 (20161225.0304)
 -->
<!-- Title: public.users_to_repos_votes Pages: 1 -->
<svg width="1284pt" height="976pt"
 viewBox="0.00 0.00 1283.50 976.00" xmlns="http://www.w3.org/2000/svg" xmlns:xlink="http://www.w3.org/1999/xlink">
<g id="graph0" class="graph" transform="scale(1 1) rotate(0) translate(4 972)">
<title>public.users_to_repos_votes</title>
<polygon fill="#ffffff" stroke="transparent" points="-4,4 -4,-972 1279.5,-972 1279.5,4 -4,4"/>
<!-- public.users_to_repos_votes -->
<g id="node1" class="node">
<title>public.users_to_repos_votes</title>
<polygon fill="#efefef" stroke="transparent" points="486,-859.5 486,-894.5 826,-894.5 826,-859.5 486,-859.5"/>
<polygon fill="none" stroke="#000000" points="486,-859.5 486,-894.5 826,-894.5 826,-859.5 486,-859.5"/>
<text text-anchor="start" x="492.84" y="-872.3" font-family="Arial Bold" font-size="18.00" fill="#000000">public.users_to_repos_votes</text>
<text text-anchor="start" x="721.9062" y="-872.3" font-family="Arial" font-size="14.00" fill="#000000"> </text>
<text text-anchor="start" x="725.7968" y="-872.3" font-family="Arial" font-size="14.00" fill="#666666">[BASE TABLE]</text>
<polygon fill="none" stroke="#000000" points="486,-829.5 486,-859.5 826,-859.5 826,-829.5 486,-829.5"/>
<text text-anchor="start" x="493" y="-840.9" font-family="Arial" font-size="14.00" fill="#000000">id </text>
<text text-anchor="start" x="507.7798" y="-840.9" font-family="Arial" font-size="14.00" fill="#666666">[bigint]</text>
<polygon fill="none" stroke="#000000" points="486,-799.5 486,-829.5 826,-829.5 826,-799.5 486,-799.5"/>
<text text-anchor="start" x="493" y="-810.9" font-family="Arial" font-size="14.00" fill="#000000">user_id </text>
<text text-anchor="start" x="542.7882" y="-810.9" font-family="Arial" font-size="14.00" fill="#666666">[bigint]</text>
<polygon fill="none" stroke="#000000" points="486,-769.5 486,-799.5 826,-799.5 826,-769.5 486,-769.5"/>
<text text-anchor="start" x="493" y="-780.9" font-family="Arial" font-size="14.00" fill="#000000">repo_id </text>
<text text-anchor="start" x="543.5708" y="-780.9" font-family="Arial" font-size="14.00" fill="#666666">[bigint]</text>
<polygon fill="none" stroke="#000000" points="486,-739.5 486,-769.5 826,-769.5 826,-739.5 486,-739.5"/>
<text text-anchor="start" x="493" y="-750.9" font-family="Arial" font-size="14.00" fill="#000000">created_at </text>
<text text-anchor="start" x="563.028" y="-750.9" font-family="Arial" font-size="14.00" fill="#666666">[timestamp with time zone]</text>
<polygon fill="none" stroke="#000000" stroke-width="3" points="484.5,-738.5 484.5,-896.5 827.5,-896.5 827.5,-738.5 484.5,-738.5"/>
</g>
<!-- public.users -->
<g id="node2" class="node">
<title>public.users</title>
<polygon fill="#efefef" stroke="transparent" points="100,-402.5 100,-437.5 349,-437.5 349,-402.5 100,-402.5"/>
<polygon fill="none" stroke="#000000" points="100,-402.5 100,-437.5 349,-437.5 349,-402.5 100,-402.5"/>
<text text-anchor="start" x="127.8662" y="-415.3" font-family="Arial Bold" font-size="18.00" fill="#000000">public.users</text>
<text text-anchor="start" x="223.88" y="-415.3" font-family="Arial" font-size="14.00" fill="#000000"> </text>
<text text-anchor="start" x="227.7706" y="-415.3" font-family="Arial" font-size="14.00" fill="#666666">[BASE TABLE]</text>
<polygon fill="none" stroke="#000000" points="100,-372.5 100,-402.5 349,-402.5 349,-372.5 100,-372.5"/>
<text text-anchor="start" x="107" y="-383.9" font-family="Arial" font-size="14.00" fill="#000000">id </text>
<text text-anchor="start" x="121.7798" y="-383.9" font-family="Arial" font-size="14.00" fill="#666666">[bigint]</text>
<polygon fill="none" stroke="#000000" points="100,-342.5 100,-372.5 349,-372.5 349,-342.5 100,-342.5"/>
<text text-anchor="start" x="107" y="-353.9" font-family="Arial" font-size="14.00" fill="#000000">open_issues </text>
<text text-anchor="start" x="189.4754" y="-353.9" font-family="Arial" font-size="14.00" fill="#666666">[bigint]</text>
<polygon fill="none" stroke="#000000" points="100,-312.5 100,-342.5 349,-342.5 349,-312.5 100,-312.5"/>
<text text-anchor="start" x="107" y="-323.9" font-family="Arial" font-size="14.00" fill="#000000">has_stars_data </text>
<text text-anchor="start" x="206.5932" y="-323.9" font-family="Arial" font-size="14.00" fill="#666666">[boolean]</text>
<polygon fill="none" stroke="#000000" points="100,-282.5 100,-312.5 349,-312.5 349,-282.5 100,-282.5"/>
<text text-anchor="start" x="107" y="-293.9" font-family="Arial" font-size="14.00" fill="#000000">is_private </text>
<text text-anchor="start" x="170.7854" y="-293.9" font-family="Arial" font-size="14.00" fill="#666666">[boolean]</text>
<polygon fill="none" stroke="#000000" points="100,-252.5 100,-282.5 349,-282.5 349,-252.5 100,-252.5"/>
<text text-anchor="start" x="107" y="-263.9" font-family="Arial" font-size="14.00" fill="#000000">is_open_sauced_member </text>
<text text-anchor="start" x="271.9354" y="-263.9" font-family="Arial" font-size="14.00" fill="#666666">[boolean]</text>
<polygon fill="none" stroke="#000000" points="100,-222.5 100,-252.5 349,-252.5 349,-222.5 100,-222.5"/>
<text text-anchor="start" x="106.6438" y="-233.9" font-family="Arial" font-size="14.00" fill="#000000">created_at </text>
<text text-anchor="start" x="176.6718" y="-233.9" font-family="Arial" font-size="14.00" fill="#666666">[timestamp with time zone]</text>
<polygon fill="none" stroke="#000000" points="100,-192.5 100,-222.5 349,-222.5 349,-192.5 100,-192.5"/>
<text text-anchor="start" x="107" y="-203.9" font-family="Arial" font-size="14.00" fill="#000000">login </text>
<text text-anchor="start" x="140.4516" y="-203.9" font-family="Arial" font-size="14.00" fill="#666666">[varchar(255)]</text>
</g>
<!-- public.users_to_repos_votes&#45;&gt;public.users -->
<g id="edge1" class="edge">
<title>public.users_to_repos_votes:user_id&#45;&gt;public.users:id</title>
<path fill="none" stroke="#000000" d="M475.8342,-813.8246C420.2137,-805.8251 456.0479,-728.3596 431,-667 424.3827,-650.7896 420.8631,-647.4982 415,-631 377.4532,-525.3462 461.1271,-387.5 349,-387.5"/>
<polygon fill="#000000" stroke="#000000" points="476.022,-813.837 485.7016,-818.9901 481.011,-814.1685 486,-814.5 486,-814.5 486,-814.5 481.011,-814.1685 486.2984,-810.0099 476.022,-813.837 476.022,-813.837"/>
<text text-anchor="start" x="434.0845" y="-798.5" font-family="Arial" font-size="10.00" fill="#000000">FOREIGN KEY (user_id) REFERENCES users(id)</text>
</g>
<!-- public.repos -->
<g id="node4" class="node">
<title>public.repos</title>
<polygon fill="#efefef" stroke="transparent" points="467,-552.5 467,-587.5 845,-587.5 845,-552.5 467,-552.5"/>
<polygon fill="none" stroke="#000000" points="467,-552.5 467,-587.5 845,-587.5 845,-552.5 467,-552.5"/>
<text text-anchor="start" x="558.8631" y="-565.3" font-family="Arial Bold" font-size="18.00" fill="#000000">public.repos</text>
<text text-anchor="start" x="655.8831" y="-565.3" font-family="Arial" font-size="14.00" fill="#000000"> </text>
<text text-anchor="start" x="659.7737" y="-565.3" font-family="Arial" font-size="14.00" fill="#666666">[BASE TABLE]</text>
<polygon fill="none" stroke="#000000" points="467,-522.5 467,-552.5 845,-552.5 845,-522.5 467,-522.5"/>
<text text-anchor="start" x="474" y="-533.9" font-family="Arial" font-size="14.00" fill="#000000">id </text>
<text text-anchor="start" x="488.7798" y="-533.9" font-family="Arial" font-size="14.00" fill="#666666">[bigint]</text>
<polygon fill="none" stroke="#000000" points="467,-492.5 467,-522.5 845,-522.5 845,-492.5 467,-492.5"/>
<text text-anchor="start" x="474" y="-503.9" font-family="Arial" font-size="14.00" fill="#000000">user_id </text>
<text text-anchor="start" x="523.7882" y="-503.9" font-family="Arial" font-size="14.00" fill="#666666">[bigint]</text>
<polygon fill="none" stroke="#000000" points="467,-462.5 467,-492.5 845,-492.5 845,-462.5 467,-462.5"/>
<text text-anchor="start" x="474" y="-473.9" font-family="Arial" font-size="14.00" fill="#000000">issues </text>
<text text-anchor="start" x="517.5624" y="-473.9" font-family="Arial" font-size="14.00" fill="#666666">[bigint]</text>
<polygon fill="none" stroke="#000000" points="467,-432.5 467,-462.5 845,-462.5 845,-432.5 467,-432.5"/>
<text text-anchor="start" x="474" y="-443.9" font-family="Arial" font-size="14.00" fill="#000000">stars </text>
<text text-anchor="start" x="508.2244" y="-443.9" font-family="Arial" font-size="14.00" fill="#666666">[bigint]</text>
<polygon fill="none" stroke="#000000" points="467,-402.5 467,-432.5 845,-432.5 845,-402.5 467,-402.5"/>
<text text-anchor="start" x="474" y="-413.9" font-family="Arial" font-size="14.00" fill="#000000">watchers </text>
<text text-anchor="start" x="533.8962" y="-413.9" font-family="Arial" font-size="14.00" fill="#666666">[bigint]</text>
<polygon fill="none" stroke="#000000" points="467,-372.5 467,-402.5 845,-402.5 845,-372.5 467,-372.5"/>
<text text-anchor="start" x="474" y="-383.9" font-family="Arial" font-size="14.00" fill="#000000">subscribers </text>
<text text-anchor="start" x="549.4488" y="-383.9" font-family="Arial" font-size="14.00" fill="#666666">[bigint]</text>
<polygon fill="none" stroke="#000000" points="467,-342.5 467,-372.5 845,-372.5 845,-342.5 467,-342.5"/>
<text text-anchor="start" x="474" y="-353.9" font-family="Arial" font-size="14.00" fill="#000000">is_fork </text>
<text text-anchor="start" x="519.1136" y="-353.9" font-family="Arial" font-size="14.00" fill="#666666">[boolean]</text>
<polygon fill="none" stroke="#000000" points="467,-312.5 467,-342.5 845,-342.5 845,-312.5 467,-312.5"/>
<text text-anchor="start" x="474" y="-323.9" font-family="Arial" font-size="14.00" fill="#000000">created_at </text>
<text text-anchor="start" x="544.028" y="-323.9" font-family="Arial" font-size="14.00" fill="#666666">[timestamp without time zone]</text>
<polygon fill="none" stroke="#000000" points="467,-282.5 467,-312.5 845,-312.5 845,-282.5 467,-282.5"/>
<text text-anchor="start" x="474" y="-293.9" font-family="Arial" font-size="14.00" fill="#000000">updated_at </text>
<text text-anchor="start" x="547.9326" y="-293.9" font-family="Arial" font-size="14.00" fill="#666666">[timestamp without time zone]</text>
<polygon fill="none" stroke="#000000" points="467,-252.5 467,-282.5 845,-282.5 845,-252.5 467,-252.5"/>
<text text-anchor="start" x="474" y="-263.9" font-family="Arial" font-size="14.00" fill="#000000">pushed_at </text>
<text text-anchor="start" x="543.2594" y="-263.9" font-family="Arial" font-size="14.00" fill="#666666">[timestamp without time zone]</text>
<polygon fill="none" stroke="#000000" points="467,-222.5 467,-252.5 845,-252.5 845,-222.5 467,-222.5"/>
<text text-anchor="start" x="473.5674" y="-233.9" font-family="Arial" font-size="14.00" fill="#000000">last_fetched_contributors_at </text>
<text text-anchor="start" x="653.2924" y="-233.9" font-family="Arial" font-size="14.00" fill="#666666">[timestamp without time zone]</text>
<polygon fill="none" stroke="#000000" points="467,-192.5 467,-222.5 845,-222.5 845,-192.5 467,-192.5"/>
<text text-anchor="start" x="474" y="-203.9" font-family="Arial" font-size="14.00" fill="#000000">name </text>
<text text-anchor="start" x="512.899" y="-203.9" font-family="Arial" font-size="14.00" fill="#666666">[varchar(255)]</text>
<polygon fill="none" stroke="#000000" points="467,-162.5 467,-192.5 845,-192.5 845,-162.5 467,-162.5"/>
<text text-anchor="start" x="474" y="-173.9" font-family="Arial" font-size="14.00" fill="#000000">full_name </text>
<text text-anchor="start" x="538.568" y="-173.9" font-family="Arial" font-size="14.00" fill="#666666">[varchar(255)]</text>
<polygon fill="none" stroke="#000000" points="467,-132.5 467,-162.5 845,-162.5 845,-132.5 467,-132.5"/>
<text text-anchor="start" x="474" y="-143.9" font-family="Arial" font-size="14.00" fill="#000000">description </text>
<text text-anchor="start" x="545.568" y="-143.9" font-family="Arial" font-size="14.00" fill="#666666">[text]</text>
<polygon fill="none" stroke="#000000" points="467,-102.5 467,-132.5 845,-132.5 845,-102.5 467,-102.5"/>
<text text-anchor="start" x="474" y="-113.9" font-family="Arial" font-size="14.00" fill="#000000">language </text>
<text text-anchor="start" x="535.4754" y="-113.9" font-family="Arial" font-size="14.00" fill="#666666">[varchar(64)]</text>
<polygon fill="none" stroke="#000000" points="467,-72.5 467,-102.5 845,-102.5 845,-72.5 467,-72.5"/>
<text text-anchor="start" x="474" y="-83.9" font-family="Arial" font-size="14.00" fill="#000000">license </text>
<text text-anchor="start" x="521.4516" y="-83.9" font-family="Arial" font-size="14.00" fill="#666666">[varchar(64)]</text>
<polygon fill="none" stroke="#000000" points="467,-42.5 467,-72.5 845,-72.5 845,-42.5 467,-42.5"/>
<text text-anchor="start" x="474" y="-53.9" font-family="Arial" font-size="14.00" fill="#000000">url </text>
<text text-anchor="start" x="493.4404" y="-53.9" font-family="Arial" font-size="14.00" fill="#666666">[varchar(255)]</text>
</g>
<!-- public.users_to_repos_votes&#45;&gt;public.repos -->
<g id="edge3" class="edge">
<title>public.users_to_repos_votes:repo_id&#45;&gt;public.repos:id</title>
<path fill="none" stroke="#000000" d="M835.8903,-781.7261C883.1368,-754.5898 896.6104,-537.5 845,-537.5"/>
<polygon fill="#000000" stroke="#000000" points="835.6285,-781.7994 824.7848,-780.1672 830.8142,-783.1497 826,-784.5 826,-784.5 826,-784.5 830.8142,-783.1497 827.2152,-788.8328 835.6285,-781.7994 835.6285,-781.7994"/>
<text text-anchor="start" x="832.7755" y="-794.5" font-family="Arial" font-size="10.00" fill="#000000">FOREIGN KEY (repo_id) REFERENCES repos(id)</text>
</g>
<!-- public.users_to_repos_stars -->
<g id="node3" class="node">
<title>public.users_to_repos_stars</title>
<polygon fill="#efefef" stroke="transparent" points="43,-859.5 43,-894.5 379,-894.5 379,-859.5 43,-859.5"/>
<polygon fill="none" stroke="#000000" points="43,-859.5 43,-894.5 379,-894.5 379,-859.5 43,-859.5"/>
<text text-anchor="start" x="49.847" y="-872.3" font-family="Arial Bold" font-size="18.00" fill="#000000">public.users_to_repos_stars</text>
<text text-anchor="start" x="274.8992" y="-872.3" font-family="Arial" font-size="14.00" fill="#000000"> </text>
<text text-anchor="start" x="278.7898" y="-872.3" font-family="Arial" font-size="14.00" fill="#666666">[BASE TABLE]</text>
<polygon fill="none" stroke="#000000" points="43,-829.5 43,-859.5 379,-859.5 379,-829.5 43,-829.5"/>
<text text-anchor="start" x="50" y="-840.9" font-family="Arial" font-size="14.00" fill="#000000">id </text>
<text text-anchor="start" x="64.7798" y="-840.9" font-family="Arial" font-size="14.00" fill="#666666">[bigint]</text>
<polygon fill="none" stroke="#000000" points="43,-799.5 43,-829.5 379,-829.5 379,-799.5 43,-799.5"/>
<text text-anchor="start" x="50" y="-810.9" font-family="Arial" font-size="14.00" fill="#000000">user_id </text>
<text text-anchor="start" x="99.7882" y="-810.9" font-family="Arial" font-size="14.00" fill="#666666">[bigint]</text>
<polygon fill="none" stroke="#000000" points="43,-769.5 43,-799.5 379,-799.5 379,-769.5 43,-769.5"/>
<text text-anchor="start" x="50" y="-780.9" font-family="Arial" font-size="14.00" fill="#000000">repo_id </text>
<text text-anchor="start" x="100.5708" y="-780.9" font-family="Arial" font-size="14.00" fill="#666666">[bigint]</text>
<polygon fill="none" stroke="#000000" points="43,-739.5 43,-769.5 379,-769.5 379,-739.5 43,-739.5"/>
<text text-anchor="start" x="50" y="-750.9" font-family="Arial" font-size="14.00" fill="#000000">created_at </text>
<text text-anchor="start" x="120.028" y="-750.9" font-family="Arial" font-size="14.00" fill="#666666">[timestamp with time zone]</text>
</g>
<!-- public.users_to_repos_stars&#45;&gt;public.users -->
<g id="edge2" class="edge">
<title>public.users_to_repos_stars:user_id&#45;&gt;public.users:id</title>
<path fill="none" stroke="#000000" d="M389.3175,-813.3717C426.9183,-804.149 400.2896,-740.4065 379,-697 309.9441,-556.2048 169.0559,-621.7952 100,-481 81.7008,-443.6905 58.4444,-387.5 100,-387.5"/>
<polygon fill="#000000" stroke="#000000" points="388.9407,-813.4128 378.5107,-810.0267 383.9704,-813.9564 379,-814.5 379,-814.5 379,-814.5 383.9704,-813.9564 379.4893,-818.9733 388.9407,-813.4128 388.9407,-813.4128"/>
<text text-anchor="start" x="386.3345" y="-824.5" font-family="Arial" font-size="10.00" fill="#000000">FOREIGN KEY (user_id) REFERENCES users(id)</text>
</g>
<!-- public.users_to_repos_stars&#45;&gt;public.repos -->
<g id="edge5" class="edge">
<title>public.users_to_repos_stars:repo_id&#45;&gt;public.repos:id</title>
<path fill="none" stroke="#000000" d="M389.1749,-783.7914C486.7252,-769.3037 354.1049,-537.5 467,-537.5"/>
<polygon fill="#000000" stroke="#000000" points="388.9758,-783.8052 378.6873,-780.0109 383.9879,-784.1526 379,-784.5 379,-784.5 379,-784.5 383.9879,-784.1526 379.3127,-788.9891 388.9758,-783.8052 388.9758,-783.8052"/>
<text text-anchor="start" x="207.2755" y="-768.5" font-family="Arial" font-size="10.00" fill="#000000">FOREIGN KEY (repo_id) REFERENCES repos(id)</text>
</g>
<!-- public.contributions -->
<g id="node5" class="node">
<title>public.contributions</title>
<polygon fill="#efefef" stroke="transparent" points="934,-889.5 934,-924.5 1233,-924.5 1233,-889.5 934,-889.5"/>
<polygon fill="none" stroke="#000000" points="934,-889.5 934,-924.5 1233,-924.5 1233,-889.5 934,-889.5"/>
<text text-anchor="start" x="957.8574" y="-902.3" font-family="Arial Bold" font-size="18.00" fill="#000000">public.contributions</text>
<text text-anchor="start" x="1111.8888" y="-902.3" font-family="Arial" font-size="14.00" fill="#000000"> </text>
<text text-anchor="start" x="1115.7794" y="-902.3" font-family="Arial" font-size="14.00" fill="#666666">[BASE TABLE]</text>
<polygon fill="none" stroke="#000000" points="934,-859.5 934,-889.5 1233,-889.5 1233,-859.5 934,-859.5"/>
<text text-anchor="start" x="941" y="-870.9" font-family="Arial" font-size="14.00" fill="#000000">id </text>
<text text-anchor="start" x="955.7798" y="-870.9" font-family="Arial" font-size="14.00" fill="#666666">[bigint]</text>
<polygon fill="none" stroke="#000000" points="934,-829.5 934,-859.5 1233,-859.5 1233,-829.5 934,-829.5"/>
<text text-anchor="start" x="941" y="-840.9" font-family="Arial" font-size="14.00" fill="#000000">repo_id </text>
<text text-anchor="start" x="991.5708" y="-840.9" font-family="Arial" font-size="14.00" fill="#666666">[bigint]</text>
<polygon fill="none" stroke="#000000" points="934,-799.5 934,-829.5 1233,-829.5 1233,-799.5 934,-799.5"/>
<text text-anchor="start" x="941" y="-810.9" font-family="Arial" font-size="14.00" fill="#000000">count </text>
<text text-anchor="start" x="979.129" y="-810.9" font-family="Arial" font-size="14.00" fill="#666666">[bigint]</text>
<polygon fill="none" stroke="#000000" points="934,-769.5 934,-799.5 1233,-799.5 1233,-769.5 934,-769.5"/>
<text text-anchor="start" x="940.7497" y="-780.9" font-family="Arial" font-size="14.00" fill="#000000">last_merged_at </text>
<text text-anchor="start" x="1041.1101" y="-780.9" font-family="Arial" font-size="14.00" fill="#666666">[timestamp without time zone]</text>
<polygon fill="none" stroke="#000000" points="934,-739.5 934,-769.5 1233,-769.5 1233,-739.5 934,-739.5"/>
<text text-anchor="start" x="941" y="-750.9" font-family="Arial" font-size="14.00" fill="#000000">contributor </text>
<text text-anchor="start" x="1011.0126" y="-750.9" font-family="Arial" font-size="14.00" fill="#666666">[varchar(255)]</text>
<polygon fill="none" stroke="#000000" points="934,-709.5 934,-739.5 1233,-739.5 1233,-709.5 934,-709.5"/>
<text text-anchor="start" x="941" y="-720.9" font-family="Arial" font-size="14.00" fill="#000000">url </text>
<text text-anchor="start" x="960.4404" y="-720.9" font-family="Arial" font-size="14.00" fill="#666666">[varchar(255)]</text>
</g>
<!-- public.contributions&#45;&gt;public.repos -->
<g id="edge4" class="edge">
<title>public.contributions:repo_id&#45;&gt;public.repos:id</title>
<path fill="none" stroke="#000000" d="M924.1064,-842.2054C868.0379,-814.112 912.4242,-537.5 845,-537.5"/>
<polygon fill="#000000" stroke="#000000" points="924.2586,-842.2406 932.9833,-848.8836 929.1293,-843.3703 934,-844.5 934,-844.5 934,-844.5 929.1293,-843.3703 935.0167,-840.1164 924.2586,-842.2406 924.2586,-842.2406"/>
<text text-anchor="start" x="881.2755" y="-828.5" font-family="Arial" font-size="10.00" fill="#000000">FOREIGN KEY (repo_id) REFERENCES repos(id)</text>
</g>
</g>
</svg>
