<?xml version="1.0" encoding="UTF-8" standalone="no"?>
<!DOCTYPE svg PUBLIC "-//W3C//DTD SVG 1.1//EN"
 "http://www.w3.org/Graphics/SVG/1.1/DTD/svg11.dtd">
<!-- Generated by graphviz version 2.40.1 (20161225.0304)
 -->
<!-- Title: public.users_to_repos_stars Pages: 1 -->
<svg width="1284pt" height="1289pt"
 viewBox="0.00 0.00 1284.00 1289.00" xmlns="http://www.w3.org/2000/svg" xmlns:xlink="http://www.w3.org/1999/xlink">
<g id="graph0" class="graph" transform="scale(1 1) rotate(0) translate(4 1285)">
<title>public.users_to_repos_stars</title>
<polygon fill="#ffffff" stroke="transparent" points="-4,4 -4,-1285 1280,-1285 1280,4 -4,4"/>
<!-- public.users_to_repos_stars -->
<g id="node1" class="node">
<title>public.users_to_repos_stars</title>
<polygon fill="#efefef" stroke="transparent" points="237,-1199.5 237,-1234.5 573,-1234.5 573,-1199.5 237,-1199.5"/>
<polygon fill="none" stroke="#000000" points="237,-1199.5 237,-1234.5 573,-1234.5 573,-1199.5 237,-1199.5"/>
<text text-anchor="start" x="243.847" y="-1212.3" font-family="Arial Bold" font-size="18.00" fill="#000000">public.users_to_repos_stars</text>
<text text-anchor="start" x="468.8992" y="-1212.3" font-family="Arial" font-size="14.00" fill="#000000"> </text>
<text text-anchor="start" x="472.7898" y="-1212.3" font-family="Arial" font-size="14.00" fill="#666666">[BASE TABLE]</text>
<polygon fill="none" stroke="#000000" points="237,-1169.5 237,-1199.5 573,-1199.5 573,-1169.5 237,-1169.5"/>
<text text-anchor="start" x="244" y="-1180.9" font-family="Arial" font-size="14.00" fill="#000000">id </text>
<text text-anchor="start" x="258.7798" y="-1180.9" font-family="Arial" font-size="14.00" fill="#666666">[bigint]</text>
<polygon fill="none" stroke="#000000" points="237,-1139.5 237,-1169.5 573,-1169.5 573,-1139.5 237,-1139.5"/>
<text text-anchor="start" x="244" y="-1150.9" font-family="Arial" font-size="14.00" fill="#000000">user_id </text>
<text text-anchor="start" x="293.7882" y="-1150.9" font-family="Arial" font-size="14.00" fill="#666666">[bigint]</text>
<polygon fill="none" stroke="#000000" points="237,-1109.5 237,-1139.5 573,-1139.5 573,-1109.5 237,-1109.5"/>
<text text-anchor="start" x="244" y="-1120.9" font-family="Arial" font-size="14.00" fill="#000000">repo_id </text>
<text text-anchor="start" x="294.5708" y="-1120.9" font-family="Arial" font-size="14.00" fill="#666666">[bigint]</text>
<polygon fill="none" stroke="#000000" points="237,-1079.5 237,-1109.5 573,-1109.5 573,-1079.5 237,-1079.5"/>
<text text-anchor="start" x="244" y="-1090.9" font-family="Arial" font-size="14.00" fill="#000000">created_at </text>
<text text-anchor="start" x="314.028" y="-1090.9" font-family="Arial" font-size="14.00" fill="#666666">[timestamp with time zone]</text>
<polygon fill="none" stroke="#000000" stroke-width="3" points="235.5,-1078.5 235.5,-1236.5 574.5,-1236.5 574.5,-1078.5 235.5,-1078.5"/>
</g>
<!-- public.users -->
<g id="node2" class="node">
<title>public.users</title>
<polygon fill="#efefef" stroke="transparent" points="503,-252.5 503,-287.5 752,-287.5 752,-252.5 503,-252.5"/>
<polygon fill="none" stroke="#000000" points="503,-252.5 503,-287.5 752,-287.5 752,-252.5 503,-252.5"/>
<text text-anchor="start" x="530.8662" y="-265.3" font-family="Arial Bold" font-size="18.00" fill="#000000">public.users</text>
<text text-anchor="start" x="626.88" y="-265.3" font-family="Arial" font-size="14.00" fill="#000000"> </text>
<text text-anchor="start" x="630.7706" y="-265.3" font-family="Arial" font-size="14.00" fill="#666666">[BASE TABLE]</text>
<polygon fill="none" stroke="#000000" points="503,-222.5 503,-252.5 752,-252.5 752,-222.5 503,-222.5"/>
<text text-anchor="start" x="510" y="-233.9" font-family="Arial" font-size="14.00" fill="#000000">id </text>
<text text-anchor="start" x="524.7798" y="-233.9" font-family="Arial" font-size="14.00" fill="#666666">[bigint]</text>
<polygon fill="none" stroke="#000000" points="503,-192.5 503,-222.5 752,-222.5 752,-192.5 503,-192.5"/>
<text text-anchor="start" x="510" y="-203.9" font-family="Arial" font-size="14.00" fill="#000000">open_issues </text>
<text text-anchor="start" x="592.4754" y="-203.9" font-family="Arial" font-size="14.00" fill="#666666">[bigint]</text>
<polygon fill="none" stroke="#000000" points="503,-162.5 503,-192.5 752,-192.5 752,-162.5 503,-162.5"/>
<text text-anchor="start" x="510" y="-173.9" font-family="Arial" font-size="14.00" fill="#000000">has_stars_data </text>
<text text-anchor="start" x="609.5932" y="-173.9" font-family="Arial" font-size="14.00" fill="#666666">[boolean]</text>
<polygon fill="none" stroke="#000000" points="503,-132.5 503,-162.5 752,-162.5 752,-132.5 503,-132.5"/>
<text text-anchor="start" x="510" y="-143.9" font-family="Arial" font-size="14.00" fill="#000000">is_private </text>
<text text-anchor="start" x="573.7854" y="-143.9" font-family="Arial" font-size="14.00" fill="#666666">[boolean]</text>
<polygon fill="none" stroke="#000000" points="503,-102.5 503,-132.5 752,-132.5 752,-102.5 503,-102.5"/>
<text text-anchor="start" x="510" y="-113.9" font-family="Arial" font-size="14.00" fill="#000000">is_open_sauced_member </text>
<text text-anchor="start" x="674.9354" y="-113.9" font-family="Arial" font-size="14.00" fill="#666666">[boolean]</text>
<polygon fill="none" stroke="#000000" points="503,-72.5 503,-102.5 752,-102.5 752,-72.5 503,-72.5"/>
<text text-anchor="start" x="509.6438" y="-83.9" font-family="Arial" font-size="14.00" fill="#000000">created_at </text>
<text text-anchor="start" x="579.6718" y="-83.9" font-family="Arial" font-size="14.00" fill="#666666">[timestamp with time zone]</text>
<polygon fill="none" stroke="#000000" points="503,-42.5 503,-72.5 752,-72.5 752,-42.5 503,-42.5"/>
<text text-anchor="start" x="510" y="-53.9" font-family="Arial" font-size="14.00" fill="#000000">login </text>
<text text-anchor="start" x="543.4516" y="-53.9" font-family="Arial" font-size="14.00" fill="#666666">[varchar(255)]</text>
</g>
<!-- public.users_to_repos_stars&#45;&gt;public.users -->
<g id="edge1" class="edge">
<title>public.users_to_repos_stars:user_id&#45;&gt;public.users:id</title>
<path fill="none" stroke="#000000" d="M226.8255,-1153.7502C33.6392,-1124.3055 294.3445,-237.5 503,-237.5"/>
<polygon fill="#000000" stroke="#000000" points="227.027,-1153.7649 236.6692,-1158.9878 232.0135,-1154.1325 237,-1154.5 237,-1154.5 237,-1154.5 232.0135,-1154.1325 237.3308,-1150.0122 227.027,-1153.7649 227.027,-1153.7649"/>
<text text-anchor="start" x="7.3345" y="-1164.5" font-family="Arial" font-size="10.00" fill="#000000">FOREIGN KEY (user_id) REFERENCES users(id)</text>
</g>
<!-- public.repos -->
<g id="node4" class="node">
<title>public.repos</title>
<polygon fill="#efefef" stroke="transparent" points="439,-919.5 439,-954.5 817,-954.5 817,-919.5 439,-919.5"/>
<polygon fill="none" stroke="#000000" points="439,-919.5 439,-954.5 817,-954.5 817,-919.5 439,-919.5"/>
<text text-anchor="start" x="530.8631" y="-932.3" font-family="Arial Bold" font-size="18.00" fill="#000000">public.repos</text>
<text text-anchor="start" x="627.8831" y="-932.3" font-family="Arial" font-size="14.00" fill="#000000"> </text>
<text text-anchor="start" x="631.7737" y="-932.3" font-family="Arial" font-size="14.00" fill="#666666">[BASE TABLE]</text>
<polygon fill="none" stroke="#000000" points="439,-889.5 439,-919.5 817,-919.5 817,-889.5 439,-889.5"/>
<text text-anchor="start" x="446" y="-900.9" font-family="Arial" font-size="14.00" fill="#000000">id </text>
<text text-anchor="start" x="460.7798" y="-900.9" font-family="Arial" font-size="14.00" fill="#666666">[bigint]</text>
<polygon fill="none" stroke="#000000" points="439,-859.5 439,-889.5 817,-889.5 817,-859.5 439,-859.5"/>
<text text-anchor="start" x="446" y="-870.9" font-family="Arial" font-size="14.00" fill="#000000">user_id </text>
<text text-anchor="start" x="495.7882" y="-870.9" font-family="Arial" font-size="14.00" fill="#666666">[bigint]</text>
<polygon fill="none" stroke="#000000" points="439,-829.5 439,-859.5 817,-859.5 817,-829.5 439,-829.5"/>
<text text-anchor="start" x="446" y="-840.9" font-family="Arial" font-size="14.00" fill="#000000">issues </text>
<text text-anchor="start" x="489.5624" y="-840.9" font-family="Arial" font-size="14.00" fill="#666666">[bigint]</text>
<polygon fill="none" stroke="#000000" points="439,-799.5 439,-829.5 817,-829.5 817,-799.5 439,-799.5"/>
<text text-anchor="start" x="446" y="-810.9" font-family="Arial" font-size="14.00" fill="#000000">stars </text>
<text text-anchor="start" x="480.2244" y="-810.9" font-family="Arial" font-size="14.00" fill="#666666">[bigint]</text>
<polygon fill="none" stroke="#000000" points="439,-769.5 439,-799.5 817,-799.5 817,-769.5 439,-769.5"/>
<text text-anchor="start" x="446" y="-780.9" font-family="Arial" font-size="14.00" fill="#000000">watchers </text>
<text text-anchor="start" x="505.8962" y="-780.9" font-family="Arial" font-size="14.00" fill="#666666">[bigint]</text>
<polygon fill="none" stroke="#000000" points="439,-739.5 439,-769.5 817,-769.5 817,-739.5 439,-739.5"/>
<text text-anchor="start" x="446" y="-750.9" font-family="Arial" font-size="14.00" fill="#000000">subscribers </text>
<text text-anchor="start" x="521.4488" y="-750.9" font-family="Arial" font-size="14.00" fill="#666666">[bigint]</text>
<polygon fill="none" stroke="#000000" points="439,-709.5 439,-739.5 817,-739.5 817,-709.5 439,-709.5"/>
<text text-anchor="start" x="446" y="-720.9" font-family="Arial" font-size="14.00" fill="#000000">is_fork </text>
<text text-anchor="start" x="491.1136" y="-720.9" font-family="Arial" font-size="14.00" fill="#666666">[boolean]</text>
<polygon fill="none" stroke="#000000" points="439,-679.5 439,-709.5 817,-709.5 817,-679.5 439,-679.5"/>
<text text-anchor="start" x="446" y="-690.9" font-family="Arial" font-size="14.00" fill="#000000">created_at </text>
<text text-anchor="start" x="516.028" y="-690.9" font-family="Arial" font-size="14.00" fill="#666666">[timestamp without time zone]</text>
<polygon fill="none" stroke="#000000" points="439,-649.5 439,-679.5 817,-679.5 817,-649.5 439,-649.5"/>
<text text-anchor="start" x="446" y="-660.9" font-family="Arial" font-size="14.00" fill="#000000">updated_at </text>
<text text-anchor="start" x="519.9326" y="-660.9" font-family="Arial" font-size="14.00" fill="#666666">[timestamp without time zone]</text>
<polygon fill="none" stroke="#000000" points="439,-619.5 439,-649.5 817,-649.5 817,-619.5 439,-619.5"/>
<text text-anchor="start" x="446" y="-630.9" font-family="Arial" font-size="14.00" fill="#000000">pushed_at </text>
<text text-anchor="start" x="515.2594" y="-630.9" font-family="Arial" font-size="14.00" fill="#666666">[timestamp without time zone]</text>
<polygon fill="none" stroke="#000000" points="439,-589.5 439,-619.5 817,-619.5 817,-589.5 439,-589.5"/>
<text text-anchor="start" x="445.5674" y="-600.9" font-family="Arial" font-size="14.00" fill="#000000">last_fetched_contributors_at </text>
<text text-anchor="start" x="625.2924" y="-600.9" font-family="Arial" font-size="14.00" fill="#666666">[timestamp without time zone]</text>
<polygon fill="none" stroke="#000000" points="439,-559.5 439,-589.5 817,-589.5 817,-559.5 439,-559.5"/>
<text text-anchor="start" x="446" y="-570.9" font-family="Arial" font-size="14.00" fill="#000000">name </text>
<text text-anchor="start" x="484.899" y="-570.9" font-family="Arial" font-size="14.00" fill="#666666">[varchar(255)]</text>
<polygon fill="none" stroke="#000000" points="439,-529.5 439,-559.5 817,-559.5 817,-529.5 439,-529.5"/>
<text text-anchor="start" x="446" y="-540.9" font-family="Arial" font-size="14.00" fill="#000000">full_name </text>
<text text-anchor="start" x="510.568" y="-540.9" font-family="Arial" font-size="14.00" fill="#666666">[varchar(255)]</text>
<polygon fill="none" stroke="#000000" points="439,-499.5 439,-529.5 817,-529.5 817,-499.5 439,-499.5"/>
<text text-anchor="start" x="446" y="-510.9" font-family="Arial" font-size="14.00" fill="#000000">description </text>
<text text-anchor="start" x="517.568" y="-510.9" font-family="Arial" font-size="14.00" fill="#666666">[text]</text>
<polygon fill="none" stroke="#000000" points="439,-469.5 439,-499.5 817,-499.5 817,-469.5 439,-469.5"/>
<text text-anchor="start" x="446" y="-480.9" font-family="Arial" font-size="14.00" fill="#000000">language </text>
<text text-anchor="start" x="507.4754" y="-480.9" font-family="Arial" font-size="14.00" fill="#666666">[varchar(64)]</text>
<polygon fill="none" stroke="#000000" points="439,-439.5 439,-469.5 817,-469.5 817,-439.5 439,-439.5"/>
<text text-anchor="start" x="446" y="-450.9" font-family="Arial" font-size="14.00" fill="#000000">license </text>
<text text-anchor="start" x="493.4516" y="-450.9" font-family="Arial" font-size="14.00" fill="#666666">[varchar(64)]</text>
<polygon fill="none" stroke="#000000" points="439,-409.5 439,-439.5 817,-439.5 817,-409.5 439,-409.5"/>
<text text-anchor="start" x="446" y="-420.9" font-family="Arial" font-size="14.00" fill="#000000">url </text>
<text text-anchor="start" x="465.4404" y="-420.9" font-family="Arial" font-size="14.00" fill="#666666">[varchar(255)]</text>
</g>
<!-- public.users_to_repos_stars&#45;&gt;public.repos -->
<g id="edge4" class="edge">
<title>public.users_to_repos_stars:repo_id&#45;&gt;public.repos:id</title>
<path fill="none" stroke="#000000" d="M583.2266,-1122.9034C610.0634,-1113.3126 595.085,-1062.8015 573,-1034 535.4754,-985.0636 476.5246,-1046.9364 439,-998 413.7135,-965.0234 397.4444,-904.5 439,-904.5"/>
<polygon fill="#000000" stroke="#000000" points="582.8803,-1122.9573 572.3058,-1120.0539 577.9402,-1123.7287 573,-1124.5 573,-1124.5 573,-1124.5 577.9402,-1123.7287 573.6942,-1128.9461 582.8803,-1122.9573 582.8803,-1122.9573"/>
<text text-anchor="start" x="579.7755" y="-1134.5" font-family="Arial" font-size="10.00" fill="#000000">FOREIGN KEY (repo_id) REFERENCES repos(id)</text>
</g>
<!-- public.users_to_repos_votes -->
<g id="node3" class="node">
<title>public.users_to_repos_votes</title>
<polygon fill="#efefef" stroke="transparent" points="699,-1199.5 699,-1234.5 1039,-1234.5 1039,-1199.5 699,-1199.5"/>
<polygon fill="none" stroke="#000000" points="699,-1199.5 699,-1234.5 1039,-1234.5 1039,-1199.5 699,-1199.5"/>
<text text-anchor="start" x="705.84" y="-1212.3" font-family="Arial Bold" font-size="18.00" fill="#000000">public.users_to_repos_votes</text>
<text text-anchor="start" x="934.9062" y="-1212.3" font-family="Arial" font-size="14.00" fill="#000000"> </text>
<text text-anchor="start" x="938.7968" y="-1212.3" font-family="Arial" font-size="14.00" fill="#666666">[BASE TABLE]</text>
<polygon fill="none" stroke="#000000" points="699,-1169.5 699,-1199.5 1039,-1199.5 1039,-1169.5 699,-1169.5"/>
<text text-anchor="start" x="706" y="-1180.9" font-family="Arial" font-size="14.00" fill="#000000">id </text>
<text text-anchor="start" x="720.7798" y="-1180.9" font-family="Arial" font-size="14.00" fill="#666666">[bigint]</text>
<polygon fill="none" stroke="#000000" points="699,-1139.5 699,-1169.5 1039,-1169.5 1039,-1139.5 699,-1139.5"/>
<text text-anchor="start" x="706" y="-1150.9" font-family="Arial" font-size="14.00" fill="#000000">user_id </text>
<text text-anchor="start" x="755.7882" y="-1150.9" font-family="Arial" font-size="14.00" fill="#666666">[bigint]</text>
<polygon fill="none" stroke="#000000" points="699,-1109.5 699,-1139.5 1039,-1139.5 1039,-1109.5 699,-1109.5"/>
<text text-anchor="start" x="706" y="-1120.9" font-family="Arial" font-size="14.00" fill="#000000">repo_id </text>
<text text-anchor="start" x="756.5708" y="-1120.9" font-family="Arial" font-size="14.00" fill="#666666">[bigint]</text>
<polygon fill="none" stroke="#000000" points="699,-1079.5 699,-1109.5 1039,-1109.5 1039,-1079.5 699,-1079.5"/>
<text text-anchor="start" x="706" y="-1090.9" font-family="Arial" font-size="14.00" fill="#000000">created_at </text>
<text text-anchor="start" x="776.028" y="-1090.9" font-family="Arial" font-size="14.00" fill="#666666">[timestamp with time zone]</text>
</g>
<!-- public.users_to_repos_votes&#45;&gt;public.users -->
<g id="edge2" class="edge">
<title>public.users_to_repos_votes:user_id&#45;&gt;public.users:id</title>
<path fill="none" stroke="#000000" d="M1049.2233,-1153.7502C1243.0161,-1124.3055 961.9803,-237.5 752,-237.5"/>
<polygon fill="#000000" stroke="#000000" points="1048.9732,-1153.7684 1038.6708,-1150.0121 1043.9866,-1154.1342 1039,-1154.5 1039,-1154.5 1039,-1154.5 1043.9866,-1154.1342 1039.3292,-1158.9879 1048.9732,-1153.7684 1048.9732,-1153.7684"/>
<text text-anchor="start" x="1046.3345" y="-1164.5" font-family="Arial" font-size="10.00" fill="#000000">FOREIGN KEY (user_id) REFERENCES users(id)</text>
</g>
<!-- public.users_to_repos_votes&#45;&gt;public.repos -->
<g id="edge5" class="edge">
<title>public.users_to_repos_votes:repo_id&#45;&gt;public.repos:id</title>
<path fill="none" stroke="#000000" d="M688.8023,-1122.852C663.4523,-1113.3812 678.5346,-1065.3182 699,-1037 731.3532,-992.2325 784.6468,-1042.7675 817,-998 841.3408,-964.3193 858.5556,-904.5 817,-904.5"/>
<polygon fill="#000000" stroke="#000000" points="689.1281,-1122.9045 698.282,-1128.9424 694.064,-1123.7023 699,-1124.5 699,-1124.5 699,-1124.5 694.064,-1123.7023 699.718,-1120.0576 689.1281,-1122.9045 689.1281,-1122.9045"/>
<text text-anchor="start" x="527.2755" y="-1108.5" font-family="Arial" font-size="10.00" fill="#000000">FOREIGN KEY (repo_id) REFERENCES repos(id)</text>
</g>
<!-- public.repos&#45;&gt;public.users -->
<g id="edge3" class="edge">
<title>public.repos:user_id&#45;&gt;public.users:id</title>
<path fill="none" stroke="#000000" stroke-dasharray="5,2" d="M429.8516,-869.8852C384.8857,-821.413 403.6729,-406.6232 439,-367 532.1865,-262.4812 658.8135,-435.5188 752,-331 779.6545,-299.9824 793.5556,-237.5 752,-237.5"/>
<polygon fill="#000000" stroke="#000000" points="430.0716,-869.9961 436.9733,-878.5178 434.5358,-872.2481 439,-874.5 439,-874.5 439,-874.5 434.5358,-872.2481 441.0267,-870.4822 430.0716,-869.9961 430.0716,-869.9961"/>
<text text-anchor="start" x="353.268" y="-884.5" font-family="Arial" font-size="10.00" fill="#000000">Detected Relation</text>
</g>
</g>
</svg>
