<?xml version="1.0" encoding="UTF-8" standalone="no"?>
<!DOCTYPE svg PUBLIC "-//W3C//DTD SVG 1.1//EN"
 "http://www.w3.org/Graphics/SVG/1.1/DTD/svg11.dtd">
<!-- Generated by graphviz version 2.40.1 (20161225.0304)
 -->
<!-- Title: public.users_to_repos_stars Pages: 1 -->
<svg width="1284pt" height="976pt"
 viewBox="0.00 0.00 1283.50 976.00" xmlns="http://www.w3.org/2000/svg" xmlns:xlink="http://www.w3.org/1999/xlink">
<g id="graph0" class="graph" transform="scale(1 1) rotate(0) translate(4 972)">
<title>public.users_to_repos_stars</title>
<polygon fill="#ffffff" stroke="transparent" points="-4,4 -4,-972 1279.5,-972 1279.5,4 -4,4"/>
<!-- public.users_to_repos_stars -->
<g id="node1" class="node">
<title>public.users_to_repos_stars</title>
<polygon fill="#efefef" stroke="transparent" points="490,-859.5 490,-894.5 826,-894.5 826,-859.5 490,-859.5"/>
<polygon fill="none" stroke="#000000" points="490,-859.5 490,-894.5 826,-894.5 826,-859.5 490,-859.5"/>
<text text-anchor="start" x="496.847" y="-872.3" font-family="Arial Bold" font-size="18.00" fill="#000000">public.users_to_repos_stars</text>
<text text-anchor="start" x="721.8992" y="-872.3" font-family="Arial" font-size="14.00" fill="#000000"> </text>
<text text-anchor="start" x="725.7898" y="-872.3" font-family="Arial" font-size="14.00" fill="#666666">[BASE TABLE]</text>
<polygon fill="none" stroke="#000000" points="490,-829.5 490,-859.5 826,-859.5 826,-829.5 490,-829.5"/>
<text text-anchor="start" x="497" y="-840.9" font-family="Arial" font-size="14.00" fill="#000000">id </text>
<text text-anchor="start" x="511.7798" y="-840.9" font-family="Arial" font-size="14.00" fill="#666666">[bigint]</text>
<polygon fill="none" stroke="#000000" points="490,-799.5 490,-829.5 826,-829.5 826,-799.5 490,-799.5"/>
<text text-anchor="start" x="497" y="-810.9" font-family="Arial" font-size="14.00" fill="#000000">user_id </text>
<text text-anchor="start" x="546.7882" y="-810.9" font-family="Arial" font-size="14.00" fill="#666666">[bigint]</text>
<polygon fill="none" stroke="#000000" points="490,-769.5 490,-799.5 826,-799.5 826,-769.5 490,-769.5"/>
<text text-anchor="start" x="497" y="-780.9" font-family="Arial" font-size="14.00" fill="#000000">repo_id </text>
<text text-anchor="start" x="547.5708" y="-780.9" font-family="Arial" font-size="14.00" fill="#666666">[bigint]</text>
<polygon fill="none" stroke="#000000" points="490,-739.5 490,-769.5 826,-769.5 826,-739.5 490,-739.5"/>
<text text-anchor="start" x="497" y="-750.9" font-family="Arial" font-size="14.00" fill="#000000">created_at </text>
<text text-anchor="start" x="567.028" y="-750.9" font-family="Arial" font-size="14.00" fill="#666666">[timestamp with time zone]</text>
<polygon fill="none" stroke="#000000" stroke-width="3" points="488.5,-738.5 488.5,-896.5 827.5,-896.5 827.5,-738.5 488.5,-738.5"/>
</g>
<!-- public.users -->
<g id="node2" class="node">
<title>public.users</title>
<polygon fill="#efefef" stroke="transparent" points="102,-402.5 102,-437.5 351,-437.5 351,-402.5 102,-402.5"/>
<polygon fill="none" stroke="#000000" points="102,-402.5 102,-437.5 351,-437.5 351,-402.5 102,-402.5"/>
<text text-anchor="start" x="129.8662" y="-415.3" font-family="Arial Bold" font-size="18.00" fill="#000000">public.users</text>
<text text-anchor="start" x="225.88" y="-415.3" font-family="Arial" font-size="14.00" fill="#000000"> </text>
<text text-anchor="start" x="229.7706" y="-415.3" font-family="Arial" font-size="14.00" fill="#666666">[BASE TABLE]</text>
<polygon fill="none" stroke="#000000" points="102,-372.5 102,-402.5 351,-402.5 351,-372.5 102,-372.5"/>
<text text-anchor="start" x="109" y="-383.9" font-family="Arial" font-size="14.00" fill="#000000">id </text>
<text text-anchor="start" x="123.7798" y="-383.9" font-family="Arial" font-size="14.00" fill="#666666">[bigint]</text>
<polygon fill="none" stroke="#000000" points="102,-342.5 102,-372.5 351,-372.5 351,-342.5 102,-342.5"/>
<text text-anchor="start" x="109" y="-353.9" font-family="Arial" font-size="14.00" fill="#000000">open_issues </text>
<text text-anchor="start" x="191.4754" y="-353.9" font-family="Arial" font-size="14.00" fill="#666666">[bigint]</text>
<polygon fill="none" stroke="#000000" points="102,-312.5 102,-342.5 351,-342.5 351,-312.5 102,-312.5"/>
<text text-anchor="start" x="109" y="-323.9" font-family="Arial" font-size="14.00" fill="#000000">has_stars_data </text>
<text text-anchor="start" x="208.5932" y="-323.9" font-family="Arial" font-size="14.00" fill="#666666">[boolean]</text>
<polygon fill="none" stroke="#000000" points="102,-282.5 102,-312.5 351,-312.5 351,-282.5 102,-282.5"/>
<text text-anchor="start" x="109" y="-293.9" font-family="Arial" font-size="14.00" fill="#000000">is_private </text>
<text text-anchor="start" x="172.7854" y="-293.9" font-family="Arial" font-size="14.00" fill="#666666">[boolean]</text>
<polygon fill="none" stroke="#000000" points="102,-252.5 102,-282.5 351,-282.5 351,-252.5 102,-252.5"/>
<text text-anchor="start" x="109" y="-263.9" font-family="Arial" font-size="14.00" fill="#000000">is_open_sauced_member </text>
<text text-anchor="start" x="273.9354" y="-263.9" font-family="Arial" font-size="14.00" fill="#666666">[boolean]</text>
<polygon fill="none" stroke="#000000" points="102,-222.5 102,-252.5 351,-252.5 351,-222.5 102,-222.5"/>
<text text-anchor="start" x="108.6438" y="-233.9" font-family="Arial" font-size="14.00" fill="#000000">created_at </text>
<text text-anchor="start" x="178.6718" y="-233.9" font-family="Arial" font-size="14.00" fill="#666666">[timestamp with time zone]</text>
<polygon fill="none" stroke="#000000" points="102,-192.5 102,-222.5 351,-222.5 351,-192.5 102,-192.5"/>
<text text-anchor="start" x="109" y="-203.9" font-family="Arial" font-size="14.00" fill="#000000">login </text>
<text text-anchor="start" x="142.4516" y="-203.9" font-family="Arial" font-size="14.00" fill="#666666">[varchar(255)]</text>
</g>
<!-- public.users_to_repos_stars&#45;&gt;public.users -->
<g id="edge1" class="edge">
<title>public.users_to_repos_stars:user_id&#45;&gt;public.users:id</title>
<path fill="none" stroke="#000000" d="M479.8458,-813.8197C424.36,-805.7634 461.4349,-727.7749 435,-667 427.8649,-650.596 423.3714,-647.7154 417,-631 377.0635,-526.2261 463.1271,-387.5 351,-387.5"/>
<polygon fill="#000000" stroke="#000000" points="480.0224,-813.8315 489.6992,-818.9899 485.0112,-814.1657 490,-814.5 490,-814.5 490,-814.5 485.0112,-814.1657 490.3008,-810.0101 480.0224,-813.8315 480.0224,-813.8315"/>
<text text-anchor="start" x="438.0845" y="-798.5" font-family="Arial" font-size="10.00" fill="#000000">FOREIGN KEY (user_id) REFERENCES users(id)</text>
</g>
<!-- public.repos -->
<g id="node4" class="node">
<title>public.repos</title>
<polygon fill="#efefef" stroke="transparent" points="469,-552.5 469,-587.5 847,-587.5 847,-552.5 469,-552.5"/>
<polygon fill="none" stroke="#000000" points="469,-552.5 469,-587.5 847,-587.5 847,-552.5 469,-552.5"/>
<text text-anchor="start" x="560.8631" y="-565.3" font-family="Arial Bold" font-size="18.00" fill="#000000">public.repos</text>
<text text-anchor="start" x="657.8831" y="-565.3" font-family="Arial" font-size="14.00" fill="#000000"> </text>
<text text-anchor="start" x="661.7737" y="-565.3" font-family="Arial" font-size="14.00" fill="#666666">[BASE TABLE]</text>
<polygon fill="none" stroke="#000000" points="469,-522.5 469,-552.5 847,-552.5 847,-522.5 469,-522.5"/>
<text text-anchor="start" x="476" y="-533.9" font-family="Arial" font-size="14.00" fill="#000000">id </text>
<text text-anchor="start" x="490.7798" y="-533.9" font-family="Arial" font-size="14.00" fill="#666666">[bigint]</text>
<polygon fill="none" stroke="#000000" points="469,-492.5 469,-522.5 847,-522.5 847,-492.5 469,-492.5"/>
<text text-anchor="start" x="476" y="-503.9" font-family="Arial" font-size="14.00" fill="#000000">user_id </text>
<text text-anchor="start" x="525.7882" y="-503.9" font-family="Arial" font-size="14.00" fill="#666666">[bigint]</text>
<polygon fill="none" stroke="#000000" points="469,-462.5 469,-492.5 847,-492.5 847,-462.5 469,-462.5"/>
<text text-anchor="start" x="476" y="-473.9" font-family="Arial" font-size="14.00" fill="#000000">issues </text>
<text text-anchor="start" x="519.5624" y="-473.9" font-family="Arial" font-size="14.00" fill="#666666">[bigint]</text>
<polygon fill="none" stroke="#000000" points="469,-432.5 469,-462.5 847,-462.5 847,-432.5 469,-432.5"/>
<text text-anchor="start" x="476" y="-443.9" font-family="Arial" font-size="14.00" fill="#000000">stars </text>
<text text-anchor="start" x="510.2244" y="-443.9" font-family="Arial" font-size="14.00" fill="#666666">[bigint]</text>
<polygon fill="none" stroke="#000000" points="469,-402.5 469,-432.5 847,-432.5 847,-402.5 469,-402.5"/>
<text text-anchor="start" x="476" y="-413.9" font-family="Arial" font-size="14.00" fill="#000000">watchers </text>
<text text-anchor="start" x="535.8962" y="-413.9" font-family="Arial" font-size="14.00" fill="#666666">[bigint]</text>
<polygon fill="none" stroke="#000000" points="469,-372.5 469,-402.5 847,-402.5 847,-372.5 469,-372.5"/>
<text text-anchor="start" x="476" y="-383.9" font-family="Arial" font-size="14.00" fill="#000000">subscribers </text>
<text text-anchor="start" x="551.4488" y="-383.9" font-family="Arial" font-size="14.00" fill="#666666">[bigint]</text>
<polygon fill="none" stroke="#000000" points="469,-342.5 469,-372.5 847,-372.5 847,-342.5 469,-342.5"/>
<text text-anchor="start" x="476" y="-353.9" font-family="Arial" font-size="14.00" fill="#000000">is_fork </text>
<text text-anchor="start" x="521.1136" y="-353.9" font-family="Arial" font-size="14.00" fill="#666666">[boolean]</text>
<polygon fill="none" stroke="#000000" points="469,-312.5 469,-342.5 847,-342.5 847,-312.5 469,-312.5"/>
<text text-anchor="start" x="476" y="-323.9" font-family="Arial" font-size="14.00" fill="#000000">created_at </text>
<text text-anchor="start" x="546.028" y="-323.9" font-family="Arial" font-size="14.00" fill="#666666">[timestamp without time zone]</text>
<polygon fill="none" stroke="#000000" points="469,-282.5 469,-312.5 847,-312.5 847,-282.5 469,-282.5"/>
<text text-anchor="start" x="476" y="-293.9" font-family="Arial" font-size="14.00" fill="#000000">updated_at </text>
<text text-anchor="start" x="549.9326" y="-293.9" font-family="Arial" font-size="14.00" fill="#666666">[timestamp without time zone]</text>
<polygon fill="none" stroke="#000000" points="469,-252.5 469,-282.5 847,-282.5 847,-252.5 469,-252.5"/>
<text text-anchor="start" x="476" y="-263.9" font-family="Arial" font-size="14.00" fill="#000000">pushed_at </text>
<text text-anchor="start" x="545.2594" y="-263.9" font-family="Arial" font-size="14.00" fill="#666666">[timestamp without time zone]</text>
<polygon fill="none" stroke="#000000" points="469,-222.5 469,-252.5 847,-252.5 847,-222.5 469,-222.5"/>
<text text-anchor="start" x="475.5674" y="-233.9" font-family="Arial" font-size="14.00" fill="#000000">last_fetched_contributors_at </text>
<text text-anchor="start" x="655.2924" y="-233.9" font-family="Arial" font-size="14.00" fill="#666666">[timestamp without time zone]</text>
<polygon fill="none" stroke="#000000" points="469,-192.5 469,-222.5 847,-222.5 847,-192.5 469,-192.5"/>
<text text-anchor="start" x="476" y="-203.9" font-family="Arial" font-size="14.00" fill="#000000">name </text>
<text text-anchor="start" x="514.899" y="-203.9" font-family="Arial" font-size="14.00" fill="#666666">[varchar(255)]</text>
<polygon fill="none" stroke="#000000" points="469,-162.5 469,-192.5 847,-192.5 847,-162.5 469,-162.5"/>
<text text-anchor="start" x="476" y="-173.9" font-family="Arial" font-size="14.00" fill="#000000">full_name </text>
<text text-anchor="start" x="540.568" y="-173.9" font-family="Arial" font-size="14.00" fill="#666666">[varchar(255)]</text>
<polygon fill="none" stroke="#000000" points="469,-132.5 469,-162.5 847,-162.5 847,-132.5 469,-132.5"/>
<text text-anchor="start" x="476" y="-143.9" font-family="Arial" font-size="14.00" fill="#000000">description </text>
<text text-anchor="start" x="547.568" y="-143.9" font-family="Arial" font-size="14.00" fill="#666666">[text]</text>
<polygon fill="none" stroke="#000000" points="469,-102.5 469,-132.5 847,-132.5 847,-102.5 469,-102.5"/>
<text text-anchor="start" x="476" y="-113.9" font-family="Arial" font-size="14.00" fill="#000000">language </text>
<text text-anchor="start" x="537.4754" y="-113.9" font-family="Arial" font-size="14.00" fill="#666666">[varchar(64)]</text>
<polygon fill="none" stroke="#000000" points="469,-72.5 469,-102.5 847,-102.5 847,-72.5 469,-72.5"/>
<text text-anchor="start" x="476" y="-83.9" font-family="Arial" font-size="14.00" fill="#000000">license </text>
<text text-anchor="start" x="523.4516" y="-83.9" font-family="Arial" font-size="14.00" fill="#666666">[varchar(64)]</text>
<polygon fill="none" stroke="#000000" points="469,-42.5 469,-72.5 847,-72.5 847,-42.5 469,-42.5"/>
<text text-anchor="start" x="476" y="-53.9" font-family="Arial" font-size="14.00" fill="#000000">url </text>
<text text-anchor="start" x="495.4404" y="-53.9" font-family="Arial" font-size="14.00" fill="#666666">[varchar(255)]</text>
</g>
<!-- public.users_to_repos_stars&#45;&gt;public.repos -->
<g id="edge3" class="edge">
<title>public.users_to_repos_stars:repo_id&#45;&gt;public.repos:id</title>
<path fill="none" stroke="#000000" d="M835.9191,-781.7261C883.4147,-754.5898 898.644,-537.5 847,-537.5"/>
<polygon fill="#000000" stroke="#000000" points="835.6305,-781.8067 824.788,-780.1663 830.8153,-783.1534 826,-784.5 826,-784.5 826,-784.5 830.8153,-783.1534 827.212,-788.8337 835.6305,-781.8067 835.6305,-781.8067"/>
<text text-anchor="start" x="832.7755" y="-794.5" font-family="Arial" font-size="10.00" fill="#000000">FOREIGN KEY (repo_id) REFERENCES repos(id)</text>
</g>
<!-- public.users_to_repos_votes -->
<g id="node3" class="node">
<title>public.users_to_repos_votes</title>
<polygon fill="#efefef" stroke="transparent" points="43,-859.5 43,-894.5 383,-894.5 383,-859.5 43,-859.5"/>
<polygon fill="none" stroke="#000000" points="43,-859.5 43,-894.5 383,-894.5 383,-859.5 43,-859.5"/>
<text text-anchor="start" x="49.84" y="-872.3" font-family="Arial Bold" font-size="18.00" fill="#000000">public.users_to_repos_votes</text>
<text text-anchor="start" x="278.9062" y="-872.3" font-family="Arial" font-size="14.00" fill="#000000"> </text>
<text text-anchor="start" x="282.7968" y="-872.3" font-family="Arial" font-size="14.00" fill="#666666">[BASE TABLE]</text>
<polygon fill="none" stroke="#000000" points="43,-829.5 43,-859.5 383,-859.5 383,-829.5 43,-829.5"/>
<text text-anchor="start" x="50" y="-840.9" font-family="Arial" font-size="14.00" fill="#000000">id </text>
<text text-anchor="start" x="64.7798" y="-840.9" font-family="Arial" font-size="14.00" fill="#666666">[bigint]</text>
<polygon fill="none" stroke="#000000" points="43,-799.5 43,-829.5 383,-829.5 383,-799.5 43,-799.5"/>
<text text-anchor="start" x="50" y="-810.9" font-family="Arial" font-size="14.00" fill="#000000">user_id </text>
<text text-anchor="start" x="99.7882" y="-810.9" font-family="Arial" font-size="14.00" fill="#666666">[bigint]</text>
<polygon fill="none" stroke="#000000" points="43,-769.5 43,-799.5 383,-799.5 383,-769.5 43,-769.5"/>
<text text-anchor="start" x="50" y="-780.9" font-family="Arial" font-size="14.00" fill="#000000">repo_id </text>
<text text-anchor="start" x="100.5708" y="-780.9" font-family="Arial" font-size="14.00" fill="#666666">[bigint]</text>
<polygon fill="none" stroke="#000000" points="43,-739.5 43,-769.5 383,-769.5 383,-739.5 43,-739.5"/>
<text text-anchor="start" x="50" y="-750.9" font-family="Arial" font-size="14.00" fill="#000000">created_at </text>
<text text-anchor="start" x="120.028" y="-750.9" font-family="Arial" font-size="14.00" fill="#666666">[timestamp with time zone]</text>
</g>
<!-- public.users_to_repos_votes&#45;&gt;public.users -->
<g id="edge2" class="edge">
<title>public.users_to_repos_votes:user_id&#45;&gt;public.users:id</title>
<path fill="none" stroke="#000000" d="M393.3187,-813.3711C430.9294,-804.1435 404.3645,-740.3696 383,-697 313.39,-555.693 171.61,-622.307 102,-481 83.6363,-443.7221 60.4444,-387.5 102,-387.5"/>
<polygon fill="#000000" stroke="#000000" points="392.9407,-813.4123 382.5105,-810.0267 387.9703,-813.9562 383,-814.5 383,-814.5 383,-814.5 387.9703,-813.9562 383.4895,-818.9733 392.9407,-813.4123 392.9407,-813.4123"/>
<text text-anchor="start" x="390.3345" y="-824.5" font-family="Arial" font-size="10.00" fill="#000000">FOREIGN KEY (user_id) REFERENCES users(id)</text>
</g>
<!-- public.users_to_repos_votes&#45;&gt;public.repos -->
<g id="edge5" class="edge">
<title>public.users_to_repos_votes:repo_id&#45;&gt;public.repos:id</title>
<path fill="none" stroke="#000000" d="M393.144,-783.7914C490.3429,-769.3037 356.391,-537.5 469,-537.5"/>
<polygon fill="#000000" stroke="#000000" points="392.9757,-783.8031 382.6864,-780.0109 387.9878,-784.1516 383,-784.5 383,-784.5 383,-784.5 387.9878,-784.1516 383.3136,-788.9891 392.9757,-783.8031 392.9757,-783.8031"/>
<text text-anchor="start" x="211.2755" y="-768.5" font-family="Arial" font-size="10.00" fill="#000000">FOREIGN KEY (repo_id) REFERENCES repos(id)</text>
</g>
<!-- public.contributions -->
<g id="node5" class="node">
<title>public.contributions</title>
<polygon fill="#efefef" stroke="transparent" points="934,-889.5 934,-924.5 1233,-924.5 1233,-889.5 934,-889.5"/>
<polygon fill="none" stroke="#000000" points="934,-889.5 934,-924.5 1233,-924.5 1233,-889.5 934,-889.5"/>
<text text-anchor="start" x="957.8574" y="-902.3" font-family="Arial Bold" font-size="18.00" fill="#000000">public.contributions</text>
<text text-anchor="start" x="1111.8888" y="-902.3" font-family="Arial" font-size="14.00" fill="#000000"> </text>
<text text-anchor="start" x="1115.7794" y="-902.3" font-family="Arial" font-size="14.00" fill="#666666">[BASE TABLE]</text>
<polygon fill="none" stroke="#000000" points="934,-859.5 934,-889.5 1233,-889.5 1233,-859.5 934,-859.5"/>
<text text-anchor="start" x="941" y="-870.9" font-family="Arial" font-size="14.00" fill="#000000">id </text>
<text text-anchor="start" x="955.7798" y="-870.9" font-family="Arial" font-size="14.00" fill="#666666">[bigint]</text>
<polygon fill="none" stroke="#000000" points="934,-829.5 934,-859.5 1233,-859.5 1233,-829.5 934,-829.5"/>
<text text-anchor="start" x="941" y="-840.9" font-family="Arial" font-size="14.00" fill="#000000">repo_id </text>
<text text-anchor="start" x="991.5708" y="-840.9" font-family="Arial" font-size="14.00" fill="#666666">[bigint]</text>
<polygon fill="none" stroke="#000000" points="934,-799.5 934,-829.5 1233,-829.5 1233,-799.5 934,-799.5"/>
<text text-anchor="start" x="941" y="-810.9" font-family="Arial" font-size="14.00" fill="#000000">count </text>
<text text-anchor="start" x="979.129" y="-810.9" font-family="Arial" font-size="14.00" fill="#666666">[bigint]</text>
<polygon fill="none" stroke="#000000" points="934,-769.5 934,-799.5 1233,-799.5 1233,-769.5 934,-769.5"/>
<text text-anchor="start" x="940.7497" y="-780.9" font-family="Arial" font-size="14.00" fill="#000000">last_merged_at </text>
<text text-anchor="start" x="1041.1101" y="-780.9" font-family="Arial" font-size="14.00" fill="#666666">[timestamp without time zone]</text>
<polygon fill="none" stroke="#000000" points="934,-739.5 934,-769.5 1233,-769.5 1233,-739.5 934,-739.5"/>
<text text-anchor="start" x="941" y="-750.9" font-family="Arial" font-size="14.00" fill="#000000">contributor </text>
<text text-anchor="start" x="1011.0126" y="-750.9" font-family="Arial" font-size="14.00" fill="#666666">[varchar(255)]</text>
<polygon fill="none" stroke="#000000" points="934,-709.5 934,-739.5 1233,-739.5 1233,-709.5 934,-709.5"/>
<text text-anchor="start" x="941" y="-720.9" font-family="Arial" font-size="14.00" fill="#000000">url </text>
<text text-anchor="start" x="960.4404" y="-720.9" font-family="Arial" font-size="14.00" fill="#666666">[varchar(255)]</text>
</g>
<!-- public.contributions&#45;&gt;public.repos -->
<g id="edge4" class="edge">
<title>public.contributions:repo_id&#45;&gt;public.repos:id</title>
<path fill="none" stroke="#000000" d="M924.1372,-842.2054C868.3344,-814.112 914.3079,-537.5 847,-537.5"/>
<polygon fill="#000000" stroke="#000000" points="924.2601,-842.2339 932.9803,-848.8829 929.1301,-843.367 934,-844.5 934,-844.5 934,-844.5 929.1301,-843.367 935.0197,-840.1171 924.2601,-842.2339 924.2601,-842.2339"/>
<text text-anchor="start" x="881.2755" y="-828.5" font-family="Arial" font-size="10.00" fill="#000000">FOREIGN KEY (repo_id) REFERENCES repos(id)</text>
</g>
</g>
</svg>
