<?xml version="1.0" encoding="UTF-8" standalone="no"?>
<!DOCTYPE svg PUBLIC "-//W3C//DTD SVG 1.1//EN"
 "http://www.w3.org/Graphics/SVG/1.1/DTD/svg11.dtd">
<!-- Generated by graphviz version 2.40.1 (20161225.0304)
 -->
<!-- Title: public.users_to_repos_votes Pages: 1 -->
<svg width="894pt" height="922pt"
 viewBox="0.00 0.00 894.00 922.00" xmlns="http://www.w3.org/2000/svg" xmlns:xlink="http://www.w3.org/1999/xlink">
<g id="graph0" class="graph" transform="scale(1 1) rotate(0) translate(4 918)">
<title>public.users_to_repos_votes</title>
<polygon fill="#ffffff" stroke="transparent" points="-4,4 -4,-918 890,-918 890,4 -4,4"/>
<!-- public.users_to_repos_votes -->
<g id="node1" class="node">
<title>public.users_to_repos_votes</title>
<polygon fill="#efefef" stroke="transparent" points="46,-832.5 46,-867.5 386,-867.5 386,-832.5 46,-832.5"/>
<polygon fill="none" stroke="#000000" points="46,-832.5 46,-867.5 386,-867.5 386,-832.5 46,-832.5"/>
<text text-anchor="start" x="52.84" y="-845.3" font-family="Arial Bold" font-size="18.00" fill="#000000">public.users_to_repos_votes</text>
<text text-anchor="start" x="281.9062" y="-845.3" font-family="Arial" font-size="14.00" fill="#000000"> </text>
<text text-anchor="start" x="285.7968" y="-845.3" font-family="Arial" font-size="14.00" fill="#666666">[BASE TABLE]</text>
<polygon fill="none" stroke="#000000" points="46,-802.5 46,-832.5 386,-832.5 386,-802.5 46,-802.5"/>
<text text-anchor="start" x="53" y="-813.9" font-family="Arial" font-size="14.00" fill="#000000">id </text>
<text text-anchor="start" x="67.7798" y="-813.9" font-family="Arial" font-size="14.00" fill="#666666">[bigint]</text>
<polygon fill="none" stroke="#000000" points="46,-772.5 46,-802.5 386,-802.5 386,-772.5 46,-772.5"/>
<text text-anchor="start" x="53" y="-783.9" font-family="Arial" font-size="14.00" fill="#000000">user_id </text>
<text text-anchor="start" x="102.7882" y="-783.9" font-family="Arial" font-size="14.00" fill="#666666">[bigint]</text>
<polygon fill="none" stroke="#000000" points="46,-742.5 46,-772.5 386,-772.5 386,-742.5 46,-742.5"/>
<text text-anchor="start" x="53" y="-753.9" font-family="Arial" font-size="14.00" fill="#000000">repo_id </text>
<text text-anchor="start" x="103.5708" y="-753.9" font-family="Arial" font-size="14.00" fill="#666666">[bigint]</text>
<polygon fill="none" stroke="#000000" points="46,-712.5 46,-742.5 386,-742.5 386,-712.5 46,-712.5"/>
<text text-anchor="start" x="53" y="-723.9" font-family="Arial" font-size="14.00" fill="#000000">created_at </text>
<text text-anchor="start" x="123.028" y="-723.9" font-family="Arial" font-size="14.00" fill="#666666">[timestamp with time zone]</text>
<polygon fill="none" stroke="#000000" stroke-width="3" points="44.5,-711.5 44.5,-869.5 387.5,-869.5 387.5,-711.5 44.5,-711.5"/>
</g>
<!-- public.users -->
<g id="node2" class="node">
<title>public.users</title>
<polygon fill="#efefef" stroke="transparent" points="105,-402.5 105,-437.5 354,-437.5 354,-402.5 105,-402.5"/>
<polygon fill="none" stroke="#000000" points="105,-402.5 105,-437.5 354,-437.5 354,-402.5 105,-402.5"/>
<text text-anchor="start" x="132.8662" y="-415.3" font-family="Arial Bold" font-size="18.00" fill="#000000">public.users</text>
<text text-anchor="start" x="228.88" y="-415.3" font-family="Arial" font-size="14.00" fill="#000000"> </text>
<text text-anchor="start" x="232.7706" y="-415.3" font-family="Arial" font-size="14.00" fill="#666666">[BASE TABLE]</text>
<polygon fill="none" stroke="#000000" points="105,-372.5 105,-402.5 354,-402.5 354,-372.5 105,-372.5"/>
<text text-anchor="start" x="112" y="-383.9" font-family="Arial" font-size="14.00" fill="#000000">id </text>
<text text-anchor="start" x="126.7798" y="-383.9" font-family="Arial" font-size="14.00" fill="#666666">[bigint]</text>
<polygon fill="none" stroke="#000000" points="105,-342.5 105,-372.5 354,-372.5 354,-342.5 105,-342.5"/>
<text text-anchor="start" x="112" y="-353.9" font-family="Arial" font-size="14.00" fill="#000000">open_issues </text>
<text text-anchor="start" x="194.4754" y="-353.9" font-family="Arial" font-size="14.00" fill="#666666">[bigint]</text>
<polygon fill="none" stroke="#000000" points="105,-312.5 105,-342.5 354,-342.5 354,-312.5 105,-312.5"/>
<text text-anchor="start" x="112" y="-323.9" font-family="Arial" font-size="14.00" fill="#000000">has_stars_data </text>
<text text-anchor="start" x="211.5932" y="-323.9" font-family="Arial" font-size="14.00" fill="#666666">[boolean]</text>
<polygon fill="none" stroke="#000000" points="105,-282.5 105,-312.5 354,-312.5 354,-282.5 105,-282.5"/>
<text text-anchor="start" x="112" y="-293.9" font-family="Arial" font-size="14.00" fill="#000000">is_private </text>
<text text-anchor="start" x="175.7854" y="-293.9" font-family="Arial" font-size="14.00" fill="#666666">[boolean]</text>
<polygon fill="none" stroke="#000000" points="105,-252.5 105,-282.5 354,-282.5 354,-252.5 105,-252.5"/>
<text text-anchor="start" x="112" y="-263.9" font-family="Arial" font-size="14.00" fill="#000000">is_open_sauced_member </text>
<text text-anchor="start" x="276.9354" y="-263.9" font-family="Arial" font-size="14.00" fill="#666666">[boolean]</text>
<polygon fill="none" stroke="#000000" points="105,-222.5 105,-252.5 354,-252.5 354,-222.5 105,-222.5"/>
<text text-anchor="start" x="111.6438" y="-233.9" font-family="Arial" font-size="14.00" fill="#000000">created_at </text>
<text text-anchor="start" x="181.6718" y="-233.9" font-family="Arial" font-size="14.00" fill="#666666">[timestamp with time zone]</text>
<polygon fill="none" stroke="#000000" points="105,-192.5 105,-222.5 354,-222.5 354,-192.5 105,-192.5"/>
<text text-anchor="start" x="112" y="-203.9" font-family="Arial" font-size="14.00" fill="#000000">login </text>
<text text-anchor="start" x="145.4516" y="-203.9" font-family="Arial" font-size="14.00" fill="#666666">[varchar(255)]</text>
</g>
<!-- public.users_to_repos_votes&#45;&gt;public.users -->
<g id="edge1" class="edge">
<title>public.users_to_repos_votes:user_id&#45;&gt;public.users:id</title>
<path fill="none" stroke="#000000" d="M396.1136,-786.4471C435.603,-777.3182 409.566,-710.8598 386,-667 315.1126,-535.0682 175.8874,-612.9318 105,-481 85.3314,-444.3938 63.4444,-387.5 105,-387.5"/>
<polygon fill="#000000" stroke="#000000" points="395.9462,-786.4644 385.534,-783.0242 390.9731,-786.9822 386,-787.5 386,-787.5 386,-787.5 390.9731,-786.9822 386.466,-791.9758 395.9462,-786.4644 395.9462,-786.4644"/>
<text text-anchor="start" x="393.3345" y="-797.5" font-family="Arial" font-size="10.00" fill="#000000">FOREIGN KEY (user_id) REFERENCES users(id)</text>
</g>
<!-- public.repos -->
<g id="node4" class="node">
<title>public.repos</title>
<polygon fill="#efefef" stroke="transparent" points="465,-552.5 465,-587.5 843,-587.5 843,-552.5 465,-552.5"/>
<polygon fill="none" stroke="#000000" points="465,-552.5 465,-587.5 843,-587.5 843,-552.5 465,-552.5"/>
<text text-anchor="start" x="556.8631" y="-565.3" font-family="Arial Bold" font-size="18.00" fill="#000000">public.repos</text>
<text text-anchor="start" x="653.8831" y="-565.3" font-family="Arial" font-size="14.00" fill="#000000"> </text>
<text text-anchor="start" x="657.7737" y="-565.3" font-family="Arial" font-size="14.00" fill="#666666">[BASE TABLE]</text>
<polygon fill="none" stroke="#000000" points="465,-522.5 465,-552.5 843,-552.5 843,-522.5 465,-522.5"/>
<text text-anchor="start" x="472" y="-533.9" font-family="Arial" font-size="14.00" fill="#000000">id </text>
<text text-anchor="start" x="486.7798" y="-533.9" font-family="Arial" font-size="14.00" fill="#666666">[bigint]</text>
<polygon fill="none" stroke="#000000" points="465,-492.5 465,-522.5 843,-522.5 843,-492.5 465,-492.5"/>
<text text-anchor="start" x="472" y="-503.9" font-family="Arial" font-size="14.00" fill="#000000">user_id </text>
<text text-anchor="start" x="521.7882" y="-503.9" font-family="Arial" font-size="14.00" fill="#666666">[bigint]</text>
<polygon fill="none" stroke="#000000" points="465,-462.5 465,-492.5 843,-492.5 843,-462.5 465,-462.5"/>
<text text-anchor="start" x="472" y="-473.9" font-family="Arial" font-size="14.00" fill="#000000">issues </text>
<text text-anchor="start" x="515.5624" y="-473.9" font-family="Arial" font-size="14.00" fill="#666666">[bigint]</text>
<polygon fill="none" stroke="#000000" points="465,-432.5 465,-462.5 843,-462.5 843,-432.5 465,-432.5"/>
<text text-anchor="start" x="472" y="-443.9" font-family="Arial" font-size="14.00" fill="#000000">stars </text>
<text text-anchor="start" x="506.2244" y="-443.9" font-family="Arial" font-size="14.00" fill="#666666">[bigint]</text>
<polygon fill="none" stroke="#000000" points="465,-402.5 465,-432.5 843,-432.5 843,-402.5 465,-402.5"/>
<text text-anchor="start" x="472" y="-413.9" font-family="Arial" font-size="14.00" fill="#000000">watchers </text>
<text text-anchor="start" x="531.8962" y="-413.9" font-family="Arial" font-size="14.00" fill="#666666">[bigint]</text>
<polygon fill="none" stroke="#000000" points="465,-372.5 465,-402.5 843,-402.5 843,-372.5 465,-372.5"/>
<text text-anchor="start" x="472" y="-383.9" font-family="Arial" font-size="14.00" fill="#000000">subscribers </text>
<text text-anchor="start" x="547.4488" y="-383.9" font-family="Arial" font-size="14.00" fill="#666666">[bigint]</text>
<polygon fill="none" stroke="#000000" points="465,-342.5 465,-372.5 843,-372.5 843,-342.5 465,-342.5"/>
<text text-anchor="start" x="472" y="-353.9" font-family="Arial" font-size="14.00" fill="#000000">is_fork </text>
<text text-anchor="start" x="517.1136" y="-353.9" font-family="Arial" font-size="14.00" fill="#666666">[boolean]</text>
<polygon fill="none" stroke="#000000" points="465,-312.5 465,-342.5 843,-342.5 843,-312.5 465,-312.5"/>
<text text-anchor="start" x="472" y="-323.9" font-family="Arial" font-size="14.00" fill="#000000">created_at </text>
<text text-anchor="start" x="542.028" y="-323.9" font-family="Arial" font-size="14.00" fill="#666666">[timestamp without time zone]</text>
<polygon fill="none" stroke="#000000" points="465,-282.5 465,-312.5 843,-312.5 843,-282.5 465,-282.5"/>
<text text-anchor="start" x="472" y="-293.9" font-family="Arial" font-size="14.00" fill="#000000">updated_at </text>
<text text-anchor="start" x="545.9326" y="-293.9" font-family="Arial" font-size="14.00" fill="#666666">[timestamp without time zone]</text>
<polygon fill="none" stroke="#000000" points="465,-252.5 465,-282.5 843,-282.5 843,-252.5 465,-252.5"/>
<text text-anchor="start" x="472" y="-263.9" font-family="Arial" font-size="14.00" fill="#000000">pushed_at </text>
<text text-anchor="start" x="541.2594" y="-263.9" font-family="Arial" font-size="14.00" fill="#666666">[timestamp without time zone]</text>
<polygon fill="none" stroke="#000000" points="465,-222.5 465,-252.5 843,-252.5 843,-222.5 465,-222.5"/>
<text text-anchor="start" x="471.5674" y="-233.9" font-family="Arial" font-size="14.00" fill="#000000">last_fetched_contributors_at </text>
<text text-anchor="start" x="651.2924" y="-233.9" font-family="Arial" font-size="14.00" fill="#666666">[timestamp without time zone]</text>
<polygon fill="none" stroke="#000000" points="465,-192.5 465,-222.5 843,-222.5 843,-192.5 465,-192.5"/>
<text text-anchor="start" x="472" y="-203.9" font-family="Arial" font-size="14.00" fill="#000000">name </text>
<text text-anchor="start" x="510.899" y="-203.9" font-family="Arial" font-size="14.00" fill="#666666">[varchar(255)]</text>
<polygon fill="none" stroke="#000000" points="465,-162.5 465,-192.5 843,-192.5 843,-162.5 465,-162.5"/>
<text text-anchor="start" x="472" y="-173.9" font-family="Arial" font-size="14.00" fill="#000000">full_name </text>
<text text-anchor="start" x="536.568" y="-173.9" font-family="Arial" font-size="14.00" fill="#666666">[varchar(255)]</text>
<polygon fill="none" stroke="#000000" points="465,-132.5 465,-162.5 843,-162.5 843,-132.5 465,-132.5"/>
<text text-anchor="start" x="472" y="-143.9" font-family="Arial" font-size="14.00" fill="#000000">description </text>
<text text-anchor="start" x="543.568" y="-143.9" font-family="Arial" font-size="14.00" fill="#666666">[text]</text>
<polygon fill="none" stroke="#000000" points="465,-102.5 465,-132.5 843,-132.5 843,-102.5 465,-102.5"/>
<text text-anchor="start" x="472" y="-113.9" font-family="Arial" font-size="14.00" fill="#000000">language </text>
<text text-anchor="start" x="533.4754" y="-113.9" font-family="Arial" font-size="14.00" fill="#666666">[varchar(64)]</text>
<polygon fill="none" stroke="#000000" points="465,-72.5 465,-102.5 843,-102.5 843,-72.5 465,-72.5"/>
<text text-anchor="start" x="472" y="-83.9" font-family="Arial" font-size="14.00" fill="#000000">license </text>
<text text-anchor="start" x="519.4516" y="-83.9" font-family="Arial" font-size="14.00" fill="#666666">[varchar(64)]</text>
<polygon fill="none" stroke="#000000" points="465,-42.5 465,-72.5 843,-72.5 843,-42.5 465,-42.5"/>
<text text-anchor="start" x="472" y="-53.9" font-family="Arial" font-size="14.00" fill="#000000">url </text>
<text text-anchor="start" x="491.4404" y="-53.9" font-family="Arial" font-size="14.00" fill="#666666">[varchar(255)]</text>
</g>
<!-- public.users_to_repos_votes&#45;&gt;public.repos -->
<g id="edge3" class="edge">
<title>public.users_to_repos_votes:repo_id&#45;&gt;public.repos:id</title>
<path fill="none" stroke="#000000" d="M396.1147,-756.7034C481.1234,-742.3032 364.7617,-537.5 465,-537.5"/>
<polygon fill="#000000" stroke="#000000" points="395.9691,-756.7148 385.6466,-753.0139 390.9846,-757.1074 386,-757.5 386,-757.5 386,-757.5 390.9846,-757.1074 386.3534,-761.9861 395.9691,-756.7148 395.9691,-756.7148"/>
<text text-anchor="start" x="392.7755" y="-767.5" font-family="Arial" font-size="10.00" fill="#000000">FOREIGN KEY (repo_id) REFERENCES repos(id)</text>
</g>
<!-- public.users_to_repos_stars -->
<g id="node3" class="node">
<title>public.users_to_repos_stars</title>
<polygon fill="#efefef" stroke="transparent" points="493,-832.5 493,-867.5 829,-867.5 829,-832.5 493,-832.5"/>
<polygon fill="none" stroke="#000000" points="493,-832.5 493,-867.5 829,-867.5 829,-832.5 493,-832.5"/>
<text text-anchor="start" x="499.847" y="-845.3" font-family="Arial Bold" font-size="18.00" fill="#000000">public.users_to_repos_stars</text>
<text text-anchor="start" x="724.8992" y="-845.3" font-family="Arial" font-size="14.00" fill="#000000"> </text>
<text text-anchor="start" x="728.7898" y="-845.3" font-family="Arial" font-size="14.00" fill="#666666">[BASE TABLE]</text>
<polygon fill="none" stroke="#000000" points="493,-802.5 493,-832.5 829,-832.5 829,-802.5 493,-802.5"/>
<text text-anchor="start" x="500" y="-813.9" font-family="Arial" font-size="14.00" fill="#000000">id </text>
<text text-anchor="start" x="514.7798" y="-813.9" font-family="Arial" font-size="14.00" fill="#666666">[bigint]</text>
<polygon fill="none" stroke="#000000" points="493,-772.5 493,-802.5 829,-802.5 829,-772.5 493,-772.5"/>
<text text-anchor="start" x="500" y="-783.9" font-family="Arial" font-size="14.00" fill="#000000">user_id </text>
<text text-anchor="start" x="549.7882" y="-783.9" font-family="Arial" font-size="14.00" fill="#666666">[bigint]</text>
<polygon fill="none" stroke="#000000" points="493,-742.5 493,-772.5 829,-772.5 829,-742.5 493,-742.5"/>
<text text-anchor="start" x="500" y="-753.9" font-family="Arial" font-size="14.00" fill="#000000">repo_id </text>
<text text-anchor="start" x="550.5708" y="-753.9" font-family="Arial" font-size="14.00" fill="#666666">[bigint]</text>
<polygon fill="none" stroke="#000000" points="493,-712.5 493,-742.5 829,-742.5 829,-712.5 493,-712.5"/>
<text text-anchor="start" x="500" y="-723.9" font-family="Arial" font-size="14.00" fill="#000000">created_at </text>
<text text-anchor="start" x="570.028" y="-723.9" font-family="Arial" font-size="14.00" fill="#666666">[timestamp with time zone]</text>
</g>
<!-- public.users_to_repos_stars&#45;&gt;public.users -->
<g id="edge2" class="edge">
<title>public.users_to_repos_stars:user_id&#45;&gt;public.users:id</title>
<path fill="none" stroke="#000000" d="M482.8545,-786.6481C439.0419,-778.5217 468.7853,-713.9665 441,-667 430.6793,-649.5545 421.8054,-649.2573 413,-631 364.6271,-530.7019 465.3537,-387.5 354,-387.5"/>
<polygon fill="#000000" stroke="#000000" points="483.0351,-786.6632 492.6234,-791.9842 488.0175,-787.0816 493,-787.5 493,-787.5 493,-787.5 488.0175,-787.0816 493.3766,-783.0158 483.0351,-786.6632 483.0351,-786.6632"/>
<text text-anchor="start" x="322.5845" y="-771.5" font-family="Arial" font-size="10.00" fill="#000000">FOREIGN KEY (user_id) REFERENCES users(id)</text>
</g>
<!-- public.users_to_repos_stars&#45;&gt;public.repos -->
<g id="edge4" class="edge">
<title>public.users_to_repos_stars:repo_id&#45;&gt;public.repos:id</title>
<path fill="none" stroke="#000000" d="M483.0539,-755.9078C456.7656,-746.3523 469.6011,-696.1511 493,-670 597.3671,-553.3575 738.6329,-747.6425 843,-631 870.7094,-600.0314 884.5556,-537.5 843,-537.5"/>
<polygon fill="#000000" stroke="#000000" points="483.1257,-755.9192 492.2886,-761.9434 488.0629,-756.7096 493,-757.5 493,-757.5 493,-757.5 488.0629,-756.7096 493.7114,-753.0566 483.1257,-755.9192 483.1257,-755.9192"/>
<text text-anchor="start" x="440.2755" y="-741.5" font-family="Arial" font-size="10.00" fill="#000000">FOREIGN KEY (repo_id) REFERENCES repos(id)</text>
</g>
</g>
</svg>
