<?xml version="1.0" encoding="UTF-8" standalone="no"?>
<!DOCTYPE svg PUBLIC "-//W3C//DTD SVG 1.1//EN"
 "http://www.w3.org/Graphics/SVG/1.1/DTD/svg11.dtd">
<!-- Generated by graphviz version 2.40.1 (20161225.0304)
 -->
<!-- Title: public.auth_users Pages: 1 -->
<svg width="436pt" height="1095pt"
 viewBox="0.00 0.00 436.00 1095.00" xmlns="http://www.w3.org/2000/svg" xmlns:xlink="http://www.w3.org/1999/xlink">
<g id="graph0" class="graph" transform="scale(1 1) rotate(0) translate(4 1091)">
<title>public.auth_users</title>
<polygon fill="#ffffff" stroke="transparent" points="-4,4 -4,-1091 432,-1091 432,4 -4,4"/>
<!-- public.auth_users -->
<g id="node1" class="node">
<title>public.auth_users</title>
<polygon fill="#efefef" stroke="transparent" points="46,-1005.5 46,-1040.5 382,-1040.5 382,-1005.5 46,-1005.5"/>
<polygon fill="none" stroke="#000000" points="46,-1005.5 46,-1040.5 382,-1040.5 382,-1005.5 46,-1005.5"/>
<text text-anchor="start" x="119.7545" y="-1018.3" font-family="Arial Bold" font-size="18.00" fill="#000000">public.auth_users</text>
<text text-anchor="start" x="260.7953" y="-1018.3" font-family="Arial" font-size="14.00" fill="#000000"> </text>
<text text-anchor="start" x="264.6859" y="-1018.3" font-family="Arial" font-size="14.00" fill="#666666">[VIEW]</text>
<polygon fill="none" stroke="#000000" points="46,-975.5 46,-1005.5 382,-1005.5 382,-975.5 46,-975.5"/>
<text text-anchor="start" x="53" y="-986.9" font-family="Arial" font-size="14.00" fill="#000000">instance_id </text>
<text text-anchor="start" x="127.69" y="-986.9" font-family="Arial" font-size="14.00" fill="#666666">[uuid]</text>
<polygon fill="none" stroke="#000000" points="46,-945.5 46,-975.5 382,-975.5 382,-945.5 46,-945.5"/>
<text text-anchor="start" x="53" y="-956.9" font-family="Arial" font-size="14.00" fill="#000000">id </text>
<text text-anchor="start" x="67.7798" y="-956.9" font-family="Arial" font-size="14.00" fill="#666666">[uuid]</text>
<polygon fill="none" stroke="#000000" points="46,-915.5 46,-945.5 382,-945.5 382,-915.5 46,-915.5"/>
<text text-anchor="start" x="53" y="-926.9" font-family="Arial" font-size="14.00" fill="#000000">aud </text>
<text text-anchor="start" x="80.2384" y="-926.9" font-family="Arial" font-size="14.00" fill="#666666">[varchar(255)]</text>
<polygon fill="none" stroke="#000000" points="46,-885.5 46,-915.5 382,-915.5 382,-885.5 46,-885.5"/>
<text text-anchor="start" x="53" y="-896.9" font-family="Arial" font-size="14.00" fill="#000000">role </text>
<text text-anchor="start" x="80.223" y="-896.9" font-family="Arial" font-size="14.00" fill="#666666">[varchar(255)]</text>
<polygon fill="none" stroke="#000000" points="46,-855.5 46,-885.5 382,-885.5 382,-855.5 46,-855.5"/>
<text text-anchor="start" x="53" y="-866.9" font-family="Arial" font-size="14.00" fill="#000000">email </text>
<text text-anchor="start" x="90.3296" y="-866.9" font-family="Arial" font-size="14.00" fill="#666666">[varchar(255)]</text>
<polygon fill="none" stroke="#000000" points="46,-825.5 46,-855.5 382,-855.5 382,-825.5 46,-825.5"/>
<text text-anchor="start" x="53" y="-836.9" font-family="Arial" font-size="14.00" fill="#000000">encrypted_password </text>
<text text-anchor="start" x="186.035" y="-836.9" font-family="Arial" font-size="14.00" fill="#666666">[varchar(255)]</text>
<polygon fill="none" stroke="#000000" points="46,-795.5 46,-825.5 382,-825.5 382,-795.5 46,-795.5"/>
<text text-anchor="start" x="53" y="-806.9" font-family="Arial" font-size="14.00" fill="#000000">email_confirmed_at </text>
<text text-anchor="start" x="179.0168" y="-806.9" font-family="Arial" font-size="14.00" fill="#666666">[timestamp with time zone]</text>
<polygon fill="none" stroke="#000000" points="46,-765.5 46,-795.5 382,-795.5 382,-765.5 46,-765.5"/>
<text text-anchor="start" x="53" y="-776.9" font-family="Arial" font-size="14.00" fill="#000000">invited_at </text>
<text text-anchor="start" x="116.798" y="-776.9" font-family="Arial" font-size="14.00" fill="#666666">[timestamp with time zone]</text>
<polygon fill="none" stroke="#000000" points="46,-735.5 46,-765.5 382,-765.5 382,-735.5 46,-735.5"/>
<text text-anchor="start" x="53" y="-746.9" font-family="Arial" font-size="14.00" fill="#000000">confirmation_token </text>
<text text-anchor="start" x="175.1402" y="-746.9" font-family="Arial" font-size="14.00" fill="#666666">[varchar(255)]</text>
<polygon fill="none" stroke="#000000" points="46,-705.5 46,-735.5 382,-735.5 382,-705.5 46,-705.5"/>
<text text-anchor="start" x="53" y="-716.9" font-family="Arial" font-size="14.00" fill="#000000">confirmation_sent_at </text>
<text text-anchor="start" x="186.8134" y="-716.9" font-family="Arial" font-size="14.00" fill="#666666">[timestamp with time zone]</text>
<polygon fill="none" stroke="#000000" points="46,-675.5 46,-705.5 382,-705.5 382,-675.5 46,-675.5"/>
<text text-anchor="start" x="53" y="-686.9" font-family="Arial" font-size="14.00" fill="#000000">recovery_token </text>
<text text-anchor="start" x="152.5806" y="-686.9" font-family="Arial" font-size="14.00" fill="#666666">[varchar(255)]</text>
<polygon fill="none" stroke="#000000" points="46,-645.5 46,-675.5 382,-675.5 382,-645.5 46,-645.5"/>
<text text-anchor="start" x="53" y="-656.9" font-family="Arial" font-size="14.00" fill="#000000">recovery_sent_at </text>
<text text-anchor="start" x="164.2538" y="-656.9" font-family="Arial" font-size="14.00" fill="#666666">[timestamp with time zone]</text>
<polygon fill="none" stroke="#000000" points="46,-615.5 46,-645.5 382,-645.5 382,-615.5 46,-615.5"/>
<text text-anchor="start" x="53" y="-626.9" font-family="Arial" font-size="14.00" fill="#000000">email_change_token_new </text>
<text text-anchor="start" x="219.5006" y="-626.9" font-family="Arial" font-size="14.00" fill="#666666">[varchar(255)]</text>
<polygon fill="none" stroke="#000000" points="46,-585.5 46,-615.5 382,-615.5 382,-585.5 46,-585.5"/>
<text text-anchor="start" x="53" y="-596.9" font-family="Arial" font-size="14.00" fill="#000000">email_change </text>
<text text-anchor="start" x="144.0252" y="-596.9" font-family="Arial" font-size="14.00" fill="#666666">[varchar(255)]</text>
<polygon fill="none" stroke="#000000" points="46,-555.5 46,-585.5 382,-585.5 382,-555.5 46,-555.5"/>
<text text-anchor="start" x="53" y="-566.9" font-family="Arial" font-size="14.00" fill="#000000">email_change_sent_at </text>
<text text-anchor="start" x="197.7194" y="-566.9" font-family="Arial" font-size="14.00" fill="#666666">[timestamp with time zone]</text>
<polygon fill="none" stroke="#000000" points="46,-525.5 46,-555.5 382,-555.5 382,-525.5 46,-525.5"/>
<text text-anchor="start" x="53" y="-536.9" font-family="Arial" font-size="14.00" fill="#000000">last_sign_in_at </text>
<text text-anchor="start" x="150.2524" y="-536.9" font-family="Arial" font-size="14.00" fill="#666666">[timestamp with time zone]</text>
<polygon fill="none" stroke="#000000" points="46,-495.5 46,-525.5 382,-525.5 382,-495.5 46,-495.5"/>
<text text-anchor="start" x="53" y="-506.9" font-family="Arial" font-size="14.00" fill="#000000">raw_app_meta_data </text>
<text text-anchor="start" x="184.4908" y="-506.9" font-family="Arial" font-size="14.00" fill="#666666">[jsonb]</text>
<polygon fill="none" stroke="#000000" points="46,-465.5 46,-495.5 382,-495.5 382,-465.5 46,-465.5"/>
<text text-anchor="start" x="53" y="-476.9" font-family="Arial" font-size="14.00" fill="#000000">raw_user_meta_data </text>
<text text-anchor="start" x="188.3688" y="-476.9" font-family="Arial" font-size="14.00" fill="#666666">[jsonb]</text>
<polygon fill="none" stroke="#000000" points="46,-435.5 46,-465.5 382,-465.5 382,-435.5 46,-435.5"/>
<text text-anchor="start" x="53" y="-446.9" font-family="Arial" font-size="14.00" fill="#000000">is_super_admin </text>
<text text-anchor="start" x="155.6858" y="-446.9" font-family="Arial" font-size="14.00" fill="#666666">[boolean]</text>
<polygon fill="none" stroke="#000000" points="46,-405.5 46,-435.5 382,-435.5 382,-405.5 46,-405.5"/>
<text text-anchor="start" x="53" y="-416.9" font-family="Arial" font-size="14.00" fill="#000000">created_at </text>
<text text-anchor="start" x="123.028" y="-416.9" font-family="Arial" font-size="14.00" fill="#666666">[timestamp with time zone]</text>
<polygon fill="none" stroke="#000000" points="46,-375.5 46,-405.5 382,-405.5 382,-375.5 46,-375.5"/>
<text text-anchor="start" x="53" y="-386.9" font-family="Arial" font-size="14.00" fill="#000000">updated_at </text>
<text text-anchor="start" x="126.9326" y="-386.9" font-family="Arial" font-size="14.00" fill="#666666">[timestamp with time zone]</text>
<polygon fill="none" stroke="#000000" points="46,-345.5 46,-375.5 382,-375.5 382,-345.5 46,-345.5"/>
<text text-anchor="start" x="53" y="-356.9" font-family="Arial" font-size="14.00" fill="#000000">phone </text>
<text text-anchor="start" x="95.8036" y="-356.9" font-family="Arial" font-size="14.00" fill="#666666">[varchar(15)]</text>
<polygon fill="none" stroke="#000000" points="46,-315.5 46,-345.5 382,-345.5 382,-315.5 46,-315.5"/>
<text text-anchor="start" x="53" y="-326.9" font-family="Arial" font-size="14.00" fill="#000000">phone_confirmed_at </text>
<text text-anchor="start" x="184.4908" y="-326.9" font-family="Arial" font-size="14.00" fill="#666666">[timestamp with time zone]</text>
<polygon fill="none" stroke="#000000" points="46,-285.5 46,-315.5 382,-315.5 382,-285.5 46,-285.5"/>
<text text-anchor="start" x="53" y="-296.9" font-family="Arial" font-size="14.00" fill="#000000">phone_change </text>
<text text-anchor="start" x="149.4992" y="-296.9" font-family="Arial" font-size="14.00" fill="#666666">[varchar(15)]</text>
<polygon fill="none" stroke="#000000" points="46,-255.5 46,-285.5 382,-285.5 382,-255.5 46,-255.5"/>
<text text-anchor="start" x="53" y="-266.9" font-family="Arial" font-size="14.00" fill="#000000">phone_change_token </text>
<text text-anchor="start" x="191.5202" y="-266.9" font-family="Arial" font-size="14.00" fill="#666666">[varchar(255)]</text>
<polygon fill="none" stroke="#000000" points="46,-225.5 46,-255.5 382,-255.5 382,-225.5 46,-225.5"/>
<text text-anchor="start" x="53" y="-236.9" font-family="Arial" font-size="14.00" fill="#000000">phone_change_sent_at </text>
<text text-anchor="start" x="203.1934" y="-236.9" font-family="Arial" font-size="14.00" fill="#666666">[timestamp with time zone]</text>
<polygon fill="none" stroke="#000000" points="46,-195.5 46,-225.5 382,-225.5 382,-195.5 46,-195.5"/>
<text text-anchor="start" x="53" y="-206.9" font-family="Arial" font-size="14.00" fill="#000000">confirmed_at </text>
<text text-anchor="start" x="137.7952" y="-206.9" font-family="Arial" font-size="14.00" fill="#666666">[timestamp with time zone]</text>
<polygon fill="none" stroke="#000000" points="46,-165.5 46,-195.5 382,-195.5 382,-165.5 46,-165.5"/>
<text text-anchor="start" x="53" y="-176.9" font-family="Arial" font-size="14.00" fill="#000000">email_change_token_current </text>
<text text-anchor="start" x="237.3884" y="-176.9" font-family="Arial" font-size="14.00" fill="#666666">[varchar(255)]</text>
<polygon fill="none" stroke="#000000" points="46,-135.5 46,-165.5 382,-165.5 382,-135.5 46,-135.5"/>
<text text-anchor="start" x="53" y="-146.9" font-family="Arial" font-size="14.00" fill="#000000">email_change_confirm_status </text>
<text text-anchor="start" x="242.8204" y="-146.9" font-family="Arial" font-size="14.00" fill="#666666">[smallint]</text>
<polygon fill="none" stroke="#000000" points="46,-105.5 46,-135.5 382,-135.5 382,-105.5 46,-105.5"/>
<text text-anchor="start" x="53" y="-116.9" font-family="Arial" font-size="14.00" fill="#000000">banned_until </text>
<text text-anchor="start" x="137.0378" y="-116.9" font-family="Arial" font-size="14.00" fill="#666666">[timestamp with time zone]</text>
<polygon fill="none" stroke="#000000" points="46,-75.5 46,-105.5 382,-105.5 382,-75.5 46,-75.5"/>
<text text-anchor="start" x="53" y="-86.9" font-family="Arial" font-size="14.00" fill="#000000">reauthentication_token </text>
<text text-anchor="start" x="198.5006" y="-86.9" font-family="Arial" font-size="14.00" fill="#666666">[varchar(255)]</text>
<polygon fill="none" stroke="#000000" points="46,-45.5 46,-75.5 382,-75.5 382,-45.5 46,-45.5"/>
<text text-anchor="start" x="52.5709" y="-56.9" font-family="Arial" font-size="14.00" fill="#000000">reauthentication_sent_at </text>
<text text-anchor="start" x="209.7447" y="-56.9" font-family="Arial" font-size="14.00" fill="#666666">[timestamp with time zone]</text>
<polygon fill="none" stroke="#000000" stroke-width="3" points="44.5,-44.5 44.5,-1042.5 383.5,-1042.5 383.5,-44.5 44.5,-44.5"/>
</g>
</g>
</svg>
