<?xml version="1.0" encoding="UTF-8" standalone="no"?>
<!DOCTYPE svg PUBLIC "-//W3C//DTD SVG 1.1//EN"
 "http://www.w3.org/Graphics/SVG/1.1/DTD/svg11.dtd">
<!-- Generated by graphviz version 2.40.1 (20161225.0304)
 -->
<!-- Title: public.users Pages: 1 -->
<svg width="887pt" height="916pt"
 viewBox="0.00 0.00 887.00 916.00" xmlns="http://www.w3.org/2000/svg" xmlns:xlink="http://www.w3.org/1999/xlink">
<g id="graph0" class="graph" transform="scale(1 1) rotate(0) translate(4 912)">
<title>public.users</title>
<polygon fill="#ffffff" stroke="transparent" points="-4,4 -4,-912 883,-912 883,4 -4,4"/>
<!-- public.users -->
<g id="node1" class="node">
<title>public.users</title>
<polygon fill="#efefef" stroke="transparent" points="97,-402.5 97,-437.5 346,-437.5 346,-402.5 97,-402.5"/>
<polygon fill="none" stroke="#000000" points="97,-402.5 97,-437.5 346,-437.5 346,-402.5 97,-402.5"/>
<text text-anchor="start" x="124.8662" y="-415.3" font-family="Arial Bold" font-size="18.00" fill="#000000">public.users</text>
<text text-anchor="start" x="220.88" y="-415.3" font-family="Arial" font-size="14.00" fill="#000000"> </text>
<text text-anchor="start" x="224.7706" y="-415.3" font-family="Arial" font-size="14.00" fill="#666666">[BASE TABLE]</text>
<polygon fill="none" stroke="#000000" points="97,-372.5 97,-402.5 346,-402.5 346,-372.5 97,-372.5"/>
<text text-anchor="start" x="104" y="-383.9" font-family="Arial" font-size="14.00" fill="#000000">id </text>
<text text-anchor="start" x="118.7798" y="-383.9" font-family="Arial" font-size="14.00" fill="#666666">[bigint]</text>
<polygon fill="none" stroke="#000000" points="97,-342.5 97,-372.5 346,-372.5 346,-342.5 97,-342.5"/>
<text text-anchor="start" x="104" y="-353.9" font-family="Arial" font-size="14.00" fill="#000000">open_issues </text>
<text text-anchor="start" x="186.4754" y="-353.9" font-family="Arial" font-size="14.00" fill="#666666">[bigint]</text>
<polygon fill="none" stroke="#000000" points="97,-312.5 97,-342.5 346,-342.5 346,-312.5 97,-312.5"/>
<text text-anchor="start" x="104" y="-323.9" font-family="Arial" font-size="14.00" fill="#000000">has_stars_data </text>
<text text-anchor="start" x="203.5932" y="-323.9" font-family="Arial" font-size="14.00" fill="#666666">[boolean]</text>
<polygon fill="none" stroke="#000000" points="97,-282.5 97,-312.5 346,-312.5 346,-282.5 97,-282.5"/>
<text text-anchor="start" x="104" y="-293.9" font-family="Arial" font-size="14.00" fill="#000000">is_private </text>
<text text-anchor="start" x="167.7854" y="-293.9" font-family="Arial" font-size="14.00" fill="#666666">[boolean]</text>
<polygon fill="none" stroke="#000000" points="97,-252.5 97,-282.5 346,-282.5 346,-252.5 97,-252.5"/>
<text text-anchor="start" x="104" y="-263.9" font-family="Arial" font-size="14.00" fill="#000000">is_open_sauced_member </text>
<text text-anchor="start" x="268.9354" y="-263.9" font-family="Arial" font-size="14.00" fill="#666666">[boolean]</text>
<polygon fill="none" stroke="#000000" points="97,-222.5 97,-252.5 346,-252.5 346,-222.5 97,-222.5"/>
<text text-anchor="start" x="103.6438" y="-233.9" font-family="Arial" font-size="14.00" fill="#000000">created_at </text>
<text text-anchor="start" x="173.6718" y="-233.9" font-family="Arial" font-size="14.00" fill="#666666">[timestamp with time zone]</text>
<polygon fill="none" stroke="#000000" points="97,-192.5 97,-222.5 346,-222.5 346,-192.5 97,-192.5"/>
<text text-anchor="start" x="104" y="-203.9" font-family="Arial" font-size="14.00" fill="#000000">login </text>
<text text-anchor="start" x="137.4516" y="-203.9" font-family="Arial" font-size="14.00" fill="#666666">[varchar(255)]</text>
<polygon fill="none" stroke="#000000" stroke-width="3" points="95,-191.5 95,-439.5 347,-439.5 347,-191.5 95,-191.5"/>
</g>
<!-- public.users_to_repos_stars -->
<g id="node2" class="node">
<title>public.users_to_repos_stars</title>
<polygon fill="#efefef" stroke="transparent" points="43,-829.5 43,-864.5 379,-864.5 379,-829.5 43,-829.5"/>
<polygon fill="none" stroke="#000000" points="43,-829.5 43,-864.5 379,-864.5 379,-829.5 43,-829.5"/>
<text text-anchor="start" x="49.847" y="-842.3" font-family="Arial Bold" font-size="18.00" fill="#000000">public.users_to_repos_stars</text>
<text text-anchor="start" x="274.8992" y="-842.3" font-family="Arial" font-size="14.00" fill="#000000"> </text>
<text text-anchor="start" x="278.7898" y="-842.3" font-family="Arial" font-size="14.00" fill="#666666">[BASE TABLE]</text>
<polygon fill="none" stroke="#000000" points="43,-799.5 43,-829.5 379,-829.5 379,-799.5 43,-799.5"/>
<text text-anchor="start" x="50" y="-810.9" font-family="Arial" font-size="14.00" fill="#000000">id </text>
<text text-anchor="start" x="64.7798" y="-810.9" font-family="Arial" font-size="14.00" fill="#666666">[bigint]</text>
<polygon fill="none" stroke="#000000" points="43,-769.5 43,-799.5 379,-799.5 379,-769.5 43,-769.5"/>
<text text-anchor="start" x="50" y="-780.9" font-family="Arial" font-size="14.00" fill="#000000">user_id </text>
<text text-anchor="start" x="99.7882" y="-780.9" font-family="Arial" font-size="14.00" fill="#666666">[bigint]</text>
<polygon fill="none" stroke="#000000" points="43,-739.5 43,-769.5 379,-769.5 379,-739.5 43,-739.5"/>
<text text-anchor="start" x="50" y="-750.9" font-family="Arial" font-size="14.00" fill="#000000">repo_id </text>
<text text-anchor="start" x="100.5708" y="-750.9" font-family="Arial" font-size="14.00" fill="#666666">[bigint]</text>
<polygon fill="none" stroke="#000000" points="43,-709.5 43,-739.5 379,-739.5 379,-709.5 43,-709.5"/>
<text text-anchor="start" x="50" y="-720.9" font-family="Arial" font-size="14.00" fill="#000000">created_at </text>
<text text-anchor="start" x="120.028" y="-720.9" font-family="Arial" font-size="14.00" fill="#666666">[timestamp with time zone]</text>
</g>
<!-- public.users_to_repos_stars&#45;&gt;public.users -->
<g id="edge1" class="edge">
<title>public.users_to_repos_stars:user_id&#45;&gt;public.users:id</title>
<path fill="none" stroke="#000000" d="M389.347,-783.3564C427.1835,-774.012 402.0759,-709.4838 379,-667 307.6856,-535.7071 168.3144,-615.2929 97,-484 76.5289,-446.3119 54.1111,-387.5 97,-387.5"/>
<polygon fill="#000000" stroke="#000000" points="388.9395,-783.4014 378.5056,-780.0272 383.9697,-783.9507 379,-784.5 379,-784.5 379,-784.5 383.9697,-783.9507 379.4944,-788.9728 388.9395,-783.4014 388.9395,-783.4014"/>
<text text-anchor="start" x="386.3345" y="-794.5" font-family="Arial" font-size="10.00" fill="#000000">FOREIGN KEY (user_id) REFERENCES users(id)</text>
</g>
<!-- public.repos -->
<g id="node3" class="node">
<title>public.repos</title>
<polygon fill="#efefef" stroke="transparent" points="458,-552.5 458,-587.5 836,-587.5 836,-552.5 458,-552.5"/>
<polygon fill="none" stroke="#000000" points="458,-552.5 458,-587.5 836,-587.5 836,-552.5 458,-552.5"/>
<text text-anchor="start" x="549.8631" y="-565.3" font-family="Arial Bold" font-size="18.00" fill="#000000">public.repos</text>
<text text-anchor="start" x="646.8831" y="-565.3" font-family="Arial" font-size="14.00" fill="#000000"> </text>
<text text-anchor="start" x="650.7737" y="-565.3" font-family="Arial" font-size="14.00" fill="#666666">[BASE TABLE]</text>
<polygon fill="none" stroke="#000000" points="458,-522.5 458,-552.5 836,-552.5 836,-522.5 458,-522.5"/>
<text text-anchor="start" x="465" y="-533.9" font-family="Arial" font-size="14.00" fill="#000000">id </text>
<text text-anchor="start" x="479.7798" y="-533.9" font-family="Arial" font-size="14.00" fill="#666666">[bigint]</text>
<polygon fill="none" stroke="#000000" points="458,-492.5 458,-522.5 836,-522.5 836,-492.5 458,-492.5"/>
<text text-anchor="start" x="465" y="-503.9" font-family="Arial" font-size="14.00" fill="#000000">user_id </text>
<text text-anchor="start" x="514.7882" y="-503.9" font-family="Arial" font-size="14.00" fill="#666666">[bigint]</text>
<polygon fill="none" stroke="#000000" points="458,-462.5 458,-492.5 836,-492.5 836,-462.5 458,-462.5"/>
<text text-anchor="start" x="465" y="-473.9" font-family="Arial" font-size="14.00" fill="#000000">issues </text>
<text text-anchor="start" x="508.5624" y="-473.9" font-family="Arial" font-size="14.00" fill="#666666">[bigint]</text>
<polygon fill="none" stroke="#000000" points="458,-432.5 458,-462.5 836,-462.5 836,-432.5 458,-432.5"/>
<text text-anchor="start" x="465" y="-443.9" font-family="Arial" font-size="14.00" fill="#000000">stars </text>
<text text-anchor="start" x="499.2244" y="-443.9" font-family="Arial" font-size="14.00" fill="#666666">[bigint]</text>
<polygon fill="none" stroke="#000000" points="458,-402.5 458,-432.5 836,-432.5 836,-402.5 458,-402.5"/>
<text text-anchor="start" x="465" y="-413.9" font-family="Arial" font-size="14.00" fill="#000000">watchers </text>
<text text-anchor="start" x="524.8962" y="-413.9" font-family="Arial" font-size="14.00" fill="#666666">[bigint]</text>
<polygon fill="none" stroke="#000000" points="458,-372.5 458,-402.5 836,-402.5 836,-372.5 458,-372.5"/>
<text text-anchor="start" x="465" y="-383.9" font-family="Arial" font-size="14.00" fill="#000000">subscribers </text>
<text text-anchor="start" x="540.4488" y="-383.9" font-family="Arial" font-size="14.00" fill="#666666">[bigint]</text>
<polygon fill="none" stroke="#000000" points="458,-342.5 458,-372.5 836,-372.5 836,-342.5 458,-342.5"/>
<text text-anchor="start" x="465" y="-353.9" font-family="Arial" font-size="14.00" fill="#000000">is_fork </text>
<text text-anchor="start" x="510.1136" y="-353.9" font-family="Arial" font-size="14.00" fill="#666666">[boolean]</text>
<polygon fill="none" stroke="#000000" points="458,-312.5 458,-342.5 836,-342.5 836,-312.5 458,-312.5"/>
<text text-anchor="start" x="465" y="-323.9" font-family="Arial" font-size="14.00" fill="#000000">created_at </text>
<text text-anchor="start" x="535.028" y="-323.9" font-family="Arial" font-size="14.00" fill="#666666">[timestamp without time zone]</text>
<polygon fill="none" stroke="#000000" points="458,-282.5 458,-312.5 836,-312.5 836,-282.5 458,-282.5"/>
<text text-anchor="start" x="465" y="-293.9" font-family="Arial" font-size="14.00" fill="#000000">updated_at </text>
<text text-anchor="start" x="538.9326" y="-293.9" font-family="Arial" font-size="14.00" fill="#666666">[timestamp without time zone]</text>
<polygon fill="none" stroke="#000000" points="458,-252.5 458,-282.5 836,-282.5 836,-252.5 458,-252.5"/>
<text text-anchor="start" x="465" y="-263.9" font-family="Arial" font-size="14.00" fill="#000000">pushed_at </text>
<text text-anchor="start" x="534.2594" y="-263.9" font-family="Arial" font-size="14.00" fill="#666666">[timestamp without time zone]</text>
<polygon fill="none" stroke="#000000" points="458,-222.5 458,-252.5 836,-252.5 836,-222.5 458,-222.5"/>
<text text-anchor="start" x="464.5674" y="-233.9" font-family="Arial" font-size="14.00" fill="#000000">last_fetched_contributors_at </text>
<text text-anchor="start" x="644.2924" y="-233.9" font-family="Arial" font-size="14.00" fill="#666666">[timestamp without time zone]</text>
<polygon fill="none" stroke="#000000" points="458,-192.5 458,-222.5 836,-222.5 836,-192.5 458,-192.5"/>
<text text-anchor="start" x="465" y="-203.9" font-family="Arial" font-size="14.00" fill="#000000">name </text>
<text text-anchor="start" x="503.899" y="-203.9" font-family="Arial" font-size="14.00" fill="#666666">[varchar(255)]</text>
<polygon fill="none" stroke="#000000" points="458,-162.5 458,-192.5 836,-192.5 836,-162.5 458,-162.5"/>
<text text-anchor="start" x="465" y="-173.9" font-family="Arial" font-size="14.00" fill="#000000">full_name </text>
<text text-anchor="start" x="529.568" y="-173.9" font-family="Arial" font-size="14.00" fill="#666666">[varchar(255)]</text>
<polygon fill="none" stroke="#000000" points="458,-132.5 458,-162.5 836,-162.5 836,-132.5 458,-132.5"/>
<text text-anchor="start" x="465" y="-143.9" font-family="Arial" font-size="14.00" fill="#000000">description </text>
<text text-anchor="start" x="536.568" y="-143.9" font-family="Arial" font-size="14.00" fill="#666666">[text]</text>
<polygon fill="none" stroke="#000000" points="458,-102.5 458,-132.5 836,-132.5 836,-102.5 458,-102.5"/>
<text text-anchor="start" x="465" y="-113.9" font-family="Arial" font-size="14.00" fill="#000000">language </text>
<text text-anchor="start" x="526.4754" y="-113.9" font-family="Arial" font-size="14.00" fill="#666666">[varchar(64)]</text>
<polygon fill="none" stroke="#000000" points="458,-72.5 458,-102.5 836,-102.5 836,-72.5 458,-72.5"/>
<text text-anchor="start" x="465" y="-83.9" font-family="Arial" font-size="14.00" fill="#000000">license </text>
<text text-anchor="start" x="512.4516" y="-83.9" font-family="Arial" font-size="14.00" fill="#666666">[varchar(64)]</text>
<polygon fill="none" stroke="#000000" points="458,-42.5 458,-72.5 836,-72.5 836,-42.5 458,-42.5"/>
<text text-anchor="start" x="465" y="-53.9" font-family="Arial" font-size="14.00" fill="#000000">url </text>
<text text-anchor="start" x="484.4404" y="-53.9" font-family="Arial" font-size="14.00" fill="#666666">[varchar(255)]</text>
</g>
<!-- public.users_to_repos_stars&#45;&gt;public.repos -->
<g id="edge2" class="edge">
<title>public.users_to_repos_stars:repo_id&#45;&gt;public.repos:id</title>
<path fill="none" stroke="#000000" d="M388.9961,-753.7142C473.0411,-739.5104 358.9715,-537.5 458,-537.5"/>
<polygon fill="#000000" stroke="#000000" points="388.9692,-753.7163 378.6473,-750.0138 383.9846,-754.1081 379,-754.5 379,-754.5 379,-754.5 383.9846,-754.1081 379.3527,-758.9862 388.9692,-753.7163 388.9692,-753.7163"/>
<text text-anchor="start" x="385.7755" y="-764.5" font-family="Arial" font-size="10.00" fill="#000000">FOREIGN KEY (repo_id) REFERENCES repos(id)</text>
</g>
<!-- public.users_to_repos_votes -->
<g id="node4" class="node">
<title>public.users_to_repos_votes</title>
<polygon fill="#efefef" stroke="transparent" points="483,-829.5 483,-864.5 823,-864.5 823,-829.5 483,-829.5"/>
<polygon fill="none" stroke="#000000" points="483,-829.5 483,-864.5 823,-864.5 823,-829.5 483,-829.5"/>
<text text-anchor="start" x="489.84" y="-842.3" font-family="Arial Bold" font-size="18.00" fill="#000000">public.users_to_repos_votes</text>
<text text-anchor="start" x="718.9062" y="-842.3" font-family="Arial" font-size="14.00" fill="#000000"> </text>
<text text-anchor="start" x="722.7968" y="-842.3" font-family="Arial" font-size="14.00" fill="#666666">[BASE TABLE]</text>
<polygon fill="none" stroke="#000000" points="483,-799.5 483,-829.5 823,-829.5 823,-799.5 483,-799.5"/>
<text text-anchor="start" x="490" y="-810.9" font-family="Arial" font-size="14.00" fill="#000000">id </text>
<text text-anchor="start" x="504.7798" y="-810.9" font-family="Arial" font-size="14.00" fill="#666666">[bigint]</text>
<polygon fill="none" stroke="#000000" points="483,-769.5 483,-799.5 823,-799.5 823,-769.5 483,-769.5"/>
<text text-anchor="start" x="490" y="-780.9" font-family="Arial" font-size="14.00" fill="#000000">user_id </text>
<text text-anchor="start" x="539.7882" y="-780.9" font-family="Arial" font-size="14.00" fill="#666666">[bigint]</text>
<polygon fill="none" stroke="#000000" points="483,-739.5 483,-769.5 823,-769.5 823,-739.5 483,-739.5"/>
<text text-anchor="start" x="490" y="-750.9" font-family="Arial" font-size="14.00" fill="#000000">repo_id </text>
<text text-anchor="start" x="540.5708" y="-750.9" font-family="Arial" font-size="14.00" fill="#666666">[bigint]</text>
<polygon fill="none" stroke="#000000" points="483,-709.5 483,-739.5 823,-739.5 823,-709.5 483,-709.5"/>
<text text-anchor="start" x="490" y="-720.9" font-family="Arial" font-size="14.00" fill="#000000">created_at </text>
<text text-anchor="start" x="560.028" y="-720.9" font-family="Arial" font-size="14.00" fill="#666666">[timestamp with time zone]</text>
</g>
<!-- public.users_to_repos_votes&#45;&gt;public.users -->
<g id="edge3" class="edge">
<title>public.users_to_repos_votes:user_id&#45;&gt;public.users:id</title>
<path fill="none" stroke="#000000" d="M472.7719,-783.6293C430.0162,-775.5863 457.1118,-713.4833 431,-667 421.4596,-650.0165 414.0193,-648.7524 406,-631 360.1151,-529.4238 457.4592,-387.5 346,-387.5"/>
<polygon fill="#000000" stroke="#000000" points="473.036,-783.6517 482.6183,-788.9838 478.018,-784.0759 483,-784.5 483,-784.5 483,-784.5 478.018,-784.0759 483.3817,-780.0162 473.036,-783.6517 473.036,-783.6517"/>
<text text-anchor="start" x="312.5845" y="-768.5" font-family="Arial" font-size="10.00" fill="#000000">FOREIGN KEY (user_id) REFERENCES users(id)</text>
</g>
<!-- public.users_to_repos_votes&#45;&gt;public.repos -->
<g id="edge4" class="edge">
<title>public.users_to_repos_votes:repo_id&#45;&gt;public.repos:id</title>
<path fill="none" stroke="#000000" d="M473.0504,-752.9046C446.7418,-743.3309 459.4792,-693.0415 483,-667 535.8522,-608.4836 783.1478,-689.5164 836,-631 863.8537,-600.1612 877.5556,-537.5 836,-537.5"/>
<polygon fill="#000000" stroke="#000000" points="473.1261,-752.9167 482.2875,-758.9432 478.0631,-753.7083 483,-754.5 483,-754.5 483,-754.5 478.0631,-753.7083 483.7125,-750.0568 473.1261,-752.9167 473.1261,-752.9167"/>
<text text-anchor="start" x="430.2755" y="-738.5" font-family="Arial" font-size="10.00" fill="#000000">FOREIGN KEY (repo_id) REFERENCES repos(id)</text>
</g>
</g>
</svg>
