<?xml version="1.0" encoding="UTF-8" standalone="no"?>
<!DOCTYPE svg PUBLIC "-//W3C//DTD SVG 1.1//EN"
 "http://www.w3.org/Graphics/SVG/1.1/DTD/svg11.dtd">
<!-- Generated by graphviz version 2.40.1 (20161225.0304)
 -->
<!-- Title: public.users_to_repos_stars Pages: 1 -->
<svg width="2270pt" height="1096pt"
 viewBox="0.00 0.00 2269.50 1096.00" xmlns="http://www.w3.org/2000/svg" xmlns:xlink="http://www.w3.org/1999/xlink">
<g id="graph0" class="graph" transform="scale(1 1) rotate(0) translate(4 1092)">
<title>public.users_to_repos_stars</title>
<polygon fill="#ffffff" stroke="transparent" points="-4,4 -4,-1092 2265.5,-1092 2265.5,4 -4,4"/>
<!-- public.users_to_repos_stars -->
<g id="node1" class="node">
<title>public.users_to_repos_stars</title>
<polygon fill="#efefef" stroke="transparent" points="1476,-964.5 1476,-999.5 1812,-999.5 1812,-964.5 1476,-964.5"/>
<polygon fill="none" stroke="#000000" points="1476,-964.5 1476,-999.5 1812,-999.5 1812,-964.5 1476,-964.5"/>
<text text-anchor="start" x="1482.847" y="-977.3" font-family="Arial Bold" font-size="18.00" fill="#000000">public.users_to_repos_stars</text>
<text text-anchor="start" x="1707.8992" y="-977.3" font-family="Arial" font-size="14.00" fill="#000000"> </text>
<text text-anchor="start" x="1711.7898" y="-977.3" font-family="Arial" font-size="14.00" fill="#666666">[BASE TABLE]</text>
<polygon fill="none" stroke="#000000" points="1476,-934.5 1476,-964.5 1812,-964.5 1812,-934.5 1476,-934.5"/>
<text text-anchor="start" x="1483" y="-945.9" font-family="Arial" font-size="14.00" fill="#000000">id </text>
<text text-anchor="start" x="1497.7798" y="-945.9" font-family="Arial" font-size="14.00" fill="#666666">[bigint]</text>
<polygon fill="none" stroke="#000000" points="1476,-904.5 1476,-934.5 1812,-934.5 1812,-904.5 1476,-904.5"/>
<text text-anchor="start" x="1483" y="-915.9" font-family="Arial" font-size="14.00" fill="#000000">user_id </text>
<text text-anchor="start" x="1532.7882" y="-915.9" font-family="Arial" font-size="14.00" fill="#666666">[bigint]</text>
<polygon fill="none" stroke="#000000" points="1476,-874.5 1476,-904.5 1812,-904.5 1812,-874.5 1476,-874.5"/>
<text text-anchor="start" x="1483" y="-885.9" font-family="Arial" font-size="14.00" fill="#000000">repo_id </text>
<text text-anchor="start" x="1533.5708" y="-885.9" font-family="Arial" font-size="14.00" fill="#666666">[bigint]</text>
<polygon fill="none" stroke="#000000" points="1476,-844.5 1476,-874.5 1812,-874.5 1812,-844.5 1476,-844.5"/>
<text text-anchor="start" x="1483" y="-855.9" font-family="Arial" font-size="14.00" fill="#000000">created_at </text>
<text text-anchor="start" x="1553.028" y="-855.9" font-family="Arial" font-size="14.00" fill="#666666">[timestamp with time zone]</text>
<polygon fill="none" stroke="#000000" points="1476,-814.5 1476,-844.5 1812,-844.5 1812,-814.5 1476,-814.5"/>
<text text-anchor="start" x="1483" y="-825.9" font-family="Arial" font-size="14.00" fill="#000000">updated_at </text>
<text text-anchor="start" x="1556.9326" y="-825.9" font-family="Arial" font-size="14.00" fill="#666666">[timestamp with time zone]</text>
<polygon fill="none" stroke="#000000" points="1476,-784.5 1476,-814.5 1812,-814.5 1812,-784.5 1476,-784.5"/>
<text text-anchor="start" x="1483" y="-795.9" font-family="Arial" font-size="14.00" fill="#000000">deleted_at </text>
<text text-anchor="start" x="1552.2566" y="-795.9" font-family="Arial" font-size="14.00" fill="#666666">[timestamp with time zone]</text>
<polygon fill="none" stroke="#000000" stroke-width="3" points="1474.5,-783.5 1474.5,-1001.5 1813.5,-1001.5 1813.5,-783.5 1474.5,-783.5"/>
</g>
<!-- public.users -->
<g id="node2" class="node">
<title>public.users</title>
<polygon fill="#efefef" stroke="transparent" points="596,-447.5 596,-482.5 849,-482.5 849,-447.5 596,-447.5"/>
<polygon fill="none" stroke="#000000" points="596,-447.5 596,-482.5 849,-482.5 849,-447.5 596,-447.5"/>
<text text-anchor="start" x="625.8662" y="-460.3" font-family="Arial Bold" font-size="18.00" fill="#000000">public.users</text>
<text text-anchor="start" x="721.88" y="-460.3" font-family="Arial" font-size="14.00" fill="#000000"> </text>
<text text-anchor="start" x="725.7706" y="-460.3" font-family="Arial" font-size="14.00" fill="#666666">[BASE TABLE]</text>
<polygon fill="none" stroke="#000000" points="596,-417.5 596,-447.5 849,-447.5 849,-417.5 596,-417.5"/>
<text text-anchor="start" x="603" y="-428.9" font-family="Arial" font-size="14.00" fill="#000000">id </text>
<text text-anchor="start" x="617.7798" y="-428.9" font-family="Arial" font-size="14.00" fill="#666666">[bigint]</text>
<polygon fill="none" stroke="#000000" points="596,-387.5 596,-417.5 849,-417.5 849,-387.5 596,-387.5"/>
<text text-anchor="start" x="603" y="-398.9" font-family="Arial" font-size="14.00" fill="#000000">open_issues </text>
<text text-anchor="start" x="685.4754" y="-398.9" font-family="Arial" font-size="14.00" fill="#666666">[bigint]</text>
<polygon fill="none" stroke="#000000" points="596,-357.5 596,-387.5 849,-387.5 849,-357.5 596,-357.5"/>
<text text-anchor="start" x="603" y="-368.9" font-family="Arial" font-size="14.00" fill="#000000">has_stars_data </text>
<text text-anchor="start" x="702.5932" y="-368.9" font-family="Arial" font-size="14.00" fill="#666666">[boolean]</text>
<polygon fill="none" stroke="#000000" points="596,-327.5 596,-357.5 849,-357.5 849,-327.5 596,-327.5"/>
<text text-anchor="start" x="603" y="-338.9" font-family="Arial" font-size="14.00" fill="#000000">is_private </text>
<text text-anchor="start" x="666.7854" y="-338.9" font-family="Arial" font-size="14.00" fill="#666666">[boolean]</text>
<polygon fill="none" stroke="#000000" points="596,-297.5 596,-327.5 849,-327.5 849,-297.5 596,-297.5"/>
<text text-anchor="start" x="603" y="-308.9" font-family="Arial" font-size="14.00" fill="#000000">is_open_sauced_member </text>
<text text-anchor="start" x="767.9354" y="-308.9" font-family="Arial" font-size="14.00" fill="#666666">[boolean]</text>
<polygon fill="none" stroke="#000000" points="596,-267.5 596,-297.5 849,-297.5 849,-267.5 596,-267.5"/>
<text text-anchor="start" x="603" y="-278.9" font-family="Arial" font-size="14.00" fill="#000000">created_at </text>
<text text-anchor="start" x="673.028" y="-278.9" font-family="Arial" font-size="14.00" fill="#666666">[timestamp with time zone]</text>
<polygon fill="none" stroke="#000000" points="596,-237.5 596,-267.5 849,-267.5 849,-237.5 596,-237.5"/>
<text text-anchor="start" x="603" y="-248.9" font-family="Arial" font-size="14.00" fill="#000000">login </text>
<text text-anchor="start" x="636.4516" y="-248.9" font-family="Arial" font-size="14.00" fill="#666666">[varchar(255)]</text>
<polygon fill="none" stroke="#000000" points="596,-207.5 596,-237.5 849,-237.5 849,-207.5 596,-207.5"/>
<text text-anchor="start" x="603" y="-218.9" font-family="Arial" font-size="14.00" fill="#000000">deleted_at </text>
<text text-anchor="start" x="672.2566" y="-218.9" font-family="Arial" font-size="14.00" fill="#666666">[timestamp with time zone]</text>
<polygon fill="none" stroke="#000000" points="596,-177.5 596,-207.5 849,-207.5 849,-177.5 596,-177.5"/>
<text text-anchor="start" x="602.6915" y="-188.9" font-family="Arial" font-size="14.00" fill="#000000">updated_at </text>
<text text-anchor="start" x="676.6241" y="-188.9" font-family="Arial" font-size="14.00" fill="#666666">[timestamp with time zone]</text>
</g>
<!-- public.users_to_repos_stars&#45;&gt;public.users -->
<g id="edge1" class="edge">
<title>public.users_to_repos_stars:user_id&#45;&gt;public.users:id</title>
<path fill="none" stroke="#000000" d="M1465.825,-918.8977C1382.8805,-908.2901 1496.0052,-760.3596 1421,-697 1338.7785,-627.5445 1024.5301,-725.0077 938,-661 850.3798,-596.1859 957.987,-432.5 849,-432.5"/>
<polygon fill="#000000" stroke="#000000" points="1466.0175,-918.909 1475.734,-923.9921 1471.0087,-919.2045 1476,-919.5 1476,-919.5 1476,-919.5 1471.0087,-919.2045 1476.266,-915.0079 1466.0175,-918.909 1466.0175,-918.909"/>
<text text-anchor="start" x="1424.0845" y="-903.5" font-family="Arial" font-size="10.00" fill="#000000">FOREIGN KEY (user_id) REFERENCES users(id)</text>
</g>
<!-- public.repos -->
<g id="node6" class="node">
<title>public.repos</title>
<polygon fill="#efefef" stroke="transparent" points="990,-582.5 990,-617.5 1368,-617.5 1368,-582.5 990,-582.5"/>
<polygon fill="none" stroke="#000000" points="990,-582.5 990,-617.5 1368,-617.5 1368,-582.5 990,-582.5"/>
<text text-anchor="start" x="1081.8631" y="-595.3" font-family="Arial Bold" font-size="18.00" fill="#000000">public.repos</text>
<text text-anchor="start" x="1178.8831" y="-595.3" font-family="Arial" font-size="14.00" fill="#000000"> </text>
<text text-anchor="start" x="1182.7737" y="-595.3" font-family="Arial" font-size="14.00" fill="#666666">[BASE TABLE]</text>
<polygon fill="none" stroke="#000000" points="990,-552.5 990,-582.5 1368,-582.5 1368,-552.5 990,-552.5"/>
<text text-anchor="start" x="997" y="-563.9" font-family="Arial" font-size="14.00" fill="#000000">id </text>
<text text-anchor="start" x="1011.7798" y="-563.9" font-family="Arial" font-size="14.00" fill="#666666">[bigint]</text>
<polygon fill="none" stroke="#000000" points="990,-522.5 990,-552.5 1368,-552.5 1368,-522.5 990,-522.5"/>
<text text-anchor="start" x="997" y="-533.9" font-family="Arial" font-size="14.00" fill="#000000">user_id </text>
<text text-anchor="start" x="1046.7882" y="-533.9" font-family="Arial" font-size="14.00" fill="#666666">[bigint]</text>
<polygon fill="none" stroke="#000000" points="990,-492.5 990,-522.5 1368,-522.5 1368,-492.5 990,-492.5"/>
<text text-anchor="start" x="997" y="-503.9" font-family="Arial" font-size="14.00" fill="#000000">issues </text>
<text text-anchor="start" x="1040.5624" y="-503.9" font-family="Arial" font-size="14.00" fill="#666666">[bigint]</text>
<polygon fill="none" stroke="#000000" points="990,-462.5 990,-492.5 1368,-492.5 1368,-462.5 990,-462.5"/>
<text text-anchor="start" x="997" y="-473.9" font-family="Arial" font-size="14.00" fill="#000000">stars </text>
<text text-anchor="start" x="1031.2244" y="-473.9" font-family="Arial" font-size="14.00" fill="#666666">[bigint]</text>
<polygon fill="none" stroke="#000000" points="990,-432.5 990,-462.5 1368,-462.5 1368,-432.5 990,-432.5"/>
<text text-anchor="start" x="997" y="-443.9" font-family="Arial" font-size="14.00" fill="#000000">watchers </text>
<text text-anchor="start" x="1056.8962" y="-443.9" font-family="Arial" font-size="14.00" fill="#666666">[bigint]</text>
<polygon fill="none" stroke="#000000" points="990,-402.5 990,-432.5 1368,-432.5 1368,-402.5 990,-402.5"/>
<text text-anchor="start" x="997" y="-413.9" font-family="Arial" font-size="14.00" fill="#000000">subscribers </text>
<text text-anchor="start" x="1072.4488" y="-413.9" font-family="Arial" font-size="14.00" fill="#666666">[bigint]</text>
<polygon fill="none" stroke="#000000" points="990,-372.5 990,-402.5 1368,-402.5 1368,-372.5 990,-372.5"/>
<text text-anchor="start" x="997" y="-383.9" font-family="Arial" font-size="14.00" fill="#000000">is_fork </text>
<text text-anchor="start" x="1042.1136" y="-383.9" font-family="Arial" font-size="14.00" fill="#666666">[boolean]</text>
<polygon fill="none" stroke="#000000" points="990,-342.5 990,-372.5 1368,-372.5 1368,-342.5 990,-342.5"/>
<text text-anchor="start" x="997" y="-353.9" font-family="Arial" font-size="14.00" fill="#000000">created_at </text>
<text text-anchor="start" x="1067.028" y="-353.9" font-family="Arial" font-size="14.00" fill="#666666">[timestamp without time zone]</text>
<polygon fill="none" stroke="#000000" points="990,-312.5 990,-342.5 1368,-342.5 1368,-312.5 990,-312.5"/>
<text text-anchor="start" x="997" y="-323.9" font-family="Arial" font-size="14.00" fill="#000000">updated_at </text>
<text text-anchor="start" x="1070.9326" y="-323.9" font-family="Arial" font-size="14.00" fill="#666666">[timestamp without time zone]</text>
<polygon fill="none" stroke="#000000" points="990,-282.5 990,-312.5 1368,-312.5 1368,-282.5 990,-282.5"/>
<text text-anchor="start" x="997" y="-293.9" font-family="Arial" font-size="14.00" fill="#000000">pushed_at </text>
<text text-anchor="start" x="1066.2594" y="-293.9" font-family="Arial" font-size="14.00" fill="#666666">[timestamp without time zone]</text>
<polygon fill="none" stroke="#000000" points="990,-252.5 990,-282.5 1368,-282.5 1368,-252.5 990,-252.5"/>
<text text-anchor="start" x="996.5674" y="-263.9" font-family="Arial" font-size="14.00" fill="#000000">last_fetched_contributors_at </text>
<text text-anchor="start" x="1176.2924" y="-263.9" font-family="Arial" font-size="14.00" fill="#666666">[timestamp without time zone]</text>
<polygon fill="none" stroke="#000000" points="990,-222.5 990,-252.5 1368,-252.5 1368,-222.5 990,-222.5"/>
<text text-anchor="start" x="997" y="-233.9" font-family="Arial" font-size="14.00" fill="#000000">name </text>
<text text-anchor="start" x="1035.899" y="-233.9" font-family="Arial" font-size="14.00" fill="#666666">[varchar(255)]</text>
<polygon fill="none" stroke="#000000" points="990,-192.5 990,-222.5 1368,-222.5 1368,-192.5 990,-192.5"/>
<text text-anchor="start" x="997" y="-203.9" font-family="Arial" font-size="14.00" fill="#000000">full_name </text>
<text text-anchor="start" x="1061.568" y="-203.9" font-family="Arial" font-size="14.00" fill="#666666">[varchar(255)]</text>
<polygon fill="none" stroke="#000000" points="990,-162.5 990,-192.5 1368,-192.5 1368,-162.5 990,-162.5"/>
<text text-anchor="start" x="997" y="-173.9" font-family="Arial" font-size="14.00" fill="#000000">description </text>
<text text-anchor="start" x="1068.568" y="-173.9" font-family="Arial" font-size="14.00" fill="#666666">[text]</text>
<polygon fill="none" stroke="#000000" points="990,-132.5 990,-162.5 1368,-162.5 1368,-132.5 990,-132.5"/>
<text text-anchor="start" x="997" y="-143.9" font-family="Arial" font-size="14.00" fill="#000000">language </text>
<text text-anchor="start" x="1058.4754" y="-143.9" font-family="Arial" font-size="14.00" fill="#666666">[varchar(64)]</text>
<polygon fill="none" stroke="#000000" points="990,-102.5 990,-132.5 1368,-132.5 1368,-102.5 990,-102.5"/>
<text text-anchor="start" x="997" y="-113.9" font-family="Arial" font-size="14.00" fill="#000000">license </text>
<text text-anchor="start" x="1044.4516" y="-113.9" font-family="Arial" font-size="14.00" fill="#666666">[varchar(64)]</text>
<polygon fill="none" stroke="#000000" points="990,-72.5 990,-102.5 1368,-102.5 1368,-72.5 990,-72.5"/>
<text text-anchor="start" x="997" y="-83.9" font-family="Arial" font-size="14.00" fill="#000000">url </text>
<text text-anchor="start" x="1016.4404" y="-83.9" font-family="Arial" font-size="14.00" fill="#666666">[varchar(255)]</text>
<polygon fill="none" stroke="#000000" points="990,-42.5 990,-72.5 1368,-72.5 1368,-42.5 990,-42.5"/>
<text text-anchor="start" x="997" y="-53.9" font-family="Arial" font-size="14.00" fill="#000000">deleted_at </text>
<text text-anchor="start" x="1066.2566" y="-53.9" font-family="Arial" font-size="14.00" fill="#666666">[timestamp with time zone]</text>
</g>
<!-- public.users_to_repos_stars&#45;&gt;public.repos -->
<g id="edge5" class="edge">
<title>public.users_to_repos_stars:repo_id&#45;&gt;public.repos:id</title>
<path fill="none" stroke="#000000" d="M1465.802,-888.962C1392.0417,-880.6471 1448.9235,-777.6314 1421,-697 1400.649,-638.2348 1430.1893,-567.5 1368,-567.5"/>
<polygon fill="#000000" stroke="#000000" points="1466.0139,-888.9731 1475.7629,-893.9938 1471.0069,-889.2365 1476,-889.5 1476,-889.5 1476,-889.5 1471.0069,-889.2365 1476.2371,-885.0062 1466.0139,-888.9731 1466.0139,-888.9731"/>
<text text-anchor="start" x="1423.2755" y="-873.5" font-family="Arial" font-size="10.00" fill="#000000">FOREIGN KEY (repo_id) REFERENCES repos(id)</text>
</g>
<!-- public.users_to_repos_votes -->
<g id="node3" class="node">
<title>public.users_to_repos_votes</title>
<polygon fill="#efefef" stroke="transparent" points="43,-964.5 43,-999.5 383,-999.5 383,-964.5 43,-964.5"/>
<polygon fill="none" stroke="#000000" points="43,-964.5 43,-999.5 383,-999.5 383,-964.5 43,-964.5"/>
<text text-anchor="start" x="49.84" y="-977.3" font-family="Arial Bold" font-size="18.00" fill="#000000">public.users_to_repos_votes</text>
<text text-anchor="start" x="278.9062" y="-977.3" font-family="Arial" font-size="14.00" fill="#000000"> </text>
<text text-anchor="start" x="282.7968" y="-977.3" font-family="Arial" font-size="14.00" fill="#666666">[BASE TABLE]</text>
<polygon fill="none" stroke="#000000" points="43,-934.5 43,-964.5 383,-964.5 383,-934.5 43,-934.5"/>
<text text-anchor="start" x="50" y="-945.9" font-family="Arial" font-size="14.00" fill="#000000">id </text>
<text text-anchor="start" x="64.7798" y="-945.9" font-family="Arial" font-size="14.00" fill="#666666">[bigint]</text>
<polygon fill="none" stroke="#000000" points="43,-904.5 43,-934.5 383,-934.5 383,-904.5 43,-904.5"/>
<text text-anchor="start" x="50" y="-915.9" font-family="Arial" font-size="14.00" fill="#000000">user_id </text>
<text text-anchor="start" x="99.7882" y="-915.9" font-family="Arial" font-size="14.00" fill="#666666">[bigint]</text>
<polygon fill="none" stroke="#000000" points="43,-874.5 43,-904.5 383,-904.5 383,-874.5 43,-874.5"/>
<text text-anchor="start" x="50" y="-885.9" font-family="Arial" font-size="14.00" fill="#000000">repo_id </text>
<text text-anchor="start" x="100.5708" y="-885.9" font-family="Arial" font-size="14.00" fill="#666666">[bigint]</text>
<polygon fill="none" stroke="#000000" points="43,-844.5 43,-874.5 383,-874.5 383,-844.5 43,-844.5"/>
<text text-anchor="start" x="50" y="-855.9" font-family="Arial" font-size="14.00" fill="#000000">created_at </text>
<text text-anchor="start" x="120.028" y="-855.9" font-family="Arial" font-size="14.00" fill="#666666">[timestamp with time zone]</text>
<polygon fill="none" stroke="#000000" points="43,-814.5 43,-844.5 383,-844.5 383,-814.5 43,-814.5"/>
<text text-anchor="start" x="50" y="-825.9" font-family="Arial" font-size="14.00" fill="#000000">updated_at </text>
<text text-anchor="start" x="123.9326" y="-825.9" font-family="Arial" font-size="14.00" fill="#666666">[timestamp with time zone]</text>
<polygon fill="none" stroke="#000000" points="43,-784.5 43,-814.5 383,-814.5 383,-784.5 43,-784.5"/>
<text text-anchor="start" x="50" y="-795.9" font-family="Arial" font-size="14.00" fill="#000000">deleted_at </text>
<text text-anchor="start" x="119.2566" y="-795.9" font-family="Arial" font-size="14.00" fill="#666666">[timestamp with time zone]</text>
</g>
<!-- public.users_to_repos_votes&#45;&gt;public.users -->
<g id="edge2" class="edge">
<title>public.users_to_repos_votes:user_id&#45;&gt;public.users:id</title>
<path fill="none" stroke="#000000" d="M393.0216,-919.0306C478.5229,-910.5073 397.9121,-787.6931 435,-697 487.0911,-569.6186 458.3791,-432.5 596,-432.5"/>
<polygon fill="#000000" stroke="#000000" points="392.989,-919.032 382.7894,-915.0049 387.9945,-919.266 383,-919.5 383,-919.5 383,-919.5 387.9945,-919.266 383.2106,-923.9951 392.989,-919.032 392.989,-919.032"/>
<text text-anchor="start" x="390.3345" y="-929.5" font-family="Arial" font-size="10.00" fill="#000000">FOREIGN KEY (user_id) REFERENCES users(id)</text>
</g>
<!-- public.users_to_repos_votes&#45;&gt;public.repos -->
<g id="edge7" class="edge">
<title>public.users_to_repos_votes:repo_id&#45;&gt;public.repos:id</title>
<path fill="none" stroke="#000000" d="M393.3814,-888.7641C462.9309,-877.9639 369.7017,-751.1255 435,-697 514.7942,-630.8588 806.2676,-705.2268 900,-661 952.1638,-636.387 932.321,-567.5 990,-567.5"/>
<polygon fill="#000000" stroke="#000000" points="392.975,-888.7928 382.6818,-885.0113 387.9875,-889.1464 383,-889.5 383,-889.5 383,-889.5 387.9875,-889.1464 383.3182,-893.9887 392.975,-888.7928 392.975,-888.7928"/>
<text text-anchor="start" x="389.7755" y="-899.5" font-family="Arial" font-size="10.00" fill="#000000">FOREIGN KEY (repo_id) REFERENCES repos(id)</text>
</g>
<!-- public.users_to_repos_submissions -->
<g id="node4" class="node">
<title>public.users_to_repos_submissions</title>
<polygon fill="#efefef" stroke="transparent" points="487,-979.5 487,-1014.5 883,-1014.5 883,-979.5 487,-979.5"/>
<polygon fill="none" stroke="#000000" points="487,-979.5 487,-1014.5 883,-1014.5 883,-979.5 487,-979.5"/>
<text text-anchor="start" x="493.8446" y="-992.3" font-family="Arial Bold" font-size="18.00" fill="#000000">public.users_to_repos_submissions</text>
<text text-anchor="start" x="778.9016" y="-992.3" font-family="Arial" font-size="14.00" fill="#000000"> </text>
<text text-anchor="start" x="782.7922" y="-992.3" font-family="Arial" font-size="14.00" fill="#666666">[BASE TABLE]</text>
<polygon fill="none" stroke="#000000" points="487,-949.5 487,-979.5 883,-979.5 883,-949.5 487,-949.5"/>
<text text-anchor="start" x="494" y="-960.9" font-family="Arial" font-size="14.00" fill="#000000">id </text>
<text text-anchor="start" x="508.7798" y="-960.9" font-family="Arial" font-size="14.00" fill="#666666">[bigint]</text>
<polygon fill="none" stroke="#000000" points="487,-919.5 487,-949.5 883,-949.5 883,-919.5 487,-919.5"/>
<text text-anchor="start" x="494" y="-930.9" font-family="Arial" font-size="14.00" fill="#000000">user_id </text>
<text text-anchor="start" x="543.7882" y="-930.9" font-family="Arial" font-size="14.00" fill="#666666">[bigint]</text>
<polygon fill="none" stroke="#000000" points="487,-889.5 487,-919.5 883,-919.5 883,-889.5 487,-889.5"/>
<text text-anchor="start" x="494" y="-900.9" font-family="Arial" font-size="14.00" fill="#000000">repo_id </text>
<text text-anchor="start" x="544.5708" y="-900.9" font-family="Arial" font-size="14.00" fill="#666666">[bigint]</text>
<polygon fill="none" stroke="#000000" points="487,-859.5 487,-889.5 883,-889.5 883,-859.5 487,-859.5"/>
<text text-anchor="start" x="494" y="-870.9" font-family="Arial" font-size="14.00" fill="#000000">created_at </text>
<text text-anchor="start" x="564.028" y="-870.9" font-family="Arial" font-size="14.00" fill="#666666">[timestamp with time zone]</text>
<polygon fill="none" stroke="#000000" points="487,-829.5 487,-859.5 883,-859.5 883,-829.5 487,-829.5"/>
<text text-anchor="start" x="494" y="-840.9" font-family="Arial" font-size="14.00" fill="#000000">updated_at </text>
<text text-anchor="start" x="567.9326" y="-840.9" font-family="Arial" font-size="14.00" fill="#666666">[timestamp with time zone]</text>
<polygon fill="none" stroke="#000000" points="487,-799.5 487,-829.5 883,-829.5 883,-799.5 487,-799.5"/>
<text text-anchor="start" x="494" y="-810.9" font-family="Arial" font-size="14.00" fill="#000000">deleted_at </text>
<text text-anchor="start" x="563.2566" y="-810.9" font-family="Arial" font-size="14.00" fill="#666666">[timestamp with time zone]</text>
<polygon fill="none" stroke="#000000" points="487,-769.5 487,-799.5 883,-799.5 883,-769.5 487,-769.5"/>
<text text-anchor="start" x="494" y="-780.9" font-family="Arial" font-size="14.00" fill="#000000">is_accepted </text>
<text text-anchor="start" x="572.5834" y="-780.9" font-family="Arial" font-size="14.00" fill="#666666">[boolean]</text>
</g>
<!-- public.users_to_repos_submissions&#45;&gt;public.users -->
<g id="edge3" class="edge">
<title>public.users_to_repos_submissions:user_id&#45;&gt;public.users:id</title>
<path fill="none" stroke="#000000" d="M892.9568,-931.2982C925.0626,-908.0133 902.5434,-764.5468 883,-727 811.0999,-588.8652 667.9001,-664.1348 596,-526 576.8135,-489.1389 554.4444,-432.5 596,-432.5"/>
<polygon fill="#000000" stroke="#000000" points="892.5199,-931.4386 881.6224,-930.216 887.7599,-932.9693 883,-934.5 883,-934.5 883,-934.5 887.7599,-932.9693 884.3776,-938.784 892.5199,-931.4386 892.5199,-931.4386"/>
<text text-anchor="start" x="890.3345" y="-944.5" font-family="Arial" font-size="10.00" fill="#000000">FOREIGN KEY (user_id) REFERENCES users(id)</text>
</g>
<!-- public.users_to_repos_submissions&#45;&gt;public.repos -->
<g id="edge8" class="edge">
<title>public.users_to_repos_submissions:repo_id&#45;&gt;public.repos:id</title>
<path fill="none" stroke="#000000" d="M893.3869,-903.9714C972.5051,-895.3728 905.9504,-783.6187 935,-697 954.883,-637.7139 927.4686,-567.5 990,-567.5"/>
<polygon fill="#000000" stroke="#000000" points="892.9871,-903.9916 882.7712,-900.0058 887.9935,-904.2458 883,-904.5 883,-904.5 883,-904.5 887.9935,-904.2458 883.2288,-908.9942 892.9871,-903.9916 892.9871,-903.9916"/>
<text text-anchor="start" x="889.7755" y="-914.5" font-family="Arial" font-size="10.00" fill="#000000">FOREIGN KEY (repo_id) REFERENCES repos(id)</text>
</g>
<!-- public.users_to_repos_stargazers -->
<g id="node5" class="node">
<title>public.users_to_repos_stargazers</title>
<polygon fill="#efefef" stroke="transparent" points="988,-964.5 988,-999.5 1369,-999.5 1369,-964.5 988,-964.5"/>
<polygon fill="none" stroke="#000000" points="988,-964.5 988,-999.5 1369,-999.5 1369,-964.5 988,-964.5"/>
<text text-anchor="start" x="994.8416" y="-977.3" font-family="Arial Bold" font-size="18.00" fill="#000000">public.users_to_repos_stargazers</text>
<text text-anchor="start" x="1264.9046" y="-977.3" font-family="Arial" font-size="14.00" fill="#000000"> </text>
<text text-anchor="start" x="1268.7952" y="-977.3" font-family="Arial" font-size="14.00" fill="#666666">[BASE TABLE]</text>
<polygon fill="none" stroke="#000000" points="988,-934.5 988,-964.5 1369,-964.5 1369,-934.5 988,-934.5"/>
<text text-anchor="start" x="995" y="-945.9" font-family="Arial" font-size="14.00" fill="#000000">id </text>
<text text-anchor="start" x="1009.7798" y="-945.9" font-family="Arial" font-size="14.00" fill="#666666">[bigint]</text>
<polygon fill="none" stroke="#000000" points="988,-904.5 988,-934.5 1369,-934.5 1369,-904.5 988,-904.5"/>
<text text-anchor="start" x="995" y="-915.9" font-family="Arial" font-size="14.00" fill="#000000">user_id </text>
<text text-anchor="start" x="1044.7882" y="-915.9" font-family="Arial" font-size="14.00" fill="#666666">[bigint]</text>
<polygon fill="none" stroke="#000000" points="988,-874.5 988,-904.5 1369,-904.5 1369,-874.5 988,-874.5"/>
<text text-anchor="start" x="995" y="-885.9" font-family="Arial" font-size="14.00" fill="#000000">repo_id </text>
<text text-anchor="start" x="1045.5708" y="-885.9" font-family="Arial" font-size="14.00" fill="#666666">[bigint]</text>
<polygon fill="none" stroke="#000000" points="988,-844.5 988,-874.5 1369,-874.5 1369,-844.5 988,-844.5"/>
<text text-anchor="start" x="995" y="-855.9" font-family="Arial" font-size="14.00" fill="#000000">created_at </text>
<text text-anchor="start" x="1065.028" y="-855.9" font-family="Arial" font-size="14.00" fill="#666666">[timestamp without time zone]</text>
<polygon fill="none" stroke="#000000" points="988,-814.5 988,-844.5 1369,-844.5 1369,-814.5 988,-814.5"/>
<text text-anchor="start" x="995" y="-825.9" font-family="Arial" font-size="14.00" fill="#000000">updated_at </text>
<text text-anchor="start" x="1068.9326" y="-825.9" font-family="Arial" font-size="14.00" fill="#666666">[timestamp without time zone]</text>
<polygon fill="none" stroke="#000000" points="988,-784.5 988,-814.5 1369,-814.5 1369,-784.5 988,-784.5"/>
<text text-anchor="start" x="995" y="-795.9" font-family="Arial" font-size="14.00" fill="#000000">deleted_at </text>
<text text-anchor="start" x="1064.2566" y="-795.9" font-family="Arial" font-size="14.00" fill="#666666">[timestamp without time zone]</text>
</g>
<!-- public.users_to_repos_stargazers&#45;&gt;public.users -->
<g id="edge4" class="edge">
<title>public.users_to_repos_stargazers:user_id&#45;&gt;public.users:id</title>
<path fill="none" stroke="#000000" d="M978.1737,-917.0294C938.6762,-895.708 947.7908,-742.4899 935,-697 901.54,-578.0014 972.6133,-432.5 849,-432.5"/>
<polygon fill="#000000" stroke="#000000" points="978.3018,-917.0615 986.9027,-923.8642 983.1509,-918.2808 988,-919.5 988,-919.5 988,-919.5 983.1509,-918.2808 989.0973,-915.1358 978.3018,-917.0615 978.3018,-917.0615"/>
<text text-anchor="start" x="817.5845" y="-903.5" font-family="Arial" font-size="10.00" fill="#000000">FOREIGN KEY (user_id) REFERENCES users(id)</text>
</g>
<!-- public.users_to_repos_stargazers&#45;&gt;public.repos -->
<g id="edge9" class="edge">
<title>public.users_to_repos_stargazers:repo_id&#45;&gt;public.repos:id</title>
<path fill="none" stroke="#000000" d="M1379.2875,-888.5968C1431.7454,-878.711 1407.892,-790.0823 1369,-742 1260.6751,-608.0775 1098.3249,-794.9225 990,-661 963.8662,-628.6907 948.4444,-567.5 990,-567.5"/>
<polygon fill="#000000" stroke="#000000" points="1378.9617,-888.6253 1368.6064,-885.0172 1373.9808,-889.0626 1369,-889.5 1369,-889.5 1369,-889.5 1373.9808,-889.0626 1369.3936,-893.9828 1378.9617,-888.6253 1378.9617,-888.6253"/>
<text text-anchor="start" x="1137.7755" y="-899.5" font-family="Arial" font-size="10.00" fill="#000000">FOREIGN KEY (repo_id) REFERENCES repos(id)</text>
</g>
<!-- public.contributions -->
<g id="node7" class="node">
<title>public.contributions</title>
<polygon fill="#efefef" stroke="transparent" points="1920,-1009.5 1920,-1044.5 2219,-1044.5 2219,-1009.5 1920,-1009.5"/>
<polygon fill="none" stroke="#000000" points="1920,-1009.5 1920,-1044.5 2219,-1044.5 2219,-1009.5 1920,-1009.5"/>
<text text-anchor="start" x="1943.8574" y="-1022.3" font-family="Arial Bold" font-size="18.00" fill="#000000">public.contributions</text>
<text text-anchor="start" x="2097.8888" y="-1022.3" font-family="Arial" font-size="14.00" fill="#000000"> </text>
<text text-anchor="start" x="2101.7794" y="-1022.3" font-family="Arial" font-size="14.00" fill="#666666">[BASE TABLE]</text>
<polygon fill="none" stroke="#000000" points="1920,-979.5 1920,-1009.5 2219,-1009.5 2219,-979.5 1920,-979.5"/>
<text text-anchor="start" x="1927" y="-990.9" font-family="Arial" font-size="14.00" fill="#000000">id </text>
<text text-anchor="start" x="1941.7798" y="-990.9" font-family="Arial" font-size="14.00" fill="#666666">[bigint]</text>
<polygon fill="none" stroke="#000000" points="1920,-949.5 1920,-979.5 2219,-979.5 2219,-949.5 1920,-949.5"/>
<text text-anchor="start" x="1927" y="-960.9" font-family="Arial" font-size="14.00" fill="#000000">repo_id </text>
<text text-anchor="start" x="1977.5708" y="-960.9" font-family="Arial" font-size="14.00" fill="#666666">[bigint]</text>
<polygon fill="none" stroke="#000000" points="1920,-919.5 1920,-949.5 2219,-949.5 2219,-919.5 1920,-919.5"/>
<text text-anchor="start" x="1927" y="-930.9" font-family="Arial" font-size="14.00" fill="#000000">count </text>
<text text-anchor="start" x="1965.129" y="-930.9" font-family="Arial" font-size="14.00" fill="#666666">[bigint]</text>
<polygon fill="none" stroke="#000000" points="1920,-889.5 1920,-919.5 2219,-919.5 2219,-889.5 1920,-889.5"/>
<text text-anchor="start" x="1926.7497" y="-900.9" font-family="Arial" font-size="14.00" fill="#000000">last_merged_at </text>
<text text-anchor="start" x="2027.1101" y="-900.9" font-family="Arial" font-size="14.00" fill="#666666">[timestamp without time zone]</text>
<polygon fill="none" stroke="#000000" points="1920,-859.5 1920,-889.5 2219,-889.5 2219,-859.5 1920,-859.5"/>
<text text-anchor="start" x="1927" y="-870.9" font-family="Arial" font-size="14.00" fill="#000000">contributor </text>
<text text-anchor="start" x="1997.0126" y="-870.9" font-family="Arial" font-size="14.00" fill="#666666">[varchar(255)]</text>
<polygon fill="none" stroke="#000000" points="1920,-829.5 1920,-859.5 2219,-859.5 2219,-829.5 1920,-829.5"/>
<text text-anchor="start" x="1927" y="-840.9" font-family="Arial" font-size="14.00" fill="#000000">url </text>
<text text-anchor="start" x="1946.4404" y="-840.9" font-family="Arial" font-size="14.00" fill="#666666">[varchar(255)]</text>
<polygon fill="none" stroke="#000000" points="1920,-799.5 1920,-829.5 2219,-829.5 2219,-799.5 1920,-799.5"/>
<text text-anchor="start" x="1927" y="-810.9" font-family="Arial" font-size="14.00" fill="#000000">deleted_at </text>
<text text-anchor="start" x="1996.2566" y="-810.9" font-family="Arial" font-size="14.00" fill="#666666">[timestamp with time zone]</text>
<polygon fill="none" stroke="#000000" points="1920,-769.5 1920,-799.5 2219,-799.5 2219,-769.5 1920,-769.5"/>
<text text-anchor="start" x="1927" y="-780.9" font-family="Arial" font-size="14.00" fill="#000000">updated_at </text>
<text text-anchor="start" x="2000.9326" y="-780.9" font-family="Arial" font-size="14.00" fill="#666666">[timestamp with time zone]</text>
<polygon fill="none" stroke="#000000" points="1920,-739.5 1920,-769.5 2219,-769.5 2219,-739.5 1920,-739.5"/>
<text text-anchor="start" x="1927" y="-750.9" font-family="Arial" font-size="14.00" fill="#000000">created_at </text>
<text text-anchor="start" x="1997.028" y="-750.9" font-family="Arial" font-size="14.00" fill="#666666">[timestamp with time zone]</text>
</g>
<!-- public.contributions&#45;&gt;public.repos -->
<g id="edge6" class="edge">
<title>public.contributions:repo_id&#45;&gt;public.repos:id</title>
<path fill="none" stroke="#000000" d="M1909.7279,-964.0144C1807.7498,-953.7253 1947.6485,-782.4946 1867,-697 1788.3885,-613.6649 1482.5622,-567.5 1368,-567.5"/>
<polygon fill="#000000" stroke="#000000" points="1910.0112,-964.0277 1919.7875,-968.995 1915.0056,-964.2639 1920,-964.5 1920,-964.5 1920,-964.5 1915.0056,-964.2639 1920.2125,-960.005 1910.0112,-964.0277 1910.0112,-964.0277"/>
<text text-anchor="start" x="1867.2755" y="-948.5" font-family="Arial" font-size="10.00" fill="#000000">FOREIGN KEY (repo_id) REFERENCES repos(id)</text>
</g>
</g>
</svg>
