<?xml version="1.0" encoding="UTF-8" standalone="no"?>
<!DOCTYPE svg PUBLIC "-//W3C//DTD SVG 1.1//EN"
 "http://www.w3.org/Graphics/SVG/1.1/DTD/svg11.dtd">
<!-- Generated by graphviz version 2.40.1 (20161225.0304)
 -->
<!-- Title: public.repos Pages: 1 -->
<svg width="1304pt" height="1289pt"
 viewBox="0.00 0.00 1304.00 1289.00" xmlns="http://www.w3.org/2000/svg" xmlns:xlink="http://www.w3.org/1999/xlink">
<g id="graph0" class="graph" transform="scale(1 1) rotate(0) translate(4 1285)">
<title>public.repos</title>
<polygon fill="#ffffff" stroke="transparent" points="-4,4 -4,-1285 1300,-1285 1300,4 -4,4"/>
<!-- public.repos -->
<g id="node1" class="node">
<title>public.repos</title>
<polygon fill="#efefef" stroke="transparent" points="458,-922.5 458,-957.5 836,-957.5 836,-922.5 458,-922.5"/>
<polygon fill="none" stroke="#000000" points="458,-922.5 458,-957.5 836,-957.5 836,-922.5 458,-922.5"/>
<text text-anchor="start" x="549.8631" y="-935.3" font-family="Arial Bold" font-size="18.00" fill="#000000">public.repos</text>
<text text-anchor="start" x="646.8831" y="-935.3" font-family="Arial" font-size="14.00" fill="#000000"> </text>
<text text-anchor="start" x="650.7737" y="-935.3" font-family="Arial" font-size="14.00" fill="#666666">[BASE TABLE]</text>
<polygon fill="none" stroke="#000000" points="458,-892.5 458,-922.5 836,-922.5 836,-892.5 458,-892.5"/>
<text text-anchor="start" x="465" y="-903.9" font-family="Arial" font-size="14.00" fill="#000000">id </text>
<text text-anchor="start" x="479.7798" y="-903.9" font-family="Arial" font-size="14.00" fill="#666666">[bigint]</text>
<polygon fill="none" stroke="#000000" points="458,-862.5 458,-892.5 836,-892.5 836,-862.5 458,-862.5"/>
<text text-anchor="start" x="465" y="-873.9" font-family="Arial" font-size="14.00" fill="#000000">user_id </text>
<text text-anchor="start" x="514.7882" y="-873.9" font-family="Arial" font-size="14.00" fill="#666666">[bigint]</text>
<polygon fill="none" stroke="#000000" points="458,-832.5 458,-862.5 836,-862.5 836,-832.5 458,-832.5"/>
<text text-anchor="start" x="465" y="-843.9" font-family="Arial" font-size="14.00" fill="#000000">issues </text>
<text text-anchor="start" x="508.5624" y="-843.9" font-family="Arial" font-size="14.00" fill="#666666">[bigint]</text>
<polygon fill="none" stroke="#000000" points="458,-802.5 458,-832.5 836,-832.5 836,-802.5 458,-802.5"/>
<text text-anchor="start" x="465" y="-813.9" font-family="Arial" font-size="14.00" fill="#000000">stars </text>
<text text-anchor="start" x="499.2244" y="-813.9" font-family="Arial" font-size="14.00" fill="#666666">[bigint]</text>
<polygon fill="none" stroke="#000000" points="458,-772.5 458,-802.5 836,-802.5 836,-772.5 458,-772.5"/>
<text text-anchor="start" x="465" y="-783.9" font-family="Arial" font-size="14.00" fill="#000000">watchers </text>
<text text-anchor="start" x="524.8962" y="-783.9" font-family="Arial" font-size="14.00" fill="#666666">[bigint]</text>
<polygon fill="none" stroke="#000000" points="458,-742.5 458,-772.5 836,-772.5 836,-742.5 458,-742.5"/>
<text text-anchor="start" x="465" y="-753.9" font-family="Arial" font-size="14.00" fill="#000000">subscribers </text>
<text text-anchor="start" x="540.4488" y="-753.9" font-family="Arial" font-size="14.00" fill="#666666">[bigint]</text>
<polygon fill="none" stroke="#000000" points="458,-712.5 458,-742.5 836,-742.5 836,-712.5 458,-712.5"/>
<text text-anchor="start" x="465" y="-723.9" font-family="Arial" font-size="14.00" fill="#000000">is_fork </text>
<text text-anchor="start" x="510.1136" y="-723.9" font-family="Arial" font-size="14.00" fill="#666666">[boolean]</text>
<polygon fill="none" stroke="#000000" points="458,-682.5 458,-712.5 836,-712.5 836,-682.5 458,-682.5"/>
<text text-anchor="start" x="465" y="-693.9" font-family="Arial" font-size="14.00" fill="#000000">created_at </text>
<text text-anchor="start" x="535.028" y="-693.9" font-family="Arial" font-size="14.00" fill="#666666">[timestamp without time zone]</text>
<polygon fill="none" stroke="#000000" points="458,-652.5 458,-682.5 836,-682.5 836,-652.5 458,-652.5"/>
<text text-anchor="start" x="465" y="-663.9" font-family="Arial" font-size="14.00" fill="#000000">updated_at </text>
<text text-anchor="start" x="538.9326" y="-663.9" font-family="Arial" font-size="14.00" fill="#666666">[timestamp without time zone]</text>
<polygon fill="none" stroke="#000000" points="458,-622.5 458,-652.5 836,-652.5 836,-622.5 458,-622.5"/>
<text text-anchor="start" x="465" y="-633.9" font-family="Arial" font-size="14.00" fill="#000000">pushed_at </text>
<text text-anchor="start" x="534.2594" y="-633.9" font-family="Arial" font-size="14.00" fill="#666666">[timestamp without time zone]</text>
<polygon fill="none" stroke="#000000" points="458,-592.5 458,-622.5 836,-622.5 836,-592.5 458,-592.5"/>
<text text-anchor="start" x="464.5674" y="-603.9" font-family="Arial" font-size="14.00" fill="#000000">last_fetched_contributors_at </text>
<text text-anchor="start" x="644.2924" y="-603.9" font-family="Arial" font-size="14.00" fill="#666666">[timestamp without time zone]</text>
<polygon fill="none" stroke="#000000" points="458,-562.5 458,-592.5 836,-592.5 836,-562.5 458,-562.5"/>
<text text-anchor="start" x="465" y="-573.9" font-family="Arial" font-size="14.00" fill="#000000">name </text>
<text text-anchor="start" x="503.899" y="-573.9" font-family="Arial" font-size="14.00" fill="#666666">[varchar(255)]</text>
<polygon fill="none" stroke="#000000" points="458,-532.5 458,-562.5 836,-562.5 836,-532.5 458,-532.5"/>
<text text-anchor="start" x="465" y="-543.9" font-family="Arial" font-size="14.00" fill="#000000">full_name </text>
<text text-anchor="start" x="529.568" y="-543.9" font-family="Arial" font-size="14.00" fill="#666666">[varchar(255)]</text>
<polygon fill="none" stroke="#000000" points="458,-502.5 458,-532.5 836,-532.5 836,-502.5 458,-502.5"/>
<text text-anchor="start" x="465" y="-513.9" font-family="Arial" font-size="14.00" fill="#000000">description </text>
<text text-anchor="start" x="536.568" y="-513.9" font-family="Arial" font-size="14.00" fill="#666666">[text]</text>
<polygon fill="none" stroke="#000000" points="458,-472.5 458,-502.5 836,-502.5 836,-472.5 458,-472.5"/>
<text text-anchor="start" x="465" y="-483.9" font-family="Arial" font-size="14.00" fill="#000000">language </text>
<text text-anchor="start" x="526.4754" y="-483.9" font-family="Arial" font-size="14.00" fill="#666666">[varchar(64)]</text>
<polygon fill="none" stroke="#000000" points="458,-442.5 458,-472.5 836,-472.5 836,-442.5 458,-442.5"/>
<text text-anchor="start" x="465" y="-453.9" font-family="Arial" font-size="14.00" fill="#000000">license </text>
<text text-anchor="start" x="512.4516" y="-453.9" font-family="Arial" font-size="14.00" fill="#666666">[varchar(64)]</text>
<polygon fill="none" stroke="#000000" points="458,-412.5 458,-442.5 836,-442.5 836,-412.5 458,-412.5"/>
<text text-anchor="start" x="465" y="-423.9" font-family="Arial" font-size="14.00" fill="#000000">url </text>
<text text-anchor="start" x="484.4404" y="-423.9" font-family="Arial" font-size="14.00" fill="#666666">[varchar(255)]</text>
<polygon fill="none" stroke="#000000" stroke-width="3" points="456.5,-411.5 456.5,-959.5 837.5,-959.5 837.5,-411.5 456.5,-411.5"/>
</g>
<!-- public.users -->
<g id="node3" class="node">
<title>public.users</title>
<polygon fill="#efefef" stroke="transparent" points="522,-252.5 522,-287.5 771,-287.5 771,-252.5 522,-252.5"/>
<polygon fill="none" stroke="#000000" points="522,-252.5 522,-287.5 771,-287.5 771,-252.5 522,-252.5"/>
<text text-anchor="start" x="549.8662" y="-265.3" font-family="Arial Bold" font-size="18.00" fill="#000000">public.users</text>
<text text-anchor="start" x="645.88" y="-265.3" font-family="Arial" font-size="14.00" fill="#000000"> </text>
<text text-anchor="start" x="649.7706" y="-265.3" font-family="Arial" font-size="14.00" fill="#666666">[BASE TABLE]</text>
<polygon fill="none" stroke="#000000" points="522,-222.5 522,-252.5 771,-252.5 771,-222.5 522,-222.5"/>
<text text-anchor="start" x="529" y="-233.9" font-family="Arial" font-size="14.00" fill="#000000">id </text>
<text text-anchor="start" x="543.7798" y="-233.9" font-family="Arial" font-size="14.00" fill="#666666">[bigint]</text>
<polygon fill="none" stroke="#000000" points="522,-192.5 522,-222.5 771,-222.5 771,-192.5 522,-192.5"/>
<text text-anchor="start" x="529" y="-203.9" font-family="Arial" font-size="14.00" fill="#000000">open_issues </text>
<text text-anchor="start" x="611.4754" y="-203.9" font-family="Arial" font-size="14.00" fill="#666666">[bigint]</text>
<polygon fill="none" stroke="#000000" points="522,-162.5 522,-192.5 771,-192.5 771,-162.5 522,-162.5"/>
<text text-anchor="start" x="529" y="-173.9" font-family="Arial" font-size="14.00" fill="#000000">has_stars_data </text>
<text text-anchor="start" x="628.5932" y="-173.9" font-family="Arial" font-size="14.00" fill="#666666">[boolean]</text>
<polygon fill="none" stroke="#000000" points="522,-132.5 522,-162.5 771,-162.5 771,-132.5 522,-132.5"/>
<text text-anchor="start" x="529" y="-143.9" font-family="Arial" font-size="14.00" fill="#000000">is_private </text>
<text text-anchor="start" x="592.7854" y="-143.9" font-family="Arial" font-size="14.00" fill="#666666">[boolean]</text>
<polygon fill="none" stroke="#000000" points="522,-102.5 522,-132.5 771,-132.5 771,-102.5 522,-102.5"/>
<text text-anchor="start" x="529" y="-113.9" font-family="Arial" font-size="14.00" fill="#000000">is_open_sauced_member </text>
<text text-anchor="start" x="693.9354" y="-113.9" font-family="Arial" font-size="14.00" fill="#666666">[boolean]</text>
<polygon fill="none" stroke="#000000" points="522,-72.5 522,-102.5 771,-102.5 771,-72.5 522,-72.5"/>
<text text-anchor="start" x="528.6438" y="-83.9" font-family="Arial" font-size="14.00" fill="#000000">created_at </text>
<text text-anchor="start" x="598.6718" y="-83.9" font-family="Arial" font-size="14.00" fill="#666666">[timestamp with time zone]</text>
<polygon fill="none" stroke="#000000" points="522,-42.5 522,-72.5 771,-72.5 771,-42.5 522,-42.5"/>
<text text-anchor="start" x="529" y="-53.9" font-family="Arial" font-size="14.00" fill="#000000">login </text>
<text text-anchor="start" x="562.4516" y="-53.9" font-family="Arial" font-size="14.00" fill="#666666">[varchar(255)]</text>
</g>
<!-- public.repos&#45;&gt;public.users -->
<g id="edge5" class="edge">
<title>public.repos:user_id&#45;&gt;public.users:id</title>
<path fill="none" stroke="#000000" stroke-dasharray="5,2" d="M448.7975,-872.8579C403.5658,-824.0992 422.4641,-406.8574 458,-367 551.1865,-262.4812 677.8135,-435.5188 771,-331 798.6545,-299.9824 812.5556,-237.5 771,-237.5"/>
<polygon fill="#000000" stroke="#000000" points="449.0716,-872.9961 455.9733,-881.5178 453.5358,-875.2481 458,-877.5 458,-877.5 458,-877.5 453.5358,-875.2481 460.0267,-873.4822 449.0716,-872.9961 449.0716,-872.9961"/>
<text text-anchor="start" x="372.268" y="-887.5" font-family="Arial" font-size="10.00" fill="#000000">Detected Relation</text>
</g>
<!-- public.users_to_repos_stars -->
<g id="node2" class="node">
<title>public.users_to_repos_stars</title>
<polygon fill="#efefef" stroke="transparent" points="237,-1202.5 237,-1237.5 573,-1237.5 573,-1202.5 237,-1202.5"/>
<polygon fill="none" stroke="#000000" points="237,-1202.5 237,-1237.5 573,-1237.5 573,-1202.5 237,-1202.5"/>
<text text-anchor="start" x="243.847" y="-1215.3" font-family="Arial Bold" font-size="18.00" fill="#000000">public.users_to_repos_stars</text>
<text text-anchor="start" x="468.8992" y="-1215.3" font-family="Arial" font-size="14.00" fill="#000000"> </text>
<text text-anchor="start" x="472.7898" y="-1215.3" font-family="Arial" font-size="14.00" fill="#666666">[BASE TABLE]</text>
<polygon fill="none" stroke="#000000" points="237,-1172.5 237,-1202.5 573,-1202.5 573,-1172.5 237,-1172.5"/>
<text text-anchor="start" x="244" y="-1183.9" font-family="Arial" font-size="14.00" fill="#000000">id </text>
<text text-anchor="start" x="258.7798" y="-1183.9" font-family="Arial" font-size="14.00" fill="#666666">[bigint]</text>
<polygon fill="none" stroke="#000000" points="237,-1142.5 237,-1172.5 573,-1172.5 573,-1142.5 237,-1142.5"/>
<text text-anchor="start" x="244" y="-1153.9" font-family="Arial" font-size="14.00" fill="#000000">user_id </text>
<text text-anchor="start" x="293.7882" y="-1153.9" font-family="Arial" font-size="14.00" fill="#666666">[bigint]</text>
<polygon fill="none" stroke="#000000" points="237,-1112.5 237,-1142.5 573,-1142.5 573,-1112.5 237,-1112.5"/>
<text text-anchor="start" x="244" y="-1123.9" font-family="Arial" font-size="14.00" fill="#000000">repo_id </text>
<text text-anchor="start" x="294.5708" y="-1123.9" font-family="Arial" font-size="14.00" fill="#666666">[bigint]</text>
<polygon fill="none" stroke="#000000" points="237,-1082.5 237,-1112.5 573,-1112.5 573,-1082.5 237,-1082.5"/>
<text text-anchor="start" x="244" y="-1093.9" font-family="Arial" font-size="14.00" fill="#000000">created_at </text>
<text text-anchor="start" x="314.028" y="-1093.9" font-family="Arial" font-size="14.00" fill="#666666">[timestamp with time zone]</text>
</g>
<!-- public.users_to_repos_stars&#45;&gt;public.repos -->
<g id="edge1" class="edge">
<title>public.users_to_repos_stars:repo_id&#45;&gt;public.repos:id</title>
<path fill="none" stroke="#000000" d="M583.2046,-1125.8469C608.5931,-1116.3482 593.6888,-1068.1553 573,-1040 541.287,-996.8418 489.713,-1047.1582 458,-1004 432.6039,-969.4385 415.1111,-907.5 458,-907.5"/>
<polygon fill="#000000" stroke="#000000" points="582.8713,-1125.9008 572.2804,-1123.0579 577.9357,-1126.7004 573,-1127.5 573,-1127.5 573,-1127.5 577.9357,-1126.7004 573.7196,-1131.9421 582.8713,-1125.9008 582.8713,-1125.9008"/>
<text text-anchor="start" x="579.7755" y="-1137.5" font-family="Arial" font-size="10.00" fill="#000000">FOREIGN KEY (repo_id) REFERENCES repos(id)</text>
</g>
<!-- public.users_to_repos_stars&#45;&gt;public.users -->
<g id="edge2" class="edge">
<title>public.users_to_repos_stars:user_id&#45;&gt;public.users:id</title>
<path fill="none" stroke="#000000" d="M226.7503,-1156.7477C32.4138,-1127.2067 311.5237,-237.5 522,-237.5"/>
<polygon fill="#000000" stroke="#000000" points="227.0268,-1156.7679 236.6706,-1161.9879 232.0134,-1157.134 237,-1157.5 237,-1157.5 237,-1157.5 232.0134,-1157.134 237.3294,-1153.0121 227.0268,-1156.7679 227.0268,-1156.7679"/>
<text text-anchor="start" x="7.3345" y="-1167.5" font-family="Arial" font-size="10.00" fill="#000000">FOREIGN KEY (user_id) REFERENCES users(id)</text>
</g>
<!-- public.users_to_repos_votes -->
<g id="node4" class="node">
<title>public.users_to_repos_votes</title>
<polygon fill="#efefef" stroke="transparent" points="719,-1202.5 719,-1237.5 1059,-1237.5 1059,-1202.5 719,-1202.5"/>
<polygon fill="none" stroke="#000000" points="719,-1202.5 719,-1237.5 1059,-1237.5 1059,-1202.5 719,-1202.5"/>
<text text-anchor="start" x="725.84" y="-1215.3" font-family="Arial Bold" font-size="18.00" fill="#000000">public.users_to_repos_votes</text>
<text text-anchor="start" x="954.9062" y="-1215.3" font-family="Arial" font-size="14.00" fill="#000000"> </text>
<text text-anchor="start" x="958.7968" y="-1215.3" font-family="Arial" font-size="14.00" fill="#666666">[BASE TABLE]</text>
<polygon fill="none" stroke="#000000" points="719,-1172.5 719,-1202.5 1059,-1202.5 1059,-1172.5 719,-1172.5"/>
<text text-anchor="start" x="726" y="-1183.9" font-family="Arial" font-size="14.00" fill="#000000">id </text>
<text text-anchor="start" x="740.7798" y="-1183.9" font-family="Arial" font-size="14.00" fill="#666666">[bigint]</text>
<polygon fill="none" stroke="#000000" points="719,-1142.5 719,-1172.5 1059,-1172.5 1059,-1142.5 719,-1142.5"/>
<text text-anchor="start" x="726" y="-1153.9" font-family="Arial" font-size="14.00" fill="#000000">user_id </text>
<text text-anchor="start" x="775.7882" y="-1153.9" font-family="Arial" font-size="14.00" fill="#666666">[bigint]</text>
<polygon fill="none" stroke="#000000" points="719,-1112.5 719,-1142.5 1059,-1142.5 1059,-1112.5 719,-1112.5"/>
<text text-anchor="start" x="726" y="-1123.9" font-family="Arial" font-size="14.00" fill="#000000">repo_id </text>
<text text-anchor="start" x="776.5708" y="-1123.9" font-family="Arial" font-size="14.00" fill="#666666">[bigint]</text>
<polygon fill="none" stroke="#000000" points="719,-1082.5 719,-1112.5 1059,-1112.5 1059,-1082.5 719,-1082.5"/>
<text text-anchor="start" x="726" y="-1093.9" font-family="Arial" font-size="14.00" fill="#000000">created_at </text>
<text text-anchor="start" x="796.028" y="-1093.9" font-family="Arial" font-size="14.00" fill="#666666">[timestamp with time zone]</text>
</g>
<!-- public.users_to_repos_votes&#45;&gt;public.repos -->
<g id="edge3" class="edge">
<title>public.users_to_repos_votes:repo_id&#45;&gt;public.repos:id</title>
<path fill="none" stroke="#000000" d="M708.7933,-1125.8454C683.3929,-1116.3379 698.2425,-1068.1048 719,-1040 751.3226,-996.2365 803.6774,-1047.7635 836,-1004 861.4804,-969.5006 878.8889,-907.5 836,-907.5"/>
<polygon fill="#000000" stroke="#000000" points="709.1289,-1125.8997 718.2799,-1131.942 714.0644,-1126.6998 719,-1127.5 719,-1127.5 719,-1127.5 714.0644,-1126.6998 719.7201,-1123.058 709.1289,-1125.8997 709.1289,-1125.8997"/>
<text text-anchor="start" x="547.2755" y="-1111.5" font-family="Arial" font-size="10.00" fill="#000000">FOREIGN KEY (repo_id) REFERENCES repos(id)</text>
</g>
<!-- public.users_to_repos_votes&#45;&gt;public.users -->
<g id="edge4" class="edge">
<title>public.users_to_repos_votes:user_id&#45;&gt;public.users:id</title>
<path fill="none" stroke="#000000" d="M1069.2569,-1156.7477C1263.6856,-1127.2067 981.6712,-237.5 771,-237.5"/>
<polygon fill="#000000" stroke="#000000" points="1068.9732,-1156.7684 1058.6708,-1153.0121 1063.9866,-1157.1342 1059,-1157.5 1059,-1157.5 1059,-1157.5 1063.9866,-1157.1342 1059.3292,-1161.9879 1068.9732,-1156.7684 1068.9732,-1156.7684"/>
<text text-anchor="start" x="1066.3345" y="-1167.5" font-family="Arial" font-size="10.00" fill="#000000">FOREIGN KEY (user_id) REFERENCES users(id)</text>
</g>
</g>
</svg>
