<?xml version="1.0" encoding="UTF-8" standalone="no"?>
<!DOCTYPE svg PUBLIC "-//W3C//DTD SVG 1.1//EN"
 "http://www.w3.org/Graphics/SVG/1.1/DTD/svg11.dtd">
<!-- Generated by graphviz version 2.40.1 (20161225.0304)
 -->
<!-- Title: public.users_to_repos_stargazers Pages: 1 -->
<svg width="2269pt" height="1096pt"
 viewBox="0.00 0.00 2268.50 1096.00" xmlns="http://www.w3.org/2000/svg" xmlns:xlink="http://www.w3.org/1999/xlink">
<g id="graph0" class="graph" transform="scale(1 1) rotate(0) translate(4 1092)">
<title>public.users_to_repos_stargazers</title>
<polygon fill="#ffffff" stroke="transparent" points="-4,4 -4,-1092 2264.5,-1092 2264.5,4 -4,4"/>
<!-- public.users_to_repos_stargazers -->
<g id="node1" class="node">
<title>public.users_to_repos_stargazers</title>
<polygon fill="#efefef" stroke="transparent" points="1431,-964.5 1431,-999.5 1812,-999.5 1812,-964.5 1431,-964.5"/>
<polygon fill="none" stroke="#000000" points="1431,-964.5 1431,-999.5 1812,-999.5 1812,-964.5 1431,-964.5"/>
<text text-anchor="start" x="1437.8416" y="-977.3" font-family="Arial Bold" font-size="18.00" fill="#000000">public.users_to_repos_stargazers</text>
<text text-anchor="start" x="1707.9046" y="-977.3" font-family="Arial" font-size="14.00" fill="#000000"> </text>
<text text-anchor="start" x="1711.7952" y="-977.3" font-family="Arial" font-size="14.00" fill="#666666">[BASE TABLE]</text>
<polygon fill="none" stroke="#000000" points="1431,-934.5 1431,-964.5 1812,-964.5 1812,-934.5 1431,-934.5"/>
<text text-anchor="start" x="1438" y="-945.9" font-family="Arial" font-size="14.00" fill="#000000">id </text>
<text text-anchor="start" x="1452.7798" y="-945.9" font-family="Arial" font-size="14.00" fill="#666666">[bigint]</text>
<polygon fill="none" stroke="#000000" points="1431,-904.5 1431,-934.5 1812,-934.5 1812,-904.5 1431,-904.5"/>
<text text-anchor="start" x="1438" y="-915.9" font-family="Arial" font-size="14.00" fill="#000000">user_id </text>
<text text-anchor="start" x="1487.7882" y="-915.9" font-family="Arial" font-size="14.00" fill="#666666">[bigint]</text>
<polygon fill="none" stroke="#000000" points="1431,-874.5 1431,-904.5 1812,-904.5 1812,-874.5 1431,-874.5"/>
<text text-anchor="start" x="1438" y="-885.9" font-family="Arial" font-size="14.00" fill="#000000">repo_id </text>
<text text-anchor="start" x="1488.5708" y="-885.9" font-family="Arial" font-size="14.00" fill="#666666">[bigint]</text>
<polygon fill="none" stroke="#000000" points="1431,-844.5 1431,-874.5 1812,-874.5 1812,-844.5 1431,-844.5"/>
<text text-anchor="start" x="1438" y="-855.9" font-family="Arial" font-size="14.00" fill="#000000">created_at </text>
<text text-anchor="start" x="1508.028" y="-855.9" font-family="Arial" font-size="14.00" fill="#666666">[timestamp without time zone]</text>
<polygon fill="none" stroke="#000000" points="1431,-814.5 1431,-844.5 1812,-844.5 1812,-814.5 1431,-814.5"/>
<text text-anchor="start" x="1438" y="-825.9" font-family="Arial" font-size="14.00" fill="#000000">updated_at </text>
<text text-anchor="start" x="1511.9326" y="-825.9" font-family="Arial" font-size="14.00" fill="#666666">[timestamp without time zone]</text>
<polygon fill="none" stroke="#000000" points="1431,-784.5 1431,-814.5 1812,-814.5 1812,-784.5 1431,-784.5"/>
<text text-anchor="start" x="1438" y="-795.9" font-family="Arial" font-size="14.00" fill="#000000">deleted_at </text>
<text text-anchor="start" x="1507.2566" y="-795.9" font-family="Arial" font-size="14.00" fill="#666666">[timestamp without time zone]</text>
<polygon fill="none" stroke="#000000" stroke-width="3" points="1429,-783.5 1429,-1001.5 1813,-1001.5 1813,-783.5 1429,-783.5"/>
</g>
<!-- public.users -->
<g id="node2" class="node">
<title>public.users</title>
<polygon fill="#efefef" stroke="transparent" points="553,-447.5 553,-482.5 806,-482.5 806,-447.5 553,-447.5"/>
<polygon fill="none" stroke="#000000" points="553,-447.5 553,-482.5 806,-482.5 806,-447.5 553,-447.5"/>
<text text-anchor="start" x="582.8662" y="-460.3" font-family="Arial Bold" font-size="18.00" fill="#000000">public.users</text>
<text text-anchor="start" x="678.88" y="-460.3" font-family="Arial" font-size="14.00" fill="#000000"> </text>
<text text-anchor="start" x="682.7706" y="-460.3" font-family="Arial" font-size="14.00" fill="#666666">[BASE TABLE]</text>
<polygon fill="none" stroke="#000000" points="553,-417.5 553,-447.5 806,-447.5 806,-417.5 553,-417.5"/>
<text text-anchor="start" x="560" y="-428.9" font-family="Arial" font-size="14.00" fill="#000000">id </text>
<text text-anchor="start" x="574.7798" y="-428.9" font-family="Arial" font-size="14.00" fill="#666666">[bigint]</text>
<polygon fill="none" stroke="#000000" points="553,-387.5 553,-417.5 806,-417.5 806,-387.5 553,-387.5"/>
<text text-anchor="start" x="560" y="-398.9" font-family="Arial" font-size="14.00" fill="#000000">open_issues </text>
<text text-anchor="start" x="642.4754" y="-398.9" font-family="Arial" font-size="14.00" fill="#666666">[bigint]</text>
<polygon fill="none" stroke="#000000" points="553,-357.5 553,-387.5 806,-387.5 806,-357.5 553,-357.5"/>
<text text-anchor="start" x="560" y="-368.9" font-family="Arial" font-size="14.00" fill="#000000">has_stars_data </text>
<text text-anchor="start" x="659.5932" y="-368.9" font-family="Arial" font-size="14.00" fill="#666666">[boolean]</text>
<polygon fill="none" stroke="#000000" points="553,-327.5 553,-357.5 806,-357.5 806,-327.5 553,-327.5"/>
<text text-anchor="start" x="560" y="-338.9" font-family="Arial" font-size="14.00" fill="#000000">is_private </text>
<text text-anchor="start" x="623.7854" y="-338.9" font-family="Arial" font-size="14.00" fill="#666666">[boolean]</text>
<polygon fill="none" stroke="#000000" points="553,-297.5 553,-327.5 806,-327.5 806,-297.5 553,-297.5"/>
<text text-anchor="start" x="560" y="-308.9" font-family="Arial" font-size="14.00" fill="#000000">is_open_sauced_member </text>
<text text-anchor="start" x="724.9354" y="-308.9" font-family="Arial" font-size="14.00" fill="#666666">[boolean]</text>
<polygon fill="none" stroke="#000000" points="553,-267.5 553,-297.5 806,-297.5 806,-267.5 553,-267.5"/>
<text text-anchor="start" x="560" y="-278.9" font-family="Arial" font-size="14.00" fill="#000000">created_at </text>
<text text-anchor="start" x="630.028" y="-278.9" font-family="Arial" font-size="14.00" fill="#666666">[timestamp with time zone]</text>
<polygon fill="none" stroke="#000000" points="553,-237.5 553,-267.5 806,-267.5 806,-237.5 553,-237.5"/>
<text text-anchor="start" x="560" y="-248.9" font-family="Arial" font-size="14.00" fill="#000000">login </text>
<text text-anchor="start" x="593.4516" y="-248.9" font-family="Arial" font-size="14.00" fill="#666666">[varchar(255)]</text>
<polygon fill="none" stroke="#000000" points="553,-207.5 553,-237.5 806,-237.5 806,-207.5 553,-207.5"/>
<text text-anchor="start" x="560" y="-218.9" font-family="Arial" font-size="14.00" fill="#000000">deleted_at </text>
<text text-anchor="start" x="629.2566" y="-218.9" font-family="Arial" font-size="14.00" fill="#666666">[timestamp with time zone]</text>
<polygon fill="none" stroke="#000000" points="553,-177.5 553,-207.5 806,-207.5 806,-177.5 553,-177.5"/>
<text text-anchor="start" x="559.6915" y="-188.9" font-family="Arial" font-size="14.00" fill="#000000">updated_at </text>
<text text-anchor="start" x="633.6241" y="-188.9" font-family="Arial" font-size="14.00" fill="#666666">[timestamp with time zone]</text>
</g>
<!-- public.users_to_repos_stargazers&#45;&gt;public.users -->
<g id="edge1" class="edge">
<title>public.users_to_repos_stargazers:user_id&#45;&gt;public.users:id</title>
<path fill="none" stroke="#000000" d="M1420.8114,-918.8971C1337.7278,-908.2802 1450.2566,-760.2221 1375,-697 1291.2324,-626.628 970.5947,-727.8625 884,-661 799.0632,-595.4176 913.3094,-432.5 806,-432.5"/>
<polygon fill="#000000" stroke="#000000" points="1421.0175,-918.9092 1430.7342,-923.9921 1426.0087,-919.2046 1431,-919.5 1431,-919.5 1431,-919.5 1426.0087,-919.2046 1431.2658,-915.0079 1421.0175,-918.9092 1421.0175,-918.9092"/>
<text text-anchor="start" x="1379.0845" y="-903.5" font-family="Arial" font-size="10.00" fill="#000000">FOREIGN KEY (user_id) REFERENCES users(id)</text>
</g>
<!-- public.repos -->
<g id="node6" class="node">
<title>public.repos</title>
<polygon fill="#efefef" stroke="transparent" points="936,-582.5 936,-617.5 1314,-617.5 1314,-582.5 936,-582.5"/>
<polygon fill="none" stroke="#000000" points="936,-582.5 936,-617.5 1314,-617.5 1314,-582.5 936,-582.5"/>
<text text-anchor="start" x="1027.8631" y="-595.3" font-family="Arial Bold" font-size="18.00" fill="#000000">public.repos</text>
<text text-anchor="start" x="1124.8831" y="-595.3" font-family="Arial" font-size="14.00" fill="#000000"> </text>
<text text-anchor="start" x="1128.7737" y="-595.3" font-family="Arial" font-size="14.00" fill="#666666">[BASE TABLE]</text>
<polygon fill="none" stroke="#000000" points="936,-552.5 936,-582.5 1314,-582.5 1314,-552.5 936,-552.5"/>
<text text-anchor="start" x="943" y="-563.9" font-family="Arial" font-size="14.00" fill="#000000">id </text>
<text text-anchor="start" x="957.7798" y="-563.9" font-family="Arial" font-size="14.00" fill="#666666">[bigint]</text>
<polygon fill="none" stroke="#000000" points="936,-522.5 936,-552.5 1314,-552.5 1314,-522.5 936,-522.5"/>
<text text-anchor="start" x="943" y="-533.9" font-family="Arial" font-size="14.00" fill="#000000">user_id </text>
<text text-anchor="start" x="992.7882" y="-533.9" font-family="Arial" font-size="14.00" fill="#666666">[bigint]</text>
<polygon fill="none" stroke="#000000" points="936,-492.5 936,-522.5 1314,-522.5 1314,-492.5 936,-492.5"/>
<text text-anchor="start" x="943" y="-503.9" font-family="Arial" font-size="14.00" fill="#000000">issues </text>
<text text-anchor="start" x="986.5624" y="-503.9" font-family="Arial" font-size="14.00" fill="#666666">[bigint]</text>
<polygon fill="none" stroke="#000000" points="936,-462.5 936,-492.5 1314,-492.5 1314,-462.5 936,-462.5"/>
<text text-anchor="start" x="943" y="-473.9" font-family="Arial" font-size="14.00" fill="#000000">stars </text>
<text text-anchor="start" x="977.2244" y="-473.9" font-family="Arial" font-size="14.00" fill="#666666">[bigint]</text>
<polygon fill="none" stroke="#000000" points="936,-432.5 936,-462.5 1314,-462.5 1314,-432.5 936,-432.5"/>
<text text-anchor="start" x="943" y="-443.9" font-family="Arial" font-size="14.00" fill="#000000">watchers </text>
<text text-anchor="start" x="1002.8962" y="-443.9" font-family="Arial" font-size="14.00" fill="#666666">[bigint]</text>
<polygon fill="none" stroke="#000000" points="936,-402.5 936,-432.5 1314,-432.5 1314,-402.5 936,-402.5"/>
<text text-anchor="start" x="943" y="-413.9" font-family="Arial" font-size="14.00" fill="#000000">subscribers </text>
<text text-anchor="start" x="1018.4488" y="-413.9" font-family="Arial" font-size="14.00" fill="#666666">[bigint]</text>
<polygon fill="none" stroke="#000000" points="936,-372.5 936,-402.5 1314,-402.5 1314,-372.5 936,-372.5"/>
<text text-anchor="start" x="943" y="-383.9" font-family="Arial" font-size="14.00" fill="#000000">is_fork </text>
<text text-anchor="start" x="988.1136" y="-383.9" font-family="Arial" font-size="14.00" fill="#666666">[boolean]</text>
<polygon fill="none" stroke="#000000" points="936,-342.5 936,-372.5 1314,-372.5 1314,-342.5 936,-342.5"/>
<text text-anchor="start" x="943" y="-353.9" font-family="Arial" font-size="14.00" fill="#000000">created_at </text>
<text text-anchor="start" x="1013.028" y="-353.9" font-family="Arial" font-size="14.00" fill="#666666">[timestamp without time zone]</text>
<polygon fill="none" stroke="#000000" points="936,-312.5 936,-342.5 1314,-342.5 1314,-312.5 936,-312.5"/>
<text text-anchor="start" x="943" y="-323.9" font-family="Arial" font-size="14.00" fill="#000000">updated_at </text>
<text text-anchor="start" x="1016.9326" y="-323.9" font-family="Arial" font-size="14.00" fill="#666666">[timestamp without time zone]</text>
<polygon fill="none" stroke="#000000" points="936,-282.5 936,-312.5 1314,-312.5 1314,-282.5 936,-282.5"/>
<text text-anchor="start" x="943" y="-293.9" font-family="Arial" font-size="14.00" fill="#000000">pushed_at </text>
<text text-anchor="start" x="1012.2594" y="-293.9" font-family="Arial" font-size="14.00" fill="#666666">[timestamp without time zone]</text>
<polygon fill="none" stroke="#000000" points="936,-252.5 936,-282.5 1314,-282.5 1314,-252.5 936,-252.5"/>
<text text-anchor="start" x="942.5674" y="-263.9" font-family="Arial" font-size="14.00" fill="#000000">last_fetched_contributors_at </text>
<text text-anchor="start" x="1122.2924" y="-263.9" font-family="Arial" font-size="14.00" fill="#666666">[timestamp without time zone]</text>
<polygon fill="none" stroke="#000000" points="936,-222.5 936,-252.5 1314,-252.5 1314,-222.5 936,-222.5"/>
<text text-anchor="start" x="943" y="-233.9" font-family="Arial" font-size="14.00" fill="#000000">name </text>
<text text-anchor="start" x="981.899" y="-233.9" font-family="Arial" font-size="14.00" fill="#666666">[varchar(255)]</text>
<polygon fill="none" stroke="#000000" points="936,-192.5 936,-222.5 1314,-222.5 1314,-192.5 936,-192.5"/>
<text text-anchor="start" x="943" y="-203.9" font-family="Arial" font-size="14.00" fill="#000000">full_name </text>
<text text-anchor="start" x="1007.568" y="-203.9" font-family="Arial" font-size="14.00" fill="#666666">[varchar(255)]</text>
<polygon fill="none" stroke="#000000" points="936,-162.5 936,-192.5 1314,-192.5 1314,-162.5 936,-162.5"/>
<text text-anchor="start" x="943" y="-173.9" font-family="Arial" font-size="14.00" fill="#000000">description </text>
<text text-anchor="start" x="1014.568" y="-173.9" font-family="Arial" font-size="14.00" fill="#666666">[text]</text>
<polygon fill="none" stroke="#000000" points="936,-132.5 936,-162.5 1314,-162.5 1314,-132.5 936,-132.5"/>
<text text-anchor="start" x="943" y="-143.9" font-family="Arial" font-size="14.00" fill="#000000">language </text>
<text text-anchor="start" x="1004.4754" y="-143.9" font-family="Arial" font-size="14.00" fill="#666666">[varchar(64)]</text>
<polygon fill="none" stroke="#000000" points="936,-102.5 936,-132.5 1314,-132.5 1314,-102.5 936,-102.5"/>
<text text-anchor="start" x="943" y="-113.9" font-family="Arial" font-size="14.00" fill="#000000">license </text>
<text text-anchor="start" x="990.4516" y="-113.9" font-family="Arial" font-size="14.00" fill="#666666">[varchar(64)]</text>
<polygon fill="none" stroke="#000000" points="936,-72.5 936,-102.5 1314,-102.5 1314,-72.5 936,-72.5"/>
<text text-anchor="start" x="943" y="-83.9" font-family="Arial" font-size="14.00" fill="#000000">url </text>
<text text-anchor="start" x="962.4404" y="-83.9" font-family="Arial" font-size="14.00" fill="#666666">[varchar(255)]</text>
<polygon fill="none" stroke="#000000" points="936,-42.5 936,-72.5 1314,-72.5 1314,-42.5 936,-42.5"/>
<text text-anchor="start" x="943" y="-53.9" font-family="Arial" font-size="14.00" fill="#000000">deleted_at </text>
<text text-anchor="start" x="1012.2566" y="-53.9" font-family="Arial" font-size="14.00" fill="#666666">[timestamp with time zone]</text>
</g>
<!-- public.users_to_repos_stargazers&#45;&gt;public.repos -->
<g id="edge5" class="edge">
<title>public.users_to_repos_stargazers:repo_id&#45;&gt;public.repos:id</title>
<path fill="none" stroke="#000000" d="M1420.7949,-888.9584C1347.0376,-880.5888 1405.2333,-776.9203 1375,-697 1352.4894,-637.4943 1377.6212,-567.5 1314,-567.5"/>
<polygon fill="#000000" stroke="#000000" points="1421.0141,-888.9699 1430.7615,-893.9937 1426.007,-889.235 1431,-889.5 1431,-889.5 1431,-889.5 1426.007,-889.235 1431.2385,-885.0063 1421.0141,-888.9699 1421.0141,-888.9699"/>
<text text-anchor="start" x="1378.2755" y="-873.5" font-family="Arial" font-size="10.00" fill="#000000">FOREIGN KEY (repo_id) REFERENCES repos(id)</text>
</g>
<!-- public.users_to_repos_stars -->
<g id="node3" class="node">
<title>public.users_to_repos_stars</title>
<polygon fill="#efefef" stroke="transparent" points="43,-964.5 43,-999.5 379,-999.5 379,-964.5 43,-964.5"/>
<polygon fill="none" stroke="#000000" points="43,-964.5 43,-999.5 379,-999.5 379,-964.5 43,-964.5"/>
<text text-anchor="start" x="49.847" y="-977.3" font-family="Arial Bold" font-size="18.00" fill="#000000">public.users_to_repos_stars</text>
<text text-anchor="start" x="274.8992" y="-977.3" font-family="Arial" font-size="14.00" fill="#000000"> </text>
<text text-anchor="start" x="278.7898" y="-977.3" font-family="Arial" font-size="14.00" fill="#666666">[BASE TABLE]</text>
<polygon fill="none" stroke="#000000" points="43,-934.5 43,-964.5 379,-964.5 379,-934.5 43,-934.5"/>
<text text-anchor="start" x="50" y="-945.9" font-family="Arial" font-size="14.00" fill="#000000">id </text>
<text text-anchor="start" x="64.7798" y="-945.9" font-family="Arial" font-size="14.00" fill="#666666">[bigint]</text>
<polygon fill="none" stroke="#000000" points="43,-904.5 43,-934.5 379,-934.5 379,-904.5 43,-904.5"/>
<text text-anchor="start" x="50" y="-915.9" font-family="Arial" font-size="14.00" fill="#000000">user_id </text>
<text text-anchor="start" x="99.7882" y="-915.9" font-family="Arial" font-size="14.00" fill="#666666">[bigint]</text>
<polygon fill="none" stroke="#000000" points="43,-874.5 43,-904.5 379,-904.5 379,-874.5 43,-874.5"/>
<text text-anchor="start" x="50" y="-885.9" font-family="Arial" font-size="14.00" fill="#000000">repo_id </text>
<text text-anchor="start" x="100.5708" y="-885.9" font-family="Arial" font-size="14.00" fill="#666666">[bigint]</text>
<polygon fill="none" stroke="#000000" points="43,-844.5 43,-874.5 379,-874.5 379,-844.5 43,-844.5"/>
<text text-anchor="start" x="50" y="-855.9" font-family="Arial" font-size="14.00" fill="#000000">created_at </text>
<text text-anchor="start" x="120.028" y="-855.9" font-family="Arial" font-size="14.00" fill="#666666">[timestamp with time zone]</text>
<polygon fill="none" stroke="#000000" points="43,-814.5 43,-844.5 379,-844.5 379,-814.5 43,-814.5"/>
<text text-anchor="start" x="50" y="-825.9" font-family="Arial" font-size="14.00" fill="#000000">updated_at </text>
<text text-anchor="start" x="123.9326" y="-825.9" font-family="Arial" font-size="14.00" fill="#666666">[timestamp with time zone]</text>
<polygon fill="none" stroke="#000000" points="43,-784.5 43,-814.5 379,-814.5 379,-784.5 43,-784.5"/>
<text text-anchor="start" x="50" y="-795.9" font-family="Arial" font-size="14.00" fill="#000000">deleted_at </text>
<text text-anchor="start" x="119.2566" y="-795.9" font-family="Arial" font-size="14.00" fill="#666666">[timestamp with time zone]</text>
</g>
<!-- public.users_to_repos_stars&#45;&gt;public.users -->
<g id="edge2" class="edge">
<title>public.users_to_repos_stars:user_id&#45;&gt;public.users:id</title>
<path fill="none" stroke="#000000" d="M388.7651,-917.0168C427.7861,-895.5893 415.6639,-741.646 431,-697 473.0574,-574.5642 423.5421,-432.5 553,-432.5"/>
<polygon fill="#000000" stroke="#000000" points="388.6916,-917.0355 377.891,-915.1388 383.8458,-918.2677 379,-919.5 379,-919.5 379,-919.5 383.8458,-918.2677 380.109,-923.8612 388.6916,-917.0355 388.6916,-917.0355"/>
<text text-anchor="start" x="386.3345" y="-929.5" font-family="Arial" font-size="10.00" fill="#000000">FOREIGN KEY (user_id) REFERENCES users(id)</text>
</g>
<!-- public.users_to_repos_stars&#45;&gt;public.repos -->
<g id="edge7" class="edge">
<title>public.users_to_repos_stars:repo_id&#45;&gt;public.repos:id</title>
<path fill="none" stroke="#000000" d="M389.3824,-888.7654C458.9473,-877.9836 365.8927,-751.3551 431,-697 503.9296,-636.1144 772.5911,-704.5996 857,-661 905.3355,-636.0333 881.5973,-567.5 936,-567.5"/>
<polygon fill="#000000" stroke="#000000" points="388.9751,-888.7941 378.6823,-885.0112 383.9875,-889.1471 379,-889.5 379,-889.5 379,-889.5 383.9875,-889.1471 379.3177,-893.9888 388.9751,-888.7941 388.9751,-888.7941"/>
<text text-anchor="start" x="385.7755" y="-899.5" font-family="Arial" font-size="10.00" fill="#000000">FOREIGN KEY (repo_id) REFERENCES repos(id)</text>
</g>
<!-- public.users_to_repos_votes -->
<g id="node4" class="node">
<title>public.users_to_repos_votes</title>
<polygon fill="#efefef" stroke="transparent" points="483,-964.5 483,-999.5 823,-999.5 823,-964.5 483,-964.5"/>
<polygon fill="none" stroke="#000000" points="483,-964.5 483,-999.5 823,-999.5 823,-964.5 483,-964.5"/>
<text text-anchor="start" x="489.84" y="-977.3" font-family="Arial Bold" font-size="18.00" fill="#000000">public.users_to_repos_votes</text>
<text text-anchor="start" x="718.9062" y="-977.3" font-family="Arial" font-size="14.00" fill="#000000"> </text>
<text text-anchor="start" x="722.7968" y="-977.3" font-family="Arial" font-size="14.00" fill="#666666">[BASE TABLE]</text>
<polygon fill="none" stroke="#000000" points="483,-934.5 483,-964.5 823,-964.5 823,-934.5 483,-934.5"/>
<text text-anchor="start" x="490" y="-945.9" font-family="Arial" font-size="14.00" fill="#000000">id </text>
<text text-anchor="start" x="504.7798" y="-945.9" font-family="Arial" font-size="14.00" fill="#666666">[bigint]</text>
<polygon fill="none" stroke="#000000" points="483,-904.5 483,-934.5 823,-934.5 823,-904.5 483,-904.5"/>
<text text-anchor="start" x="490" y="-915.9" font-family="Arial" font-size="14.00" fill="#000000">user_id </text>
<text text-anchor="start" x="539.7882" y="-915.9" font-family="Arial" font-size="14.00" fill="#666666">[bigint]</text>
<polygon fill="none" stroke="#000000" points="483,-874.5 483,-904.5 823,-904.5 823,-874.5 483,-874.5"/>
<text text-anchor="start" x="490" y="-885.9" font-family="Arial" font-size="14.00" fill="#000000">repo_id </text>
<text text-anchor="start" x="540.5708" y="-885.9" font-family="Arial" font-size="14.00" fill="#666666">[bigint]</text>
<polygon fill="none" stroke="#000000" points="483,-844.5 483,-874.5 823,-874.5 823,-844.5 483,-844.5"/>
<text text-anchor="start" x="490" y="-855.9" font-family="Arial" font-size="14.00" fill="#000000">created_at </text>
<text text-anchor="start" x="560.028" y="-855.9" font-family="Arial" font-size="14.00" fill="#666666">[timestamp with time zone]</text>
<polygon fill="none" stroke="#000000" points="483,-814.5 483,-844.5 823,-844.5 823,-814.5 483,-814.5"/>
<text text-anchor="start" x="490" y="-825.9" font-family="Arial" font-size="14.00" fill="#000000">updated_at </text>
<text text-anchor="start" x="563.9326" y="-825.9" font-family="Arial" font-size="14.00" fill="#666666">[timestamp with time zone]</text>
<polygon fill="none" stroke="#000000" points="483,-784.5 483,-814.5 823,-814.5 823,-784.5 483,-784.5"/>
<text text-anchor="start" x="490" y="-795.9" font-family="Arial" font-size="14.00" fill="#000000">deleted_at </text>
<text text-anchor="start" x="559.2566" y="-795.9" font-family="Arial" font-size="14.00" fill="#666666">[timestamp with time zone]</text>
</g>
<!-- public.users_to_repos_votes&#45;&gt;public.users -->
<g id="edge3" class="edge">
<title>public.users_to_repos_votes:user_id&#45;&gt;public.users:id</title>
<path fill="none" stroke="#000000" d="M833.2928,-918.8132C897.72,-909.6028 855.5719,-809.7699 823,-742 756.4297,-603.4922 619.5703,-664.5078 553,-526 534.9986,-488.5458 511.4444,-432.5 553,-432.5"/>
<polygon fill="#000000" stroke="#000000" points="832.9778,-918.8342 822.7004,-915.01 827.9889,-919.1671 823,-919.5 823,-919.5 823,-919.5 827.9889,-919.1671 823.2996,-923.99 832.9778,-918.8342 832.9778,-918.8342"/>
<text text-anchor="start" x="830.3345" y="-929.5" font-family="Arial" font-size="10.00" fill="#000000">FOREIGN KEY (user_id) REFERENCES users(id)</text>
</g>
<!-- public.users_to_repos_votes&#45;&gt;public.repos -->
<g id="edge8" class="edge">
<title>public.users_to_repos_votes:repo_id&#45;&gt;public.repos:id</title>
<path fill="none" stroke="#000000" d="M833.1359,-888.9577C906.2758,-880.5769 845.6966,-776.7755 875,-697 896.9365,-637.2803 872.3788,-567.5 936,-567.5"/>
<polygon fill="#000000" stroke="#000000" points="832.9857,-888.9656 822.7595,-885.0064 827.9929,-889.2328 823,-889.5 823,-889.5 823,-889.5 827.9929,-889.2328 823.2405,-893.9936 832.9857,-888.9656 832.9857,-888.9656"/>
<text text-anchor="start" x="829.7755" y="-899.5" font-family="Arial" font-size="10.00" fill="#000000">FOREIGN KEY (repo_id) REFERENCES repos(id)</text>
</g>
<!-- public.users_to_repos_submissions -->
<g id="node5" class="node">
<title>public.users_to_repos_submissions</title>
<polygon fill="#efefef" stroke="transparent" points="927,-964.5 927,-999.5 1323,-999.5 1323,-964.5 927,-964.5"/>
<polygon fill="none" stroke="#000000" points="927,-964.5 927,-999.5 1323,-999.5 1323,-964.5 927,-964.5"/>
<text text-anchor="start" x="933.8446" y="-977.3" font-family="Arial Bold" font-size="18.00" fill="#000000">public.users_to_repos_submissions</text>
<text text-anchor="start" x="1218.9016" y="-977.3" font-family="Arial" font-size="14.00" fill="#000000"> </text>
<text text-anchor="start" x="1222.7922" y="-977.3" font-family="Arial" font-size="14.00" fill="#666666">[BASE TABLE]</text>
<polygon fill="none" stroke="#000000" points="927,-934.5 927,-964.5 1323,-964.5 1323,-934.5 927,-934.5"/>
<text text-anchor="start" x="934" y="-945.9" font-family="Arial" font-size="14.00" fill="#000000">id </text>
<text text-anchor="start" x="948.7798" y="-945.9" font-family="Arial" font-size="14.00" fill="#666666">[bigint]</text>
<polygon fill="none" stroke="#000000" points="927,-904.5 927,-934.5 1323,-934.5 1323,-904.5 927,-904.5"/>
<text text-anchor="start" x="934" y="-915.9" font-family="Arial" font-size="14.00" fill="#000000">user_id </text>
<text text-anchor="start" x="983.7882" y="-915.9" font-family="Arial" font-size="14.00" fill="#666666">[bigint]</text>
<polygon fill="none" stroke="#000000" points="927,-874.5 927,-904.5 1323,-904.5 1323,-874.5 927,-874.5"/>
<text text-anchor="start" x="934" y="-885.9" font-family="Arial" font-size="14.00" fill="#000000">repo_id </text>
<text text-anchor="start" x="984.5708" y="-885.9" font-family="Arial" font-size="14.00" fill="#666666">[bigint]</text>
<polygon fill="none" stroke="#000000" points="927,-844.5 927,-874.5 1323,-874.5 1323,-844.5 927,-844.5"/>
<text text-anchor="start" x="934" y="-855.9" font-family="Arial" font-size="14.00" fill="#000000">created_at </text>
<text text-anchor="start" x="1004.028" y="-855.9" font-family="Arial" font-size="14.00" fill="#666666">[timestamp with time zone]</text>
<polygon fill="none" stroke="#000000" points="927,-814.5 927,-844.5 1323,-844.5 1323,-814.5 927,-814.5"/>
<text text-anchor="start" x="934" y="-825.9" font-family="Arial" font-size="14.00" fill="#000000">updated_at </text>
<text text-anchor="start" x="1007.9326" y="-825.9" font-family="Arial" font-size="14.00" fill="#666666">[timestamp with time zone]</text>
<polygon fill="none" stroke="#000000" points="927,-784.5 927,-814.5 1323,-814.5 1323,-784.5 927,-784.5"/>
<text text-anchor="start" x="934" y="-795.9" font-family="Arial" font-size="14.00" fill="#000000">deleted_at </text>
<text text-anchor="start" x="1003.2566" y="-795.9" font-family="Arial" font-size="14.00" fill="#666666">[timestamp with time zone]</text>
</g>
<!-- public.users_to_repos_submissions&#45;&gt;public.users -->
<g id="edge4" class="edge">
<title>public.users_to_repos_submissions:user_id&#45;&gt;public.users:id</title>
<path fill="none" stroke="#000000" d="M917.1755,-917.0343C877.6506,-895.7553 886.3304,-742.8266 875,-697 845.8402,-579.0616 927.4897,-432.5 806,-432.5"/>
<polygon fill="#000000" stroke="#000000" points="917.3008,-917.0657 925.9046,-923.8646 922.1504,-918.2829 927,-919.5 927,-919.5 927,-919.5 922.1504,-918.2829 928.0954,-915.1354 917.3008,-917.0657 917.3008,-917.0657"/>
<text text-anchor="start" x="934.3345" y="-929.5" font-family="Arial" font-size="10.00" fill="#000000">FOREIGN KEY (user_id) REFERENCES users(id)</text>
</g>
<!-- public.users_to_repos_submissions&#45;&gt;public.repos -->
<g id="edge9" class="edge">
<title>public.users_to_repos_submissions:repo_id&#45;&gt;public.repos:id</title>
<path fill="none" stroke="#000000" d="M1332.9116,-887.2718C1393.5554,-858.8224 1382.0882,-567.5 1314,-567.5"/>
<polygon fill="#000000" stroke="#000000" points="1332.7565,-887.3066 1322.013,-885.1096 1327.8783,-888.4033 1323,-889.5 1323,-889.5 1323,-889.5 1327.8783,-888.4033 1323.987,-893.8904 1332.7565,-887.3066 1332.7565,-887.3066"/>
<text text-anchor="start" x="1091.7755" y="-899.5" font-family="Arial" font-size="10.00" fill="#000000">FOREIGN KEY (repo_id) REFERENCES repos(id)</text>
</g>
<!-- public.contributions -->
<g id="node7" class="node">
<title>public.contributions</title>
<polygon fill="#efefef" stroke="transparent" points="1919,-1009.5 1919,-1044.5 2218,-1044.5 2218,-1009.5 1919,-1009.5"/>
<polygon fill="none" stroke="#000000" points="1919,-1009.5 1919,-1044.5 2218,-1044.5 2218,-1009.5 1919,-1009.5"/>
<text text-anchor="start" x="1942.8574" y="-1022.3" font-family="Arial Bold" font-size="18.00" fill="#000000">public.contributions</text>
<text text-anchor="start" x="2096.8888" y="-1022.3" font-family="Arial" font-size="14.00" fill="#000000"> </text>
<text text-anchor="start" x="2100.7794" y="-1022.3" font-family="Arial" font-size="14.00" fill="#666666">[BASE TABLE]</text>
<polygon fill="none" stroke="#000000" points="1919,-979.5 1919,-1009.5 2218,-1009.5 2218,-979.5 1919,-979.5"/>
<text text-anchor="start" x="1926" y="-990.9" font-family="Arial" font-size="14.00" fill="#000000">id </text>
<text text-anchor="start" x="1940.7798" y="-990.9" font-family="Arial" font-size="14.00" fill="#666666">[bigint]</text>
<polygon fill="none" stroke="#000000" points="1919,-949.5 1919,-979.5 2218,-979.5 2218,-949.5 1919,-949.5"/>
<text text-anchor="start" x="1926" y="-960.9" font-family="Arial" font-size="14.00" fill="#000000">repo_id </text>
<text text-anchor="start" x="1976.5708" y="-960.9" font-family="Arial" font-size="14.00" fill="#666666">[bigint]</text>
<polygon fill="none" stroke="#000000" points="1919,-919.5 1919,-949.5 2218,-949.5 2218,-919.5 1919,-919.5"/>
<text text-anchor="start" x="1926" y="-930.9" font-family="Arial" font-size="14.00" fill="#000000">count </text>
<text text-anchor="start" x="1964.129" y="-930.9" font-family="Arial" font-size="14.00" fill="#666666">[bigint]</text>
<polygon fill="none" stroke="#000000" points="1919,-889.5 1919,-919.5 2218,-919.5 2218,-889.5 1919,-889.5"/>
<text text-anchor="start" x="1925.7497" y="-900.9" font-family="Arial" font-size="14.00" fill="#000000">last_merged_at </text>
<text text-anchor="start" x="2026.1101" y="-900.9" font-family="Arial" font-size="14.00" fill="#666666">[timestamp without time zone]</text>
<polygon fill="none" stroke="#000000" points="1919,-859.5 1919,-889.5 2218,-889.5 2218,-859.5 1919,-859.5"/>
<text text-anchor="start" x="1926" y="-870.9" font-family="Arial" font-size="14.00" fill="#000000">contributor </text>
<text text-anchor="start" x="1996.0126" y="-870.9" font-family="Arial" font-size="14.00" fill="#666666">[varchar(255)]</text>
<polygon fill="none" stroke="#000000" points="1919,-829.5 1919,-859.5 2218,-859.5 2218,-829.5 1919,-829.5"/>
<text text-anchor="start" x="1926" y="-840.9" font-family="Arial" font-size="14.00" fill="#000000">url </text>
<text text-anchor="start" x="1945.4404" y="-840.9" font-family="Arial" font-size="14.00" fill="#666666">[varchar(255)]</text>
<polygon fill="none" stroke="#000000" points="1919,-799.5 1919,-829.5 2218,-829.5 2218,-799.5 1919,-799.5"/>
<text text-anchor="start" x="1926" y="-810.9" font-family="Arial" font-size="14.00" fill="#000000">deleted_at </text>
<text text-anchor="start" x="1995.2566" y="-810.9" font-family="Arial" font-size="14.00" fill="#666666">[timestamp with time zone]</text>
<polygon fill="none" stroke="#000000" points="1919,-769.5 1919,-799.5 2218,-799.5 2218,-769.5 1919,-769.5"/>
<text text-anchor="start" x="1926" y="-780.9" font-family="Arial" font-size="14.00" fill="#000000">updated_at </text>
<text text-anchor="start" x="1999.9326" y="-780.9" font-family="Arial" font-size="14.00" fill="#666666">[timestamp with time zone]</text>
<polygon fill="none" stroke="#000000" points="1919,-739.5 1919,-769.5 2218,-769.5 2218,-739.5 1919,-739.5"/>
<text text-anchor="start" x="1926" y="-750.9" font-family="Arial" font-size="14.00" fill="#000000">created_at </text>
<text text-anchor="start" x="1996.028" y="-750.9" font-family="Arial" font-size="14.00" fill="#666666">[timestamp with time zone]</text>
</g>
<!-- public.contributions&#45;&gt;public.repos -->
<g id="edge6" class="edge">
<title>public.contributions:repo_id&#45;&gt;public.repos:id</title>
<path fill="none" stroke="#000000" d="M1908.7401,-964.012C1806.9387,-953.6719 1948.4539,-781.6124 1867,-697 1779.4668,-606.0726 1440.2135,-567.5 1314,-567.5"/>
<polygon fill="#000000" stroke="#000000" points="1909.0113,-964.0248 1918.7862,-968.9949 1914.0056,-964.2624 1919,-964.5 1919,-964.5 1919,-964.5 1914.0056,-964.2624 1919.2138,-960.0051 1909.0113,-964.0248 1909.0113,-964.0248"/>
<text text-anchor="start" x="1866.2755" y="-948.5" font-family="Arial" font-size="10.00" fill="#000000">FOREIGN KEY (repo_id) REFERENCES repos(id)</text>
</g>
</g>
</svg>
