<?xml version="1.0" encoding="UTF-8" standalone="no"?>
<!DOCTYPE svg PUBLIC "-//W3C//DTD SVG 1.1//EN"
 "http://www.w3.org/Graphics/SVG/1.1/DTD/svg11.dtd">
<!-- Generated by graphviz version 2.40.1 (20161225.0304)
 -->
<!-- Title: public.user_stars Pages: 1 -->
<svg width="696pt" height="772pt"
 viewBox="0.00 0.00 696.00 772.00" xmlns="http://www.w3.org/2000/svg" xmlns:xlink="http://www.w3.org/1999/xlink">
<g id="graph0" class="graph" transform="scale(1 1) rotate(0) translate(4 768)">
<title>public.user_stars</title>
<polygon fill="#ffffff" stroke="transparent" points="-4,4 -4,-768 692,-768 692,4 -4,4"/>
<!-- public.user_stars -->
<g id="node1" class="node">
<title>public.user_stars</title>
<polygon fill="#efefef" stroke="transparent" points="209.5,-682.5 209.5,-717.5 478.5,-717.5 478.5,-682.5 209.5,-682.5"/>
<polygon fill="none" stroke="#000000" points="209.5,-682.5 209.5,-717.5 478.5,-717.5 478.5,-682.5 209.5,-682.5"/>
<text text-anchor="start" x="227.3628" y="-695.3" font-family="Arial Bold" font-size="18.00" fill="#000000">public.user_stars</text>
<text text-anchor="start" x="363.3834" y="-695.3" font-family="Arial" font-size="14.00" fill="#000000"> </text>
<text text-anchor="start" x="367.274" y="-695.3" font-family="Arial" font-size="14.00" fill="#666666">[BASE TABLE]</text>
<polygon fill="none" stroke="#000000" points="209.5,-652.5 209.5,-682.5 478.5,-682.5 478.5,-652.5 209.5,-652.5"/>
<text text-anchor="start" x="216.5" y="-663.9" font-family="Arial" font-size="14.00" fill="#000000">id </text>
<text text-anchor="start" x="231.2798" y="-663.9" font-family="Arial" font-size="14.00" fill="#666666">[bigint]</text>
<polygon fill="none" stroke="#000000" points="209.5,-622.5 209.5,-652.5 478.5,-652.5 478.5,-622.5 209.5,-622.5"/>
<text text-anchor="start" x="216.5" y="-633.9" font-family="Arial" font-size="14.00" fill="#000000">user_id </text>
<text text-anchor="start" x="266.2882" y="-633.9" font-family="Arial" font-size="14.00" fill="#666666">[bigint]</text>
<polygon fill="none" stroke="#000000" points="209.5,-592.5 209.5,-622.5 478.5,-622.5 478.5,-592.5 209.5,-592.5"/>
<text text-anchor="start" x="216.5" y="-603.9" font-family="Arial" font-size="14.00" fill="#000000">star_id </text>
<text text-anchor="start" x="262.3962" y="-603.9" font-family="Arial" font-size="14.00" fill="#666666">[bigint]</text>
<polygon fill="none" stroke="#000000" points="209.5,-562.5 209.5,-592.5 478.5,-592.5 478.5,-562.5 209.5,-562.5"/>
<text text-anchor="start" x="216.5" y="-573.9" font-family="Arial" font-size="14.00" fill="#000000">recency_score </text>
<text text-anchor="start" x="311.4074" y="-573.9" font-family="Arial" font-size="14.00" fill="#666666">[numeric]</text>
<polygon fill="none" stroke="#000000" points="209.5,-532.5 209.5,-562.5 478.5,-562.5 478.5,-532.5 209.5,-532.5"/>
<text text-anchor="start" x="216.5" y="-543.9" font-family="Arial" font-size="14.00" fill="#000000">issues </text>
<text text-anchor="start" x="260.0624" y="-543.9" font-family="Arial" font-size="14.00" fill="#666666">[bigint]</text>
<polygon fill="none" stroke="#000000" points="209.5,-502.5 209.5,-532.5 478.5,-532.5 478.5,-502.5 209.5,-502.5"/>
<text text-anchor="start" x="216.5" y="-513.9" font-family="Arial" font-size="14.00" fill="#000000">stars </text>
<text text-anchor="start" x="250.7244" y="-513.9" font-family="Arial" font-size="14.00" fill="#666666">[bigint]</text>
<polygon fill="none" stroke="#000000" points="209.5,-472.5 209.5,-502.5 478.5,-502.5 478.5,-472.5 209.5,-472.5"/>
<text text-anchor="start" x="216.5" y="-483.9" font-family="Arial" font-size="14.00" fill="#000000">repo_name </text>
<text text-anchor="start" x="291.19" y="-483.9" font-family="Arial" font-size="14.00" fill="#666666">[text]</text>
<polygon fill="none" stroke="#000000" points="209.5,-442.5 209.5,-472.5 478.5,-472.5 478.5,-442.5 209.5,-442.5"/>
<text text-anchor="start" x="216.5" y="-453.9" font-family="Arial" font-size="14.00" fill="#000000">description </text>
<text text-anchor="start" x="288.068" y="-453.9" font-family="Arial" font-size="14.00" fill="#666666">[text]</text>
<polygon fill="none" stroke="#000000" points="209.5,-412.5 209.5,-442.5 478.5,-442.5 478.5,-412.5 209.5,-412.5"/>
<text text-anchor="start" x="216.5" y="-423.9" font-family="Arial" font-size="14.00" fill="#000000">contributors </text>
<text text-anchor="start" x="293.5126" y="-423.9" font-family="Arial" font-size="14.00" fill="#666666">[text[]]</text>
<polygon fill="none" stroke="#000000" points="209.5,-382.5 209.5,-412.5 478.5,-412.5 478.5,-382.5 209.5,-382.5"/>
<text text-anchor="start" x="216.4159" y="-393.9" font-family="Arial" font-size="14.00" fill="#000000">created_at </text>
<text text-anchor="start" x="286.4439" y="-393.9" font-family="Arial" font-size="14.00" fill="#666666">[timestamp without time zone]</text>
<polygon fill="none" stroke="#000000" stroke-width="3" points="207.5,-381.5 207.5,-719.5 479.5,-719.5 479.5,-381.5 207.5,-381.5"/>
</g>
<!-- public.users -->
<g id="node2" class="node">
<title>public.users</title>
<polygon fill="#efefef" stroke="transparent" points="43.5,-222.5 43.5,-257.5 292.5,-257.5 292.5,-222.5 43.5,-222.5"/>
<polygon fill="none" stroke="#000000" points="43.5,-222.5 43.5,-257.5 292.5,-257.5 292.5,-222.5 43.5,-222.5"/>
<text text-anchor="start" x="71.3662" y="-235.3" font-family="Arial Bold" font-size="18.00" fill="#000000">public.users</text>
<text text-anchor="start" x="167.38" y="-235.3" font-family="Arial" font-size="14.00" fill="#000000"> </text>
<text text-anchor="start" x="171.2706" y="-235.3" font-family="Arial" font-size="14.00" fill="#666666">[BASE TABLE]</text>
<polygon fill="none" stroke="#000000" points="43.5,-192.5 43.5,-222.5 292.5,-222.5 292.5,-192.5 43.5,-192.5"/>
<text text-anchor="start" x="50.5" y="-203.9" font-family="Arial" font-size="14.00" fill="#000000">id </text>
<text text-anchor="start" x="65.2798" y="-203.9" font-family="Arial" font-size="14.00" fill="#666666">[bigint]</text>
<polygon fill="none" stroke="#000000" points="43.5,-162.5 43.5,-192.5 292.5,-192.5 292.5,-162.5 43.5,-162.5"/>
<text text-anchor="start" x="50.5" y="-173.9" font-family="Arial" font-size="14.00" fill="#000000">open_issues </text>
<text text-anchor="start" x="132.9754" y="-173.9" font-family="Arial" font-size="14.00" fill="#666666">[bigint]</text>
<polygon fill="none" stroke="#000000" points="43.5,-132.5 43.5,-162.5 292.5,-162.5 292.5,-132.5 43.5,-132.5"/>
<text text-anchor="start" x="50.5" y="-143.9" font-family="Arial" font-size="14.00" fill="#000000">private </text>
<text text-anchor="start" x="96.3962" y="-143.9" font-family="Arial" font-size="14.00" fill="#666666">[boolean]</text>
<polygon fill="none" stroke="#000000" points="43.5,-102.5 43.5,-132.5 292.5,-132.5 292.5,-102.5 43.5,-102.5"/>
<text text-anchor="start" x="50.5" y="-113.9" font-family="Arial" font-size="14.00" fill="#000000">stars_data </text>
<text text-anchor="start" x="119.7454" y="-113.9" font-family="Arial" font-size="14.00" fill="#666666">[boolean]</text>
<polygon fill="none" stroke="#000000" points="43.5,-72.5 43.5,-102.5 292.5,-102.5 292.5,-72.5 43.5,-72.5"/>
<text text-anchor="start" x="50.5" y="-83.9" font-family="Arial" font-size="14.00" fill="#000000">login </text>
<text text-anchor="start" x="83.9516" y="-83.9" font-family="Arial" font-size="14.00" fill="#666666">[text]</text>
<polygon fill="none" stroke="#000000" points="43.5,-42.5 43.5,-72.5 292.5,-72.5 292.5,-42.5 43.5,-42.5"/>
<text text-anchor="start" x="50.1438" y="-53.9" font-family="Arial" font-size="14.00" fill="#000000">created_at </text>
<text text-anchor="start" x="120.1718" y="-53.9" font-family="Arial" font-size="14.00" fill="#666666">[timestamp with time zone]</text>
</g>
<!-- public.user_stars&#45;&gt;public.users -->
<g id="edge1" class="edge">
<title>public.user_stars:user_id&#45;&gt;public.users:id</title>
<path fill="none" stroke="#000000" stroke-dasharray="5,2" d="M199.3365,-637.111C79.1322,-627.5952 138.1539,-445.7134 209.5,-337 231.5617,-303.3835 270.4383,-334.6165 292.5,-301 315.3004,-266.258 334.0556,-207.5 292.5,-207.5"/>
<polygon fill="#000000" stroke="#000000" points="199.5073,-637.1175 209.3279,-641.9967 204.5037,-637.3087 209.5,-637.5 209.5,-637.5 209.5,-637.5 204.5037,-637.3087 209.6721,-633.0033 199.5073,-637.1175 199.5073,-637.1175"/>
<text text-anchor="start" x="123.768" y="-647.5" font-family="Arial" font-size="10.00" fill="#000000">Detected Relation</text>
</g>
<!-- public.stars -->
<g id="node3" class="node">
<title>public.stars</title>
<polygon fill="#efefef" stroke="transparent" points="396.5,-222.5 396.5,-257.5 645.5,-257.5 645.5,-222.5 396.5,-222.5"/>
<polygon fill="none" stroke="#000000" points="396.5,-222.5 396.5,-257.5 645.5,-257.5 645.5,-222.5 396.5,-222.5"/>
<text text-anchor="start" x="426.8682" y="-235.3" font-family="Arial Bold" font-size="18.00" fill="#000000">public.stars</text>
<text text-anchor="start" x="517.878" y="-235.3" font-family="Arial" font-size="14.00" fill="#000000"> </text>
<text text-anchor="start" x="521.7686" y="-235.3" font-family="Arial" font-size="14.00" fill="#666666">[BASE TABLE]</text>
<polygon fill="none" stroke="#000000" points="396.5,-192.5 396.5,-222.5 645.5,-222.5 645.5,-192.5 396.5,-192.5"/>
<text text-anchor="start" x="403.5" y="-203.9" font-family="Arial" font-size="14.00" fill="#000000">id </text>
<text text-anchor="start" x="418.2798" y="-203.9" font-family="Arial" font-size="14.00" fill="#666666">[bigint]</text>
<polygon fill="none" stroke="#000000" points="396.5,-162.5 396.5,-192.5 645.5,-192.5 645.5,-162.5 396.5,-162.5"/>
<text text-anchor="start" x="403.5" y="-173.9" font-family="Arial" font-size="14.00" fill="#000000">stargazers_count </text>
<text text-anchor="start" x="514.7538" y="-173.9" font-family="Arial" font-size="14.00" fill="#666666">[bigint]</text>
<polygon fill="none" stroke="#000000" points="396.5,-132.5 396.5,-162.5 645.5,-162.5 645.5,-132.5 396.5,-132.5"/>
<text text-anchor="start" x="403.5" y="-143.9" font-family="Arial" font-size="14.00" fill="#000000">open_issues_count </text>
<text text-anchor="start" x="527.9964" y="-143.9" font-family="Arial" font-size="14.00" fill="#666666">[bigint]</text>
<polygon fill="none" stroke="#000000" points="396.5,-102.5 396.5,-132.5 645.5,-132.5 645.5,-102.5 396.5,-102.5"/>
<text text-anchor="start" x="403.5" y="-113.9" font-family="Arial" font-size="14.00" fill="#000000">forks_count </text>
<text text-anchor="start" x="479.7454" y="-113.9" font-family="Arial" font-size="14.00" fill="#666666">[bigint]</text>
<polygon fill="none" stroke="#000000" points="396.5,-72.5 396.5,-102.5 645.5,-102.5 645.5,-72.5 396.5,-72.5"/>
<text text-anchor="start" x="403.5" y="-83.9" font-family="Arial" font-size="14.00" fill="#000000">full_name </text>
<text text-anchor="start" x="468.068" y="-83.9" font-family="Arial" font-size="14.00" fill="#666666">[text]</text>
<polygon fill="none" stroke="#000000" points="396.5,-42.5 396.5,-72.5 645.5,-72.5 645.5,-42.5 396.5,-42.5"/>
<text text-anchor="start" x="403.1438" y="-53.9" font-family="Arial" font-size="14.00" fill="#000000">created_at </text>
<text text-anchor="start" x="473.1718" y="-53.9" font-family="Arial" font-size="14.00" fill="#666666">[timestamp with time zone]</text>
</g>
<!-- public.user_stars&#45;&gt;public.stars -->
<g id="edge2" class="edge">
<title>public.user_stars:star_id&#45;&gt;public.stars:id</title>
<path fill="none" stroke="#000000" stroke-dasharray="5,2" d="M488.6207,-607.0687C595.5202,-597.6076 542.3132,-434.7077 478.5,-337 456.7357,-303.6756 418.2643,-334.3244 396.5,-301 373.7769,-266.2074 354.9444,-207.5 396.5,-207.5"/>
<polygon fill="#000000" stroke="#000000" points="488.4909,-607.0741 478.3084,-603.0041 483.4955,-607.2871 478.5,-607.5 478.5,-607.5 478.5,-607.5 483.4955,-607.2871 478.6916,-611.9959 488.4909,-607.0741 488.4909,-607.0741"/>
<text text-anchor="start" x="485.768" y="-617.5" font-family="Arial" font-size="10.00" fill="#000000">Detected Relation</text>
</g>
</g>
</svg>
