<?xml version="1.0" encoding="UTF-8" standalone="no"?>
<!DOCTYPE svg PUBLIC "-//W3C//DTD SVG 1.1//EN"
 "http://www.w3.org/Graphics/SVG/1.1/DTD/svg11.dtd">
<!-- Generated by graphviz version 2.40.1 (20161225.0304)
 -->
<!-- Title: public.users_to_repos_stars Pages: 1 -->
<svg width="892pt" height="922pt"
 viewBox="0.00 0.00 892.00 922.00" xmlns="http://www.w3.org/2000/svg" xmlns:xlink="http://www.w3.org/1999/xlink">
<g id="graph0" class="graph" transform="scale(1 1) rotate(0) translate(4 918)">
<title>public.users_to_repos_stars</title>
<polygon fill="#ffffff" stroke="transparent" points="-4,4 -4,-918 888,-918 888,4 -4,4"/>
<!-- public.users_to_repos_stars -->
<g id="node1" class="node">
<title>public.users_to_repos_stars</title>
<polygon fill="#efefef" stroke="transparent" points="46,-832.5 46,-867.5 382,-867.5 382,-832.5 46,-832.5"/>
<polygon fill="none" stroke="#000000" points="46,-832.5 46,-867.5 382,-867.5 382,-832.5 46,-832.5"/>
<text text-anchor="start" x="52.847" y="-845.3" font-family="Arial Bold" font-size="18.00" fill="#000000">public.users_to_repos_stars</text>
<text text-anchor="start" x="277.8992" y="-845.3" font-family="Arial" font-size="14.00" fill="#000000"> </text>
<text text-anchor="start" x="281.7898" y="-845.3" font-family="Arial" font-size="14.00" fill="#666666">[BASE TABLE]</text>
<polygon fill="none" stroke="#000000" points="46,-802.5 46,-832.5 382,-832.5 382,-802.5 46,-802.5"/>
<text text-anchor="start" x="53" y="-813.9" font-family="Arial" font-size="14.00" fill="#000000">id </text>
<text text-anchor="start" x="67.7798" y="-813.9" font-family="Arial" font-size="14.00" fill="#666666">[bigint]</text>
<polygon fill="none" stroke="#000000" points="46,-772.5 46,-802.5 382,-802.5 382,-772.5 46,-772.5"/>
<text text-anchor="start" x="53" y="-783.9" font-family="Arial" font-size="14.00" fill="#000000">user_id </text>
<text text-anchor="start" x="102.7882" y="-783.9" font-family="Arial" font-size="14.00" fill="#666666">[bigint]</text>
<polygon fill="none" stroke="#000000" points="46,-742.5 46,-772.5 382,-772.5 382,-742.5 46,-742.5"/>
<text text-anchor="start" x="53" y="-753.9" font-family="Arial" font-size="14.00" fill="#000000">repo_id </text>
<text text-anchor="start" x="103.5708" y="-753.9" font-family="Arial" font-size="14.00" fill="#666666">[bigint]</text>
<polygon fill="none" stroke="#000000" points="46,-712.5 46,-742.5 382,-742.5 382,-712.5 46,-712.5"/>
<text text-anchor="start" x="53" y="-723.9" font-family="Arial" font-size="14.00" fill="#000000">created_at </text>
<text text-anchor="start" x="123.028" y="-723.9" font-family="Arial" font-size="14.00" fill="#666666">[timestamp with time zone]</text>
<polygon fill="none" stroke="#000000" stroke-width="3" points="44.5,-711.5 44.5,-869.5 383.5,-869.5 383.5,-711.5 44.5,-711.5"/>
</g>
<!-- public.users -->
<g id="node2" class="node">
<title>public.users</title>
<polygon fill="#efefef" stroke="transparent" points="103,-402.5 103,-437.5 352,-437.5 352,-402.5 103,-402.5"/>
<polygon fill="none" stroke="#000000" points="103,-402.5 103,-437.5 352,-437.5 352,-402.5 103,-402.5"/>
<text text-anchor="start" x="130.8662" y="-415.3" font-family="Arial Bold" font-size="18.00" fill="#000000">public.users</text>
<text text-anchor="start" x="226.88" y="-415.3" font-family="Arial" font-size="14.00" fill="#000000"> </text>
<text text-anchor="start" x="230.7706" y="-415.3" font-family="Arial" font-size="14.00" fill="#666666">[BASE TABLE]</text>
<polygon fill="none" stroke="#000000" points="103,-372.5 103,-402.5 352,-402.5 352,-372.5 103,-372.5"/>
<text text-anchor="start" x="110" y="-383.9" font-family="Arial" font-size="14.00" fill="#000000">id </text>
<text text-anchor="start" x="124.7798" y="-383.9" font-family="Arial" font-size="14.00" fill="#666666">[bigint]</text>
<polygon fill="none" stroke="#000000" points="103,-342.5 103,-372.5 352,-372.5 352,-342.5 103,-342.5"/>
<text text-anchor="start" x="110" y="-353.9" font-family="Arial" font-size="14.00" fill="#000000">open_issues </text>
<text text-anchor="start" x="192.4754" y="-353.9" font-family="Arial" font-size="14.00" fill="#666666">[bigint]</text>
<polygon fill="none" stroke="#000000" points="103,-312.5 103,-342.5 352,-342.5 352,-312.5 103,-312.5"/>
<text text-anchor="start" x="110" y="-323.9" font-family="Arial" font-size="14.00" fill="#000000">has_stars_data </text>
<text text-anchor="start" x="209.5932" y="-323.9" font-family="Arial" font-size="14.00" fill="#666666">[boolean]</text>
<polygon fill="none" stroke="#000000" points="103,-282.5 103,-312.5 352,-312.5 352,-282.5 103,-282.5"/>
<text text-anchor="start" x="110" y="-293.9" font-family="Arial" font-size="14.00" fill="#000000">is_private </text>
<text text-anchor="start" x="173.7854" y="-293.9" font-family="Arial" font-size="14.00" fill="#666666">[boolean]</text>
<polygon fill="none" stroke="#000000" points="103,-252.5 103,-282.5 352,-282.5 352,-252.5 103,-252.5"/>
<text text-anchor="start" x="110" y="-263.9" font-family="Arial" font-size="14.00" fill="#000000">is_open_sauced_member </text>
<text text-anchor="start" x="274.9354" y="-263.9" font-family="Arial" font-size="14.00" fill="#666666">[boolean]</text>
<polygon fill="none" stroke="#000000" points="103,-222.5 103,-252.5 352,-252.5 352,-222.5 103,-222.5"/>
<text text-anchor="start" x="109.6438" y="-233.9" font-family="Arial" font-size="14.00" fill="#000000">created_at </text>
<text text-anchor="start" x="179.6718" y="-233.9" font-family="Arial" font-size="14.00" fill="#666666">[timestamp with time zone]</text>
<polygon fill="none" stroke="#000000" points="103,-192.5 103,-222.5 352,-222.5 352,-192.5 103,-192.5"/>
<text text-anchor="start" x="110" y="-203.9" font-family="Arial" font-size="14.00" fill="#000000">login </text>
<text text-anchor="start" x="143.4516" y="-203.9" font-family="Arial" font-size="14.00" fill="#666666">[varchar(255)]</text>
</g>
<!-- public.users_to_repos_stars&#45;&gt;public.users -->
<g id="edge1" class="edge">
<title>public.users_to_repos_stars:user_id&#45;&gt;public.users:id</title>
<path fill="none" stroke="#000000" d="M392.1126,-786.4477C431.5929,-777.3237 405.4938,-710.8985 382,-667 311.6793,-535.6045 173.3207,-612.3955 103,-481 83.3917,-444.3615 61.4444,-387.5 103,-387.5"/>
<polygon fill="#000000" stroke="#000000" points="391.9463,-786.4649 381.5342,-783.0242 386.9731,-786.9824 382,-787.5 382,-787.5 382,-787.5 386.9731,-786.9824 382.4658,-791.9758 391.9463,-786.4649 391.9463,-786.4649"/>
<text text-anchor="start" x="389.3345" y="-797.5" font-family="Arial" font-size="10.00" fill="#000000">FOREIGN KEY (user_id) REFERENCES users(id)</text>
</g>
<!-- public.repos -->
<g id="node4" class="node">
<title>public.repos</title>
<polygon fill="#efefef" stroke="transparent" points="463,-552.5 463,-587.5 841,-587.5 841,-552.5 463,-552.5"/>
<polygon fill="none" stroke="#000000" points="463,-552.5 463,-587.5 841,-587.5 841,-552.5 463,-552.5"/>
<text text-anchor="start" x="554.8631" y="-565.3" font-family="Arial Bold" font-size="18.00" fill="#000000">public.repos</text>
<text text-anchor="start" x="651.8831" y="-565.3" font-family="Arial" font-size="14.00" fill="#000000"> </text>
<text text-anchor="start" x="655.7737" y="-565.3" font-family="Arial" font-size="14.00" fill="#666666">[BASE TABLE]</text>
<polygon fill="none" stroke="#000000" points="463,-522.5 463,-552.5 841,-552.5 841,-522.5 463,-522.5"/>
<text text-anchor="start" x="470" y="-533.9" font-family="Arial" font-size="14.00" fill="#000000">id </text>
<text text-anchor="start" x="484.7798" y="-533.9" font-family="Arial" font-size="14.00" fill="#666666">[bigint]</text>
<polygon fill="none" stroke="#000000" points="463,-492.5 463,-522.5 841,-522.5 841,-492.5 463,-492.5"/>
<text text-anchor="start" x="470" y="-503.9" font-family="Arial" font-size="14.00" fill="#000000">user_id </text>
<text text-anchor="start" x="519.7882" y="-503.9" font-family="Arial" font-size="14.00" fill="#666666">[bigint]</text>
<polygon fill="none" stroke="#000000" points="463,-462.5 463,-492.5 841,-492.5 841,-462.5 463,-462.5"/>
<text text-anchor="start" x="470" y="-473.9" font-family="Arial" font-size="14.00" fill="#000000">issues </text>
<text text-anchor="start" x="513.5624" y="-473.9" font-family="Arial" font-size="14.00" fill="#666666">[bigint]</text>
<polygon fill="none" stroke="#000000" points="463,-432.5 463,-462.5 841,-462.5 841,-432.5 463,-432.5"/>
<text text-anchor="start" x="470" y="-443.9" font-family="Arial" font-size="14.00" fill="#000000">stars </text>
<text text-anchor="start" x="504.2244" y="-443.9" font-family="Arial" font-size="14.00" fill="#666666">[bigint]</text>
<polygon fill="none" stroke="#000000" points="463,-402.5 463,-432.5 841,-432.5 841,-402.5 463,-402.5"/>
<text text-anchor="start" x="470" y="-413.9" font-family="Arial" font-size="14.00" fill="#000000">watchers </text>
<text text-anchor="start" x="529.8962" y="-413.9" font-family="Arial" font-size="14.00" fill="#666666">[bigint]</text>
<polygon fill="none" stroke="#000000" points="463,-372.5 463,-402.5 841,-402.5 841,-372.5 463,-372.5"/>
<text text-anchor="start" x="470" y="-383.9" font-family="Arial" font-size="14.00" fill="#000000">subscribers </text>
<text text-anchor="start" x="545.4488" y="-383.9" font-family="Arial" font-size="14.00" fill="#666666">[bigint]</text>
<polygon fill="none" stroke="#000000" points="463,-342.5 463,-372.5 841,-372.5 841,-342.5 463,-342.5"/>
<text text-anchor="start" x="470" y="-353.9" font-family="Arial" font-size="14.00" fill="#000000">is_fork </text>
<text text-anchor="start" x="515.1136" y="-353.9" font-family="Arial" font-size="14.00" fill="#666666">[boolean]</text>
<polygon fill="none" stroke="#000000" points="463,-312.5 463,-342.5 841,-342.5 841,-312.5 463,-312.5"/>
<text text-anchor="start" x="470" y="-323.9" font-family="Arial" font-size="14.00" fill="#000000">created_at </text>
<text text-anchor="start" x="540.028" y="-323.9" font-family="Arial" font-size="14.00" fill="#666666">[timestamp without time zone]</text>
<polygon fill="none" stroke="#000000" points="463,-282.5 463,-312.5 841,-312.5 841,-282.5 463,-282.5"/>
<text text-anchor="start" x="470" y="-293.9" font-family="Arial" font-size="14.00" fill="#000000">updated_at </text>
<text text-anchor="start" x="543.9326" y="-293.9" font-family="Arial" font-size="14.00" fill="#666666">[timestamp without time zone]</text>
<polygon fill="none" stroke="#000000" points="463,-252.5 463,-282.5 841,-282.5 841,-252.5 463,-252.5"/>
<text text-anchor="start" x="470" y="-263.9" font-family="Arial" font-size="14.00" fill="#000000">pushed_at </text>
<text text-anchor="start" x="539.2594" y="-263.9" font-family="Arial" font-size="14.00" fill="#666666">[timestamp without time zone]</text>
<polygon fill="none" stroke="#000000" points="463,-222.5 463,-252.5 841,-252.5 841,-222.5 463,-222.5"/>
<text text-anchor="start" x="469.5674" y="-233.9" font-family="Arial" font-size="14.00" fill="#000000">last_fetched_contributors_at </text>
<text text-anchor="start" x="649.2924" y="-233.9" font-family="Arial" font-size="14.00" fill="#666666">[timestamp without time zone]</text>
<polygon fill="none" stroke="#000000" points="463,-192.5 463,-222.5 841,-222.5 841,-192.5 463,-192.5"/>
<text text-anchor="start" x="470" y="-203.9" font-family="Arial" font-size="14.00" fill="#000000">name </text>
<text text-anchor="start" x="508.899" y="-203.9" font-family="Arial" font-size="14.00" fill="#666666">[varchar(255)]</text>
<polygon fill="none" stroke="#000000" points="463,-162.5 463,-192.5 841,-192.5 841,-162.5 463,-162.5"/>
<text text-anchor="start" x="470" y="-173.9" font-family="Arial" font-size="14.00" fill="#000000">full_name </text>
<text text-anchor="start" x="534.568" y="-173.9" font-family="Arial" font-size="14.00" fill="#666666">[varchar(255)]</text>
<polygon fill="none" stroke="#000000" points="463,-132.5 463,-162.5 841,-162.5 841,-132.5 463,-132.5"/>
<text text-anchor="start" x="470" y="-143.9" font-family="Arial" font-size="14.00" fill="#000000">description </text>
<text text-anchor="start" x="541.568" y="-143.9" font-family="Arial" font-size="14.00" fill="#666666">[text]</text>
<polygon fill="none" stroke="#000000" points="463,-102.5 463,-132.5 841,-132.5 841,-102.5 463,-102.5"/>
<text text-anchor="start" x="470" y="-113.9" font-family="Arial" font-size="14.00" fill="#000000">language </text>
<text text-anchor="start" x="531.4754" y="-113.9" font-family="Arial" font-size="14.00" fill="#666666">[varchar(64)]</text>
<polygon fill="none" stroke="#000000" points="463,-72.5 463,-102.5 841,-102.5 841,-72.5 463,-72.5"/>
<text text-anchor="start" x="470" y="-83.9" font-family="Arial" font-size="14.00" fill="#000000">license </text>
<text text-anchor="start" x="517.4516" y="-83.9" font-family="Arial" font-size="14.00" fill="#666666">[varchar(64)]</text>
<polygon fill="none" stroke="#000000" points="463,-42.5 463,-72.5 841,-72.5 841,-42.5 463,-42.5"/>
<text text-anchor="start" x="470" y="-53.9" font-family="Arial" font-size="14.00" fill="#000000">url </text>
<text text-anchor="start" x="489.4404" y="-53.9" font-family="Arial" font-size="14.00" fill="#666666">[varchar(255)]</text>
</g>
<!-- public.users_to_repos_stars&#45;&gt;public.repos -->
<g id="edge3" class="edge">
<title>public.users_to_repos_stars:repo_id&#45;&gt;public.repos:id</title>
<path fill="none" stroke="#000000" d="M392.1507,-756.7034C477.5237,-742.3032 362.4686,-537.5 463,-537.5"/>
<polygon fill="#000000" stroke="#000000" points="391.9693,-756.7175 381.6479,-753.0138 386.9847,-757.1088 382,-757.5 382,-757.5 382,-757.5 386.9847,-757.1088 382.3521,-761.9862 391.9693,-756.7175 391.9693,-756.7175"/>
<text text-anchor="start" x="388.7755" y="-767.5" font-family="Arial" font-size="10.00" fill="#000000">FOREIGN KEY (repo_id) REFERENCES repos(id)</text>
</g>
<!-- public.users_to_repos_votes -->
<g id="node3" class="node">
<title>public.users_to_repos_votes</title>
<polygon fill="#efefef" stroke="transparent" points="489,-832.5 489,-867.5 829,-867.5 829,-832.5 489,-832.5"/>
<polygon fill="none" stroke="#000000" points="489,-832.5 489,-867.5 829,-867.5 829,-832.5 489,-832.5"/>
<text text-anchor="start" x="495.84" y="-845.3" font-family="Arial Bold" font-size="18.00" fill="#000000">public.users_to_repos_votes</text>
<text text-anchor="start" x="724.9062" y="-845.3" font-family="Arial" font-size="14.00" fill="#000000"> </text>
<text text-anchor="start" x="728.7968" y="-845.3" font-family="Arial" font-size="14.00" fill="#666666">[BASE TABLE]</text>
<polygon fill="none" stroke="#000000" points="489,-802.5 489,-832.5 829,-832.5 829,-802.5 489,-802.5"/>
<text text-anchor="start" x="496" y="-813.9" font-family="Arial" font-size="14.00" fill="#000000">id </text>
<text text-anchor="start" x="510.7798" y="-813.9" font-family="Arial" font-size="14.00" fill="#666666">[bigint]</text>
<polygon fill="none" stroke="#000000" points="489,-772.5 489,-802.5 829,-802.5 829,-772.5 489,-772.5"/>
<text text-anchor="start" x="496" y="-783.9" font-family="Arial" font-size="14.00" fill="#000000">user_id </text>
<text text-anchor="start" x="545.7882" y="-783.9" font-family="Arial" font-size="14.00" fill="#666666">[bigint]</text>
<polygon fill="none" stroke="#000000" points="489,-742.5 489,-772.5 829,-772.5 829,-742.5 489,-742.5"/>
<text text-anchor="start" x="496" y="-753.9" font-family="Arial" font-size="14.00" fill="#000000">repo_id </text>
<text text-anchor="start" x="546.5708" y="-753.9" font-family="Arial" font-size="14.00" fill="#666666">[bigint]</text>
<polygon fill="none" stroke="#000000" points="489,-712.5 489,-742.5 829,-742.5 829,-712.5 489,-712.5"/>
<text text-anchor="start" x="496" y="-723.9" font-family="Arial" font-size="14.00" fill="#000000">created_at </text>
<text text-anchor="start" x="566.028" y="-723.9" font-family="Arial" font-size="14.00" fill="#666666">[timestamp with time zone]</text>
</g>
<!-- public.users_to_repos_votes&#45;&gt;public.users -->
<g id="edge2" class="edge">
<title>public.users_to_repos_votes:user_id&#45;&gt;public.users:id</title>
<path fill="none" stroke="#000000" d="M478.8441,-786.6542C434.9337,-778.5844 463.9459,-714.4531 437,-667 427.2544,-649.8374 419.2563,-648.9266 411,-631 364.4178,-529.8578 463.3537,-387.5 352,-387.5"/>
<polygon fill="#000000" stroke="#000000" points="479.0345,-786.6699 488.6265,-791.9845 484.0173,-787.085 489,-787.5 489,-787.5 489,-787.5 484.0173,-787.085 489.3735,-783.0155 479.0345,-786.6699 479.0345,-786.6699"/>
<text text-anchor="start" x="318.5845" y="-771.5" font-family="Arial" font-size="10.00" fill="#000000">FOREIGN KEY (user_id) REFERENCES users(id)</text>
</g>
<!-- public.users_to_repos_votes&#45;&gt;public.repos -->
<g id="edge4" class="edge">
<title>public.users_to_repos_votes:repo_id&#45;&gt;public.repos:id</title>
<path fill="none" stroke="#000000" d="M479.0537,-755.9076C452.764,-746.3508 465.5929,-696.1437 489,-670 541.4964,-611.366 788.5036,-689.634 841,-631 868.7191,-600.0401 882.5556,-537.5 841,-537.5"/>
<polygon fill="#000000" stroke="#000000" points="479.1258,-755.919 488.2886,-761.9434 484.0629,-756.7095 489,-757.5 489,-757.5 489,-757.5 484.0629,-756.7095 489.7114,-753.0566 479.1258,-755.919 479.1258,-755.919"/>
<text text-anchor="start" x="436.2755" y="-741.5" font-family="Arial" font-size="10.00" fill="#000000">FOREIGN KEY (repo_id) REFERENCES repos(id)</text>
</g>
</g>
</svg>
