<?xml version="1.0" encoding="UTF-8" standalone="no"?>
<!DOCTYPE svg PUBLIC "-//W3C//DTD SVG 1.1//EN"
 "http://www.w3.org/Graphics/SVG/1.1/DTD/svg11.dtd">
<!-- Generated by graphviz version 2.40.1 (20161225.0304)
 -->
<!-- Title: public.stars Pages: 1 -->
<svg width="702pt" height="772pt"
 viewBox="0.00 0.00 702.00 772.00" xmlns="http://www.w3.org/2000/svg" xmlns:xlink="http://www.w3.org/1999/xlink">
<g id="graph0" class="graph" transform="scale(1 1) rotate(0) translate(4 768)">
<title>public.stars</title>
<polygon fill="#ffffff" stroke="transparent" points="-4,4 -4,-768 698,-768 698,4 -4,4"/>
<!-- public.stars -->
<g id="node1" class="node">
<title>public.stars</title>
<polygon fill="#efefef" stroke="transparent" points="46.5,-225.5 46.5,-260.5 295.5,-260.5 295.5,-225.5 46.5,-225.5"/>
<polygon fill="none" stroke="#000000" points="46.5,-225.5 46.5,-260.5 295.5,-260.5 295.5,-225.5 46.5,-225.5"/>
<text text-anchor="start" x="76.8682" y="-238.3" font-family="Arial Bold" font-size="18.00" fill="#000000">public.stars</text>
<text text-anchor="start" x="167.878" y="-238.3" font-family="Arial" font-size="14.00" fill="#000000"> </text>
<text text-anchor="start" x="171.7686" y="-238.3" font-family="Arial" font-size="14.00" fill="#666666">[BASE TABLE]</text>
<polygon fill="none" stroke="#000000" points="46.5,-195.5 46.5,-225.5 295.5,-225.5 295.5,-195.5 46.5,-195.5"/>
<text text-anchor="start" x="53.5" y="-206.9" font-family="Arial" font-size="14.00" fill="#000000">id </text>
<text text-anchor="start" x="68.2798" y="-206.9" font-family="Arial" font-size="14.00" fill="#666666">[bigint]</text>
<polygon fill="none" stroke="#000000" points="46.5,-165.5 46.5,-195.5 295.5,-195.5 295.5,-165.5 46.5,-165.5"/>
<text text-anchor="start" x="53.1438" y="-176.9" font-family="Arial" font-size="14.00" fill="#000000">created_at </text>
<text text-anchor="start" x="123.1718" y="-176.9" font-family="Arial" font-size="14.00" fill="#666666">[timestamp with time zone]</text>
<polygon fill="none" stroke="#000000" points="46.5,-135.5 46.5,-165.5 295.5,-165.5 295.5,-135.5 46.5,-135.5"/>
<text text-anchor="start" x="53.5" y="-146.9" font-family="Arial" font-size="14.00" fill="#000000">full_name </text>
<text text-anchor="start" x="118.068" y="-146.9" font-family="Arial" font-size="14.00" fill="#666666">[text]</text>
<polygon fill="none" stroke="#000000" points="46.5,-105.5 46.5,-135.5 295.5,-135.5 295.5,-105.5 46.5,-105.5"/>
<text text-anchor="start" x="53.5" y="-116.9" font-family="Arial" font-size="14.00" fill="#000000">stargazers_count </text>
<text text-anchor="start" x="164.7538" y="-116.9" font-family="Arial" font-size="14.00" fill="#666666">[integer]</text>
<polygon fill="none" stroke="#000000" points="46.5,-75.5 46.5,-105.5 295.5,-105.5 295.5,-75.5 46.5,-75.5"/>
<text text-anchor="start" x="53.5" y="-86.9" font-family="Arial" font-size="14.00" fill="#000000">open_issues_count </text>
<text text-anchor="start" x="177.9964" y="-86.9" font-family="Arial" font-size="14.00" fill="#666666">[integer]</text>
<polygon fill="none" stroke="#000000" points="46.5,-45.5 46.5,-75.5 295.5,-75.5 295.5,-45.5 46.5,-45.5"/>
<text text-anchor="start" x="53.5" y="-56.9" font-family="Arial" font-size="14.00" fill="#000000">forks_count </text>
<text text-anchor="start" x="129.7454" y="-56.9" font-family="Arial" font-size="14.00" fill="#666666">[integer]</text>
<polygon fill="none" stroke="#000000" stroke-width="3" points="44.5,-44.5 44.5,-262.5 296.5,-262.5 296.5,-44.5 44.5,-44.5"/>
</g>
<!-- public.user_stars -->
<g id="node2" class="node">
<title>public.user_stars</title>
<polygon fill="#efefef" stroke="transparent" points="214.5,-685.5 214.5,-720.5 483.5,-720.5 483.5,-685.5 214.5,-685.5"/>
<polygon fill="none" stroke="#000000" points="214.5,-685.5 214.5,-720.5 483.5,-720.5 483.5,-685.5 214.5,-685.5"/>
<text text-anchor="start" x="232.3628" y="-698.3" font-family="Arial Bold" font-size="18.00" fill="#000000">public.user_stars</text>
<text text-anchor="start" x="368.3834" y="-698.3" font-family="Arial" font-size="14.00" fill="#000000"> </text>
<text text-anchor="start" x="372.274" y="-698.3" font-family="Arial" font-size="14.00" fill="#666666">[BASE TABLE]</text>
<polygon fill="none" stroke="#000000" points="214.5,-655.5 214.5,-685.5 483.5,-685.5 483.5,-655.5 214.5,-655.5"/>
<text text-anchor="start" x="221.5" y="-666.9" font-family="Arial" font-size="14.00" fill="#000000">id </text>
<text text-anchor="start" x="236.2798" y="-666.9" font-family="Arial" font-size="14.00" fill="#666666">[bigint]</text>
<polygon fill="none" stroke="#000000" points="214.5,-625.5 214.5,-655.5 483.5,-655.5 483.5,-625.5 214.5,-625.5"/>
<text text-anchor="start" x="221.5" y="-636.9" font-family="Arial" font-size="14.00" fill="#000000">user_id </text>
<text text-anchor="start" x="271.2882" y="-636.9" font-family="Arial" font-size="14.00" fill="#666666">[bigint]</text>
<polygon fill="none" stroke="#000000" points="214.5,-595.5 214.5,-625.5 483.5,-625.5 483.5,-595.5 214.5,-595.5"/>
<text text-anchor="start" x="221.5" y="-606.9" font-family="Arial" font-size="14.00" fill="#000000">star_id </text>
<text text-anchor="start" x="267.3962" y="-606.9" font-family="Arial" font-size="14.00" fill="#666666">[bigint]</text>
<polygon fill="none" stroke="#000000" points="214.5,-565.5 214.5,-595.5 483.5,-595.5 483.5,-565.5 214.5,-565.5"/>
<text text-anchor="start" x="221.5" y="-576.9" font-family="Arial" font-size="14.00" fill="#000000">repo_name </text>
<text text-anchor="start" x="296.19" y="-576.9" font-family="Arial" font-size="14.00" fill="#666666">[text]</text>
<polygon fill="none" stroke="#000000" points="214.5,-535.5 214.5,-565.5 483.5,-565.5 483.5,-535.5 214.5,-535.5"/>
<text text-anchor="start" x="221.5" y="-546.9" font-family="Arial" font-size="14.00" fill="#000000">recency_score </text>
<text text-anchor="start" x="316.4074" y="-546.9" font-family="Arial" font-size="14.00" fill="#666666">[smallint]</text>
<polygon fill="none" stroke="#000000" points="214.5,-505.5 214.5,-535.5 483.5,-535.5 483.5,-505.5 214.5,-505.5"/>
<text text-anchor="start" x="221.5" y="-516.9" font-family="Arial" font-size="14.00" fill="#000000">description </text>
<text text-anchor="start" x="293.068" y="-516.9" font-family="Arial" font-size="14.00" fill="#666666">[varchar]</text>
<polygon fill="none" stroke="#000000" points="214.5,-475.5 214.5,-505.5 483.5,-505.5 483.5,-475.5 214.5,-475.5"/>
<text text-anchor="start" x="221.5" y="-486.9" font-family="Arial" font-size="14.00" fill="#000000">issues </text>
<text text-anchor="start" x="265.0624" y="-486.9" font-family="Arial" font-size="14.00" fill="#666666">[integer]</text>
<polygon fill="none" stroke="#000000" points="214.5,-445.5 214.5,-475.5 483.5,-475.5 483.5,-445.5 214.5,-445.5"/>
<text text-anchor="start" x="221.5" y="-456.9" font-family="Arial" font-size="14.00" fill="#000000">stars </text>
<text text-anchor="start" x="255.7244" y="-456.9" font-family="Arial" font-size="14.00" fill="#666666">[integer]</text>
<polygon fill="none" stroke="#000000" points="214.5,-415.5 214.5,-445.5 483.5,-445.5 483.5,-415.5 214.5,-415.5"/>
<text text-anchor="start" x="221.5" y="-426.9" font-family="Arial" font-size="14.00" fill="#000000">contributors </text>
<text text-anchor="start" x="298.5126" y="-426.9" font-family="Arial" font-size="14.00" fill="#666666">[text[]]</text>
<polygon fill="none" stroke="#000000" points="214.5,-385.5 214.5,-415.5 483.5,-415.5 483.5,-385.5 214.5,-385.5"/>
<text text-anchor="start" x="221.4159" y="-396.9" font-family="Arial" font-size="14.00" fill="#000000">created_at </text>
<text text-anchor="start" x="291.4439" y="-396.9" font-family="Arial" font-size="14.00" fill="#666666">[timestamp without time zone]</text>
</g>
<!-- public.user_stars&#45;&gt;public.stars -->
<g id="edge1" class="edge">
<title>public.user_stars:star_id&#45;&gt;public.stars:id</title>
<path fill="none" stroke="#000000" stroke-dasharray="5,2" d="M204.4921,-610.0738C98.7905,-600.7257 151.6138,-439.7669 214.5,-343 235.9671,-309.9672 274.0329,-340.0328 295.5,-307 318.8707,-271.038 338.3889,-210.5 295.5,-210.5"/>
<polygon fill="#000000" stroke="#000000" points="204.5091,-610.0745 214.3085,-614.9959 209.5045,-610.2872 214.5,-610.5 214.5,-610.5 214.5,-610.5 209.5045,-610.2872 214.6915,-606.0041 204.5091,-610.0745 204.5091,-610.0745"/>
<text text-anchor="start" x="128.768" y="-620.5" font-family="Arial" font-size="10.00" fill="#000000">Detected Relation</text>
</g>
<!-- public.users -->
<g id="node3" class="node">
<title>public.users</title>
<polygon fill="#efefef" stroke="transparent" points="402.5,-180.5 402.5,-215.5 651.5,-215.5 651.5,-180.5 402.5,-180.5"/>
<polygon fill="none" stroke="#000000" points="402.5,-180.5 402.5,-215.5 651.5,-215.5 651.5,-180.5 402.5,-180.5"/>
<text text-anchor="start" x="430.3662" y="-193.3" font-family="Arial Bold" font-size="18.00" fill="#000000">public.users</text>
<text text-anchor="start" x="526.38" y="-193.3" font-family="Arial" font-size="14.00" fill="#000000"> </text>
<text text-anchor="start" x="530.2706" y="-193.3" font-family="Arial" font-size="14.00" fill="#666666">[BASE TABLE]</text>
<polygon fill="none" stroke="#000000" points="402.5,-150.5 402.5,-180.5 651.5,-180.5 651.5,-150.5 402.5,-150.5"/>
<text text-anchor="start" x="409.5" y="-161.9" font-family="Arial" font-size="14.00" fill="#000000">id </text>
<text text-anchor="start" x="424.2798" y="-161.9" font-family="Arial" font-size="14.00" fill="#666666">[bigint]</text>
<polygon fill="none" stroke="#000000" points="402.5,-120.5 402.5,-150.5 651.5,-150.5 651.5,-120.5 402.5,-120.5"/>
<text text-anchor="start" x="409.5" y="-131.9" font-family="Arial" font-size="14.00" fill="#000000">login </text>
<text text-anchor="start" x="442.9516" y="-131.9" font-family="Arial" font-size="14.00" fill="#666666">[text]</text>
<polygon fill="none" stroke="#000000" points="402.5,-90.5 402.5,-120.5 651.5,-120.5 651.5,-90.5 402.5,-90.5"/>
<text text-anchor="start" x="409.1438" y="-101.9" font-family="Arial" font-size="14.00" fill="#000000">created_at </text>
<text text-anchor="start" x="479.1718" y="-101.9" font-family="Arial" font-size="14.00" fill="#666666">[timestamp with time zone]</text>
</g>
<!-- public.user_stars&#45;&gt;public.users -->
<g id="edge2" class="edge">
<title>public.user_stars:user_id&#45;&gt;public.users:id</title>
<path fill="none" stroke="#000000" stroke-dasharray="5,2" d="M493.5152,-640.1394C611.3823,-631.3137 531.682,-462.3794 483.5,-343 464.0892,-294.9063 421.9108,-307.0937 402.5,-259 386.947,-220.4647 360.9444,-165.5 402.5,-165.5"/>
<polygon fill="#000000" stroke="#000000" points="493.4935,-640.1401 483.338,-636.0029 488.4968,-640.32 483.5,-640.5 483.5,-640.5 483.5,-640.5 488.4968,-640.32 483.662,-644.9971 493.4935,-640.1401 493.4935,-640.1401"/>
<text text-anchor="start" x="490.768" y="-650.5" font-family="Arial" font-size="10.00" fill="#000000">Detected Relation</text>
</g>
</g>
</svg>
