<?xml version="1.0" encoding="UTF-8" standalone="no"?>
<!DOCTYPE svg PUBLIC "-//W3C//DTD SVG 1.1//EN"
 "http://www.w3.org/Graphics/SVG/1.1/DTD/svg11.dtd">
<!-- Generated by graphviz version 2.40.1 (20161225.0304)
 -->
<!-- Title: public.repos Pages: 1 -->
<svg width="1278pt" height="982pt"
 viewBox="0.00 0.00 1277.50 982.00" xmlns="http://www.w3.org/2000/svg" xmlns:xlink="http://www.w3.org/1999/xlink">
<g id="graph0" class="graph" transform="scale(1 1) rotate(0) translate(4 978)">
<title>public.repos</title>
<polygon fill="#ffffff" stroke="transparent" points="-4,4 -4,-978 1273.5,-978 1273.5,4 -4,4"/>
<!-- public.repos -->
<g id="node1" class="node">
<title>public.repos</title>
<polygon fill="#efefef" stroke="transparent" points="427.5,-555.5 427.5,-590.5 805.5,-590.5 805.5,-555.5 427.5,-555.5"/>
<polygon fill="none" stroke="#000000" points="427.5,-555.5 427.5,-590.5 805.5,-590.5 805.5,-555.5 427.5,-555.5"/>
<text text-anchor="start" x="519.3631" y="-568.3" font-family="Arial Bold" font-size="18.00" fill="#000000">public.repos</text>
<text text-anchor="start" x="616.3831" y="-568.3" font-family="Arial" font-size="14.00" fill="#000000"> </text>
<text text-anchor="start" x="620.2737" y="-568.3" font-family="Arial" font-size="14.00" fill="#666666">[BASE TABLE]</text>
<polygon fill="none" stroke="#000000" points="427.5,-525.5 427.5,-555.5 805.5,-555.5 805.5,-525.5 427.5,-525.5"/>
<text text-anchor="start" x="434.5" y="-536.9" font-family="Arial" font-size="14.00" fill="#000000">id </text>
<text text-anchor="start" x="449.2798" y="-536.9" font-family="Arial" font-size="14.00" fill="#666666">[bigint]</text>
<polygon fill="none" stroke="#000000" points="427.5,-495.5 427.5,-525.5 805.5,-525.5 805.5,-495.5 427.5,-495.5"/>
<text text-anchor="start" x="434.5" y="-506.9" font-family="Arial" font-size="14.00" fill="#000000">user_id </text>
<text text-anchor="start" x="484.2882" y="-506.9" font-family="Arial" font-size="14.00" fill="#666666">[bigint]</text>
<polygon fill="none" stroke="#000000" points="427.5,-465.5 427.5,-495.5 805.5,-495.5 805.5,-465.5 427.5,-465.5"/>
<text text-anchor="start" x="434.5" y="-476.9" font-family="Arial" font-size="14.00" fill="#000000">issues </text>
<text text-anchor="start" x="478.0624" y="-476.9" font-family="Arial" font-size="14.00" fill="#666666">[bigint]</text>
<polygon fill="none" stroke="#000000" points="427.5,-435.5 427.5,-465.5 805.5,-465.5 805.5,-435.5 427.5,-435.5"/>
<text text-anchor="start" x="434.5" y="-446.9" font-family="Arial" font-size="14.00" fill="#000000">stars </text>
<text text-anchor="start" x="468.7244" y="-446.9" font-family="Arial" font-size="14.00" fill="#666666">[bigint]</text>
<polygon fill="none" stroke="#000000" points="427.5,-405.5 427.5,-435.5 805.5,-435.5 805.5,-405.5 427.5,-405.5"/>
<text text-anchor="start" x="434.5" y="-416.9" font-family="Arial" font-size="14.00" fill="#000000">watchers </text>
<text text-anchor="start" x="494.3962" y="-416.9" font-family="Arial" font-size="14.00" fill="#666666">[bigint]</text>
<polygon fill="none" stroke="#000000" points="427.5,-375.5 427.5,-405.5 805.5,-405.5 805.5,-375.5 427.5,-375.5"/>
<text text-anchor="start" x="434.5" y="-386.9" font-family="Arial" font-size="14.00" fill="#000000">subscribers </text>
<text text-anchor="start" x="509.9488" y="-386.9" font-family="Arial" font-size="14.00" fill="#666666">[bigint]</text>
<polygon fill="none" stroke="#000000" points="427.5,-345.5 427.5,-375.5 805.5,-375.5 805.5,-345.5 427.5,-345.5"/>
<text text-anchor="start" x="434.5" y="-356.9" font-family="Arial" font-size="14.00" fill="#000000">is_fork </text>
<text text-anchor="start" x="479.6136" y="-356.9" font-family="Arial" font-size="14.00" fill="#666666">[boolean]</text>
<polygon fill="none" stroke="#000000" points="427.5,-315.5 427.5,-345.5 805.5,-345.5 805.5,-315.5 427.5,-315.5"/>
<text text-anchor="start" x="434.5" y="-326.9" font-family="Arial" font-size="14.00" fill="#000000">created_at </text>
<text text-anchor="start" x="504.528" y="-326.9" font-family="Arial" font-size="14.00" fill="#666666">[timestamp without time zone]</text>
<polygon fill="none" stroke="#000000" points="427.5,-285.5 427.5,-315.5 805.5,-315.5 805.5,-285.5 427.5,-285.5"/>
<text text-anchor="start" x="434.5" y="-296.9" font-family="Arial" font-size="14.00" fill="#000000">updated_at </text>
<text text-anchor="start" x="508.4326" y="-296.9" font-family="Arial" font-size="14.00" fill="#666666">[timestamp without time zone]</text>
<polygon fill="none" stroke="#000000" points="427.5,-255.5 427.5,-285.5 805.5,-285.5 805.5,-255.5 427.5,-255.5"/>
<text text-anchor="start" x="434.5" y="-266.9" font-family="Arial" font-size="14.00" fill="#000000">pushed_at </text>
<text text-anchor="start" x="503.7594" y="-266.9" font-family="Arial" font-size="14.00" fill="#666666">[timestamp without time zone]</text>
<polygon fill="none" stroke="#000000" points="427.5,-225.5 427.5,-255.5 805.5,-255.5 805.5,-225.5 427.5,-225.5"/>
<text text-anchor="start" x="434.0674" y="-236.9" font-family="Arial" font-size="14.00" fill="#000000">last_fetched_contributors_at </text>
<text text-anchor="start" x="613.7924" y="-236.9" font-family="Arial" font-size="14.00" fill="#666666">[timestamp without time zone]</text>
<polygon fill="none" stroke="#000000" points="427.5,-195.5 427.5,-225.5 805.5,-225.5 805.5,-195.5 427.5,-195.5"/>
<text text-anchor="start" x="434.5" y="-206.9" font-family="Arial" font-size="14.00" fill="#000000">name </text>
<text text-anchor="start" x="473.399" y="-206.9" font-family="Arial" font-size="14.00" fill="#666666">[varchar(255)]</text>
<polygon fill="none" stroke="#000000" points="427.5,-165.5 427.5,-195.5 805.5,-195.5 805.5,-165.5 427.5,-165.5"/>
<text text-anchor="start" x="434.5" y="-176.9" font-family="Arial" font-size="14.00" fill="#000000">full_name </text>
<text text-anchor="start" x="499.068" y="-176.9" font-family="Arial" font-size="14.00" fill="#666666">[varchar(255)]</text>
<polygon fill="none" stroke="#000000" points="427.5,-135.5 427.5,-165.5 805.5,-165.5 805.5,-135.5 427.5,-135.5"/>
<text text-anchor="start" x="434.5" y="-146.9" font-family="Arial" font-size="14.00" fill="#000000">description </text>
<text text-anchor="start" x="506.068" y="-146.9" font-family="Arial" font-size="14.00" fill="#666666">[text]</text>
<polygon fill="none" stroke="#000000" points="427.5,-105.5 427.5,-135.5 805.5,-135.5 805.5,-105.5 427.5,-105.5"/>
<text text-anchor="start" x="434.5" y="-116.9" font-family="Arial" font-size="14.00" fill="#000000">language </text>
<text text-anchor="start" x="495.9754" y="-116.9" font-family="Arial" font-size="14.00" fill="#666666">[varchar(64)]</text>
<polygon fill="none" stroke="#000000" points="427.5,-75.5 427.5,-105.5 805.5,-105.5 805.5,-75.5 427.5,-75.5"/>
<text text-anchor="start" x="434.5" y="-86.9" font-family="Arial" font-size="14.00" fill="#000000">license </text>
<text text-anchor="start" x="481.9516" y="-86.9" font-family="Arial" font-size="14.00" fill="#666666">[varchar(64)]</text>
<polygon fill="none" stroke="#000000" points="427.5,-45.5 427.5,-75.5 805.5,-75.5 805.5,-45.5 427.5,-45.5"/>
<text text-anchor="start" x="434.5" y="-56.9" font-family="Arial" font-size="14.00" fill="#000000">url </text>
<text text-anchor="start" x="453.9404" y="-56.9" font-family="Arial" font-size="14.00" fill="#666666">[varchar(255)]</text>
<polygon fill="none" stroke="#000000" stroke-width="3" points="426,-44.5 426,-592.5 807,-592.5 807,-44.5 426,-44.5"/>
</g>
<!-- public.contributions -->
<g id="node2" class="node">
<title>public.contributions</title>
<polygon fill="#efefef" stroke="transparent" points="43.5,-895.5 43.5,-930.5 342.5,-930.5 342.5,-895.5 43.5,-895.5"/>
<polygon fill="none" stroke="#000000" points="43.5,-895.5 43.5,-930.5 342.5,-930.5 342.5,-895.5 43.5,-895.5"/>
<text text-anchor="start" x="67.3574" y="-908.3" font-family="Arial Bold" font-size="18.00" fill="#000000">public.contributions</text>
<text text-anchor="start" x="221.3888" y="-908.3" font-family="Arial" font-size="14.00" fill="#000000"> </text>
<text text-anchor="start" x="225.2794" y="-908.3" font-family="Arial" font-size="14.00" fill="#666666">[BASE TABLE]</text>
<polygon fill="none" stroke="#000000" points="43.5,-865.5 43.5,-895.5 342.5,-895.5 342.5,-865.5 43.5,-865.5"/>
<text text-anchor="start" x="50.5" y="-876.9" font-family="Arial" font-size="14.00" fill="#000000">id </text>
<text text-anchor="start" x="65.2798" y="-876.9" font-family="Arial" font-size="14.00" fill="#666666">[bigint]</text>
<polygon fill="none" stroke="#000000" points="43.5,-835.5 43.5,-865.5 342.5,-865.5 342.5,-835.5 43.5,-835.5"/>
<text text-anchor="start" x="50.5" y="-846.9" font-family="Arial" font-size="14.00" fill="#000000">repo_id </text>
<text text-anchor="start" x="101.0708" y="-846.9" font-family="Arial" font-size="14.00" fill="#666666">[bigint]</text>
<polygon fill="none" stroke="#000000" points="43.5,-805.5 43.5,-835.5 342.5,-835.5 342.5,-805.5 43.5,-805.5"/>
<text text-anchor="start" x="50.5" y="-816.9" font-family="Arial" font-size="14.00" fill="#000000">count </text>
<text text-anchor="start" x="88.629" y="-816.9" font-family="Arial" font-size="14.00" fill="#666666">[bigint]</text>
<polygon fill="none" stroke="#000000" points="43.5,-775.5 43.5,-805.5 342.5,-805.5 342.5,-775.5 43.5,-775.5"/>
<text text-anchor="start" x="50.2497" y="-786.9" font-family="Arial" font-size="14.00" fill="#000000">last_merged_at </text>
<text text-anchor="start" x="150.6101" y="-786.9" font-family="Arial" font-size="14.00" fill="#666666">[timestamp without time zone]</text>
<polygon fill="none" stroke="#000000" points="43.5,-745.5 43.5,-775.5 342.5,-775.5 342.5,-745.5 43.5,-745.5"/>
<text text-anchor="start" x="50.5" y="-756.9" font-family="Arial" font-size="14.00" fill="#000000">contributor </text>
<text text-anchor="start" x="120.5126" y="-756.9" font-family="Arial" font-size="14.00" fill="#666666">[varchar(255)]</text>
<polygon fill="none" stroke="#000000" points="43.5,-715.5 43.5,-745.5 342.5,-745.5 342.5,-715.5 43.5,-715.5"/>
<text text-anchor="start" x="50.5" y="-726.9" font-family="Arial" font-size="14.00" fill="#000000">url </text>
<text text-anchor="start" x="69.9404" y="-726.9" font-family="Arial" font-size="14.00" fill="#666666">[varchar(255)]</text>
</g>
<!-- public.contributions&#45;&gt;public.repos -->
<g id="edge1" class="edge">
<title>public.contributions:repo_id&#45;&gt;public.repos:id</title>
<path fill="none" stroke="#000000" d="M352.4158,-848.183C408.3883,-819.815 359.6958,-540.5 427.5,-540.5"/>
<polygon fill="#000000" stroke="#000000" points="352.2377,-848.2245 341.476,-846.118 347.3688,-849.3623 342.5,-850.5 342.5,-850.5 342.5,-850.5 347.3688,-849.3623 343.524,-854.882 352.2377,-848.2245 352.2377,-848.2245"/>
<text text-anchor="start" x="349.2755" y="-860.5" font-family="Arial" font-size="10.00" fill="#000000">FOREIGN KEY (repo_id) REFERENCES repos(id)</text>
</g>
<!-- public.users_to_repos_stars -->
<g id="node3" class="node">
<title>public.users_to_repos_stars</title>
<polygon fill="#efefef" stroke="transparent" points="890.5,-865.5 890.5,-900.5 1226.5,-900.5 1226.5,-865.5 890.5,-865.5"/>
<polygon fill="none" stroke="#000000" points="890.5,-865.5 890.5,-900.5 1226.5,-900.5 1226.5,-865.5 890.5,-865.5"/>
<text text-anchor="start" x="897.347" y="-878.3" font-family="Arial Bold" font-size="18.00" fill="#000000">public.users_to_repos_stars</text>
<text text-anchor="start" x="1122.3992" y="-878.3" font-family="Arial" font-size="14.00" fill="#000000"> </text>
<text text-anchor="start" x="1126.2898" y="-878.3" font-family="Arial" font-size="14.00" fill="#666666">[BASE TABLE]</text>
<polygon fill="none" stroke="#000000" points="890.5,-835.5 890.5,-865.5 1226.5,-865.5 1226.5,-835.5 890.5,-835.5"/>
<text text-anchor="start" x="897.5" y="-846.9" font-family="Arial" font-size="14.00" fill="#000000">id </text>
<text text-anchor="start" x="912.2798" y="-846.9" font-family="Arial" font-size="14.00" fill="#666666">[bigint]</text>
<polygon fill="none" stroke="#000000" points="890.5,-805.5 890.5,-835.5 1226.5,-835.5 1226.5,-805.5 890.5,-805.5"/>
<text text-anchor="start" x="897.5" y="-816.9" font-family="Arial" font-size="14.00" fill="#000000">user_id </text>
<text text-anchor="start" x="947.2882" y="-816.9" font-family="Arial" font-size="14.00" fill="#666666">[bigint]</text>
<polygon fill="none" stroke="#000000" points="890.5,-775.5 890.5,-805.5 1226.5,-805.5 1226.5,-775.5 890.5,-775.5"/>
<text text-anchor="start" x="897.5" y="-786.9" font-family="Arial" font-size="14.00" fill="#000000">repo_id </text>
<text text-anchor="start" x="948.0708" y="-786.9" font-family="Arial" font-size="14.00" fill="#666666">[bigint]</text>
<polygon fill="none" stroke="#000000" points="890.5,-745.5 890.5,-775.5 1226.5,-775.5 1226.5,-745.5 890.5,-745.5"/>
<text text-anchor="start" x="897.5" y="-756.9" font-family="Arial" font-size="14.00" fill="#000000">created_at </text>
<text text-anchor="start" x="967.528" y="-756.9" font-family="Arial" font-size="14.00" fill="#666666">[timestamp with time zone]</text>
</g>
<!-- public.users_to_repos_stars&#45;&gt;public.repos -->
<g id="edge2" class="edge">
<title>public.users_to_repos_stars:repo_id&#45;&gt;public.repos:id</title>
<path fill="none" stroke="#000000" d="M880.2639,-789.7828C782.2387,-775.1191 919.1903,-540.5 805.5,-540.5"/>
<polygon fill="#000000" stroke="#000000" points="880.5245,-789.801 890.1855,-794.989 885.5122,-790.1505 890.5,-790.5 890.5,-790.5 890.5,-790.5 885.5122,-790.1505 890.8145,-786.011 880.5245,-789.801 880.5245,-789.801"/>
<text text-anchor="start" x="837.7755" y="-774.5" font-family="Arial" font-size="10.00" fill="#000000">FOREIGN KEY (repo_id) REFERENCES repos(id)</text>
</g>
<!-- public.users -->
<g id="node4" class="node">
<title>public.users</title>
<polygon fill="#efefef" stroke="transparent" points="923.5,-405.5 923.5,-440.5 1172.5,-440.5 1172.5,-405.5 923.5,-405.5"/>
<polygon fill="none" stroke="#000000" points="923.5,-405.5 923.5,-440.5 1172.5,-440.5 1172.5,-405.5 923.5,-405.5"/>
<text text-anchor="start" x="951.3662" y="-418.3" font-family="Arial Bold" font-size="18.00" fill="#000000">public.users</text>
<text text-anchor="start" x="1047.38" y="-418.3" font-family="Arial" font-size="14.00" fill="#000000"> </text>
<text text-anchor="start" x="1051.2706" y="-418.3" font-family="Arial" font-size="14.00" fill="#666666">[BASE TABLE]</text>
<polygon fill="none" stroke="#000000" points="923.5,-375.5 923.5,-405.5 1172.5,-405.5 1172.5,-375.5 923.5,-375.5"/>
<text text-anchor="start" x="930.5" y="-386.9" font-family="Arial" font-size="14.00" fill="#000000">id </text>
<text text-anchor="start" x="945.2798" y="-386.9" font-family="Arial" font-size="14.00" fill="#666666">[bigint]</text>
<polygon fill="none" stroke="#000000" points="923.5,-345.5 923.5,-375.5 1172.5,-375.5 1172.5,-345.5 923.5,-345.5"/>
<text text-anchor="start" x="930.5" y="-356.9" font-family="Arial" font-size="14.00" fill="#000000">open_issues </text>
<text text-anchor="start" x="1012.9754" y="-356.9" font-family="Arial" font-size="14.00" fill="#666666">[bigint]</text>
<polygon fill="none" stroke="#000000" points="923.5,-315.5 923.5,-345.5 1172.5,-345.5 1172.5,-315.5 923.5,-315.5"/>
<text text-anchor="start" x="930.5" y="-326.9" font-family="Arial" font-size="14.00" fill="#000000">has_stars_data </text>
<text text-anchor="start" x="1030.0932" y="-326.9" font-family="Arial" font-size="14.00" fill="#666666">[boolean]</text>
<polygon fill="none" stroke="#000000" points="923.5,-285.5 923.5,-315.5 1172.5,-315.5 1172.5,-285.5 923.5,-285.5"/>
<text text-anchor="start" x="930.5" y="-296.9" font-family="Arial" font-size="14.00" fill="#000000">is_private </text>
<text text-anchor="start" x="994.2854" y="-296.9" font-family="Arial" font-size="14.00" fill="#666666">[boolean]</text>
<polygon fill="none" stroke="#000000" points="923.5,-255.5 923.5,-285.5 1172.5,-285.5 1172.5,-255.5 923.5,-255.5"/>
<text text-anchor="start" x="930.5" y="-266.9" font-family="Arial" font-size="14.00" fill="#000000">is_open_sauced_member </text>
<text text-anchor="start" x="1095.4354" y="-266.9" font-family="Arial" font-size="14.00" fill="#666666">[boolean]</text>
<polygon fill="none" stroke="#000000" points="923.5,-225.5 923.5,-255.5 1172.5,-255.5 1172.5,-225.5 923.5,-225.5"/>
<text text-anchor="start" x="930.1438" y="-236.9" font-family="Arial" font-size="14.00" fill="#000000">created_at </text>
<text text-anchor="start" x="1000.1718" y="-236.9" font-family="Arial" font-size="14.00" fill="#666666">[timestamp with time zone]</text>
<polygon fill="none" stroke="#000000" points="923.5,-195.5 923.5,-225.5 1172.5,-225.5 1172.5,-195.5 923.5,-195.5"/>
<text text-anchor="start" x="930.5" y="-206.9" font-family="Arial" font-size="14.00" fill="#000000">login </text>
<text text-anchor="start" x="963.9516" y="-206.9" font-family="Arial" font-size="14.00" fill="#666666">[varchar(255)]</text>
</g>
<!-- public.users_to_repos_stars&#45;&gt;public.users -->
<g id="edge3" class="edge">
<title>public.users_to_repos_stars:user_id&#45;&gt;public.users:id</title>
<path fill="none" stroke="#000000" d="M880.183,-819.3719C842.5865,-810.1514 869.243,-746.4224 890.5,-703 960.2728,-560.4729 1102.7272,-626.5271 1172.5,-484 1190.7712,-446.6767 1214.0556,-390.5 1172.5,-390.5"/>
<polygon fill="#000000" stroke="#000000" points="880.5592,-819.413 890.0108,-824.9733 885.5296,-819.9565 890.5,-820.5 890.5,-820.5 890.5,-820.5 885.5296,-819.9565 890.9892,-816.0267 880.5592,-819.413 880.5592,-819.413"/>
<text text-anchor="start" x="838.5845" y="-804.5" font-family="Arial" font-size="10.00" fill="#000000">FOREIGN KEY (user_id) REFERENCES users(id)</text>
</g>
<!-- public.users_to_repos_votes -->
<g id="node5" class="node">
<title>public.users_to_repos_votes</title>
<polygon fill="#efefef" stroke="transparent" points="446.5,-865.5 446.5,-900.5 786.5,-900.5 786.5,-865.5 446.5,-865.5"/>
<polygon fill="none" stroke="#000000" points="446.5,-865.5 446.5,-900.5 786.5,-900.5 786.5,-865.5 446.5,-865.5"/>
<text text-anchor="start" x="453.34" y="-878.3" font-family="Arial Bold" font-size="18.00" fill="#000000">public.users_to_repos_votes</text>
<text text-anchor="start" x="682.4062" y="-878.3" font-family="Arial" font-size="14.00" fill="#000000"> </text>
<text text-anchor="start" x="686.2968" y="-878.3" font-family="Arial" font-size="14.00" fill="#666666">[BASE TABLE]</text>
<polygon fill="none" stroke="#000000" points="446.5,-835.5 446.5,-865.5 786.5,-865.5 786.5,-835.5 446.5,-835.5"/>
<text text-anchor="start" x="453.5" y="-846.9" font-family="Arial" font-size="14.00" fill="#000000">id </text>
<text text-anchor="start" x="468.2798" y="-846.9" font-family="Arial" font-size="14.00" fill="#666666">[bigint]</text>
<polygon fill="none" stroke="#000000" points="446.5,-805.5 446.5,-835.5 786.5,-835.5 786.5,-805.5 446.5,-805.5"/>
<text text-anchor="start" x="453.5" y="-816.9" font-family="Arial" font-size="14.00" fill="#000000">user_id </text>
<text text-anchor="start" x="503.2882" y="-816.9" font-family="Arial" font-size="14.00" fill="#666666">[bigint]</text>
<polygon fill="none" stroke="#000000" points="446.5,-775.5 446.5,-805.5 786.5,-805.5 786.5,-775.5 446.5,-775.5"/>
<text text-anchor="start" x="453.5" y="-786.9" font-family="Arial" font-size="14.00" fill="#000000">repo_id </text>
<text text-anchor="start" x="504.0708" y="-786.9" font-family="Arial" font-size="14.00" fill="#666666">[bigint]</text>
<polygon fill="none" stroke="#000000" points="446.5,-745.5 446.5,-775.5 786.5,-775.5 786.5,-745.5 446.5,-745.5"/>
<text text-anchor="start" x="453.5" y="-756.9" font-family="Arial" font-size="14.00" fill="#000000">created_at </text>
<text text-anchor="start" x="523.528" y="-756.9" font-family="Arial" font-size="14.00" fill="#666666">[timestamp with time zone]</text>
</g>
<!-- public.users_to_repos_votes&#45;&gt;public.repos -->
<g id="edge4" class="edge">
<title>public.users_to_repos_votes:repo_id&#45;&gt;public.repos:id</title>
<path fill="none" stroke="#000000" d="M796.208,-787.8615C844.2426,-761.143 857.8424,-540.5 805.5,-540.5"/>
<polygon fill="#000000" stroke="#000000" points="796.15,-787.8772 785.3198,-786.1575 791.325,-789.1886 786.5,-790.5 786.5,-790.5 786.5,-790.5 791.325,-789.1886 787.6802,-794.8425 796.15,-787.8772 796.15,-787.8772"/>
<text text-anchor="start" x="555.2755" y="-800.5" font-family="Arial" font-size="10.00" fill="#000000">FOREIGN KEY (repo_id) REFERENCES repos(id)</text>
</g>
<!-- public.users_to_repos_votes&#45;&gt;public.users -->
<g id="edge5" class="edge">
<title>public.users_to_repos_votes:user_id&#45;&gt;public.users:id</title>
<path fill="none" stroke="#000000" d="M796.5502,-819.8088C851.2306,-811.6255 810.2314,-732.4675 838.5,-673 846.5503,-656.0649 853.2086,-654.2754 860.5,-637 904.4703,-532.8221 810.4229,-390.5 923.5,-390.5"/>
<polygon fill="#000000" stroke="#000000" points="796.4764,-819.8138 786.1912,-816.0106 791.4882,-820.1569 786.5,-820.5 786.5,-820.5 786.5,-820.5 791.4882,-820.1569 786.8088,-824.9894 796.4764,-819.8138 796.4764,-819.8138"/>
<text text-anchor="start" x="793.8345" y="-830.5" font-family="Arial" font-size="10.00" fill="#000000">FOREIGN KEY (user_id) REFERENCES users(id)</text>
</g>
</g>
</svg>
