<?xml version="1.0" encoding="UTF-8" standalone="no"?>
<!DOCTYPE svg PUBLIC "-//W3C//DTD SVG 1.1//EN"
 "http://www.w3.org/Graphics/SVG/1.1/DTD/svg11.dtd">
<!-- Generated by graphviz version 2.40.1 (20161225.0304)
 -->
<!-- Title: public.repos Pages: 1 -->
<svg width="888pt" height="922pt"
 viewBox="0.00 0.00 888.00 922.00" xmlns="http://www.w3.org/2000/svg" xmlns:xlink="http://www.w3.org/1999/xlink">
<g id="graph0" class="graph" transform="scale(1 1) rotate(0) translate(4 918)">
<title>public.repos</title>
<polygon fill="#ffffff" stroke="transparent" points="-4,4 -4,-918 884,-918 884,4 -4,4"/>
<!-- public.repos -->
<g id="node1" class="node">
<title>public.repos</title>
<polygon fill="#efefef" stroke="transparent" points="46,-555.5 46,-590.5 424,-590.5 424,-555.5 46,-555.5"/>
<polygon fill="none" stroke="#000000" points="46,-555.5 46,-590.5 424,-590.5 424,-555.5 46,-555.5"/>
<text text-anchor="start" x="137.8631" y="-568.3" font-family="Arial Bold" font-size="18.00" fill="#000000">public.repos</text>
<text text-anchor="start" x="234.8831" y="-568.3" font-family="Arial" font-size="14.00" fill="#000000"> </text>
<text text-anchor="start" x="238.7737" y="-568.3" font-family="Arial" font-size="14.00" fill="#666666">[BASE TABLE]</text>
<polygon fill="none" stroke="#000000" points="46,-525.5 46,-555.5 424,-555.5 424,-525.5 46,-525.5"/>
<text text-anchor="start" x="53" y="-536.9" font-family="Arial" font-size="14.00" fill="#000000">id </text>
<text text-anchor="start" x="67.7798" y="-536.9" font-family="Arial" font-size="14.00" fill="#666666">[bigint]</text>
<polygon fill="none" stroke="#000000" points="46,-495.5 46,-525.5 424,-525.5 424,-495.5 46,-495.5"/>
<text text-anchor="start" x="53" y="-506.9" font-family="Arial" font-size="14.00" fill="#000000">user_id </text>
<text text-anchor="start" x="102.7882" y="-506.9" font-family="Arial" font-size="14.00" fill="#666666">[bigint]</text>
<polygon fill="none" stroke="#000000" points="46,-465.5 46,-495.5 424,-495.5 424,-465.5 46,-465.5"/>
<text text-anchor="start" x="53" y="-476.9" font-family="Arial" font-size="14.00" fill="#000000">issues </text>
<text text-anchor="start" x="96.5624" y="-476.9" font-family="Arial" font-size="14.00" fill="#666666">[bigint]</text>
<polygon fill="none" stroke="#000000" points="46,-435.5 46,-465.5 424,-465.5 424,-435.5 46,-435.5"/>
<text text-anchor="start" x="53" y="-446.9" font-family="Arial" font-size="14.00" fill="#000000">stars </text>
<text text-anchor="start" x="87.2244" y="-446.9" font-family="Arial" font-size="14.00" fill="#666666">[bigint]</text>
<polygon fill="none" stroke="#000000" points="46,-405.5 46,-435.5 424,-435.5 424,-405.5 46,-405.5"/>
<text text-anchor="start" x="53" y="-416.9" font-family="Arial" font-size="14.00" fill="#000000">watchers </text>
<text text-anchor="start" x="112.8962" y="-416.9" font-family="Arial" font-size="14.00" fill="#666666">[bigint]</text>
<polygon fill="none" stroke="#000000" points="46,-375.5 46,-405.5 424,-405.5 424,-375.5 46,-375.5"/>
<text text-anchor="start" x="53" y="-386.9" font-family="Arial" font-size="14.00" fill="#000000">subscribers </text>
<text text-anchor="start" x="128.4488" y="-386.9" font-family="Arial" font-size="14.00" fill="#666666">[bigint]</text>
<polygon fill="none" stroke="#000000" points="46,-345.5 46,-375.5 424,-375.5 424,-345.5 46,-345.5"/>
<text text-anchor="start" x="53" y="-356.9" font-family="Arial" font-size="14.00" fill="#000000">is_fork </text>
<text text-anchor="start" x="98.1136" y="-356.9" font-family="Arial" font-size="14.00" fill="#666666">[boolean]</text>
<polygon fill="none" stroke="#000000" points="46,-315.5 46,-345.5 424,-345.5 424,-315.5 46,-315.5"/>
<text text-anchor="start" x="53" y="-326.9" font-family="Arial" font-size="14.00" fill="#000000">created_at </text>
<text text-anchor="start" x="123.028" y="-326.9" font-family="Arial" font-size="14.00" fill="#666666">[timestamp without time zone]</text>
<polygon fill="none" stroke="#000000" points="46,-285.5 46,-315.5 424,-315.5 424,-285.5 46,-285.5"/>
<text text-anchor="start" x="53" y="-296.9" font-family="Arial" font-size="14.00" fill="#000000">updated_at </text>
<text text-anchor="start" x="126.9326" y="-296.9" font-family="Arial" font-size="14.00" fill="#666666">[timestamp without time zone]</text>
<polygon fill="none" stroke="#000000" points="46,-255.5 46,-285.5 424,-285.5 424,-255.5 46,-255.5"/>
<text text-anchor="start" x="53" y="-266.9" font-family="Arial" font-size="14.00" fill="#000000">pushed_at </text>
<text text-anchor="start" x="122.2594" y="-266.9" font-family="Arial" font-size="14.00" fill="#666666">[timestamp without time zone]</text>
<polygon fill="none" stroke="#000000" points="46,-225.5 46,-255.5 424,-255.5 424,-225.5 46,-225.5"/>
<text text-anchor="start" x="52.5674" y="-236.9" font-family="Arial" font-size="14.00" fill="#000000">last_fetched_contributors_at </text>
<text text-anchor="start" x="232.2924" y="-236.9" font-family="Arial" font-size="14.00" fill="#666666">[timestamp without time zone]</text>
<polygon fill="none" stroke="#000000" points="46,-195.5 46,-225.5 424,-225.5 424,-195.5 46,-195.5"/>
<text text-anchor="start" x="53" y="-206.9" font-family="Arial" font-size="14.00" fill="#000000">name </text>
<text text-anchor="start" x="91.899" y="-206.9" font-family="Arial" font-size="14.00" fill="#666666">[varchar(255)]</text>
<polygon fill="none" stroke="#000000" points="46,-165.5 46,-195.5 424,-195.5 424,-165.5 46,-165.5"/>
<text text-anchor="start" x="53" y="-176.9" font-family="Arial" font-size="14.00" fill="#000000">full_name </text>
<text text-anchor="start" x="117.568" y="-176.9" font-family="Arial" font-size="14.00" fill="#666666">[varchar(255)]</text>
<polygon fill="none" stroke="#000000" points="46,-135.5 46,-165.5 424,-165.5 424,-135.5 46,-135.5"/>
<text text-anchor="start" x="53" y="-146.9" font-family="Arial" font-size="14.00" fill="#000000">description </text>
<text text-anchor="start" x="124.568" y="-146.9" font-family="Arial" font-size="14.00" fill="#666666">[text]</text>
<polygon fill="none" stroke="#000000" points="46,-105.5 46,-135.5 424,-135.5 424,-105.5 46,-105.5"/>
<text text-anchor="start" x="53" y="-116.9" font-family="Arial" font-size="14.00" fill="#000000">language </text>
<text text-anchor="start" x="114.4754" y="-116.9" font-family="Arial" font-size="14.00" fill="#666666">[varchar(64)]</text>
<polygon fill="none" stroke="#000000" points="46,-75.5 46,-105.5 424,-105.5 424,-75.5 46,-75.5"/>
<text text-anchor="start" x="53" y="-86.9" font-family="Arial" font-size="14.00" fill="#000000">license </text>
<text text-anchor="start" x="100.4516" y="-86.9" font-family="Arial" font-size="14.00" fill="#666666">[varchar(64)]</text>
<polygon fill="none" stroke="#000000" points="46,-45.5 46,-75.5 424,-75.5 424,-45.5 46,-45.5"/>
<text text-anchor="start" x="53" y="-56.9" font-family="Arial" font-size="14.00" fill="#000000">url </text>
<text text-anchor="start" x="72.4404" y="-56.9" font-family="Arial" font-size="14.00" fill="#666666">[varchar(255)]</text>
<polygon fill="none" stroke="#000000" stroke-width="3" points="44.5,-44.5 44.5,-592.5 425.5,-592.5 425.5,-44.5 44.5,-44.5"/>
</g>
<!-- public.users_to_repos_stars -->
<g id="node2" class="node">
<title>public.users_to_repos_stars</title>
<polygon fill="#efefef" stroke="transparent" points="57,-835.5 57,-870.5 393,-870.5 393,-835.5 57,-835.5"/>
<polygon fill="none" stroke="#000000" points="57,-835.5 57,-870.5 393,-870.5 393,-835.5 57,-835.5"/>
<text text-anchor="start" x="63.847" y="-848.3" font-family="Arial Bold" font-size="18.00" fill="#000000">public.users_to_repos_stars</text>
<text text-anchor="start" x="288.8992" y="-848.3" font-family="Arial" font-size="14.00" fill="#000000"> </text>
<text text-anchor="start" x="292.7898" y="-848.3" font-family="Arial" font-size="14.00" fill="#666666">[BASE TABLE]</text>
<polygon fill="none" stroke="#000000" points="57,-805.5 57,-835.5 393,-835.5 393,-805.5 57,-805.5"/>
<text text-anchor="start" x="64" y="-816.9" font-family="Arial" font-size="14.00" fill="#000000">id </text>
<text text-anchor="start" x="78.7798" y="-816.9" font-family="Arial" font-size="14.00" fill="#666666">[bigint]</text>
<polygon fill="none" stroke="#000000" points="57,-775.5 57,-805.5 393,-805.5 393,-775.5 57,-775.5"/>
<text text-anchor="start" x="64" y="-786.9" font-family="Arial" font-size="14.00" fill="#000000">user_id </text>
<text text-anchor="start" x="113.7882" y="-786.9" font-family="Arial" font-size="14.00" fill="#666666">[bigint]</text>
<polygon fill="none" stroke="#000000" points="57,-745.5 57,-775.5 393,-775.5 393,-745.5 57,-745.5"/>
<text text-anchor="start" x="64" y="-756.9" font-family="Arial" font-size="14.00" fill="#000000">repo_id </text>
<text text-anchor="start" x="114.5708" y="-756.9" font-family="Arial" font-size="14.00" fill="#666666">[bigint]</text>
<polygon fill="none" stroke="#000000" points="57,-715.5 57,-745.5 393,-745.5 393,-715.5 57,-715.5"/>
<text text-anchor="start" x="64" y="-726.9" font-family="Arial" font-size="14.00" fill="#000000">created_at </text>
<text text-anchor="start" x="134.028" y="-726.9" font-family="Arial" font-size="14.00" fill="#666666">[timestamp with time zone]</text>
</g>
<!-- public.users_to_repos_stars&#45;&gt;public.repos -->
<g id="edge1" class="edge">
<title>public.users_to_repos_stars:repo_id&#45;&gt;public.repos:id</title>
<path fill="none" stroke="#000000" d="M402.9489,-758.9052C429.2537,-749.3349 416.4981,-699.062 393,-673 341.087,-615.4226 97.913,-694.5774 46,-637 17.2803,-605.1466 3.1111,-540.5 46,-540.5"/>
<polygon fill="#000000" stroke="#000000" points="402.874,-758.9172 392.2877,-756.0567 397.937,-759.7086 393,-760.5 393,-760.5 393,-760.5 397.937,-759.7086 393.7123,-764.9433 402.874,-758.9172 402.874,-758.9172"/>
<text text-anchor="start" x="399.7755" y="-770.5" font-family="Arial" font-size="10.00" fill="#000000">FOREIGN KEY (repo_id) REFERENCES repos(id)</text>
</g>
<!-- public.users -->
<g id="node3" class="node">
<title>public.users</title>
<polygon fill="#efefef" stroke="transparent" points="537,-405.5 537,-440.5 786,-440.5 786,-405.5 537,-405.5"/>
<polygon fill="none" stroke="#000000" points="537,-405.5 537,-440.5 786,-440.5 786,-405.5 537,-405.5"/>
<text text-anchor="start" x="564.8662" y="-418.3" font-family="Arial Bold" font-size="18.00" fill="#000000">public.users</text>
<text text-anchor="start" x="660.88" y="-418.3" font-family="Arial" font-size="14.00" fill="#000000"> </text>
<text text-anchor="start" x="664.7706" y="-418.3" font-family="Arial" font-size="14.00" fill="#666666">[BASE TABLE]</text>
<polygon fill="none" stroke="#000000" points="537,-375.5 537,-405.5 786,-405.5 786,-375.5 537,-375.5"/>
<text text-anchor="start" x="544" y="-386.9" font-family="Arial" font-size="14.00" fill="#000000">id </text>
<text text-anchor="start" x="558.7798" y="-386.9" font-family="Arial" font-size="14.00" fill="#666666">[bigint]</text>
<polygon fill="none" stroke="#000000" points="537,-345.5 537,-375.5 786,-375.5 786,-345.5 537,-345.5"/>
<text text-anchor="start" x="544" y="-356.9" font-family="Arial" font-size="14.00" fill="#000000">open_issues </text>
<text text-anchor="start" x="626.4754" y="-356.9" font-family="Arial" font-size="14.00" fill="#666666">[bigint]</text>
<polygon fill="none" stroke="#000000" points="537,-315.5 537,-345.5 786,-345.5 786,-315.5 537,-315.5"/>
<text text-anchor="start" x="544" y="-326.9" font-family="Arial" font-size="14.00" fill="#000000">has_stars_data </text>
<text text-anchor="start" x="643.5932" y="-326.9" font-family="Arial" font-size="14.00" fill="#666666">[boolean]</text>
<polygon fill="none" stroke="#000000" points="537,-285.5 537,-315.5 786,-315.5 786,-285.5 537,-285.5"/>
<text text-anchor="start" x="544" y="-296.9" font-family="Arial" font-size="14.00" fill="#000000">is_private </text>
<text text-anchor="start" x="607.7854" y="-296.9" font-family="Arial" font-size="14.00" fill="#666666">[boolean]</text>
<polygon fill="none" stroke="#000000" points="537,-255.5 537,-285.5 786,-285.5 786,-255.5 537,-255.5"/>
<text text-anchor="start" x="544" y="-266.9" font-family="Arial" font-size="14.00" fill="#000000">is_open_sauced_member </text>
<text text-anchor="start" x="708.9354" y="-266.9" font-family="Arial" font-size="14.00" fill="#666666">[boolean]</text>
<polygon fill="none" stroke="#000000" points="537,-225.5 537,-255.5 786,-255.5 786,-225.5 537,-225.5"/>
<text text-anchor="start" x="543.6438" y="-236.9" font-family="Arial" font-size="14.00" fill="#000000">created_at </text>
<text text-anchor="start" x="613.6718" y="-236.9" font-family="Arial" font-size="14.00" fill="#666666">[timestamp with time zone]</text>
<polygon fill="none" stroke="#000000" points="537,-195.5 537,-225.5 786,-225.5 786,-195.5 537,-195.5"/>
<text text-anchor="start" x="544" y="-206.9" font-family="Arial" font-size="14.00" fill="#000000">login </text>
<text text-anchor="start" x="577.4516" y="-206.9" font-family="Arial" font-size="14.00" fill="#666666">[varchar(255)]</text>
</g>
<!-- public.users_to_repos_stars&#45;&gt;public.users -->
<g id="edge2" class="edge">
<title>public.users_to_repos_stars:user_id&#45;&gt;public.users:id</title>
<path fill="none" stroke="#000000" d="M403.1831,-789.6017C445.5315,-781.3093 415.482,-717.3984 445,-673 457.1846,-654.6729 468.5657,-656.3771 479,-637 532.3608,-537.9064 424.4526,-390.5 537,-390.5"/>
<polygon fill="#000000" stroke="#000000" points="402.9613,-789.6212 392.6045,-786.0174 397.9807,-790.0606 393,-790.5 393,-790.5 393,-790.5 397.9807,-790.0606 393.3955,-794.9826 402.9613,-789.6212 402.9613,-789.6212"/>
<text text-anchor="start" x="400.3345" y="-800.5" font-family="Arial" font-size="10.00" fill="#000000">FOREIGN KEY (user_id) REFERENCES users(id)</text>
</g>
<!-- public.users_to_repos_votes -->
<g id="node4" class="node">
<title>public.users_to_repos_votes</title>
<polygon fill="#efefef" stroke="transparent" points="497,-835.5 497,-870.5 837,-870.5 837,-835.5 497,-835.5"/>
<polygon fill="none" stroke="#000000" points="497,-835.5 497,-870.5 837,-870.5 837,-835.5 497,-835.5"/>
<text text-anchor="start" x="503.84" y="-848.3" font-family="Arial Bold" font-size="18.00" fill="#000000">public.users_to_repos_votes</text>
<text text-anchor="start" x="732.9062" y="-848.3" font-family="Arial" font-size="14.00" fill="#000000"> </text>
<text text-anchor="start" x="736.7968" y="-848.3" font-family="Arial" font-size="14.00" fill="#666666">[BASE TABLE]</text>
<polygon fill="none" stroke="#000000" points="497,-805.5 497,-835.5 837,-835.5 837,-805.5 497,-805.5"/>
<text text-anchor="start" x="504" y="-816.9" font-family="Arial" font-size="14.00" fill="#000000">id </text>
<text text-anchor="start" x="518.7798" y="-816.9" font-family="Arial" font-size="14.00" fill="#666666">[bigint]</text>
<polygon fill="none" stroke="#000000" points="497,-775.5 497,-805.5 837,-805.5 837,-775.5 497,-775.5"/>
<text text-anchor="start" x="504" y="-786.9" font-family="Arial" font-size="14.00" fill="#000000">user_id </text>
<text text-anchor="start" x="553.7882" y="-786.9" font-family="Arial" font-size="14.00" fill="#666666">[bigint]</text>
<polygon fill="none" stroke="#000000" points="497,-745.5 497,-775.5 837,-775.5 837,-745.5 497,-745.5"/>
<text text-anchor="start" x="504" y="-756.9" font-family="Arial" font-size="14.00" fill="#000000">repo_id </text>
<text text-anchor="start" x="554.5708" y="-756.9" font-family="Arial" font-size="14.00" fill="#666666">[bigint]</text>
<polygon fill="none" stroke="#000000" points="497,-715.5 497,-745.5 837,-745.5 837,-715.5 497,-715.5"/>
<text text-anchor="start" x="504" y="-726.9" font-family="Arial" font-size="14.00" fill="#000000">created_at </text>
<text text-anchor="start" x="574.028" y="-726.9" font-family="Arial" font-size="14.00" fill="#666666">[timestamp with time zone]</text>
</g>
<!-- public.users_to_repos_votes&#45;&gt;public.repos -->
<g id="edge3" class="edge">
<title>public.users_to_repos_votes:repo_id&#45;&gt;public.repos:id</title>
<path fill="none" stroke="#000000" d="M486.9894,-759.7034C403.0425,-745.3032 523.3983,-540.5 424,-540.5"/>
<polygon fill="#000000" stroke="#000000" points="487.0315,-759.7066 496.643,-764.9858 492.0158,-760.1033 497,-760.5 497,-760.5 497,-760.5 492.0158,-760.1033 497.357,-756.0142 487.0315,-759.7066 487.0315,-759.7066"/>
<text text-anchor="start" x="444.2755" y="-744.5" font-family="Arial" font-size="10.00" fill="#000000">FOREIGN KEY (repo_id) REFERENCES repos(id)</text>
</g>
<!-- public.users_to_repos_votes&#45;&gt;public.users -->
<g id="edge4" class="edge">
<title>public.users_to_repos_votes:user_id&#45;&gt;public.users:id</title>
<path fill="none" stroke="#000000" d="M486.6542,-789.3571C448.8277,-780.0181 473.9993,-715.5246 497,-673 570.0145,-538.0079 712.9855,-618.9921 786,-484 805.77,-447.4485 827.5556,-390.5 786,-390.5"/>
<polygon fill="#000000" stroke="#000000" points="487.0605,-789.4019 496.5058,-794.9728 492.0302,-789.9509 497,-790.5 497,-790.5 497,-790.5 492.0302,-789.9509 497.4942,-786.0272 487.0605,-789.4019 487.0605,-789.4019"/>
<text text-anchor="start" x="326.5845" y="-774.5" font-family="Arial" font-size="10.00" fill="#000000">FOREIGN KEY (user_id) REFERENCES users(id)</text>
</g>
</g>
</svg>
