<?xml version="1.0" encoding="UTF-8" standalone="no"?>
<!DOCTYPE svg PUBLIC "-//W3C//DTD SVG 1.1//EN"
 "http://www.w3.org/Graphics/SVG/1.1/DTD/svg11.dtd">
<!-- Generated by graphviz version 2.40.1 (20161225.0304)
 -->
<!-- Title: public.users_to_repos_votes Pages: 1 -->
<svg width="2270pt" height="1096pt"
 viewBox="0.00 0.00 2269.50 1096.00" xmlns="http://www.w3.org/2000/svg" xmlns:xlink="http://www.w3.org/1999/xlink">
<g id="graph0" class="graph" transform="scale(1 1) rotate(0) translate(4 1092)">
<title>public.users_to_repos_votes</title>
<polygon fill="#ffffff" stroke="transparent" points="-4,4 -4,-1092 2265.5,-1092 2265.5,4 -4,4"/>
<!-- public.users_to_repos_votes -->
<g id="node1" class="node">
<title>public.users_to_repos_votes</title>
<polygon fill="#efefef" stroke="transparent" points="1472,-964.5 1472,-999.5 1812,-999.5 1812,-964.5 1472,-964.5"/>
<polygon fill="none" stroke="#000000" points="1472,-964.5 1472,-999.5 1812,-999.5 1812,-964.5 1472,-964.5"/>
<text text-anchor="start" x="1478.84" y="-977.3" font-family="Arial Bold" font-size="18.00" fill="#000000">public.users_to_repos_votes</text>
<text text-anchor="start" x="1707.9062" y="-977.3" font-family="Arial" font-size="14.00" fill="#000000"> </text>
<text text-anchor="start" x="1711.7968" y="-977.3" font-family="Arial" font-size="14.00" fill="#666666">[BASE TABLE]</text>
<polygon fill="none" stroke="#000000" points="1472,-934.5 1472,-964.5 1812,-964.5 1812,-934.5 1472,-934.5"/>
<text text-anchor="start" x="1479" y="-945.9" font-family="Arial" font-size="14.00" fill="#000000">id </text>
<text text-anchor="start" x="1493.7798" y="-945.9" font-family="Arial" font-size="14.00" fill="#666666">[bigint]</text>
<polygon fill="none" stroke="#000000" points="1472,-904.5 1472,-934.5 1812,-934.5 1812,-904.5 1472,-904.5"/>
<text text-anchor="start" x="1479" y="-915.9" font-family="Arial" font-size="14.00" fill="#000000">user_id </text>
<text text-anchor="start" x="1528.7882" y="-915.9" font-family="Arial" font-size="14.00" fill="#666666">[bigint]</text>
<polygon fill="none" stroke="#000000" points="1472,-874.5 1472,-904.5 1812,-904.5 1812,-874.5 1472,-874.5"/>
<text text-anchor="start" x="1479" y="-885.9" font-family="Arial" font-size="14.00" fill="#000000">repo_id </text>
<text text-anchor="start" x="1529.5708" y="-885.9" font-family="Arial" font-size="14.00" fill="#666666">[bigint]</text>
<polygon fill="none" stroke="#000000" points="1472,-844.5 1472,-874.5 1812,-874.5 1812,-844.5 1472,-844.5"/>
<text text-anchor="start" x="1479" y="-855.9" font-family="Arial" font-size="14.00" fill="#000000">created_at </text>
<text text-anchor="start" x="1549.028" y="-855.9" font-family="Arial" font-size="14.00" fill="#666666">[timestamp with time zone]</text>
<polygon fill="none" stroke="#000000" points="1472,-814.5 1472,-844.5 1812,-844.5 1812,-814.5 1472,-814.5"/>
<text text-anchor="start" x="1479" y="-825.9" font-family="Arial" font-size="14.00" fill="#000000">updated_at </text>
<text text-anchor="start" x="1552.9326" y="-825.9" font-family="Arial" font-size="14.00" fill="#666666">[timestamp with time zone]</text>
<polygon fill="none" stroke="#000000" points="1472,-784.5 1472,-814.5 1812,-814.5 1812,-784.5 1472,-784.5"/>
<text text-anchor="start" x="1479" y="-795.9" font-family="Arial" font-size="14.00" fill="#000000">deleted_at </text>
<text text-anchor="start" x="1548.2566" y="-795.9" font-family="Arial" font-size="14.00" fill="#666666">[timestamp with time zone]</text>
<polygon fill="none" stroke="#000000" stroke-width="3" points="1470.5,-783.5 1470.5,-1001.5 1813.5,-1001.5 1813.5,-783.5 1470.5,-783.5"/>
</g>
<!-- public.users -->
<g id="node2" class="node">
<title>public.users</title>
<polygon fill="#efefef" stroke="transparent" points="592,-447.5 592,-482.5 845,-482.5 845,-447.5 592,-447.5"/>
<polygon fill="none" stroke="#000000" points="592,-447.5 592,-482.5 845,-482.5 845,-447.5 592,-447.5"/>
<text text-anchor="start" x="621.8662" y="-460.3" font-family="Arial Bold" font-size="18.00" fill="#000000">public.users</text>
<text text-anchor="start" x="717.88" y="-460.3" font-family="Arial" font-size="14.00" fill="#000000"> </text>
<text text-anchor="start" x="721.7706" y="-460.3" font-family="Arial" font-size="14.00" fill="#666666">[BASE TABLE]</text>
<polygon fill="none" stroke="#000000" points="592,-417.5 592,-447.5 845,-447.5 845,-417.5 592,-417.5"/>
<text text-anchor="start" x="599" y="-428.9" font-family="Arial" font-size="14.00" fill="#000000">id </text>
<text text-anchor="start" x="613.7798" y="-428.9" font-family="Arial" font-size="14.00" fill="#666666">[bigint]</text>
<polygon fill="none" stroke="#000000" points="592,-387.5 592,-417.5 845,-417.5 845,-387.5 592,-387.5"/>
<text text-anchor="start" x="599" y="-398.9" font-family="Arial" font-size="14.00" fill="#000000">open_issues </text>
<text text-anchor="start" x="681.4754" y="-398.9" font-family="Arial" font-size="14.00" fill="#666666">[bigint]</text>
<polygon fill="none" stroke="#000000" points="592,-357.5 592,-387.5 845,-387.5 845,-357.5 592,-357.5"/>
<text text-anchor="start" x="599" y="-368.9" font-family="Arial" font-size="14.00" fill="#000000">has_stars_data </text>
<text text-anchor="start" x="698.5932" y="-368.9" font-family="Arial" font-size="14.00" fill="#666666">[boolean]</text>
<polygon fill="none" stroke="#000000" points="592,-327.5 592,-357.5 845,-357.5 845,-327.5 592,-327.5"/>
<text text-anchor="start" x="599" y="-338.9" font-family="Arial" font-size="14.00" fill="#000000">is_private </text>
<text text-anchor="start" x="662.7854" y="-338.9" font-family="Arial" font-size="14.00" fill="#666666">[boolean]</text>
<polygon fill="none" stroke="#000000" points="592,-297.5 592,-327.5 845,-327.5 845,-297.5 592,-297.5"/>
<text text-anchor="start" x="599" y="-308.9" font-family="Arial" font-size="14.00" fill="#000000">is_open_sauced_member </text>
<text text-anchor="start" x="763.9354" y="-308.9" font-family="Arial" font-size="14.00" fill="#666666">[boolean]</text>
<polygon fill="none" stroke="#000000" points="592,-267.5 592,-297.5 845,-297.5 845,-267.5 592,-267.5"/>
<text text-anchor="start" x="599" y="-278.9" font-family="Arial" font-size="14.00" fill="#000000">created_at </text>
<text text-anchor="start" x="669.028" y="-278.9" font-family="Arial" font-size="14.00" fill="#666666">[timestamp with time zone]</text>
<polygon fill="none" stroke="#000000" points="592,-237.5 592,-267.5 845,-267.5 845,-237.5 592,-237.5"/>
<text text-anchor="start" x="599" y="-248.9" font-family="Arial" font-size="14.00" fill="#000000">login </text>
<text text-anchor="start" x="632.4516" y="-248.9" font-family="Arial" font-size="14.00" fill="#666666">[varchar(255)]</text>
<polygon fill="none" stroke="#000000" points="592,-207.5 592,-237.5 845,-237.5 845,-207.5 592,-207.5"/>
<text text-anchor="start" x="599" y="-218.9" font-family="Arial" font-size="14.00" fill="#000000">deleted_at </text>
<text text-anchor="start" x="668.2566" y="-218.9" font-family="Arial" font-size="14.00" fill="#666666">[timestamp with time zone]</text>
<polygon fill="none" stroke="#000000" points="592,-177.5 592,-207.5 845,-207.5 845,-177.5 592,-177.5"/>
<text text-anchor="start" x="598.6915" y="-188.9" font-family="Arial" font-size="14.00" fill="#000000">updated_at </text>
<text text-anchor="start" x="672.6241" y="-188.9" font-family="Arial" font-size="14.00" fill="#666666">[timestamp with time zone]</text>
</g>
<!-- public.users_to_repos_votes&#45;&gt;public.users -->
<g id="edge1" class="edge">
<title>public.users_to_repos_votes:user_id&#45;&gt;public.users:id</title>
<path fill="none" stroke="#000000" d="M1461.825,-918.8977C1378.8805,-908.2901 1492.0052,-760.3596 1417,-697 1334.7785,-627.5445 1020.5301,-725.0077 934,-661 846.3798,-596.1859 953.987,-432.5 845,-432.5"/>
<polygon fill="#000000" stroke="#000000" points="1462.0175,-918.909 1471.734,-923.9921 1467.0087,-919.2045 1472,-919.5 1472,-919.5 1472,-919.5 1467.0087,-919.2045 1472.266,-915.0079 1462.0175,-918.909 1462.0175,-918.909"/>
<text text-anchor="start" x="1420.0845" y="-903.5" font-family="Arial" font-size="10.00" fill="#000000">FOREIGN KEY (user_id) REFERENCES users(id)</text>
</g>
<!-- public.repos -->
<g id="node6" class="node">
<title>public.repos</title>
<polygon fill="#efefef" stroke="transparent" points="986,-582.5 986,-617.5 1364,-617.5 1364,-582.5 986,-582.5"/>
<polygon fill="none" stroke="#000000" points="986,-582.5 986,-617.5 1364,-617.5 1364,-582.5 986,-582.5"/>
<text text-anchor="start" x="1077.8631" y="-595.3" font-family="Arial Bold" font-size="18.00" fill="#000000">public.repos</text>
<text text-anchor="start" x="1174.8831" y="-595.3" font-family="Arial" font-size="14.00" fill="#000000"> </text>
<text text-anchor="start" x="1178.7737" y="-595.3" font-family="Arial" font-size="14.00" fill="#666666">[BASE TABLE]</text>
<polygon fill="none" stroke="#000000" points="986,-552.5 986,-582.5 1364,-582.5 1364,-552.5 986,-552.5"/>
<text text-anchor="start" x="993" y="-563.9" font-family="Arial" font-size="14.00" fill="#000000">id </text>
<text text-anchor="start" x="1007.7798" y="-563.9" font-family="Arial" font-size="14.00" fill="#666666">[bigint]</text>
<polygon fill="none" stroke="#000000" points="986,-522.5 986,-552.5 1364,-552.5 1364,-522.5 986,-522.5"/>
<text text-anchor="start" x="993" y="-533.9" font-family="Arial" font-size="14.00" fill="#000000">user_id </text>
<text text-anchor="start" x="1042.7882" y="-533.9" font-family="Arial" font-size="14.00" fill="#666666">[bigint]</text>
<polygon fill="none" stroke="#000000" points="986,-492.5 986,-522.5 1364,-522.5 1364,-492.5 986,-492.5"/>
<text text-anchor="start" x="993" y="-503.9" font-family="Arial" font-size="14.00" fill="#000000">issues </text>
<text text-anchor="start" x="1036.5624" y="-503.9" font-family="Arial" font-size="14.00" fill="#666666">[bigint]</text>
<polygon fill="none" stroke="#000000" points="986,-462.5 986,-492.5 1364,-492.5 1364,-462.5 986,-462.5"/>
<text text-anchor="start" x="993" y="-473.9" font-family="Arial" font-size="14.00" fill="#000000">stars </text>
<text text-anchor="start" x="1027.2244" y="-473.9" font-family="Arial" font-size="14.00" fill="#666666">[bigint]</text>
<polygon fill="none" stroke="#000000" points="986,-432.5 986,-462.5 1364,-462.5 1364,-432.5 986,-432.5"/>
<text text-anchor="start" x="993" y="-443.9" font-family="Arial" font-size="14.00" fill="#000000">watchers </text>
<text text-anchor="start" x="1052.8962" y="-443.9" font-family="Arial" font-size="14.00" fill="#666666">[bigint]</text>
<polygon fill="none" stroke="#000000" points="986,-402.5 986,-432.5 1364,-432.5 1364,-402.5 986,-402.5"/>
<text text-anchor="start" x="993" y="-413.9" font-family="Arial" font-size="14.00" fill="#000000">subscribers </text>
<text text-anchor="start" x="1068.4488" y="-413.9" font-family="Arial" font-size="14.00" fill="#666666">[bigint]</text>
<polygon fill="none" stroke="#000000" points="986,-372.5 986,-402.5 1364,-402.5 1364,-372.5 986,-372.5"/>
<text text-anchor="start" x="993" y="-383.9" font-family="Arial" font-size="14.00" fill="#000000">is_fork </text>
<text text-anchor="start" x="1038.1136" y="-383.9" font-family="Arial" font-size="14.00" fill="#666666">[boolean]</text>
<polygon fill="none" stroke="#000000" points="986,-342.5 986,-372.5 1364,-372.5 1364,-342.5 986,-342.5"/>
<text text-anchor="start" x="993" y="-353.9" font-family="Arial" font-size="14.00" fill="#000000">created_at </text>
<text text-anchor="start" x="1063.028" y="-353.9" font-family="Arial" font-size="14.00" fill="#666666">[timestamp without time zone]</text>
<polygon fill="none" stroke="#000000" points="986,-312.5 986,-342.5 1364,-342.5 1364,-312.5 986,-312.5"/>
<text text-anchor="start" x="993" y="-323.9" font-family="Arial" font-size="14.00" fill="#000000">updated_at </text>
<text text-anchor="start" x="1066.9326" y="-323.9" font-family="Arial" font-size="14.00" fill="#666666">[timestamp without time zone]</text>
<polygon fill="none" stroke="#000000" points="986,-282.5 986,-312.5 1364,-312.5 1364,-282.5 986,-282.5"/>
<text text-anchor="start" x="993" y="-293.9" font-family="Arial" font-size="14.00" fill="#000000">pushed_at </text>
<text text-anchor="start" x="1062.2594" y="-293.9" font-family="Arial" font-size="14.00" fill="#666666">[timestamp without time zone]</text>
<polygon fill="none" stroke="#000000" points="986,-252.5 986,-282.5 1364,-282.5 1364,-252.5 986,-252.5"/>
<text text-anchor="start" x="992.5674" y="-263.9" font-family="Arial" font-size="14.00" fill="#000000">last_fetched_contributors_at </text>
<text text-anchor="start" x="1172.2924" y="-263.9" font-family="Arial" font-size="14.00" fill="#666666">[timestamp without time zone]</text>
<polygon fill="none" stroke="#000000" points="986,-222.5 986,-252.5 1364,-252.5 1364,-222.5 986,-222.5"/>
<text text-anchor="start" x="993" y="-233.9" font-family="Arial" font-size="14.00" fill="#000000">name </text>
<text text-anchor="start" x="1031.899" y="-233.9" font-family="Arial" font-size="14.00" fill="#666666">[varchar(255)]</text>
<polygon fill="none" stroke="#000000" points="986,-192.5 986,-222.5 1364,-222.5 1364,-192.5 986,-192.5"/>
<text text-anchor="start" x="993" y="-203.9" font-family="Arial" font-size="14.00" fill="#000000">full_name </text>
<text text-anchor="start" x="1057.568" y="-203.9" font-family="Arial" font-size="14.00" fill="#666666">[varchar(255)]</text>
<polygon fill="none" stroke="#000000" points="986,-162.5 986,-192.5 1364,-192.5 1364,-162.5 986,-162.5"/>
<text text-anchor="start" x="993" y="-173.9" font-family="Arial" font-size="14.00" fill="#000000">description </text>
<text text-anchor="start" x="1064.568" y="-173.9" font-family="Arial" font-size="14.00" fill="#666666">[text]</text>
<polygon fill="none" stroke="#000000" points="986,-132.5 986,-162.5 1364,-162.5 1364,-132.5 986,-132.5"/>
<text text-anchor="start" x="993" y="-143.9" font-family="Arial" font-size="14.00" fill="#000000">language </text>
<text text-anchor="start" x="1054.4754" y="-143.9" font-family="Arial" font-size="14.00" fill="#666666">[varchar(64)]</text>
<polygon fill="none" stroke="#000000" points="986,-102.5 986,-132.5 1364,-132.5 1364,-102.5 986,-102.5"/>
<text text-anchor="start" x="993" y="-113.9" font-family="Arial" font-size="14.00" fill="#000000">license </text>
<text text-anchor="start" x="1040.4516" y="-113.9" font-family="Arial" font-size="14.00" fill="#666666">[varchar(64)]</text>
<polygon fill="none" stroke="#000000" points="986,-72.5 986,-102.5 1364,-102.5 1364,-72.5 986,-72.5"/>
<text text-anchor="start" x="993" y="-83.9" font-family="Arial" font-size="14.00" fill="#000000">url </text>
<text text-anchor="start" x="1012.4404" y="-83.9" font-family="Arial" font-size="14.00" fill="#666666">[varchar(255)]</text>
<polygon fill="none" stroke="#000000" points="986,-42.5 986,-72.5 1364,-72.5 1364,-42.5 986,-42.5"/>
<text text-anchor="start" x="993" y="-53.9" font-family="Arial" font-size="14.00" fill="#000000">deleted_at </text>
<text text-anchor="start" x="1062.2566" y="-53.9" font-family="Arial" font-size="14.00" fill="#666666">[timestamp with time zone]</text>
</g>
<!-- public.users_to_repos_votes&#45;&gt;public.repos -->
<g id="edge5" class="edge">
<title>public.users_to_repos_votes:repo_id&#45;&gt;public.repos:id</title>
<path fill="none" stroke="#000000" d="M1461.802,-888.962C1388.0417,-880.6471 1444.9235,-777.6314 1417,-697 1396.649,-638.2348 1426.1893,-567.5 1364,-567.5"/>
<polygon fill="#000000" stroke="#000000" points="1462.0139,-888.9731 1471.7629,-893.9938 1467.0069,-889.2365 1472,-889.5 1472,-889.5 1472,-889.5 1467.0069,-889.2365 1472.2371,-885.0062 1462.0139,-888.9731 1462.0139,-888.9731"/>
<text text-anchor="start" x="1419.2755" y="-873.5" font-family="Arial" font-size="10.00" fill="#000000">FOREIGN KEY (repo_id) REFERENCES repos(id)</text>
</g>
<!-- public.users_to_repos_stars -->
<g id="node3" class="node">
<title>public.users_to_repos_stars</title>
<polygon fill="#efefef" stroke="transparent" points="43,-964.5 43,-999.5 379,-999.5 379,-964.5 43,-964.5"/>
<polygon fill="none" stroke="#000000" points="43,-964.5 43,-999.5 379,-999.5 379,-964.5 43,-964.5"/>
<text text-anchor="start" x="49.847" y="-977.3" font-family="Arial Bold" font-size="18.00" fill="#000000">public.users_to_repos_stars</text>
<text text-anchor="start" x="274.8992" y="-977.3" font-family="Arial" font-size="14.00" fill="#000000"> </text>
<text text-anchor="start" x="278.7898" y="-977.3" font-family="Arial" font-size="14.00" fill="#666666">[BASE TABLE]</text>
<polygon fill="none" stroke="#000000" points="43,-934.5 43,-964.5 379,-964.5 379,-934.5 43,-934.5"/>
<text text-anchor="start" x="50" y="-945.9" font-family="Arial" font-size="14.00" fill="#000000">id </text>
<text text-anchor="start" x="64.7798" y="-945.9" font-family="Arial" font-size="14.00" fill="#666666">[bigint]</text>
<polygon fill="none" stroke="#000000" points="43,-904.5 43,-934.5 379,-934.5 379,-904.5 43,-904.5"/>
<text text-anchor="start" x="50" y="-915.9" font-family="Arial" font-size="14.00" fill="#000000">user_id </text>
<text text-anchor="start" x="99.7882" y="-915.9" font-family="Arial" font-size="14.00" fill="#666666">[bigint]</text>
<polygon fill="none" stroke="#000000" points="43,-874.5 43,-904.5 379,-904.5 379,-874.5 43,-874.5"/>
<text text-anchor="start" x="50" y="-885.9" font-family="Arial" font-size="14.00" fill="#000000">repo_id </text>
<text text-anchor="start" x="100.5708" y="-885.9" font-family="Arial" font-size="14.00" fill="#666666">[bigint]</text>
<polygon fill="none" stroke="#000000" points="43,-844.5 43,-874.5 379,-874.5 379,-844.5 43,-844.5"/>
<text text-anchor="start" x="50" y="-855.9" font-family="Arial" font-size="14.00" fill="#000000">created_at </text>
<text text-anchor="start" x="120.028" y="-855.9" font-family="Arial" font-size="14.00" fill="#666666">[timestamp with time zone]</text>
<polygon fill="none" stroke="#000000" points="43,-814.5 43,-844.5 379,-844.5 379,-814.5 43,-814.5"/>
<text text-anchor="start" x="50" y="-825.9" font-family="Arial" font-size="14.00" fill="#000000">updated_at </text>
<text text-anchor="start" x="123.9326" y="-825.9" font-family="Arial" font-size="14.00" fill="#666666">[timestamp with time zone]</text>
<polygon fill="none" stroke="#000000" points="43,-784.5 43,-814.5 379,-814.5 379,-784.5 43,-784.5"/>
<text text-anchor="start" x="50" y="-795.9" font-family="Arial" font-size="14.00" fill="#000000">deleted_at </text>
<text text-anchor="start" x="119.2566" y="-795.9" font-family="Arial" font-size="14.00" fill="#666666">[timestamp with time zone]</text>
</g>
<!-- public.users_to_repos_stars&#45;&gt;public.users -->
<g id="edge2" class="edge">
<title>public.users_to_repos_stars:user_id&#45;&gt;public.users:id</title>
<path fill="none" stroke="#000000" d="M389.0216,-919.0306C474.5229,-910.5073 393.9121,-787.6931 431,-697 483.0911,-569.6186 454.3791,-432.5 592,-432.5"/>
<polygon fill="#000000" stroke="#000000" points="388.989,-919.032 378.7894,-915.0049 383.9945,-919.266 379,-919.5 379,-919.5 379,-919.5 383.9945,-919.266 379.2106,-923.9951 388.989,-919.032 388.989,-919.032"/>
<text text-anchor="start" x="386.3345" y="-929.5" font-family="Arial" font-size="10.00" fill="#000000">FOREIGN KEY (user_id) REFERENCES users(id)</text>
</g>
<!-- public.users_to_repos_stars&#45;&gt;public.repos -->
<g id="edge7" class="edge">
<title>public.users_to_repos_stars:repo_id&#45;&gt;public.repos:id</title>
<path fill="none" stroke="#000000" d="M389.3814,-888.7641C458.9309,-877.9639 365.7017,-751.1255 431,-697 510.7942,-630.8588 802.2676,-705.2268 896,-661 948.1638,-636.387 928.321,-567.5 986,-567.5"/>
<polygon fill="#000000" stroke="#000000" points="388.975,-888.7928 378.6818,-885.0113 383.9875,-889.1464 379,-889.5 379,-889.5 379,-889.5 383.9875,-889.1464 379.3182,-893.9887 388.975,-888.7928 388.975,-888.7928"/>
<text text-anchor="start" x="385.7755" y="-899.5" font-family="Arial" font-size="10.00" fill="#000000">FOREIGN KEY (repo_id) REFERENCES repos(id)</text>
</g>
<!-- public.users_to_repos_submissions -->
<g id="node4" class="node">
<title>public.users_to_repos_submissions</title>
<polygon fill="#efefef" stroke="transparent" points="483,-979.5 483,-1014.5 879,-1014.5 879,-979.5 483,-979.5"/>
<polygon fill="none" stroke="#000000" points="483,-979.5 483,-1014.5 879,-1014.5 879,-979.5 483,-979.5"/>
<text text-anchor="start" x="489.8446" y="-992.3" font-family="Arial Bold" font-size="18.00" fill="#000000">public.users_to_repos_submissions</text>
<text text-anchor="start" x="774.9016" y="-992.3" font-family="Arial" font-size="14.00" fill="#000000"> </text>
<text text-anchor="start" x="778.7922" y="-992.3" font-family="Arial" font-size="14.00" fill="#666666">[BASE TABLE]</text>
<polygon fill="none" stroke="#000000" points="483,-949.5 483,-979.5 879,-979.5 879,-949.5 483,-949.5"/>
<text text-anchor="start" x="490" y="-960.9" font-family="Arial" font-size="14.00" fill="#000000">id </text>
<text text-anchor="start" x="504.7798" y="-960.9" font-family="Arial" font-size="14.00" fill="#666666">[bigint]</text>
<polygon fill="none" stroke="#000000" points="483,-919.5 483,-949.5 879,-949.5 879,-919.5 483,-919.5"/>
<text text-anchor="start" x="490" y="-930.9" font-family="Arial" font-size="14.00" fill="#000000">user_id </text>
<text text-anchor="start" x="539.7882" y="-930.9" font-family="Arial" font-size="14.00" fill="#666666">[bigint]</text>
<polygon fill="none" stroke="#000000" points="483,-889.5 483,-919.5 879,-919.5 879,-889.5 483,-889.5"/>
<text text-anchor="start" x="490" y="-900.9" font-family="Arial" font-size="14.00" fill="#000000">repo_id </text>
<text text-anchor="start" x="540.5708" y="-900.9" font-family="Arial" font-size="14.00" fill="#666666">[bigint]</text>
<polygon fill="none" stroke="#000000" points="483,-859.5 483,-889.5 879,-889.5 879,-859.5 483,-859.5"/>
<text text-anchor="start" x="490" y="-870.9" font-family="Arial" font-size="14.00" fill="#000000">created_at </text>
<text text-anchor="start" x="560.028" y="-870.9" font-family="Arial" font-size="14.00" fill="#666666">[timestamp with time zone]</text>
<polygon fill="none" stroke="#000000" points="483,-829.5 483,-859.5 879,-859.5 879,-829.5 483,-829.5"/>
<text text-anchor="start" x="490" y="-840.9" font-family="Arial" font-size="14.00" fill="#000000">updated_at </text>
<text text-anchor="start" x="563.9326" y="-840.9" font-family="Arial" font-size="14.00" fill="#666666">[timestamp with time zone]</text>
<polygon fill="none" stroke="#000000" points="483,-799.5 483,-829.5 879,-829.5 879,-799.5 483,-799.5"/>
<text text-anchor="start" x="490" y="-810.9" font-family="Arial" font-size="14.00" fill="#000000">deleted_at </text>
<text text-anchor="start" x="559.2566" y="-810.9" font-family="Arial" font-size="14.00" fill="#666666">[timestamp with time zone]</text>
<polygon fill="none" stroke="#000000" points="483,-769.5 483,-799.5 879,-799.5 879,-769.5 483,-769.5"/>
<text text-anchor="start" x="490" y="-780.9" font-family="Arial" font-size="14.00" fill="#000000">is_accepted </text>
<text text-anchor="start" x="568.5834" y="-780.9" font-family="Arial" font-size="14.00" fill="#666666">[boolean]</text>
</g>
<!-- public.users_to_repos_submissions&#45;&gt;public.users -->
<g id="edge3" class="edge">
<title>public.users_to_repos_submissions:user_id&#45;&gt;public.users:id</title>
<path fill="none" stroke="#000000" d="M888.9568,-931.2982C921.0626,-908.0133 898.5434,-764.5468 879,-727 807.0999,-588.8652 663.9001,-664.1348 592,-526 572.8135,-489.1389 550.4444,-432.5 592,-432.5"/>
<polygon fill="#000000" stroke="#000000" points="888.5199,-931.4386 877.6224,-930.216 883.7599,-932.9693 879,-934.5 879,-934.5 879,-934.5 883.7599,-932.9693 880.3776,-938.784 888.5199,-931.4386 888.5199,-931.4386"/>
<text text-anchor="start" x="886.3345" y="-944.5" font-family="Arial" font-size="10.00" fill="#000000">FOREIGN KEY (user_id) REFERENCES users(id)</text>
</g>
<!-- public.users_to_repos_submissions&#45;&gt;public.repos -->
<g id="edge8" class="edge">
<title>public.users_to_repos_submissions:repo_id&#45;&gt;public.repos:id</title>
<path fill="none" stroke="#000000" d="M889.3869,-903.9714C968.5051,-895.3728 901.9504,-783.6187 931,-697 950.883,-637.7139 923.4686,-567.5 986,-567.5"/>
<polygon fill="#000000" stroke="#000000" points="888.9871,-903.9916 878.7712,-900.0058 883.9935,-904.2458 879,-904.5 879,-904.5 879,-904.5 883.9935,-904.2458 879.2288,-908.9942 888.9871,-903.9916 888.9871,-903.9916"/>
<text text-anchor="start" x="885.7755" y="-914.5" font-family="Arial" font-size="10.00" fill="#000000">FOREIGN KEY (repo_id) REFERENCES repos(id)</text>
</g>
<!-- public.users_to_repos_stargazers -->
<g id="node5" class="node">
<title>public.users_to_repos_stargazers</title>
<polygon fill="#efefef" stroke="transparent" points="984,-964.5 984,-999.5 1365,-999.5 1365,-964.5 984,-964.5"/>
<polygon fill="none" stroke="#000000" points="984,-964.5 984,-999.5 1365,-999.5 1365,-964.5 984,-964.5"/>
<text text-anchor="start" x="990.8416" y="-977.3" font-family="Arial Bold" font-size="18.00" fill="#000000">public.users_to_repos_stargazers</text>
<text text-anchor="start" x="1260.9046" y="-977.3" font-family="Arial" font-size="14.00" fill="#000000"> </text>
<text text-anchor="start" x="1264.7952" y="-977.3" font-family="Arial" font-size="14.00" fill="#666666">[BASE TABLE]</text>
<polygon fill="none" stroke="#000000" points="984,-934.5 984,-964.5 1365,-964.5 1365,-934.5 984,-934.5"/>
<text text-anchor="start" x="991" y="-945.9" font-family="Arial" font-size="14.00" fill="#000000">id </text>
<text text-anchor="start" x="1005.7798" y="-945.9" font-family="Arial" font-size="14.00" fill="#666666">[bigint]</text>
<polygon fill="none" stroke="#000000" points="984,-904.5 984,-934.5 1365,-934.5 1365,-904.5 984,-904.5"/>
<text text-anchor="start" x="991" y="-915.9" font-family="Arial" font-size="14.00" fill="#000000">user_id </text>
<text text-anchor="start" x="1040.7882" y="-915.9" font-family="Arial" font-size="14.00" fill="#666666">[bigint]</text>
<polygon fill="none" stroke="#000000" points="984,-874.5 984,-904.5 1365,-904.5 1365,-874.5 984,-874.5"/>
<text text-anchor="start" x="991" y="-885.9" font-family="Arial" font-size="14.00" fill="#000000">repo_id </text>
<text text-anchor="start" x="1041.5708" y="-885.9" font-family="Arial" font-size="14.00" fill="#666666">[bigint]</text>
<polygon fill="none" stroke="#000000" points="984,-844.5 984,-874.5 1365,-874.5 1365,-844.5 984,-844.5"/>
<text text-anchor="start" x="991" y="-855.9" font-family="Arial" font-size="14.00" fill="#000000">created_at </text>
<text text-anchor="start" x="1061.028" y="-855.9" font-family="Arial" font-size="14.00" fill="#666666">[timestamp without time zone]</text>
<polygon fill="none" stroke="#000000" points="984,-814.5 984,-844.5 1365,-844.5 1365,-814.5 984,-814.5"/>
<text text-anchor="start" x="991" y="-825.9" font-family="Arial" font-size="14.00" fill="#000000">updated_at </text>
<text text-anchor="start" x="1064.9326" y="-825.9" font-family="Arial" font-size="14.00" fill="#666666">[timestamp without time zone]</text>
<polygon fill="none" stroke="#000000" points="984,-784.5 984,-814.5 1365,-814.5 1365,-784.5 984,-784.5"/>
<text text-anchor="start" x="991" y="-795.9" font-family="Arial" font-size="14.00" fill="#000000">deleted_at </text>
<text text-anchor="start" x="1060.2566" y="-795.9" font-family="Arial" font-size="14.00" fill="#666666">[timestamp without time zone]</text>
</g>
<!-- public.users_to_repos_stargazers&#45;&gt;public.users -->
<g id="edge4" class="edge">
<title>public.users_to_repos_stargazers:user_id&#45;&gt;public.users:id</title>
<path fill="none" stroke="#000000" d="M974.1737,-917.0294C934.6762,-895.708 943.7908,-742.4899 931,-697 897.54,-578.0014 968.6133,-432.5 845,-432.5"/>
<polygon fill="#000000" stroke="#000000" points="974.3018,-917.0615 982.9027,-923.8642 979.1509,-918.2808 984,-919.5 984,-919.5 984,-919.5 979.1509,-918.2808 985.0973,-915.1358 974.3018,-917.0615 974.3018,-917.0615"/>
<text text-anchor="start" x="813.5845" y="-903.5" font-family="Arial" font-size="10.00" fill="#000000">FOREIGN KEY (user_id) REFERENCES users(id)</text>
</g>
<!-- public.users_to_repos_stargazers&#45;&gt;public.repos -->
<g id="edge9" class="edge">
<title>public.users_to_repos_stargazers:repo_id&#45;&gt;public.repos:id</title>
<path fill="none" stroke="#000000" d="M1375.2875,-888.5968C1427.7454,-878.711 1403.892,-790.0823 1365,-742 1256.6751,-608.0775 1094.3249,-794.9225 986,-661 959.8662,-628.6907 944.4444,-567.5 986,-567.5"/>
<polygon fill="#000000" stroke="#000000" points="1374.9617,-888.6253 1364.6064,-885.0172 1369.9808,-889.0626 1365,-889.5 1365,-889.5 1365,-889.5 1369.9808,-889.0626 1365.3936,-893.9828 1374.9617,-888.6253 1374.9617,-888.6253"/>
<text text-anchor="start" x="1133.7755" y="-899.5" font-family="Arial" font-size="10.00" fill="#000000">FOREIGN KEY (repo_id) REFERENCES repos(id)</text>
</g>
<!-- public.contributions -->
<g id="node7" class="node">
<title>public.contributions</title>
<polygon fill="#efefef" stroke="transparent" points="1920,-1009.5 1920,-1044.5 2219,-1044.5 2219,-1009.5 1920,-1009.5"/>
<polygon fill="none" stroke="#000000" points="1920,-1009.5 1920,-1044.5 2219,-1044.5 2219,-1009.5 1920,-1009.5"/>
<text text-anchor="start" x="1943.8574" y="-1022.3" font-family="Arial Bold" font-size="18.00" fill="#000000">public.contributions</text>
<text text-anchor="start" x="2097.8888" y="-1022.3" font-family="Arial" font-size="14.00" fill="#000000"> </text>
<text text-anchor="start" x="2101.7794" y="-1022.3" font-family="Arial" font-size="14.00" fill="#666666">[BASE TABLE]</text>
<polygon fill="none" stroke="#000000" points="1920,-979.5 1920,-1009.5 2219,-1009.5 2219,-979.5 1920,-979.5"/>
<text text-anchor="start" x="1927" y="-990.9" font-family="Arial" font-size="14.00" fill="#000000">id </text>
<text text-anchor="start" x="1941.7798" y="-990.9" font-family="Arial" font-size="14.00" fill="#666666">[bigint]</text>
<polygon fill="none" stroke="#000000" points="1920,-949.5 1920,-979.5 2219,-979.5 2219,-949.5 1920,-949.5"/>
<text text-anchor="start" x="1927" y="-960.9" font-family="Arial" font-size="14.00" fill="#000000">repo_id </text>
<text text-anchor="start" x="1977.5708" y="-960.9" font-family="Arial" font-size="14.00" fill="#666666">[bigint]</text>
<polygon fill="none" stroke="#000000" points="1920,-919.5 1920,-949.5 2219,-949.5 2219,-919.5 1920,-919.5"/>
<text text-anchor="start" x="1927" y="-930.9" font-family="Arial" font-size="14.00" fill="#000000">count </text>
<text text-anchor="start" x="1965.129" y="-930.9" font-family="Arial" font-size="14.00" fill="#666666">[bigint]</text>
<polygon fill="none" stroke="#000000" points="1920,-889.5 1920,-919.5 2219,-919.5 2219,-889.5 1920,-889.5"/>
<text text-anchor="start" x="1926.7497" y="-900.9" font-family="Arial" font-size="14.00" fill="#000000">last_merged_at </text>
<text text-anchor="start" x="2027.1101" y="-900.9" font-family="Arial" font-size="14.00" fill="#666666">[timestamp without time zone]</text>
<polygon fill="none" stroke="#000000" points="1920,-859.5 1920,-889.5 2219,-889.5 2219,-859.5 1920,-859.5"/>
<text text-anchor="start" x="1927" y="-870.9" font-family="Arial" font-size="14.00" fill="#000000">contributor </text>
<text text-anchor="start" x="1997.0126" y="-870.9" font-family="Arial" font-size="14.00" fill="#666666">[varchar(255)]</text>
<polygon fill="none" stroke="#000000" points="1920,-829.5 1920,-859.5 2219,-859.5 2219,-829.5 1920,-829.5"/>
<text text-anchor="start" x="1927" y="-840.9" font-family="Arial" font-size="14.00" fill="#000000">url </text>
<text text-anchor="start" x="1946.4404" y="-840.9" font-family="Arial" font-size="14.00" fill="#666666">[varchar(255)]</text>
<polygon fill="none" stroke="#000000" points="1920,-799.5 1920,-829.5 2219,-829.5 2219,-799.5 1920,-799.5"/>
<text text-anchor="start" x="1927" y="-810.9" font-family="Arial" font-size="14.00" fill="#000000">deleted_at </text>
<text text-anchor="start" x="1996.2566" y="-810.9" font-family="Arial" font-size="14.00" fill="#666666">[timestamp with time zone]</text>
<polygon fill="none" stroke="#000000" points="1920,-769.5 1920,-799.5 2219,-799.5 2219,-769.5 1920,-769.5"/>
<text text-anchor="start" x="1927" y="-780.9" font-family="Arial" font-size="14.00" fill="#000000">updated_at </text>
<text text-anchor="start" x="2000.9326" y="-780.9" font-family="Arial" font-size="14.00" fill="#666666">[timestamp with time zone]</text>
<polygon fill="none" stroke="#000000" points="1920,-739.5 1920,-769.5 2219,-769.5 2219,-739.5 1920,-739.5"/>
<text text-anchor="start" x="1927" y="-750.9" font-family="Arial" font-size="14.00" fill="#000000">created_at </text>
<text text-anchor="start" x="1997.028" y="-750.9" font-family="Arial" font-size="14.00" fill="#666666">[timestamp with time zone]</text>
</g>
<!-- public.contributions&#45;&gt;public.repos -->
<g id="edge6" class="edge">
<title>public.contributions:repo_id&#45;&gt;public.repos:id</title>
<path fill="none" stroke="#000000" d="M1909.7281,-964.0142C1807.7548,-953.7206 1947.7311,-782.4165 1867,-697 1787.7168,-613.1155 1479.4228,-567.5 1364,-567.5"/>
<polygon fill="#000000" stroke="#000000" points="1910.0112,-964.0275 1919.7874,-968.995 1915.0056,-964.2638 1920,-964.5 1920,-964.5 1920,-964.5 1915.0056,-964.2638 1920.2126,-960.005 1910.0112,-964.0275 1910.0112,-964.0275"/>
<text text-anchor="start" x="1867.2755" y="-948.5" font-family="Arial" font-size="10.00" fill="#000000">FOREIGN KEY (repo_id) REFERENCES repos(id)</text>
</g>
</g>
</svg>
