<?xml version="1.0" encoding="UTF-8" standalone="no"?>
<!DOCTYPE svg PUBLIC "-//W3C//DTD SVG 1.1//EN"
 "http://www.w3.org/Graphics/SVG/1.1/DTD/svg11.dtd">
<!-- Generated by graphviz version 2.40.1 (20161225.0304)
 -->
<!-- Title: public.users Pages: 1 -->
<svg width="1860pt" height="1036pt"
 viewBox="0.00 0.00 1860.00 1036.00" xmlns="http://www.w3.org/2000/svg" xmlns:xlink="http://www.w3.org/1999/xlink">
<g id="graph0" class="graph" transform="scale(1 1) rotate(0) translate(4 1032)">
<title>public.users</title>
<polygon fill="#ffffff" stroke="transparent" points="-4,4 -4,-1032 1856,-1032 1856,4 -4,4"/>
<!-- public.users -->
<g id="node1" class="node">
<title>public.users</title>
<polygon fill="#efefef" stroke="transparent" points="628,-447.5 628,-482.5 881,-482.5 881,-447.5 628,-447.5"/>
<polygon fill="none" stroke="#000000" points="628,-447.5 628,-482.5 881,-482.5 881,-447.5 628,-447.5"/>
<text text-anchor="start" x="657.8662" y="-460.3" font-family="Arial Bold" font-size="18.00" fill="#000000">public.users</text>
<text text-anchor="start" x="753.88" y="-460.3" font-family="Arial" font-size="14.00" fill="#000000"> </text>
<text text-anchor="start" x="757.7706" y="-460.3" font-family="Arial" font-size="14.00" fill="#666666">[BASE TABLE]</text>
<polygon fill="none" stroke="#000000" points="628,-417.5 628,-447.5 881,-447.5 881,-417.5 628,-417.5"/>
<text text-anchor="start" x="635" y="-428.9" font-family="Arial" font-size="14.00" fill="#000000">id </text>
<text text-anchor="start" x="649.7798" y="-428.9" font-family="Arial" font-size="14.00" fill="#666666">[bigint]</text>
<polygon fill="none" stroke="#000000" points="628,-387.5 628,-417.5 881,-417.5 881,-387.5 628,-387.5"/>
<text text-anchor="start" x="635" y="-398.9" font-family="Arial" font-size="14.00" fill="#000000">open_issues </text>
<text text-anchor="start" x="717.4754" y="-398.9" font-family="Arial" font-size="14.00" fill="#666666">[bigint]</text>
<polygon fill="none" stroke="#000000" points="628,-357.5 628,-387.5 881,-387.5 881,-357.5 628,-357.5"/>
<text text-anchor="start" x="635" y="-368.9" font-family="Arial" font-size="14.00" fill="#000000">has_stars_data </text>
<text text-anchor="start" x="734.5932" y="-368.9" font-family="Arial" font-size="14.00" fill="#666666">[boolean]</text>
<polygon fill="none" stroke="#000000" points="628,-327.5 628,-357.5 881,-357.5 881,-327.5 628,-327.5"/>
<text text-anchor="start" x="635" y="-338.9" font-family="Arial" font-size="14.00" fill="#000000">is_private </text>
<text text-anchor="start" x="698.7854" y="-338.9" font-family="Arial" font-size="14.00" fill="#666666">[boolean]</text>
<polygon fill="none" stroke="#000000" points="628,-297.5 628,-327.5 881,-327.5 881,-297.5 628,-297.5"/>
<text text-anchor="start" x="635" y="-308.9" font-family="Arial" font-size="14.00" fill="#000000">is_open_sauced_member </text>
<text text-anchor="start" x="799.9354" y="-308.9" font-family="Arial" font-size="14.00" fill="#666666">[boolean]</text>
<polygon fill="none" stroke="#000000" points="628,-267.5 628,-297.5 881,-297.5 881,-267.5 628,-267.5"/>
<text text-anchor="start" x="635" y="-278.9" font-family="Arial" font-size="14.00" fill="#000000">created_at </text>
<text text-anchor="start" x="705.028" y="-278.9" font-family="Arial" font-size="14.00" fill="#666666">[timestamp with time zone]</text>
<polygon fill="none" stroke="#000000" points="628,-237.5 628,-267.5 881,-267.5 881,-237.5 628,-237.5"/>
<text text-anchor="start" x="635" y="-248.9" font-family="Arial" font-size="14.00" fill="#000000">login </text>
<text text-anchor="start" x="668.4516" y="-248.9" font-family="Arial" font-size="14.00" fill="#666666">[varchar(255)]</text>
<polygon fill="none" stroke="#000000" points="628,-207.5 628,-237.5 881,-237.5 881,-207.5 628,-207.5"/>
<text text-anchor="start" x="635" y="-218.9" font-family="Arial" font-size="14.00" fill="#000000">deleted_at </text>
<text text-anchor="start" x="704.2566" y="-218.9" font-family="Arial" font-size="14.00" fill="#666666">[timestamp with time zone]</text>
<polygon fill="none" stroke="#000000" points="628,-177.5 628,-207.5 881,-207.5 881,-177.5 628,-177.5"/>
<text text-anchor="start" x="634.6915" y="-188.9" font-family="Arial" font-size="14.00" fill="#000000">updated_at </text>
<text text-anchor="start" x="708.6241" y="-188.9" font-family="Arial" font-size="14.00" fill="#666666">[timestamp with time zone]</text>
<polygon fill="none" stroke="#000000" stroke-width="3" points="626,-176.5 626,-484.5 882,-484.5 882,-176.5 626,-176.5"/>
</g>
<!-- public.users_to_repos_stars -->
<g id="node2" class="node">
<title>public.users_to_repos_stars</title>
<polygon fill="#efefef" stroke="transparent" points="1029,-934.5 1029,-969.5 1365,-969.5 1365,-934.5 1029,-934.5"/>
<polygon fill="none" stroke="#000000" points="1029,-934.5 1029,-969.5 1365,-969.5 1365,-934.5 1029,-934.5"/>
<text text-anchor="start" x="1035.847" y="-947.3" font-family="Arial Bold" font-size="18.00" fill="#000000">public.users_to_repos_stars</text>
<text text-anchor="start" x="1260.8992" y="-947.3" font-family="Arial" font-size="14.00" fill="#000000"> </text>
<text text-anchor="start" x="1264.7898" y="-947.3" font-family="Arial" font-size="14.00" fill="#666666">[BASE TABLE]</text>
<polygon fill="none" stroke="#000000" points="1029,-904.5 1029,-934.5 1365,-934.5 1365,-904.5 1029,-904.5"/>
<text text-anchor="start" x="1036" y="-915.9" font-family="Arial" font-size="14.00" fill="#000000">id </text>
<text text-anchor="start" x="1050.7798" y="-915.9" font-family="Arial" font-size="14.00" fill="#666666">[bigint]</text>
<polygon fill="none" stroke="#000000" points="1029,-874.5 1029,-904.5 1365,-904.5 1365,-874.5 1029,-874.5"/>
<text text-anchor="start" x="1036" y="-885.9" font-family="Arial" font-size="14.00" fill="#000000">user_id </text>
<text text-anchor="start" x="1085.7882" y="-885.9" font-family="Arial" font-size="14.00" fill="#666666">[bigint]</text>
<polygon fill="none" stroke="#000000" points="1029,-844.5 1029,-874.5 1365,-874.5 1365,-844.5 1029,-844.5"/>
<text text-anchor="start" x="1036" y="-855.9" font-family="Arial" font-size="14.00" fill="#000000">repo_id </text>
<text text-anchor="start" x="1086.5708" y="-855.9" font-family="Arial" font-size="14.00" fill="#666666">[bigint]</text>
<polygon fill="none" stroke="#000000" points="1029,-814.5 1029,-844.5 1365,-844.5 1365,-814.5 1029,-814.5"/>
<text text-anchor="start" x="1036" y="-825.9" font-family="Arial" font-size="14.00" fill="#000000">created_at </text>
<text text-anchor="start" x="1106.028" y="-825.9" font-family="Arial" font-size="14.00" fill="#666666">[timestamp with time zone]</text>
<polygon fill="none" stroke="#000000" points="1029,-784.5 1029,-814.5 1365,-814.5 1365,-784.5 1029,-784.5"/>
<text text-anchor="start" x="1036" y="-795.9" font-family="Arial" font-size="14.00" fill="#000000">updated_at </text>
<text text-anchor="start" x="1109.9326" y="-795.9" font-family="Arial" font-size="14.00" fill="#666666">[timestamp with time zone]</text>
<polygon fill="none" stroke="#000000" points="1029,-754.5 1029,-784.5 1365,-784.5 1365,-754.5 1029,-754.5"/>
<text text-anchor="start" x="1036" y="-765.9" font-family="Arial" font-size="14.00" fill="#000000">deleted_at </text>
<text text-anchor="start" x="1105.2566" y="-765.9" font-family="Arial" font-size="14.00" fill="#666666">[timestamp with time zone]</text>
</g>
<!-- public.users_to_repos_stars&#45;&gt;public.users -->
<g id="edge1" class="edge">
<title>public.users_to_repos_stars:user_id&#45;&gt;public.users:id</title>
<path fill="none" stroke="#000000" d="M1018.9171,-888.934C946.5853,-880.1927 1016.7999,-772.0919 977,-697 967.1119,-678.3438 956.012,-679.59 946,-661 895.9345,-568.0401 986.5846,-432.5 881,-432.5"/>
<polygon fill="#000000" stroke="#000000" points="1019.0157,-888.9395 1028.7478,-893.9929 1024.0079,-889.2197 1029,-889.5 1029,-889.5 1029,-889.5 1024.0079,-889.2197 1029.2522,-885.0071 1019.0157,-888.9395 1019.0157,-888.9395"/>
<text text-anchor="start" x="977.0845" y="-873.5" font-family="Arial" font-size="10.00" fill="#000000">FOREIGN KEY (user_id) REFERENCES users(id)</text>
</g>
<!-- public.repos -->
<g id="node3" class="node">
<title>public.repos</title>
<polygon fill="#efefef" stroke="transparent" points="998,-582.5 998,-617.5 1376,-617.5 1376,-582.5 998,-582.5"/>
<polygon fill="none" stroke="#000000" points="998,-582.5 998,-617.5 1376,-617.5 1376,-582.5 998,-582.5"/>
<text text-anchor="start" x="1089.8631" y="-595.3" font-family="Arial Bold" font-size="18.00" fill="#000000">public.repos</text>
<text text-anchor="start" x="1186.8831" y="-595.3" font-family="Arial" font-size="14.00" fill="#000000"> </text>
<text text-anchor="start" x="1190.7737" y="-595.3" font-family="Arial" font-size="14.00" fill="#666666">[BASE TABLE]</text>
<polygon fill="none" stroke="#000000" points="998,-552.5 998,-582.5 1376,-582.5 1376,-552.5 998,-552.5"/>
<text text-anchor="start" x="1005" y="-563.9" font-family="Arial" font-size="14.00" fill="#000000">id </text>
<text text-anchor="start" x="1019.7798" y="-563.9" font-family="Arial" font-size="14.00" fill="#666666">[bigint]</text>
<polygon fill="none" stroke="#000000" points="998,-522.5 998,-552.5 1376,-552.5 1376,-522.5 998,-522.5"/>
<text text-anchor="start" x="1005" y="-533.9" font-family="Arial" font-size="14.00" fill="#000000">user_id </text>
<text text-anchor="start" x="1054.7882" y="-533.9" font-family="Arial" font-size="14.00" fill="#666666">[bigint]</text>
<polygon fill="none" stroke="#000000" points="998,-492.5 998,-522.5 1376,-522.5 1376,-492.5 998,-492.5"/>
<text text-anchor="start" x="1005" y="-503.9" font-family="Arial" font-size="14.00" fill="#000000">issues </text>
<text text-anchor="start" x="1048.5624" y="-503.9" font-family="Arial" font-size="14.00" fill="#666666">[bigint]</text>
<polygon fill="none" stroke="#000000" points="998,-462.5 998,-492.5 1376,-492.5 1376,-462.5 998,-462.5"/>
<text text-anchor="start" x="1005" y="-473.9" font-family="Arial" font-size="14.00" fill="#000000">stars </text>
<text text-anchor="start" x="1039.2244" y="-473.9" font-family="Arial" font-size="14.00" fill="#666666">[bigint]</text>
<polygon fill="none" stroke="#000000" points="998,-432.5 998,-462.5 1376,-462.5 1376,-432.5 998,-432.5"/>
<text text-anchor="start" x="1005" y="-443.9" font-family="Arial" font-size="14.00" fill="#000000">watchers </text>
<text text-anchor="start" x="1064.8962" y="-443.9" font-family="Arial" font-size="14.00" fill="#666666">[bigint]</text>
<polygon fill="none" stroke="#000000" points="998,-402.5 998,-432.5 1376,-432.5 1376,-402.5 998,-402.5"/>
<text text-anchor="start" x="1005" y="-413.9" font-family="Arial" font-size="14.00" fill="#000000">subscribers </text>
<text text-anchor="start" x="1080.4488" y="-413.9" font-family="Arial" font-size="14.00" fill="#666666">[bigint]</text>
<polygon fill="none" stroke="#000000" points="998,-372.5 998,-402.5 1376,-402.5 1376,-372.5 998,-372.5"/>
<text text-anchor="start" x="1005" y="-383.9" font-family="Arial" font-size="14.00" fill="#000000">is_fork </text>
<text text-anchor="start" x="1050.1136" y="-383.9" font-family="Arial" font-size="14.00" fill="#666666">[boolean]</text>
<polygon fill="none" stroke="#000000" points="998,-342.5 998,-372.5 1376,-372.5 1376,-342.5 998,-342.5"/>
<text text-anchor="start" x="1005" y="-353.9" font-family="Arial" font-size="14.00" fill="#000000">created_at </text>
<text text-anchor="start" x="1075.028" y="-353.9" font-family="Arial" font-size="14.00" fill="#666666">[timestamp without time zone]</text>
<polygon fill="none" stroke="#000000" points="998,-312.5 998,-342.5 1376,-342.5 1376,-312.5 998,-312.5"/>
<text text-anchor="start" x="1005" y="-323.9" font-family="Arial" font-size="14.00" fill="#000000">updated_at </text>
<text text-anchor="start" x="1078.9326" y="-323.9" font-family="Arial" font-size="14.00" fill="#666666">[timestamp without time zone]</text>
<polygon fill="none" stroke="#000000" points="998,-282.5 998,-312.5 1376,-312.5 1376,-282.5 998,-282.5"/>
<text text-anchor="start" x="1005" y="-293.9" font-family="Arial" font-size="14.00" fill="#000000">pushed_at </text>
<text text-anchor="start" x="1074.2594" y="-293.9" font-family="Arial" font-size="14.00" fill="#666666">[timestamp without time zone]</text>
<polygon fill="none" stroke="#000000" points="998,-252.5 998,-282.5 1376,-282.5 1376,-252.5 998,-252.5"/>
<text text-anchor="start" x="1004.5674" y="-263.9" font-family="Arial" font-size="14.00" fill="#000000">last_fetched_contributors_at </text>
<text text-anchor="start" x="1184.2924" y="-263.9" font-family="Arial" font-size="14.00" fill="#666666">[timestamp without time zone]</text>
<polygon fill="none" stroke="#000000" points="998,-222.5 998,-252.5 1376,-252.5 1376,-222.5 998,-222.5"/>
<text text-anchor="start" x="1005" y="-233.9" font-family="Arial" font-size="14.00" fill="#000000">name </text>
<text text-anchor="start" x="1043.899" y="-233.9" font-family="Arial" font-size="14.00" fill="#666666">[varchar(255)]</text>
<polygon fill="none" stroke="#000000" points="998,-192.5 998,-222.5 1376,-222.5 1376,-192.5 998,-192.5"/>
<text text-anchor="start" x="1005" y="-203.9" font-family="Arial" font-size="14.00" fill="#000000">full_name </text>
<text text-anchor="start" x="1069.568" y="-203.9" font-family="Arial" font-size="14.00" fill="#666666">[varchar(255)]</text>
<polygon fill="none" stroke="#000000" points="998,-162.5 998,-192.5 1376,-192.5 1376,-162.5 998,-162.5"/>
<text text-anchor="start" x="1005" y="-173.9" font-family="Arial" font-size="14.00" fill="#000000">description </text>
<text text-anchor="start" x="1076.568" y="-173.9" font-family="Arial" font-size="14.00" fill="#666666">[text]</text>
<polygon fill="none" stroke="#000000" points="998,-132.5 998,-162.5 1376,-162.5 1376,-132.5 998,-132.5"/>
<text text-anchor="start" x="1005" y="-143.9" font-family="Arial" font-size="14.00" fill="#000000">language </text>
<text text-anchor="start" x="1066.4754" y="-143.9" font-family="Arial" font-size="14.00" fill="#666666">[varchar(64)]</text>
<polygon fill="none" stroke="#000000" points="998,-102.5 998,-132.5 1376,-132.5 1376,-102.5 998,-102.5"/>
<text text-anchor="start" x="1005" y="-113.9" font-family="Arial" font-size="14.00" fill="#000000">license </text>
<text text-anchor="start" x="1052.4516" y="-113.9" font-family="Arial" font-size="14.00" fill="#666666">[varchar(64)]</text>
<polygon fill="none" stroke="#000000" points="998,-72.5 998,-102.5 1376,-102.5 1376,-72.5 998,-72.5"/>
<text text-anchor="start" x="1005" y="-83.9" font-family="Arial" font-size="14.00" fill="#000000">url </text>
<text text-anchor="start" x="1024.4404" y="-83.9" font-family="Arial" font-size="14.00" fill="#666666">[varchar(255)]</text>
<polygon fill="none" stroke="#000000" points="998,-42.5 998,-72.5 1376,-72.5 1376,-42.5 998,-42.5"/>
<text text-anchor="start" x="1005" y="-53.9" font-family="Arial" font-size="14.00" fill="#000000">deleted_at </text>
<text text-anchor="start" x="1074.2566" y="-53.9" font-family="Arial" font-size="14.00" fill="#666666">[timestamp with time zone]</text>
</g>
<!-- public.users_to_repos_stars&#45;&gt;public.repos -->
<g id="edge2" class="edge">
<title>public.users_to_repos_stars:repo_id&#45;&gt;public.repos:id</title>
<path fill="none" stroke="#000000" d="M1019.0255,-858.6456C965.9879,-848.9377 988.4913,-758.8976 1029,-712 1130.8946,-594.0349 1274.1054,-778.9651 1376,-661 1403.1639,-629.5519 1417.5556,-567.5 1376,-567.5"/>
<polygon fill="#000000" stroke="#000000" points="1019.0365,-858.6465 1028.6159,-863.9836 1024.0182,-859.0732 1029,-859.5 1029,-859.5 1029,-859.5 1024.0182,-859.0732 1029.3841,-855.0164 1019.0365,-858.6465 1019.0365,-858.6465"/>
<text text-anchor="start" x="976.2755" y="-843.5" font-family="Arial" font-size="10.00" fill="#000000">FOREIGN KEY (repo_id) REFERENCES repos(id)</text>
</g>
<!-- public.users_to_repos_votes -->
<g id="node4" class="node">
<title>public.users_to_repos_votes</title>
<polygon fill="#efefef" stroke="transparent" points="1469,-934.5 1469,-969.5 1809,-969.5 1809,-934.5 1469,-934.5"/>
<polygon fill="none" stroke="#000000" points="1469,-934.5 1469,-969.5 1809,-969.5 1809,-934.5 1469,-934.5"/>
<text text-anchor="start" x="1475.84" y="-947.3" font-family="Arial Bold" font-size="18.00" fill="#000000">public.users_to_repos_votes</text>
<text text-anchor="start" x="1704.9062" y="-947.3" font-family="Arial" font-size="14.00" fill="#000000"> </text>
<text text-anchor="start" x="1708.7968" y="-947.3" font-family="Arial" font-size="14.00" fill="#666666">[BASE TABLE]</text>
<polygon fill="none" stroke="#000000" points="1469,-904.5 1469,-934.5 1809,-934.5 1809,-904.5 1469,-904.5"/>
<text text-anchor="start" x="1476" y="-915.9" font-family="Arial" font-size="14.00" fill="#000000">id </text>
<text text-anchor="start" x="1490.7798" y="-915.9" font-family="Arial" font-size="14.00" fill="#666666">[bigint]</text>
<polygon fill="none" stroke="#000000" points="1469,-874.5 1469,-904.5 1809,-904.5 1809,-874.5 1469,-874.5"/>
<text text-anchor="start" x="1476" y="-885.9" font-family="Arial" font-size="14.00" fill="#000000">user_id </text>
<text text-anchor="start" x="1525.7882" y="-885.9" font-family="Arial" font-size="14.00" fill="#666666">[bigint]</text>
<polygon fill="none" stroke="#000000" points="1469,-844.5 1469,-874.5 1809,-874.5 1809,-844.5 1469,-844.5"/>
<text text-anchor="start" x="1476" y="-855.9" font-family="Arial" font-size="14.00" fill="#000000">repo_id </text>
<text text-anchor="start" x="1526.5708" y="-855.9" font-family="Arial" font-size="14.00" fill="#666666">[bigint]</text>
<polygon fill="none" stroke="#000000" points="1469,-814.5 1469,-844.5 1809,-844.5 1809,-814.5 1469,-814.5"/>
<text text-anchor="start" x="1476" y="-825.9" font-family="Arial" font-size="14.00" fill="#000000">created_at </text>
<text text-anchor="start" x="1546.028" y="-825.9" font-family="Arial" font-size="14.00" fill="#666666">[timestamp with time zone]</text>
<polygon fill="none" stroke="#000000" points="1469,-784.5 1469,-814.5 1809,-814.5 1809,-784.5 1469,-784.5"/>
<text text-anchor="start" x="1476" y="-795.9" font-family="Arial" font-size="14.00" fill="#000000">updated_at </text>
<text text-anchor="start" x="1549.9326" y="-795.9" font-family="Arial" font-size="14.00" fill="#666666">[timestamp with time zone]</text>
<polygon fill="none" stroke="#000000" points="1469,-754.5 1469,-784.5 1809,-784.5 1809,-754.5 1469,-754.5"/>
<text text-anchor="start" x="1476" y="-765.9" font-family="Arial" font-size="14.00" fill="#000000">deleted_at </text>
<text text-anchor="start" x="1545.2566" y="-765.9" font-family="Arial" font-size="14.00" fill="#666666">[timestamp with time zone]</text>
</g>
<!-- public.users_to_repos_votes&#45;&gt;public.users -->
<g id="edge3" class="edge">
<title>public.users_to_repos_votes:user_id&#45;&gt;public.users:id</title>
<path fill="none" stroke="#000000" d="M1458.6188,-888.7639C1389.0713,-877.9611 1482.3248,-751.0935 1417,-697 1336.1494,-630.05 1027.2943,-727.4104 946,-661 864.2312,-594.202 986.5846,-432.5 881,-432.5"/>
<polygon fill="#000000" stroke="#000000" points="1459.025,-888.7926 1468.6817,-893.9887 1464.0125,-889.1463 1469,-889.5 1469,-889.5 1469,-889.5 1464.0125,-889.1463 1469.3183,-885.0113 1459.025,-888.7926 1459.025,-888.7926"/>
<text text-anchor="start" x="1239.3345" y="-899.5" font-family="Arial" font-size="10.00" fill="#000000">FOREIGN KEY (user_id) REFERENCES users(id)</text>
</g>
<!-- public.users_to_repos_votes&#45;&gt;public.repos -->
<g id="edge4" class="edge">
<title>public.users_to_repos_votes:repo_id&#45;&gt;public.repos:id</title>
<path fill="none" stroke="#000000" d="M1459.1222,-857.1496C1405.1463,-829.5152 1440.5093,-567.5 1376,-567.5"/>
<polygon fill="#000000" stroke="#000000" points="1459.2716,-857.185 1467.9583,-863.8778 1464.1358,-858.3425 1469,-859.5 1469,-859.5 1469,-859.5 1464.1358,-858.3425 1470.0417,-855.1222 1459.2716,-857.185 1459.2716,-857.185"/>
<text text-anchor="start" x="1237.7755" y="-869.5" font-family="Arial" font-size="10.00" fill="#000000">FOREIGN KEY (repo_id) REFERENCES repos(id)</text>
</g>
<!-- public.users_to_repos_submissions -->
<g id="node5" class="node">
<title>public.users_to_repos_submissions</title>
<polygon fill="#efefef" stroke="transparent" points="43,-949.5 43,-984.5 439,-984.5 439,-949.5 43,-949.5"/>
<polygon fill="none" stroke="#000000" points="43,-949.5 43,-984.5 439,-984.5 439,-949.5 43,-949.5"/>
<text text-anchor="start" x="49.8446" y="-962.3" font-family="Arial Bold" font-size="18.00" fill="#000000">public.users_to_repos_submissions</text>
<text text-anchor="start" x="334.9016" y="-962.3" font-family="Arial" font-size="14.00" fill="#000000"> </text>
<text text-anchor="start" x="338.7922" y="-962.3" font-family="Arial" font-size="14.00" fill="#666666">[BASE TABLE]</text>
<polygon fill="none" stroke="#000000" points="43,-919.5 43,-949.5 439,-949.5 439,-919.5 43,-919.5"/>
<text text-anchor="start" x="50" y="-930.9" font-family="Arial" font-size="14.00" fill="#000000">id </text>
<text text-anchor="start" x="64.7798" y="-930.9" font-family="Arial" font-size="14.00" fill="#666666">[bigint]</text>
<polygon fill="none" stroke="#000000" points="43,-889.5 43,-919.5 439,-919.5 439,-889.5 43,-889.5"/>
<text text-anchor="start" x="50" y="-900.9" font-family="Arial" font-size="14.00" fill="#000000">user_id </text>
<text text-anchor="start" x="99.7882" y="-900.9" font-family="Arial" font-size="14.00" fill="#666666">[bigint]</text>
<polygon fill="none" stroke="#000000" points="43,-859.5 43,-889.5 439,-889.5 439,-859.5 43,-859.5"/>
<text text-anchor="start" x="50" y="-870.9" font-family="Arial" font-size="14.00" fill="#000000">repo_id </text>
<text text-anchor="start" x="100.5708" y="-870.9" font-family="Arial" font-size="14.00" fill="#666666">[bigint]</text>
<polygon fill="none" stroke="#000000" points="43,-829.5 43,-859.5 439,-859.5 439,-829.5 43,-829.5"/>
<text text-anchor="start" x="50" y="-840.9" font-family="Arial" font-size="14.00" fill="#000000">created_at </text>
<text text-anchor="start" x="120.028" y="-840.9" font-family="Arial" font-size="14.00" fill="#666666">[timestamp with time zone]</text>
<polygon fill="none" stroke="#000000" points="43,-799.5 43,-829.5 439,-829.5 439,-799.5 43,-799.5"/>
<text text-anchor="start" x="50" y="-810.9" font-family="Arial" font-size="14.00" fill="#000000">updated_at </text>
<text text-anchor="start" x="123.9326" y="-810.9" font-family="Arial" font-size="14.00" fill="#666666">[timestamp with time zone]</text>
<polygon fill="none" stroke="#000000" points="43,-769.5 43,-799.5 439,-799.5 439,-769.5 43,-769.5"/>
<text text-anchor="start" x="50" y="-780.9" font-family="Arial" font-size="14.00" fill="#000000">deleted_at </text>
<text text-anchor="start" x="119.2566" y="-780.9" font-family="Arial" font-size="14.00" fill="#666666">[timestamp with time zone]</text>
<polygon fill="none" stroke="#000000" points="43,-739.5 43,-769.5 439,-769.5 439,-739.5 43,-739.5"/>
<text text-anchor="start" x="50" y="-750.9" font-family="Arial" font-size="14.00" fill="#000000">is_accepted </text>
<text text-anchor="start" x="128.5834" y="-750.9" font-family="Arial" font-size="14.00" fill="#666666">[boolean]</text>
</g>
<!-- public.users_to_repos_submissions&#45;&gt;public.users -->
<g id="edge5" class="edge">
<title>public.users_to_repos_submissions:user_id&#45;&gt;public.users:id</title>
<path fill="none" stroke="#000000" d="M449.3877,-903.9664C528.4179,-895.287 459.5654,-782.5209 492,-697 538.8745,-573.4054 495.8151,-432.5 628,-432.5"/>
<polygon fill="#000000" stroke="#000000" points="448.9868,-903.9869 438.7691,-900.0059 443.9934,-904.2434 439,-904.5 439,-904.5 439,-904.5 443.9934,-904.2434 439.2309,-908.9941 448.9868,-903.9869 448.9868,-903.9869"/>
<text text-anchor="start" x="446.3345" y="-914.5" font-family="Arial" font-size="10.00" fill="#000000">FOREIGN KEY (user_id) REFERENCES users(id)</text>
</g>
<!-- public.users_to_repos_submissions&#45;&gt;public.repos -->
<g id="edge6" class="edge">
<title>public.users_to_repos_submissions:repo_id&#45;&gt;public.repos:id</title>
<path fill="none" stroke="#000000" d="M449.0622,-873.7572C513.2648,-863.3573 430.8958,-746.4903 492,-697 568.9244,-634.6964 850.7451,-711.3062 936,-661 978.9429,-635.6607 948.1385,-567.5 998,-567.5"/>
<polygon fill="#000000" stroke="#000000" points="448.9729,-873.7637 438.6687,-870.0122 443.9864,-874.1319 439,-874.5 439,-874.5 439,-874.5 443.9864,-874.1319 439.3313,-878.9878 448.9729,-873.7637 448.9729,-873.7637"/>
<text text-anchor="start" x="445.7755" y="-884.5" font-family="Arial" font-size="10.00" fill="#000000">FOREIGN KEY (repo_id) REFERENCES repos(id)</text>
</g>
<!-- public.users_to_repos_stargazers -->
<g id="node6" class="node">
<title>public.users_to_repos_stargazers</title>
<polygon fill="#efefef" stroke="transparent" points="544,-934.5 544,-969.5 925,-969.5 925,-934.5 544,-934.5"/>
<polygon fill="none" stroke="#000000" points="544,-934.5 544,-969.5 925,-969.5 925,-934.5 544,-934.5"/>
<text text-anchor="start" x="550.8416" y="-947.3" font-family="Arial Bold" font-size="18.00" fill="#000000">public.users_to_repos_stargazers</text>
<text text-anchor="start" x="820.9046" y="-947.3" font-family="Arial" font-size="14.00" fill="#000000"> </text>
<text text-anchor="start" x="824.7952" y="-947.3" font-family="Arial" font-size="14.00" fill="#666666">[BASE TABLE]</text>
<polygon fill="none" stroke="#000000" points="544,-904.5 544,-934.5 925,-934.5 925,-904.5 544,-904.5"/>
<text text-anchor="start" x="551" y="-915.9" font-family="Arial" font-size="14.00" fill="#000000">id </text>
<text text-anchor="start" x="565.7798" y="-915.9" font-family="Arial" font-size="14.00" fill="#666666">[bigint]</text>
<polygon fill="none" stroke="#000000" points="544,-874.5 544,-904.5 925,-904.5 925,-874.5 544,-874.5"/>
<text text-anchor="start" x="551" y="-885.9" font-family="Arial" font-size="14.00" fill="#000000">user_id </text>
<text text-anchor="start" x="600.7882" y="-885.9" font-family="Arial" font-size="14.00" fill="#666666">[bigint]</text>
<polygon fill="none" stroke="#000000" points="544,-844.5 544,-874.5 925,-874.5 925,-844.5 544,-844.5"/>
<text text-anchor="start" x="551" y="-855.9" font-family="Arial" font-size="14.00" fill="#000000">repo_id </text>
<text text-anchor="start" x="601.5708" y="-855.9" font-family="Arial" font-size="14.00" fill="#666666">[bigint]</text>
<polygon fill="none" stroke="#000000" points="544,-814.5 544,-844.5 925,-844.5 925,-814.5 544,-814.5"/>
<text text-anchor="start" x="551" y="-825.9" font-family="Arial" font-size="14.00" fill="#000000">created_at </text>
<text text-anchor="start" x="621.028" y="-825.9" font-family="Arial" font-size="14.00" fill="#666666">[timestamp without time zone]</text>
<polygon fill="none" stroke="#000000" points="544,-784.5 544,-814.5 925,-814.5 925,-784.5 544,-784.5"/>
<text text-anchor="start" x="551" y="-795.9" font-family="Arial" font-size="14.00" fill="#000000">updated_at </text>
<text text-anchor="start" x="624.9326" y="-795.9" font-family="Arial" font-size="14.00" fill="#666666">[timestamp without time zone]</text>
<polygon fill="none" stroke="#000000" points="544,-754.5 544,-784.5 925,-784.5 925,-754.5 544,-754.5"/>
<text text-anchor="start" x="551" y="-765.9" font-family="Arial" font-size="14.00" fill="#000000">deleted_at </text>
<text text-anchor="start" x="620.2566" y="-765.9" font-family="Arial" font-size="14.00" fill="#666666">[timestamp without time zone]</text>
</g>
<!-- public.users_to_repos_stargazers&#45;&gt;public.users -->
<g id="edge7" class="edge">
<title>public.users_to_repos_stargazers:user_id&#45;&gt;public.users:id</title>
<path fill="none" stroke="#000000" d="M935.3197,-888.7993C1000.1033,-879.4039 961.6599,-777.6486 925,-712 849.4065,-576.6311 703.5935,-664.3689 628,-529 607.0892,-491.5541 585.1111,-432.5 628,-432.5"/>
<polygon fill="#000000" stroke="#000000" points="934.977,-888.8224 924.6951,-885.0103 929.9885,-889.1612 925,-889.5 925,-889.5 925,-889.5 929.9885,-889.1612 925.3049,-893.9897 934.977,-888.8224 934.977,-888.8224"/>
<text text-anchor="start" x="932.3345" y="-899.5" font-family="Arial" font-size="10.00" fill="#000000">FOREIGN KEY (user_id) REFERENCES users(id)</text>
</g>
<!-- public.users_to_repos_stargazers&#45;&gt;public.repos -->
<g id="edge8" class="edge">
<title>public.users_to_repos_stargazers:repo_id&#45;&gt;public.repos:id</title>
<path fill="none" stroke="#000000" d="M935.2505,-858.857C1048.3782,-843.7496 867.886,-567.5 998,-567.5"/>
<polygon fill="#000000" stroke="#000000" points="934.9804,-858.8738 924.7182,-855.0088 929.9902,-859.1869 925,-859.5 925,-859.5 925,-859.5 929.9902,-859.1869 925.2818,-863.9912 934.9804,-858.8738 934.9804,-858.8738"/>
<text text-anchor="start" x="693.7755" y="-869.5" font-family="Arial" font-size="10.00" fill="#000000">FOREIGN KEY (repo_id) REFERENCES repos(id)</text>
</g>
</g>
</svg>
