<?xml version="1.0" encoding="UTF-8" standalone="no"?>
<!DOCTYPE svg PUBLIC "-//W3C//DTD SVG 1.1//EN"
 "http://www.w3.org/Graphics/SVG/1.1/DTD/svg11.dtd">
<!-- Generated by graphviz version 2.40.1 (20161225.0304)
 -->
<!-- Title: public.users Pages: 1 -->
<svg width="1281pt" height="1289pt"
 viewBox="0.00 0.00 1281.00 1289.00" xmlns="http://www.w3.org/2000/svg" xmlns:xlink="http://www.w3.org/1999/xlink">
<g id="graph0" class="graph" transform="scale(1 1) rotate(0) translate(4 1285)">
<title>public.users</title>
<polygon fill="#ffffff" stroke="transparent" points="-4,4 -4,-1285 1277,-1285 1277,4 -4,4"/>
<!-- public.users -->
<g id="node1" class="node">
<title>public.users</title>
<polygon fill="#efefef" stroke="transparent" points="501,-255.5 501,-290.5 750,-290.5 750,-255.5 501,-255.5"/>
<polygon fill="none" stroke="#000000" points="501,-255.5 501,-290.5 750,-290.5 750,-255.5 501,-255.5"/>
<text text-anchor="start" x="528.8662" y="-268.3" font-family="Arial Bold" font-size="18.00" fill="#000000">public.users</text>
<text text-anchor="start" x="624.88" y="-268.3" font-family="Arial" font-size="14.00" fill="#000000"> </text>
<text text-anchor="start" x="628.7706" y="-268.3" font-family="Arial" font-size="14.00" fill="#666666">[BASE TABLE]</text>
<polygon fill="none" stroke="#000000" points="501,-225.5 501,-255.5 750,-255.5 750,-225.5 501,-225.5"/>
<text text-anchor="start" x="508" y="-236.9" font-family="Arial" font-size="14.00" fill="#000000">id </text>
<text text-anchor="start" x="522.7798" y="-236.9" font-family="Arial" font-size="14.00" fill="#666666">[bigint]</text>
<polygon fill="none" stroke="#000000" points="501,-195.5 501,-225.5 750,-225.5 750,-195.5 501,-195.5"/>
<text text-anchor="start" x="508" y="-206.9" font-family="Arial" font-size="14.00" fill="#000000">open_issues </text>
<text text-anchor="start" x="590.4754" y="-206.9" font-family="Arial" font-size="14.00" fill="#666666">[bigint]</text>
<polygon fill="none" stroke="#000000" points="501,-165.5 501,-195.5 750,-195.5 750,-165.5 501,-165.5"/>
<text text-anchor="start" x="508" y="-176.9" font-family="Arial" font-size="14.00" fill="#000000">has_stars_data </text>
<text text-anchor="start" x="607.5932" y="-176.9" font-family="Arial" font-size="14.00" fill="#666666">[boolean]</text>
<polygon fill="none" stroke="#000000" points="501,-135.5 501,-165.5 750,-165.5 750,-135.5 501,-135.5"/>
<text text-anchor="start" x="508" y="-146.9" font-family="Arial" font-size="14.00" fill="#000000">is_private </text>
<text text-anchor="start" x="571.7854" y="-146.9" font-family="Arial" font-size="14.00" fill="#666666">[boolean]</text>
<polygon fill="none" stroke="#000000" points="501,-105.5 501,-135.5 750,-135.5 750,-105.5 501,-105.5"/>
<text text-anchor="start" x="508" y="-116.9" font-family="Arial" font-size="14.00" fill="#000000">is_open_sauced_member </text>
<text text-anchor="start" x="672.9354" y="-116.9" font-family="Arial" font-size="14.00" fill="#666666">[boolean]</text>
<polygon fill="none" stroke="#000000" points="501,-75.5 501,-105.5 750,-105.5 750,-75.5 501,-75.5"/>
<text text-anchor="start" x="507.6438" y="-86.9" font-family="Arial" font-size="14.00" fill="#000000">created_at </text>
<text text-anchor="start" x="577.6718" y="-86.9" font-family="Arial" font-size="14.00" fill="#666666">[timestamp with time zone]</text>
<polygon fill="none" stroke="#000000" points="501,-45.5 501,-75.5 750,-75.5 750,-45.5 501,-45.5"/>
<text text-anchor="start" x="508" y="-56.9" font-family="Arial" font-size="14.00" fill="#000000">login </text>
<text text-anchor="start" x="541.4516" y="-56.9" font-family="Arial" font-size="14.00" fill="#666666">[varchar(255)]</text>
<polygon fill="none" stroke="#000000" stroke-width="3" points="499,-44.5 499,-292.5 751,-292.5 751,-44.5 499,-44.5"/>
</g>
<!-- public.users_to_repos_stars -->
<g id="node2" class="node">
<title>public.users_to_repos_stars</title>
<polygon fill="#efefef" stroke="transparent" points="237,-1202.5 237,-1237.5 573,-1237.5 573,-1202.5 237,-1202.5"/>
<polygon fill="none" stroke="#000000" points="237,-1202.5 237,-1237.5 573,-1237.5 573,-1202.5 237,-1202.5"/>
<text text-anchor="start" x="243.847" y="-1215.3" font-family="Arial Bold" font-size="18.00" fill="#000000">public.users_to_repos_stars</text>
<text text-anchor="start" x="468.8992" y="-1215.3" font-family="Arial" font-size="14.00" fill="#000000"> </text>
<text text-anchor="start" x="472.7898" y="-1215.3" font-family="Arial" font-size="14.00" fill="#666666">[BASE TABLE]</text>
<polygon fill="none" stroke="#000000" points="237,-1172.5 237,-1202.5 573,-1202.5 573,-1172.5 237,-1172.5"/>
<text text-anchor="start" x="244" y="-1183.9" font-family="Arial" font-size="14.00" fill="#000000">id </text>
<text text-anchor="start" x="258.7798" y="-1183.9" font-family="Arial" font-size="14.00" fill="#666666">[bigint]</text>
<polygon fill="none" stroke="#000000" points="237,-1142.5 237,-1172.5 573,-1172.5 573,-1142.5 237,-1142.5"/>
<text text-anchor="start" x="244" y="-1153.9" font-family="Arial" font-size="14.00" fill="#000000">user_id </text>
<text text-anchor="start" x="293.7882" y="-1153.9" font-family="Arial" font-size="14.00" fill="#666666">[bigint]</text>
<polygon fill="none" stroke="#000000" points="237,-1112.5 237,-1142.5 573,-1142.5 573,-1112.5 237,-1112.5"/>
<text text-anchor="start" x="244" y="-1123.9" font-family="Arial" font-size="14.00" fill="#000000">repo_id </text>
<text text-anchor="start" x="294.5708" y="-1123.9" font-family="Arial" font-size="14.00" fill="#666666">[bigint]</text>
<polygon fill="none" stroke="#000000" points="237,-1082.5 237,-1112.5 573,-1112.5 573,-1082.5 237,-1082.5"/>
<text text-anchor="start" x="244" y="-1093.9" font-family="Arial" font-size="14.00" fill="#000000">created_at </text>
<text text-anchor="start" x="314.028" y="-1093.9" font-family="Arial" font-size="14.00" fill="#666666">[timestamp with time zone]</text>
</g>
<!-- public.users_to_repos_stars&#45;&gt;public.users -->
<g id="edge1" class="edge">
<title>public.users_to_repos_stars:user_id&#45;&gt;public.users:id</title>
<path fill="none" stroke="#000000" d="M226.8299,-1156.7502C33.6967,-1127.3055 292.4658,-240.5 501,-240.5"/>
<polygon fill="#000000" stroke="#000000" points="227.0271,-1156.7646 236.6691,-1161.9878 232.0135,-1157.1323 237,-1157.5 237,-1157.5 237,-1157.5 232.0135,-1157.1323 237.3309,-1153.0122 227.0271,-1156.7646 227.0271,-1156.7646"/>
<text text-anchor="start" x="7.3345" y="-1167.5" font-family="Arial" font-size="10.00" fill="#000000">FOREIGN KEY (user_id) REFERENCES users(id)</text>
</g>
<!-- public.repos -->
<g id="node3" class="node">
<title>public.repos</title>
<polygon fill="#efefef" stroke="transparent" points="437,-925.5 437,-960.5 815,-960.5 815,-925.5 437,-925.5"/>
<polygon fill="none" stroke="#000000" points="437,-925.5 437,-960.5 815,-960.5 815,-925.5 437,-925.5"/>
<text text-anchor="start" x="528.8631" y="-938.3" font-family="Arial Bold" font-size="18.00" fill="#000000">public.repos</text>
<text text-anchor="start" x="625.8831" y="-938.3" font-family="Arial" font-size="14.00" fill="#000000"> </text>
<text text-anchor="start" x="629.7737" y="-938.3" font-family="Arial" font-size="14.00" fill="#666666">[BASE TABLE]</text>
<polygon fill="none" stroke="#000000" points="437,-895.5 437,-925.5 815,-925.5 815,-895.5 437,-895.5"/>
<text text-anchor="start" x="444" y="-906.9" font-family="Arial" font-size="14.00" fill="#000000">id </text>
<text text-anchor="start" x="458.7798" y="-906.9" font-family="Arial" font-size="14.00" fill="#666666">[bigint]</text>
<polygon fill="none" stroke="#000000" points="437,-865.5 437,-895.5 815,-895.5 815,-865.5 437,-865.5"/>
<text text-anchor="start" x="444" y="-876.9" font-family="Arial" font-size="14.00" fill="#000000">user_id </text>
<text text-anchor="start" x="493.7882" y="-876.9" font-family="Arial" font-size="14.00" fill="#666666">[bigint]</text>
<polygon fill="none" stroke="#000000" points="437,-835.5 437,-865.5 815,-865.5 815,-835.5 437,-835.5"/>
<text text-anchor="start" x="444" y="-846.9" font-family="Arial" font-size="14.00" fill="#000000">issues </text>
<text text-anchor="start" x="487.5624" y="-846.9" font-family="Arial" font-size="14.00" fill="#666666">[bigint]</text>
<polygon fill="none" stroke="#000000" points="437,-805.5 437,-835.5 815,-835.5 815,-805.5 437,-805.5"/>
<text text-anchor="start" x="444" y="-816.9" font-family="Arial" font-size="14.00" fill="#000000">stars </text>
<text text-anchor="start" x="478.2244" y="-816.9" font-family="Arial" font-size="14.00" fill="#666666">[bigint]</text>
<polygon fill="none" stroke="#000000" points="437,-775.5 437,-805.5 815,-805.5 815,-775.5 437,-775.5"/>
<text text-anchor="start" x="444" y="-786.9" font-family="Arial" font-size="14.00" fill="#000000">watchers </text>
<text text-anchor="start" x="503.8962" y="-786.9" font-family="Arial" font-size="14.00" fill="#666666">[bigint]</text>
<polygon fill="none" stroke="#000000" points="437,-745.5 437,-775.5 815,-775.5 815,-745.5 437,-745.5"/>
<text text-anchor="start" x="444" y="-756.9" font-family="Arial" font-size="14.00" fill="#000000">subscribers </text>
<text text-anchor="start" x="519.4488" y="-756.9" font-family="Arial" font-size="14.00" fill="#666666">[bigint]</text>
<polygon fill="none" stroke="#000000" points="437,-715.5 437,-745.5 815,-745.5 815,-715.5 437,-715.5"/>
<text text-anchor="start" x="444" y="-726.9" font-family="Arial" font-size="14.00" fill="#000000">is_fork </text>
<text text-anchor="start" x="489.1136" y="-726.9" font-family="Arial" font-size="14.00" fill="#666666">[boolean]</text>
<polygon fill="none" stroke="#000000" points="437,-685.5 437,-715.5 815,-715.5 815,-685.5 437,-685.5"/>
<text text-anchor="start" x="444" y="-696.9" font-family="Arial" font-size="14.00" fill="#000000">created_at </text>
<text text-anchor="start" x="514.028" y="-696.9" font-family="Arial" font-size="14.00" fill="#666666">[timestamp without time zone]</text>
<polygon fill="none" stroke="#000000" points="437,-655.5 437,-685.5 815,-685.5 815,-655.5 437,-655.5"/>
<text text-anchor="start" x="444" y="-666.9" font-family="Arial" font-size="14.00" fill="#000000">updated_at </text>
<text text-anchor="start" x="517.9326" y="-666.9" font-family="Arial" font-size="14.00" fill="#666666">[timestamp without time zone]</text>
<polygon fill="none" stroke="#000000" points="437,-625.5 437,-655.5 815,-655.5 815,-625.5 437,-625.5"/>
<text text-anchor="start" x="444" y="-636.9" font-family="Arial" font-size="14.00" fill="#000000">pushed_at </text>
<text text-anchor="start" x="513.2594" y="-636.9" font-family="Arial" font-size="14.00" fill="#666666">[timestamp without time zone]</text>
<polygon fill="none" stroke="#000000" points="437,-595.5 437,-625.5 815,-625.5 815,-595.5 437,-595.5"/>
<text text-anchor="start" x="443.5674" y="-606.9" font-family="Arial" font-size="14.00" fill="#000000">last_fetched_contributors_at </text>
<text text-anchor="start" x="623.2924" y="-606.9" font-family="Arial" font-size="14.00" fill="#666666">[timestamp without time zone]</text>
<polygon fill="none" stroke="#000000" points="437,-565.5 437,-595.5 815,-595.5 815,-565.5 437,-565.5"/>
<text text-anchor="start" x="444" y="-576.9" font-family="Arial" font-size="14.00" fill="#000000">name </text>
<text text-anchor="start" x="482.899" y="-576.9" font-family="Arial" font-size="14.00" fill="#666666">[varchar(255)]</text>
<polygon fill="none" stroke="#000000" points="437,-535.5 437,-565.5 815,-565.5 815,-535.5 437,-535.5"/>
<text text-anchor="start" x="444" y="-546.9" font-family="Arial" font-size="14.00" fill="#000000">full_name </text>
<text text-anchor="start" x="508.568" y="-546.9" font-family="Arial" font-size="14.00" fill="#666666">[varchar(255)]</text>
<polygon fill="none" stroke="#000000" points="437,-505.5 437,-535.5 815,-535.5 815,-505.5 437,-505.5"/>
<text text-anchor="start" x="444" y="-516.9" font-family="Arial" font-size="14.00" fill="#000000">description </text>
<text text-anchor="start" x="515.568" y="-516.9" font-family="Arial" font-size="14.00" fill="#666666">[text]</text>
<polygon fill="none" stroke="#000000" points="437,-475.5 437,-505.5 815,-505.5 815,-475.5 437,-475.5"/>
<text text-anchor="start" x="444" y="-486.9" font-family="Arial" font-size="14.00" fill="#000000">language </text>
<text text-anchor="start" x="505.4754" y="-486.9" font-family="Arial" font-size="14.00" fill="#666666">[varchar(64)]</text>
<polygon fill="none" stroke="#000000" points="437,-445.5 437,-475.5 815,-475.5 815,-445.5 437,-445.5"/>
<text text-anchor="start" x="444" y="-456.9" font-family="Arial" font-size="14.00" fill="#000000">license </text>
<text text-anchor="start" x="491.4516" y="-456.9" font-family="Arial" font-size="14.00" fill="#666666">[varchar(64)]</text>
<polygon fill="none" stroke="#000000" points="437,-415.5 437,-445.5 815,-445.5 815,-415.5 437,-415.5"/>
<text text-anchor="start" x="444" y="-426.9" font-family="Arial" font-size="14.00" fill="#000000">url </text>
<text text-anchor="start" x="463.4404" y="-426.9" font-family="Arial" font-size="14.00" fill="#666666">[varchar(255)]</text>
</g>
<!-- public.users_to_repos_stars&#45;&gt;public.repos -->
<g id="edge2" class="edge">
<title>public.users_to_repos_stars:repo_id&#45;&gt;public.repos:id</title>
<path fill="none" stroke="#000000" d="M582.889,-1125.9552C608.8448,-1116.6757 594.4043,-1067.8073 573,-1040 534.8614,-990.4523 475.1386,-1053.5477 437,-1004 411.6527,-971.0701 395.4444,-910.5 437,-910.5"/>
<polygon fill="#000000" stroke="#000000" points="582.8802,-1125.9565 572.3054,-1123.0539 577.9401,-1126.7282 573,-1127.5 573,-1127.5 573,-1127.5 577.9401,-1126.7282 573.6946,-1131.9461 582.8802,-1125.9565 582.8802,-1125.9565"/>
<text text-anchor="start" x="579.7755" y="-1137.5" font-family="Arial" font-size="10.00" fill="#000000">FOREIGN KEY (repo_id) REFERENCES repos(id)</text>
</g>
<!-- public.repos&#45;&gt;public.users -->
<g id="edge5" class="edge">
<title>public.repos:user_id&#45;&gt;public.users:id</title>
<path fill="none" stroke="#000000" stroke-dasharray="5,2" d="M427.8516,-875.8852C382.8857,-827.413 401.6729,-412.6232 437,-373 530.1865,-268.4812 656.8135,-441.5188 750,-337 778.5419,-304.9872 792.8889,-240.5 750,-240.5"/>
<polygon fill="#000000" stroke="#000000" points="428.0716,-875.9961 434.9733,-884.5178 432.5358,-878.2481 437,-880.5 437,-880.5 437,-880.5 432.5358,-878.2481 439.0267,-876.4822 428.0716,-875.9961 428.0716,-875.9961"/>
<text text-anchor="start" x="351.268" y="-890.5" font-family="Arial" font-size="10.00" fill="#000000">Detected Relation</text>
</g>
<!-- public.users_to_repos_votes -->
<g id="node4" class="node">
<title>public.users_to_repos_votes</title>
<polygon fill="#efefef" stroke="transparent" points="696,-1202.5 696,-1237.5 1036,-1237.5 1036,-1202.5 696,-1202.5"/>
<polygon fill="none" stroke="#000000" points="696,-1202.5 696,-1237.5 1036,-1237.5 1036,-1202.5 696,-1202.5"/>
<text text-anchor="start" x="702.84" y="-1215.3" font-family="Arial Bold" font-size="18.00" fill="#000000">public.users_to_repos_votes</text>
<text text-anchor="start" x="931.9062" y="-1215.3" font-family="Arial" font-size="14.00" fill="#000000"> </text>
<text text-anchor="start" x="935.7968" y="-1215.3" font-family="Arial" font-size="14.00" fill="#666666">[BASE TABLE]</text>
<polygon fill="none" stroke="#000000" points="696,-1172.5 696,-1202.5 1036,-1202.5 1036,-1172.5 696,-1172.5"/>
<text text-anchor="start" x="703" y="-1183.9" font-family="Arial" font-size="14.00" fill="#000000">id </text>
<text text-anchor="start" x="717.7798" y="-1183.9" font-family="Arial" font-size="14.00" fill="#666666">[bigint]</text>
<polygon fill="none" stroke="#000000" points="696,-1142.5 696,-1172.5 1036,-1172.5 1036,-1142.5 696,-1142.5"/>
<text text-anchor="start" x="703" y="-1153.9" font-family="Arial" font-size="14.00" fill="#000000">user_id </text>
<text text-anchor="start" x="752.7882" y="-1153.9" font-family="Arial" font-size="14.00" fill="#666666">[bigint]</text>
<polygon fill="none" stroke="#000000" points="696,-1112.5 696,-1142.5 1036,-1142.5 1036,-1112.5 696,-1112.5"/>
<text text-anchor="start" x="703" y="-1123.9" font-family="Arial" font-size="14.00" fill="#000000">repo_id </text>
<text text-anchor="start" x="753.5708" y="-1123.9" font-family="Arial" font-size="14.00" fill="#666666">[bigint]</text>
<polygon fill="none" stroke="#000000" points="696,-1082.5 696,-1112.5 1036,-1112.5 1036,-1082.5 696,-1082.5"/>
<text text-anchor="start" x="703" y="-1093.9" font-family="Arial" font-size="14.00" fill="#000000">created_at </text>
<text text-anchor="start" x="773.028" y="-1093.9" font-family="Arial" font-size="14.00" fill="#666666">[timestamp with time zone]</text>
</g>
<!-- public.users_to_repos_votes&#45;&gt;public.users -->
<g id="edge3" class="edge">
<title>public.users_to_repos_votes:user_id&#45;&gt;public.users:id</title>
<path fill="none" stroke="#000000" d="M1046.2209,-1156.7502C1239.9828,-1127.3055 959.9151,-240.5 750,-240.5"/>
<polygon fill="#000000" stroke="#000000" points="1045.9732,-1156.7683 1035.6707,-1153.0121 1040.9866,-1157.1341 1036,-1157.5 1036,-1157.5 1036,-1157.5 1040.9866,-1157.1341 1036.3293,-1161.9879 1045.9732,-1156.7683 1045.9732,-1156.7683"/>
<text text-anchor="start" x="1043.3345" y="-1167.5" font-family="Arial" font-size="10.00" fill="#000000">FOREIGN KEY (user_id) REFERENCES users(id)</text>
</g>
<!-- public.users_to_repos_votes&#45;&gt;public.repos -->
<g id="edge4" class="edge">
<title>public.users_to_repos_votes:repo_id&#45;&gt;public.repos:id</title>
<path fill="none" stroke="#000000" d="M685.7912,-1125.8438C660.3794,-1116.3279 675.1761,-1068.0556 696,-1040 728.9328,-995.6303 782.0672,-1048.3697 815,-1004 839.7672,-970.6316 856.5556,-910.5 815,-910.5"/>
<polygon fill="#000000" stroke="#000000" points="686.129,-1125.8986 695.2793,-1131.9419 691.0645,-1126.6993 696,-1127.5 696,-1127.5 696,-1127.5 691.0645,-1126.6993 696.7207,-1123.0581 686.129,-1125.8986 686.129,-1125.8986"/>
<text text-anchor="start" x="524.2755" y="-1111.5" font-family="Arial" font-size="10.00" fill="#000000">FOREIGN KEY (repo_id) REFERENCES repos(id)</text>
</g>
</g>
</svg>
