<?xml version="1.0" encoding="UTF-8" standalone="no"?>
<!DOCTYPE svg PUBLIC "-//W3C//DTD SVG 1.1//EN"
 "http://www.w3.org/Graphics/SVG/1.1/DTD/svg11.dtd">
<!-- Generated by graphviz version 2.40.1 (20161225.0304)
 -->
<!-- Title: hot.opensauced.pizza supabase Pages: 1 -->
<svg width="3154pt" height="1786pt"
 viewBox="0.00 0.00 3154.00 1786.00" xmlns="http://www.w3.org/2000/svg" xmlns:xlink="http://www.w3.org/1999/xlink">
<g id="graph0" class="graph" transform="scale(1 1) rotate(0) translate(4 1782)">
<title>hot.opensauced.pizza supabase</title>
<polygon fill="#ffffff" stroke="transparent" points="-4,4 -4,-1782 3150,-1782 3150,4 -4,4"/>
<!-- public.repos -->
<g id="node1" class="node">
<title>public.repos</title>
<polygon fill="#efefef" stroke="transparent" points="990,-582.5 990,-617.5 1368,-617.5 1368,-582.5 990,-582.5"/>
<polygon fill="none" stroke="#000000" points="990,-582.5 990,-617.5 1368,-617.5 1368,-582.5 990,-582.5"/>
<text text-anchor="start" x="1081.8631" y="-595.3" font-family="Arial Bold" font-size="18.00" fill="#000000">public.repos</text>
<text text-anchor="start" x="1178.8831" y="-595.3" font-family="Arial" font-size="14.00" fill="#000000"> </text>
<text text-anchor="start" x="1182.7737" y="-595.3" font-family="Arial" font-size="14.00" fill="#666666">[BASE TABLE]</text>
<polygon fill="none" stroke="#000000" points="990,-552.5 990,-582.5 1368,-582.5 1368,-552.5 990,-552.5"/>
<text text-anchor="start" x="997" y="-563.9" font-family="Arial" font-size="14.00" fill="#000000">id </text>
<text text-anchor="start" x="1011.7798" y="-563.9" font-family="Arial" font-size="14.00" fill="#666666">[bigint]</text>
<polygon fill="none" stroke="#000000" points="990,-522.5 990,-552.5 1368,-552.5 1368,-522.5 990,-522.5"/>
<text text-anchor="start" x="997" y="-533.9" font-family="Arial" font-size="14.00" fill="#000000">user_id </text>
<text text-anchor="start" x="1046.7882" y="-533.9" font-family="Arial" font-size="14.00" fill="#666666">[bigint]</text>
<polygon fill="none" stroke="#000000" points="990,-492.5 990,-522.5 1368,-522.5 1368,-492.5 990,-492.5"/>
<text text-anchor="start" x="997" y="-503.9" font-family="Arial" font-size="14.00" fill="#000000">issues </text>
<text text-anchor="start" x="1040.5624" y="-503.9" font-family="Arial" font-size="14.00" fill="#666666">[bigint]</text>
<polygon fill="none" stroke="#000000" points="990,-462.5 990,-492.5 1368,-492.5 1368,-462.5 990,-462.5"/>
<text text-anchor="start" x="997" y="-473.9" font-family="Arial" font-size="14.00" fill="#000000">stars </text>
<text text-anchor="start" x="1031.2244" y="-473.9" font-family="Arial" font-size="14.00" fill="#666666">[bigint]</text>
<polygon fill="none" stroke="#000000" points="990,-432.5 990,-462.5 1368,-462.5 1368,-432.5 990,-432.5"/>
<text text-anchor="start" x="997" y="-443.9" font-family="Arial" font-size="14.00" fill="#000000">watchers </text>
<text text-anchor="start" x="1056.8962" y="-443.9" font-family="Arial" font-size="14.00" fill="#666666">[bigint]</text>
<polygon fill="none" stroke="#000000" points="990,-402.5 990,-432.5 1368,-432.5 1368,-402.5 990,-402.5"/>
<text text-anchor="start" x="997" y="-413.9" font-family="Arial" font-size="14.00" fill="#000000">subscribers </text>
<text text-anchor="start" x="1072.4488" y="-413.9" font-family="Arial" font-size="14.00" fill="#666666">[bigint]</text>
<polygon fill="none" stroke="#000000" points="990,-372.5 990,-402.5 1368,-402.5 1368,-372.5 990,-372.5"/>
<text text-anchor="start" x="997" y="-383.9" font-family="Arial" font-size="14.00" fill="#000000">is_fork </text>
<text text-anchor="start" x="1042.1136" y="-383.9" font-family="Arial" font-size="14.00" fill="#666666">[boolean]</text>
<polygon fill="none" stroke="#000000" points="990,-342.5 990,-372.5 1368,-372.5 1368,-342.5 990,-342.5"/>
<text text-anchor="start" x="997" y="-353.9" font-family="Arial" font-size="14.00" fill="#000000">created_at </text>
<text text-anchor="start" x="1067.028" y="-353.9" font-family="Arial" font-size="14.00" fill="#666666">[timestamp without time zone]</text>
<polygon fill="none" stroke="#000000" points="990,-312.5 990,-342.5 1368,-342.5 1368,-312.5 990,-312.5"/>
<text text-anchor="start" x="997" y="-323.9" font-family="Arial" font-size="14.00" fill="#000000">updated_at </text>
<text text-anchor="start" x="1070.9326" y="-323.9" font-family="Arial" font-size="14.00" fill="#666666">[timestamp without time zone]</text>
<polygon fill="none" stroke="#000000" points="990,-282.5 990,-312.5 1368,-312.5 1368,-282.5 990,-282.5"/>
<text text-anchor="start" x="997" y="-293.9" font-family="Arial" font-size="14.00" fill="#000000">pushed_at </text>
<text text-anchor="start" x="1066.2594" y="-293.9" font-family="Arial" font-size="14.00" fill="#666666">[timestamp without time zone]</text>
<polygon fill="none" stroke="#000000" points="990,-252.5 990,-282.5 1368,-282.5 1368,-252.5 990,-252.5"/>
<text text-anchor="start" x="996.5674" y="-263.9" font-family="Arial" font-size="14.00" fill="#000000">last_fetched_contributors_at </text>
<text text-anchor="start" x="1176.2924" y="-263.9" font-family="Arial" font-size="14.00" fill="#666666">[timestamp without time zone]</text>
<polygon fill="none" stroke="#000000" points="990,-222.5 990,-252.5 1368,-252.5 1368,-222.5 990,-222.5"/>
<text text-anchor="start" x="997" y="-233.9" font-family="Arial" font-size="14.00" fill="#000000">name </text>
<text text-anchor="start" x="1035.899" y="-233.9" font-family="Arial" font-size="14.00" fill="#666666">[varchar(255)]</text>
<polygon fill="none" stroke="#000000" points="990,-192.5 990,-222.5 1368,-222.5 1368,-192.5 990,-192.5"/>
<text text-anchor="start" x="997" y="-203.9" font-family="Arial" font-size="14.00" fill="#000000">full_name </text>
<text text-anchor="start" x="1061.568" y="-203.9" font-family="Arial" font-size="14.00" fill="#666666">[varchar(255)]</text>
<polygon fill="none" stroke="#000000" points="990,-162.5 990,-192.5 1368,-192.5 1368,-162.5 990,-162.5"/>
<text text-anchor="start" x="997" y="-173.9" font-family="Arial" font-size="14.00" fill="#000000">description </text>
<text text-anchor="start" x="1068.568" y="-173.9" font-family="Arial" font-size="14.00" fill="#666666">[text]</text>
<polygon fill="none" stroke="#000000" points="990,-132.5 990,-162.5 1368,-162.5 1368,-132.5 990,-132.5"/>
<text text-anchor="start" x="997" y="-143.9" font-family="Arial" font-size="14.00" fill="#000000">language </text>
<text text-anchor="start" x="1058.4754" y="-143.9" font-family="Arial" font-size="14.00" fill="#666666">[varchar(64)]</text>
<polygon fill="none" stroke="#000000" points="990,-102.5 990,-132.5 1368,-132.5 1368,-102.5 990,-102.5"/>
<text text-anchor="start" x="997" y="-113.9" font-family="Arial" font-size="14.00" fill="#000000">license </text>
<text text-anchor="start" x="1044.4516" y="-113.9" font-family="Arial" font-size="14.00" fill="#666666">[varchar(64)]</text>
<polygon fill="none" stroke="#000000" points="990,-72.5 990,-102.5 1368,-102.5 1368,-72.5 990,-72.5"/>
<text text-anchor="start" x="997" y="-83.9" font-family="Arial" font-size="14.00" fill="#000000">url </text>
<text text-anchor="start" x="1016.4404" y="-83.9" font-family="Arial" font-size="14.00" fill="#666666">[varchar(255)]</text>
<polygon fill="none" stroke="#000000" points="990,-42.5 990,-72.5 1368,-72.5 1368,-42.5 990,-42.5"/>
<text text-anchor="start" x="997" y="-53.9" font-family="Arial" font-size="14.00" fill="#000000">deleted_at </text>
<text text-anchor="start" x="1066.2566" y="-53.9" font-family="Arial" font-size="14.00" fill="#666666">[timestamp with time zone]</text>
</g>
<!-- public.contributions -->
<g id="node2" class="node">
<title>public.contributions</title>
<polygon fill="#efefef" stroke="transparent" points="1914,-1354.5 1914,-1389.5 2213,-1389.5 2213,-1354.5 1914,-1354.5"/>
<polygon fill="none" stroke="#000000" points="1914,-1354.5 1914,-1389.5 2213,-1389.5 2213,-1354.5 1914,-1354.5"/>
<text text-anchor="start" x="1937.8574" y="-1367.3" font-family="Arial Bold" font-size="18.00" fill="#000000">public.contributions</text>
<text text-anchor="start" x="2091.8888" y="-1367.3" font-family="Arial" font-size="14.00" fill="#000000"> </text>
<text text-anchor="start" x="2095.7794" y="-1367.3" font-family="Arial" font-size="14.00" fill="#666666">[BASE TABLE]</text>
<polygon fill="none" stroke="#000000" points="1914,-1324.5 1914,-1354.5 2213,-1354.5 2213,-1324.5 1914,-1324.5"/>
<text text-anchor="start" x="1921" y="-1335.9" font-family="Arial" font-size="14.00" fill="#000000">id </text>
<text text-anchor="start" x="1935.7798" y="-1335.9" font-family="Arial" font-size="14.00" fill="#666666">[bigint]</text>
<polygon fill="none" stroke="#000000" points="1914,-1294.5 1914,-1324.5 2213,-1324.5 2213,-1294.5 1914,-1294.5"/>
<text text-anchor="start" x="1921" y="-1305.9" font-family="Arial" font-size="14.00" fill="#000000">repo_id </text>
<text text-anchor="start" x="1971.5708" y="-1305.9" font-family="Arial" font-size="14.00" fill="#666666">[bigint]</text>
<polygon fill="none" stroke="#000000" points="1914,-1264.5 1914,-1294.5 2213,-1294.5 2213,-1264.5 1914,-1264.5"/>
<text text-anchor="start" x="1921" y="-1275.9" font-family="Arial" font-size="14.00" fill="#000000">count </text>
<text text-anchor="start" x="1959.129" y="-1275.9" font-family="Arial" font-size="14.00" fill="#666666">[bigint]</text>
<polygon fill="none" stroke="#000000" points="1914,-1234.5 1914,-1264.5 2213,-1264.5 2213,-1234.5 1914,-1234.5"/>
<text text-anchor="start" x="1920.7497" y="-1245.9" font-family="Arial" font-size="14.00" fill="#000000">last_merged_at </text>
<text text-anchor="start" x="2021.1101" y="-1245.9" font-family="Arial" font-size="14.00" fill="#666666">[timestamp without time zone]</text>
<polygon fill="none" stroke="#000000" points="1914,-1204.5 1914,-1234.5 2213,-1234.5 2213,-1204.5 1914,-1204.5"/>
<text text-anchor="start" x="1921" y="-1215.9" font-family="Arial" font-size="14.00" fill="#000000">contributor </text>
<text text-anchor="start" x="1991.0126" y="-1215.9" font-family="Arial" font-size="14.00" fill="#666666">[varchar(255)]</text>
<polygon fill="none" stroke="#000000" points="1914,-1174.5 1914,-1204.5 2213,-1204.5 2213,-1174.5 1914,-1174.5"/>
<text text-anchor="start" x="1921" y="-1185.9" font-family="Arial" font-size="14.00" fill="#000000">url </text>
<text text-anchor="start" x="1940.4404" y="-1185.9" font-family="Arial" font-size="14.00" fill="#666666">[varchar(255)]</text>
<polygon fill="none" stroke="#000000" points="1914,-1144.5 1914,-1174.5 2213,-1174.5 2213,-1144.5 1914,-1144.5"/>
<text text-anchor="start" x="1921" y="-1155.9" font-family="Arial" font-size="14.00" fill="#000000">deleted_at </text>
<text text-anchor="start" x="1990.2566" y="-1155.9" font-family="Arial" font-size="14.00" fill="#666666">[timestamp with time zone]</text>
<polygon fill="none" stroke="#000000" points="1914,-1114.5 1914,-1144.5 2213,-1144.5 2213,-1114.5 1914,-1114.5"/>
<text text-anchor="start" x="1921" y="-1125.9" font-family="Arial" font-size="14.00" fill="#000000">updated_at </text>
<text text-anchor="start" x="1994.9326" y="-1125.9" font-family="Arial" font-size="14.00" fill="#666666">[timestamp with time zone]</text>
<polygon fill="none" stroke="#000000" points="1914,-1084.5 1914,-1114.5 2213,-1114.5 2213,-1084.5 1914,-1084.5"/>
<text text-anchor="start" x="1921" y="-1095.9" font-family="Arial" font-size="14.00" fill="#000000">created_at </text>
<text text-anchor="start" x="1991.028" y="-1095.9" font-family="Arial" font-size="14.00" fill="#666666">[timestamp with time zone]</text>
</g>
<!-- public.contributions&#45;&gt;public.repos -->
<g id="edge1" class="edge">
<title>public.contributions:repo_id&#45;&gt;public.repos:id</title>
<path fill="none" stroke="#000000" d="M1904.5506,-1305.3056C1851.4486,-1253.9087 1902.7776,-746.5882 1861,-697 1788.0178,-610.3733 1481.2722,-567.5 1368,-567.5"/>
<polygon fill="#000000" stroke="#000000" points="1904.86,-1305.4429 1912.1743,-1313.613 1909.43,-1307.4714 1914,-1309.5 1914,-1309.5 1914,-1309.5 1909.43,-1307.4714 1915.8257,-1305.387 1904.86,-1305.4429 1904.86,-1305.4429"/>
<text text-anchor="start" x="1682.7755" y="-1319.5" font-family="Arial" font-size="10.00" fill="#000000">FOREIGN KEY (repo_id) REFERENCES repos(id)</text>
</g>
<!-- public.users -->
<g id="node3" class="node">
<title>public.users</title>
<polygon fill="#efefef" stroke="transparent" points="596,-447.5 596,-482.5 849,-482.5 849,-447.5 596,-447.5"/>
<polygon fill="none" stroke="#000000" points="596,-447.5 596,-482.5 849,-482.5 849,-447.5 596,-447.5"/>
<text text-anchor="start" x="625.8662" y="-460.3" font-family="Arial Bold" font-size="18.00" fill="#000000">public.users</text>
<text text-anchor="start" x="721.88" y="-460.3" font-family="Arial" font-size="14.00" fill="#000000"> </text>
<text text-anchor="start" x="725.7706" y="-460.3" font-family="Arial" font-size="14.00" fill="#666666">[BASE TABLE]</text>
<polygon fill="none" stroke="#000000" points="596,-417.5 596,-447.5 849,-447.5 849,-417.5 596,-417.5"/>
<text text-anchor="start" x="603" y="-428.9" font-family="Arial" font-size="14.00" fill="#000000">id </text>
<text text-anchor="start" x="617.7798" y="-428.9" font-family="Arial" font-size="14.00" fill="#666666">[bigint]</text>
<polygon fill="none" stroke="#000000" points="596,-387.5 596,-417.5 849,-417.5 849,-387.5 596,-387.5"/>
<text text-anchor="start" x="603" y="-398.9" font-family="Arial" font-size="14.00" fill="#000000">open_issues </text>
<text text-anchor="start" x="685.4754" y="-398.9" font-family="Arial" font-size="14.00" fill="#666666">[bigint]</text>
<polygon fill="none" stroke="#000000" points="596,-357.5 596,-387.5 849,-387.5 849,-357.5 596,-357.5"/>
<text text-anchor="start" x="603" y="-368.9" font-family="Arial" font-size="14.00" fill="#000000">has_stars_data </text>
<text text-anchor="start" x="702.5932" y="-368.9" font-family="Arial" font-size="14.00" fill="#666666">[boolean]</text>
<polygon fill="none" stroke="#000000" points="596,-327.5 596,-357.5 849,-357.5 849,-327.5 596,-327.5"/>
<text text-anchor="start" x="603" y="-338.9" font-family="Arial" font-size="14.00" fill="#000000">is_private </text>
<text text-anchor="start" x="666.7854" y="-338.9" font-family="Arial" font-size="14.00" fill="#666666">[boolean]</text>
<polygon fill="none" stroke="#000000" points="596,-297.5 596,-327.5 849,-327.5 849,-297.5 596,-297.5"/>
<text text-anchor="start" x="603" y="-308.9" font-family="Arial" font-size="14.00" fill="#000000">is_open_sauced_member </text>
<text text-anchor="start" x="767.9354" y="-308.9" font-family="Arial" font-size="14.00" fill="#666666">[boolean]</text>
<polygon fill="none" stroke="#000000" points="596,-267.5 596,-297.5 849,-297.5 849,-267.5 596,-267.5"/>
<text text-anchor="start" x="603" y="-278.9" font-family="Arial" font-size="14.00" fill="#000000">created_at </text>
<text text-anchor="start" x="673.028" y="-278.9" font-family="Arial" font-size="14.00" fill="#666666">[timestamp with time zone]</text>
<polygon fill="none" stroke="#000000" points="596,-237.5 596,-267.5 849,-267.5 849,-237.5 596,-237.5"/>
<text text-anchor="start" x="603" y="-248.9" font-family="Arial" font-size="14.00" fill="#000000">login </text>
<text text-anchor="start" x="636.4516" y="-248.9" font-family="Arial" font-size="14.00" fill="#666666">[varchar(255)]</text>
<polygon fill="none" stroke="#000000" points="596,-207.5 596,-237.5 849,-237.5 849,-207.5 596,-207.5"/>
<text text-anchor="start" x="603" y="-218.9" font-family="Arial" font-size="14.00" fill="#000000">deleted_at </text>
<text text-anchor="start" x="672.2566" y="-218.9" font-family="Arial" font-size="14.00" fill="#666666">[timestamp with time zone]</text>
<polygon fill="none" stroke="#000000" points="596,-177.5 596,-207.5 849,-207.5 849,-177.5 596,-177.5"/>
<text text-anchor="start" x="602.6915" y="-188.9" font-family="Arial" font-size="14.00" fill="#000000">updated_at </text>
<text text-anchor="start" x="676.6241" y="-188.9" font-family="Arial" font-size="14.00" fill="#666666">[timestamp with time zone]</text>
</g>
<!-- public.users_to_repos_stars -->
<g id="node4" class="node">
<title>public.users_to_repos_stars</title>
<polygon fill="#efefef" stroke="transparent" points="1473,-1309.5 1473,-1344.5 1809,-1344.5 1809,-1309.5 1473,-1309.5"/>
<polygon fill="none" stroke="#000000" points="1473,-1309.5 1473,-1344.5 1809,-1344.5 1809,-1309.5 1473,-1309.5"/>
<text text-anchor="start" x="1479.847" y="-1322.3" font-family="Arial Bold" font-size="18.00" fill="#000000">public.users_to_repos_stars</text>
<text text-anchor="start" x="1704.8992" y="-1322.3" font-family="Arial" font-size="14.00" fill="#000000"> </text>
<text text-anchor="start" x="1708.7898" y="-1322.3" font-family="Arial" font-size="14.00" fill="#666666">[BASE TABLE]</text>
<polygon fill="none" stroke="#000000" points="1473,-1279.5 1473,-1309.5 1809,-1309.5 1809,-1279.5 1473,-1279.5"/>
<text text-anchor="start" x="1480" y="-1290.9" font-family="Arial" font-size="14.00" fill="#000000">id </text>
<text text-anchor="start" x="1494.7798" y="-1290.9" font-family="Arial" font-size="14.00" fill="#666666">[bigint]</text>
<polygon fill="none" stroke="#000000" points="1473,-1249.5 1473,-1279.5 1809,-1279.5 1809,-1249.5 1473,-1249.5"/>
<text text-anchor="start" x="1480" y="-1260.9" font-family="Arial" font-size="14.00" fill="#000000">user_id </text>
<text text-anchor="start" x="1529.7882" y="-1260.9" font-family="Arial" font-size="14.00" fill="#666666">[bigint]</text>
<polygon fill="none" stroke="#000000" points="1473,-1219.5 1473,-1249.5 1809,-1249.5 1809,-1219.5 1473,-1219.5"/>
<text text-anchor="start" x="1480" y="-1230.9" font-family="Arial" font-size="14.00" fill="#000000">repo_id </text>
<text text-anchor="start" x="1530.5708" y="-1230.9" font-family="Arial" font-size="14.00" fill="#666666">[bigint]</text>
<polygon fill="none" stroke="#000000" points="1473,-1189.5 1473,-1219.5 1809,-1219.5 1809,-1189.5 1473,-1189.5"/>
<text text-anchor="start" x="1480" y="-1200.9" font-family="Arial" font-size="14.00" fill="#000000">created_at </text>
<text text-anchor="start" x="1550.028" y="-1200.9" font-family="Arial" font-size="14.00" fill="#666666">[timestamp with time zone]</text>
<polygon fill="none" stroke="#000000" points="1473,-1159.5 1473,-1189.5 1809,-1189.5 1809,-1159.5 1473,-1159.5"/>
<text text-anchor="start" x="1480" y="-1170.9" font-family="Arial" font-size="14.00" fill="#000000">updated_at </text>
<text text-anchor="start" x="1553.9326" y="-1170.9" font-family="Arial" font-size="14.00" fill="#666666">[timestamp with time zone]</text>
<polygon fill="none" stroke="#000000" points="1473,-1129.5 1473,-1159.5 1809,-1159.5 1809,-1129.5 1473,-1129.5"/>
<text text-anchor="start" x="1480" y="-1140.9" font-family="Arial" font-size="14.00" fill="#000000">deleted_at </text>
<text text-anchor="start" x="1549.2566" y="-1140.9" font-family="Arial" font-size="14.00" fill="#666666">[timestamp with time zone]</text>
</g>
<!-- public.users_to_repos_stars&#45;&gt;public.repos -->
<g id="edge2" class="edge">
<title>public.users_to_repos_stars:repo_id&#45;&gt;public.repos:id</title>
<path fill="none" stroke="#000000" d="M1463.876,-1230.3473C1415.3396,-1183.3407 1434.6177,-752.0608 1421,-697 1406.0691,-636.6297 1430.1893,-567.5 1368,-567.5"/>
<polygon fill="#000000" stroke="#000000" points="1463.8984,-1230.3574 1471.1358,-1238.5957 1468.4492,-1232.4287 1473,-1234.5 1473,-1234.5 1473,-1234.5 1468.4492,-1232.4287 1474.8642,-1230.4043 1463.8984,-1230.3574 1463.8984,-1230.3574"/>
<text text-anchor="start" x="1241.7755" y="-1244.5" font-family="Arial" font-size="10.00" fill="#000000">FOREIGN KEY (repo_id) REFERENCES repos(id)</text>
</g>
<!-- public.users_to_repos_stars&#45;&gt;public.users -->
<g id="edge3" class="edge">
<title>public.users_to_repos_stars:user_id&#45;&gt;public.users:id</title>
<path fill="none" stroke="#000000" d="M1462.9298,-1263.3679C1355.4984,-1237.698 1508.7471,-783.2698 1421,-697 1344.25,-621.5422 1024.5301,-725.0077 938,-661 850.3798,-596.1859 957.987,-432.5 849,-432.5"/>
<polygon fill="#000000" stroke="#000000" points="1463.0626,-1263.3827 1472.4972,-1268.9718 1468.0313,-1263.9414 1473,-1264.5 1473,-1264.5 1473,-1264.5 1468.0313,-1263.9414 1473.5028,-1260.0282 1463.0626,-1263.3827 1463.0626,-1263.3827"/>
<text text-anchor="start" x="1243.3345" y="-1274.5" font-family="Arial" font-size="10.00" fill="#000000">FOREIGN KEY (user_id) REFERENCES users(id)</text>
</g>
<!-- public.users_to_repos_votes -->
<g id="node5" class="node">
<title>public.users_to_repos_votes</title>
<polygon fill="#efefef" stroke="transparent" points="43,-1309.5 43,-1344.5 383,-1344.5 383,-1309.5 43,-1309.5"/>
<polygon fill="none" stroke="#000000" points="43,-1309.5 43,-1344.5 383,-1344.5 383,-1309.5 43,-1309.5"/>
<text text-anchor="start" x="49.84" y="-1322.3" font-family="Arial Bold" font-size="18.00" fill="#000000">public.users_to_repos_votes</text>
<text text-anchor="start" x="278.9062" y="-1322.3" font-family="Arial" font-size="14.00" fill="#000000"> </text>
<text text-anchor="start" x="282.7968" y="-1322.3" font-family="Arial" font-size="14.00" fill="#666666">[BASE TABLE]</text>
<polygon fill="none" stroke="#000000" points="43,-1279.5 43,-1309.5 383,-1309.5 383,-1279.5 43,-1279.5"/>
<text text-anchor="start" x="50" y="-1290.9" font-family="Arial" font-size="14.00" fill="#000000">id </text>
<text text-anchor="start" x="64.7798" y="-1290.9" font-family="Arial" font-size="14.00" fill="#666666">[bigint]</text>
<polygon fill="none" stroke="#000000" points="43,-1249.5 43,-1279.5 383,-1279.5 383,-1249.5 43,-1249.5"/>
<text text-anchor="start" x="50" y="-1260.9" font-family="Arial" font-size="14.00" fill="#000000">user_id </text>
<text text-anchor="start" x="99.7882" y="-1260.9" font-family="Arial" font-size="14.00" fill="#666666">[bigint]</text>
<polygon fill="none" stroke="#000000" points="43,-1219.5 43,-1249.5 383,-1249.5 383,-1219.5 43,-1219.5"/>
<text text-anchor="start" x="50" y="-1230.9" font-family="Arial" font-size="14.00" fill="#000000">repo_id </text>
<text text-anchor="start" x="100.5708" y="-1230.9" font-family="Arial" font-size="14.00" fill="#666666">[bigint]</text>
<polygon fill="none" stroke="#000000" points="43,-1189.5 43,-1219.5 383,-1219.5 383,-1189.5 43,-1189.5"/>
<text text-anchor="start" x="50" y="-1200.9" font-family="Arial" font-size="14.00" fill="#000000">created_at </text>
<text text-anchor="start" x="120.028" y="-1200.9" font-family="Arial" font-size="14.00" fill="#666666">[timestamp with time zone]</text>
<polygon fill="none" stroke="#000000" points="43,-1159.5 43,-1189.5 383,-1189.5 383,-1159.5 43,-1159.5"/>
<text text-anchor="start" x="50" y="-1170.9" font-family="Arial" font-size="14.00" fill="#000000">updated_at </text>
<text text-anchor="start" x="123.9326" y="-1170.9" font-family="Arial" font-size="14.00" fill="#666666">[timestamp with time zone]</text>
<polygon fill="none" stroke="#000000" points="43,-1129.5 43,-1159.5 383,-1159.5 383,-1129.5 43,-1129.5"/>
<text text-anchor="start" x="50" y="-1140.9" font-family="Arial" font-size="14.00" fill="#000000">deleted_at </text>
<text text-anchor="start" x="119.2566" y="-1140.9" font-family="Arial" font-size="14.00" fill="#666666">[timestamp with time zone]</text>
</g>
<!-- public.users_to_repos_votes&#45;&gt;public.repos -->
<g id="edge4" class="edge">
<title>public.users_to_repos_votes:repo_id&#45;&gt;public.repos:id</title>
<path fill="none" stroke="#000000" d="M393.1604,-1233.2761C493.9174,-1207.3828 351.9293,-778.4926 435,-697 508.9857,-624.4198 806.2676,-705.2268 900,-661 952.1638,-636.387 932.321,-567.5 990,-567.5"/>
<polygon fill="#000000" stroke="#000000" points="392.9282,-1233.3039 382.4618,-1230.0323 387.9641,-1233.902 383,-1234.5 383,-1234.5 383,-1234.5 387.9641,-1233.902 383.5382,-1238.9677 392.9282,-1233.3039 392.9282,-1233.3039"/>
<text text-anchor="start" x="270.7755" y="-1218.5" font-family="Arial" font-size="10.00" fill="#000000">FOREIGN KEY (repo_id) REFERENCES repos(id)</text>
</g>
<!-- public.users_to_repos_votes&#45;&gt;public.users -->
<g id="edge5" class="edge">
<title>public.users_to_repos_votes:user_id&#45;&gt;public.users:id</title>
<path fill="none" stroke="#000000" d="M392.2503,-1260.4071C443.1729,-1212.2314 416.1844,-753.953 435,-697 478.171,-566.3257 458.3791,-432.5 596,-432.5"/>
<polygon fill="#000000" stroke="#000000" points="392.1448,-1260.4537 381.1792,-1260.3848 387.5724,-1262.4768 383,-1264.5 383,-1264.5 383,-1264.5 387.5724,-1262.4768 384.8208,-1268.6152 392.1448,-1260.4537 392.1448,-1260.4537"/>
<text text-anchor="start" x="271.8345" y="-1248.5" font-family="Arial" font-size="10.00" fill="#000000">FOREIGN KEY (user_id) REFERENCES users(id)</text>
</g>
<!-- public.private_access_tokens -->
<g id="node6" class="node">
<title>public.private_access_tokens</title>
<polygon fill="#efefef" stroke="transparent" points="2317,-1309.5 2317,-1344.5 2663,-1344.5 2663,-1309.5 2317,-1309.5"/>
<polygon fill="none" stroke="#000000" points="2317,-1309.5 2317,-1344.5 2663,-1344.5 2663,-1309.5 2317,-1309.5"/>
<text text-anchor="start" x="2323.8421" y="-1322.3" font-family="Arial Bold" font-size="18.00" fill="#000000">public.private_access_tokens</text>
<text text-anchor="start" x="2558.9041" y="-1322.3" font-family="Arial" font-size="14.00" fill="#000000"> </text>
<text text-anchor="start" x="2562.7947" y="-1322.3" font-family="Arial" font-size="14.00" fill="#666666">[BASE TABLE]</text>
<polygon fill="none" stroke="#000000" points="2317,-1279.5 2317,-1309.5 2663,-1309.5 2663,-1279.5 2317,-1279.5"/>
<text text-anchor="start" x="2324" y="-1290.9" font-family="Arial" font-size="14.00" fill="#000000">id </text>
<text text-anchor="start" x="2338.7798" y="-1290.9" font-family="Arial" font-size="14.00" fill="#666666">[bigint]</text>
<polygon fill="none" stroke="#000000" points="2317,-1249.5 2317,-1279.5 2663,-1279.5 2663,-1249.5 2317,-1249.5"/>
<text text-anchor="start" x="2324" y="-1260.9" font-family="Arial" font-size="14.00" fill="#000000">user_id </text>
<text text-anchor="start" x="2373.7882" y="-1260.9" font-family="Arial" font-size="14.00" fill="#666666">[bigint]</text>
<polygon fill="none" stroke="#000000" points="2317,-1219.5 2317,-1249.5 2663,-1249.5 2663,-1219.5 2317,-1219.5"/>
<text text-anchor="start" x="2324" y="-1230.9" font-family="Arial" font-size="14.00" fill="#000000">is_deleted </text>
<text text-anchor="start" x="2391.69" y="-1230.9" font-family="Arial" font-size="14.00" fill="#666666">[boolean]</text>
<polygon fill="none" stroke="#000000" points="2317,-1189.5 2317,-1219.5 2663,-1219.5 2663,-1189.5 2317,-1189.5"/>
<text text-anchor="start" x="2324" y="-1200.9" font-family="Arial" font-size="14.00" fill="#000000">created_at </text>
<text text-anchor="start" x="2394.028" y="-1200.9" font-family="Arial" font-size="14.00" fill="#666666">[timestamp with time zone]</text>
<polygon fill="none" stroke="#000000" points="2317,-1159.5 2317,-1189.5 2663,-1189.5 2663,-1159.5 2317,-1159.5"/>
<text text-anchor="start" x="2324" y="-1170.9" font-family="Arial" font-size="14.00" fill="#000000">expired_at </text>
<text text-anchor="start" x="2393.244" y="-1170.9" font-family="Arial" font-size="14.00" fill="#666666">[timestamp with time zone]</text>
<polygon fill="none" stroke="#000000" points="2317,-1129.5 2317,-1159.5 2663,-1159.5 2663,-1129.5 2317,-1129.5"/>
<text text-anchor="start" x="2324" y="-1140.9" font-family="Arial" font-size="14.00" fill="#000000">token </text>
<text text-anchor="start" x="2362.129" y="-1140.9" font-family="Arial" font-size="14.00" fill="#666666">[varchar]</text>
</g>
<!-- public.users_to_repos_submissions -->
<g id="node7" class="node">
<title>public.users_to_repos_submissions</title>
<polygon fill="#efefef" stroke="transparent" points="487,-1324.5 487,-1359.5 883,-1359.5 883,-1324.5 487,-1324.5"/>
<polygon fill="none" stroke="#000000" points="487,-1324.5 487,-1359.5 883,-1359.5 883,-1324.5 487,-1324.5"/>
<text text-anchor="start" x="493.8446" y="-1337.3" font-family="Arial Bold" font-size="18.00" fill="#000000">public.users_to_repos_submissions</text>
<text text-anchor="start" x="778.9016" y="-1337.3" font-family="Arial" font-size="14.00" fill="#000000"> </text>
<text text-anchor="start" x="782.7922" y="-1337.3" font-family="Arial" font-size="14.00" fill="#666666">[BASE TABLE]</text>
<polygon fill="none" stroke="#000000" points="487,-1294.5 487,-1324.5 883,-1324.5 883,-1294.5 487,-1294.5"/>
<text text-anchor="start" x="494" y="-1305.9" font-family="Arial" font-size="14.00" fill="#000000">id </text>
<text text-anchor="start" x="508.7798" y="-1305.9" font-family="Arial" font-size="14.00" fill="#666666">[bigint]</text>
<polygon fill="none" stroke="#000000" points="487,-1264.5 487,-1294.5 883,-1294.5 883,-1264.5 487,-1264.5"/>
<text text-anchor="start" x="494" y="-1275.9" font-family="Arial" font-size="14.00" fill="#000000">user_id </text>
<text text-anchor="start" x="543.7882" y="-1275.9" font-family="Arial" font-size="14.00" fill="#666666">[bigint]</text>
<polygon fill="none" stroke="#000000" points="487,-1234.5 487,-1264.5 883,-1264.5 883,-1234.5 487,-1234.5"/>
<text text-anchor="start" x="494" y="-1245.9" font-family="Arial" font-size="14.00" fill="#000000">repo_id </text>
<text text-anchor="start" x="544.5708" y="-1245.9" font-family="Arial" font-size="14.00" fill="#666666">[bigint]</text>
<polygon fill="none" stroke="#000000" points="487,-1204.5 487,-1234.5 883,-1234.5 883,-1204.5 487,-1204.5"/>
<text text-anchor="start" x="494" y="-1215.9" font-family="Arial" font-size="14.00" fill="#000000">created_at </text>
<text text-anchor="start" x="564.028" y="-1215.9" font-family="Arial" font-size="14.00" fill="#666666">[timestamp with time zone]</text>
<polygon fill="none" stroke="#000000" points="487,-1174.5 487,-1204.5 883,-1204.5 883,-1174.5 487,-1174.5"/>
<text text-anchor="start" x="494" y="-1185.9" font-family="Arial" font-size="14.00" fill="#000000">updated_at </text>
<text text-anchor="start" x="567.9326" y="-1185.9" font-family="Arial" font-size="14.00" fill="#666666">[timestamp with time zone]</text>
<polygon fill="none" stroke="#000000" points="487,-1144.5 487,-1174.5 883,-1174.5 883,-1144.5 487,-1144.5"/>
<text text-anchor="start" x="494" y="-1155.9" font-family="Arial" font-size="14.00" fill="#000000">deleted_at </text>
<text text-anchor="start" x="563.2566" y="-1155.9" font-family="Arial" font-size="14.00" fill="#666666">[timestamp with time zone]</text>
<polygon fill="none" stroke="#000000" points="487,-1114.5 487,-1144.5 883,-1144.5 883,-1114.5 487,-1114.5"/>
<text text-anchor="start" x="494" y="-1125.9" font-family="Arial" font-size="14.00" fill="#000000">is_accepted </text>
<text text-anchor="start" x="572.5834" y="-1125.9" font-family="Arial" font-size="14.00" fill="#666666">[boolean]</text>
</g>
<!-- public.users_to_repos_submissions&#45;&gt;public.repos -->
<g id="edge6" class="edge">
<title>public.users_to_repos_submissions:repo_id&#45;&gt;public.repos:id</title>
<path fill="none" stroke="#000000" d="M892.3612,-1245.2306C942.0692,-1196.9033 920.7073,-753.5086 935,-697 950.3331,-636.3777 927.4686,-567.5 990,-567.5"/>
<polygon fill="#000000" stroke="#000000" points="892.0984,-1245.3504 881.1327,-1245.4057 887.5492,-1247.4252 883,-1249.5 883,-1249.5 883,-1249.5 887.5492,-1247.4252 884.8673,-1253.5943 892.0984,-1245.3504 892.0984,-1245.3504"/>
<text text-anchor="start" x="889.7755" y="-1259.5" font-family="Arial" font-size="10.00" fill="#000000">FOREIGN KEY (repo_id) REFERENCES repos(id)</text>
</g>
<!-- public.users_to_repos_submissions&#45;&gt;public.users -->
<g id="edge7" class="edge">
<title>public.users_to_repos_submissions:user_id&#45;&gt;public.users:id</title>
<path fill="none" stroke="#000000" d="M893.0767,-1278.9687C969.8171,-1270.3274 904.2351,-1158.038 883,-1072 808.3504,-769.5432 284.4672,-432.5 596,-432.5"/>
<polygon fill="#000000" stroke="#000000" points="892.9861,-1278.9734 882.763,-1275.0062 887.9931,-1279.2367 883,-1279.5 883,-1279.5 883,-1279.5 887.9931,-1279.2367 883.237,-1283.9938 892.9861,-1278.9734 892.9861,-1278.9734"/>
<text text-anchor="start" x="890.3345" y="-1289.5" font-family="Arial" font-size="10.00" fill="#000000">FOREIGN KEY (user_id) REFERENCES users(id)</text>
</g>
<!-- public.users_to_repos_stargazers -->
<g id="node8" class="node">
<title>public.users_to_repos_stargazers</title>
<polygon fill="#efefef" stroke="transparent" points="988,-1309.5 988,-1344.5 1369,-1344.5 1369,-1309.5 988,-1309.5"/>
<polygon fill="none" stroke="#000000" points="988,-1309.5 988,-1344.5 1369,-1344.5 1369,-1309.5 988,-1309.5"/>
<text text-anchor="start" x="994.8416" y="-1322.3" font-family="Arial Bold" font-size="18.00" fill="#000000">public.users_to_repos_stargazers</text>
<text text-anchor="start" x="1264.9046" y="-1322.3" font-family="Arial" font-size="14.00" fill="#000000"> </text>
<text text-anchor="start" x="1268.7952" y="-1322.3" font-family="Arial" font-size="14.00" fill="#666666">[BASE TABLE]</text>
<polygon fill="none" stroke="#000000" points="988,-1279.5 988,-1309.5 1369,-1309.5 1369,-1279.5 988,-1279.5"/>
<text text-anchor="start" x="995" y="-1290.9" font-family="Arial" font-size="14.00" fill="#000000">id </text>
<text text-anchor="start" x="1009.7798" y="-1290.9" font-family="Arial" font-size="14.00" fill="#666666">[bigint]</text>
<polygon fill="none" stroke="#000000" points="988,-1249.5 988,-1279.5 1369,-1279.5 1369,-1249.5 988,-1249.5"/>
<text text-anchor="start" x="995" y="-1260.9" font-family="Arial" font-size="14.00" fill="#000000">user_id </text>
<text text-anchor="start" x="1044.7882" y="-1260.9" font-family="Arial" font-size="14.00" fill="#666666">[bigint]</text>
<polygon fill="none" stroke="#000000" points="988,-1219.5 988,-1249.5 1369,-1249.5 1369,-1219.5 988,-1219.5"/>
<text text-anchor="start" x="995" y="-1230.9" font-family="Arial" font-size="14.00" fill="#000000">repo_id </text>
<text text-anchor="start" x="1045.5708" y="-1230.9" font-family="Arial" font-size="14.00" fill="#666666">[bigint]</text>
<polygon fill="none" stroke="#000000" points="988,-1189.5 988,-1219.5 1369,-1219.5 1369,-1189.5 988,-1189.5"/>
<text text-anchor="start" x="995" y="-1200.9" font-family="Arial" font-size="14.00" fill="#000000">created_at </text>
<text text-anchor="start" x="1065.028" y="-1200.9" font-family="Arial" font-size="14.00" fill="#666666">[timestamp without time zone]</text>
<polygon fill="none" stroke="#000000" points="988,-1159.5 988,-1189.5 1369,-1189.5 1369,-1159.5 988,-1159.5"/>
<text text-anchor="start" x="995" y="-1170.9" font-family="Arial" font-size="14.00" fill="#000000">updated_at </text>
<text text-anchor="start" x="1068.9326" y="-1170.9" font-family="Arial" font-size="14.00" fill="#666666">[timestamp without time zone]</text>
<polygon fill="none" stroke="#000000" points="988,-1129.5 988,-1159.5 1369,-1159.5 1369,-1129.5 988,-1129.5"/>
<text text-anchor="start" x="995" y="-1140.9" font-family="Arial" font-size="14.00" fill="#000000">deleted_at </text>
<text text-anchor="start" x="1064.2566" y="-1140.9" font-family="Arial" font-size="14.00" fill="#666666">[timestamp without time zone]</text>
</g>
<!-- public.users_to_repos_stargazers&#45;&gt;public.repos -->
<g id="edge8" class="edge">
<title>public.users_to_repos_stargazers:repo_id&#45;&gt;public.repos:id</title>
<path fill="none" stroke="#000000" d="M1379.1248,-1233.6903C1429.8307,-1224.812 1390.9902,-1144.8007 1369,-1087 1267.3729,-819.8762 704.1973,-567.5 990,-567.5"/>
<polygon fill="#000000" stroke="#000000" points="1378.9682,-1233.7027 1368.6412,-1230.0143 1373.9841,-1234.1014 1369,-1234.5 1369,-1234.5 1369,-1234.5 1373.9841,-1234.1014 1369.3588,-1238.9857 1378.9682,-1233.7027 1378.9682,-1233.7027"/>
<text text-anchor="start" x="1256.7755" y="-1218.5" font-family="Arial" font-size="10.00" fill="#000000">FOREIGN KEY (repo_id) REFERENCES repos(id)</text>
</g>
<!-- public.users_to_repos_stargazers&#45;&gt;public.users -->
<g id="edge9" class="edge">
<title>public.users_to_repos_stargazers:user_id&#45;&gt;public.users:id</title>
<path fill="none" stroke="#000000" d="M978.6845,-1260.4221C927.011,-1212.4209 947.1381,-755.7495 935,-697 909.9888,-575.9435 972.6133,-432.5 849,-432.5"/>
<polygon fill="#000000" stroke="#000000" points="978.8393,-1260.4898 986.1954,-1268.6223 983.4196,-1262.4949 988,-1264.5 988,-1264.5 988,-1264.5 983.4196,-1262.4949 989.8046,-1260.3777 978.8393,-1260.4898 978.8393,-1260.4898"/>
<text text-anchor="start" x="817.5845" y="-1248.5" font-family="Arial" font-size="10.00" fill="#000000">FOREIGN KEY (user_id) REFERENCES users(id)</text>
</g>
<!-- public.auth_users -->
<g id="node9" class="node">
<title>public.auth_users</title>
<polygon fill="#efefef" stroke="transparent" points="2767,-1699.5 2767,-1734.5 3103,-1734.5 3103,-1699.5 2767,-1699.5"/>
<polygon fill="none" stroke="#000000" points="2767,-1699.5 2767,-1734.5 3103,-1734.5 3103,-1699.5 2767,-1699.5"/>
<text text-anchor="start" x="2840.7545" y="-1712.3" font-family="Arial Bold" font-size="18.00" fill="#000000">public.auth_users</text>
<text text-anchor="start" x="2981.7953" y="-1712.3" font-family="Arial" font-size="14.00" fill="#000000"> </text>
<text text-anchor="start" x="2985.6859" y="-1712.3" font-family="Arial" font-size="14.00" fill="#666666">[VIEW]</text>
<polygon fill="none" stroke="#000000" points="2767,-1669.5 2767,-1699.5 3103,-1699.5 3103,-1669.5 2767,-1669.5"/>
<text text-anchor="start" x="2774" y="-1680.9" font-family="Arial" font-size="14.00" fill="#000000">instance_id </text>
<text text-anchor="start" x="2848.69" y="-1680.9" font-family="Arial" font-size="14.00" fill="#666666">[uuid]</text>
<polygon fill="none" stroke="#000000" points="2767,-1639.5 2767,-1669.5 3103,-1669.5 3103,-1639.5 2767,-1639.5"/>
<text text-anchor="start" x="2774" y="-1650.9" font-family="Arial" font-size="14.00" fill="#000000">id </text>
<text text-anchor="start" x="2788.7798" y="-1650.9" font-family="Arial" font-size="14.00" fill="#666666">[uuid]</text>
<polygon fill="none" stroke="#000000" points="2767,-1609.5 2767,-1639.5 3103,-1639.5 3103,-1609.5 2767,-1609.5"/>
<text text-anchor="start" x="2774" y="-1620.9" font-family="Arial" font-size="14.00" fill="#000000">aud </text>
<text text-anchor="start" x="2801.2384" y="-1620.9" font-family="Arial" font-size="14.00" fill="#666666">[varchar(255)]</text>
<polygon fill="none" stroke="#000000" points="2767,-1579.5 2767,-1609.5 3103,-1609.5 3103,-1579.5 2767,-1579.5"/>
<text text-anchor="start" x="2774" y="-1590.9" font-family="Arial" font-size="14.00" fill="#000000">role </text>
<text text-anchor="start" x="2801.223" y="-1590.9" font-family="Arial" font-size="14.00" fill="#666666">[varchar(255)]</text>
<polygon fill="none" stroke="#000000" points="2767,-1549.5 2767,-1579.5 3103,-1579.5 3103,-1549.5 2767,-1549.5"/>
<text text-anchor="start" x="2774" y="-1560.9" font-family="Arial" font-size="14.00" fill="#000000">email </text>
<text text-anchor="start" x="2811.3296" y="-1560.9" font-family="Arial" font-size="14.00" fill="#666666">[varchar(255)]</text>
<polygon fill="none" stroke="#000000" points="2767,-1519.5 2767,-1549.5 3103,-1549.5 3103,-1519.5 2767,-1519.5"/>
<text text-anchor="start" x="2774" y="-1530.9" font-family="Arial" font-size="14.00" fill="#000000">encrypted_password </text>
<text text-anchor="start" x="2907.035" y="-1530.9" font-family="Arial" font-size="14.00" fill="#666666">[varchar(255)]</text>
<polygon fill="none" stroke="#000000" points="2767,-1489.5 2767,-1519.5 3103,-1519.5 3103,-1489.5 2767,-1489.5"/>
<text text-anchor="start" x="2774" y="-1500.9" font-family="Arial" font-size="14.00" fill="#000000">email_confirmed_at </text>
<text text-anchor="start" x="2900.0168" y="-1500.9" font-family="Arial" font-size="14.00" fill="#666666">[timestamp with time zone]</text>
<polygon fill="none" stroke="#000000" points="2767,-1459.5 2767,-1489.5 3103,-1489.5 3103,-1459.5 2767,-1459.5"/>
<text text-anchor="start" x="2774" y="-1470.9" font-family="Arial" font-size="14.00" fill="#000000">invited_at </text>
<text text-anchor="start" x="2837.798" y="-1470.9" font-family="Arial" font-size="14.00" fill="#666666">[timestamp with time zone]</text>
<polygon fill="none" stroke="#000000" points="2767,-1429.5 2767,-1459.5 3103,-1459.5 3103,-1429.5 2767,-1429.5"/>
<text text-anchor="start" x="2774" y="-1440.9" font-family="Arial" font-size="14.00" fill="#000000">confirmation_token </text>
<text text-anchor="start" x="2896.1402" y="-1440.9" font-family="Arial" font-size="14.00" fill="#666666">[varchar(255)]</text>
<polygon fill="none" stroke="#000000" points="2767,-1399.5 2767,-1429.5 3103,-1429.5 3103,-1399.5 2767,-1399.5"/>
<text text-anchor="start" x="2774" y="-1410.9" font-family="Arial" font-size="14.00" fill="#000000">confirmation_sent_at </text>
<text text-anchor="start" x="2907.8134" y="-1410.9" font-family="Arial" font-size="14.00" fill="#666666">[timestamp with time zone]</text>
<polygon fill="none" stroke="#000000" points="2767,-1369.5 2767,-1399.5 3103,-1399.5 3103,-1369.5 2767,-1369.5"/>
<text text-anchor="start" x="2774" y="-1380.9" font-family="Arial" font-size="14.00" fill="#000000">recovery_token </text>
<text text-anchor="start" x="2873.5806" y="-1380.9" font-family="Arial" font-size="14.00" fill="#666666">[varchar(255)]</text>
<polygon fill="none" stroke="#000000" points="2767,-1339.5 2767,-1369.5 3103,-1369.5 3103,-1339.5 2767,-1339.5"/>
<text text-anchor="start" x="2774" y="-1350.9" font-family="Arial" font-size="14.00" fill="#000000">recovery_sent_at </text>
<text text-anchor="start" x="2885.2538" y="-1350.9" font-family="Arial" font-size="14.00" fill="#666666">[timestamp with time zone]</text>
<polygon fill="none" stroke="#000000" points="2767,-1309.5 2767,-1339.5 3103,-1339.5 3103,-1309.5 2767,-1309.5"/>
<text text-anchor="start" x="2774" y="-1320.9" font-family="Arial" font-size="14.00" fill="#000000">email_change_token_new </text>
<text text-anchor="start" x="2940.5006" y="-1320.9" font-family="Arial" font-size="14.00" fill="#666666">[varchar(255)]</text>
<polygon fill="none" stroke="#000000" points="2767,-1279.5 2767,-1309.5 3103,-1309.5 3103,-1279.5 2767,-1279.5"/>
<text text-anchor="start" x="2774" y="-1290.9" font-family="Arial" font-size="14.00" fill="#000000">email_change </text>
<text text-anchor="start" x="2865.0252" y="-1290.9" font-family="Arial" font-size="14.00" fill="#666666">[varchar(255)]</text>
<polygon fill="none" stroke="#000000" points="2767,-1249.5 2767,-1279.5 3103,-1279.5 3103,-1249.5 2767,-1249.5"/>
<text text-anchor="start" x="2774" y="-1260.9" font-family="Arial" font-size="14.00" fill="#000000">email_change_sent_at </text>
<text text-anchor="start" x="2918.7194" y="-1260.9" font-family="Arial" font-size="14.00" fill="#666666">[timestamp with time zone]</text>
<polygon fill="none" stroke="#000000" points="2767,-1219.5 2767,-1249.5 3103,-1249.5 3103,-1219.5 2767,-1219.5"/>
<text text-anchor="start" x="2774" y="-1230.9" font-family="Arial" font-size="14.00" fill="#000000">last_sign_in_at </text>
<text text-anchor="start" x="2871.2524" y="-1230.9" font-family="Arial" font-size="14.00" fill="#666666">[timestamp with time zone]</text>
<polygon fill="none" stroke="#000000" points="2767,-1189.5 2767,-1219.5 3103,-1219.5 3103,-1189.5 2767,-1189.5"/>
<text text-anchor="start" x="2774" y="-1200.9" font-family="Arial" font-size="14.00" fill="#000000">raw_app_meta_data </text>
<text text-anchor="start" x="2905.4908" y="-1200.9" font-family="Arial" font-size="14.00" fill="#666666">[jsonb]</text>
<polygon fill="none" stroke="#000000" points="2767,-1159.5 2767,-1189.5 3103,-1189.5 3103,-1159.5 2767,-1159.5"/>
<text text-anchor="start" x="2774" y="-1170.9" font-family="Arial" font-size="14.00" fill="#000000">raw_user_meta_data </text>
<text text-anchor="start" x="2909.3688" y="-1170.9" font-family="Arial" font-size="14.00" fill="#666666">[jsonb]</text>
<polygon fill="none" stroke="#000000" points="2767,-1129.5 2767,-1159.5 3103,-1159.5 3103,-1129.5 2767,-1129.5"/>
<text text-anchor="start" x="2774" y="-1140.9" font-family="Arial" font-size="14.00" fill="#000000">is_super_admin </text>
<text text-anchor="start" x="2876.6858" y="-1140.9" font-family="Arial" font-size="14.00" fill="#666666">[boolean]</text>
<polygon fill="none" stroke="#000000" points="2767,-1099.5 2767,-1129.5 3103,-1129.5 3103,-1099.5 2767,-1099.5"/>
<text text-anchor="start" x="2774" y="-1110.9" font-family="Arial" font-size="14.00" fill="#000000">created_at </text>
<text text-anchor="start" x="2844.028" y="-1110.9" font-family="Arial" font-size="14.00" fill="#666666">[timestamp with time zone]</text>
<polygon fill="none" stroke="#000000" points="2767,-1069.5 2767,-1099.5 3103,-1099.5 3103,-1069.5 2767,-1069.5"/>
<text text-anchor="start" x="2774" y="-1080.9" font-family="Arial" font-size="14.00" fill="#000000">updated_at </text>
<text text-anchor="start" x="2847.9326" y="-1080.9" font-family="Arial" font-size="14.00" fill="#666666">[timestamp with time zone]</text>
<polygon fill="none" stroke="#000000" points="2767,-1039.5 2767,-1069.5 3103,-1069.5 3103,-1039.5 2767,-1039.5"/>
<text text-anchor="start" x="2774" y="-1050.9" font-family="Arial" font-size="14.00" fill="#000000">phone </text>
<text text-anchor="start" x="2816.8036" y="-1050.9" font-family="Arial" font-size="14.00" fill="#666666">[varchar(15)]</text>
<polygon fill="none" stroke="#000000" points="2767,-1009.5 2767,-1039.5 3103,-1039.5 3103,-1009.5 2767,-1009.5"/>
<text text-anchor="start" x="2774" y="-1020.9" font-family="Arial" font-size="14.00" fill="#000000">phone_confirmed_at </text>
<text text-anchor="start" x="2905.4908" y="-1020.9" font-family="Arial" font-size="14.00" fill="#666666">[timestamp with time zone]</text>
<polygon fill="none" stroke="#000000" points="2767,-979.5 2767,-1009.5 3103,-1009.5 3103,-979.5 2767,-979.5"/>
<text text-anchor="start" x="2774" y="-990.9" font-family="Arial" font-size="14.00" fill="#000000">phone_change </text>
<text text-anchor="start" x="2870.4992" y="-990.9" font-family="Arial" font-size="14.00" fill="#666666">[varchar(15)]</text>
<polygon fill="none" stroke="#000000" points="2767,-949.5 2767,-979.5 3103,-979.5 3103,-949.5 2767,-949.5"/>
<text text-anchor="start" x="2774" y="-960.9" font-family="Arial" font-size="14.00" fill="#000000">phone_change_token </text>
<text text-anchor="start" x="2912.5202" y="-960.9" font-family="Arial" font-size="14.00" fill="#666666">[varchar(255)]</text>
<polygon fill="none" stroke="#000000" points="2767,-919.5 2767,-949.5 3103,-949.5 3103,-919.5 2767,-919.5"/>
<text text-anchor="start" x="2774" y="-930.9" font-family="Arial" font-size="14.00" fill="#000000">phone_change_sent_at </text>
<text text-anchor="start" x="2924.1934" y="-930.9" font-family="Arial" font-size="14.00" fill="#666666">[timestamp with time zone]</text>
<polygon fill="none" stroke="#000000" points="2767,-889.5 2767,-919.5 3103,-919.5 3103,-889.5 2767,-889.5"/>
<text text-anchor="start" x="2774" y="-900.9" font-family="Arial" font-size="14.00" fill="#000000">confirmed_at </text>
<text text-anchor="start" x="2858.7952" y="-900.9" font-family="Arial" font-size="14.00" fill="#666666">[timestamp with time zone]</text>
<polygon fill="none" stroke="#000000" points="2767,-859.5 2767,-889.5 3103,-889.5 3103,-859.5 2767,-859.5"/>
<text text-anchor="start" x="2774" y="-870.9" font-family="Arial" font-size="14.00" fill="#000000">email_change_token_current </text>
<text text-anchor="start" x="2958.3884" y="-870.9" font-family="Arial" font-size="14.00" fill="#666666">[varchar(255)]</text>
<polygon fill="none" stroke="#000000" points="2767,-829.5 2767,-859.5 3103,-859.5 3103,-829.5 2767,-829.5"/>
<text text-anchor="start" x="2774" y="-840.9" font-family="Arial" font-size="14.00" fill="#000000">email_change_confirm_status </text>
<text text-anchor="start" x="2963.8204" y="-840.9" font-family="Arial" font-size="14.00" fill="#666666">[smallint]</text>
<polygon fill="none" stroke="#000000" points="2767,-799.5 2767,-829.5 3103,-829.5 3103,-799.5 2767,-799.5"/>
<text text-anchor="start" x="2774" y="-810.9" font-family="Arial" font-size="14.00" fill="#000000">banned_until </text>
<text text-anchor="start" x="2858.0378" y="-810.9" font-family="Arial" font-size="14.00" fill="#666666">[timestamp with time zone]</text>
<polygon fill="none" stroke="#000000" points="2767,-769.5 2767,-799.5 3103,-799.5 3103,-769.5 2767,-769.5"/>
<text text-anchor="start" x="2774" y="-780.9" font-family="Arial" font-size="14.00" fill="#000000">reauthentication_token </text>
<text text-anchor="start" x="2919.5006" y="-780.9" font-family="Arial" font-size="14.00" fill="#666666">[varchar(255)]</text>
<polygon fill="none" stroke="#000000" points="2767,-739.5 2767,-769.5 3103,-769.5 3103,-739.5 2767,-739.5"/>
<text text-anchor="start" x="2773.5709" y="-750.9" font-family="Arial" font-size="14.00" fill="#000000">reauthentication_sent_at </text>
<text text-anchor="start" x="2930.7447" y="-750.9" font-family="Arial" font-size="14.00" fill="#666666">[timestamp with time zone]</text>
</g>
</g>
</svg>
