<?xml version="1.0" encoding="UTF-8" standalone="no"?>
<!DOCTYPE svg PUBLIC "-//W3C//DTD SVG 1.1//EN"
 "http://www.w3.org/Graphics/SVG/1.1/DTD/svg11.dtd">
<!-- Generated by graphviz version 2.40.1 (20161225.0304)
 -->
<!-- Title: hot.opensauced.pizza supabase Pages: 1 -->
<svg width="1278pt" height="976pt"
 viewBox="0.00 0.00 1277.50 976.00" xmlns="http://www.w3.org/2000/svg" xmlns:xlink="http://www.w3.org/1999/xlink">
<g id="graph0" class="graph" transform="scale(1 1) rotate(0) translate(4 972)">
<title>hot.opensauced.pizza supabase</title>
<polygon fill="#ffffff" stroke="transparent" points="-4,4 -4,-972 1273.5,-972 1273.5,4 -4,4"/>
<!-- public.repos -->
<g id="node1" class="node">
<title>public.repos</title>
<polygon fill="#efefef" stroke="transparent" points="427.5,-552.5 427.5,-587.5 805.5,-587.5 805.5,-552.5 427.5,-552.5"/>
<polygon fill="none" stroke="#000000" points="427.5,-552.5 427.5,-587.5 805.5,-587.5 805.5,-552.5 427.5,-552.5"/>
<text text-anchor="start" x="519.3631" y="-565.3" font-family="Arial Bold" font-size="18.00" fill="#000000">public.repos</text>
<text text-anchor="start" x="616.3831" y="-565.3" font-family="Arial" font-size="14.00" fill="#000000"> </text>
<text text-anchor="start" x="620.2737" y="-565.3" font-family="Arial" font-size="14.00" fill="#666666">[BASE TABLE]</text>
<polygon fill="none" stroke="#000000" points="427.5,-522.5 427.5,-552.5 805.5,-552.5 805.5,-522.5 427.5,-522.5"/>
<text text-anchor="start" x="434.5" y="-533.9" font-family="Arial" font-size="14.00" fill="#000000">id </text>
<text text-anchor="start" x="449.2798" y="-533.9" font-family="Arial" font-size="14.00" fill="#666666">[bigint]</text>
<polygon fill="none" stroke="#000000" points="427.5,-492.5 427.5,-522.5 805.5,-522.5 805.5,-492.5 427.5,-492.5"/>
<text text-anchor="start" x="434.5" y="-503.9" font-family="Arial" font-size="14.00" fill="#000000">user_id </text>
<text text-anchor="start" x="484.2882" y="-503.9" font-family="Arial" font-size="14.00" fill="#666666">[bigint]</text>
<polygon fill="none" stroke="#000000" points="427.5,-462.5 427.5,-492.5 805.5,-492.5 805.5,-462.5 427.5,-462.5"/>
<text text-anchor="start" x="434.5" y="-473.9" font-family="Arial" font-size="14.00" fill="#000000">issues </text>
<text text-anchor="start" x="478.0624" y="-473.9" font-family="Arial" font-size="14.00" fill="#666666">[bigint]</text>
<polygon fill="none" stroke="#000000" points="427.5,-432.5 427.5,-462.5 805.5,-462.5 805.5,-432.5 427.5,-432.5"/>
<text text-anchor="start" x="434.5" y="-443.9" font-family="Arial" font-size="14.00" fill="#000000">stars </text>
<text text-anchor="start" x="468.7244" y="-443.9" font-family="Arial" font-size="14.00" fill="#666666">[bigint]</text>
<polygon fill="none" stroke="#000000" points="427.5,-402.5 427.5,-432.5 805.5,-432.5 805.5,-402.5 427.5,-402.5"/>
<text text-anchor="start" x="434.5" y="-413.9" font-family="Arial" font-size="14.00" fill="#000000">watchers </text>
<text text-anchor="start" x="494.3962" y="-413.9" font-family="Arial" font-size="14.00" fill="#666666">[bigint]</text>
<polygon fill="none" stroke="#000000" points="427.5,-372.5 427.5,-402.5 805.5,-402.5 805.5,-372.5 427.5,-372.5"/>
<text text-anchor="start" x="434.5" y="-383.9" font-family="Arial" font-size="14.00" fill="#000000">subscribers </text>
<text text-anchor="start" x="509.9488" y="-383.9" font-family="Arial" font-size="14.00" fill="#666666">[bigint]</text>
<polygon fill="none" stroke="#000000" points="427.5,-342.5 427.5,-372.5 805.5,-372.5 805.5,-342.5 427.5,-342.5"/>
<text text-anchor="start" x="434.5" y="-353.9" font-family="Arial" font-size="14.00" fill="#000000">is_fork </text>
<text text-anchor="start" x="479.6136" y="-353.9" font-family="Arial" font-size="14.00" fill="#666666">[boolean]</text>
<polygon fill="none" stroke="#000000" points="427.5,-312.5 427.5,-342.5 805.5,-342.5 805.5,-312.5 427.5,-312.5"/>
<text text-anchor="start" x="434.5" y="-323.9" font-family="Arial" font-size="14.00" fill="#000000">created_at </text>
<text text-anchor="start" x="504.528" y="-323.9" font-family="Arial" font-size="14.00" fill="#666666">[timestamp without time zone]</text>
<polygon fill="none" stroke="#000000" points="427.5,-282.5 427.5,-312.5 805.5,-312.5 805.5,-282.5 427.5,-282.5"/>
<text text-anchor="start" x="434.5" y="-293.9" font-family="Arial" font-size="14.00" fill="#000000">updated_at </text>
<text text-anchor="start" x="508.4326" y="-293.9" font-family="Arial" font-size="14.00" fill="#666666">[timestamp without time zone]</text>
<polygon fill="none" stroke="#000000" points="427.5,-252.5 427.5,-282.5 805.5,-282.5 805.5,-252.5 427.5,-252.5"/>
<text text-anchor="start" x="434.5" y="-263.9" font-family="Arial" font-size="14.00" fill="#000000">pushed_at </text>
<text text-anchor="start" x="503.7594" y="-263.9" font-family="Arial" font-size="14.00" fill="#666666">[timestamp without time zone]</text>
<polygon fill="none" stroke="#000000" points="427.5,-222.5 427.5,-252.5 805.5,-252.5 805.5,-222.5 427.5,-222.5"/>
<text text-anchor="start" x="434.0674" y="-233.9" font-family="Arial" font-size="14.00" fill="#000000">last_fetched_contributors_at </text>
<text text-anchor="start" x="613.7924" y="-233.9" font-family="Arial" font-size="14.00" fill="#666666">[timestamp without time zone]</text>
<polygon fill="none" stroke="#000000" points="427.5,-192.5 427.5,-222.5 805.5,-222.5 805.5,-192.5 427.5,-192.5"/>
<text text-anchor="start" x="434.5" y="-203.9" font-family="Arial" font-size="14.00" fill="#000000">name </text>
<text text-anchor="start" x="473.399" y="-203.9" font-family="Arial" font-size="14.00" fill="#666666">[varchar(255)]</text>
<polygon fill="none" stroke="#000000" points="427.5,-162.5 427.5,-192.5 805.5,-192.5 805.5,-162.5 427.5,-162.5"/>
<text text-anchor="start" x="434.5" y="-173.9" font-family="Arial" font-size="14.00" fill="#000000">full_name </text>
<text text-anchor="start" x="499.068" y="-173.9" font-family="Arial" font-size="14.00" fill="#666666">[varchar(255)]</text>
<polygon fill="none" stroke="#000000" points="427.5,-132.5 427.5,-162.5 805.5,-162.5 805.5,-132.5 427.5,-132.5"/>
<text text-anchor="start" x="434.5" y="-143.9" font-family="Arial" font-size="14.00" fill="#000000">description </text>
<text text-anchor="start" x="506.068" y="-143.9" font-family="Arial" font-size="14.00" fill="#666666">[text]</text>
<polygon fill="none" stroke="#000000" points="427.5,-102.5 427.5,-132.5 805.5,-132.5 805.5,-102.5 427.5,-102.5"/>
<text text-anchor="start" x="434.5" y="-113.9" font-family="Arial" font-size="14.00" fill="#000000">language </text>
<text text-anchor="start" x="495.9754" y="-113.9" font-family="Arial" font-size="14.00" fill="#666666">[varchar(64)]</text>
<polygon fill="none" stroke="#000000" points="427.5,-72.5 427.5,-102.5 805.5,-102.5 805.5,-72.5 427.5,-72.5"/>
<text text-anchor="start" x="434.5" y="-83.9" font-family="Arial" font-size="14.00" fill="#000000">license </text>
<text text-anchor="start" x="481.9516" y="-83.9" font-family="Arial" font-size="14.00" fill="#666666">[varchar(64)]</text>
<polygon fill="none" stroke="#000000" points="427.5,-42.5 427.5,-72.5 805.5,-72.5 805.5,-42.5 427.5,-42.5"/>
<text text-anchor="start" x="434.5" y="-53.9" font-family="Arial" font-size="14.00" fill="#000000">url </text>
<text text-anchor="start" x="453.9404" y="-53.9" font-family="Arial" font-size="14.00" fill="#666666">[varchar(255)]</text>
</g>
<!-- public.contributions -->
<g id="node2" class="node">
<title>public.contributions</title>
<polygon fill="#efefef" stroke="transparent" points="43.5,-889.5 43.5,-924.5 342.5,-924.5 342.5,-889.5 43.5,-889.5"/>
<polygon fill="none" stroke="#000000" points="43.5,-889.5 43.5,-924.5 342.5,-924.5 342.5,-889.5 43.5,-889.5"/>
<text text-anchor="start" x="67.3574" y="-902.3" font-family="Arial Bold" font-size="18.00" fill="#000000">public.contributions</text>
<text text-anchor="start" x="221.3888" y="-902.3" font-family="Arial" font-size="14.00" fill="#000000"> </text>
<text text-anchor="start" x="225.2794" y="-902.3" font-family="Arial" font-size="14.00" fill="#666666">[BASE TABLE]</text>
<polygon fill="none" stroke="#000000" points="43.5,-859.5 43.5,-889.5 342.5,-889.5 342.5,-859.5 43.5,-859.5"/>
<text text-anchor="start" x="50.5" y="-870.9" font-family="Arial" font-size="14.00" fill="#000000">id </text>
<text text-anchor="start" x="65.2798" y="-870.9" font-family="Arial" font-size="14.00" fill="#666666">[bigint]</text>
<polygon fill="none" stroke="#000000" points="43.5,-829.5 43.5,-859.5 342.5,-859.5 342.5,-829.5 43.5,-829.5"/>
<text text-anchor="start" x="50.5" y="-840.9" font-family="Arial" font-size="14.00" fill="#000000">repo_id </text>
<text text-anchor="start" x="101.0708" y="-840.9" font-family="Arial" font-size="14.00" fill="#666666">[bigint]</text>
<polygon fill="none" stroke="#000000" points="43.5,-799.5 43.5,-829.5 342.5,-829.5 342.5,-799.5 43.5,-799.5"/>
<text text-anchor="start" x="50.5" y="-810.9" font-family="Arial" font-size="14.00" fill="#000000">count </text>
<text text-anchor="start" x="88.629" y="-810.9" font-family="Arial" font-size="14.00" fill="#666666">[bigint]</text>
<polygon fill="none" stroke="#000000" points="43.5,-769.5 43.5,-799.5 342.5,-799.5 342.5,-769.5 43.5,-769.5"/>
<text text-anchor="start" x="50.2497" y="-780.9" font-family="Arial" font-size="14.00" fill="#000000">last_merged_at </text>
<text text-anchor="start" x="150.6101" y="-780.9" font-family="Arial" font-size="14.00" fill="#666666">[timestamp without time zone]</text>
<polygon fill="none" stroke="#000000" points="43.5,-739.5 43.5,-769.5 342.5,-769.5 342.5,-739.5 43.5,-739.5"/>
<text text-anchor="start" x="50.5" y="-750.9" font-family="Arial" font-size="14.00" fill="#000000">contributor </text>
<text text-anchor="start" x="120.5126" y="-750.9" font-family="Arial" font-size="14.00" fill="#666666">[varchar(255)]</text>
<polygon fill="none" stroke="#000000" points="43.5,-709.5 43.5,-739.5 342.5,-739.5 342.5,-709.5 43.5,-709.5"/>
<text text-anchor="start" x="50.5" y="-720.9" font-family="Arial" font-size="14.00" fill="#000000">url </text>
<text text-anchor="start" x="69.9404" y="-720.9" font-family="Arial" font-size="14.00" fill="#666666">[varchar(255)]</text>
</g>
<!-- public.contributions&#45;&gt;public.repos -->
<g id="edge1" class="edge">
<title>public.contributions:repo_id&#45;&gt;public.repos:id</title>
<path fill="none" stroke="#000000" d="M352.3323,-842.2054C407.8711,-814.112 360.3059,-537.5 427.5,-537.5"/>
<polygon fill="#000000" stroke="#000000" points="352.2383,-842.2272 341.4773,-840.1178 347.3692,-843.3636 342.5,-844.5 342.5,-844.5 342.5,-844.5 347.3692,-843.3636 343.5227,-848.8822 352.2383,-842.2272 352.2383,-842.2272"/>
<text text-anchor="start" x="349.2755" y="-854.5" font-family="Arial" font-size="10.00" fill="#000000">FOREIGN KEY (repo_id) REFERENCES repos(id)</text>
</g>
<!-- public.users -->
<g id="node3" class="node">
<title>public.users</title>
<polygon fill="#efefef" stroke="transparent" points="921.5,-402.5 921.5,-437.5 1170.5,-437.5 1170.5,-402.5 921.5,-402.5"/>
<polygon fill="none" stroke="#000000" points="921.5,-402.5 921.5,-437.5 1170.5,-437.5 1170.5,-402.5 921.5,-402.5"/>
<text text-anchor="start" x="949.3662" y="-415.3" font-family="Arial Bold" font-size="18.00" fill="#000000">public.users</text>
<text text-anchor="start" x="1045.38" y="-415.3" font-family="Arial" font-size="14.00" fill="#000000"> </text>
<text text-anchor="start" x="1049.2706" y="-415.3" font-family="Arial" font-size="14.00" fill="#666666">[BASE TABLE]</text>
<polygon fill="none" stroke="#000000" points="921.5,-372.5 921.5,-402.5 1170.5,-402.5 1170.5,-372.5 921.5,-372.5"/>
<text text-anchor="start" x="928.5" y="-383.9" font-family="Arial" font-size="14.00" fill="#000000">id </text>
<text text-anchor="start" x="943.2798" y="-383.9" font-family="Arial" font-size="14.00" fill="#666666">[bigint]</text>
<polygon fill="none" stroke="#000000" points="921.5,-342.5 921.5,-372.5 1170.5,-372.5 1170.5,-342.5 921.5,-342.5"/>
<text text-anchor="start" x="928.5" y="-353.9" font-family="Arial" font-size="14.00" fill="#000000">open_issues </text>
<text text-anchor="start" x="1010.9754" y="-353.9" font-family="Arial" font-size="14.00" fill="#666666">[bigint]</text>
<polygon fill="none" stroke="#000000" points="921.5,-312.5 921.5,-342.5 1170.5,-342.5 1170.5,-312.5 921.5,-312.5"/>
<text text-anchor="start" x="928.5" y="-323.9" font-family="Arial" font-size="14.00" fill="#000000">has_stars_data </text>
<text text-anchor="start" x="1028.0932" y="-323.9" font-family="Arial" font-size="14.00" fill="#666666">[boolean]</text>
<polygon fill="none" stroke="#000000" points="921.5,-282.5 921.5,-312.5 1170.5,-312.5 1170.5,-282.5 921.5,-282.5"/>
<text text-anchor="start" x="928.5" y="-293.9" font-family="Arial" font-size="14.00" fill="#000000">is_private </text>
<text text-anchor="start" x="992.2854" y="-293.9" font-family="Arial" font-size="14.00" fill="#666666">[boolean]</text>
<polygon fill="none" stroke="#000000" points="921.5,-252.5 921.5,-282.5 1170.5,-282.5 1170.5,-252.5 921.5,-252.5"/>
<text text-anchor="start" x="928.5" y="-263.9" font-family="Arial" font-size="14.00" fill="#000000">is_open_sauced_member </text>
<text text-anchor="start" x="1093.4354" y="-263.9" font-family="Arial" font-size="14.00" fill="#666666">[boolean]</text>
<polygon fill="none" stroke="#000000" points="921.5,-222.5 921.5,-252.5 1170.5,-252.5 1170.5,-222.5 921.5,-222.5"/>
<text text-anchor="start" x="928.1438" y="-233.9" font-family="Arial" font-size="14.00" fill="#000000">created_at </text>
<text text-anchor="start" x="998.1718" y="-233.9" font-family="Arial" font-size="14.00" fill="#666666">[timestamp with time zone]</text>
<polygon fill="none" stroke="#000000" points="921.5,-192.5 921.5,-222.5 1170.5,-222.5 1170.5,-192.5 921.5,-192.5"/>
<text text-anchor="start" x="928.5" y="-203.9" font-family="Arial" font-size="14.00" fill="#000000">login </text>
<text text-anchor="start" x="961.9516" y="-203.9" font-family="Arial" font-size="14.00" fill="#666666">[varchar(255)]</text>
</g>
<!-- public.users_to_repos_stars -->
<g id="node4" class="node">
<title>public.users_to_repos_stars</title>
<polygon fill="#efefef" stroke="transparent" points="890.5,-859.5 890.5,-894.5 1226.5,-894.5 1226.5,-859.5 890.5,-859.5"/>
<polygon fill="none" stroke="#000000" points="890.5,-859.5 890.5,-894.5 1226.5,-894.5 1226.5,-859.5 890.5,-859.5"/>
<text text-anchor="start" x="897.347" y="-872.3" font-family="Arial Bold" font-size="18.00" fill="#000000">public.users_to_repos_stars</text>
<text text-anchor="start" x="1122.3992" y="-872.3" font-family="Arial" font-size="14.00" fill="#000000"> </text>
<text text-anchor="start" x="1126.2898" y="-872.3" font-family="Arial" font-size="14.00" fill="#666666">[BASE TABLE]</text>
<polygon fill="none" stroke="#000000" points="890.5,-829.5 890.5,-859.5 1226.5,-859.5 1226.5,-829.5 890.5,-829.5"/>
<text text-anchor="start" x="897.5" y="-840.9" font-family="Arial" font-size="14.00" fill="#000000">id </text>
<text text-anchor="start" x="912.2798" y="-840.9" font-family="Arial" font-size="14.00" fill="#666666">[bigint]</text>
<polygon fill="none" stroke="#000000" points="890.5,-799.5 890.5,-829.5 1226.5,-829.5 1226.5,-799.5 890.5,-799.5"/>
<text text-anchor="start" x="897.5" y="-810.9" font-family="Arial" font-size="14.00" fill="#000000">user_id </text>
<text text-anchor="start" x="947.2882" y="-810.9" font-family="Arial" font-size="14.00" fill="#666666">[bigint]</text>
<polygon fill="none" stroke="#000000" points="890.5,-769.5 890.5,-799.5 1226.5,-799.5 1226.5,-769.5 890.5,-769.5"/>
<text text-anchor="start" x="897.5" y="-780.9" font-family="Arial" font-size="14.00" fill="#000000">repo_id </text>
<text text-anchor="start" x="948.0708" y="-780.9" font-family="Arial" font-size="14.00" fill="#666666">[bigint]</text>
<polygon fill="none" stroke="#000000" points="890.5,-739.5 890.5,-769.5 1226.5,-769.5 1226.5,-739.5 890.5,-739.5"/>
<text text-anchor="start" x="897.5" y="-750.9" font-family="Arial" font-size="14.00" fill="#000000">created_at </text>
<text text-anchor="start" x="967.528" y="-750.9" font-family="Arial" font-size="14.00" fill="#666666">[timestamp with time zone]</text>
</g>
<!-- public.users_to_repos_stars&#45;&gt;public.repos -->
<g id="edge2" class="edge">
<title>public.users_to_repos_stars:repo_id&#45;&gt;public.repos:id</title>
<path fill="none" stroke="#000000" d="M880.3713,-783.7914C783.3462,-769.3037 917.9682,-537.5 805.5,-537.5"/>
<polygon fill="#000000" stroke="#000000" points="880.5244,-783.8021 890.1859,-788.989 885.5122,-784.151 890.5,-784.5 890.5,-784.5 890.5,-784.5 885.5122,-784.151 890.8141,-780.011 880.5244,-783.8021 880.5244,-783.8021"/>
<text text-anchor="start" x="837.7755" y="-768.5" font-family="Arial" font-size="10.00" fill="#000000">FOREIGN KEY (repo_id) REFERENCES repos(id)</text>
</g>
<!-- public.users_to_repos_stars&#45;&gt;public.users -->
<g id="edge3" class="edge">
<title>public.users_to_repos_stars:user_id&#45;&gt;public.users:id</title>
<path fill="none" stroke="#000000" d="M880.1819,-813.3714C842.5761,-804.1462 869.1728,-740.388 890.5,-697 959.8329,-555.949 1101.1671,-622.051 1170.5,-481 1188.8315,-443.7063 1212.0556,-387.5 1170.5,-387.5"/>
<polygon fill="#000000" stroke="#000000" points="880.5593,-813.4126 890.0106,-818.9733 885.5296,-813.9563 890.5,-814.5 890.5,-814.5 890.5,-814.5 885.5296,-813.9563 890.9894,-810.0267 880.5593,-813.4126 880.5593,-813.4126"/>
<text text-anchor="start" x="838.5845" y="-798.5" font-family="Arial" font-size="10.00" fill="#000000">FOREIGN KEY (user_id) REFERENCES users(id)</text>
</g>
<!-- public.users_to_repos_votes -->
<g id="node5" class="node">
<title>public.users_to_repos_votes</title>
<polygon fill="#efefef" stroke="transparent" points="446.5,-859.5 446.5,-894.5 786.5,-894.5 786.5,-859.5 446.5,-859.5"/>
<polygon fill="none" stroke="#000000" points="446.5,-859.5 446.5,-894.5 786.5,-894.5 786.5,-859.5 446.5,-859.5"/>
<text text-anchor="start" x="453.34" y="-872.3" font-family="Arial Bold" font-size="18.00" fill="#000000">public.users_to_repos_votes</text>
<text text-anchor="start" x="682.4062" y="-872.3" font-family="Arial" font-size="14.00" fill="#000000"> </text>
<text text-anchor="start" x="686.2968" y="-872.3" font-family="Arial" font-size="14.00" fill="#666666">[BASE TABLE]</text>
<polygon fill="none" stroke="#000000" points="446.5,-829.5 446.5,-859.5 786.5,-859.5 786.5,-829.5 446.5,-829.5"/>
<text text-anchor="start" x="453.5" y="-840.9" font-family="Arial" font-size="14.00" fill="#000000">id </text>
<text text-anchor="start" x="468.2798" y="-840.9" font-family="Arial" font-size="14.00" fill="#666666">[bigint]</text>
<polygon fill="none" stroke="#000000" points="446.5,-799.5 446.5,-829.5 786.5,-829.5 786.5,-799.5 446.5,-799.5"/>
<text text-anchor="start" x="453.5" y="-810.9" font-family="Arial" font-size="14.00" fill="#000000">user_id </text>
<text text-anchor="start" x="503.2882" y="-810.9" font-family="Arial" font-size="14.00" fill="#666666">[bigint]</text>
<polygon fill="none" stroke="#000000" points="446.5,-769.5 446.5,-799.5 786.5,-799.5 786.5,-769.5 446.5,-769.5"/>
<text text-anchor="start" x="453.5" y="-780.9" font-family="Arial" font-size="14.00" fill="#000000">repo_id </text>
<text text-anchor="start" x="504.0708" y="-780.9" font-family="Arial" font-size="14.00" fill="#666666">[bigint]</text>
<polygon fill="none" stroke="#000000" points="446.5,-739.5 446.5,-769.5 786.5,-769.5 786.5,-739.5 446.5,-739.5"/>
<text text-anchor="start" x="453.5" y="-750.9" font-family="Arial" font-size="14.00" fill="#000000">created_at </text>
<text text-anchor="start" x="523.528" y="-750.9" font-family="Arial" font-size="14.00" fill="#666666">[timestamp with time zone]</text>
</g>
<!-- public.users_to_repos_votes&#45;&gt;public.repos -->
<g id="edge4" class="edge">
<title>public.users_to_repos_votes:repo_id&#45;&gt;public.repos:id</title>
<path fill="none" stroke="#000000" d="M796.3903,-781.7261C843.6368,-754.5898 857.1104,-537.5 805.5,-537.5"/>
<polygon fill="#000000" stroke="#000000" points="796.1285,-781.7994 785.2848,-780.1672 791.3142,-783.1497 786.5,-784.5 786.5,-784.5 786.5,-784.5 791.3142,-783.1497 787.7152,-788.8328 796.1285,-781.7994 796.1285,-781.7994"/>
<text text-anchor="start" x="555.2755" y="-794.5" font-family="Arial" font-size="10.00" fill="#000000">FOREIGN KEY (repo_id) REFERENCES repos(id)</text>
</g>
<!-- public.users_to_repos_votes&#45;&gt;public.users -->
<g id="edge5" class="edge">
<title>public.users_to_repos_votes:user_id&#45;&gt;public.users:id</title>
<path fill="none" stroke="#000000" d="M796.5659,-813.816C851.4294,-805.7162 812.1161,-727.3274 838.5,-667 845.7493,-650.4242 850.9355,-647.8587 857.5,-631 898.1018,-526.7281 809.6021,-387.5 921.5,-387.5"/>
<polygon fill="#000000" stroke="#000000" points="796.477,-813.822 786.1949,-810.0104 791.4885,-814.161 786.5,-814.5 786.5,-814.5 786.5,-814.5 791.4885,-814.161 786.8051,-818.9896 796.477,-813.822 796.477,-813.822"/>
<text text-anchor="start" x="793.8345" y="-824.5" font-family="Arial" font-size="10.00" fill="#000000">FOREIGN KEY (user_id) REFERENCES users(id)</text>
</g>
</g>
</svg>
