<?xml version="1.0" encoding="UTF-8" standalone="no"?>
<!DOCTYPE svg PUBLIC "-//W3C//DTD SVG 1.1//EN"
 "http://www.w3.org/Graphics/SVG/1.1/DTD/svg11.dtd">
<!-- Generated by graphviz version 2.40.1 (20161225.0304)
 -->
<!-- Title: hot.opensauced.pizza supabase Pages: 1 -->
<svg width="1293pt" height="766pt"
 viewBox="0.00 0.00 1293.00 766.00" xmlns="http://www.w3.org/2000/svg" xmlns:xlink="http://www.w3.org/1999/xlink">
<g id="graph0" class="graph" transform="scale(1 1) rotate(0) translate(4 762)">
<title>hot.opensauced.pizza supabase</title>
<polygon fill="#ffffff" stroke="transparent" points="-4,4 -4,-762 1289,-762 1289,4 -4,4"/>
<!-- public.user_stars -->
<g id="node1" class="node">
<title>public.user_stars</title>
<polygon fill="#efefef" stroke="transparent" points="209.5,-679.5 209.5,-714.5 478.5,-714.5 478.5,-679.5 209.5,-679.5"/>
<polygon fill="none" stroke="#000000" points="209.5,-679.5 209.5,-714.5 478.5,-714.5 478.5,-679.5 209.5,-679.5"/>
<text text-anchor="start" x="227.3628" y="-692.3" font-family="Arial Bold" font-size="18.00" fill="#000000">public.user_stars</text>
<text text-anchor="start" x="363.3834" y="-692.3" font-family="Arial" font-size="14.00" fill="#000000"> </text>
<text text-anchor="start" x="367.274" y="-692.3" font-family="Arial" font-size="14.00" fill="#666666">[BASE TABLE]</text>
<polygon fill="none" stroke="#000000" points="209.5,-649.5 209.5,-679.5 478.5,-679.5 478.5,-649.5 209.5,-649.5"/>
<text text-anchor="start" x="216.5" y="-660.9" font-family="Arial" font-size="14.00" fill="#000000">id </text>
<text text-anchor="start" x="231.2798" y="-660.9" font-family="Arial" font-size="14.00" fill="#666666">[bigint]</text>
<polygon fill="none" stroke="#000000" points="209.5,-619.5 209.5,-649.5 478.5,-649.5 478.5,-619.5 209.5,-619.5"/>
<text text-anchor="start" x="216.5" y="-630.9" font-family="Arial" font-size="14.00" fill="#000000">user_id </text>
<text text-anchor="start" x="266.2882" y="-630.9" font-family="Arial" font-size="14.00" fill="#666666">[bigint]</text>
<polygon fill="none" stroke="#000000" points="209.5,-589.5 209.5,-619.5 478.5,-619.5 478.5,-589.5 209.5,-589.5"/>
<text text-anchor="start" x="216.5" y="-600.9" font-family="Arial" font-size="14.00" fill="#000000">star_id </text>
<text text-anchor="start" x="262.3962" y="-600.9" font-family="Arial" font-size="14.00" fill="#666666">[bigint]</text>
<polygon fill="none" stroke="#000000" points="209.5,-559.5 209.5,-589.5 478.5,-589.5 478.5,-559.5 209.5,-559.5"/>
<text text-anchor="start" x="216.5" y="-570.9" font-family="Arial" font-size="14.00" fill="#000000">repo_name </text>
<text text-anchor="start" x="291.19" y="-570.9" font-family="Arial" font-size="14.00" fill="#666666">[text]</text>
<polygon fill="none" stroke="#000000" points="209.5,-529.5 209.5,-559.5 478.5,-559.5 478.5,-529.5 209.5,-529.5"/>
<text text-anchor="start" x="216.5" y="-540.9" font-family="Arial" font-size="14.00" fill="#000000">recency_score </text>
<text text-anchor="start" x="311.4074" y="-540.9" font-family="Arial" font-size="14.00" fill="#666666">[smallint]</text>
<polygon fill="none" stroke="#000000" points="209.5,-499.5 209.5,-529.5 478.5,-529.5 478.5,-499.5 209.5,-499.5"/>
<text text-anchor="start" x="216.5" y="-510.9" font-family="Arial" font-size="14.00" fill="#000000">description </text>
<text text-anchor="start" x="288.068" y="-510.9" font-family="Arial" font-size="14.00" fill="#666666">[varchar]</text>
<polygon fill="none" stroke="#000000" points="209.5,-469.5 209.5,-499.5 478.5,-499.5 478.5,-469.5 209.5,-469.5"/>
<text text-anchor="start" x="216.5" y="-480.9" font-family="Arial" font-size="14.00" fill="#000000">issues </text>
<text text-anchor="start" x="260.0624" y="-480.9" font-family="Arial" font-size="14.00" fill="#666666">[integer]</text>
<polygon fill="none" stroke="#000000" points="209.5,-439.5 209.5,-469.5 478.5,-469.5 478.5,-439.5 209.5,-439.5"/>
<text text-anchor="start" x="216.5" y="-450.9" font-family="Arial" font-size="14.00" fill="#000000">stars </text>
<text text-anchor="start" x="250.7244" y="-450.9" font-family="Arial" font-size="14.00" fill="#666666">[integer]</text>
<polygon fill="none" stroke="#000000" points="209.5,-409.5 209.5,-439.5 478.5,-439.5 478.5,-409.5 209.5,-409.5"/>
<text text-anchor="start" x="216.5" y="-420.9" font-family="Arial" font-size="14.00" fill="#000000">contributors </text>
<text text-anchor="start" x="293.5126" y="-420.9" font-family="Arial" font-size="14.00" fill="#666666">[text[]]</text>
<polygon fill="none" stroke="#000000" points="209.5,-379.5 209.5,-409.5 478.5,-409.5 478.5,-379.5 209.5,-379.5"/>
<text text-anchor="start" x="216.4159" y="-390.9" font-family="Arial" font-size="14.00" fill="#000000">created_at </text>
<text text-anchor="start" x="286.4439" y="-390.9" font-family="Arial" font-size="14.00" fill="#666666">[timestamp without time zone]</text>
</g>
<!-- public.stars -->
<g id="node2" class="node">
<title>public.stars</title>
<polygon fill="#efefef" stroke="transparent" points="43.5,-222.5 43.5,-257.5 292.5,-257.5 292.5,-222.5 43.5,-222.5"/>
<polygon fill="none" stroke="#000000" points="43.5,-222.5 43.5,-257.5 292.5,-257.5 292.5,-222.5 43.5,-222.5"/>
<text text-anchor="start" x="73.8682" y="-235.3" font-family="Arial Bold" font-size="18.00" fill="#000000">public.stars</text>
<text text-anchor="start" x="164.878" y="-235.3" font-family="Arial" font-size="14.00" fill="#000000"> </text>
<text text-anchor="start" x="168.7686" y="-235.3" font-family="Arial" font-size="14.00" fill="#666666">[BASE TABLE]</text>
<polygon fill="none" stroke="#000000" points="43.5,-192.5 43.5,-222.5 292.5,-222.5 292.5,-192.5 43.5,-192.5"/>
<text text-anchor="start" x="50.5" y="-203.9" font-family="Arial" font-size="14.00" fill="#000000">id </text>
<text text-anchor="start" x="65.2798" y="-203.9" font-family="Arial" font-size="14.00" fill="#666666">[bigint]</text>
<polygon fill="none" stroke="#000000" points="43.5,-162.5 43.5,-192.5 292.5,-192.5 292.5,-162.5 43.5,-162.5"/>
<text text-anchor="start" x="50.1438" y="-173.9" font-family="Arial" font-size="14.00" fill="#000000">created_at </text>
<text text-anchor="start" x="120.1718" y="-173.9" font-family="Arial" font-size="14.00" fill="#666666">[timestamp with time zone]</text>
<polygon fill="none" stroke="#000000" points="43.5,-132.5 43.5,-162.5 292.5,-162.5 292.5,-132.5 43.5,-132.5"/>
<text text-anchor="start" x="50.5" y="-143.9" font-family="Arial" font-size="14.00" fill="#000000">full_name </text>
<text text-anchor="start" x="115.068" y="-143.9" font-family="Arial" font-size="14.00" fill="#666666">[text]</text>
<polygon fill="none" stroke="#000000" points="43.5,-102.5 43.5,-132.5 292.5,-132.5 292.5,-102.5 43.5,-102.5"/>
<text text-anchor="start" x="50.5" y="-113.9" font-family="Arial" font-size="14.00" fill="#000000">stargazers_count </text>
<text text-anchor="start" x="161.7538" y="-113.9" font-family="Arial" font-size="14.00" fill="#666666">[integer]</text>
<polygon fill="none" stroke="#000000" points="43.5,-72.5 43.5,-102.5 292.5,-102.5 292.5,-72.5 43.5,-72.5"/>
<text text-anchor="start" x="50.5" y="-83.9" font-family="Arial" font-size="14.00" fill="#000000">open_issues_count </text>
<text text-anchor="start" x="174.9964" y="-83.9" font-family="Arial" font-size="14.00" fill="#666666">[integer]</text>
<polygon fill="none" stroke="#000000" points="43.5,-42.5 43.5,-72.5 292.5,-72.5 292.5,-42.5 43.5,-42.5"/>
<text text-anchor="start" x="50.5" y="-53.9" font-family="Arial" font-size="14.00" fill="#000000">forks_count </text>
<text text-anchor="start" x="126.7454" y="-53.9" font-family="Arial" font-size="14.00" fill="#666666">[integer]</text>
</g>
<!-- public.user_stars&#45;&gt;public.stars -->
<g id="edge2" class="edge">
<title>public.user_stars:star_id&#45;&gt;public.stars:id</title>
<path fill="none" stroke="#000000" stroke-dasharray="5,2" d="M199.491,-604.0731C93.7651,-594.7091 146.18,-433.4836 209.5,-337 231.5617,-303.3835 270.4383,-334.6165 292.5,-301 315.3004,-266.258 334.0556,-207.5 292.5,-207.5"/>
<polygon fill="#000000" stroke="#000000" points="199.5091,-604.0738 209.3082,-608.9959 204.5045,-604.2869 209.5,-604.5 209.5,-604.5 209.5,-604.5 204.5045,-604.2869 209.6918,-600.0041 199.5091,-604.0738 199.5091,-604.0738"/>
<text text-anchor="start" x="123.768" y="-614.5" font-family="Arial" font-size="10.00" fill="#000000">Detected Relation</text>
</g>
<!-- public.users -->
<g id="node3" class="node">
<title>public.users</title>
<polygon fill="#efefef" stroke="transparent" points="396.5,-177.5 396.5,-212.5 645.5,-212.5 645.5,-177.5 396.5,-177.5"/>
<polygon fill="none" stroke="#000000" points="396.5,-177.5 396.5,-212.5 645.5,-212.5 645.5,-177.5 396.5,-177.5"/>
<text text-anchor="start" x="424.3662" y="-190.3" font-family="Arial Bold" font-size="18.00" fill="#000000">public.users</text>
<text text-anchor="start" x="520.38" y="-190.3" font-family="Arial" font-size="14.00" fill="#000000"> </text>
<text text-anchor="start" x="524.2706" y="-190.3" font-family="Arial" font-size="14.00" fill="#666666">[BASE TABLE]</text>
<polygon fill="none" stroke="#000000" points="396.5,-147.5 396.5,-177.5 645.5,-177.5 645.5,-147.5 396.5,-147.5"/>
<text text-anchor="start" x="403.5" y="-158.9" font-family="Arial" font-size="14.00" fill="#000000">id </text>
<text text-anchor="start" x="418.2798" y="-158.9" font-family="Arial" font-size="14.00" fill="#666666">[bigint]</text>
<polygon fill="none" stroke="#000000" points="396.5,-117.5 396.5,-147.5 645.5,-147.5 645.5,-117.5 396.5,-117.5"/>
<text text-anchor="start" x="403.5" y="-128.9" font-family="Arial" font-size="14.00" fill="#000000">login </text>
<text text-anchor="start" x="436.9516" y="-128.9" font-family="Arial" font-size="14.00" fill="#666666">[text]</text>
<polygon fill="none" stroke="#000000" points="396.5,-87.5 396.5,-117.5 645.5,-117.5 645.5,-87.5 396.5,-87.5"/>
<text text-anchor="start" x="403.1438" y="-98.9" font-family="Arial" font-size="14.00" fill="#000000">created_at </text>
<text text-anchor="start" x="473.1718" y="-98.9" font-family="Arial" font-size="14.00" fill="#666666">[timestamp with time zone]</text>
</g>
<!-- public.user_stars&#45;&gt;public.users -->
<g id="edge1" class="edge">
<title>public.user_stars:user_id&#45;&gt;public.users:id</title>
<path fill="none" stroke="#000000" stroke-dasharray="5,2" d="M488.4086,-632.4455C540.2131,-609.1578 502.5931,-394.6648 478.5,-337 458.7512,-289.7329 416.2488,-303.2671 396.5,-256 380.4797,-217.6566 354.9444,-162.5 396.5,-162.5"/>
<polygon fill="#000000" stroke="#000000" points="488.2917,-632.4696 477.5863,-630.0937 483.3959,-633.4848 478.5,-634.5 478.5,-634.5 478.5,-634.5 483.3959,-633.4848 479.4137,-638.9063 488.2917,-632.4696 488.2917,-632.4696"/>
<text text-anchor="start" x="485.768" y="-644.5" font-family="Arial" font-size="10.00" fill="#000000">Detected Relation</text>
</g>
<!-- public.recommendations -->
<g id="node4" class="node">
<title>public.recommendations</title>
<polygon fill="#efefef" stroke="transparent" points="582.5,-679.5 582.5,-714.5 888.5,-714.5 888.5,-679.5 582.5,-679.5"/>
<polygon fill="none" stroke="#000000" points="582.5,-679.5 582.5,-714.5 888.5,-714.5 888.5,-679.5 582.5,-679.5"/>
<text text-anchor="start" x="589.3572" y="-692.3" font-family="Arial Bold" font-size="18.00" fill="#000000">public.recommendations</text>
<text text-anchor="start" x="784.389" y="-692.3" font-family="Arial" font-size="14.00" fill="#000000"> </text>
<text text-anchor="start" x="788.2796" y="-692.3" font-family="Arial" font-size="14.00" fill="#666666">[BASE TABLE]</text>
<polygon fill="none" stroke="#000000" points="582.5,-649.5 582.5,-679.5 888.5,-679.5 888.5,-649.5 582.5,-649.5"/>
<text text-anchor="start" x="589.5" y="-660.9" font-family="Arial" font-size="14.00" fill="#000000">id </text>
<text text-anchor="start" x="604.2798" y="-660.9" font-family="Arial" font-size="14.00" fill="#666666">[bigint]</text>
<polygon fill="none" stroke="#000000" points="582.5,-619.5 582.5,-649.5 888.5,-649.5 888.5,-619.5 582.5,-619.5"/>
<text text-anchor="start" x="589.5" y="-630.9" font-family="Arial" font-size="14.00" fill="#000000">stars </text>
<text text-anchor="start" x="623.7244" y="-630.9" font-family="Arial" font-size="14.00" fill="#666666">[bigint]</text>
<polygon fill="none" stroke="#000000" points="582.5,-589.5 582.5,-619.5 888.5,-619.5 888.5,-589.5 582.5,-589.5"/>
<text text-anchor="start" x="589.5" y="-600.9" font-family="Arial" font-size="14.00" fill="#000000">issues </text>
<text text-anchor="start" x="633.0624" y="-600.9" font-family="Arial" font-size="14.00" fill="#666666">[bigint]</text>
<polygon fill="none" stroke="#000000" points="582.5,-559.5 582.5,-589.5 888.5,-589.5 888.5,-559.5 582.5,-559.5"/>
<text text-anchor="start" x="589.5" y="-570.9" font-family="Arial" font-size="14.00" fill="#000000">total_stars </text>
<text text-anchor="start" x="657.96" y="-570.9" font-family="Arial" font-size="14.00" fill="#666666">[bigint]</text>
<polygon fill="none" stroke="#000000" points="582.5,-529.5 582.5,-559.5 888.5,-559.5 888.5,-529.5 582.5,-529.5"/>
<text text-anchor="start" x="589.5" y="-540.9" font-family="Arial" font-size="14.00" fill="#000000">votes </text>
<text text-anchor="start" x="626.8464" y="-540.9" font-family="Arial" font-size="14.00" fill="#666666">[bigint]</text>
<polygon fill="none" stroke="#000000" points="582.5,-499.5 582.5,-529.5 888.5,-529.5 888.5,-499.5 582.5,-499.5"/>
<text text-anchor="start" x="589.5" y="-510.9" font-family="Arial" font-size="14.00" fill="#000000">avg_recency_score </text>
<text text-anchor="start" x="714.7552" y="-510.9" font-family="Arial" font-size="14.00" fill="#666666">[numeric]</text>
<polygon fill="none" stroke="#000000" points="582.5,-469.5 582.5,-499.5 888.5,-499.5 888.5,-469.5 582.5,-469.5"/>
<text text-anchor="start" x="589.5" y="-480.9" font-family="Arial" font-size="14.00" fill="#000000">repo_name </text>
<text text-anchor="start" x="664.19" y="-480.9" font-family="Arial" font-size="14.00" fill="#666666">[text]</text>
<polygon fill="none" stroke="#000000" points="582.5,-439.5 582.5,-469.5 888.5,-469.5 888.5,-439.5 582.5,-439.5"/>
<text text-anchor="start" x="589.5" y="-450.9" font-family="Arial" font-size="14.00" fill="#000000">description </text>
<text text-anchor="start" x="661.068" y="-450.9" font-family="Arial" font-size="14.00" fill="#666666">[text]</text>
<polygon fill="none" stroke="#000000" points="582.5,-409.5 582.5,-439.5 888.5,-439.5 888.5,-409.5 582.5,-409.5"/>
<text text-anchor="start" x="589.5" y="-420.9" font-family="Arial" font-size="14.00" fill="#000000">contributors </text>
<text text-anchor="start" x="666.5126" y="-420.9" font-family="Arial" font-size="14.00" fill="#666666">[text[]]</text>
<polygon fill="none" stroke="#000000" points="582.5,-379.5 582.5,-409.5 888.5,-409.5 888.5,-379.5 582.5,-379.5"/>
<text text-anchor="start" x="589.5" y="-390.9" font-family="Arial" font-size="14.00" fill="#000000">created_at </text>
<text text-anchor="start" x="659.528" y="-390.9" font-family="Arial" font-size="14.00" fill="#666666">[timestamp with time zone]</text>
</g>
<!-- public.votes -->
<g id="node5" class="node">
<title>public.votes</title>
<polygon fill="#efefef" stroke="transparent" points="993.5,-604.5 993.5,-639.5 1242.5,-639.5 1242.5,-604.5 993.5,-604.5"/>
<polygon fill="none" stroke="#000000" points="993.5,-604.5 993.5,-639.5 1242.5,-639.5 1242.5,-604.5 993.5,-604.5"/>
<text text-anchor="start" x="1021.8612" y="-617.3" font-family="Arial Bold" font-size="18.00" fill="#000000">public.votes</text>
<text text-anchor="start" x="1116.885" y="-617.3" font-family="Arial" font-size="14.00" fill="#000000"> </text>
<text text-anchor="start" x="1120.7756" y="-617.3" font-family="Arial" font-size="14.00" fill="#666666">[BASE TABLE]</text>
<polygon fill="none" stroke="#000000" points="993.5,-574.5 993.5,-604.5 1242.5,-604.5 1242.5,-574.5 993.5,-574.5"/>
<text text-anchor="start" x="1000.5" y="-585.9" font-family="Arial" font-size="14.00" fill="#000000">id </text>
<text text-anchor="start" x="1015.2798" y="-585.9" font-family="Arial" font-size="14.00" fill="#666666">[integer]</text>
<polygon fill="none" stroke="#000000" points="993.5,-544.5 993.5,-574.5 1242.5,-574.5 1242.5,-544.5 993.5,-544.5"/>
<text text-anchor="start" x="1000.5" y="-555.9" font-family="Arial" font-size="14.00" fill="#000000">github_user_id </text>
<text text-anchor="start" x="1096.1984" y="-555.9" font-family="Arial" font-size="14.00" fill="#666666">[bigint]</text>
<polygon fill="none" stroke="#000000" points="993.5,-514.5 993.5,-544.5 1242.5,-544.5 1242.5,-514.5 993.5,-514.5"/>
<text text-anchor="start" x="1000.5" y="-525.9" font-family="Arial" font-size="14.00" fill="#000000">repo_name </text>
<text text-anchor="start" x="1075.19" y="-525.9" font-family="Arial" font-size="14.00" fill="#666666">[text]</text>
<polygon fill="none" stroke="#000000" points="993.5,-484.5 993.5,-514.5 1242.5,-514.5 1242.5,-484.5 993.5,-484.5"/>
<text text-anchor="start" x="1000.5" y="-495.9" font-family="Arial" font-size="14.00" fill="#000000">code </text>
<text text-anchor="start" x="1034.7384" y="-495.9" font-family="Arial" font-size="14.00" fill="#666666">[text]</text>
<polygon fill="none" stroke="#000000" points="993.5,-454.5 993.5,-484.5 1242.5,-484.5 1242.5,-454.5 993.5,-454.5"/>
<text text-anchor="start" x="1000.1438" y="-465.9" font-family="Arial" font-size="14.00" fill="#000000">created_at </text>
<text text-anchor="start" x="1070.1718" y="-465.9" font-family="Arial" font-size="14.00" fill="#666666">[timestamp with time zone]</text>
</g>
</g>
</svg>
