<?xml version="1.0" encoding="UTF-8" standalone="no"?>
<!DOCTYPE svg PUBLIC "-//W3C//DTD SVG 1.1//EN"
 "http://www.w3.org/Graphics/SVG/1.1/DTD/svg11.dtd">
<!-- Generated by graphviz version 2.40.1 (20161225.0304)
 -->
<!-- Title: hot.opensauced.pizza supabase Pages: 1 -->
<svg width="1127pt" height="766pt"
 viewBox="0.00 0.00 1126.50 766.00" xmlns="http://www.w3.org/2000/svg" xmlns:xlink="http://www.w3.org/1999/xlink">
<g id="graph0" class="graph" transform="scale(1 1) rotate(0) translate(4 762)">
<title>hot.opensauced.pizza supabase</title>
<polygon fill="#ffffff" stroke="transparent" points="-4,4 -4,-762 1122.5,-762 1122.5,4 -4,4"/>
<!-- public.recommendations -->
<g id="node1" class="node">
<title>public.recommendations</title>
<polygon fill="#efefef" stroke="transparent" points="43,-679.5 43,-714.5 349,-714.5 349,-679.5 43,-679.5"/>
<polygon fill="none" stroke="#000000" points="43,-679.5 43,-714.5 349,-714.5 349,-679.5 43,-679.5"/>
<text text-anchor="start" x="49.8572" y="-692.3" font-family="Arial Bold" font-size="18.00" fill="#000000">public.recommendations</text>
<text text-anchor="start" x="244.889" y="-692.3" font-family="Arial" font-size="14.00" fill="#000000"> </text>
<text text-anchor="start" x="248.7796" y="-692.3" font-family="Arial" font-size="14.00" fill="#666666">[BASE TABLE]</text>
<polygon fill="none" stroke="#000000" points="43,-649.5 43,-679.5 349,-679.5 349,-649.5 43,-649.5"/>
<text text-anchor="start" x="50" y="-660.9" font-family="Arial" font-size="14.00" fill="#000000">id </text>
<text text-anchor="start" x="64.7798" y="-660.9" font-family="Arial" font-size="14.00" fill="#666666">[bigint]</text>
<polygon fill="none" stroke="#000000" points="43,-619.5 43,-649.5 349,-649.5 349,-619.5 43,-619.5"/>
<text text-anchor="start" x="50" y="-630.9" font-family="Arial" font-size="14.00" fill="#000000">stars </text>
<text text-anchor="start" x="84.2244" y="-630.9" font-family="Arial" font-size="14.00" fill="#666666">[bigint]</text>
<polygon fill="none" stroke="#000000" points="43,-589.5 43,-619.5 349,-619.5 349,-589.5 43,-589.5"/>
<text text-anchor="start" x="50" y="-600.9" font-family="Arial" font-size="14.00" fill="#000000">issues </text>
<text text-anchor="start" x="93.5624" y="-600.9" font-family="Arial" font-size="14.00" fill="#666666">[bigint]</text>
<polygon fill="none" stroke="#000000" points="43,-559.5 43,-589.5 349,-589.5 349,-559.5 43,-559.5"/>
<text text-anchor="start" x="50" y="-570.9" font-family="Arial" font-size="14.00" fill="#000000">total_stars </text>
<text text-anchor="start" x="118.46" y="-570.9" font-family="Arial" font-size="14.00" fill="#666666">[bigint]</text>
<polygon fill="none" stroke="#000000" points="43,-529.5 43,-559.5 349,-559.5 349,-529.5 43,-529.5"/>
<text text-anchor="start" x="50" y="-540.9" font-family="Arial" font-size="14.00" fill="#000000">votes </text>
<text text-anchor="start" x="87.3464" y="-540.9" font-family="Arial" font-size="14.00" fill="#666666">[bigint]</text>
<polygon fill="none" stroke="#000000" points="43,-499.5 43,-529.5 349,-529.5 349,-499.5 43,-499.5"/>
<text text-anchor="start" x="50" y="-510.9" font-family="Arial" font-size="14.00" fill="#000000">avg_recency_score </text>
<text text-anchor="start" x="175.2552" y="-510.9" font-family="Arial" font-size="14.00" fill="#666666">[numeric]</text>
<polygon fill="none" stroke="#000000" points="43,-469.5 43,-499.5 349,-499.5 349,-469.5 43,-469.5"/>
<text text-anchor="start" x="50" y="-480.9" font-family="Arial" font-size="14.00" fill="#000000">repo_name </text>
<text text-anchor="start" x="124.69" y="-480.9" font-family="Arial" font-size="14.00" fill="#666666">[text]</text>
<polygon fill="none" stroke="#000000" points="43,-439.5 43,-469.5 349,-469.5 349,-439.5 43,-439.5"/>
<text text-anchor="start" x="50" y="-450.9" font-family="Arial" font-size="14.00" fill="#000000">description </text>
<text text-anchor="start" x="121.568" y="-450.9" font-family="Arial" font-size="14.00" fill="#666666">[text]</text>
<polygon fill="none" stroke="#000000" points="43,-409.5 43,-439.5 349,-439.5 349,-409.5 43,-409.5"/>
<text text-anchor="start" x="50" y="-420.9" font-family="Arial" font-size="14.00" fill="#000000">contributors </text>
<text text-anchor="start" x="127.0126" y="-420.9" font-family="Arial" font-size="14.00" fill="#666666">[text[]]</text>
<polygon fill="none" stroke="#000000" points="43,-379.5 43,-409.5 349,-409.5 349,-379.5 43,-379.5"/>
<text text-anchor="start" x="50" y="-390.9" font-family="Arial" font-size="14.00" fill="#000000">created_at </text>
<text text-anchor="start" x="120.028" y="-390.9" font-family="Arial" font-size="14.00" fill="#666666">[timestamp with time zone]</text>
</g>
<!-- public.stars -->
<g id="node2" class="node">
<title>public.stars</title>
<polygon fill="#efefef" stroke="transparent" points="287,-222.5 287,-257.5 536,-257.5 536,-222.5 287,-222.5"/>
<polygon fill="none" stroke="#000000" points="287,-222.5 287,-257.5 536,-257.5 536,-222.5 287,-222.5"/>
<text text-anchor="start" x="317.3682" y="-235.3" font-family="Arial Bold" font-size="18.00" fill="#000000">public.stars</text>
<text text-anchor="start" x="408.378" y="-235.3" font-family="Arial" font-size="14.00" fill="#000000"> </text>
<text text-anchor="start" x="412.2686" y="-235.3" font-family="Arial" font-size="14.00" fill="#666666">[BASE TABLE]</text>
<polygon fill="none" stroke="#000000" points="287,-192.5 287,-222.5 536,-222.5 536,-192.5 287,-192.5"/>
<text text-anchor="start" x="294" y="-203.9" font-family="Arial" font-size="14.00" fill="#000000">id </text>
<text text-anchor="start" x="308.7798" y="-203.9" font-family="Arial" font-size="14.00" fill="#666666">[bigint]</text>
<polygon fill="none" stroke="#000000" points="287,-162.5 287,-192.5 536,-192.5 536,-162.5 287,-162.5"/>
<text text-anchor="start" x="294" y="-173.9" font-family="Arial" font-size="14.00" fill="#000000">stargazers_count </text>
<text text-anchor="start" x="405.2538" y="-173.9" font-family="Arial" font-size="14.00" fill="#666666">[bigint]</text>
<polygon fill="none" stroke="#000000" points="287,-132.5 287,-162.5 536,-162.5 536,-132.5 287,-132.5"/>
<text text-anchor="start" x="294" y="-143.9" font-family="Arial" font-size="14.00" fill="#000000">open_issues_count </text>
<text text-anchor="start" x="418.4964" y="-143.9" font-family="Arial" font-size="14.00" fill="#666666">[bigint]</text>
<polygon fill="none" stroke="#000000" points="287,-102.5 287,-132.5 536,-132.5 536,-102.5 287,-102.5"/>
<text text-anchor="start" x="294" y="-113.9" font-family="Arial" font-size="14.00" fill="#000000">forks_count </text>
<text text-anchor="start" x="370.2454" y="-113.9" font-family="Arial" font-size="14.00" fill="#666666">[bigint]</text>
<polygon fill="none" stroke="#000000" points="287,-72.5 287,-102.5 536,-102.5 536,-72.5 287,-72.5"/>
<text text-anchor="start" x="294" y="-83.9" font-family="Arial" font-size="14.00" fill="#000000">full_name </text>
<text text-anchor="start" x="358.568" y="-83.9" font-family="Arial" font-size="14.00" fill="#666666">[text]</text>
<polygon fill="none" stroke="#000000" points="287,-42.5 287,-72.5 536,-72.5 536,-42.5 287,-42.5"/>
<text text-anchor="start" x="293.6438" y="-53.9" font-family="Arial" font-size="14.00" fill="#000000">created_at </text>
<text text-anchor="start" x="363.6718" y="-53.9" font-family="Arial" font-size="14.00" fill="#666666">[timestamp with time zone]</text>
</g>
<!-- public.user_stars -->
<g id="node3" class="node">
<title>public.user_stars</title>
<polygon fill="#efefef" stroke="transparent" points="454,-679.5 454,-714.5 723,-714.5 723,-679.5 454,-679.5"/>
<polygon fill="none" stroke="#000000" points="454,-679.5 454,-714.5 723,-714.5 723,-679.5 454,-679.5"/>
<text text-anchor="start" x="471.8628" y="-692.3" font-family="Arial Bold" font-size="18.00" fill="#000000">public.user_stars</text>
<text text-anchor="start" x="607.8834" y="-692.3" font-family="Arial" font-size="14.00" fill="#000000"> </text>
<text text-anchor="start" x="611.774" y="-692.3" font-family="Arial" font-size="14.00" fill="#666666">[BASE TABLE]</text>
<polygon fill="none" stroke="#000000" points="454,-649.5 454,-679.5 723,-679.5 723,-649.5 454,-649.5"/>
<text text-anchor="start" x="461" y="-660.9" font-family="Arial" font-size="14.00" fill="#000000">id </text>
<text text-anchor="start" x="475.7798" y="-660.9" font-family="Arial" font-size="14.00" fill="#666666">[bigint]</text>
<polygon fill="none" stroke="#000000" points="454,-619.5 454,-649.5 723,-649.5 723,-619.5 454,-619.5"/>
<text text-anchor="start" x="461" y="-630.9" font-family="Arial" font-size="14.00" fill="#000000">user_id </text>
<text text-anchor="start" x="510.7882" y="-630.9" font-family="Arial" font-size="14.00" fill="#666666">[bigint]</text>
<polygon fill="none" stroke="#000000" points="454,-589.5 454,-619.5 723,-619.5 723,-589.5 454,-589.5"/>
<text text-anchor="start" x="461" y="-600.9" font-family="Arial" font-size="14.00" fill="#000000">star_id </text>
<text text-anchor="start" x="506.8962" y="-600.9" font-family="Arial" font-size="14.00" fill="#666666">[bigint]</text>
<polygon fill="none" stroke="#000000" points="454,-559.5 454,-589.5 723,-589.5 723,-559.5 454,-559.5"/>
<text text-anchor="start" x="461" y="-570.9" font-family="Arial" font-size="14.00" fill="#000000">recency_score </text>
<text text-anchor="start" x="555.9074" y="-570.9" font-family="Arial" font-size="14.00" fill="#666666">[numeric]</text>
<polygon fill="none" stroke="#000000" points="454,-529.5 454,-559.5 723,-559.5 723,-529.5 454,-529.5"/>
<text text-anchor="start" x="461" y="-540.9" font-family="Arial" font-size="14.00" fill="#000000">issues </text>
<text text-anchor="start" x="504.5624" y="-540.9" font-family="Arial" font-size="14.00" fill="#666666">[bigint]</text>
<polygon fill="none" stroke="#000000" points="454,-499.5 454,-529.5 723,-529.5 723,-499.5 454,-499.5"/>
<text text-anchor="start" x="461" y="-510.9" font-family="Arial" font-size="14.00" fill="#000000">stars </text>
<text text-anchor="start" x="495.2244" y="-510.9" font-family="Arial" font-size="14.00" fill="#666666">[bigint]</text>
<polygon fill="none" stroke="#000000" points="454,-469.5 454,-499.5 723,-499.5 723,-469.5 454,-469.5"/>
<text text-anchor="start" x="461" y="-480.9" font-family="Arial" font-size="14.00" fill="#000000">repo_name </text>
<text text-anchor="start" x="535.69" y="-480.9" font-family="Arial" font-size="14.00" fill="#666666">[text]</text>
<polygon fill="none" stroke="#000000" points="454,-439.5 454,-469.5 723,-469.5 723,-439.5 454,-439.5"/>
<text text-anchor="start" x="461" y="-450.9" font-family="Arial" font-size="14.00" fill="#000000">description </text>
<text text-anchor="start" x="532.568" y="-450.9" font-family="Arial" font-size="14.00" fill="#666666">[text]</text>
<polygon fill="none" stroke="#000000" points="454,-409.5 454,-439.5 723,-439.5 723,-409.5 454,-409.5"/>
<text text-anchor="start" x="461" y="-420.9" font-family="Arial" font-size="14.00" fill="#000000">contributors </text>
<text text-anchor="start" x="538.0126" y="-420.9" font-family="Arial" font-size="14.00" fill="#666666">[text[]]</text>
<polygon fill="none" stroke="#000000" points="454,-379.5 454,-409.5 723,-409.5 723,-379.5 454,-379.5"/>
<text text-anchor="start" x="460.9159" y="-390.9" font-family="Arial" font-size="14.00" fill="#000000">created_at </text>
<text text-anchor="start" x="530.9439" y="-390.9" font-family="Arial" font-size="14.00" fill="#666666">[timestamp without time zone]</text>
</g>
<!-- public.user_stars&#45;&gt;public.stars -->
<g id="edge2" class="edge">
<title>public.user_stars:star_id&#45;&gt;public.stars:id</title>
<path fill="none" stroke="#000000" stroke-dasharray="5,2" d="M444.1346,-602.1911C397.8382,-578.75 423.4631,-383.7567 454,-337 475.7643,-303.6756 514.2357,-334.3244 536,-301 558.7231,-266.2074 577.5556,-207.5 536,-207.5"/>
<polygon fill="#000000" stroke="#000000" points="444.2631,-602.2211 452.9745,-608.8816 449.1316,-603.3605 454,-604.5 454,-604.5 454,-604.5 449.1316,-603.3605 455.0255,-600.1184 444.2631,-602.2211 444.2631,-602.2211"/>
<text text-anchor="start" x="368.268" y="-614.5" font-family="Arial" font-size="10.00" fill="#000000">Detected Relation</text>
</g>
<!-- public.users -->
<g id="node4" class="node">
<title>public.users</title>
<polygon fill="#efefef" stroke="transparent" points="640,-222.5 640,-257.5 889,-257.5 889,-222.5 640,-222.5"/>
<polygon fill="none" stroke="#000000" points="640,-222.5 640,-257.5 889,-257.5 889,-222.5 640,-222.5"/>
<text text-anchor="start" x="667.8662" y="-235.3" font-family="Arial Bold" font-size="18.00" fill="#000000">public.users</text>
<text text-anchor="start" x="763.88" y="-235.3" font-family="Arial" font-size="14.00" fill="#000000"> </text>
<text text-anchor="start" x="767.7706" y="-235.3" font-family="Arial" font-size="14.00" fill="#666666">[BASE TABLE]</text>
<polygon fill="none" stroke="#000000" points="640,-192.5 640,-222.5 889,-222.5 889,-192.5 640,-192.5"/>
<text text-anchor="start" x="647" y="-203.9" font-family="Arial" font-size="14.00" fill="#000000">id </text>
<text text-anchor="start" x="661.7798" y="-203.9" font-family="Arial" font-size="14.00" fill="#666666">[bigint]</text>
<polygon fill="none" stroke="#000000" points="640,-162.5 640,-192.5 889,-192.5 889,-162.5 640,-162.5"/>
<text text-anchor="start" x="647" y="-173.9" font-family="Arial" font-size="14.00" fill="#000000">open_issues </text>
<text text-anchor="start" x="729.4754" y="-173.9" font-family="Arial" font-size="14.00" fill="#666666">[bigint]</text>
<polygon fill="none" stroke="#000000" points="640,-132.5 640,-162.5 889,-162.5 889,-132.5 640,-132.5"/>
<text text-anchor="start" x="647" y="-143.9" font-family="Arial" font-size="14.00" fill="#000000">private </text>
<text text-anchor="start" x="692.8962" y="-143.9" font-family="Arial" font-size="14.00" fill="#666666">[boolean]</text>
<polygon fill="none" stroke="#000000" points="640,-102.5 640,-132.5 889,-132.5 889,-102.5 640,-102.5"/>
<text text-anchor="start" x="647" y="-113.9" font-family="Arial" font-size="14.00" fill="#000000">stars_data </text>
<text text-anchor="start" x="716.2454" y="-113.9" font-family="Arial" font-size="14.00" fill="#666666">[boolean]</text>
<polygon fill="none" stroke="#000000" points="640,-72.5 640,-102.5 889,-102.5 889,-72.5 640,-72.5"/>
<text text-anchor="start" x="647" y="-83.9" font-family="Arial" font-size="14.00" fill="#000000">login </text>
<text text-anchor="start" x="680.4516" y="-83.9" font-family="Arial" font-size="14.00" fill="#666666">[text]</text>
<polygon fill="none" stroke="#000000" points="640,-42.5 640,-72.5 889,-72.5 889,-42.5 640,-42.5"/>
<text text-anchor="start" x="646.6438" y="-53.9" font-family="Arial" font-size="14.00" fill="#000000">created_at </text>
<text text-anchor="start" x="716.6718" y="-53.9" font-family="Arial" font-size="14.00" fill="#666666">[timestamp with time zone]</text>
</g>
<!-- public.user_stars&#45;&gt;public.users -->
<g id="edge1" class="edge">
<title>public.user_stars:user_id&#45;&gt;public.users:id</title>
<path fill="none" stroke="#000000" stroke-dasharray="5,2" d="M733.0001,-632.3969C785.8284,-608.5654 757.2896,-389.2487 723,-337 700.9383,-303.3835 662.0617,-334.6165 640,-301 617.1996,-266.258 598.4444,-207.5 640,-207.5"/>
<polygon fill="#000000" stroke="#000000" points="732.7859,-632.4419 722.0738,-630.0963 727.893,-633.4709 723,-634.5 723,-634.5 723,-634.5 727.893,-633.4709 723.9262,-638.9037 732.7859,-632.4419 732.7859,-632.4419"/>
<text text-anchor="start" x="730.268" y="-644.5" font-family="Arial" font-size="10.00" fill="#000000">Detected Relation</text>
</g>
<!-- public.votes -->
<g id="node5" class="node">
<title>public.votes</title>
<polygon fill="#efefef" stroke="transparent" points="827,-604.5 827,-639.5 1076,-639.5 1076,-604.5 827,-604.5"/>
<polygon fill="none" stroke="#000000" points="827,-604.5 827,-639.5 1076,-639.5 1076,-604.5 827,-604.5"/>
<text text-anchor="start" x="855.3612" y="-617.3" font-family="Arial Bold" font-size="18.00" fill="#000000">public.votes</text>
<text text-anchor="start" x="950.385" y="-617.3" font-family="Arial" font-size="14.00" fill="#000000"> </text>
<text text-anchor="start" x="954.2756" y="-617.3" font-family="Arial" font-size="14.00" fill="#666666">[BASE TABLE]</text>
<polygon fill="none" stroke="#000000" points="827,-574.5 827,-604.5 1076,-604.5 1076,-574.5 827,-574.5"/>
<text text-anchor="start" x="834" y="-585.9" font-family="Arial" font-size="14.00" fill="#000000">id </text>
<text text-anchor="start" x="848.7798" y="-585.9" font-family="Arial" font-size="14.00" fill="#666666">[integer]</text>
<polygon fill="none" stroke="#000000" points="827,-544.5 827,-574.5 1076,-574.5 1076,-544.5 827,-544.5"/>
<text text-anchor="start" x="834" y="-555.9" font-family="Arial" font-size="14.00" fill="#000000">github_user_id </text>
<text text-anchor="start" x="929.6984" y="-555.9" font-family="Arial" font-size="14.00" fill="#666666">[bigint]</text>
<polygon fill="none" stroke="#000000" points="827,-514.5 827,-544.5 1076,-544.5 1076,-514.5 827,-514.5"/>
<text text-anchor="start" x="834" y="-525.9" font-family="Arial" font-size="14.00" fill="#000000">repo_name </text>
<text text-anchor="start" x="908.69" y="-525.9" font-family="Arial" font-size="14.00" fill="#666666">[text]</text>
<polygon fill="none" stroke="#000000" points="827,-484.5 827,-514.5 1076,-514.5 1076,-484.5 827,-484.5"/>
<text text-anchor="start" x="834" y="-495.9" font-family="Arial" font-size="14.00" fill="#000000">code </text>
<text text-anchor="start" x="868.2384" y="-495.9" font-family="Arial" font-size="14.00" fill="#666666">[text]</text>
<polygon fill="none" stroke="#000000" points="827,-454.5 827,-484.5 1076,-484.5 1076,-454.5 827,-454.5"/>
<text text-anchor="start" x="833.6438" y="-465.9" font-family="Arial" font-size="14.00" fill="#000000">created_at </text>
<text text-anchor="start" x="903.6718" y="-465.9" font-family="Arial" font-size="14.00" fill="#666666">[timestamp with time zone]</text>
</g>
</g>
</svg>
