<?xml version="1.0" encoding="UTF-8" standalone="no"?>
<!DOCTYPE svg PUBLIC "-//W3C//DTD SVG 1.1//EN"
 "http://www.w3.org/Graphics/SVG/1.1/DTD/svg11.dtd">
<!-- Generated by graphviz version 2.40.1 (20161225.0304)
 -->
<!-- Title: hot.opensauced.pizza supabase Pages: 1 -->
<svg width="2714pt" height="1096pt"
 viewBox="0.00 0.00 2714.00 1096.00" xmlns="http://www.w3.org/2000/svg" xmlns:xlink="http://www.w3.org/1999/xlink">
<g id="graph0" class="graph" transform="scale(1 1) rotate(0) translate(4 1092)">
<title>hot.opensauced.pizza supabase</title>
<polygon fill="#ffffff" stroke="transparent" points="-4,4 -4,-1092 2710,-1092 2710,4 -4,4"/>
<!-- public.repos -->
<g id="node1" class="node">
<title>public.repos</title>
<polygon fill="#efefef" stroke="transparent" points="990,-582.5 990,-617.5 1368,-617.5 1368,-582.5 990,-582.5"/>
<polygon fill="none" stroke="#000000" points="990,-582.5 990,-617.5 1368,-617.5 1368,-582.5 990,-582.5"/>
<text text-anchor="start" x="1081.8631" y="-595.3" font-family="Arial Bold" font-size="18.00" fill="#000000">public.repos</text>
<text text-anchor="start" x="1178.8831" y="-595.3" font-family="Arial" font-size="14.00" fill="#000000"> </text>
<text text-anchor="start" x="1182.7737" y="-595.3" font-family="Arial" font-size="14.00" fill="#666666">[BASE TABLE]</text>
<polygon fill="none" stroke="#000000" points="990,-552.5 990,-582.5 1368,-582.5 1368,-552.5 990,-552.5"/>
<text text-anchor="start" x="997" y="-563.9" font-family="Arial" font-size="14.00" fill="#000000">id </text>
<text text-anchor="start" x="1011.7798" y="-563.9" font-family="Arial" font-size="14.00" fill="#666666">[bigint]</text>
<polygon fill="none" stroke="#000000" points="990,-522.5 990,-552.5 1368,-552.5 1368,-522.5 990,-522.5"/>
<text text-anchor="start" x="997" y="-533.9" font-family="Arial" font-size="14.00" fill="#000000">user_id </text>
<text text-anchor="start" x="1046.7882" y="-533.9" font-family="Arial" font-size="14.00" fill="#666666">[bigint]</text>
<polygon fill="none" stroke="#000000" points="990,-492.5 990,-522.5 1368,-522.5 1368,-492.5 990,-492.5"/>
<text text-anchor="start" x="997" y="-503.9" font-family="Arial" font-size="14.00" fill="#000000">issues </text>
<text text-anchor="start" x="1040.5624" y="-503.9" font-family="Arial" font-size="14.00" fill="#666666">[bigint]</text>
<polygon fill="none" stroke="#000000" points="990,-462.5 990,-492.5 1368,-492.5 1368,-462.5 990,-462.5"/>
<text text-anchor="start" x="997" y="-473.9" font-family="Arial" font-size="14.00" fill="#000000">stars </text>
<text text-anchor="start" x="1031.2244" y="-473.9" font-family="Arial" font-size="14.00" fill="#666666">[bigint]</text>
<polygon fill="none" stroke="#000000" points="990,-432.5 990,-462.5 1368,-462.5 1368,-432.5 990,-432.5"/>
<text text-anchor="start" x="997" y="-443.9" font-family="Arial" font-size="14.00" fill="#000000">watchers </text>
<text text-anchor="start" x="1056.8962" y="-443.9" font-family="Arial" font-size="14.00" fill="#666666">[bigint]</text>
<polygon fill="none" stroke="#000000" points="990,-402.5 990,-432.5 1368,-432.5 1368,-402.5 990,-402.5"/>
<text text-anchor="start" x="997" y="-413.9" font-family="Arial" font-size="14.00" fill="#000000">subscribers </text>
<text text-anchor="start" x="1072.4488" y="-413.9" font-family="Arial" font-size="14.00" fill="#666666">[bigint]</text>
<polygon fill="none" stroke="#000000" points="990,-372.5 990,-402.5 1368,-402.5 1368,-372.5 990,-372.5"/>
<text text-anchor="start" x="997" y="-383.9" font-family="Arial" font-size="14.00" fill="#000000">is_fork </text>
<text text-anchor="start" x="1042.1136" y="-383.9" font-family="Arial" font-size="14.00" fill="#666666">[boolean]</text>
<polygon fill="none" stroke="#000000" points="990,-342.5 990,-372.5 1368,-372.5 1368,-342.5 990,-342.5"/>
<text text-anchor="start" x="997" y="-353.9" font-family="Arial" font-size="14.00" fill="#000000">created_at </text>
<text text-anchor="start" x="1067.028" y="-353.9" font-family="Arial" font-size="14.00" fill="#666666">[timestamp without time zone]</text>
<polygon fill="none" stroke="#000000" points="990,-312.5 990,-342.5 1368,-342.5 1368,-312.5 990,-312.5"/>
<text text-anchor="start" x="997" y="-323.9" font-family="Arial" font-size="14.00" fill="#000000">updated_at </text>
<text text-anchor="start" x="1070.9326" y="-323.9" font-family="Arial" font-size="14.00" fill="#666666">[timestamp without time zone]</text>
<polygon fill="none" stroke="#000000" points="990,-282.5 990,-312.5 1368,-312.5 1368,-282.5 990,-282.5"/>
<text text-anchor="start" x="997" y="-293.9" font-family="Arial" font-size="14.00" fill="#000000">pushed_at </text>
<text text-anchor="start" x="1066.2594" y="-293.9" font-family="Arial" font-size="14.00" fill="#666666">[timestamp without time zone]</text>
<polygon fill="none" stroke="#000000" points="990,-252.5 990,-282.5 1368,-282.5 1368,-252.5 990,-252.5"/>
<text text-anchor="start" x="996.5674" y="-263.9" font-family="Arial" font-size="14.00" fill="#000000">last_fetched_contributors_at </text>
<text text-anchor="start" x="1176.2924" y="-263.9" font-family="Arial" font-size="14.00" fill="#666666">[timestamp without time zone]</text>
<polygon fill="none" stroke="#000000" points="990,-222.5 990,-252.5 1368,-252.5 1368,-222.5 990,-222.5"/>
<text text-anchor="start" x="997" y="-233.9" font-family="Arial" font-size="14.00" fill="#000000">name </text>
<text text-anchor="start" x="1035.899" y="-233.9" font-family="Arial" font-size="14.00" fill="#666666">[varchar(255)]</text>
<polygon fill="none" stroke="#000000" points="990,-192.5 990,-222.5 1368,-222.5 1368,-192.5 990,-192.5"/>
<text text-anchor="start" x="997" y="-203.9" font-family="Arial" font-size="14.00" fill="#000000">full_name </text>
<text text-anchor="start" x="1061.568" y="-203.9" font-family="Arial" font-size="14.00" fill="#666666">[varchar(255)]</text>
<polygon fill="none" stroke="#000000" points="990,-162.5 990,-192.5 1368,-192.5 1368,-162.5 990,-162.5"/>
<text text-anchor="start" x="997" y="-173.9" font-family="Arial" font-size="14.00" fill="#000000">description </text>
<text text-anchor="start" x="1068.568" y="-173.9" font-family="Arial" font-size="14.00" fill="#666666">[text]</text>
<polygon fill="none" stroke="#000000" points="990,-132.5 990,-162.5 1368,-162.5 1368,-132.5 990,-132.5"/>
<text text-anchor="start" x="997" y="-143.9" font-family="Arial" font-size="14.00" fill="#000000">language </text>
<text text-anchor="start" x="1058.4754" y="-143.9" font-family="Arial" font-size="14.00" fill="#666666">[varchar(64)]</text>
<polygon fill="none" stroke="#000000" points="990,-102.5 990,-132.5 1368,-132.5 1368,-102.5 990,-102.5"/>
<text text-anchor="start" x="997" y="-113.9" font-family="Arial" font-size="14.00" fill="#000000">license </text>
<text text-anchor="start" x="1044.4516" y="-113.9" font-family="Arial" font-size="14.00" fill="#666666">[varchar(64)]</text>
<polygon fill="none" stroke="#000000" points="990,-72.5 990,-102.5 1368,-102.5 1368,-72.5 990,-72.5"/>
<text text-anchor="start" x="997" y="-83.9" font-family="Arial" font-size="14.00" fill="#000000">url </text>
<text text-anchor="start" x="1016.4404" y="-83.9" font-family="Arial" font-size="14.00" fill="#666666">[varchar(255)]</text>
<polygon fill="none" stroke="#000000" points="990,-42.5 990,-72.5 1368,-72.5 1368,-42.5 990,-42.5"/>
<text text-anchor="start" x="997" y="-53.9" font-family="Arial" font-size="14.00" fill="#000000">deleted_at </text>
<text text-anchor="start" x="1066.2566" y="-53.9" font-family="Arial" font-size="14.00" fill="#666666">[timestamp with time zone]</text>
</g>
<!-- public.contributions -->
<g id="node2" class="node">
<title>public.contributions</title>
<polygon fill="#efefef" stroke="transparent" points="1914,-1009.5 1914,-1044.5 2213,-1044.5 2213,-1009.5 1914,-1009.5"/>
<polygon fill="none" stroke="#000000" points="1914,-1009.5 1914,-1044.5 2213,-1044.5 2213,-1009.5 1914,-1009.5"/>
<text text-anchor="start" x="1937.8574" y="-1022.3" font-family="Arial Bold" font-size="18.00" fill="#000000">public.contributions</text>
<text text-anchor="start" x="2091.8888" y="-1022.3" font-family="Arial" font-size="14.00" fill="#000000"> </text>
<text text-anchor="start" x="2095.7794" y="-1022.3" font-family="Arial" font-size="14.00" fill="#666666">[BASE TABLE]</text>
<polygon fill="none" stroke="#000000" points="1914,-979.5 1914,-1009.5 2213,-1009.5 2213,-979.5 1914,-979.5"/>
<text text-anchor="start" x="1921" y="-990.9" font-family="Arial" font-size="14.00" fill="#000000">id </text>
<text text-anchor="start" x="1935.7798" y="-990.9" font-family="Arial" font-size="14.00" fill="#666666">[bigint]</text>
<polygon fill="none" stroke="#000000" points="1914,-949.5 1914,-979.5 2213,-979.5 2213,-949.5 1914,-949.5"/>
<text text-anchor="start" x="1921" y="-960.9" font-family="Arial" font-size="14.00" fill="#000000">repo_id </text>
<text text-anchor="start" x="1971.5708" y="-960.9" font-family="Arial" font-size="14.00" fill="#666666">[bigint]</text>
<polygon fill="none" stroke="#000000" points="1914,-919.5 1914,-949.5 2213,-949.5 2213,-919.5 1914,-919.5"/>
<text text-anchor="start" x="1921" y="-930.9" font-family="Arial" font-size="14.00" fill="#000000">count </text>
<text text-anchor="start" x="1959.129" y="-930.9" font-family="Arial" font-size="14.00" fill="#666666">[bigint]</text>
<polygon fill="none" stroke="#000000" points="1914,-889.5 1914,-919.5 2213,-919.5 2213,-889.5 1914,-889.5"/>
<text text-anchor="start" x="1920.7497" y="-900.9" font-family="Arial" font-size="14.00" fill="#000000">last_merged_at </text>
<text text-anchor="start" x="2021.1101" y="-900.9" font-family="Arial" font-size="14.00" fill="#666666">[timestamp without time zone]</text>
<polygon fill="none" stroke="#000000" points="1914,-859.5 1914,-889.5 2213,-889.5 2213,-859.5 1914,-859.5"/>
<text text-anchor="start" x="1921" y="-870.9" font-family="Arial" font-size="14.00" fill="#000000">contributor </text>
<text text-anchor="start" x="1991.0126" y="-870.9" font-family="Arial" font-size="14.00" fill="#666666">[varchar(255)]</text>
<polygon fill="none" stroke="#000000" points="1914,-829.5 1914,-859.5 2213,-859.5 2213,-829.5 1914,-829.5"/>
<text text-anchor="start" x="1921" y="-840.9" font-family="Arial" font-size="14.00" fill="#000000">url </text>
<text text-anchor="start" x="1940.4404" y="-840.9" font-family="Arial" font-size="14.00" fill="#666666">[varchar(255)]</text>
<polygon fill="none" stroke="#000000" points="1914,-799.5 1914,-829.5 2213,-829.5 2213,-799.5 1914,-799.5"/>
<text text-anchor="start" x="1921" y="-810.9" font-family="Arial" font-size="14.00" fill="#000000">deleted_at </text>
<text text-anchor="start" x="1990.2566" y="-810.9" font-family="Arial" font-size="14.00" fill="#666666">[timestamp with time zone]</text>
<polygon fill="none" stroke="#000000" points="1914,-769.5 1914,-799.5 2213,-799.5 2213,-769.5 1914,-769.5"/>
<text text-anchor="start" x="1921" y="-780.9" font-family="Arial" font-size="14.00" fill="#000000">updated_at </text>
<text text-anchor="start" x="1994.9326" y="-780.9" font-family="Arial" font-size="14.00" fill="#666666">[timestamp with time zone]</text>
<polygon fill="none" stroke="#000000" points="1914,-739.5 1914,-769.5 2213,-769.5 2213,-739.5 1914,-739.5"/>
<text text-anchor="start" x="1921" y="-750.9" font-family="Arial" font-size="14.00" fill="#000000">created_at </text>
<text text-anchor="start" x="1991.028" y="-750.9" font-family="Arial" font-size="14.00" fill="#666666">[timestamp with time zone]</text>
</g>
<!-- public.contributions&#45;&gt;public.repos -->
<g id="edge1" class="edge">
<title>public.contributions:repo_id&#45;&gt;public.repos:id</title>
<path fill="none" stroke="#000000" d="M1903.7276,-964.0148C1801.7422,-953.7325 1941.522,-782.6137 1861,-697 1783.3957,-614.4885 1481.2722,-567.5 1368,-567.5"/>
<polygon fill="#000000" stroke="#000000" points="1904.0111,-964.0281 1913.7876,-968.995 1909.0056,-964.264 1914,-964.5 1914,-964.5 1914,-964.5 1909.0056,-964.264 1914.2124,-960.005 1904.0111,-964.0281 1904.0111,-964.0281"/>
<text text-anchor="start" x="1861.2755" y="-948.5" font-family="Arial" font-size="10.00" fill="#000000">FOREIGN KEY (repo_id) REFERENCES repos(id)</text>
</g>
<!-- public.users -->
<g id="node3" class="node">
<title>public.users</title>
<polygon fill="#efefef" stroke="transparent" points="596,-447.5 596,-482.5 849,-482.5 849,-447.5 596,-447.5"/>
<polygon fill="none" stroke="#000000" points="596,-447.5 596,-482.5 849,-482.5 849,-447.5 596,-447.5"/>
<text text-anchor="start" x="625.8662" y="-460.3" font-family="Arial Bold" font-size="18.00" fill="#000000">public.users</text>
<text text-anchor="start" x="721.88" y="-460.3" font-family="Arial" font-size="14.00" fill="#000000"> </text>
<text text-anchor="start" x="725.7706" y="-460.3" font-family="Arial" font-size="14.00" fill="#666666">[BASE TABLE]</text>
<polygon fill="none" stroke="#000000" points="596,-417.5 596,-447.5 849,-447.5 849,-417.5 596,-417.5"/>
<text text-anchor="start" x="603" y="-428.9" font-family="Arial" font-size="14.00" fill="#000000">id </text>
<text text-anchor="start" x="617.7798" y="-428.9" font-family="Arial" font-size="14.00" fill="#666666">[bigint]</text>
<polygon fill="none" stroke="#000000" points="596,-387.5 596,-417.5 849,-417.5 849,-387.5 596,-387.5"/>
<text text-anchor="start" x="603" y="-398.9" font-family="Arial" font-size="14.00" fill="#000000">open_issues </text>
<text text-anchor="start" x="685.4754" y="-398.9" font-family="Arial" font-size="14.00" fill="#666666">[bigint]</text>
<polygon fill="none" stroke="#000000" points="596,-357.5 596,-387.5 849,-387.5 849,-357.5 596,-357.5"/>
<text text-anchor="start" x="603" y="-368.9" font-family="Arial" font-size="14.00" fill="#000000">has_stars_data </text>
<text text-anchor="start" x="702.5932" y="-368.9" font-family="Arial" font-size="14.00" fill="#666666">[boolean]</text>
<polygon fill="none" stroke="#000000" points="596,-327.5 596,-357.5 849,-357.5 849,-327.5 596,-327.5"/>
<text text-anchor="start" x="603" y="-338.9" font-family="Arial" font-size="14.00" fill="#000000">is_private </text>
<text text-anchor="start" x="666.7854" y="-338.9" font-family="Arial" font-size="14.00" fill="#666666">[boolean]</text>
<polygon fill="none" stroke="#000000" points="596,-297.5 596,-327.5 849,-327.5 849,-297.5 596,-297.5"/>
<text text-anchor="start" x="603" y="-308.9" font-family="Arial" font-size="14.00" fill="#000000">is_open_sauced_member </text>
<text text-anchor="start" x="767.9354" y="-308.9" font-family="Arial" font-size="14.00" fill="#666666">[boolean]</text>
<polygon fill="none" stroke="#000000" points="596,-267.5 596,-297.5 849,-297.5 849,-267.5 596,-267.5"/>
<text text-anchor="start" x="603" y="-278.9" font-family="Arial" font-size="14.00" fill="#000000">created_at </text>
<text text-anchor="start" x="673.028" y="-278.9" font-family="Arial" font-size="14.00" fill="#666666">[timestamp with time zone]</text>
<polygon fill="none" stroke="#000000" points="596,-237.5 596,-267.5 849,-267.5 849,-237.5 596,-237.5"/>
<text text-anchor="start" x="603" y="-248.9" font-family="Arial" font-size="14.00" fill="#000000">login </text>
<text text-anchor="start" x="636.4516" y="-248.9" font-family="Arial" font-size="14.00" fill="#666666">[varchar(255)]</text>
<polygon fill="none" stroke="#000000" points="596,-207.5 596,-237.5 849,-237.5 849,-207.5 596,-207.5"/>
<text text-anchor="start" x="603" y="-218.9" font-family="Arial" font-size="14.00" fill="#000000">deleted_at </text>
<text text-anchor="start" x="672.2566" y="-218.9" font-family="Arial" font-size="14.00" fill="#666666">[timestamp with time zone]</text>
<polygon fill="none" stroke="#000000" points="596,-177.5 596,-207.5 849,-207.5 849,-177.5 596,-177.5"/>
<text text-anchor="start" x="602.6915" y="-188.9" font-family="Arial" font-size="14.00" fill="#000000">updated_at </text>
<text text-anchor="start" x="676.6241" y="-188.9" font-family="Arial" font-size="14.00" fill="#666666">[timestamp with time zone]</text>
</g>
<!-- public.users_to_repos_stars -->
<g id="node4" class="node">
<title>public.users_to_repos_stars</title>
<polygon fill="#efefef" stroke="transparent" points="1473,-964.5 1473,-999.5 1809,-999.5 1809,-964.5 1473,-964.5"/>
<polygon fill="none" stroke="#000000" points="1473,-964.5 1473,-999.5 1809,-999.5 1809,-964.5 1473,-964.5"/>
<text text-anchor="start" x="1479.847" y="-977.3" font-family="Arial Bold" font-size="18.00" fill="#000000">public.users_to_repos_stars</text>
<text text-anchor="start" x="1704.8992" y="-977.3" font-family="Arial" font-size="14.00" fill="#000000"> </text>
<text text-anchor="start" x="1708.7898" y="-977.3" font-family="Arial" font-size="14.00" fill="#666666">[BASE TABLE]</text>
<polygon fill="none" stroke="#000000" points="1473,-934.5 1473,-964.5 1809,-964.5 1809,-934.5 1473,-934.5"/>
<text text-anchor="start" x="1480" y="-945.9" font-family="Arial" font-size="14.00" fill="#000000">id </text>
<text text-anchor="start" x="1494.7798" y="-945.9" font-family="Arial" font-size="14.00" fill="#666666">[bigint]</text>
<polygon fill="none" stroke="#000000" points="1473,-904.5 1473,-934.5 1809,-934.5 1809,-904.5 1473,-904.5"/>
<text text-anchor="start" x="1480" y="-915.9" font-family="Arial" font-size="14.00" fill="#000000">user_id </text>
<text text-anchor="start" x="1529.7882" y="-915.9" font-family="Arial" font-size="14.00" fill="#666666">[bigint]</text>
<polygon fill="none" stroke="#000000" points="1473,-874.5 1473,-904.5 1809,-904.5 1809,-874.5 1473,-874.5"/>
<text text-anchor="start" x="1480" y="-885.9" font-family="Arial" font-size="14.00" fill="#000000">repo_id </text>
<text text-anchor="start" x="1530.5708" y="-885.9" font-family="Arial" font-size="14.00" fill="#666666">[bigint]</text>
<polygon fill="none" stroke="#000000" points="1473,-844.5 1473,-874.5 1809,-874.5 1809,-844.5 1473,-844.5"/>
<text text-anchor="start" x="1480" y="-855.9" font-family="Arial" font-size="14.00" fill="#000000">created_at </text>
<text text-anchor="start" x="1550.028" y="-855.9" font-family="Arial" font-size="14.00" fill="#666666">[timestamp with time zone]</text>
<polygon fill="none" stroke="#000000" points="1473,-814.5 1473,-844.5 1809,-844.5 1809,-814.5 1473,-814.5"/>
<text text-anchor="start" x="1480" y="-825.9" font-family="Arial" font-size="14.00" fill="#000000">updated_at </text>
<text text-anchor="start" x="1553.9326" y="-825.9" font-family="Arial" font-size="14.00" fill="#666666">[timestamp with time zone]</text>
<polygon fill="none" stroke="#000000" points="1473,-784.5 1473,-814.5 1809,-814.5 1809,-784.5 1473,-784.5"/>
<text text-anchor="start" x="1480" y="-795.9" font-family="Arial" font-size="14.00" fill="#000000">deleted_at </text>
<text text-anchor="start" x="1549.2566" y="-795.9" font-family="Arial" font-size="14.00" fill="#666666">[timestamp with time zone]</text>
</g>
<!-- public.users_to_repos_stars&#45;&gt;public.repos -->
<g id="edge2" class="edge">
<title>public.users_to_repos_stars:repo_id&#45;&gt;public.repos:id</title>
<path fill="none" stroke="#000000" d="M1462.8537,-888.9614C1389.5541,-880.6369 1448.2298,-777.5069 1421,-697 1401.0746,-638.0892 1430.1893,-567.5 1368,-567.5"/>
<polygon fill="#000000" stroke="#000000" points="1463.0141,-888.9698 1472.7614,-893.9937 1468.007,-889.2349 1473,-889.5 1473,-889.5 1473,-889.5 1468.007,-889.2349 1473.2386,-885.0063 1463.0141,-888.9698 1463.0141,-888.9698"/>
<text text-anchor="start" x="1420.2755" y="-873.5" font-family="Arial" font-size="10.00" fill="#000000">FOREIGN KEY (repo_id) REFERENCES repos(id)</text>
</g>
<!-- public.users_to_repos_stars&#45;&gt;public.users -->
<g id="edge3" class="edge">
<title>public.users_to_repos_stars:user_id&#45;&gt;public.users:id</title>
<path fill="none" stroke="#000000" d="M1462.8654,-918.8988C1380.3372,-908.3104 1495.3716,-760.641 1421,-697 1339.2228,-627.0219 1024.5301,-725.0077 938,-661 850.3798,-596.1859 957.987,-432.5 849,-432.5"/>
<polygon fill="#000000" stroke="#000000" points="1463.0175,-918.9077 1472.7335,-923.9921 1468.0088,-919.2039 1473,-919.5 1473,-919.5 1473,-919.5 1468.0088,-919.2039 1473.2665,-915.0079 1463.0175,-918.9077 1463.0175,-918.9077"/>
<text text-anchor="start" x="1421.0845" y="-903.5" font-family="Arial" font-size="10.00" fill="#000000">FOREIGN KEY (user_id) REFERENCES users(id)</text>
</g>
<!-- public.users_to_repos_votes -->
<g id="node5" class="node">
<title>public.users_to_repos_votes</title>
<polygon fill="#efefef" stroke="transparent" points="43,-964.5 43,-999.5 383,-999.5 383,-964.5 43,-964.5"/>
<polygon fill="none" stroke="#000000" points="43,-964.5 43,-999.5 383,-999.5 383,-964.5 43,-964.5"/>
<text text-anchor="start" x="49.84" y="-977.3" font-family="Arial Bold" font-size="18.00" fill="#000000">public.users_to_repos_votes</text>
<text text-anchor="start" x="278.9062" y="-977.3" font-family="Arial" font-size="14.00" fill="#000000"> </text>
<text text-anchor="start" x="282.7968" y="-977.3" font-family="Arial" font-size="14.00" fill="#666666">[BASE TABLE]</text>
<polygon fill="none" stroke="#000000" points="43,-934.5 43,-964.5 383,-964.5 383,-934.5 43,-934.5"/>
<text text-anchor="start" x="50" y="-945.9" font-family="Arial" font-size="14.00" fill="#000000">id </text>
<text text-anchor="start" x="64.7798" y="-945.9" font-family="Arial" font-size="14.00" fill="#666666">[bigint]</text>
<polygon fill="none" stroke="#000000" points="43,-904.5 43,-934.5 383,-934.5 383,-904.5 43,-904.5"/>
<text text-anchor="start" x="50" y="-915.9" font-family="Arial" font-size="14.00" fill="#000000">user_id </text>
<text text-anchor="start" x="99.7882" y="-915.9" font-family="Arial" font-size="14.00" fill="#666666">[bigint]</text>
<polygon fill="none" stroke="#000000" points="43,-874.5 43,-904.5 383,-904.5 383,-874.5 43,-874.5"/>
<text text-anchor="start" x="50" y="-885.9" font-family="Arial" font-size="14.00" fill="#000000">repo_id </text>
<text text-anchor="start" x="100.5708" y="-885.9" font-family="Arial" font-size="14.00" fill="#666666">[bigint]</text>
<polygon fill="none" stroke="#000000" points="43,-844.5 43,-874.5 383,-874.5 383,-844.5 43,-844.5"/>
<text text-anchor="start" x="50" y="-855.9" font-family="Arial" font-size="14.00" fill="#000000">created_at </text>
<text text-anchor="start" x="120.028" y="-855.9" font-family="Arial" font-size="14.00" fill="#666666">[timestamp with time zone]</text>
<polygon fill="none" stroke="#000000" points="43,-814.5 43,-844.5 383,-844.5 383,-814.5 43,-814.5"/>
<text text-anchor="start" x="50" y="-825.9" font-family="Arial" font-size="14.00" fill="#000000">updated_at </text>
<text text-anchor="start" x="123.9326" y="-825.9" font-family="Arial" font-size="14.00" fill="#666666">[timestamp with time zone]</text>
<polygon fill="none" stroke="#000000" points="43,-784.5 43,-814.5 383,-814.5 383,-784.5 43,-784.5"/>
<text text-anchor="start" x="50" y="-795.9" font-family="Arial" font-size="14.00" fill="#000000">deleted_at </text>
<text text-anchor="start" x="119.2566" y="-795.9" font-family="Arial" font-size="14.00" fill="#666666">[timestamp with time zone]</text>
</g>
<!-- public.users_to_repos_votes&#45;&gt;public.repos -->
<g id="edge4" class="edge">
<title>public.users_to_repos_votes:repo_id&#45;&gt;public.repos:id</title>
<path fill="none" stroke="#000000" d="M393.3814,-888.7641C462.9309,-877.9639 369.7017,-751.1255 435,-697 514.7942,-630.8588 806.2676,-705.2268 900,-661 952.1638,-636.387 932.321,-567.5 990,-567.5"/>
<polygon fill="#000000" stroke="#000000" points="392.975,-888.7928 382.6818,-885.0113 387.9875,-889.1464 383,-889.5 383,-889.5 383,-889.5 387.9875,-889.1464 383.3182,-893.9887 392.975,-888.7928 392.975,-888.7928"/>
<text text-anchor="start" x="389.7755" y="-899.5" font-family="Arial" font-size="10.00" fill="#000000">FOREIGN KEY (repo_id) REFERENCES repos(id)</text>
</g>
<!-- public.users_to_repos_votes&#45;&gt;public.users -->
<g id="edge5" class="edge">
<title>public.users_to_repos_votes:user_id&#45;&gt;public.users:id</title>
<path fill="none" stroke="#000000" d="M393.0216,-919.0306C478.5229,-910.5073 397.9121,-787.6931 435,-697 487.0911,-569.6186 458.3791,-432.5 596,-432.5"/>
<polygon fill="#000000" stroke="#000000" points="392.989,-919.032 382.7894,-915.0049 387.9945,-919.266 383,-919.5 383,-919.5 383,-919.5 387.9945,-919.266 383.2106,-923.9951 392.989,-919.032 392.989,-919.032"/>
<text text-anchor="start" x="390.3345" y="-929.5" font-family="Arial" font-size="10.00" fill="#000000">FOREIGN KEY (user_id) REFERENCES users(id)</text>
</g>
<!-- public.private_access_tokens -->
<g id="node6" class="node">
<title>public.private_access_tokens</title>
<polygon fill="#efefef" stroke="transparent" points="2317,-964.5 2317,-999.5 2663,-999.5 2663,-964.5 2317,-964.5"/>
<polygon fill="none" stroke="#000000" points="2317,-964.5 2317,-999.5 2663,-999.5 2663,-964.5 2317,-964.5"/>
<text text-anchor="start" x="2323.8421" y="-977.3" font-family="Arial Bold" font-size="18.00" fill="#000000">public.private_access_tokens</text>
<text text-anchor="start" x="2558.9041" y="-977.3" font-family="Arial" font-size="14.00" fill="#000000"> </text>
<text text-anchor="start" x="2562.7947" y="-977.3" font-family="Arial" font-size="14.00" fill="#666666">[BASE TABLE]</text>
<polygon fill="none" stroke="#000000" points="2317,-934.5 2317,-964.5 2663,-964.5 2663,-934.5 2317,-934.5"/>
<text text-anchor="start" x="2324" y="-945.9" font-family="Arial" font-size="14.00" fill="#000000">id </text>
<text text-anchor="start" x="2338.7798" y="-945.9" font-family="Arial" font-size="14.00" fill="#666666">[bigint]</text>
<polygon fill="none" stroke="#000000" points="2317,-904.5 2317,-934.5 2663,-934.5 2663,-904.5 2317,-904.5"/>
<text text-anchor="start" x="2324" y="-915.9" font-family="Arial" font-size="14.00" fill="#000000">user_id </text>
<text text-anchor="start" x="2373.7882" y="-915.9" font-family="Arial" font-size="14.00" fill="#666666">[bigint]</text>
<polygon fill="none" stroke="#000000" points="2317,-874.5 2317,-904.5 2663,-904.5 2663,-874.5 2317,-874.5"/>
<text text-anchor="start" x="2324" y="-885.9" font-family="Arial" font-size="14.00" fill="#000000">is_deleted </text>
<text text-anchor="start" x="2391.69" y="-885.9" font-family="Arial" font-size="14.00" fill="#666666">[boolean]</text>
<polygon fill="none" stroke="#000000" points="2317,-844.5 2317,-874.5 2663,-874.5 2663,-844.5 2317,-844.5"/>
<text text-anchor="start" x="2324" y="-855.9" font-family="Arial" font-size="14.00" fill="#000000">created_at </text>
<text text-anchor="start" x="2394.028" y="-855.9" font-family="Arial" font-size="14.00" fill="#666666">[timestamp with time zone]</text>
<polygon fill="none" stroke="#000000" points="2317,-814.5 2317,-844.5 2663,-844.5 2663,-814.5 2317,-814.5"/>
<text text-anchor="start" x="2324" y="-825.9" font-family="Arial" font-size="14.00" fill="#000000">expired_at </text>
<text text-anchor="start" x="2393.244" y="-825.9" font-family="Arial" font-size="14.00" fill="#666666">[timestamp with time zone]</text>
<polygon fill="none" stroke="#000000" points="2317,-784.5 2317,-814.5 2663,-814.5 2663,-784.5 2317,-784.5"/>
<text text-anchor="start" x="2324" y="-795.9" font-family="Arial" font-size="14.00" fill="#000000">token </text>
<text text-anchor="start" x="2362.129" y="-795.9" font-family="Arial" font-size="14.00" fill="#666666">[varchar]</text>
</g>
<!-- public.users_to_repos_submissions -->
<g id="node7" class="node">
<title>public.users_to_repos_submissions</title>
<polygon fill="#efefef" stroke="transparent" points="487,-964.5 487,-999.5 883,-999.5 883,-964.5 487,-964.5"/>
<polygon fill="none" stroke="#000000" points="487,-964.5 487,-999.5 883,-999.5 883,-964.5 487,-964.5"/>
<text text-anchor="start" x="493.8446" y="-977.3" font-family="Arial Bold" font-size="18.00" fill="#000000">public.users_to_repos_submissions</text>
<text text-anchor="start" x="778.9016" y="-977.3" font-family="Arial" font-size="14.00" fill="#000000"> </text>
<text text-anchor="start" x="782.7922" y="-977.3" font-family="Arial" font-size="14.00" fill="#666666">[BASE TABLE]</text>
<polygon fill="none" stroke="#000000" points="487,-934.5 487,-964.5 883,-964.5 883,-934.5 487,-934.5"/>
<text text-anchor="start" x="494" y="-945.9" font-family="Arial" font-size="14.00" fill="#000000">id </text>
<text text-anchor="start" x="508.7798" y="-945.9" font-family="Arial" font-size="14.00" fill="#666666">[bigint]</text>
<polygon fill="none" stroke="#000000" points="487,-904.5 487,-934.5 883,-934.5 883,-904.5 487,-904.5"/>
<text text-anchor="start" x="494" y="-915.9" font-family="Arial" font-size="14.00" fill="#000000">user_id </text>
<text text-anchor="start" x="543.7882" y="-915.9" font-family="Arial" font-size="14.00" fill="#666666">[bigint]</text>
<polygon fill="none" stroke="#000000" points="487,-874.5 487,-904.5 883,-904.5 883,-874.5 487,-874.5"/>
<text text-anchor="start" x="494" y="-885.9" font-family="Arial" font-size="14.00" fill="#000000">repo_id </text>
<text text-anchor="start" x="544.5708" y="-885.9" font-family="Arial" font-size="14.00" fill="#666666">[bigint]</text>
<polygon fill="none" stroke="#000000" points="487,-844.5 487,-874.5 883,-874.5 883,-844.5 487,-844.5"/>
<text text-anchor="start" x="494" y="-855.9" font-family="Arial" font-size="14.00" fill="#000000">created_at </text>
<text text-anchor="start" x="564.028" y="-855.9" font-family="Arial" font-size="14.00" fill="#666666">[timestamp with time zone]</text>
<polygon fill="none" stroke="#000000" points="487,-814.5 487,-844.5 883,-844.5 883,-814.5 487,-814.5"/>
<text text-anchor="start" x="494" y="-825.9" font-family="Arial" font-size="14.00" fill="#000000">updated_at </text>
<text text-anchor="start" x="567.9326" y="-825.9" font-family="Arial" font-size="14.00" fill="#666666">[timestamp with time zone]</text>
<polygon fill="none" stroke="#000000" points="487,-784.5 487,-814.5 883,-814.5 883,-784.5 487,-784.5"/>
<text text-anchor="start" x="494" y="-795.9" font-family="Arial" font-size="14.00" fill="#000000">deleted_at </text>
<text text-anchor="start" x="563.2566" y="-795.9" font-family="Arial" font-size="14.00" fill="#666666">[timestamp with time zone]</text>
</g>
<!-- public.users_to_repos_submissions&#45;&gt;public.repos -->
<g id="edge6" class="edge">
<title>public.users_to_repos_submissions:repo_id&#45;&gt;public.repos:id</title>
<path fill="none" stroke="#000000" d="M893.1437,-888.9604C966.4025,-880.6221 907.2412,-777.326 935,-697 955.4242,-637.8982 927.4686,-567.5 990,-567.5"/>
<polygon fill="#000000" stroke="#000000" points="892.9859,-888.9687 882.7609,-885.0064 887.9929,-889.2344 883,-889.5 883,-889.5 883,-889.5 887.9929,-889.2344 883.2391,-893.9936 892.9859,-888.9687 892.9859,-888.9687"/>
<text text-anchor="start" x="889.7755" y="-899.5" font-family="Arial" font-size="10.00" fill="#000000">FOREIGN KEY (repo_id) REFERENCES repos(id)</text>
</g>
<!-- public.users_to_repos_submissions&#45;&gt;public.users -->
<g id="edge7" class="edge">
<title>public.users_to_repos_submissions:user_id&#45;&gt;public.users:id</title>
<path fill="none" stroke="#000000" d="M893.2994,-918.81C957.8136,-909.557 916.5702,-809.2809 883,-742 811.724,-599.1499 667.276,-668.8501 596,-526 577.4468,-488.8161 554.4444,-432.5 596,-432.5"/>
<polygon fill="#000000" stroke="#000000" points="892.9776,-918.8315 882.6992,-915.0101 887.9888,-919.1657 883,-919.5 883,-919.5 883,-919.5 887.9888,-919.1657 883.3008,-923.9899 892.9776,-918.8315 892.9776,-918.8315"/>
<text text-anchor="start" x="890.3345" y="-929.5" font-family="Arial" font-size="10.00" fill="#000000">FOREIGN KEY (user_id) REFERENCES users(id)</text>
</g>
<!-- public.users_to_repos_stargazers -->
<g id="node8" class="node">
<title>public.users_to_repos_stargazers</title>
<polygon fill="#efefef" stroke="transparent" points="988,-964.5 988,-999.5 1369,-999.5 1369,-964.5 988,-964.5"/>
<polygon fill="none" stroke="#000000" points="988,-964.5 988,-999.5 1369,-999.5 1369,-964.5 988,-964.5"/>
<text text-anchor="start" x="994.8416" y="-977.3" font-family="Arial Bold" font-size="18.00" fill="#000000">public.users_to_repos_stargazers</text>
<text text-anchor="start" x="1264.9046" y="-977.3" font-family="Arial" font-size="14.00" fill="#000000"> </text>
<text text-anchor="start" x="1268.7952" y="-977.3" font-family="Arial" font-size="14.00" fill="#666666">[BASE TABLE]</text>
<polygon fill="none" stroke="#000000" points="988,-934.5 988,-964.5 1369,-964.5 1369,-934.5 988,-934.5"/>
<text text-anchor="start" x="995" y="-945.9" font-family="Arial" font-size="14.00" fill="#000000">id </text>
<text text-anchor="start" x="1009.7798" y="-945.9" font-family="Arial" font-size="14.00" fill="#666666">[bigint]</text>
<polygon fill="none" stroke="#000000" points="988,-904.5 988,-934.5 1369,-934.5 1369,-904.5 988,-904.5"/>
<text text-anchor="start" x="995" y="-915.9" font-family="Arial" font-size="14.00" fill="#000000">user_id </text>
<text text-anchor="start" x="1044.7882" y="-915.9" font-family="Arial" font-size="14.00" fill="#666666">[bigint]</text>
<polygon fill="none" stroke="#000000" points="988,-874.5 988,-904.5 1369,-904.5 1369,-874.5 988,-874.5"/>
<text text-anchor="start" x="995" y="-885.9" font-family="Arial" font-size="14.00" fill="#000000">repo_id </text>
<text text-anchor="start" x="1045.5708" y="-885.9" font-family="Arial" font-size="14.00" fill="#666666">[bigint]</text>
<polygon fill="none" stroke="#000000" points="988,-844.5 988,-874.5 1369,-874.5 1369,-844.5 988,-844.5"/>
<text text-anchor="start" x="995" y="-855.9" font-family="Arial" font-size="14.00" fill="#000000">created_at </text>
<text text-anchor="start" x="1065.028" y="-855.9" font-family="Arial" font-size="14.00" fill="#666666">[timestamp without time zone]</text>
<polygon fill="none" stroke="#000000" points="988,-814.5 988,-844.5 1369,-844.5 1369,-814.5 988,-814.5"/>
<text text-anchor="start" x="995" y="-825.9" font-family="Arial" font-size="14.00" fill="#000000">updated_at </text>
<text text-anchor="start" x="1068.9326" y="-825.9" font-family="Arial" font-size="14.00" fill="#666666">[timestamp without time zone]</text>
<polygon fill="none" stroke="#000000" points="988,-784.5 988,-814.5 1369,-814.5 1369,-784.5 988,-784.5"/>
<text text-anchor="start" x="995" y="-795.9" font-family="Arial" font-size="14.00" fill="#000000">deleted_at </text>
<text text-anchor="start" x="1064.2566" y="-795.9" font-family="Arial" font-size="14.00" fill="#666666">[timestamp without time zone]</text>
</g>
<!-- public.users_to_repos_stargazers&#45;&gt;public.repos -->
<g id="edge8" class="edge">
<title>public.users_to_repos_stargazers:repo_id&#45;&gt;public.repos:id</title>
<path fill="none" stroke="#000000" d="M1379.2875,-888.5968C1431.7454,-878.711 1407.892,-790.0823 1369,-742 1260.6751,-608.0775 1098.3249,-794.9225 990,-661 963.8662,-628.6907 948.4444,-567.5 990,-567.5"/>
<polygon fill="#000000" stroke="#000000" points="1378.9617,-888.6253 1368.6064,-885.0172 1373.9808,-889.0626 1369,-889.5 1369,-889.5 1369,-889.5 1373.9808,-889.0626 1369.3936,-893.9828 1378.9617,-888.6253 1378.9617,-888.6253"/>
<text text-anchor="start" x="1137.7755" y="-899.5" font-family="Arial" font-size="10.00" fill="#000000">FOREIGN KEY (repo_id) REFERENCES repos(id)</text>
</g>
<!-- public.users_to_repos_stargazers&#45;&gt;public.users -->
<g id="edge9" class="edge">
<title>public.users_to_repos_stargazers:user_id&#45;&gt;public.users:id</title>
<path fill="none" stroke="#000000" d="M978.1737,-917.0294C938.6762,-895.708 947.7908,-742.4899 935,-697 901.54,-578.0014 972.6133,-432.5 849,-432.5"/>
<polygon fill="#000000" stroke="#000000" points="978.3018,-917.0615 986.9027,-923.8642 983.1509,-918.2808 988,-919.5 988,-919.5 988,-919.5 983.1509,-918.2808 989.0973,-915.1358 978.3018,-917.0615 978.3018,-917.0615"/>
<text text-anchor="start" x="995.3345" y="-929.5" font-family="Arial" font-size="10.00" fill="#000000">FOREIGN KEY (user_id) REFERENCES users(id)</text>
</g>
</g>
</svg>
