<?xml version="1.0" encoding="UTF-8" standalone="no"?>
<!DOCTYPE svg PUBLIC "-//W3C//DTD SVG 1.1//EN"
 "http://www.w3.org/Graphics/SVG/1.1/DTD/svg11.dtd">
<!-- Generated by graphviz version 2.40.1 (20161225.0304)
 -->
<!-- Title: hot.opensauced.pizza supabase Pages: 1 -->
<svg width="1301pt" height="1283pt"
 viewBox="0.00 0.00 1301.00 1283.00" xmlns="http://www.w3.org/2000/svg" xmlns:xlink="http://www.w3.org/1999/xlink">
<g id="graph0" class="graph" transform="scale(1 1) rotate(0) translate(4 1279)">
<title>hot.opensauced.pizza supabase</title>
<polygon fill="#ffffff" stroke="transparent" points="-4,4 -4,-1279 1297,-1279 1297,4 -4,4"/>
<!-- public.repos -->
<g id="node1" class="node">
<title>public.repos</title>
<polygon fill="#efefef" stroke="transparent" points="457,-919.5 457,-954.5 835,-954.5 835,-919.5 457,-919.5"/>
<polygon fill="none" stroke="#000000" points="457,-919.5 457,-954.5 835,-954.5 835,-919.5 457,-919.5"/>
<text text-anchor="start" x="548.8631" y="-932.3" font-family="Arial Bold" font-size="18.00" fill="#000000">public.repos</text>
<text text-anchor="start" x="645.8831" y="-932.3" font-family="Arial" font-size="14.00" fill="#000000"> </text>
<text text-anchor="start" x="649.7737" y="-932.3" font-family="Arial" font-size="14.00" fill="#666666">[BASE TABLE]</text>
<polygon fill="none" stroke="#000000" points="457,-889.5 457,-919.5 835,-919.5 835,-889.5 457,-889.5"/>
<text text-anchor="start" x="464" y="-900.9" font-family="Arial" font-size="14.00" fill="#000000">id </text>
<text text-anchor="start" x="478.7798" y="-900.9" font-family="Arial" font-size="14.00" fill="#666666">[bigint]</text>
<polygon fill="none" stroke="#000000" points="457,-859.5 457,-889.5 835,-889.5 835,-859.5 457,-859.5"/>
<text text-anchor="start" x="464" y="-870.9" font-family="Arial" font-size="14.00" fill="#000000">user_id </text>
<text text-anchor="start" x="513.7882" y="-870.9" font-family="Arial" font-size="14.00" fill="#666666">[bigint]</text>
<polygon fill="none" stroke="#000000" points="457,-829.5 457,-859.5 835,-859.5 835,-829.5 457,-829.5"/>
<text text-anchor="start" x="464" y="-840.9" font-family="Arial" font-size="14.00" fill="#000000">issues </text>
<text text-anchor="start" x="507.5624" y="-840.9" font-family="Arial" font-size="14.00" fill="#666666">[bigint]</text>
<polygon fill="none" stroke="#000000" points="457,-799.5 457,-829.5 835,-829.5 835,-799.5 457,-799.5"/>
<text text-anchor="start" x="464" y="-810.9" font-family="Arial" font-size="14.00" fill="#000000">stars </text>
<text text-anchor="start" x="498.2244" y="-810.9" font-family="Arial" font-size="14.00" fill="#666666">[bigint]</text>
<polygon fill="none" stroke="#000000" points="457,-769.5 457,-799.5 835,-799.5 835,-769.5 457,-769.5"/>
<text text-anchor="start" x="464" y="-780.9" font-family="Arial" font-size="14.00" fill="#000000">watchers </text>
<text text-anchor="start" x="523.8962" y="-780.9" font-family="Arial" font-size="14.00" fill="#666666">[bigint]</text>
<polygon fill="none" stroke="#000000" points="457,-739.5 457,-769.5 835,-769.5 835,-739.5 457,-739.5"/>
<text text-anchor="start" x="464" y="-750.9" font-family="Arial" font-size="14.00" fill="#000000">subscribers </text>
<text text-anchor="start" x="539.4488" y="-750.9" font-family="Arial" font-size="14.00" fill="#666666">[bigint]</text>
<polygon fill="none" stroke="#000000" points="457,-709.5 457,-739.5 835,-739.5 835,-709.5 457,-709.5"/>
<text text-anchor="start" x="464" y="-720.9" font-family="Arial" font-size="14.00" fill="#000000">is_fork </text>
<text text-anchor="start" x="509.1136" y="-720.9" font-family="Arial" font-size="14.00" fill="#666666">[boolean]</text>
<polygon fill="none" stroke="#000000" points="457,-679.5 457,-709.5 835,-709.5 835,-679.5 457,-679.5"/>
<text text-anchor="start" x="464" y="-690.9" font-family="Arial" font-size="14.00" fill="#000000">created_at </text>
<text text-anchor="start" x="534.028" y="-690.9" font-family="Arial" font-size="14.00" fill="#666666">[timestamp without time zone]</text>
<polygon fill="none" stroke="#000000" points="457,-649.5 457,-679.5 835,-679.5 835,-649.5 457,-649.5"/>
<text text-anchor="start" x="464" y="-660.9" font-family="Arial" font-size="14.00" fill="#000000">updated_at </text>
<text text-anchor="start" x="537.9326" y="-660.9" font-family="Arial" font-size="14.00" fill="#666666">[timestamp without time zone]</text>
<polygon fill="none" stroke="#000000" points="457,-619.5 457,-649.5 835,-649.5 835,-619.5 457,-619.5"/>
<text text-anchor="start" x="464" y="-630.9" font-family="Arial" font-size="14.00" fill="#000000">pushed_at </text>
<text text-anchor="start" x="533.2594" y="-630.9" font-family="Arial" font-size="14.00" fill="#666666">[timestamp without time zone]</text>
<polygon fill="none" stroke="#000000" points="457,-589.5 457,-619.5 835,-619.5 835,-589.5 457,-589.5"/>
<text text-anchor="start" x="463.5674" y="-600.9" font-family="Arial" font-size="14.00" fill="#000000">last_fetched_contributors_at </text>
<text text-anchor="start" x="643.2924" y="-600.9" font-family="Arial" font-size="14.00" fill="#666666">[timestamp without time zone]</text>
<polygon fill="none" stroke="#000000" points="457,-559.5 457,-589.5 835,-589.5 835,-559.5 457,-559.5"/>
<text text-anchor="start" x="464" y="-570.9" font-family="Arial" font-size="14.00" fill="#000000">name </text>
<text text-anchor="start" x="502.899" y="-570.9" font-family="Arial" font-size="14.00" fill="#666666">[varchar(255)]</text>
<polygon fill="none" stroke="#000000" points="457,-529.5 457,-559.5 835,-559.5 835,-529.5 457,-529.5"/>
<text text-anchor="start" x="464" y="-540.9" font-family="Arial" font-size="14.00" fill="#000000">full_name </text>
<text text-anchor="start" x="528.568" y="-540.9" font-family="Arial" font-size="14.00" fill="#666666">[varchar(255)]</text>
<polygon fill="none" stroke="#000000" points="457,-499.5 457,-529.5 835,-529.5 835,-499.5 457,-499.5"/>
<text text-anchor="start" x="464" y="-510.9" font-family="Arial" font-size="14.00" fill="#000000">description </text>
<text text-anchor="start" x="535.568" y="-510.9" font-family="Arial" font-size="14.00" fill="#666666">[text]</text>
<polygon fill="none" stroke="#000000" points="457,-469.5 457,-499.5 835,-499.5 835,-469.5 457,-469.5"/>
<text text-anchor="start" x="464" y="-480.9" font-family="Arial" font-size="14.00" fill="#000000">language </text>
<text text-anchor="start" x="525.4754" y="-480.9" font-family="Arial" font-size="14.00" fill="#666666">[varchar(64)]</text>
<polygon fill="none" stroke="#000000" points="457,-439.5 457,-469.5 835,-469.5 835,-439.5 457,-439.5"/>
<text text-anchor="start" x="464" y="-450.9" font-family="Arial" font-size="14.00" fill="#000000">license </text>
<text text-anchor="start" x="511.4516" y="-450.9" font-family="Arial" font-size="14.00" fill="#666666">[varchar(64)]</text>
<polygon fill="none" stroke="#000000" points="457,-409.5 457,-439.5 835,-439.5 835,-409.5 457,-409.5"/>
<text text-anchor="start" x="464" y="-420.9" font-family="Arial" font-size="14.00" fill="#000000">url </text>
<text text-anchor="start" x="483.4404" y="-420.9" font-family="Arial" font-size="14.00" fill="#666666">[varchar(255)]</text>
</g>
<!-- public.users -->
<g id="node2" class="node">
<title>public.users</title>
<polygon fill="#efefef" stroke="transparent" points="521,-252.5 521,-287.5 770,-287.5 770,-252.5 521,-252.5"/>
<polygon fill="none" stroke="#000000" points="521,-252.5 521,-287.5 770,-287.5 770,-252.5 521,-252.5"/>
<text text-anchor="start" x="548.8662" y="-265.3" font-family="Arial Bold" font-size="18.00" fill="#000000">public.users</text>
<text text-anchor="start" x="644.88" y="-265.3" font-family="Arial" font-size="14.00" fill="#000000"> </text>
<text text-anchor="start" x="648.7706" y="-265.3" font-family="Arial" font-size="14.00" fill="#666666">[BASE TABLE]</text>
<polygon fill="none" stroke="#000000" points="521,-222.5 521,-252.5 770,-252.5 770,-222.5 521,-222.5"/>
<text text-anchor="start" x="528" y="-233.9" font-family="Arial" font-size="14.00" fill="#000000">id </text>
<text text-anchor="start" x="542.7798" y="-233.9" font-family="Arial" font-size="14.00" fill="#666666">[bigint]</text>
<polygon fill="none" stroke="#000000" points="521,-192.5 521,-222.5 770,-222.5 770,-192.5 521,-192.5"/>
<text text-anchor="start" x="528" y="-203.9" font-family="Arial" font-size="14.00" fill="#000000">open_issues </text>
<text text-anchor="start" x="610.4754" y="-203.9" font-family="Arial" font-size="14.00" fill="#666666">[bigint]</text>
<polygon fill="none" stroke="#000000" points="521,-162.5 521,-192.5 770,-192.5 770,-162.5 521,-162.5"/>
<text text-anchor="start" x="528" y="-173.9" font-family="Arial" font-size="14.00" fill="#000000">has_stars_data </text>
<text text-anchor="start" x="627.5932" y="-173.9" font-family="Arial" font-size="14.00" fill="#666666">[boolean]</text>
<polygon fill="none" stroke="#000000" points="521,-132.5 521,-162.5 770,-162.5 770,-132.5 521,-132.5"/>
<text text-anchor="start" x="528" y="-143.9" font-family="Arial" font-size="14.00" fill="#000000">is_private </text>
<text text-anchor="start" x="591.7854" y="-143.9" font-family="Arial" font-size="14.00" fill="#666666">[boolean]</text>
<polygon fill="none" stroke="#000000" points="521,-102.5 521,-132.5 770,-132.5 770,-102.5 521,-102.5"/>
<text text-anchor="start" x="528" y="-113.9" font-family="Arial" font-size="14.00" fill="#000000">is_open_sauced_member </text>
<text text-anchor="start" x="692.9354" y="-113.9" font-family="Arial" font-size="14.00" fill="#666666">[boolean]</text>
<polygon fill="none" stroke="#000000" points="521,-72.5 521,-102.5 770,-102.5 770,-72.5 521,-72.5"/>
<text text-anchor="start" x="527.6438" y="-83.9" font-family="Arial" font-size="14.00" fill="#000000">created_at </text>
<text text-anchor="start" x="597.6718" y="-83.9" font-family="Arial" font-size="14.00" fill="#666666">[timestamp with time zone]</text>
<polygon fill="none" stroke="#000000" points="521,-42.5 521,-72.5 770,-72.5 770,-42.5 521,-42.5"/>
<text text-anchor="start" x="528" y="-53.9" font-family="Arial" font-size="14.00" fill="#000000">login </text>
<text text-anchor="start" x="561.4516" y="-53.9" font-family="Arial" font-size="14.00" fill="#666666">[varchar(255)]</text>
</g>
<!-- public.repos&#45;&gt;public.users -->
<g id="edge5" class="edge">
<title>public.repos:user_id&#45;&gt;public.users:id</title>
<path fill="none" stroke="#000000" stroke-dasharray="5,2" d="M447.8516,-869.8852C402.8857,-821.413 421.6729,-406.6232 457,-367 550.1865,-262.4812 676.8135,-435.5188 770,-331 797.6545,-299.9824 811.5556,-237.5 770,-237.5"/>
<polygon fill="#000000" stroke="#000000" points="448.0716,-869.9961 454.9733,-878.5178 452.5358,-872.2481 457,-874.5 457,-874.5 457,-874.5 452.5358,-872.2481 459.0267,-870.4822 448.0716,-869.9961 448.0716,-869.9961"/>
<text text-anchor="start" x="371.268" y="-884.5" font-family="Arial" font-size="10.00" fill="#000000">Detected Relation</text>
</g>
<!-- public.users_to_repos_stars -->
<g id="node3" class="node">
<title>public.users_to_repos_stars</title>
<polygon fill="#efefef" stroke="transparent" points="237,-1196.5 237,-1231.5 573,-1231.5 573,-1196.5 237,-1196.5"/>
<polygon fill="none" stroke="#000000" points="237,-1196.5 237,-1231.5 573,-1231.5 573,-1196.5 237,-1196.5"/>
<text text-anchor="start" x="243.847" y="-1209.3" font-family="Arial Bold" font-size="18.00" fill="#000000">public.users_to_repos_stars</text>
<text text-anchor="start" x="468.8992" y="-1209.3" font-family="Arial" font-size="14.00" fill="#000000"> </text>
<text text-anchor="start" x="472.7898" y="-1209.3" font-family="Arial" font-size="14.00" fill="#666666">[BASE TABLE]</text>
<polygon fill="none" stroke="#000000" points="237,-1166.5 237,-1196.5 573,-1196.5 573,-1166.5 237,-1166.5"/>
<text text-anchor="start" x="244" y="-1177.9" font-family="Arial" font-size="14.00" fill="#000000">id </text>
<text text-anchor="start" x="258.7798" y="-1177.9" font-family="Arial" font-size="14.00" fill="#666666">[bigint]</text>
<polygon fill="none" stroke="#000000" points="237,-1136.5 237,-1166.5 573,-1166.5 573,-1136.5 237,-1136.5"/>
<text text-anchor="start" x="244" y="-1147.9" font-family="Arial" font-size="14.00" fill="#000000">user_id </text>
<text text-anchor="start" x="293.7882" y="-1147.9" font-family="Arial" font-size="14.00" fill="#666666">[bigint]</text>
<polygon fill="none" stroke="#000000" points="237,-1106.5 237,-1136.5 573,-1136.5 573,-1106.5 237,-1106.5"/>
<text text-anchor="start" x="244" y="-1117.9" font-family="Arial" font-size="14.00" fill="#000000">repo_id </text>
<text text-anchor="start" x="294.5708" y="-1117.9" font-family="Arial" font-size="14.00" fill="#666666">[bigint]</text>
<polygon fill="none" stroke="#000000" points="237,-1076.5 237,-1106.5 573,-1106.5 573,-1076.5 237,-1076.5"/>
<text text-anchor="start" x="244" y="-1087.9" font-family="Arial" font-size="14.00" fill="#000000">created_at </text>
<text text-anchor="start" x="314.028" y="-1087.9" font-family="Arial" font-size="14.00" fill="#666666">[timestamp with time zone]</text>
</g>
<!-- public.users_to_repos_stars&#45;&gt;public.repos -->
<g id="edge1" class="edge">
<title>public.users_to_repos_stars:repo_id&#45;&gt;public.repos:id</title>
<path fill="none" stroke="#000000" d="M583.2056,-1119.8461C608.6002,-1110.343 593.7234,-1062.1299 573,-1034 540.9822,-990.5392 489.0178,-1041.4608 457,-998 432.3523,-964.5433 415.4444,-904.5 457,-904.5"/>
<polygon fill="#000000" stroke="#000000" points="582.8712,-1119.9002 572.2801,-1117.0579 577.9356,-1120.7001 573,-1121.5 573,-1121.5 573,-1121.5 577.9356,-1120.7001 573.7199,-1125.9421 582.8712,-1119.9002 582.8712,-1119.9002"/>
<text text-anchor="start" x="579.7755" y="-1131.5" font-family="Arial" font-size="10.00" fill="#000000">FOREIGN KEY (repo_id) REFERENCES repos(id)</text>
</g>
<!-- public.users_to_repos_stars&#45;&gt;public.users -->
<g id="edge2" class="edge">
<title>public.users_to_repos_stars:user_id&#45;&gt;public.users:id</title>
<path fill="none" stroke="#000000" d="M226.8151,-1150.7526C33.7198,-1121.4043 311.8408,-237.5 521,-237.5"/>
<polygon fill="#000000" stroke="#000000" points="227.0268,-1150.7681 236.6706,-1155.9879 232.0134,-1151.134 237,-1151.5 237,-1151.5 237,-1151.5 232.0134,-1151.134 237.3294,-1147.0121 227.0268,-1150.7681 227.0268,-1150.7681"/>
<text text-anchor="start" x="7.3345" y="-1161.5" font-family="Arial" font-size="10.00" fill="#000000">FOREIGN KEY (user_id) REFERENCES users(id)</text>
</g>
<!-- public.users_to_repos_votes -->
<g id="node4" class="node">
<title>public.users_to_repos_votes</title>
<polygon fill="#efefef" stroke="transparent" points="716,-1196.5 716,-1231.5 1056,-1231.5 1056,-1196.5 716,-1196.5"/>
<polygon fill="none" stroke="#000000" points="716,-1196.5 716,-1231.5 1056,-1231.5 1056,-1196.5 716,-1196.5"/>
<text text-anchor="start" x="722.84" y="-1209.3" font-family="Arial Bold" font-size="18.00" fill="#000000">public.users_to_repos_votes</text>
<text text-anchor="start" x="951.9062" y="-1209.3" font-family="Arial" font-size="14.00" fill="#000000"> </text>
<text text-anchor="start" x="955.7968" y="-1209.3" font-family="Arial" font-size="14.00" fill="#666666">[BASE TABLE]</text>
<polygon fill="none" stroke="#000000" points="716,-1166.5 716,-1196.5 1056,-1196.5 1056,-1166.5 716,-1166.5"/>
<text text-anchor="start" x="723" y="-1177.9" font-family="Arial" font-size="14.00" fill="#000000">id </text>
<text text-anchor="start" x="737.7798" y="-1177.9" font-family="Arial" font-size="14.00" fill="#666666">[bigint]</text>
<polygon fill="none" stroke="#000000" points="716,-1136.5 716,-1166.5 1056,-1166.5 1056,-1136.5 716,-1136.5"/>
<text text-anchor="start" x="723" y="-1147.9" font-family="Arial" font-size="14.00" fill="#000000">user_id </text>
<text text-anchor="start" x="772.7882" y="-1147.9" font-family="Arial" font-size="14.00" fill="#666666">[bigint]</text>
<polygon fill="none" stroke="#000000" points="716,-1106.5 716,-1136.5 1056,-1136.5 1056,-1106.5 716,-1106.5"/>
<text text-anchor="start" x="723" y="-1117.9" font-family="Arial" font-size="14.00" fill="#000000">repo_id </text>
<text text-anchor="start" x="773.5708" y="-1117.9" font-family="Arial" font-size="14.00" fill="#666666">[bigint]</text>
<polygon fill="none" stroke="#000000" points="716,-1076.5 716,-1106.5 1056,-1106.5 1056,-1076.5 716,-1076.5"/>
<text text-anchor="start" x="723" y="-1087.9" font-family="Arial" font-size="14.00" fill="#000000">created_at </text>
<text text-anchor="start" x="793.028" y="-1087.9" font-family="Arial" font-size="14.00" fill="#666666">[timestamp with time zone]</text>
</g>
<!-- public.users_to_repos_votes&#45;&gt;public.repos -->
<g id="edge3" class="edge">
<title>public.users_to_repos_votes:repo_id&#45;&gt;public.repos:id</title>
<path fill="none" stroke="#000000" d="M705.7912,-1119.8438C680.3794,-1110.3279 695.1761,-1062.0556 716,-1034 748.9328,-989.6303 802.0672,-1042.3697 835,-998 859.7672,-964.6316 876.5556,-904.5 835,-904.5"/>
<polygon fill="#000000" stroke="#000000" points="706.129,-1119.8986 715.2793,-1125.9419 711.0645,-1120.6993 716,-1121.5 716,-1121.5 716,-1121.5 711.0645,-1120.6993 716.7207,-1117.0581 706.129,-1119.8986 706.129,-1119.8986"/>
<text text-anchor="start" x="544.2755" y="-1105.5" font-family="Arial" font-size="10.00" fill="#000000">FOREIGN KEY (repo_id) REFERENCES repos(id)</text>
</g>
<!-- public.users_to_repos_votes&#45;&gt;public.users -->
<g id="edge4" class="edge">
<title>public.users_to_repos_votes:user_id&#45;&gt;public.users:id</title>
<path fill="none" stroke="#000000" d="M1066.1897,-1150.7526C1259.3466,-1121.4043 979.2893,-237.5 770,-237.5"/>
<polygon fill="#000000" stroke="#000000" points="1065.9732,-1150.7684 1055.6708,-1147.0121 1060.9866,-1151.1342 1056,-1151.5 1056,-1151.5 1056,-1151.5 1060.9866,-1151.1342 1056.3292,-1155.9879 1065.9732,-1150.7684 1065.9732,-1150.7684"/>
<text text-anchor="start" x="1063.3345" y="-1161.5" font-family="Arial" font-size="10.00" fill="#000000">FOREIGN KEY (user_id) REFERENCES users(id)</text>
</g>
</g>
</svg>
