<?xml version="1.0" encoding="UTF-8" standalone="no"?>
<!DOCTYPE svg PUBLIC "-//W3C//DTD SVG 1.1//EN"
 "http://www.w3.org/Graphics/SVG/1.1/DTD/svg11.dtd">
<!-- Generated by graphviz version 2.40.1 (20161225.0304)
 -->
<!-- Title: hot.opensauced.pizza supabase Pages: 1 -->
<svg width="1293pt" height="796pt"
 viewBox="0.00 0.00 1293.00 796.00" xmlns="http://www.w3.org/2000/svg" xmlns:xlink="http://www.w3.org/1999/xlink">
<g id="graph0" class="graph" transform="scale(1 1) rotate(0) translate(4 792)">
<title>hot.opensauced.pizza supabase</title>
<polygon fill="#ffffff" stroke="transparent" points="-4,4 -4,-792 1289,-792 1289,4 -4,4"/>
<!-- public.user_stars -->
<g id="node1" class="node">
<title>public.user_stars</title>
<polygon fill="#efefef" stroke="transparent" points="209.5,-709.5 209.5,-744.5 478.5,-744.5 478.5,-709.5 209.5,-709.5"/>
<polygon fill="none" stroke="#000000" points="209.5,-709.5 209.5,-744.5 478.5,-744.5 478.5,-709.5 209.5,-709.5"/>
<text text-anchor="start" x="227.3628" y="-722.3" font-family="Arial Bold" font-size="18.00" fill="#000000">public.user_stars</text>
<text text-anchor="start" x="363.3834" y="-722.3" font-family="Arial" font-size="14.00" fill="#000000"> </text>
<text text-anchor="start" x="367.274" y="-722.3" font-family="Arial" font-size="14.00" fill="#666666">[BASE TABLE]</text>
<polygon fill="none" stroke="#000000" points="209.5,-679.5 209.5,-709.5 478.5,-709.5 478.5,-679.5 209.5,-679.5"/>
<text text-anchor="start" x="216.5" y="-690.9" font-family="Arial" font-size="14.00" fill="#000000">id </text>
<text text-anchor="start" x="231.2798" y="-690.9" font-family="Arial" font-size="14.00" fill="#666666">[bigint]</text>
<polygon fill="none" stroke="#000000" points="209.5,-649.5 209.5,-679.5 478.5,-679.5 478.5,-649.5 209.5,-649.5"/>
<text text-anchor="start" x="216.5" y="-660.9" font-family="Arial" font-size="14.00" fill="#000000">user_id </text>
<text text-anchor="start" x="266.2882" y="-660.9" font-family="Arial" font-size="14.00" fill="#666666">[bigint]</text>
<polygon fill="none" stroke="#000000" points="209.5,-619.5 209.5,-649.5 478.5,-649.5 478.5,-619.5 209.5,-619.5"/>
<text text-anchor="start" x="216.5" y="-630.9" font-family="Arial" font-size="14.00" fill="#000000">star_id </text>
<text text-anchor="start" x="262.3962" y="-630.9" font-family="Arial" font-size="14.00" fill="#666666">[bigint]</text>
<polygon fill="none" stroke="#000000" points="209.5,-589.5 209.5,-619.5 478.5,-619.5 478.5,-589.5 209.5,-589.5"/>
<text text-anchor="start" x="216.5" y="-600.9" font-family="Arial" font-size="14.00" fill="#000000">recency_score </text>
<text text-anchor="start" x="311.4074" y="-600.9" font-family="Arial" font-size="14.00" fill="#666666">[numeric]</text>
<polygon fill="none" stroke="#000000" points="209.5,-559.5 209.5,-589.5 478.5,-589.5 478.5,-559.5 209.5,-559.5"/>
<text text-anchor="start" x="216.5" y="-570.9" font-family="Arial" font-size="14.00" fill="#000000">issues </text>
<text text-anchor="start" x="260.0624" y="-570.9" font-family="Arial" font-size="14.00" fill="#666666">[bigint]</text>
<polygon fill="none" stroke="#000000" points="209.5,-529.5 209.5,-559.5 478.5,-559.5 478.5,-529.5 209.5,-529.5"/>
<text text-anchor="start" x="216.5" y="-540.9" font-family="Arial" font-size="14.00" fill="#000000">stars </text>
<text text-anchor="start" x="250.7244" y="-540.9" font-family="Arial" font-size="14.00" fill="#666666">[bigint]</text>
<polygon fill="none" stroke="#000000" points="209.5,-499.5 209.5,-529.5 478.5,-529.5 478.5,-499.5 209.5,-499.5"/>
<text text-anchor="start" x="216.5" y="-510.9" font-family="Arial" font-size="14.00" fill="#000000">repo_name </text>
<text text-anchor="start" x="291.19" y="-510.9" font-family="Arial" font-size="14.00" fill="#666666">[text]</text>
<polygon fill="none" stroke="#000000" points="209.5,-469.5 209.5,-499.5 478.5,-499.5 478.5,-469.5 209.5,-469.5"/>
<text text-anchor="start" x="216.5" y="-480.9" font-family="Arial" font-size="14.00" fill="#000000">description </text>
<text text-anchor="start" x="288.068" y="-480.9" font-family="Arial" font-size="14.00" fill="#666666">[text]</text>
<polygon fill="none" stroke="#000000" points="209.5,-439.5 209.5,-469.5 478.5,-469.5 478.5,-439.5 209.5,-439.5"/>
<text text-anchor="start" x="216.5" y="-450.9" font-family="Arial" font-size="14.00" fill="#000000">contributors </text>
<text text-anchor="start" x="293.5126" y="-450.9" font-family="Arial" font-size="14.00" fill="#666666">[text[]]</text>
<polygon fill="none" stroke="#000000" points="209.5,-409.5 209.5,-439.5 478.5,-439.5 478.5,-409.5 209.5,-409.5"/>
<text text-anchor="start" x="216.4159" y="-420.9" font-family="Arial" font-size="14.00" fill="#000000">created_at </text>
<text text-anchor="start" x="286.4439" y="-420.9" font-family="Arial" font-size="14.00" fill="#666666">[timestamp without time zone]</text>
<polygon fill="none" stroke="#000000" points="209.5,-379.5 209.5,-409.5 478.5,-409.5 478.5,-379.5 209.5,-379.5"/>
<text text-anchor="start" x="216.5" y="-390.9" font-family="Arial" font-size="14.00" fill="#000000">contributions </text>
<text text-anchor="start" x="299.7412" y="-390.9" font-family="Arial" font-size="14.00" fill="#666666">[jsonb]</text>
</g>
<!-- public.stars -->
<g id="node2" class="node">
<title>public.stars</title>
<polygon fill="#efefef" stroke="transparent" points="43.5,-222.5 43.5,-257.5 292.5,-257.5 292.5,-222.5 43.5,-222.5"/>
<polygon fill="none" stroke="#000000" points="43.5,-222.5 43.5,-257.5 292.5,-257.5 292.5,-222.5 43.5,-222.5"/>
<text text-anchor="start" x="73.8682" y="-235.3" font-family="Arial Bold" font-size="18.00" fill="#000000">public.stars</text>
<text text-anchor="start" x="164.878" y="-235.3" font-family="Arial" font-size="14.00" fill="#000000"> </text>
<text text-anchor="start" x="168.7686" y="-235.3" font-family="Arial" font-size="14.00" fill="#666666">[BASE TABLE]</text>
<polygon fill="none" stroke="#000000" points="43.5,-192.5 43.5,-222.5 292.5,-222.5 292.5,-192.5 43.5,-192.5"/>
<text text-anchor="start" x="50.5" y="-203.9" font-family="Arial" font-size="14.00" fill="#000000">id </text>
<text text-anchor="start" x="65.2798" y="-203.9" font-family="Arial" font-size="14.00" fill="#666666">[bigint]</text>
<polygon fill="none" stroke="#000000" points="43.5,-162.5 43.5,-192.5 292.5,-192.5 292.5,-162.5 43.5,-162.5"/>
<text text-anchor="start" x="50.5" y="-173.9" font-family="Arial" font-size="14.00" fill="#000000">stargazers_count </text>
<text text-anchor="start" x="161.7538" y="-173.9" font-family="Arial" font-size="14.00" fill="#666666">[bigint]</text>
<polygon fill="none" stroke="#000000" points="43.5,-132.5 43.5,-162.5 292.5,-162.5 292.5,-132.5 43.5,-132.5"/>
<text text-anchor="start" x="50.5" y="-143.9" font-family="Arial" font-size="14.00" fill="#000000">open_issues_count </text>
<text text-anchor="start" x="174.9964" y="-143.9" font-family="Arial" font-size="14.00" fill="#666666">[bigint]</text>
<polygon fill="none" stroke="#000000" points="43.5,-102.5 43.5,-132.5 292.5,-132.5 292.5,-102.5 43.5,-102.5"/>
<text text-anchor="start" x="50.5" y="-113.9" font-family="Arial" font-size="14.00" fill="#000000">forks_count </text>
<text text-anchor="start" x="126.7454" y="-113.9" font-family="Arial" font-size="14.00" fill="#666666">[bigint]</text>
<polygon fill="none" stroke="#000000" points="43.5,-72.5 43.5,-102.5 292.5,-102.5 292.5,-72.5 43.5,-72.5"/>
<text text-anchor="start" x="50.5" y="-83.9" font-family="Arial" font-size="14.00" fill="#000000">full_name </text>
<text text-anchor="start" x="115.068" y="-83.9" font-family="Arial" font-size="14.00" fill="#666666">[text]</text>
<polygon fill="none" stroke="#000000" points="43.5,-42.5 43.5,-72.5 292.5,-72.5 292.5,-42.5 43.5,-42.5"/>
<text text-anchor="start" x="50.1438" y="-53.9" font-family="Arial" font-size="14.00" fill="#000000">created_at </text>
<text text-anchor="start" x="120.1718" y="-53.9" font-family="Arial" font-size="14.00" fill="#666666">[timestamp with time zone]</text>
</g>
<!-- public.user_stars&#45;&gt;public.stars -->
<g id="edge2" class="edge">
<title>public.user_stars:star_id&#45;&gt;public.stars:id</title>
<path fill="none" stroke="#000000" stroke-dasharray="5,2" d="M199.438,-634.1149C80.4337,-624.6941 138.8662,-444.628 209.5,-337 231.5617,-303.3835 270.4383,-334.6165 292.5,-301 315.3004,-266.258 334.0556,-207.5 292.5,-207.5"/>
<polygon fill="#000000" stroke="#000000" points="199.5073,-634.1175 209.3279,-638.9967 204.5037,-634.3087 209.5,-634.5 209.5,-634.5 209.5,-634.5 204.5037,-634.3087 209.6721,-630.0033 199.5073,-634.1175 199.5073,-634.1175"/>
<text text-anchor="start" x="123.768" y="-644.5" font-family="Arial" font-size="10.00" fill="#000000">Detected Relation</text>
</g>
<!-- public.users -->
<g id="node3" class="node">
<title>public.users</title>
<polygon fill="#efefef" stroke="transparent" points="396.5,-222.5 396.5,-257.5 645.5,-257.5 645.5,-222.5 396.5,-222.5"/>
<polygon fill="none" stroke="#000000" points="396.5,-222.5 396.5,-257.5 645.5,-257.5 645.5,-222.5 396.5,-222.5"/>
<text text-anchor="start" x="424.3662" y="-235.3" font-family="Arial Bold" font-size="18.00" fill="#000000">public.users</text>
<text text-anchor="start" x="520.38" y="-235.3" font-family="Arial" font-size="14.00" fill="#000000"> </text>
<text text-anchor="start" x="524.2706" y="-235.3" font-family="Arial" font-size="14.00" fill="#666666">[BASE TABLE]</text>
<polygon fill="none" stroke="#000000" points="396.5,-192.5 396.5,-222.5 645.5,-222.5 645.5,-192.5 396.5,-192.5"/>
<text text-anchor="start" x="403.5" y="-203.9" font-family="Arial" font-size="14.00" fill="#000000">id </text>
<text text-anchor="start" x="418.2798" y="-203.9" font-family="Arial" font-size="14.00" fill="#666666">[bigint]</text>
<polygon fill="none" stroke="#000000" points="396.5,-162.5 396.5,-192.5 645.5,-192.5 645.5,-162.5 396.5,-162.5"/>
<text text-anchor="start" x="403.5" y="-173.9" font-family="Arial" font-size="14.00" fill="#000000">open_issues </text>
<text text-anchor="start" x="485.9754" y="-173.9" font-family="Arial" font-size="14.00" fill="#666666">[bigint]</text>
<polygon fill="none" stroke="#000000" points="396.5,-132.5 396.5,-162.5 645.5,-162.5 645.5,-132.5 396.5,-132.5"/>
<text text-anchor="start" x="403.5" y="-143.9" font-family="Arial" font-size="14.00" fill="#000000">private </text>
<text text-anchor="start" x="449.3962" y="-143.9" font-family="Arial" font-size="14.00" fill="#666666">[boolean]</text>
<polygon fill="none" stroke="#000000" points="396.5,-102.5 396.5,-132.5 645.5,-132.5 645.5,-102.5 396.5,-102.5"/>
<text text-anchor="start" x="403.5" y="-113.9" font-family="Arial" font-size="14.00" fill="#000000">stars_data </text>
<text text-anchor="start" x="472.7454" y="-113.9" font-family="Arial" font-size="14.00" fill="#666666">[boolean]</text>
<polygon fill="none" stroke="#000000" points="396.5,-72.5 396.5,-102.5 645.5,-102.5 645.5,-72.5 396.5,-72.5"/>
<text text-anchor="start" x="403.5" y="-83.9" font-family="Arial" font-size="14.00" fill="#000000">login </text>
<text text-anchor="start" x="436.9516" y="-83.9" font-family="Arial" font-size="14.00" fill="#666666">[text]</text>
<polygon fill="none" stroke="#000000" points="396.5,-42.5 396.5,-72.5 645.5,-72.5 645.5,-42.5 396.5,-42.5"/>
<text text-anchor="start" x="403.1438" y="-53.9" font-family="Arial" font-size="14.00" fill="#000000">created_at </text>
<text text-anchor="start" x="473.1718" y="-53.9" font-family="Arial" font-size="14.00" fill="#666666">[timestamp with time zone]</text>
</g>
<!-- public.user_stars&#45;&gt;public.users -->
<g id="edge1" class="edge">
<title>public.user_stars:user_id&#45;&gt;public.users:id</title>
<path fill="none" stroke="#000000" stroke-dasharray="5,2" d="M488.4159,-662.6483C548.0406,-638.9584 516.3527,-394.9582 478.5,-337 456.7357,-303.6756 418.2643,-334.3244 396.5,-301 373.7769,-266.2074 354.9444,-207.5 396.5,-207.5"/>
<polygon fill="#000000" stroke="#000000" points="488.3301,-662.6643 477.6739,-660.0765 483.415,-663.5821 478.5,-664.5 478.5,-664.5 478.5,-664.5 483.415,-663.5821 479.3261,-668.9235 488.3301,-662.6643 488.3301,-662.6643"/>
<text text-anchor="start" x="485.768" y="-674.5" font-family="Arial" font-size="10.00" fill="#000000">Detected Relation</text>
</g>
<!-- public.recommendations -->
<g id="node4" class="node">
<title>public.recommendations</title>
<polygon fill="#efefef" stroke="transparent" points="582.5,-694.5 582.5,-729.5 888.5,-729.5 888.5,-694.5 582.5,-694.5"/>
<polygon fill="none" stroke="#000000" points="582.5,-694.5 582.5,-729.5 888.5,-729.5 888.5,-694.5 582.5,-694.5"/>
<text text-anchor="start" x="589.3572" y="-707.3" font-family="Arial Bold" font-size="18.00" fill="#000000">public.recommendations</text>
<text text-anchor="start" x="784.389" y="-707.3" font-family="Arial" font-size="14.00" fill="#000000"> </text>
<text text-anchor="start" x="788.2796" y="-707.3" font-family="Arial" font-size="14.00" fill="#666666">[BASE TABLE]</text>
<polygon fill="none" stroke="#000000" points="582.5,-664.5 582.5,-694.5 888.5,-694.5 888.5,-664.5 582.5,-664.5"/>
<text text-anchor="start" x="589.5" y="-675.9" font-family="Arial" font-size="14.00" fill="#000000">id </text>
<text text-anchor="start" x="604.2798" y="-675.9" font-family="Arial" font-size="14.00" fill="#666666">[bigint]</text>
<polygon fill="none" stroke="#000000" points="582.5,-634.5 582.5,-664.5 888.5,-664.5 888.5,-634.5 582.5,-634.5"/>
<text text-anchor="start" x="589.5" y="-645.9" font-family="Arial" font-size="14.00" fill="#000000">stars </text>
<text text-anchor="start" x="623.7244" y="-645.9" font-family="Arial" font-size="14.00" fill="#666666">[bigint]</text>
<polygon fill="none" stroke="#000000" points="582.5,-604.5 582.5,-634.5 888.5,-634.5 888.5,-604.5 582.5,-604.5"/>
<text text-anchor="start" x="589.5" y="-615.9" font-family="Arial" font-size="14.00" fill="#000000">issues </text>
<text text-anchor="start" x="633.0624" y="-615.9" font-family="Arial" font-size="14.00" fill="#666666">[bigint]</text>
<polygon fill="none" stroke="#000000" points="582.5,-574.5 582.5,-604.5 888.5,-604.5 888.5,-574.5 582.5,-574.5"/>
<text text-anchor="start" x="589.5" y="-585.9" font-family="Arial" font-size="14.00" fill="#000000">total_stars </text>
<text text-anchor="start" x="657.96" y="-585.9" font-family="Arial" font-size="14.00" fill="#666666">[bigint]</text>
<polygon fill="none" stroke="#000000" points="582.5,-544.5 582.5,-574.5 888.5,-574.5 888.5,-544.5 582.5,-544.5"/>
<text text-anchor="start" x="589.5" y="-555.9" font-family="Arial" font-size="14.00" fill="#000000">votes </text>
<text text-anchor="start" x="626.8464" y="-555.9" font-family="Arial" font-size="14.00" fill="#666666">[bigint]</text>
<polygon fill="none" stroke="#000000" points="582.5,-514.5 582.5,-544.5 888.5,-544.5 888.5,-514.5 582.5,-514.5"/>
<text text-anchor="start" x="589.5" y="-525.9" font-family="Arial" font-size="14.00" fill="#000000">avg_recency_score </text>
<text text-anchor="start" x="714.7552" y="-525.9" font-family="Arial" font-size="14.00" fill="#666666">[numeric]</text>
<polygon fill="none" stroke="#000000" points="582.5,-484.5 582.5,-514.5 888.5,-514.5 888.5,-484.5 582.5,-484.5"/>
<text text-anchor="start" x="589.5" y="-495.9" font-family="Arial" font-size="14.00" fill="#000000">repo_name </text>
<text text-anchor="start" x="664.19" y="-495.9" font-family="Arial" font-size="14.00" fill="#666666">[text]</text>
<polygon fill="none" stroke="#000000" points="582.5,-454.5 582.5,-484.5 888.5,-484.5 888.5,-454.5 582.5,-454.5"/>
<text text-anchor="start" x="589.5" y="-465.9" font-family="Arial" font-size="14.00" fill="#000000">description </text>
<text text-anchor="start" x="661.068" y="-465.9" font-family="Arial" font-size="14.00" fill="#666666">[text]</text>
<polygon fill="none" stroke="#000000" points="582.5,-424.5 582.5,-454.5 888.5,-454.5 888.5,-424.5 582.5,-424.5"/>
<text text-anchor="start" x="589.5" y="-435.9" font-family="Arial" font-size="14.00" fill="#000000">contributors </text>
<text text-anchor="start" x="666.5126" y="-435.9" font-family="Arial" font-size="14.00" fill="#666666">[text[]]</text>
<polygon fill="none" stroke="#000000" points="582.5,-394.5 582.5,-424.5 888.5,-424.5 888.5,-394.5 582.5,-394.5"/>
<text text-anchor="start" x="589.5" y="-405.9" font-family="Arial" font-size="14.00" fill="#000000">created_at </text>
<text text-anchor="start" x="659.528" y="-405.9" font-family="Arial" font-size="14.00" fill="#666666">[timestamp with time zone]</text>
</g>
<!-- public.votes -->
<g id="node5" class="node">
<title>public.votes</title>
<polygon fill="#efefef" stroke="transparent" points="993.5,-619.5 993.5,-654.5 1242.5,-654.5 1242.5,-619.5 993.5,-619.5"/>
<polygon fill="none" stroke="#000000" points="993.5,-619.5 993.5,-654.5 1242.5,-654.5 1242.5,-619.5 993.5,-619.5"/>
<text text-anchor="start" x="1021.8612" y="-632.3" font-family="Arial Bold" font-size="18.00" fill="#000000">public.votes</text>
<text text-anchor="start" x="1116.885" y="-632.3" font-family="Arial" font-size="14.00" fill="#000000"> </text>
<text text-anchor="start" x="1120.7756" y="-632.3" font-family="Arial" font-size="14.00" fill="#666666">[BASE TABLE]</text>
<polygon fill="none" stroke="#000000" points="993.5,-589.5 993.5,-619.5 1242.5,-619.5 1242.5,-589.5 993.5,-589.5"/>
<text text-anchor="start" x="1000.5" y="-600.9" font-family="Arial" font-size="14.00" fill="#000000">id </text>
<text text-anchor="start" x="1015.2798" y="-600.9" font-family="Arial" font-size="14.00" fill="#666666">[integer]</text>
<polygon fill="none" stroke="#000000" points="993.5,-559.5 993.5,-589.5 1242.5,-589.5 1242.5,-559.5 993.5,-559.5"/>
<text text-anchor="start" x="1000.5" y="-570.9" font-family="Arial" font-size="14.00" fill="#000000">github_user_id </text>
<text text-anchor="start" x="1096.1984" y="-570.9" font-family="Arial" font-size="14.00" fill="#666666">[bigint]</text>
<polygon fill="none" stroke="#000000" points="993.5,-529.5 993.5,-559.5 1242.5,-559.5 1242.5,-529.5 993.5,-529.5"/>
<text text-anchor="start" x="1000.5" y="-540.9" font-family="Arial" font-size="14.00" fill="#000000">repo_name </text>
<text text-anchor="start" x="1075.19" y="-540.9" font-family="Arial" font-size="14.00" fill="#666666">[text]</text>
<polygon fill="none" stroke="#000000" points="993.5,-499.5 993.5,-529.5 1242.5,-529.5 1242.5,-499.5 993.5,-499.5"/>
<text text-anchor="start" x="1000.5" y="-510.9" font-family="Arial" font-size="14.00" fill="#000000">code </text>
<text text-anchor="start" x="1034.7384" y="-510.9" font-family="Arial" font-size="14.00" fill="#666666">[text]</text>
<polygon fill="none" stroke="#000000" points="993.5,-469.5 993.5,-499.5 1242.5,-499.5 1242.5,-469.5 993.5,-469.5"/>
<text text-anchor="start" x="1000.1438" y="-480.9" font-family="Arial" font-size="14.00" fill="#000000">created_at </text>
<text text-anchor="start" x="1070.1718" y="-480.9" font-family="Arial" font-size="14.00" fill="#666666">[timestamp with time zone]</text>
</g>
</g>
</svg>
