<?xml version="1.0" encoding="UTF-8" standalone="no"?>
<!DOCTYPE svg PUBLIC "-//W3C//DTD SVG 1.1//EN"
 "http://www.w3.org/Graphics/SVG/1.1/DTD/svg11.dtd">
<!-- Generated by graphviz version 2.40.1 (20161225.0304)
 -->
<!-- Title: hot.opensauced.pizza supabase Pages: 1 -->
<svg width="1710pt" height="639pt"
 viewBox="0.00 0.00 1710.00 639.00" xmlns="http://www.w3.org/2000/svg" xmlns:xlink="http://www.w3.org/1999/xlink">
<g id="graph0" class="graph" transform="scale(1 1) rotate(0) translate(4 635)">
<title>hot.opensauced.pizza supabase</title>
<polygon fill="#ffffff" stroke="transparent" points="-4,4 -4,-635 1706,-635 1706,4 -4,4"/>
<!-- public.repos -->
<g id="node1" class="node">
<title>public.repos</title>
<polygon fill="#efefef" stroke="transparent" points="43,-552.5 43,-587.5 421,-587.5 421,-552.5 43,-552.5"/>
<polygon fill="none" stroke="#000000" points="43,-552.5 43,-587.5 421,-587.5 421,-552.5 43,-552.5"/>
<text text-anchor="start" x="134.8631" y="-565.3" font-family="Arial Bold" font-size="18.00" fill="#000000">public.repos</text>
<text text-anchor="start" x="231.8831" y="-565.3" font-family="Arial" font-size="14.00" fill="#000000"> </text>
<text text-anchor="start" x="235.7737" y="-565.3" font-family="Arial" font-size="14.00" fill="#666666">[BASE TABLE]</text>
<polygon fill="none" stroke="#000000" points="43,-522.5 43,-552.5 421,-552.5 421,-522.5 43,-522.5"/>
<text text-anchor="start" x="50" y="-533.9" font-family="Arial" font-size="14.00" fill="#000000">id </text>
<text text-anchor="start" x="64.7798" y="-533.9" font-family="Arial" font-size="14.00" fill="#666666">[bigint]</text>
<polygon fill="none" stroke="#000000" points="43,-492.5 43,-522.5 421,-522.5 421,-492.5 43,-492.5"/>
<text text-anchor="start" x="50" y="-503.9" font-family="Arial" font-size="14.00" fill="#000000">user_id </text>
<text text-anchor="start" x="99.7882" y="-503.9" font-family="Arial" font-size="14.00" fill="#666666">[bigint]</text>
<polygon fill="none" stroke="#000000" points="43,-462.5 43,-492.5 421,-492.5 421,-462.5 43,-462.5"/>
<text text-anchor="start" x="50" y="-473.9" font-family="Arial" font-size="14.00" fill="#000000">issues </text>
<text text-anchor="start" x="93.5624" y="-473.9" font-family="Arial" font-size="14.00" fill="#666666">[bigint]</text>
<polygon fill="none" stroke="#000000" points="43,-432.5 43,-462.5 421,-462.5 421,-432.5 43,-432.5"/>
<text text-anchor="start" x="50" y="-443.9" font-family="Arial" font-size="14.00" fill="#000000">stars </text>
<text text-anchor="start" x="84.2244" y="-443.9" font-family="Arial" font-size="14.00" fill="#666666">[bigint]</text>
<polygon fill="none" stroke="#000000" points="43,-402.5 43,-432.5 421,-432.5 421,-402.5 43,-402.5"/>
<text text-anchor="start" x="50" y="-413.9" font-family="Arial" font-size="14.00" fill="#000000">watchers </text>
<text text-anchor="start" x="109.8962" y="-413.9" font-family="Arial" font-size="14.00" fill="#666666">[bigint]</text>
<polygon fill="none" stroke="#000000" points="43,-372.5 43,-402.5 421,-402.5 421,-372.5 43,-372.5"/>
<text text-anchor="start" x="50" y="-383.9" font-family="Arial" font-size="14.00" fill="#000000">subscribers </text>
<text text-anchor="start" x="125.4488" y="-383.9" font-family="Arial" font-size="14.00" fill="#666666">[bigint]</text>
<polygon fill="none" stroke="#000000" points="43,-342.5 43,-372.5 421,-372.5 421,-342.5 43,-342.5"/>
<text text-anchor="start" x="50" y="-353.9" font-family="Arial" font-size="14.00" fill="#000000">is_fork </text>
<text text-anchor="start" x="95.1136" y="-353.9" font-family="Arial" font-size="14.00" fill="#666666">[boolean]</text>
<polygon fill="none" stroke="#000000" points="43,-312.5 43,-342.5 421,-342.5 421,-312.5 43,-312.5"/>
<text text-anchor="start" x="50" y="-323.9" font-family="Arial" font-size="14.00" fill="#000000">created_at </text>
<text text-anchor="start" x="120.028" y="-323.9" font-family="Arial" font-size="14.00" fill="#666666">[timestamp without time zone]</text>
<polygon fill="none" stroke="#000000" points="43,-282.5 43,-312.5 421,-312.5 421,-282.5 43,-282.5"/>
<text text-anchor="start" x="50" y="-293.9" font-family="Arial" font-size="14.00" fill="#000000">updated_at </text>
<text text-anchor="start" x="123.9326" y="-293.9" font-family="Arial" font-size="14.00" fill="#666666">[timestamp without time zone]</text>
<polygon fill="none" stroke="#000000" points="43,-252.5 43,-282.5 421,-282.5 421,-252.5 43,-252.5"/>
<text text-anchor="start" x="50" y="-263.9" font-family="Arial" font-size="14.00" fill="#000000">pushed_at </text>
<text text-anchor="start" x="119.2594" y="-263.9" font-family="Arial" font-size="14.00" fill="#666666">[timestamp without time zone]</text>
<polygon fill="none" stroke="#000000" points="43,-222.5 43,-252.5 421,-252.5 421,-222.5 43,-222.5"/>
<text text-anchor="start" x="49.5674" y="-233.9" font-family="Arial" font-size="14.00" fill="#000000">last_fetched_contributors_at </text>
<text text-anchor="start" x="229.2924" y="-233.9" font-family="Arial" font-size="14.00" fill="#666666">[timestamp without time zone]</text>
<polygon fill="none" stroke="#000000" points="43,-192.5 43,-222.5 421,-222.5 421,-192.5 43,-192.5"/>
<text text-anchor="start" x="50" y="-203.9" font-family="Arial" font-size="14.00" fill="#000000">name </text>
<text text-anchor="start" x="88.899" y="-203.9" font-family="Arial" font-size="14.00" fill="#666666">[varchar(255)]</text>
<polygon fill="none" stroke="#000000" points="43,-162.5 43,-192.5 421,-192.5 421,-162.5 43,-162.5"/>
<text text-anchor="start" x="50" y="-173.9" font-family="Arial" font-size="14.00" fill="#000000">full_name </text>
<text text-anchor="start" x="114.568" y="-173.9" font-family="Arial" font-size="14.00" fill="#666666">[varchar(255)]</text>
<polygon fill="none" stroke="#000000" points="43,-132.5 43,-162.5 421,-162.5 421,-132.5 43,-132.5"/>
<text text-anchor="start" x="50" y="-143.9" font-family="Arial" font-size="14.00" fill="#000000">description </text>
<text text-anchor="start" x="121.568" y="-143.9" font-family="Arial" font-size="14.00" fill="#666666">[text]</text>
<polygon fill="none" stroke="#000000" points="43,-102.5 43,-132.5 421,-132.5 421,-102.5 43,-102.5"/>
<text text-anchor="start" x="50" y="-113.9" font-family="Arial" font-size="14.00" fill="#000000">language </text>
<text text-anchor="start" x="111.4754" y="-113.9" font-family="Arial" font-size="14.00" fill="#666666">[varchar(64)]</text>
<polygon fill="none" stroke="#000000" points="43,-72.5 43,-102.5 421,-102.5 421,-72.5 43,-72.5"/>
<text text-anchor="start" x="50" y="-83.9" font-family="Arial" font-size="14.00" fill="#000000">license </text>
<text text-anchor="start" x="97.4516" y="-83.9" font-family="Arial" font-size="14.00" fill="#666666">[varchar(64)]</text>
<polygon fill="none" stroke="#000000" points="43,-42.5 43,-72.5 421,-72.5 421,-42.5 43,-42.5"/>
<text text-anchor="start" x="50" y="-53.9" font-family="Arial" font-size="14.00" fill="#000000">url </text>
<text text-anchor="start" x="69.4404" y="-53.9" font-family="Arial" font-size="14.00" fill="#666666">[varchar(255)]</text>
</g>
<!-- public.users -->
<g id="node2" class="node">
<title>public.users</title>
<polygon fill="#efefef" stroke="transparent" points="526,-402.5 526,-437.5 775,-437.5 775,-402.5 526,-402.5"/>
<polygon fill="none" stroke="#000000" points="526,-402.5 526,-437.5 775,-437.5 775,-402.5 526,-402.5"/>
<text text-anchor="start" x="553.8662" y="-415.3" font-family="Arial Bold" font-size="18.00" fill="#000000">public.users</text>
<text text-anchor="start" x="649.88" y="-415.3" font-family="Arial" font-size="14.00" fill="#000000"> </text>
<text text-anchor="start" x="653.7706" y="-415.3" font-family="Arial" font-size="14.00" fill="#666666">[BASE TABLE]</text>
<polygon fill="none" stroke="#000000" points="526,-372.5 526,-402.5 775,-402.5 775,-372.5 526,-372.5"/>
<text text-anchor="start" x="533" y="-383.9" font-family="Arial" font-size="14.00" fill="#000000">id </text>
<text text-anchor="start" x="547.7798" y="-383.9" font-family="Arial" font-size="14.00" fill="#666666">[bigint]</text>
<polygon fill="none" stroke="#000000" points="526,-342.5 526,-372.5 775,-372.5 775,-342.5 526,-342.5"/>
<text text-anchor="start" x="533" y="-353.9" font-family="Arial" font-size="14.00" fill="#000000">open_issues </text>
<text text-anchor="start" x="615.4754" y="-353.9" font-family="Arial" font-size="14.00" fill="#666666">[bigint]</text>
<polygon fill="none" stroke="#000000" points="526,-312.5 526,-342.5 775,-342.5 775,-312.5 526,-312.5"/>
<text text-anchor="start" x="533" y="-323.9" font-family="Arial" font-size="14.00" fill="#000000">has_stars_data </text>
<text text-anchor="start" x="632.5932" y="-323.9" font-family="Arial" font-size="14.00" fill="#666666">[boolean]</text>
<polygon fill="none" stroke="#000000" points="526,-282.5 526,-312.5 775,-312.5 775,-282.5 526,-282.5"/>
<text text-anchor="start" x="533" y="-293.9" font-family="Arial" font-size="14.00" fill="#000000">is_private </text>
<text text-anchor="start" x="596.7854" y="-293.9" font-family="Arial" font-size="14.00" fill="#666666">[boolean]</text>
<polygon fill="none" stroke="#000000" points="526,-252.5 526,-282.5 775,-282.5 775,-252.5 526,-252.5"/>
<text text-anchor="start" x="533" y="-263.9" font-family="Arial" font-size="14.00" fill="#000000">is_open_sauced_member </text>
<text text-anchor="start" x="697.9354" y="-263.9" font-family="Arial" font-size="14.00" fill="#666666">[boolean]</text>
<polygon fill="none" stroke="#000000" points="526,-222.5 526,-252.5 775,-252.5 775,-222.5 526,-222.5"/>
<text text-anchor="start" x="532.6438" y="-233.9" font-family="Arial" font-size="14.00" fill="#000000">created_at </text>
<text text-anchor="start" x="602.6718" y="-233.9" font-family="Arial" font-size="14.00" fill="#666666">[timestamp with time zone]</text>
<polygon fill="none" stroke="#000000" points="526,-192.5 526,-222.5 775,-222.5 775,-192.5 526,-192.5"/>
<text text-anchor="start" x="533" y="-203.9" font-family="Arial" font-size="14.00" fill="#000000">login </text>
<text text-anchor="start" x="566.4516" y="-203.9" font-family="Arial" font-size="14.00" fill="#666666">[varchar(255)]</text>
</g>
<!-- public.users_to_repos_stars -->
<g id="node3" class="node">
<title>public.users_to_repos_stars</title>
<polygon fill="#efefef" stroke="transparent" points="879,-297.5 879,-332.5 1215,-332.5 1215,-297.5 879,-297.5"/>
<polygon fill="none" stroke="#000000" points="879,-297.5 879,-332.5 1215,-332.5 1215,-297.5 879,-297.5"/>
<text text-anchor="start" x="885.847" y="-310.3" font-family="Arial Bold" font-size="18.00" fill="#000000">public.users_to_repos_stars</text>
<text text-anchor="start" x="1110.8992" y="-310.3" font-family="Arial" font-size="14.00" fill="#000000"> </text>
<text text-anchor="start" x="1114.7898" y="-310.3" font-family="Arial" font-size="14.00" fill="#666666">[BASE TABLE]</text>
</g>
<!-- public.users_to_repos_votes -->
<g id="node4" class="node">
<title>public.users_to_repos_votes</title>
<polygon fill="#efefef" stroke="transparent" points="1319,-297.5 1319,-332.5 1659,-332.5 1659,-297.5 1319,-297.5"/>
<polygon fill="none" stroke="#000000" points="1319,-297.5 1319,-332.5 1659,-332.5 1659,-297.5 1319,-297.5"/>
<text text-anchor="start" x="1325.84" y="-310.3" font-family="Arial Bold" font-size="18.00" fill="#000000">public.users_to_repos_votes</text>
<text text-anchor="start" x="1554.9062" y="-310.3" font-family="Arial" font-size="14.00" fill="#000000"> </text>
<text text-anchor="start" x="1558.7968" y="-310.3" font-family="Arial" font-size="14.00" fill="#666666">[BASE TABLE]</text>
</g>
</g>
</svg>
