<?xml version="1.0" encoding="UTF-8" standalone="no"?>
<!DOCTYPE svg PUBLIC "-//W3C//DTD SVG 1.1//EN"
 "http://www.w3.org/Graphics/SVG/1.1/DTD/svg11.dtd">
<!-- Generated by graphviz version 2.40.1 (20161225.0304)
 -->
<!-- Title: hot.opensauced.pizza supabase Pages: 1 -->
<svg width="884pt" height="916pt"
 viewBox="0.00 0.00 884.00 916.00" xmlns="http://www.w3.org/2000/svg" xmlns:xlink="http://www.w3.org/1999/xlink">
<g id="graph0" class="graph" transform="scale(1 1) rotate(0) translate(4 912)">
<title>hot.opensauced.pizza supabase</title>
<polygon fill="#ffffff" stroke="transparent" points="-4,4 -4,-912 880,-912 880,4 -4,4"/>
<!-- public.repos -->
<g id="node1" class="node">
<title>public.repos</title>
<polygon fill="#efefef" stroke="transparent" points="43,-552.5 43,-587.5 421,-587.5 421,-552.5 43,-552.5"/>
<polygon fill="none" stroke="#000000" points="43,-552.5 43,-587.5 421,-587.5 421,-552.5 43,-552.5"/>
<text text-anchor="start" x="134.8631" y="-565.3" font-family="Arial Bold" font-size="18.00" fill="#000000">public.repos</text>
<text text-anchor="start" x="231.8831" y="-565.3" font-family="Arial" font-size="14.00" fill="#000000"> </text>
<text text-anchor="start" x="235.7737" y="-565.3" font-family="Arial" font-size="14.00" fill="#666666">[BASE TABLE]</text>
<polygon fill="none" stroke="#000000" points="43,-522.5 43,-552.5 421,-552.5 421,-522.5 43,-522.5"/>
<text text-anchor="start" x="50" y="-533.9" font-family="Arial" font-size="14.00" fill="#000000">id </text>
<text text-anchor="start" x="64.7798" y="-533.9" font-family="Arial" font-size="14.00" fill="#666666">[bigint]</text>
<polygon fill="none" stroke="#000000" points="43,-492.5 43,-522.5 421,-522.5 421,-492.5 43,-492.5"/>
<text text-anchor="start" x="50" y="-503.9" font-family="Arial" font-size="14.00" fill="#000000">user_id </text>
<text text-anchor="start" x="99.7882" y="-503.9" font-family="Arial" font-size="14.00" fill="#666666">[bigint]</text>
<polygon fill="none" stroke="#000000" points="43,-462.5 43,-492.5 421,-492.5 421,-462.5 43,-462.5"/>
<text text-anchor="start" x="50" y="-473.9" font-family="Arial" font-size="14.00" fill="#000000">issues </text>
<text text-anchor="start" x="93.5624" y="-473.9" font-family="Arial" font-size="14.00" fill="#666666">[bigint]</text>
<polygon fill="none" stroke="#000000" points="43,-432.5 43,-462.5 421,-462.5 421,-432.5 43,-432.5"/>
<text text-anchor="start" x="50" y="-443.9" font-family="Arial" font-size="14.00" fill="#000000">stars </text>
<text text-anchor="start" x="84.2244" y="-443.9" font-family="Arial" font-size="14.00" fill="#666666">[bigint]</text>
<polygon fill="none" stroke="#000000" points="43,-402.5 43,-432.5 421,-432.5 421,-402.5 43,-402.5"/>
<text text-anchor="start" x="50" y="-413.9" font-family="Arial" font-size="14.00" fill="#000000">watchers </text>
<text text-anchor="start" x="109.8962" y="-413.9" font-family="Arial" font-size="14.00" fill="#666666">[bigint]</text>
<polygon fill="none" stroke="#000000" points="43,-372.5 43,-402.5 421,-402.5 421,-372.5 43,-372.5"/>
<text text-anchor="start" x="50" y="-383.9" font-family="Arial" font-size="14.00" fill="#000000">subscribers </text>
<text text-anchor="start" x="125.4488" y="-383.9" font-family="Arial" font-size="14.00" fill="#666666">[bigint]</text>
<polygon fill="none" stroke="#000000" points="43,-342.5 43,-372.5 421,-372.5 421,-342.5 43,-342.5"/>
<text text-anchor="start" x="50" y="-353.9" font-family="Arial" font-size="14.00" fill="#000000">is_fork </text>
<text text-anchor="start" x="95.1136" y="-353.9" font-family="Arial" font-size="14.00" fill="#666666">[boolean]</text>
<polygon fill="none" stroke="#000000" points="43,-312.5 43,-342.5 421,-342.5 421,-312.5 43,-312.5"/>
<text text-anchor="start" x="50" y="-323.9" font-family="Arial" font-size="14.00" fill="#000000">created_at </text>
<text text-anchor="start" x="120.028" y="-323.9" font-family="Arial" font-size="14.00" fill="#666666">[timestamp without time zone]</text>
<polygon fill="none" stroke="#000000" points="43,-282.5 43,-312.5 421,-312.5 421,-282.5 43,-282.5"/>
<text text-anchor="start" x="50" y="-293.9" font-family="Arial" font-size="14.00" fill="#000000">updated_at </text>
<text text-anchor="start" x="123.9326" y="-293.9" font-family="Arial" font-size="14.00" fill="#666666">[timestamp without time zone]</text>
<polygon fill="none" stroke="#000000" points="43,-252.5 43,-282.5 421,-282.5 421,-252.5 43,-252.5"/>
<text text-anchor="start" x="50" y="-263.9" font-family="Arial" font-size="14.00" fill="#000000">pushed_at </text>
<text text-anchor="start" x="119.2594" y="-263.9" font-family="Arial" font-size="14.00" fill="#666666">[timestamp without time zone]</text>
<polygon fill="none" stroke="#000000" points="43,-222.5 43,-252.5 421,-252.5 421,-222.5 43,-222.5"/>
<text text-anchor="start" x="49.5674" y="-233.9" font-family="Arial" font-size="14.00" fill="#000000">last_fetched_contributors_at </text>
<text text-anchor="start" x="229.2924" y="-233.9" font-family="Arial" font-size="14.00" fill="#666666">[timestamp without time zone]</text>
<polygon fill="none" stroke="#000000" points="43,-192.5 43,-222.5 421,-222.5 421,-192.5 43,-192.5"/>
<text text-anchor="start" x="50" y="-203.9" font-family="Arial" font-size="14.00" fill="#000000">name </text>
<text text-anchor="start" x="88.899" y="-203.9" font-family="Arial" font-size="14.00" fill="#666666">[varchar(255)]</text>
<polygon fill="none" stroke="#000000" points="43,-162.5 43,-192.5 421,-192.5 421,-162.5 43,-162.5"/>
<text text-anchor="start" x="50" y="-173.9" font-family="Arial" font-size="14.00" fill="#000000">full_name </text>
<text text-anchor="start" x="114.568" y="-173.9" font-family="Arial" font-size="14.00" fill="#666666">[varchar(255)]</text>
<polygon fill="none" stroke="#000000" points="43,-132.5 43,-162.5 421,-162.5 421,-132.5 43,-132.5"/>
<text text-anchor="start" x="50" y="-143.9" font-family="Arial" font-size="14.00" fill="#000000">description </text>
<text text-anchor="start" x="121.568" y="-143.9" font-family="Arial" font-size="14.00" fill="#666666">[text]</text>
<polygon fill="none" stroke="#000000" points="43,-102.5 43,-132.5 421,-132.5 421,-102.5 43,-102.5"/>
<text text-anchor="start" x="50" y="-113.9" font-family="Arial" font-size="14.00" fill="#000000">language </text>
<text text-anchor="start" x="111.4754" y="-113.9" font-family="Arial" font-size="14.00" fill="#666666">[varchar(64)]</text>
<polygon fill="none" stroke="#000000" points="43,-72.5 43,-102.5 421,-102.5 421,-72.5 43,-72.5"/>
<text text-anchor="start" x="50" y="-83.9" font-family="Arial" font-size="14.00" fill="#000000">license </text>
<text text-anchor="start" x="97.4516" y="-83.9" font-family="Arial" font-size="14.00" fill="#666666">[varchar(64)]</text>
<polygon fill="none" stroke="#000000" points="43,-42.5 43,-72.5 421,-72.5 421,-42.5 43,-42.5"/>
<text text-anchor="start" x="50" y="-53.9" font-family="Arial" font-size="14.00" fill="#000000">url </text>
<text text-anchor="start" x="69.4404" y="-53.9" font-family="Arial" font-size="14.00" fill="#666666">[varchar(255)]</text>
</g>
<!-- public.users -->
<g id="node2" class="node">
<title>public.users</title>
<polygon fill="#efefef" stroke="transparent" points="532,-402.5 532,-437.5 781,-437.5 781,-402.5 532,-402.5"/>
<polygon fill="none" stroke="#000000" points="532,-402.5 532,-437.5 781,-437.5 781,-402.5 532,-402.5"/>
<text text-anchor="start" x="559.8662" y="-415.3" font-family="Arial Bold" font-size="18.00" fill="#000000">public.users</text>
<text text-anchor="start" x="655.88" y="-415.3" font-family="Arial" font-size="14.00" fill="#000000"> </text>
<text text-anchor="start" x="659.7706" y="-415.3" font-family="Arial" font-size="14.00" fill="#666666">[BASE TABLE]</text>
<polygon fill="none" stroke="#000000" points="532,-372.5 532,-402.5 781,-402.5 781,-372.5 532,-372.5"/>
<text text-anchor="start" x="539" y="-383.9" font-family="Arial" font-size="14.00" fill="#000000">id </text>
<text text-anchor="start" x="553.7798" y="-383.9" font-family="Arial" font-size="14.00" fill="#666666">[bigint]</text>
<polygon fill="none" stroke="#000000" points="532,-342.5 532,-372.5 781,-372.5 781,-342.5 532,-342.5"/>
<text text-anchor="start" x="539" y="-353.9" font-family="Arial" font-size="14.00" fill="#000000">open_issues </text>
<text text-anchor="start" x="621.4754" y="-353.9" font-family="Arial" font-size="14.00" fill="#666666">[bigint]</text>
<polygon fill="none" stroke="#000000" points="532,-312.5 532,-342.5 781,-342.5 781,-312.5 532,-312.5"/>
<text text-anchor="start" x="539" y="-323.9" font-family="Arial" font-size="14.00" fill="#000000">has_stars_data </text>
<text text-anchor="start" x="638.5932" y="-323.9" font-family="Arial" font-size="14.00" fill="#666666">[boolean]</text>
<polygon fill="none" stroke="#000000" points="532,-282.5 532,-312.5 781,-312.5 781,-282.5 532,-282.5"/>
<text text-anchor="start" x="539" y="-293.9" font-family="Arial" font-size="14.00" fill="#000000">is_private </text>
<text text-anchor="start" x="602.7854" y="-293.9" font-family="Arial" font-size="14.00" fill="#666666">[boolean]</text>
<polygon fill="none" stroke="#000000" points="532,-252.5 532,-282.5 781,-282.5 781,-252.5 532,-252.5"/>
<text text-anchor="start" x="539" y="-263.9" font-family="Arial" font-size="14.00" fill="#000000">is_open_sauced_member </text>
<text text-anchor="start" x="703.9354" y="-263.9" font-family="Arial" font-size="14.00" fill="#666666">[boolean]</text>
<polygon fill="none" stroke="#000000" points="532,-222.5 532,-252.5 781,-252.5 781,-222.5 532,-222.5"/>
<text text-anchor="start" x="538.6438" y="-233.9" font-family="Arial" font-size="14.00" fill="#000000">created_at </text>
<text text-anchor="start" x="608.6718" y="-233.9" font-family="Arial" font-size="14.00" fill="#666666">[timestamp with time zone]</text>
<polygon fill="none" stroke="#000000" points="532,-192.5 532,-222.5 781,-222.5 781,-192.5 532,-192.5"/>
<text text-anchor="start" x="539" y="-203.9" font-family="Arial" font-size="14.00" fill="#000000">login </text>
<text text-anchor="start" x="572.4516" y="-203.9" font-family="Arial" font-size="14.00" fill="#666666">[varchar(255)]</text>
</g>
<!-- public.users_to_repos_stars -->
<g id="node3" class="node">
<title>public.users_to_repos_stars</title>
<polygon fill="#efefef" stroke="transparent" points="53,-829.5 53,-864.5 389,-864.5 389,-829.5 53,-829.5"/>
<polygon fill="none" stroke="#000000" points="53,-829.5 53,-864.5 389,-864.5 389,-829.5 53,-829.5"/>
<text text-anchor="start" x="59.847" y="-842.3" font-family="Arial Bold" font-size="18.00" fill="#000000">public.users_to_repos_stars</text>
<text text-anchor="start" x="284.8992" y="-842.3" font-family="Arial" font-size="14.00" fill="#000000"> </text>
<text text-anchor="start" x="288.7898" y="-842.3" font-family="Arial" font-size="14.00" fill="#666666">[BASE TABLE]</text>
<polygon fill="none" stroke="#000000" points="53,-799.5 53,-829.5 389,-829.5 389,-799.5 53,-799.5"/>
<text text-anchor="start" x="60" y="-810.9" font-family="Arial" font-size="14.00" fill="#000000">id </text>
<text text-anchor="start" x="74.7798" y="-810.9" font-family="Arial" font-size="14.00" fill="#666666">[bigint]</text>
<polygon fill="none" stroke="#000000" points="53,-769.5 53,-799.5 389,-799.5 389,-769.5 53,-769.5"/>
<text text-anchor="start" x="60" y="-780.9" font-family="Arial" font-size="14.00" fill="#000000">user_id </text>
<text text-anchor="start" x="109.7882" y="-780.9" font-family="Arial" font-size="14.00" fill="#666666">[bigint]</text>
<polygon fill="none" stroke="#000000" points="53,-739.5 53,-769.5 389,-769.5 389,-739.5 53,-739.5"/>
<text text-anchor="start" x="60" y="-750.9" font-family="Arial" font-size="14.00" fill="#000000">repo_id </text>
<text text-anchor="start" x="110.5708" y="-750.9" font-family="Arial" font-size="14.00" fill="#666666">[bigint]</text>
<polygon fill="none" stroke="#000000" points="53,-709.5 53,-739.5 389,-739.5 389,-709.5 53,-709.5"/>
<text text-anchor="start" x="60" y="-720.9" font-family="Arial" font-size="14.00" fill="#000000">created_at </text>
<text text-anchor="start" x="130.028" y="-720.9" font-family="Arial" font-size="14.00" fill="#666666">[timestamp with time zone]</text>
</g>
<!-- public.users_to_repos_stars&#45;&gt;public.repos -->
<g id="edge1" class="edge">
<title>public.users_to_repos_stars:repo_id&#45;&gt;public.repos:id</title>
<path fill="none" stroke="#000000" d="M398.9488,-752.9053C425.253,-743.3355 412.4942,-693.0655 389,-667 337.2435,-609.579 94.7565,-688.421 43,-631 15.1778,-600.1328 1.4444,-537.5 43,-537.5"/>
<polygon fill="#000000" stroke="#000000" points="398.874,-752.9172 388.2878,-750.0567 393.937,-753.7086 389,-754.5 389,-754.5 389,-754.5 393.937,-753.7086 389.7122,-758.9433 398.874,-752.9172 398.874,-752.9172"/>
<text text-anchor="start" x="395.7755" y="-764.5" font-family="Arial" font-size="10.00" fill="#000000">FOREIGN KEY (repo_id) REFERENCES repos(id)</text>
</g>
<!-- public.users_to_repos_stars&#45;&gt;public.users -->
<g id="edge2" class="edge">
<title>public.users_to_repos_stars:user_id&#45;&gt;public.users:id</title>
<path fill="none" stroke="#000000" d="M399.192,-783.6076C441.6209,-775.3678 412.1556,-711.8389 441,-667 452.5817,-648.9962 463.0732,-649.9665 473,-631 524.6361,-532.3422 420.6463,-387.5 532,-387.5"/>
<polygon fill="#000000" stroke="#000000" points="398.9619,-783.6276 388.6074,-780.0172 393.9809,-784.0638 389,-784.5 389,-784.5 389,-784.5 393.9809,-784.0638 389.3926,-788.9828 398.9619,-783.6276 398.9619,-783.6276"/>
<text text-anchor="start" x="396.3345" y="-794.5" font-family="Arial" font-size="10.00" fill="#000000">FOREIGN KEY (user_id) REFERENCES users(id)</text>
</g>
<!-- public.users_to_repos_votes -->
<g id="node4" class="node">
<title>public.users_to_repos_votes</title>
<polygon fill="#efefef" stroke="transparent" points="493,-829.5 493,-864.5 833,-864.5 833,-829.5 493,-829.5"/>
<polygon fill="none" stroke="#000000" points="493,-829.5 493,-864.5 833,-864.5 833,-829.5 493,-829.5"/>
<text text-anchor="start" x="499.84" y="-842.3" font-family="Arial Bold" font-size="18.00" fill="#000000">public.users_to_repos_votes</text>
<text text-anchor="start" x="728.9062" y="-842.3" font-family="Arial" font-size="14.00" fill="#000000"> </text>
<text text-anchor="start" x="732.7968" y="-842.3" font-family="Arial" font-size="14.00" fill="#666666">[BASE TABLE]</text>
<polygon fill="none" stroke="#000000" points="493,-799.5 493,-829.5 833,-829.5 833,-799.5 493,-799.5"/>
<text text-anchor="start" x="500" y="-810.9" font-family="Arial" font-size="14.00" fill="#000000">id </text>
<text text-anchor="start" x="514.7798" y="-810.9" font-family="Arial" font-size="14.00" fill="#666666">[bigint]</text>
<polygon fill="none" stroke="#000000" points="493,-769.5 493,-799.5 833,-799.5 833,-769.5 493,-769.5"/>
<text text-anchor="start" x="500" y="-780.9" font-family="Arial" font-size="14.00" fill="#000000">user_id </text>
<text text-anchor="start" x="549.7882" y="-780.9" font-family="Arial" font-size="14.00" fill="#666666">[bigint]</text>
<polygon fill="none" stroke="#000000" points="493,-739.5 493,-769.5 833,-769.5 833,-739.5 493,-739.5"/>
<text text-anchor="start" x="500" y="-750.9" font-family="Arial" font-size="14.00" fill="#000000">repo_id </text>
<text text-anchor="start" x="550.5708" y="-750.9" font-family="Arial" font-size="14.00" fill="#666666">[bigint]</text>
<polygon fill="none" stroke="#000000" points="493,-709.5 493,-739.5 833,-739.5 833,-709.5 493,-709.5"/>
<text text-anchor="start" x="500" y="-720.9" font-family="Arial" font-size="14.00" fill="#000000">created_at </text>
<text text-anchor="start" x="570.028" y="-720.9" font-family="Arial" font-size="14.00" fill="#666666">[timestamp with time zone]</text>
</g>
<!-- public.users_to_repos_votes&#45;&gt;public.repos -->
<g id="edge3" class="edge">
<title>public.users_to_repos_votes:repo_id&#45;&gt;public.repos:id</title>
<path fill="none" stroke="#000000" d="M482.8752,-753.6705C400.5647,-739.1017 518.943,-537.5 421,-537.5"/>
<polygon fill="#000000" stroke="#000000" points="483.0334,-753.6834 492.6325,-758.985 488.0167,-754.0917 493,-754.5 493,-754.5 493,-754.5 488.0167,-754.0917 493.3675,-750.015 483.0334,-753.6834 483.0334,-753.6834"/>
<text text-anchor="start" x="440.2755" y="-738.5" font-family="Arial" font-size="10.00" fill="#000000">FOREIGN KEY (repo_id) REFERENCES repos(id)</text>
</g>
<!-- public.users_to_repos_votes&#45;&gt;public.users -->
<g id="edge4" class="edge">
<title>public.users_to_repos_votes:user_id&#45;&gt;public.users:id</title>
<path fill="none" stroke="#000000" d="M482.6522,-783.356C444.8096,-774.0083 469.8776,-709.4585 493,-667 565.875,-533.1829 708.125,-614.8171 781,-481 800.8746,-444.5053 822.5556,-387.5 781,-387.5"/>
<polygon fill="#000000" stroke="#000000" points="483.0606,-783.4011 492.5055,-788.9727 488.0303,-783.9505 493,-784.5 493,-784.5 493,-784.5 488.0303,-783.9505 493.4945,-780.0273 483.0606,-783.4011 483.0606,-783.4011"/>
<text text-anchor="start" x="322.5845" y="-768.5" font-family="Arial" font-size="10.00" fill="#000000">FOREIGN KEY (user_id) REFERENCES users(id)</text>
</g>
</g>
</svg>
